<?xml version="1.0" encoding="utf-8"?>
<!-- Generator: Adobe Illustrator 16.0.0, SVG Export Plug-In . SVG Version: 6.00 Build 0)  -->
<!DOCTYPE svg PUBLIC "-//W3C//DTD SVG 1.1//EN" "http://www.w3.org/Graphics/SVG/1.1/DTD/svg11.dtd">
<svg version="1.1" id="Layer_1" xmlns="http://www.w3.org/2000/svg" xmlns:xlink="http://www.w3.org/1999/xlink" x="0px" y="0px"
	 width="100px" height="100px" viewBox="0 0 100 100" enable-background="new 0 0 100 100" xml:space="preserve">
<g>
	<circle fill="none" stroke="#4681A7" cx="50.229" cy="50.068" r="26.25"/>
</g>
<g>
	<path fill="none" stroke="#4681A7" stroke-miterlimit="10" d="M53.842,39.318l-0.41,1.09 M57.113,41.09l-0.75,0.887 M59.502,43.955
		L58.547,44.5 M60.727,51.113l-1.09-0.205 M59.502,54.727l-0.955-0.545 M40.955,54.727l0.955-0.545 M39.66,51.113l1.092-0.205
		 M39.66,47.5l1.092,0.205 M40.955,43.955L41.91,44.5 M43.342,41.09l0.75,0.887 M46.547,39.318l0.408,1.09 M50.229,38.637v1.09
		 M59.297,58.684c2.385-2.387,3.885-5.662,3.885-9.344c0-7.158-5.795-13.021-12.953-13.021S37.273,42.113,37.273,49.34
		c0,3.682,1.5,6.957,3.887,9.344"/>
	<path fill="none" stroke="#4681A7" stroke-linejoin="round" stroke-miterlimit="10" d="M53.57,59.979h-6.75
		c-0.615,0-1.092-0.48-1.092-1.092v-0.613c0-0.615,0.477-1.09,1.092-1.09h6.75c0.611,0,1.156,0.475,1.156,1.09v0.545
		C54.727,59.498,54.182,59.979,53.57,59.979z M60.32,47.568l-7.91,3 M47.979,52.34l-2.25,0.887 M52.479,51.59
		c0,1.229-1.023,2.25-2.25,2.25s-2.25-1.021-2.25-2.25c0-1.227,1.023-2.25,2.25-2.25C51.455,49.271,52.479,50.295,52.479,51.59z"/>
</g>
</svg>
