<?xml version="1.0" encoding="utf-8"?>
<!-- Generator: Adobe Illustrator 16.0.0, SVG Export Plug-In . SVG Version: 6.00 Build 0)  -->
<!DOCTYPE svg PUBLIC "-//W3C//DTD SVG 1.1//EN" "http://www.w3.org/Graphics/SVG/1.1/DTD/svg11.dtd">
<svg version="1.1" id="Layer_1" xmlns="http://www.w3.org/2000/svg" xmlns:xlink="http://www.w3.org/1999/xlink" x="0px" y="0px"
	 width="800px" height="202.908px" viewBox="0 198.658 800 202.908" enable-background="new 0 0 800 600" xml:space="preserve">
<g opacity="0.25">
	<g>
		<!-- <rect x="334" y="198.658" fill="#4681A7" width="133.5" height="202.908"/> -->
		<g>
			<g opacity="0.41">
				<g>
					<g>
						<g>
							<g>
								<g>
									<g>
										<g>
											<g>
												<g>
													<g>
														<g>
															<defs>
																<rect id="SVGID_1_" x="379.75" y="217.408" width="89.047" height="72.408"/>
															</defs>
															<clipPath id="SVGID_2_">
																<use xlink:href="#SVGID_1_"  overflow="visible"/>
															</clipPath>
															<path clip-path="url(#SVGID_2_)" fill="#4681A7" d="M452.844,223.205c-5.66,4.977-12.82,7.84-20.115,9.883
																c-7.229,1.979-14.729,3.207-21.955,5.184c-2.523,0.684-5.25,1.637-6.545,3.887c-1.09,1.773-1.021,4.023-0.818,6.068
																c0.479,4.432,1.5,8.795,1.979,13.229c0.545,4.43,0.545,9-0.889,13.227c-1.432,4.227-4.635,8.045-8.861,9.34
																c0.545,3.066,4.158,2.795,14.385-0.205c0.275-0.068,0.545-0.135,0.75-0.271c4.5,0.953,9.34,0.543,13.57-1.229
																c1.02-0.408,2.045-1.021,2.455-2.045c0.408-1.09-0.205-2.387-1.16-3.137c-0.889-0.75-2.115-1.09-3.275-1.363
																c-0.75-0.205-1.5-0.34-2.25-0.545v-0.07c4.094,0.75,8.387,0.275,12.137-1.43c1.229-0.545,2.389-1.229,3.207-2.32
																c0.75-1.09,1.021-2.59,0.342-3.75c-1.365-2.18-5.389-1.908-6-4.361c5.795-1.023,11.18-4.023,15.064-8.389
																c0.686-0.75,1.297-1.568,1.57-2.521s0.135-2.113-0.545-2.863c-0.75-0.816-2.045-0.887-3.139-0.887
																c-4.021-0.068-8.111-0.203-12.137-0.273c5.387-1.023,10.98-2.045,15.344-5.316
																C452.16,238.682,455.023,230.361,452.844,223.205"/>
														</g>
													</g>
												</g>
											</g>
										</g>
									</g>
								</g>
							</g>
						</g>
					</g>
				</g>
			</g>
			<g opacity="0.41">
				<g>
					<g>
						<g>
							<g>
								<g>
									<g>
										<g>
											<g>
												<g>
													<g>
														<g>
															<defs>
																<rect id="SVGID_3_" x="333.525" y="218.838" width="81.273" height="70.979"/>
															</defs>
															<clipPath id="SVGID_4_">
																<use xlink:href="#SVGID_3_"  overflow="visible"/>
															</clipPath>
															<path clip-path="url(#SVGID_4_)" fill="#4681A7" d="M349.547,224.635c4.91,4.842,11.182,7.57,17.592,9.41
																c6.408,1.84,12.953,2.863,19.361,4.703c2.184,0.613,4.57,1.5,5.729,3.75c0.887,1.773,0.818,3.957,0.547,6
																c-0.479,4.434-1.5,8.797-2.047,13.229c-0.545,4.432-0.682,9,0.547,13.16c1.225,4.158,3.953,7.908,7.703,9.135
																c-0.545,3.066-3.75,2.865-12.75,0.066c-0.203-0.066-0.479-0.133-0.682-0.201c-4.021,1.09-8.318,0.748-12-0.955
																c-0.887-0.41-1.84-1.023-2.113-2.047c-0.342-1.09,0.273-2.387,1.092-3.137c0.816-0.75,1.908-1.09,2.932-1.432
																c0.682-0.205,1.363-0.408,2.043-0.545v-0.066c-3.611,0.816-7.43,0.406-10.703-1.16
																c-1.09-0.479-2.113-1.158-2.797-2.25c-0.68-1.023-0.885-2.59-0.271-3.684c1.229-2.18,4.771-1.977,5.455-4.5
																c-5.113-0.885-9.818-3.75-13.158-8.045c-0.615-0.75-1.16-1.568-1.365-2.521c-0.203-0.957-0.068-2.113,0.547-2.863
																c0.682-0.82,1.771-0.887,2.793-0.955c3.615-0.205,7.16-0.34,10.775-0.545c-4.775-0.887-9.684-1.844-13.5-4.977
																C349.82,240.045,347.5,231.795,349.547,224.635"/>
														</g>
													</g>
												</g>
											</g>
										</g>
									</g>
								</g>
							</g>
						</g>
					</g>
				</g>
			</g>
			<path fill="#574241" d="M371.979,307.477c-0.137,0.611-0.068,0.408-0.34,1.021c-0.342,0.887-3.205,4.229-3.613,6.068
				c0.408,0.139,0.953,0,1.363-0.682c0.818-1.297,1.227-1.158,1.227-1.158s-0.205,0.479-0.205,2.861
				c-0.068,1.297-0.068,2.66,0.137,3.479c0.068,0.205,0.613,0.615,0.887,0.271c0.205,0.344,0.682,0.479,0.816,0.41
				c0.275-0.137,0.684-1.771,0.957-3c0.068,0.818-0.342,2.523,0.477,2.457c0.205-0.344,0.75-2.797,0.75-2.934
				c0.066-0.41,0.682-2.25,0.816-3.75c0.07-1.5-0.408-3.477-0.408-3.477l0.137-1.297
				C374.979,307.748,373.684,307.477,371.979,307.477"/>
			<path fill="#21366A" d="M377.092,257.021c0.342,8.045,0.068,13.977-0.953,22.5c-1.16,9.34-4.773,28.637-4.773,28.637l3.955,0.68
				c0,0,6-14.383,9-25.293c1.637-5.863,2.455-16.773,2.455-16.773s7.158-26.387,1.84-23.523
				C385.547,244.955,376.684,248.566,377.092,257.021"/>
			<path fill="#415C97" d="M412.479,279.861c0,0-2.59-11.93-1.635-13.023c0.955-1.09,2.656,9,2.656,9L412.479,279.861z"/>
		</g>
		<path fill="#A0CBD6" d="M391.07,240.385c0,0-12.137,12.477-11.182,26.797c1.158,17.453,1.771,35.25,1.771,35.25l9.479,0.68
			c-0.342-1.977-0.682-4.43-1.023-7.227l-2.455-1.227c0,0-6.135-18.273-4.977-32.047c0.75-9,4.773-15,4.773-15
			s-0.342-0.816-0.137-1.84c0.34-1.773,1.5-2.113,1.5-2.113s0.477,1.363,2.045,2.658c-1.5,1.092-2.115,1.771-2.115,1.771
			s-2.521,4.773-2.18,14.117c0.137,3.406,0.75,6.953,1.568,10.361c-0.41-19.361,6.887-28.5,9.271-30.955l-5.385,5.115
			c0,0-1.705-0.41-3-3.068c0.271,0,0.545,0.068,0.816,0.068c4.297,0,7.434-3.139,7.637-3.41l0,0L391.07,240.385z"/>
		<g>
			<path fill="#86BBC9" d="M385,304.816c0,0,2.25-10.295-0.408-15.818c-2.932-6-1.566-17.25-1.566-17.25s0.135,9.479,2.045,16.568
				c1.977,7.092,1.09,16.5,1.09,16.5H385z"/>
			<path fill="#A0CBD6" d="M397.479,240.316l0.682,0.615l-6.135,5.795c0,0-1.705-0.41-3-3.068
				C393.865,244.135,397.479,240.316,397.479,240.316"/>
			<path fill="#21366A" d="M398.16,240.932c0,0-11.25,9.066-9.953,34.09c1.021,19.5,3.885,33.684,3.885,33.684
				s12.818,1.293,21.547,2.111c2.25-15.885-5.865-21.408-4.025-40.229C411.049,256.205,398.16,240.932,398.16,240.932"/>
			<path fill="#21366A" d="M409.139,301.545c0,0,0.75-9.818,3.475-22.16c-5.93-26.113,5.115-21.953,4.637-26.59
				c-0.682-1.297-1.5-2.318-2.656-2.934c-10.094-5.523-16.434-8.863-16.434-8.863s-9.477,11.66-1.5,28.229
				C404.639,285.727,409.139,301.545,409.139,301.545"/>
			<path fill="#43629B" d="M388.75,243.727c0,0-1.158,0.408-1.5,2.111c-0.203,1.094,0.139,1.844,0.139,1.844s-4.023,5.93-4.773,15
				c-1.09,13.84,4.977,32.045,4.977,32.045l6.75,3.408l0.615-6.953c0,0-7.979-15.273-8.457-28.844
				c-0.34-9.406,2.184-14.111,2.184-14.111s0.613-0.615,2.045-1.771C389.229,245.088,388.75,243.727,388.75,243.727"/>
			<path fill="#244982" d="M395.434,245.838c-1.434,3.479-2.658,8.729-1.5,15.07c-1.705,2.93-3.887,7.43-4.568,12.818
				c-0.545-10.365,1.977-19.84,3.955-24C394,248.432,394.75,247.066,395.434,245.838"/>
			<path fill="#244982" d="M397.957,242.021c0,0,1.227,3.137,0.408,4.363c-0.887,1.227-1.295,4.432-1.158,7.16
				c-1.773,0.953-3.479,1.637-3.479,1.637s-0.34,1.566,1.5,3.75c-0.34,0.545-0.818,1.227-1.295,1.977
				c-1.158-6.342,0.066-11.523,1.5-15.07C396.797,243.588,397.957,242.021,397.957,242.021"/>
		</g>
		<g>
			<g>
				<g>
					<g>
						<g>
							<g>
								<g>
									<g>
										<g>
											<g>
												<g>
													<defs>
														<path id="SVGID_5_" d="M393.32,230.977c0,0-1.842,3-2.387,4.908c-0.545,1.773-2.455,2.863-3.273,2.863
															c-1.771,0.068-4.771-0.137-4.771-0.137s4.84,1.365,6.068,4.705c4.158,0.545,8.59-3.068,8.59-3.068
															s-1.021-1.977-0.547-5.727C397.41,231.111,393.865,230.977,393.32,230.977L393.32,230.977"/>
													</defs>
													<clipPath id="SVGID_6_">
														<use xlink:href="#SVGID_5_"  overflow="visible"/>
													</clipPath>
													<rect x="382.82" y="230.771" clip-path="url(#SVGID_6_)" fill="#5A505B" width="14.658" height="13.09"/>
												</g>
											</g>
										</g>
									</g>
								</g>
							</g>
						</g>
					</g>
				</g>
			</g>
		</g>
	</g>
	<path fill="#574241" d="M383.025,238.682c1.566,0.135,3.816,0.273,5.25,0.205c1.975-0.07,2.453-1.979,2.453-1.979l1.363-3.203
		c0,0,0.75-0.344,1.434-0.957c0.271-0.271,0.885-1.771-0.547-2.453c-2.113-1.023,0.068-6,0.068-6l-3-1.09l-2.797,1.227l-5.316,7.09
		c0,0-0.068,0.41,0.477,0.545c0.615,0.205,1.229,0.342,1.229,0.342s-1.297,5.318-1.297,5.523
		C382.207,238.271,382.41,238.611,383.025,238.682"/>
	<path fill="#21366A" d="M398.025,226.205c-7.092-4.979-10.092-5.457-11.047-3.479c-0.137,0.34-0.271,1.229,0.205,1.771
		c2.523,0,4.842,0.207,4.023,1.773c-0.137,0.477-3.068,5.934-1.092,6.34c0.477-0.68,1.91-2.59,3.342-1.703
		c0.818,0.547-0.479,3.137,3.477,4.227C397.479,231.795,398.5,227.361,398.025,226.205"/>
	<path fill="#21366A" d="M414.934,385.066v2.389l-2.32,0.066l-0.064-0.955l-3.205,1.021h-3c0,0-0.344-0.543,0.205-0.68
		c0.135,0,3-0.82,3-0.82l1.5-1.021H414.934z"/>
	<path fill="#21366A" d="M390.047,385.545v2.113h-2.318v-0.953l-3.271,1.021l-3-0.068c0,0-0.342-0.682,0.203-0.75
		c0.137,0,3-0.75,3-0.75l1.297-0.682L390.047,385.545z"/>
	<path fill="#21366A" d="M386.092,384.248c0,0,2.25,1.434,5.592,1.637c1.5-16.297,7.158-28.297,3.613-41.523
		c1.979-20.656,8.252-42,8.252-42l-21.889-0.203L386.092,384.248z"/>
	<path fill="#415C97" d="M398.297,324.727l-1.021,5.111c0,0-2.934-10.906-2.66-16.156
		C395.025,306.182,398.297,324.727,398.297,324.727"/>
	<path fill="#21366A" d="M391.957,300.182l18,84.066c0,0,3.887,0.957,5.25,0.957c0.477-15.344,1.293-33.684-2.934-41.457
		c-0.34-23.182,0.82-29.932-0.066-42.271C401.773,300.998,391.957,300.182,391.957,300.182"/>
	<path fill="#415C97" d="M404.979,335.088c-0.068,1.57,1.09,2.867,2.59,2.934l24.07,1.5c1.568,0.066,2.861-1.09,2.93-2.59
		l0.889-13.773c0.066-1.57-1.094-2.863-2.594-2.932l-24.064-1.5c-1.57-0.068-2.865,1.09-2.936,2.59L404.979,335.088z"/>
	<path fill="#21366A" d="M406.75,335.158c-0.066,1.568,1.094,2.863,2.594,2.93l24.066,1.5c1.568,0.07,2.863-1.09,2.934-2.59
		l0.885-13.771c0.07-1.568-1.09-2.865-2.59-2.932l-24.07-1.5c-1.568-0.068-2.861,1.09-2.93,2.592L406.75,335.158z"/>
	<path fill="#262F68" d="M417.594,319.135l0.68,0.07v0.133c0,1.16,0.887,2.184,2.115,2.25l0,0l4.225,0.273h0.137
		c1.16,0,2.184-0.885,2.25-2.113v-0.137c0-1.156-0.887-2.18-2.111-2.25l-4.229-0.273h-0.137c-1.16,0-2.18,0.889-2.25,2.117
		L417.594,319.135l-0.684-0.068c0.139-1.908,1.703-3.34,3.613-3.34h0.205l0,0l4.229,0.271c1.906,0.137,3.342,1.707,3.342,3.613
		v0.205c-0.139,1.91-1.705,3.342-3.615,3.342h-0.205l-4.229-0.271l0,0c-1.906-0.139-3.34-1.705-3.34-3.615v-0.205L417.594,319.135z"
		/>
	<path fill="#F4F8F8" d="M419.91,330.727c-0.066,1.09,0.75,2.045,1.908,2.182c1.092,0.068,2.045-0.75,2.115-1.91l0.135-1.977
		c0.07-1.09-0.75-2.045-1.908-2.113c-1.092-0.07-2.111,0.75-2.182,1.908L419.91,330.727z"/>
	<path fill="#21366A" d="M421.207,329.361c0-0.406,0.406-0.75,0.816-0.75s0.75,0.41,0.75,0.82c0,0.273-0.205,0.477-0.41,0.613
		l-0.064,0.953c0,0.207-0.205,0.41-0.41,0.34c-0.205,0-0.41-0.203-0.34-0.406l0.064-0.955
		C421.344,329.838,421.207,329.635,421.207,329.361"/>
	<path fill="#574241" d="M423.389,310.816c0,0-1.91,1.229-2.32,1.568c-0.75,0.613-1.5,2.182-4.02,3.477
		c-0.205,0.137,0.951,0.684,1.635,0.344c1.227-0.547,2.25-0.479,2.25-0.479l0.273,1.635h-0.957c0,0,0.479,1.023,0.889,1.57
		c0.34,0.406,0.75,0.273,0.885,0.135c0.137-0.135,0.275-0.205,0.477-0.205c0.41,0.07,0.684,0.205,1.094-0.135
		c0.406-0.271,0.68,0,1.09-0.271c0.205-0.139,0.34-0.617,0.34-0.617s-0.135-1.156-0.273-2.111c-0.201-1.295-0.406-3.139-0.406-3.139
		l-0.137-0.883L423.389,310.816z"/>
	<path fill="#21366A" d="M424.957,312.248l-5.389-0.543c0,0-0.611-22.094-10.77-49.5c0.135-0.41,5.045-19.16,9.064-7.979
		C427.273,280.611,424.957,312.248,424.957,312.248"/>
	<path fill="#21366A" d="M390.047,225.727L390.047,225.727L390.047,225.727L390.047,225.727L390.047,225.727L390.047,225.727"/>
	<polyline fill="#21366A" points="390.047,225.727 390.047,225.727 390.047,225.727 390.047,225.727 390.047,225.727 	"/>
	<path fill="#21366A" d="M393.66,228.932L393.66,228.932L393.66,228.932L393.66,228.932L393.66,228.932L393.66,228.932"/>
	<polyline fill="#21366A" points="393.66,228.932 393.66,228.932 393.66,228.932 393.66,228.932 393.66,228.932 	"/>
	<path fill="#21366A" d="M394.139,233.088L394.139,233.088L394.139,233.088L394.139,233.088L394.139,233.088L394.139,233.088"/>
	<polyline fill="#21366A" points="394.139,233.088 394.139,233.088 394.139,233.088 394.139,233.088 394.139,233.088 	"/>
	<path fill="#21366A" d="M402.523,229.408c0.137-0.203,0.275-0.41,0.275-0.682c0-0.068,0-0.068,0-0.139
		c0.201-0.203,0.408-0.477,0.408-0.816c0-0.545-0.408-0.887-0.889-0.887l0,0c0-0.068,0-0.137,0-0.203
		c0-0.137-0.068-0.273-0.068-0.41c0.068-0.137,0.068-0.273,0.068-0.41c0-0.477-0.408-0.885-0.818-0.885
		c0.207-0.342,0.139-0.75-0.066-1.092c-0.07-0.068-0.135-0.137-0.205-0.203c0.271-0.344,0.271-0.82,0-1.16
		c0-0.066-0.068-0.066-0.068-0.066c0.068-0.273,0.068-0.617-0.137-0.889c-0.273-0.408-0.816-0.479-1.158-0.135l0,0
		c0-0.07-0.068-0.07-0.068-0.137c-0.068-0.137-0.137-0.207-0.271-0.273c0-0.137-0.068-0.273-0.137-0.34
		c-0.273-0.41-0.818-0.477-1.16-0.137c-0.137-0.207-0.34-0.34-0.545-0.408c0.137-0.205,0.205-0.479,0.137-0.75
		c-0.07-0.549-0.545-0.889-1.023-0.82c-0.068,0-0.205,0.07-0.271,0.139c-0.137-0.41-0.547-0.684-0.955-0.617c-0.07,0-0.07,0-0.137,0
		c-0.205-0.271-0.477-0.406-0.818-0.34c-0.205,0.068-0.34,0.137-0.477,0.34c-0.139-0.066-0.273-0.133-0.479-0.133
		c-0.068,0-0.203,0-0.271,0.066c-0.139-0.34-0.41-0.613-0.818-0.613c-0.479,0-0.82,0.408-0.82,0.953c0,0.07,0,0.137,0,0.205l0,0
		c-0.066-0.205-0.203-0.479-0.408-0.611c-0.408-0.273-0.953-0.139-1.158,0.34c-0.068,0.066-0.068,0.203-0.137,0.271
		c-0.408-0.135-0.818,0-1.021,0.41c0,0.068-0.068,0.068-0.068,0.135c-0.273,0-0.615,0.137-0.75,0.477
		c-0.068,0.139-0.137,0.344-0.137,0.479c-0.205-0.135-0.41-0.205-0.613-0.205c-0.547,0-1.023,0.547-1.023,1.16
		c0,0.066,0,0.137,0,0.205c-0.342,0.135-0.613,0.479-0.545,0.955c0,0.135,0,0.203,0.068,0.34c-0.41,0.066-0.682,0.477-0.682,0.955
		c0,0.068,0,0.068,0,0.135c-0.275,0.205-0.41,0.477-0.41,0.82c0,0.34,0.135,0.613,0.41,0.816c-0.137,0.137-0.205,0.41-0.205,0.613
		c0,0.547,0.34,0.955,0.818,0.955c0.137,0.342,0.408,0.545,0.75,0.545c0.068,0,0.068,0,0.068,0c0.135,0.273,0.408,0.477,0.75,0.477
		c0.477,0,0.818-0.406,0.818-0.953c0.475,0,0.885-0.477,0.816-0.953c0-0.41-0.271-0.82-0.613-0.887v-0.068c0.068,0,0.068,0,0.137,0
		c0.342,0,0.613-0.271,0.75-0.545c0.068,0,0.135,0,0.205,0c0.137,0,0.271-0.07,0.34-0.07l0,0c0.273,1.094,1.16,1.91,2.25,1.91
		c0.41,0,0.75-0.137,1.092-0.34c0.137,0.34,0.477,0.545,0.818,0.475c0,0.07,0.068,0.205,0.137,0.275l0,0
		c-0.342,0.34-0.41,0.953-0.137,1.363c0.271,0.34,0.682,0.477,1.021,0.271v0.068c-0.066,0-0.066,0.07-0.135,0.07
		c-0.273,0.271-0.342,0.611-0.273,0.953c-0.068,0-0.137,0.068-0.205,0.137c-0.068,0.066-0.203,0.203-0.203,0.34
		c-0.137,0-0.205,0.07-0.342,0.203c-0.342,0.344-0.408,0.957-0.137,1.367c0.205,0.34,0.613,0.406,0.887,0.34
		c0,0,0,0.066,0.068,0.066c0.068,0.137,0.205,0.205,0.273,0.273c-0.137,0.137-0.205,0.342-0.205,0.477
		c-0.273,0.205-0.479,0.477-0.479,0.887c0,0.273,0.068,0.479,0.205,0.613c0,0.07-0.068,0.07-0.068,0.137c-0.068,0-0.137,0-0.203,0
		c-0.137,0-0.273,0.068-0.342,0.137c-0.137-0.068-0.205-0.068-0.342-0.068c-0.477,0-0.816,0.479-0.816,0.955
		c0,0.41,0.203,0.684,0.545,0.816v0.068c0,0.549,0.408,0.889,0.887,0.889c0.135,0,0.271-0.068,0.408-0.137
		c0.137,0.068,0.273,0.137,0.41,0.137c0,0,0,0,0.066,0c0.137,0.34,0.479,0.611,0.818,0.611c0.342,0,0.682-0.271,0.75-0.611
		c0.137,0.137,0.342,0.271,0.615,0.271c0.477,0,0.816-0.479,0.816-0.955c0-0.135,0-0.205-0.066-0.273
		c0.135-0.066,0.34-0.133,0.408-0.271c0.137,0.205,0.408,0.34,0.682,0.34c0.342,0,0.682-0.271,0.75-0.611
		c0.137,0.137,0.342,0.271,0.613,0.271c0.479,0,0.82-0.479,0.82-0.955c0-0.135,0-0.205-0.07-0.273
		c0.41-0.066,0.682-0.477,0.615-0.953c0-0.068,0-0.068,0-0.137c0.205-0.203,0.41-0.477,0.41-0.816c0-0.344-0.205-0.615-0.41-0.75
		h0.066c0.547,0,1.023-0.547,1.023-1.16C403.068,230.088,402.863,229.682,402.523,229.408"/>
	<path fill="#1D2E5C" d="M385.139,229.066c-0.068,0.41,0.068,0.479,0.477,0.545c0.41,0.07,1.635,0.07,1.635,0
		c-0.066-0.066-0.68-0.477-1.771-1.09C385.139,228.248,385.207,228.658,385.139,229.066"/>
</g>
</svg>
