<?xml version="1.0" encoding="utf-8"?>
<!-- Generator: Adobe Illustrator 16.0.0, SVG Export Plug-In . SVG Version: 6.00 Build 0)  -->
<!DOCTYPE svg PUBLIC "-//W3C//DTD SVG 1.1//EN" "http://www.w3.org/Graphics/SVG/1.1/DTD/svg11.dtd">
<svg version="1.1" id="Layer_1" xmlns="http://www.w3.org/2000/svg" xmlns:xlink="http://www.w3.org/1999/xlink" x="0px" y="0px"
	 width="100px" height="100px" viewBox="0 0 100 100" enable-background="new 0 0 100 100" xml:space="preserve">
<g>
	<g>
		<path fill="#4681A7" d="M58.133,43.798c1.266,0,2.256,1.082,2.256,2.432c0,1.354-0.99,2.436-2.256,2.436s-2.256-1.082-2.256-2.436
			C55.877,44.88,56.867,43.798,58.133,43.798 M58.133,49.931c1.98,0,3.516-1.719,3.516-3.701c0-2.072-1.623-3.697-3.516-3.697
			c-1.986,0-3.521,1.717-3.521,3.697C54.611,48.304,56.146,49.931,58.133,49.931"/>
		<path fill="none" stroke="#FFFFFF" stroke-width="0.25" stroke-miterlimit="10" d="M58.133,43.798
			c1.266,0,2.256,1.082,2.256,2.432c0,1.354-0.99,2.436-2.256,2.436s-2.256-1.082-2.256-2.436
			C55.877,44.88,56.867,43.798,58.133,43.798z M58.133,49.931c1.98,0,3.516-1.719,3.516-3.701c0-2.072-1.623-3.697-3.516-3.697
			c-1.986,0-3.521,1.717-3.521,3.697C54.611,48.304,56.146,49.931,58.133,49.931z"/>
		<path fill="#4681A7" d="M55.514,51.28c0.27,0.27,0.539,0.631,0.814,0.99c0.539-0.27,1.172-0.449,1.805-0.449
			c2.432,0,4.506,2.164,4.506,4.688c0,0.273,0,0.543-0.088,0.812h1.166c0-0.27,0.094-0.539,0.094-0.812
			c0-3.336-2.525-5.949-5.678-5.949C57.137,50.56,56.234,50.833,55.514,51.28"/>
		<path fill="none" stroke="#FFFFFF" stroke-width="0.139" stroke-miterlimit="10" d="M55.514,51.28
			c0.27,0.27,0.539,0.631,0.814,0.99c0.539-0.27,1.172-0.449,1.805-0.449c2.432,0,4.506,2.164,4.506,4.688
			c0,0.273,0,0.543-0.088,0.812h1.166c0-0.27,0.094-0.539,0.094-0.812c0-3.336-2.525-5.949-5.678-5.949
			C57.137,50.56,56.234,50.833,55.514,51.28z"/>
		<path fill="#4681A7" d="M55.514,57.411h1.178c0-4.148-3.158-7.48-7.127-7.48c-3.879,0-7.121,3.332-7.121,7.48h1.172
			c0-3.426,2.613-6.223,5.949-6.223S55.514,53.985,55.514,57.411"/>
		<path fill="none" stroke="#FFFFFF" stroke-width="0.139" stroke-miterlimit="10" d="M55.514,57.411h1.178
			c0-4.148-3.158-7.48-7.127-7.48c-3.879,0-7.121,3.332-7.121,7.48h1.172c0-3.426,2.613-6.223,5.949-6.223
			S55.514,53.985,55.514,57.411z"/>
		<path fill="#4681A7" d="M49.564,41.179c1.713,0,3.066,1.447,3.066,3.158c0,1.715-1.354,3.156-3.066,3.156
			s-3.066-1.441-3.066-3.156C46.592,42.532,47.941,41.179,49.564,41.179 M49.564,48.665c2.252,0,4.15-1.984,4.15-4.328
			c0-2.348-1.898-4.328-4.15-4.328s-4.148,1.98-4.148,4.328C45.416,46.681,47.312,48.665,49.564,48.665"/>
		<path fill="none" stroke="#FFFFFF" stroke-width="0.139" stroke-miterlimit="10" d="M49.564,41.179
			c1.713,0,3.066,1.447,3.066,3.158c0,1.715-1.354,3.156-3.066,3.156s-3.066-1.441-3.066-3.156
			C46.592,42.532,47.941,41.179,49.564,41.179z M49.564,48.665c2.252,0,4.15-1.984,4.15-4.328c0-2.348-1.898-4.328-4.15-4.328
			s-4.148,1.98-4.148,4.328C45.416,46.681,47.312,48.665,49.564,48.665z"/>
		<path fill="#4681A7" d="M36.672,57.411c-0.092-0.27-0.092-0.541-0.092-0.811c0-2.615,1.984-4.689,4.51-4.689
			c0.629,0,1.262,0.18,1.801,0.449c0.273-0.359,0.543-0.629,0.812-0.988c-0.812-0.453-1.711-0.723-2.613-0.723
			c-3.158,0-5.682,2.705-5.682,5.951c0,0.27,0,0.541,0.092,0.811H36.672z"/>
		<path fill="none" stroke="#FFFFFF" stroke-width="0.139" stroke-miterlimit="10" d="M36.672,57.411
			c-0.092-0.27-0.092-0.541-0.092-0.811c0-2.615,1.984-4.689,4.51-4.689c0.629,0,1.262,0.18,1.801,0.449
			c0.273-0.359,0.543-0.629,0.812-0.988c-0.812-0.453-1.711-0.723-2.613-0.723c-3.158,0-5.682,2.705-5.682,5.951
			c0,0.27,0,0.541,0.092,0.811H36.672z"/>
		<path fill="#4681A7" d="M41.09,43.798c1.262,0,2.252,1.082,2.252,2.432c0,1.354-0.99,2.436-2.252,2.436
			c-1.264,0-2.256-1.082-2.256-2.436C38.834,44.88,39.826,43.798,41.09,43.798 M41.09,49.931c1.982,0,3.516-1.719,3.516-3.701
			c0-2.072-1.623-3.697-3.516-3.697c-1.896,0-3.52,1.717-3.52,3.697C37.57,48.304,39.104,49.931,41.09,49.931"/>
		<path fill="none" stroke="#FFFFFF" stroke-width="0.277" stroke-miterlimit="10" d="M41.09,43.798
			c1.262,0,2.252,1.082,2.252,2.432c0,1.354-0.99,2.436-2.252,2.436c-1.264,0-2.256-1.082-2.256-2.436
			C38.834,44.88,39.826,43.798,41.09,43.798z M41.09,49.931c1.982,0,3.516-1.719,3.516-3.701c0-2.072-1.623-3.697-3.516-3.697
			c-1.896,0-3.52,1.717-3.52,3.697C37.57,48.304,39.104,49.931,41.09,49.931z"/>
		<path fill="none" stroke="#4681A7" stroke-width="0.5" d="M40.904,39.56c1.697,0,3.07,0.363,3.07,0.811s-1.373,0.809-3.07,0.809
			c-1.689,0-3.061-0.361-3.061-0.809S39.215,39.56,40.904,39.56z"/>
		<path fill="none" stroke="#4681A7" stroke-width="0.5" d="M58.309,39.56c1.699,0,3.07,0.363,3.07,0.811s-1.371,0.809-3.07,0.809
			c-1.688,0-3.064-0.361-3.064-0.809S56.621,39.56,58.309,39.56z"/>
		<path fill="none" stroke="#4681A7" stroke-width="0.5" d="M49.746,36.399c1.689,0,3.061,0.367,3.061,0.816
			c0,0.447-1.371,0.811-3.061,0.811c-1.693,0-3.07-0.363-3.07-0.811C46.676,36.767,48.053,36.399,49.746,36.399z"/>
		<path fill="none" stroke="#4681A7" stroke-width="0.5" stroke-miterlimit="10" d="M68.861,52.001
			c-1.711,0.359-6.404-1.168-4.963,0.09c1.447,1.264,1.447,4.779,1.447,4.779c0.809,0.092,2.162-0.539,1.623-1.529
			c1.172,0.088,1.711-0.451,0.902-1.625C68.773,53.532,68.592,52.903,68.861,52.001z"/>
		<path fill="none" stroke="#4681A7" stroke-width="0.5" stroke-miterlimit="10" d="M30.361,52.001
			c1.711,0.359,6.398-1.168,4.959,0.09c-1.447,1.264-1.447,4.779-1.447,4.779c-0.811,0.092-2.162-0.539-1.623-1.529
			c-1.172,0.088-1.711-0.451-0.898-1.625C30.449,53.532,30.627,52.903,30.361,52.001z"/>
		<circle fill="none" stroke="#4681A7" cx="50" cy="49.591" r="26.25"/>
	</g>
	<path fill="none" stroke="#4681A7" stroke-dasharray="4.135,4.135" d="M68.703,62.157"/>
</g>
</svg>
