<?xml version="1.0" encoding="utf-8"?>
<!-- Generator: Adobe Illustrator 16.0.0, SVG Export Plug-In . SVG Version: 6.00 Build 0)  -->
<!DOCTYPE svg PUBLIC "-//W3C//DTD SVG 1.1//EN" "http://www.w3.org/Graphics/SVG/1.1/DTD/svg11.dtd">
<svg version="1.1" id="Layer_1" xmlns="http://www.w3.org/2000/svg" xmlns:xlink="http://www.w3.org/1999/xlink" x="0px" y="0px"
	 width="100px" height="100px" viewBox="0 0 100 100" enable-background="new 0 0 100 100" xml:space="preserve">
<g>
	<g>
		<circle fill="none" stroke="#4681A7" cx="50" cy="50.434" r="26.25"/>
	</g>
	<path fill="none" stroke="#4681A7" stroke-dasharray="4.135,4.135" d="M65.477,61.41"/>
	<path fill="none" stroke="#4681A7" stroke-dasharray="4.135,4.135" d="M34.455,61.41"/>
	<g>
		<path fill="#4681A7" d="M50,40.451c-0.734,0-1.309,0.656-1.309,1.395c0,0.732,0.574,1.389,1.309,1.389
			c0.738,0,1.307-0.656,1.307-1.389C51.307,41.107,50.738,40.451,50,40.451 M50,43.887c-1.145,0-2.045-0.898-2.045-2.041
			c0-1.148,0.9-2.049,2.045-2.049s2.045,0.9,2.045,2.049C51.963,42.988,51.061,43.887,50,43.887"/>
		<path fill="#4681A7" d="M60.061,58.943H39.855v-0.656h0.98H59h0.98v0.656H60.061z M41.246,56.898h1.307h2.701h3.355h2.697h3.354
			h2.703h1.309v0.652H41.164L41.246,56.898L41.246,56.898z M42.881,47h2.045v9.246h-2.045V47z M45.582,45.607v0.656h-0.328h-2.701
			h-0.326v-0.656H45.582z M39.855,44.051l10.062-5.641l10.062,5.641v0.82H39.855V44.051z M57.693,46.264h-0.33H54.66h-0.32v-0.654
			h3.354V46.264L57.693,46.264z M48.938,47h2.043v9.246h-2.043V47z M51.637,45.607v0.656h-0.33h-2.697h-0.328v-0.656H51.637z
			 M45.582,56.246V47h0.328c0.164,0,0.324-0.168,0.324-0.328v-1.064h1.311v1.064c0,0.16,0.164,0.328,0.328,0.328h0.328v9.246H45.582
			z M51.637,56.246V47h0.326c0.164,0,0.328-0.168,0.328-0.328v-1.064h1.311v1.064c0,0.16,0.16,0.328,0.324,0.328h0.328v9.246H51.637
			z M57.037,56.246h-2.045V47h2.045V56.246z M60.391,57.633h-0.984V56.57c0-0.16-0.16-0.324-0.324-0.324h-1.309V47h0.328
			c0.16,0,0.324-0.168,0.324-0.328v-1.064h2.047c0.164,0,0.326-0.166,0.326-0.328v-1.393c0-0.16-0.082-0.246-0.162-0.324
			L50.16,37.754c-0.078-0.082-0.242-0.082-0.324,0l-10.473,5.809c-0.082,0.078-0.162,0.164-0.162,0.324v1.393
			c0,0.084,0,0.164,0.08,0.246c0.082,0.082,0.166,0.082,0.246,0.082h2.047v1.064c0,0.16,0.16,0.328,0.324,0.328h0.328v9.246h-1.309
			c-0.164,0-0.328,0.164-0.328,0.324v1.062h-0.98c-0.162,0-0.328,0.164-0.328,0.332v1.389c0,0.164,0.166,0.326,0.328,0.326h20.863
			c0.164,0,0.326-0.162,0.326-0.326v-1.389C60.717,57.797,60.553,57.633,60.391,57.633"/>
		<path fill="#4681A7" d="M49.754,37.832h0.574v-0.568c0.57-0.164,0.816-0.576,0.816-0.984c0-0.492-0.246-0.738-0.738-1.061
			l-0.324-0.246c-0.328-0.168-0.41-0.246-0.41-0.492c0-0.164,0.164-0.328,0.488-0.328c0.332,0,0.578,0.164,0.654,0.246l0.246-0.574
			c-0.08-0.078-0.246-0.246-0.654-0.246v-0.57h-0.57v0.57c-0.57,0.086-0.898,0.492-0.898,0.902c0,0.492,0.242,0.738,0.734,1.061
			L50,35.787c0.328,0.164,0.406,0.33,0.406,0.576c0,0.162-0.16,0.324-0.57,0.324s-0.656-0.246-0.734-0.324l-0.246,0.57
			c0.082,0.084,0.41,0.33,0.898,0.33V37.832L49.754,37.832z"/>
	</g>
</g>
</svg>
