<svg version="1.1" id="Layer_1" xmlns="http://www.w3.org/2000/svg" xmlns:xlink="http://www.w3.org/1999/xlink" x="0px" y="0px"
	 width="1068px" height="408px" viewBox="0 0 447.351 172.649" style="enable-background:new 0 0 447.351 172.649;"
	 xml:space="preserve">
<rect x="0.264" y="94.533" style="fill:#00AFD8;" width="141.522" height="38.151"/>
<g>
	<path style="fill:#FFFFFF;" d="M60.53,110.92c0.477-0.072,1.044-0.127,1.666-0.127c1.125,0,1.927,0.262,2.458,0.757
		c0.54,0.495,0.855,1.197,0.855,2.179c0,0.99-0.306,1.801-0.873,2.358c-0.567,0.567-1.503,0.873-2.683,0.873
		c-0.558,0-1.026-0.026-1.422-0.071V110.92z M61.313,116.286c0.198,0.036,0.486,0.045,0.792,0.045c1.674,0,2.583-0.937,2.583-2.575
		c0.009-1.431-0.801-2.34-2.458-2.34c-0.405,0-0.711,0.035-0.918,0.081V116.286z"/>
	<path style="fill:#FFFFFF;" d="M67.055,114.873c0.018,1.071,0.703,1.512,1.495,1.512c0.567,0,0.909-0.099,1.207-0.225l0.135,0.567
		c-0.279,0.126-0.756,0.27-1.449,0.27c-1.341,0-2.143-0.882-2.143-2.196s0.774-2.35,2.043-2.35c1.422,0,1.8,1.251,1.8,2.053
		c0,0.162-0.018,0.288-0.027,0.369H67.055z M69.378,114.305c0.009-0.504-0.207-1.287-1.098-1.287c-0.801,0-1.152,0.737-1.215,1.287
		H69.378z"/>
	<path style="fill:#FFFFFF;" d="M71.213,116.907c0.018-0.297,0.036-0.738,0.036-1.125v-5.267h0.783v2.736h0.018
		c0.279-0.486,0.783-0.801,1.485-0.801c1.081,0,1.846,0.9,1.836,2.224c0,1.558-0.981,2.331-1.954,2.331
		c-0.63,0-1.134-0.243-1.458-0.819h-0.027l-0.036,0.721H71.213z M72.032,115.161c0,0.099,0.018,0.197,0.036,0.288
		c0.153,0.549,0.612,0.927,1.188,0.927c0.828,0,1.323-0.675,1.323-1.675c0-0.873-0.45-1.62-1.296-1.62
		c-0.54,0-1.044,0.369-1.207,0.973c-0.018,0.09-0.045,0.197-0.045,0.324V115.161z"/>
	<path style="fill:#FFFFFF;" d="M77.45,111.298v1.251h1.134v0.604H77.45v2.35c0,0.54,0.153,0.846,0.594,0.846
		c0.207,0,0.36-0.026,0.459-0.054l0.036,0.595c-0.153,0.063-0.396,0.107-0.702,0.107c-0.369,0-0.666-0.117-0.855-0.333
		c-0.225-0.234-0.306-0.621-0.306-1.134v-2.377h-0.675v-0.604h0.675v-1.044L77.45,111.298z"/>
</g>
<g>
	<path style="fill:#00AFD8;" d="M62.448,79.968c-0.152,0.251-0.375,0.454-0.668,0.608c-0.293,0.154-0.637,0.232-1.032,0.232
		c-0.571,0-1.037-0.136-1.4-0.408s-0.544-0.648-0.544-1.128h0.976c0.021,0.245,0.112,0.44,0.272,0.584s0.392,0.216,0.696,0.216
		c0.315,0,0.562-0.08,0.74-0.24s0.268-0.365,0.268-0.616c0-0.197-0.055-0.353-0.164-0.468s-0.247-0.203-0.412-0.264
		c-0.166-0.061-0.392-0.126-0.68-0.196c-0.362-0.085-0.656-0.175-0.88-0.268s-0.416-0.243-0.576-0.448
		c-0.16-0.205-0.24-0.484-0.24-0.836c0-0.32,0.08-0.603,0.24-0.848c0.16-0.246,0.384-0.435,0.672-0.568s0.619-0.2,0.992-0.2
		c0.544,0,0.983,0.128,1.316,0.384c0.333,0.256,0.519,0.627,0.556,1.112h-1.008c-0.021-0.213-0.112-0.392-0.272-0.536
		s-0.374-0.216-0.64-0.216c-0.277,0-0.501,0.069-0.672,0.208c-0.171,0.139-0.256,0.344-0.256,0.616c0,0.197,0.054,0.356,0.164,0.476
		s0.247,0.21,0.412,0.272c0.166,0.062,0.395,0.126,0.688,0.196c0.357,0.085,0.648,0.175,0.872,0.268s0.415,0.24,0.572,0.44
		c0.157,0.2,0.236,0.476,0.236,0.828C62.676,79.451,62.6,79.717,62.448,79.968z"/>
	<path style="fill:#00AFD8;" d="M67.9,78.856h-3.376c0.021,0.368,0.146,0.66,0.372,0.876s0.511,0.324,0.852,0.324
		c0.496,0,0.845-0.206,1.048-0.616h0.984c-0.133,0.405-0.376,0.737-0.728,0.996c-0.352,0.259-0.787,0.388-1.304,0.388
		c-0.421,0-0.795-0.094-1.12-0.284s-0.58-0.456-0.764-0.8c-0.184-0.344-0.276-0.742-0.276-1.196c0-0.453,0.092-0.852,0.276-1.196
		c0.184-0.344,0.443-0.609,0.776-0.796c0.333-0.187,0.716-0.28,1.148-0.28c0.416,0,0.787,0.091,1.112,0.272s0.579,0.435,0.76,0.76
		c0.181,0.326,0.272,0.699,0.272,1.12C67.932,78.579,67.921,78.723,67.9,78.856z M66.98,78.232c-0.005-0.363-0.125-0.652-0.36-0.868
		c-0.235-0.216-0.525-0.324-0.872-0.324c-0.325,0-0.602,0.108-0.828,0.324c-0.227,0.216-0.356,0.505-0.388,0.868H66.98z"/>
	<path style="fill:#00AFD8;" d="M72.016,76.488c0.258,0.144,0.464,0.357,0.616,0.64c0.152,0.283,0.228,0.624,0.228,1.024v2.6h-0.904
		v-2.464c0-0.395-0.099-0.697-0.296-0.908c-0.197-0.21-0.467-0.316-0.808-0.316S70.24,77.17,70.04,77.38
		c-0.2,0.211-0.3,0.514-0.3,0.908v2.464h-0.912v-4.408h0.912v0.696c0.144-0.25,0.337-0.441,0.58-0.572
		c0.243-0.13,0.519-0.196,0.828-0.196C71.468,76.272,71.757,76.344,72.016,76.488z"/>
	<path style="fill:#00AFD8;" d="M74.268,74.76c0.112-0.112,0.25-0.168,0.416-0.168c0.16,0,0.296,0.056,0.408,0.168
		c0.112,0.112,0.168,0.251,0.168,0.416c0,0.166-0.056,0.304-0.168,0.416c-0.112,0.112-0.248,0.168-0.408,0.168
		c-0.166,0-0.304-0.056-0.416-0.168c-0.112-0.112-0.168-0.25-0.168-0.416C74.1,75.011,74.156,74.872,74.268,74.76z M75.132,76.344
		v4.408H74.22v-4.408H75.132z"/>
	<path style="fill:#00AFD8;" d="M79.428,76.552c0.341,0.187,0.611,0.454,0.808,0.8s0.296,0.744,0.296,1.192
		c0,0.448-0.101,0.845-0.304,1.192s-0.479,0.615-0.828,0.804s-0.735,0.284-1.156,0.284c-0.416,0-0.792-0.094-1.128-0.284
		c-0.336-0.189-0.6-0.456-0.792-0.8c-0.192-0.344-0.288-0.742-0.288-1.196c0-0.448,0.099-0.845,0.296-1.192s0.466-0.613,0.808-0.8
		c0.341-0.187,0.723-0.28,1.144-0.28C78.705,76.272,79.086,76.365,79.428,76.552z M77.62,77.212
		c-0.198,0.115-0.356,0.286-0.476,0.512s-0.18,0.5-0.18,0.82s0.057,0.595,0.172,0.824c0.115,0.229,0.27,0.401,0.464,0.516
		c0.194,0.115,0.409,0.172,0.644,0.172c0.234,0,0.455-0.059,0.66-0.176c0.206-0.117,0.372-0.289,0.5-0.516
		c0.128-0.227,0.192-0.5,0.192-0.82s-0.061-0.593-0.184-0.82c-0.123-0.227-0.286-0.397-0.488-0.512s-0.421-0.172-0.656-0.172
		C78.033,77.04,77.817,77.097,77.62,77.212z"/>
	<path style="fill:#00AFD8;" d="M82.92,76.492c0.221-0.147,0.484-0.22,0.788-0.22v0.944h-0.232c-0.357,0-0.628,0.091-0.812,0.272
		c-0.184,0.182-0.276,0.496-0.276,0.944v2.32h-0.912v-4.408h0.912v0.768C82.521,76.845,82.699,76.639,82.92,76.492z"/>
</g>
<rect x="4.047" y="97.379" style="fill:none;stroke:#FFFFFF;stroke-width:0.5;stroke-miterlimit:10;" width="133.924" height="32.5"/>
<rect x="303.588" y="94.536" style="fill:#05739B;" width="141.522" height="38.151"/>
<g>
	<path style="fill:#FFFFFF;" d="M362.794,113.138h-2.358v2.188h2.629v0.657h-3.412v-6.067h3.276v0.657h-2.493v1.917h2.358V113.138z"
		/>
	<path style="fill:#FFFFFF;" d="M367.113,115.308h-0.018c-0.234,0.432-0.721,0.773-1.423,0.773c-1.018,0-1.846-0.882-1.846-2.205
		c0-1.63,1.054-2.35,1.972-2.35c0.676,0,1.126,0.333,1.342,0.756h0.018l0.027-0.657h0.747c-0.018,0.369-0.027,0.747-0.027,1.197
		v4.942h-0.792V115.308z M367.113,113.39c0-0.108-0.009-0.234-0.036-0.333c-0.117-0.486-0.54-0.9-1.134-0.9
		c-0.819,0-1.314,0.693-1.314,1.675c0,0.864,0.414,1.62,1.287,1.62c0.514,0,0.954-0.315,1.135-0.864
		c0.035-0.108,0.063-0.261,0.063-0.378V113.39z"/>
	<path style="fill:#FFFFFF;" d="M372.955,114.795c0,0.45,0.009,0.847,0.035,1.188h-0.702l-0.045-0.711h-0.018
		c-0.207,0.351-0.666,0.81-1.44,0.81c-0.685,0-1.504-0.378-1.504-1.908v-2.548h0.793v2.413c0,0.828,0.252,1.386,0.972,1.386
		c0.531,0,0.9-0.369,1.045-0.72c0.045-0.117,0.071-0.261,0.071-0.405v-2.674h0.793V114.795z"/>
	<path style="fill:#FFFFFF;" d="M375.239,110.401c0.01,0.271-0.188,0.486-0.504,0.486c-0.279,0-0.477-0.216-0.477-0.486
		c0-0.278,0.207-0.495,0.495-0.495C375.051,109.906,375.239,110.123,375.239,110.401z M374.357,115.983v-4.357h0.792v4.357H374.357z
		"/>
	<path style="fill:#FFFFFF;" d="M377.517,110.375v1.251h1.135v0.604h-1.135v2.35c0,0.54,0.153,0.846,0.595,0.846
		c0.207,0,0.359-0.026,0.459-0.054l0.036,0.595c-0.153,0.063-0.396,0.107-0.702,0.107c-0.369,0-0.667-0.117-0.855-0.333
		c-0.226-0.234-0.307-0.621-0.307-1.134v-2.377h-0.675v-0.604h0.675v-1.044L377.517,110.375z"/>
	<path style="fill:#FFFFFF;" d="M380.1,111.626l0.954,2.575c0.1,0.288,0.207,0.63,0.279,0.891h0.018
		c0.081-0.261,0.172-0.594,0.279-0.909l0.864-2.557h0.838l-1.188,3.106c-0.567,1.494-0.955,2.259-1.495,2.728
		c-0.387,0.342-0.773,0.477-0.972,0.513l-0.198-0.666c0.198-0.063,0.459-0.188,0.693-0.387c0.216-0.171,0.486-0.478,0.666-0.883
		c0.036-0.081,0.063-0.144,0.063-0.188s-0.018-0.108-0.054-0.207l-1.611-4.016H380.1z"/>
</g>
<g>
	<path style="fill:#8EC352;" d="M205.032,115.627c-0.152,0.251-0.375,0.453-0.668,0.608c-0.293,0.154-0.637,0.231-1.032,0.231
		c-0.571,0-1.037-0.136-1.4-0.407c-0.363-0.272-0.544-0.648-0.544-1.129h0.976c0.021,0.246,0.112,0.44,0.272,0.584
		c0.16,0.145,0.392,0.217,0.696,0.217c0.315,0,0.562-0.08,0.74-0.24s0.268-0.365,0.268-0.616c0-0.197-0.055-0.354-0.164-0.468
		s-0.247-0.203-0.412-0.264c-0.166-0.062-0.392-0.127-0.68-0.196c-0.362-0.085-0.656-0.175-0.88-0.269
		c-0.224-0.093-0.416-0.242-0.576-0.447c-0.16-0.205-0.24-0.484-0.24-0.836c0-0.32,0.08-0.603,0.24-0.849
		c0.16-0.245,0.384-0.435,0.672-0.567c0.288-0.134,0.619-0.2,0.992-0.2c0.544,0,0.983,0.128,1.316,0.384
		c0.333,0.256,0.519,0.627,0.556,1.112h-1.008c-0.021-0.214-0.112-0.393-0.272-0.536c-0.16-0.145-0.374-0.216-0.64-0.216
		c-0.277,0-0.501,0.069-0.672,0.208c-0.171,0.139-0.256,0.344-0.256,0.615c0,0.198,0.054,0.356,0.164,0.477s0.247,0.211,0.412,0.271
		c0.166,0.062,0.395,0.127,0.688,0.196c0.357,0.086,0.648,0.175,0.872,0.269c0.224,0.093,0.415,0.239,0.572,0.439
		c0.157,0.2,0.236,0.477,0.236,0.828C205.26,115.11,205.184,115.377,205.032,115.627z"/>
	<path style="fill:#8EC352;" d="M210.332,112.003v4.408h-0.912v-0.696c-0.144,0.251-0.337,0.44-0.58,0.568s-0.519,0.192-0.828,0.192
		c-0.32,0-0.609-0.072-0.868-0.217c-0.259-0.144-0.464-0.355-0.616-0.636s-0.228-0.62-0.228-1.02v-2.601h0.904v2.464
		c0,0.396,0.099,0.697,0.296,0.908s0.467,0.316,0.808,0.316s0.612-0.105,0.812-0.316c0.2-0.211,0.3-0.513,0.3-0.908v-2.464H210.332z
		"/>
	<path style="fill:#8EC352;" d="M215.128,112.214c0.317,0.189,0.566,0.455,0.748,0.796c0.181,0.342,0.272,0.733,0.272,1.177
		c0,0.442-0.091,0.839-0.272,1.188c-0.182,0.35-0.431,0.621-0.748,0.816c-0.317,0.194-0.668,0.292-1.052,0.292
		c-0.347,0-0.65-0.081-0.912-0.244c-0.262-0.163-0.47-0.38-0.624-0.652v0.824h-0.912v-5.92h0.912v2.296
		c0.149-0.256,0.356-0.463,0.62-0.62c0.264-0.157,0.569-0.236,0.916-0.236C214.46,111.93,214.811,112.026,215.128,112.214z
		 M213.224,112.899c-0.205,0.117-0.371,0.288-0.496,0.512c-0.125,0.224-0.188,0.488-0.188,0.792s0.063,0.569,0.188,0.796
		c0.125,0.227,0.291,0.398,0.496,0.516c0.206,0.118,0.423,0.177,0.652,0.177c0.234,0,0.455-0.061,0.66-0.181
		c0.206-0.119,0.371-0.294,0.496-0.523s0.188-0.496,0.188-0.8c0-0.305-0.063-0.567-0.188-0.788c-0.125-0.222-0.291-0.39-0.496-0.504
		c-0.205-0.115-0.425-0.173-0.66-0.173C213.646,112.722,213.429,112.782,213.224,112.899z"/>
	<path style="fill:#8EC352;" d="M220.236,112.211c0.341,0.187,0.611,0.453,0.808,0.8s0.296,0.744,0.296,1.192
		s-0.101,0.846-0.304,1.192s-0.479,0.614-0.828,0.804s-0.735,0.284-1.156,0.284c-0.416,0-0.792-0.095-1.128-0.284
		c-0.336-0.189-0.6-0.456-0.792-0.8c-0.192-0.345-0.288-0.743-0.288-1.196c0-0.448,0.099-0.846,0.296-1.192s0.466-0.613,0.808-0.8
		c0.341-0.187,0.723-0.28,1.144-0.28C219.513,111.93,219.895,112.024,220.236,112.211z M218.428,112.871
		c-0.198,0.115-0.356,0.285-0.476,0.512c-0.12,0.228-0.18,0.5-0.18,0.82s0.057,0.595,0.172,0.824s0.27,0.401,0.464,0.516
		c0.194,0.115,0.409,0.172,0.644,0.172c0.234,0,0.455-0.059,0.66-0.176c0.206-0.117,0.372-0.289,0.5-0.516s0.192-0.5,0.192-0.82
		s-0.061-0.593-0.184-0.82c-0.123-0.227-0.286-0.396-0.488-0.512c-0.203-0.114-0.421-0.172-0.656-0.172
		C218.841,112.699,218.625,112.756,218.428,112.871z"/>
	<path style="fill:#8EC352;" d="M223.688,112.151c0.221-0.146,0.483-0.221,0.787-0.221v0.944h-0.231
		c-0.357,0-0.628,0.091-0.813,0.272c-0.184,0.181-0.275,0.496-0.275,0.943v2.32h-0.912v-4.408h0.912v0.769
		C223.289,112.504,223.467,112.297,223.688,112.151z"/>
	<path style="fill:#8EC352;" d="M228.008,112.167c0.264,0.157,0.468,0.364,0.612,0.62v-2.296h0.92v5.92h-0.92v-0.824
		c-0.149,0.272-0.355,0.489-0.616,0.652c-0.262,0.163-0.565,0.244-0.912,0.244c-0.384,0-0.734-0.098-1.052-0.292
		c-0.317-0.195-0.568-0.467-0.752-0.816c-0.185-0.349-0.276-0.745-0.276-1.188c0-0.443,0.092-0.835,0.276-1.177
		c0.184-0.341,0.435-0.606,0.752-0.796c0.317-0.188,0.668-0.284,1.052-0.284C227.438,111.93,227.744,112.009,228.008,112.167z
		 M226.628,112.895c-0.203,0.114-0.367,0.282-0.492,0.504c-0.125,0.221-0.188,0.483-0.188,0.788c0,0.304,0.063,0.57,0.188,0.8
		s0.291,0.404,0.496,0.523c0.205,0.12,0.423,0.181,0.652,0.181c0.234,0,0.453-0.059,0.655-0.177
		c0.203-0.117,0.367-0.289,0.492-0.516s0.188-0.492,0.188-0.796s-0.063-0.568-0.188-0.792s-0.289-0.395-0.492-0.512
		c-0.202-0.117-0.421-0.177-0.655-0.177C227.049,112.722,226.83,112.78,226.628,112.895z"/>
	<path style="fill:#8EC352;" d="M230.972,110.419c0.111-0.111,0.25-0.168,0.416-0.168c0.159,0,0.296,0.057,0.407,0.168
		c0.112,0.112,0.168,0.251,0.168,0.416c0,0.166-0.056,0.304-0.168,0.416c-0.111,0.112-0.248,0.168-0.407,0.168
		c-0.166,0-0.305-0.056-0.416-0.168c-0.112-0.112-0.168-0.25-0.168-0.416C230.804,110.67,230.859,110.531,230.972,110.419z
		 M231.835,112.003v4.408h-0.912v-4.408H231.835z"/>
	<path style="fill:#8EC352;" d="M236.472,112.147c0.259,0.144,0.464,0.357,0.616,0.64c0.151,0.283,0.228,0.624,0.228,1.024v2.6
		h-0.904v-2.464c0-0.395-0.099-0.697-0.296-0.908s-0.467-0.316-0.808-0.316c-0.342,0-0.612,0.105-0.813,0.316
		c-0.199,0.211-0.3,0.514-0.3,0.908v2.464h-0.912v-4.408h0.912v0.696c0.145-0.251,0.338-0.441,0.58-0.572
		c0.243-0.131,0.519-0.196,0.828-0.196C235.924,111.93,236.213,112.003,236.472,112.147z"/>
	<path style="fill:#8EC352;" d="M241.336,112.167c0.264,0.157,0.468,0.364,0.612,0.62v-0.784h0.92v4.408h-0.92v-0.824
		c-0.149,0.272-0.355,0.489-0.616,0.652c-0.262,0.163-0.565,0.244-0.912,0.244c-0.384,0-0.734-0.098-1.052-0.292
		c-0.317-0.195-0.568-0.467-0.752-0.816c-0.185-0.349-0.276-0.745-0.276-1.188c0-0.443,0.092-0.835,0.276-1.177
		c0.184-0.341,0.435-0.606,0.752-0.796c0.317-0.188,0.668-0.284,1.052-0.284C240.767,111.93,241.072,112.009,241.336,112.167z
		 M239.956,112.895c-0.203,0.114-0.367,0.282-0.492,0.504c-0.125,0.221-0.188,0.483-0.188,0.788c0,0.304,0.063,0.57,0.188,0.8
		s0.291,0.404,0.496,0.523c0.205,0.12,0.423,0.181,0.652,0.181c0.234,0,0.453-0.059,0.655-0.177
		c0.203-0.117,0.367-0.289,0.492-0.516s0.188-0.492,0.188-0.796s-0.063-0.568-0.188-0.792s-0.289-0.395-0.492-0.512
		c-0.202-0.117-0.421-0.177-0.655-0.177C240.377,112.722,240.158,112.78,239.956,112.895z"/>
	<path style="fill:#8EC352;" d="M245.132,112.747v2.44c0,0.165,0.038,0.283,0.116,0.355c0.077,0.072,0.209,0.108,0.396,0.108h0.561
		v0.76h-0.721c-0.41,0-0.725-0.096-0.943-0.288s-0.328-0.504-0.328-0.936v-2.44h-0.521v-0.744h0.521v-1.096h0.92v1.096h1.072v0.744
		H245.132z"/>
	<path style="fill:#8EC352;" d="M251.147,114.514h-3.376c0.021,0.368,0.145,0.66,0.371,0.877c0.228,0.216,0.511,0.323,0.853,0.323
		c0.496,0,0.845-0.205,1.048-0.615h0.984c-0.134,0.405-0.376,0.737-0.729,0.995c-0.352,0.259-0.786,0.389-1.304,0.389
		c-0.422,0-0.795-0.095-1.12-0.284s-0.58-0.456-0.764-0.8c-0.185-0.345-0.276-0.743-0.276-1.196s0.092-0.852,0.276-1.196
		c0.184-0.344,0.442-0.609,0.775-0.796c0.334-0.187,0.717-0.28,1.148-0.28c0.416,0,0.786,0.091,1.112,0.272
		c0.325,0.182,0.578,0.435,0.76,0.76c0.181,0.325,0.271,0.699,0.271,1.12C251.179,114.238,251.168,114.381,251.147,114.514z
		 M250.228,113.891c-0.006-0.363-0.126-0.652-0.36-0.868c-0.235-0.216-0.525-0.324-0.872-0.324c-0.325,0-0.602,0.108-0.828,0.324
		s-0.355,0.505-0.388,0.868H250.228z"/>
</g>
<rect x="156.186" y="94.534" style="fill:#179BCB;" width="141.522" height="38.152"/>
<g>
	<path style="fill:#FFFFFF;" d="M206.955,108.608c-0.045-0.846-0.099-1.863-0.09-2.619h-0.027c-0.207,0.711-0.459,1.467-0.765,2.305
		l-1.071,2.943h-0.594l-0.981-2.89c-0.288-0.855-0.531-1.639-0.702-2.358h-0.018c-0.018,0.756-0.063,1.773-0.117,2.683l-0.162,2.602
		h-0.748l0.423-6.067h0.999l1.036,2.935c0.252,0.747,0.459,1.413,0.612,2.044h0.027c0.153-0.612,0.369-1.279,0.639-2.044l1.08-2.935
		h1l0.378,6.067h-0.765L206.955,108.608z"/>
	<path style="fill:#FFFFFF;" d="M209.59,109.239c0.018,1.071,0.703,1.512,1.495,1.512c0.567,0,0.909-0.099,1.207-0.225l0.135,0.567
		c-0.279,0.126-0.756,0.27-1.449,0.27c-1.341,0-2.143-0.882-2.143-2.196s0.774-2.35,2.043-2.35c1.422,0,1.8,1.251,1.8,2.053
		c0,0.162-0.018,0.288-0.027,0.369H209.59z M211.913,108.671c0.009-0.504-0.207-1.288-1.098-1.288c-0.801,0-1.152,0.738-1.215,1.288
		H211.913z"/>
	<path style="fill:#FFFFFF;" d="M213.352,110.814l1.972-2.565c0.189-0.234,0.369-0.441,0.567-0.676v-0.018h-2.358v-0.64h3.322
		l-0.009,0.495l-1.945,2.53c-0.18,0.243-0.36,0.459-0.558,0.684v0.019h2.548v0.63h-3.538V110.814z"/>
	<path style="fill:#FFFFFF;" d="M217.294,110.814l1.972-2.565c0.189-0.234,0.369-0.441,0.567-0.676v-0.018h-2.358v-0.64h3.322
		l-0.009,0.495l-1.945,2.53c-0.18,0.243-0.36,0.459-0.558,0.684v0.019h2.548v0.63h-3.538V110.814z"/>
	<path style="fill:#FFFFFF;" d="M224.234,111.273l-0.063-0.549h-0.027c-0.243,0.342-0.711,0.647-1.332,0.647
		c-0.882,0-1.333-0.621-1.333-1.251c0-1.054,0.937-1.63,2.62-1.62v-0.091c0-0.359-0.099-1.008-0.99-1.008
		c-0.405,0-0.828,0.126-1.134,0.324l-0.18-0.522c0.36-0.234,0.882-0.387,1.431-0.387c1.332,0,1.656,0.909,1.656,1.782v1.63
		c0,0.378,0.019,0.747,0.072,1.044H224.234z M224.117,109.049c-0.864-0.018-1.846,0.135-1.846,0.981
		c0,0.513,0.342,0.756,0.747,0.756c0.567,0,0.928-0.36,1.054-0.729c0.026-0.08,0.045-0.171,0.045-0.252V109.049z"/>
	<path style="fill:#FFFFFF;" d="M226.249,108.095c0-0.45-0.009-0.819-0.036-1.18h0.702l0.045,0.721h0.019
		c0.216-0.414,0.72-0.819,1.44-0.819c0.603,0,1.539,0.359,1.539,1.854v2.602h-0.792v-2.512c0-0.702-0.262-1.287-1.009-1.287
		c-0.521,0-0.927,0.369-1.062,0.81c-0.036,0.1-0.055,0.234-0.055,0.369v2.62h-0.792V108.095z"/>
	<path style="fill:#FFFFFF;" d="M232.216,105.691c0.01,0.271-0.188,0.486-0.504,0.486c-0.279,0-0.477-0.216-0.477-0.486
		c0-0.278,0.207-0.495,0.495-0.495C232.027,105.196,232.216,105.413,232.216,105.691z M231.334,111.273v-4.357h0.792v4.357H231.334z
		"/>
	<path style="fill:#FFFFFF;" d="M233.53,108.095c0-0.45-0.009-0.819-0.036-1.18h0.702l0.045,0.721h0.019
		c0.216-0.414,0.72-0.819,1.44-0.819c0.603,0,1.539,0.359,1.539,1.854v2.602h-0.792v-2.512c0-0.702-0.262-1.287-1.009-1.287
		c-0.521,0-0.927,0.369-1.062,0.81c-0.036,0.1-0.055,0.234-0.055,0.369v2.62h-0.792V108.095z"/>
	<path style="fill:#FFFFFF;" d="M239.057,109.239c0.018,1.071,0.702,1.512,1.494,1.512c0.567,0,0.909-0.099,1.206-0.225l0.136,0.567
		c-0.279,0.126-0.757,0.27-1.45,0.27c-1.341,0-2.143-0.882-2.143-2.196s0.774-2.35,2.044-2.35c1.423,0,1.801,1.251,1.801,2.053
		c0,0.162-0.019,0.288-0.027,0.369H239.057z M241.379,108.671c0.009-0.504-0.207-1.288-1.099-1.288
		c-0.801,0-1.152,0.738-1.215,1.288H241.379z"/>
</g>
<g>
	<path style="fill:#F9F9F9;" d="M167.819,121.1h-2.622c0.016,0.328,0.119,0.587,0.309,0.777c0.19,0.189,0.433,0.284,0.729,0.284
		c0.224,0,0.413-0.05,0.567-0.149s0.267-0.232,0.339-0.396h0.588c-0.104,0.288-0.283,0.526-0.537,0.715
		c-0.254,0.188-0.573,0.281-0.957,0.281c-0.308,0-0.583-0.069-0.825-0.21c-0.242-0.14-0.431-0.339-0.567-0.597
		c-0.136-0.258-0.204-0.555-0.204-0.891c0-0.341,0.068-0.64,0.204-0.897c0.136-0.258,0.328-0.457,0.576-0.597
		c0.248-0.141,0.534-0.21,0.858-0.21c0.308,0,0.58,0.067,0.816,0.204c0.236,0.136,0.42,0.321,0.552,0.558
		c0.132,0.236,0.198,0.504,0.198,0.804C167.843,120.892,167.835,121.001,167.819,121.1z M167.273,120.705
		c0-0.213-0.046-0.397-0.138-0.556c-0.092-0.158-0.217-0.279-0.375-0.363s-0.333-0.126-0.525-0.126
		c-0.284,0-0.522,0.094-0.714,0.279c-0.192,0.187-0.298,0.441-0.318,0.766H167.273z"/>
	<path style="fill:#F9F9F9;" d="M168.629,121.959c0.068-0.068,0.15-0.103,0.246-0.103c0.096,0,0.178,0.034,0.246,0.103
		c0.068,0.067,0.102,0.151,0.102,0.252c0,0.096-0.034,0.178-0.102,0.246c-0.068,0.067-0.15,0.102-0.246,0.102
		c-0.096,0-0.178-0.034-0.246-0.102c-0.068-0.068-0.102-0.15-0.102-0.246C168.527,122.11,168.561,122.026,168.629,121.959z"/>
	<path style="fill:#F9F9F9;" d="M172.046,119.408c0.21,0.133,0.369,0.305,0.477,0.517v-0.66h0.552v3.378
		c0,0.3-0.066,0.566-0.198,0.798c-0.132,0.232-0.318,0.413-0.558,0.543c-0.24,0.13-0.518,0.195-0.834,0.195
		c-0.276,0-0.528-0.047-0.756-0.142c-0.228-0.094-0.414-0.227-0.558-0.398s-0.23-0.368-0.258-0.588h0.534
		c0.052,0.188,0.174,0.344,0.366,0.468s0.416,0.187,0.672,0.187c0.312,0,0.563-0.094,0.753-0.279
		c0.19-0.187,0.285-0.447,0.285-0.783v-0.756c-0.108,0.216-0.267,0.391-0.477,0.524c-0.21,0.135-0.455,0.201-0.735,0.201
		c-0.296,0-0.563-0.072-0.801-0.219c-0.238-0.146-0.426-0.35-0.564-0.612c-0.138-0.262-0.207-0.559-0.207-0.891
		s0.069-0.625,0.207-0.879c0.138-0.254,0.326-0.451,0.564-0.591c0.238-0.141,0.505-0.21,0.801-0.21
		C171.591,119.211,171.836,119.276,172.046,119.408z M170.858,119.828c-0.17,0.097-0.306,0.235-0.408,0.417
		c-0.102,0.183-0.153,0.397-0.153,0.646s0.051,0.467,0.153,0.657c0.102,0.189,0.238,0.337,0.408,0.44
		c0.17,0.104,0.353,0.156,0.549,0.156c0.2,0,0.385-0.05,0.555-0.15c0.17-0.1,0.306-0.242,0.408-0.429
		c0.102-0.186,0.153-0.402,0.153-0.65s-0.051-0.466-0.153-0.651c-0.102-0.187-0.238-0.329-0.408-0.429
		c-0.17-0.101-0.355-0.15-0.555-0.15C171.211,119.684,171.028,119.732,170.858,119.828z"/>
	<path style="fill:#F9F9F9;" d="M174.023,121.959c0.068-0.068,0.15-0.103,0.246-0.103c0.096,0,0.178,0.034,0.246,0.103
		c0.068,0.067,0.102,0.151,0.102,0.252c0,0.096-0.034,0.178-0.102,0.246c-0.068,0.067-0.15,0.102-0.246,0.102
		c-0.096,0-0.178-0.034-0.246-0.102c-0.068-0.068-0.102-0.15-0.102-0.246C173.921,122.11,173.955,122.026,174.023,121.959z"/>
	<path style="fill:#F9F9F9;" d="M175.883,122.738c0,0.452-0.206,0.679-0.618,0.679v-0.265c0.1,0,0.173-0.023,0.219-0.071
		c0.046-0.049,0.069-0.124,0.069-0.229v-0.138h-0.306v-0.559h0.558C175.856,122.369,175.883,122.562,175.883,122.738z"/>
	<path style="fill:#F9F9F9;" d="M180.607,119.486c0.25,0.185,0.425,0.446,0.525,0.786h-0.588c-0.064-0.191-0.174-0.342-0.33-0.45
		c-0.156-0.107-0.348-0.162-0.576-0.162c-0.312,0-0.563,0.109-0.753,0.327c-0.19,0.219-0.285,0.527-0.285,0.928
		c0,0.396,0.095,0.702,0.285,0.921c0.19,0.218,0.441,0.326,0.753,0.326c0.232,0,0.424-0.052,0.576-0.155
		c0.152-0.104,0.262-0.256,0.33-0.456h0.588c-0.1,0.324-0.277,0.582-0.531,0.773c-0.254,0.192-0.575,0.288-0.963,0.288
		c-0.308,0-0.583-0.069-0.825-0.21c-0.242-0.14-0.431-0.339-0.567-0.597c-0.136-0.258-0.204-0.555-0.204-0.891
		c0-0.341,0.068-0.64,0.204-0.897c0.136-0.258,0.324-0.457,0.564-0.597c0.24-0.141,0.516-0.21,0.828-0.21
		C180.035,119.211,180.357,119.302,180.607,119.486z"/>
	<path style="fill:#F9F9F9;" d="M184.103,119.42c0.252,0.14,0.451,0.34,0.597,0.6s0.219,0.558,0.219,0.895
		c0,0.332-0.076,0.627-0.228,0.885c-0.152,0.258-0.358,0.458-0.618,0.6c-0.26,0.143-0.548,0.213-0.864,0.213
		c-0.308,0-0.585-0.069-0.831-0.21c-0.246-0.14-0.438-0.339-0.576-0.597c-0.138-0.258-0.207-0.555-0.207-0.891
		c0-0.341,0.073-0.64,0.219-0.897s0.345-0.457,0.597-0.597c0.252-0.141,0.534-0.21,0.846-0.21S183.851,119.28,184.103,119.42z
		 M182.692,119.804c-0.164,0.096-0.295,0.238-0.393,0.426c-0.098,0.188-0.147,0.416-0.147,0.685c0,0.264,0.047,0.489,0.141,0.678
		c0.094,0.188,0.221,0.33,0.381,0.426s0.338,0.144,0.534,0.144c0.2,0,0.387-0.049,0.561-0.146c0.174-0.098,0.315-0.241,0.423-0.429
		c0.108-0.188,0.162-0.412,0.162-0.672c0-0.265-0.051-0.491-0.153-0.682c-0.102-0.189-0.238-0.333-0.408-0.429
		c-0.17-0.096-0.355-0.145-0.555-0.145S182.856,119.709,182.692,119.804z"/>
	<path style="fill:#F9F9F9;" d="M187.867,119.369c0.194,0.106,0.348,0.265,0.462,0.475c0.114,0.21,0.171,0.465,0.171,0.765v1.95
		h-0.54v-1.86c0-0.332-0.08-0.584-0.24-0.756c-0.16-0.172-0.382-0.258-0.666-0.258c-0.28,0-0.501,0.086-0.663,0.258
		c-0.162,0.172-0.243,0.424-0.243,0.756v1.86h-0.546v-3.294h0.546v0.534c0.108-0.192,0.256-0.338,0.444-0.438
		c0.188-0.1,0.398-0.149,0.63-0.149C187.458,119.211,187.673,119.263,187.867,119.369z"/>
	<path style="fill:#F9F9F9;" d="M190.541,122.048l1.014-2.784h0.588l-1.29,3.294h-0.618l-1.284-3.294h0.582L190.541,122.048z"/>
	<path style="fill:#F9F9F9;" d="M195.581,121.1h-2.622c0.016,0.328,0.119,0.587,0.309,0.777c0.19,0.189,0.433,0.284,0.729,0.284
		c0.224,0,0.413-0.05,0.567-0.149s0.267-0.232,0.339-0.396h0.588c-0.104,0.288-0.283,0.526-0.537,0.715
		c-0.254,0.188-0.573,0.281-0.957,0.281c-0.308,0-0.583-0.069-0.825-0.21c-0.242-0.14-0.431-0.339-0.567-0.597
		c-0.136-0.258-0.204-0.555-0.204-0.891c0-0.341,0.068-0.64,0.204-0.897c0.136-0.258,0.328-0.457,0.576-0.597
		c0.248-0.141,0.534-0.21,0.858-0.21c0.308,0,0.58,0.067,0.816,0.204c0.236,0.136,0.42,0.321,0.552,0.558
		c0.132,0.236,0.198,0.504,0.198,0.804C195.604,120.892,195.597,121.001,195.581,121.1z M195.035,120.705
		c0-0.213-0.046-0.397-0.138-0.556c-0.092-0.158-0.217-0.279-0.375-0.363s-0.333-0.126-0.525-0.126
		c-0.284,0-0.522,0.094-0.714,0.279c-0.192,0.187-0.298,0.441-0.318,0.766H195.035z"/>
	<path style="fill:#F9F9F9;" d="M197.831,119.211v0.569h-0.144c-0.28,0-0.493,0.073-0.639,0.22
		c-0.146,0.146-0.219,0.398-0.219,0.759v1.8h-0.546v-3.294h0.546v0.558C197.024,119.415,197.358,119.211,197.831,119.211z"/>
	<path style="fill:#F9F9F9;" d="M200.152,122.114v0.444h-0.552c-0.28,0-0.493-0.068-0.639-0.204s-0.219-0.35-0.219-0.642v-2.004
		h-0.426v-0.444h0.426v-0.816h0.552v0.816h0.852v0.444h-0.852v2.004c0,0.147,0.03,0.252,0.09,0.312
		c0.06,0.061,0.166,0.09,0.318,0.09H200.152z"/>
	<path style="fill:#F9F9F9;" d="M200.836,118.1c0.072-0.072,0.158-0.108,0.258-0.108c0.104,0,0.192,0.036,0.264,0.108
		c0.072,0.072,0.108,0.16,0.108,0.264c0,0.104-0.036,0.192-0.108,0.265c-0.072,0.071-0.16,0.107-0.264,0.107
		s-0.191-0.036-0.261-0.107c-0.07-0.072-0.105-0.16-0.105-0.265C200.728,118.26,200.764,118.172,200.836,118.1z M201.364,119.264
		v3.294h-0.546v-3.294H201.364z"/>
	<path style="fill:#F9F9F9;" d="M204.83,119.42c0.238,0.14,0.426,0.337,0.564,0.591c0.138,0.254,0.207,0.547,0.207,0.879
		s-0.069,0.629-0.207,0.891c-0.138,0.263-0.326,0.467-0.564,0.612c-0.238,0.146-0.505,0.219-0.801,0.219
		c-0.28,0-0.525-0.066-0.735-0.201c-0.21-0.134-0.371-0.309-0.483-0.524v0.672h-0.546v-4.44h0.546v1.807
		c0.112-0.212,0.273-0.384,0.483-0.517c0.21-0.132,0.455-0.197,0.735-0.197C204.324,119.211,204.591,119.28,204.83,119.42z
		 M203.372,119.835c-0.17,0.1-0.306,0.242-0.408,0.429c-0.102,0.186-0.153,0.403-0.153,0.651s0.051,0.465,0.153,0.65
		c0.102,0.187,0.238,0.329,0.408,0.429c0.17,0.101,0.353,0.15,0.549,0.15s0.38-0.051,0.552-0.153
		c0.172-0.102,0.309-0.249,0.411-0.44c0.102-0.192,0.153-0.412,0.153-0.66s-0.051-0.463-0.153-0.646
		c-0.102-0.182-0.238-0.32-0.408-0.417c-0.17-0.096-0.355-0.144-0.555-0.144C203.725,119.684,203.542,119.734,203.372,119.835z"/>
	<path style="fill:#F9F9F9;" d="M206.831,118.118v4.44h-0.546v-4.44H206.831z"/>
	<path style="fill:#F9F9F9;" d="M210.658,121.1h-2.622c0.016,0.328,0.119,0.587,0.309,0.777c0.19,0.189,0.433,0.284,0.729,0.284
		c0.224,0,0.413-0.05,0.567-0.149s0.267-0.232,0.339-0.396h0.588c-0.104,0.288-0.283,0.526-0.537,0.715
		c-0.254,0.188-0.573,0.281-0.957,0.281c-0.308,0-0.583-0.069-0.825-0.21c-0.242-0.14-0.431-0.339-0.567-0.597
		c-0.136-0.258-0.204-0.555-0.204-0.891c0-0.341,0.068-0.64,0.204-0.897c0.136-0.258,0.328-0.457,0.576-0.597
		c0.248-0.141,0.534-0.21,0.858-0.21c0.308,0,0.58,0.067,0.816,0.204c0.236,0.136,0.42,0.321,0.552,0.558
		c0.132,0.236,0.198,0.504,0.198,0.804C210.682,120.892,210.674,121.001,210.658,121.1z M210.112,120.705
		c0-0.213-0.046-0.397-0.138-0.556c-0.092-0.158-0.217-0.279-0.375-0.363s-0.333-0.126-0.525-0.126
		c-0.284,0-0.522,0.094-0.714,0.279c-0.192,0.187-0.298,0.441-0.318,0.766H210.112z"/>
	<path style="fill:#F9F9F9;" d="M215.611,119.42c0.238,0.14,0.426,0.337,0.564,0.591c0.138,0.254,0.207,0.547,0.207,0.879
		s-0.069,0.629-0.207,0.891c-0.138,0.263-0.326,0.467-0.564,0.612c-0.238,0.146-0.505,0.219-0.801,0.219
		c-0.28,0-0.525-0.066-0.735-0.201c-0.21-0.134-0.371-0.309-0.483-0.524v0.672h-0.546v-4.44h0.546v1.807
		c0.112-0.212,0.273-0.384,0.483-0.517c0.21-0.132,0.455-0.197,0.735-0.197C215.106,119.211,215.373,119.28,215.611,119.42z
		 M214.153,119.835c-0.17,0.1-0.306,0.242-0.408,0.429c-0.102,0.186-0.153,0.403-0.153,0.651s0.051,0.465,0.153,0.65
		c0.102,0.187,0.238,0.329,0.408,0.429c0.17,0.101,0.353,0.15,0.549,0.15s0.38-0.051,0.552-0.153
		c0.172-0.102,0.309-0.249,0.411-0.44c0.102-0.192,0.153-0.412,0.153-0.66s-0.051-0.463-0.153-0.646
		c-0.102-0.182-0.238-0.32-0.408-0.417c-0.17-0.096-0.355-0.144-0.555-0.144C214.506,119.684,214.323,119.734,214.153,119.835z"/>
	<path style="fill:#F9F9F9;" d="M219.358,119.42c0.252,0.14,0.451,0.34,0.597,0.6s0.219,0.558,0.219,0.895
		c0,0.332-0.076,0.627-0.228,0.885c-0.152,0.258-0.358,0.458-0.618,0.6c-0.26,0.143-0.548,0.213-0.864,0.213
		c-0.308,0-0.585-0.069-0.831-0.21c-0.246-0.14-0.438-0.339-0.576-0.597c-0.138-0.258-0.207-0.555-0.207-0.891
		c0-0.341,0.073-0.64,0.219-0.897s0.345-0.457,0.597-0.597c0.252-0.141,0.534-0.21,0.846-0.21S219.106,119.28,219.358,119.42z
		 M217.948,119.804c-0.164,0.096-0.295,0.238-0.393,0.426c-0.098,0.188-0.147,0.416-0.147,0.685c0,0.264,0.047,0.489,0.141,0.678
		c0.094,0.188,0.221,0.33,0.381,0.426s0.338,0.144,0.534,0.144c0.2,0,0.387-0.049,0.561-0.146c0.174-0.098,0.315-0.241,0.423-0.429
		c0.108-0.188,0.162-0.412,0.162-0.672c0-0.265-0.051-0.491-0.153-0.682c-0.102-0.189-0.238-0.333-0.408-0.429
		c-0.17-0.096-0.355-0.145-0.555-0.145S218.112,119.709,217.948,119.804z"/>
	<path style="fill:#F9F9F9;" d="M223.123,119.369c0.194,0.106,0.349,0.265,0.462,0.475c0.114,0.21,0.171,0.465,0.171,0.765v1.95
		h-0.54v-1.86c0-0.332-0.08-0.584-0.24-0.756s-0.382-0.258-0.666-0.258c-0.28,0-0.501,0.086-0.663,0.258
		c-0.162,0.172-0.243,0.424-0.243,0.756v1.86h-0.546v-3.294h0.546v0.534c0.108-0.192,0.256-0.338,0.444-0.438
		c0.188-0.1,0.398-0.149,0.63-0.149C222.714,119.211,222.929,119.263,223.123,119.369z"/>
	<path style="fill:#F9F9F9;" d="M226.717,119.408c0.21,0.133,0.369,0.305,0.477,0.517v-1.807h0.553v4.44h-0.553v-0.672
		c-0.107,0.216-0.267,0.391-0.477,0.524c-0.21,0.135-0.455,0.201-0.735,0.201c-0.296,0-0.563-0.072-0.801-0.219
		c-0.238-0.146-0.426-0.35-0.563-0.612c-0.139-0.262-0.207-0.559-0.207-0.891s0.068-0.625,0.207-0.879
		c0.138-0.254,0.325-0.451,0.563-0.591c0.238-0.141,0.505-0.21,0.801-0.21C226.262,119.211,226.507,119.276,226.717,119.408z
		 M225.528,119.828c-0.17,0.097-0.306,0.235-0.407,0.417c-0.103,0.183-0.153,0.397-0.153,0.646s0.051,0.467,0.153,0.657
		c0.102,0.189,0.237,0.337,0.407,0.44c0.171,0.104,0.354,0.156,0.55,0.156c0.199,0,0.385-0.05,0.555-0.15
		c0.17-0.1,0.306-0.242,0.408-0.429c0.102-0.186,0.152-0.402,0.152-0.65s-0.051-0.466-0.152-0.651
		c-0.103-0.187-0.238-0.329-0.408-0.429c-0.17-0.101-0.355-0.15-0.555-0.15C225.882,119.684,225.699,119.732,225.528,119.828z"/>
	<path style="fill:#F9F9F9;" d="M230.626,119.489c0.208,0.187,0.322,0.441,0.343,0.766h-0.564c-0.008-0.185-0.07-0.332-0.186-0.444
		c-0.116-0.112-0.276-0.168-0.48-0.168c-0.208,0-0.371,0.049-0.489,0.147c-0.118,0.098-0.177,0.221-0.177,0.368
		c0,0.124,0.037,0.224,0.111,0.298c0.073,0.073,0.166,0.129,0.275,0.164c0.11,0.036,0.259,0.074,0.447,0.114
		c0.24,0.057,0.433,0.111,0.579,0.165c0.146,0.054,0.271,0.145,0.375,0.271c0.104,0.126,0.156,0.297,0.156,0.513
		c0,0.18-0.053,0.341-0.156,0.483c-0.104,0.142-0.25,0.252-0.438,0.329c-0.188,0.078-0.403,0.117-0.647,0.117
		c-0.368,0-0.663-0.092-0.885-0.275c-0.223-0.185-0.344-0.438-0.363-0.763h0.563c0.009,0.185,0.073,0.331,0.195,0.441
		s0.285,0.165,0.489,0.165c0.224,0,0.396-0.046,0.519-0.138c0.122-0.093,0.184-0.214,0.184-0.366c0-0.124-0.037-0.223-0.111-0.297
		s-0.167-0.13-0.279-0.168c-0.111-0.038-0.266-0.079-0.462-0.123c-0.235-0.052-0.427-0.105-0.572-0.159
		c-0.146-0.054-0.271-0.139-0.372-0.255c-0.103-0.116-0.153-0.276-0.153-0.48c0-0.18,0.051-0.345,0.153-0.495
		c0.102-0.149,0.248-0.269,0.438-0.356c0.19-0.088,0.411-0.132,0.663-0.132C230.137,119.211,230.418,119.303,230.626,119.489z"/>
	<path style="fill:#F9F9F9;" d="M232.312,122.738c0,0.452-0.206,0.679-0.618,0.679v-0.265c0.1,0,0.173-0.023,0.219-0.071
		c0.046-0.049,0.069-0.124,0.069-0.229v-0.138h-0.306v-0.559h0.558C232.285,122.369,232.312,122.562,232.312,122.738z"/>
	<path style="fill:#F9F9F9;" d="M236.674,119.489c0.208,0.187,0.322,0.441,0.343,0.766h-0.564c-0.008-0.185-0.07-0.332-0.186-0.444
		c-0.116-0.112-0.276-0.168-0.48-0.168c-0.208,0-0.371,0.049-0.489,0.147c-0.118,0.098-0.177,0.221-0.177,0.368
		c0,0.124,0.037,0.224,0.111,0.298c0.073,0.073,0.166,0.129,0.275,0.164c0.11,0.036,0.259,0.074,0.447,0.114
		c0.24,0.057,0.433,0.111,0.579,0.165c0.146,0.054,0.271,0.145,0.375,0.271c0.104,0.126,0.156,0.297,0.156,0.513
		c0,0.18-0.053,0.341-0.156,0.483c-0.104,0.142-0.25,0.252-0.438,0.329c-0.188,0.078-0.403,0.117-0.647,0.117
		c-0.368,0-0.663-0.092-0.885-0.275c-0.223-0.185-0.344-0.438-0.363-0.763h0.563c0.009,0.185,0.073,0.331,0.195,0.441
		s0.285,0.165,0.489,0.165c0.224,0,0.396-0.046,0.519-0.138c0.122-0.093,0.184-0.214,0.184-0.366c0-0.124-0.037-0.223-0.111-0.297
		s-0.167-0.13-0.279-0.168c-0.111-0.038-0.266-0.079-0.462-0.123c-0.235-0.052-0.427-0.105-0.572-0.159
		c-0.146-0.054-0.271-0.139-0.372-0.255c-0.103-0.116-0.153-0.276-0.153-0.48c0-0.18,0.051-0.345,0.153-0.495
		c0.102-0.149,0.248-0.269,0.438-0.356c0.19-0.088,0.411-0.132,0.663-0.132C236.185,119.211,236.466,119.303,236.674,119.489z"/>
	<path style="fill:#F9F9F9;" d="M240.718,119.264v3.294h-0.546v-0.528c-0.108,0.192-0.257,0.337-0.444,0.436
		c-0.188,0.098-0.398,0.146-0.63,0.146c-0.236,0-0.451-0.053-0.646-0.159c-0.193-0.105-0.348-0.263-0.462-0.471
		s-0.171-0.462-0.171-0.762v-1.956h0.54v1.866c0,0.328,0.081,0.579,0.243,0.753s0.383,0.261,0.663,0.261
		c0.279,0,0.501-0.087,0.663-0.261s0.243-0.425,0.243-0.753v-1.866H240.718z"/>
	<path style="fill:#F9F9F9;" d="M244.183,119.42c0.238,0.14,0.427,0.337,0.564,0.591s0.207,0.547,0.207,0.879
		s-0.069,0.629-0.207,0.891c-0.138,0.263-0.326,0.467-0.564,0.612c-0.237,0.146-0.505,0.219-0.801,0.219
		c-0.28,0-0.524-0.066-0.735-0.201c-0.21-0.134-0.37-0.309-0.482-0.524v0.672h-0.546v-4.44h0.546v1.807
		c0.112-0.212,0.272-0.384,0.482-0.517c0.211-0.132,0.455-0.197,0.735-0.197C243.678,119.211,243.945,119.28,244.183,119.42z
		 M242.725,119.835c-0.17,0.1-0.306,0.242-0.407,0.429c-0.103,0.186-0.153,0.403-0.153,0.651s0.051,0.465,0.153,0.65
		c0.102,0.187,0.237,0.329,0.407,0.429c0.17,0.101,0.354,0.15,0.55,0.15c0.195,0,0.38-0.051,0.552-0.153
		c0.172-0.102,0.309-0.249,0.411-0.44c0.102-0.192,0.152-0.412,0.152-0.66s-0.051-0.463-0.152-0.646
		c-0.103-0.182-0.238-0.32-0.408-0.417c-0.17-0.096-0.355-0.144-0.555-0.144C243.078,119.684,242.895,119.734,242.725,119.835z"/>
	<path style="fill:#F9F9F9;" d="M247.93,119.42c0.252,0.14,0.451,0.34,0.597,0.6c0.146,0.26,0.219,0.558,0.219,0.895
		c0,0.332-0.075,0.627-0.228,0.885s-0.358,0.458-0.618,0.6c-0.26,0.143-0.548,0.213-0.864,0.213c-0.308,0-0.585-0.069-0.831-0.21
		c-0.245-0.14-0.438-0.339-0.575-0.597c-0.139-0.258-0.207-0.555-0.207-0.891c0-0.341,0.072-0.64,0.219-0.897
		c0.146-0.258,0.345-0.457,0.597-0.597c0.252-0.141,0.534-0.21,0.847-0.21C247.396,119.211,247.678,119.28,247.93,119.42z
		 M246.52,119.804c-0.164,0.096-0.295,0.238-0.393,0.426c-0.099,0.188-0.147,0.416-0.147,0.685c0,0.264,0.047,0.489,0.141,0.678
		c0.095,0.188,0.222,0.33,0.382,0.426c0.159,0.096,0.338,0.144,0.533,0.144c0.2,0,0.388-0.049,0.562-0.146s0.314-0.241,0.423-0.429
		c0.108-0.188,0.162-0.412,0.162-0.672c0-0.265-0.051-0.491-0.153-0.682c-0.102-0.189-0.238-0.333-0.408-0.429
		s-0.354-0.145-0.555-0.145S246.684,119.709,246.52,119.804z"/>
	<path style="fill:#F9F9F9;" d="M250.978,119.211v0.569h-0.145c-0.279,0-0.492,0.073-0.639,0.22
		c-0.146,0.146-0.219,0.398-0.219,0.759v1.8h-0.546v-3.294h0.546v0.558C250.172,119.415,250.506,119.211,250.978,119.211z"/>
	<path style="fill:#F9F9F9;" d="M253.704,119.408c0.21,0.133,0.369,0.305,0.477,0.517v-1.807h0.553v4.44h-0.553v-0.672
		c-0.107,0.216-0.267,0.391-0.477,0.524c-0.21,0.135-0.455,0.201-0.735,0.201c-0.296,0-0.563-0.072-0.801-0.219
		c-0.238-0.146-0.426-0.35-0.563-0.612c-0.139-0.262-0.207-0.559-0.207-0.891s0.068-0.625,0.207-0.879
		c0.138-0.254,0.325-0.451,0.563-0.591c0.238-0.141,0.505-0.21,0.801-0.21C253.249,119.211,253.494,119.276,253.704,119.408z
		 M252.516,119.828c-0.17,0.097-0.306,0.235-0.407,0.417c-0.103,0.183-0.153,0.397-0.153,0.646s0.051,0.467,0.153,0.657
		c0.102,0.189,0.237,0.337,0.407,0.44c0.171,0.104,0.354,0.156,0.55,0.156c0.199,0,0.385-0.05,0.555-0.15
		c0.17-0.1,0.306-0.242,0.408-0.429c0.102-0.186,0.152-0.402,0.152-0.65s-0.051-0.466-0.152-0.651
		c-0.103-0.187-0.238-0.329-0.408-0.429c-0.17-0.101-0.355-0.15-0.555-0.15C252.869,119.684,252.687,119.732,252.516,119.828z"/>
	<path style="fill:#F9F9F9;" d="M255.651,118.1c0.072-0.072,0.158-0.108,0.258-0.108c0.104,0,0.192,0.036,0.265,0.108
		c0.071,0.072,0.107,0.16,0.107,0.264c0,0.104-0.036,0.192-0.107,0.265c-0.072,0.071-0.16,0.107-0.265,0.107
		c-0.104,0-0.19-0.036-0.261-0.107c-0.07-0.072-0.104-0.16-0.104-0.265C255.544,118.26,255.58,118.172,255.651,118.1z
		 M256.18,119.264v3.294h-0.546v-3.294H256.18z"/>
	<path style="fill:#F9F9F9;" d="M259.345,119.369c0.194,0.106,0.349,0.265,0.462,0.475c0.114,0.21,0.171,0.465,0.171,0.765v1.95
		h-0.54v-1.86c0-0.332-0.08-0.584-0.239-0.756c-0.16-0.172-0.383-0.258-0.666-0.258c-0.28,0-0.501,0.086-0.663,0.258
		s-0.243,0.424-0.243,0.756v1.86h-0.546v-3.294h0.546v0.534c0.107-0.192,0.256-0.338,0.444-0.438c0.188-0.1,0.397-0.149,0.63-0.149
		C258.936,119.211,259.15,119.263,259.345,119.369z"/>
	<path style="fill:#F9F9F9;" d="M262.938,119.408c0.21,0.133,0.369,0.305,0.477,0.517v-0.66h0.553v3.294h-0.553v-0.672
		c-0.107,0.216-0.267,0.391-0.477,0.524c-0.21,0.135-0.455,0.201-0.735,0.201c-0.296,0-0.563-0.072-0.801-0.219
		c-0.238-0.146-0.426-0.35-0.563-0.612c-0.139-0.262-0.207-0.559-0.207-0.891s0.068-0.625,0.207-0.879
		c0.138-0.254,0.325-0.451,0.563-0.591c0.238-0.141,0.505-0.21,0.801-0.21C262.483,119.211,262.729,119.276,262.938,119.408z
		 M261.75,119.828c-0.17,0.097-0.306,0.235-0.407,0.417c-0.103,0.183-0.153,0.397-0.153,0.646s0.051,0.467,0.153,0.657
		c0.102,0.189,0.237,0.337,0.407,0.44c0.171,0.104,0.354,0.156,0.55,0.156c0.199,0,0.385-0.05,0.555-0.15
		c0.17-0.1,0.306-0.242,0.408-0.429c0.102-0.186,0.152-0.402,0.152-0.65s-0.051-0.466-0.152-0.651
		c-0.103-0.187-0.238-0.329-0.408-0.429c-0.17-0.101-0.355-0.15-0.555-0.15C262.104,119.684,261.921,119.732,261.75,119.828z"/>
	<path style="fill:#F9F9F9;" d="M266.397,122.114v0.444h-0.553c-0.279,0-0.493-0.068-0.639-0.204
		c-0.146-0.136-0.219-0.35-0.219-0.642v-2.004h-0.427v-0.444h0.427v-0.816h0.552v0.816h0.852v0.444h-0.852v2.004
		c0,0.147,0.03,0.252,0.09,0.312c0.061,0.061,0.166,0.09,0.318,0.09H266.397z"/>
	<path style="fill:#F9F9F9;" d="M269.938,121.1h-2.622c0.016,0.328,0.119,0.587,0.309,0.777c0.19,0.189,0.434,0.284,0.729,0.284
		c0.224,0,0.413-0.05,0.567-0.149c0.153-0.1,0.267-0.232,0.339-0.396h0.588c-0.104,0.288-0.283,0.526-0.537,0.715
		c-0.254,0.188-0.573,0.281-0.957,0.281c-0.309,0-0.583-0.069-0.825-0.21c-0.242-0.14-0.431-0.339-0.566-0.597
		c-0.137-0.258-0.204-0.555-0.204-0.891c0-0.341,0.067-0.64,0.204-0.897c0.136-0.258,0.327-0.457,0.575-0.597
		c0.248-0.141,0.534-0.21,0.858-0.21c0.308,0,0.58,0.067,0.816,0.204c0.235,0.136,0.42,0.321,0.552,0.558s0.198,0.504,0.198,0.804
		C269.962,120.892,269.953,121.001,269.938,121.1z M269.392,120.705c0-0.213-0.046-0.397-0.138-0.556
		c-0.093-0.158-0.218-0.279-0.375-0.363c-0.158-0.084-0.333-0.126-0.525-0.126c-0.284,0-0.522,0.094-0.714,0.279
		c-0.192,0.187-0.298,0.441-0.318,0.766H269.392z"/>
	<path style="fill:#F9F9F9;" d="M272.73,119.408c0.21,0.133,0.369,0.305,0.477,0.517v-1.807h0.553v4.44h-0.553v-0.672
		c-0.107,0.216-0.267,0.391-0.477,0.524c-0.21,0.135-0.455,0.201-0.735,0.201c-0.296,0-0.563-0.072-0.801-0.219
		c-0.238-0.146-0.426-0.35-0.563-0.612c-0.139-0.262-0.207-0.559-0.207-0.891s0.068-0.625,0.207-0.879
		c0.138-0.254,0.325-0.451,0.563-0.591c0.238-0.141,0.505-0.21,0.801-0.21C272.275,119.211,272.521,119.276,272.73,119.408z
		 M271.542,119.828c-0.17,0.097-0.306,0.235-0.407,0.417c-0.103,0.183-0.153,0.397-0.153,0.646s0.051,0.467,0.153,0.657
		c0.102,0.189,0.237,0.337,0.407,0.44c0.171,0.104,0.354,0.156,0.55,0.156c0.199,0,0.385-0.05,0.555-0.15
		c0.17-0.1,0.306-0.242,0.408-0.429c0.102-0.186,0.152-0.402,0.152-0.65s-0.051-0.466-0.152-0.651
		c-0.103-0.187-0.238-0.329-0.408-0.429c-0.17-0.101-0.355-0.15-0.555-0.15C271.896,119.684,271.713,119.732,271.542,119.828z"/>
	<path style="fill:#F9F9F9;" d="M278.442,119.408c0.21,0.133,0.369,0.305,0.477,0.517v-1.807h0.553v4.44h-0.553v-0.672
		c-0.107,0.216-0.267,0.391-0.477,0.524c-0.21,0.135-0.455,0.201-0.735,0.201c-0.296,0-0.563-0.072-0.801-0.219
		c-0.238-0.146-0.426-0.35-0.563-0.612c-0.139-0.262-0.207-0.559-0.207-0.891s0.068-0.625,0.207-0.879
		c0.138-0.254,0.325-0.451,0.563-0.591c0.238-0.141,0.505-0.21,0.801-0.21C277.987,119.211,278.232,119.276,278.442,119.408z
		 M277.254,119.828c-0.17,0.097-0.306,0.235-0.407,0.417c-0.103,0.183-0.153,0.397-0.153,0.646s0.051,0.467,0.153,0.657
		c0.102,0.189,0.237,0.337,0.407,0.44c0.171,0.104,0.354,0.156,0.55,0.156c0.199,0,0.385-0.05,0.555-0.15
		c0.17-0.1,0.306-0.242,0.408-0.429c0.102-0.186,0.152-0.402,0.152-0.65s-0.051-0.466-0.152-0.651
		c-0.103-0.187-0.238-0.329-0.408-0.429c-0.17-0.101-0.355-0.15-0.555-0.15C277.607,119.684,277.425,119.732,277.254,119.828z"/>
	<path style="fill:#F9F9F9;" d="M283.335,121.1h-2.622c0.016,0.328,0.119,0.587,0.309,0.777c0.19,0.189,0.434,0.284,0.729,0.284
		c0.224,0,0.413-0.05,0.567-0.149c0.153-0.1,0.267-0.232,0.339-0.396h0.588c-0.104,0.288-0.283,0.526-0.537,0.715
		c-0.254,0.188-0.573,0.281-0.957,0.281c-0.309,0-0.583-0.069-0.825-0.21c-0.242-0.14-0.431-0.339-0.566-0.597
		c-0.137-0.258-0.204-0.555-0.204-0.891c0-0.341,0.067-0.64,0.204-0.897c0.136-0.258,0.327-0.457,0.575-0.597
		c0.248-0.141,0.534-0.21,0.858-0.21c0.308,0,0.58,0.067,0.816,0.204c0.235,0.136,0.42,0.321,0.552,0.558s0.198,0.504,0.198,0.804
		C283.359,120.892,283.351,121.001,283.335,121.1z M282.789,120.705c0-0.213-0.046-0.397-0.138-0.556
		c-0.093-0.158-0.218-0.279-0.375-0.363c-0.158-0.084-0.333-0.126-0.525-0.126c-0.284,0-0.522,0.094-0.714,0.279
		c-0.192,0.187-0.298,0.441-0.318,0.766H282.789z"/>
	<path style="fill:#F9F9F9;" d="M286.602,119.42c0.238,0.14,0.427,0.337,0.564,0.591s0.207,0.547,0.207,0.879
		s-0.069,0.629-0.207,0.891c-0.138,0.263-0.326,0.467-0.564,0.612c-0.237,0.146-0.505,0.219-0.801,0.219
		c-0.28,0-0.524-0.066-0.735-0.201c-0.21-0.134-0.37-0.309-0.482-0.524v0.672h-0.546v-4.44h0.546v1.807
		c0.112-0.212,0.272-0.384,0.482-0.517c0.211-0.132,0.455-0.197,0.735-0.197C286.097,119.211,286.364,119.28,286.602,119.42z
		 M285.144,119.835c-0.17,0.1-0.306,0.242-0.407,0.429c-0.103,0.186-0.153,0.403-0.153,0.651s0.051,0.465,0.153,0.65
		c0.102,0.187,0.237,0.329,0.407,0.429c0.17,0.101,0.354,0.15,0.55,0.15c0.195,0,0.38-0.051,0.552-0.153
		c0.172-0.102,0.309-0.249,0.411-0.44c0.102-0.192,0.152-0.412,0.152-0.66s-0.051-0.463-0.152-0.646
		c-0.103-0.182-0.238-0.32-0.408-0.417c-0.17-0.096-0.355-0.144-0.555-0.144C285.497,119.684,285.313,119.734,285.144,119.835z"/>
	<path style="fill:#F9F9F9;" d="M289.552,122.114v0.444h-0.553c-0.279,0-0.493-0.068-0.639-0.204
		c-0.146-0.136-0.219-0.35-0.219-0.642v-2.004h-0.427v-0.444h0.427v-0.816h0.552v0.816h0.852v0.444h-0.852v2.004
		c0,0.147,0.03,0.252,0.09,0.312c0.061,0.061,0.166,0.09,0.318,0.09H289.552z"/>
</g>
<rect x="160.001" y="97.36" style="fill:none;stroke:#FFFFFF;stroke-width:0.5;stroke-miterlimit:10;" width="133.924" height="32.5"/>
<rect x="307.403" y="97.807" style="fill:none;stroke:#FFFFFF;stroke-width:0.5;stroke-miterlimit:10;" width="133.924" height="32.5"/>
<g>
	<path style="fill:#05739B;" d="M124.592,5.849h-2.255V5.035h5.49v0.814h-2.267v6.601h-0.968V5.849z"/>
	<path style="fill:#05739B;" d="M128.97,7.125l1.166,3.146c0.121,0.352,0.253,0.77,0.341,1.089h0.022
		c0.099-0.319,0.209-0.726,0.341-1.111l1.056-3.125h1.023l-1.453,3.795c-0.693,1.826-1.166,2.762-1.826,3.333
		c-0.473,0.418-0.946,0.583-1.188,0.627l-0.242-0.814c0.242-0.077,0.561-0.231,0.847-0.473c0.264-0.209,0.594-0.583,0.814-1.078
		c0.044-0.099,0.077-0.176,0.077-0.231s-0.022-0.132-0.066-0.253l-1.969-4.907H128.97z"/>
	<path style="fill:#05739B;" d="M133.799,8.863c0-0.682-0.022-1.232-0.044-1.738h0.869l0.044,0.913h0.022
		c0.396-0.649,1.023-1.034,1.892-1.034c1.287,0,2.255,1.089,2.255,2.707c0,1.914-1.166,2.86-2.42,2.86
		c-0.704,0-1.32-0.308-1.639-0.836h-0.022v2.894h-0.957V8.863z M134.756,10.282c0,0.143,0.022,0.275,0.044,0.396
		c0.176,0.671,0.759,1.133,1.452,1.133c1.023,0,1.617-0.836,1.617-2.057c0-1.067-0.561-1.98-1.584-1.98
		c-0.66,0-1.276,0.473-1.463,1.199c-0.033,0.121-0.066,0.264-0.066,0.396V10.282z"/>
	<path style="fill:#05739B;" d="M140.597,9.963c0.022,1.309,0.858,1.848,1.826,1.848c0.693,0,1.111-0.121,1.474-0.275l0.165,0.693
		c-0.341,0.154-0.924,0.33-1.771,0.33c-1.64,0-2.619-1.078-2.619-2.684c0-1.606,0.946-2.872,2.498-2.872
		c1.738,0,2.2,1.529,2.2,2.508c0,0.198-0.022,0.352-0.033,0.451H140.597z M143.436,9.27c0.011-0.616-0.253-1.573-1.342-1.573
		c-0.979,0-1.408,0.902-1.485,1.573H143.436z"/>
	<path style="fill:#05739B;" d="M152.719,9.743c0,1.969-1.364,2.828-2.651,2.828c-1.441,0-2.552-1.056-2.552-2.739
		c0-1.782,1.166-2.828,2.641-2.828C151.686,7.004,152.719,8.115,152.719,9.743z M148.495,9.798c0,1.166,0.671,2.046,1.618,2.046
		c0.924,0,1.617-0.869,1.617-2.068c0-0.902-0.451-2.046-1.595-2.046C148.99,7.73,148.495,8.786,148.495,9.798z"/>
	<path style="fill:#05739B;" d="M154.039,12.45V7.862h-0.749V7.125h0.749V6.872c0-0.748,0.165-1.43,0.616-1.859
		c0.363-0.352,0.847-0.495,1.298-0.495c0.341,0,0.638,0.077,0.825,0.154l-0.132,0.749c-0.143-0.066-0.341-0.121-0.616-0.121
		c-0.825,0-1.034,0.726-1.034,1.54v0.286h1.287v0.737h-1.287v4.588H154.039z"/>
	<path style="fill:#05739B;" d="M159.516,5.123c0.462-0.077,1.067-0.143,1.837-0.143c0.946,0,1.639,0.22,2.079,0.616
		c0.407,0.352,0.649,0.891,0.649,1.551c0,0.671-0.198,1.199-0.572,1.584c-0.506,0.539-1.331,0.814-2.266,0.814
		c-0.286,0-0.55-0.011-0.77-0.066v2.97h-0.958V5.123z M160.474,8.698c0.209,0.055,0.473,0.077,0.792,0.077
		c1.155,0,1.859-0.562,1.859-1.584c0-0.979-0.693-1.452-1.75-1.452c-0.418,0-0.737,0.033-0.902,0.077V8.698z"/>
	<path style="fill:#05739B;" d="M165.335,8.786c0-0.627-0.011-1.166-0.044-1.661h0.847l0.033,1.045h0.044
		c0.242-0.715,0.825-1.166,1.474-1.166c0.11,0,0.188,0.011,0.275,0.033V7.95c-0.099-0.022-0.198-0.033-0.33-0.033
		c-0.682,0-1.166,0.517-1.298,1.243c-0.022,0.132-0.044,0.286-0.044,0.451v2.838h-0.957V8.786z"/>
	<path style="fill:#05739B;" d="M173.751,9.743c0,1.969-1.364,2.828-2.651,2.828c-1.441,0-2.552-1.056-2.552-2.739
		c0-1.782,1.167-2.828,2.641-2.828C172.717,7.004,173.751,8.115,173.751,9.743z M169.526,9.798c0,1.166,0.671,2.046,1.618,2.046
		c0.924,0,1.617-0.869,1.617-2.068c0-0.902-0.451-2.046-1.595-2.046C170.021,7.73,169.526,8.786,169.526,9.798z"/>
	<path style="fill:#05739B;" d="M173.673,13.99c0.44-0.033,0.825-0.154,1.056-0.407c0.264-0.308,0.363-0.726,0.363-2.002V7.125
		h0.968v4.83c0,1.034-0.165,1.705-0.638,2.189c-0.429,0.429-1.133,0.605-1.65,0.605L173.673,13.99z M176.171,5.629
		c0.011,0.319-0.22,0.594-0.605,0.594c-0.363,0-0.594-0.275-0.594-0.594c0-0.341,0.253-0.605,0.616-0.605
		C175.94,5.024,176.171,5.288,176.171,5.629z"/>
	<path style="fill:#05739B;" d="M178.184,9.963c0.022,1.309,0.858,1.848,1.826,1.848c0.693,0,1.111-0.121,1.474-0.275l0.165,0.693
		c-0.341,0.154-0.924,0.33-1.771,0.33c-1.64,0-2.619-1.078-2.619-2.684c0-1.606,0.946-2.872,2.498-2.872
		c1.738,0,2.2,1.529,2.2,2.508c0,0.198-0.022,0.352-0.033,0.451H178.184z M181.022,9.27c0.011-0.616-0.253-1.573-1.342-1.573
		c-0.979,0-1.408,0.902-1.485,1.573H181.022z"/>
	<path style="fill:#05739B;" d="M186.951,12.252c-0.253,0.132-0.814,0.308-1.529,0.308c-1.606,0-2.651-1.089-2.651-2.717
		c0-1.639,1.122-2.827,2.86-2.827c0.572,0,1.078,0.143,1.342,0.275l-0.22,0.748c-0.231-0.132-0.594-0.253-1.123-0.253
		c-1.221,0-1.881,0.902-1.881,2.013c0,1.232,0.792,1.991,1.849,1.991c0.55,0,0.913-0.143,1.188-0.264L186.951,12.252z"/>
	<path style="fill:#05739B;" d="M189.25,5.596v1.529h1.386v0.737h-1.386v2.872c0,0.66,0.187,1.034,0.726,1.034
		c0.253,0,0.44-0.033,0.561-0.066l0.044,0.726c-0.187,0.077-0.484,0.132-0.858,0.132c-0.451,0-0.814-0.143-1.045-0.407
		c-0.275-0.286-0.374-0.759-0.374-1.386V7.862h-0.825V7.125h0.825V5.849L189.25,5.596z"/>
	<path style="fill:#05739B;" d="M193.242,12.89l3.07-7.976h0.748l-3.081,7.976H193.242z"/>
	<path style="fill:#05739B;" d="M205.376,12.208c-0.352,0.176-1.056,0.352-1.958,0.352c-2.09,0-3.664-1.32-3.664-3.751
		c0-2.321,1.573-3.895,3.873-3.895c0.924,0,1.507,0.198,1.76,0.33l-0.231,0.781c-0.363-0.176-0.88-0.308-1.496-0.308
		c-1.738,0-2.894,1.111-2.894,3.059c0,1.815,1.045,2.981,2.85,2.981c0.583,0,1.177-0.121,1.562-0.308L205.376,12.208z"/>
	<path style="fill:#05739B;" d="M211.359,9.743c0,1.969-1.364,2.828-2.651,2.828c-1.441,0-2.552-1.056-2.552-2.739
		c0-1.782,1.167-2.828,2.641-2.828C210.326,7.004,211.359,8.115,211.359,9.743z M207.135,9.798c0,1.166,0.671,2.046,1.618,2.046
		c0.924,0,1.617-0.869,1.617-2.068c0-0.902-0.451-2.046-1.595-2.046C207.63,7.73,207.135,8.786,207.135,9.798z"/>
	<path style="fill:#05739B;" d="M212.58,8.566c0-0.55-0.011-1.001-0.044-1.441h0.847l0.044,0.858h0.033
		c0.297-0.506,0.792-0.979,1.672-0.979c0.726,0,1.276,0.44,1.507,1.067h0.022c0.165-0.297,0.374-0.528,0.594-0.693
		c0.319-0.242,0.671-0.374,1.177-0.374c0.704,0,1.75,0.462,1.75,2.311v3.135h-0.946V9.435c0-1.023-0.374-1.639-1.155-1.639
		c-0.55,0-0.979,0.407-1.144,0.88c-0.044,0.132-0.077,0.308-0.077,0.484v3.29h-0.946v-3.19c0-0.847-0.374-1.463-1.111-1.463
		c-0.605,0-1.045,0.484-1.199,0.968c-0.055,0.143-0.077,0.308-0.077,0.473v3.212h-0.946V8.566z"/>
	<path style="fill:#05739B;" d="M221.754,8.863c0-0.682-0.022-1.232-0.044-1.738h0.869l0.044,0.913h0.022
		c0.396-0.649,1.023-1.034,1.892-1.034c1.287,0,2.256,1.089,2.256,2.707c0,1.914-1.167,2.86-2.421,2.86
		c-0.704,0-1.32-0.308-1.639-0.836h-0.022v2.894h-0.957V8.863z M222.711,10.282c0,0.143,0.022,0.275,0.044,0.396
		c0.176,0.671,0.759,1.133,1.452,1.133c1.023,0,1.617-0.836,1.617-2.057c0-1.067-0.561-1.98-1.584-1.98
		c-0.66,0-1.276,0.473-1.463,1.199c-0.033,0.121-0.066,0.264-0.066,0.396V10.282z"/>
	<path style="fill:#05739B;" d="M230.961,12.45l-0.077-0.671h-0.033c-0.297,0.418-0.869,0.792-1.628,0.792
		c-1.078,0-1.629-0.759-1.629-1.529c0-1.287,1.145-1.991,3.202-1.98v-0.11c0-0.44-0.121-1.232-1.211-1.232
		c-0.495,0-1.012,0.154-1.386,0.396l-0.22-0.638c0.439-0.286,1.078-0.473,1.749-0.473c1.628,0,2.024,1.111,2.024,2.178v1.991
		c0,0.462,0.021,0.913,0.088,1.276H230.961z M230.817,9.732c-1.056-0.022-2.255,0.165-2.255,1.199c0,0.627,0.418,0.924,0.913,0.924
		c0.692,0,1.133-0.44,1.287-0.891c0.033-0.099,0.055-0.209,0.055-0.308V9.732z"/>
	<path style="fill:#05739B;" d="M233.314,8.566c0-0.55-0.011-1.001-0.044-1.441h0.858l0.055,0.88h0.022
		c0.264-0.506,0.88-1.001,1.76-1.001c0.737,0,1.882,0.44,1.882,2.266v3.18h-0.969V9.38c0-0.858-0.318-1.573-1.231-1.573
		c-0.639,0-1.134,0.451-1.299,0.99c-0.044,0.121-0.065,0.286-0.065,0.451v3.202h-0.969V8.566z"/>
	<path style="fill:#05739B;" d="M239.771,7.125l1.166,3.146c0.121,0.352,0.253,0.77,0.341,1.089h0.022
		c0.099-0.319,0.209-0.726,0.341-1.111l1.057-3.125h1.022l-1.452,3.795c-0.693,1.826-1.166,2.762-1.826,3.333
		c-0.473,0.418-0.946,0.583-1.188,0.627l-0.241-0.814c0.241-0.077,0.561-0.231,0.847-0.473c0.264-0.209,0.594-0.583,0.814-1.078
		c0.044-0.099,0.077-0.176,0.077-0.231s-0.022-0.132-0.066-0.253l-1.97-4.907H239.771z"/>
	<path style="fill:#05739B;" d="M252.146,12.208c-0.352,0.176-1.056,0.352-1.958,0.352c-2.09,0-3.663-1.32-3.663-3.751
		c0-2.321,1.573-3.895,3.872-3.895c0.924,0,1.507,0.198,1.761,0.33l-0.231,0.781c-0.363-0.176-0.88-0.308-1.496-0.308
		c-1.738,0-2.894,1.111-2.894,3.059c0,1.815,1.045,2.981,2.85,2.981c0.583,0,1.177-0.121,1.563-0.308L252.146,12.208z"/>
	<path style="fill:#05739B;" d="M256.261,12.45l-0.077-0.671h-0.033c-0.297,0.418-0.869,0.792-1.628,0.792
		c-1.078,0-1.629-0.759-1.629-1.529c0-1.287,1.145-1.991,3.202-1.98v-0.11c0-0.44-0.121-1.232-1.211-1.232
		c-0.495,0-1.012,0.154-1.386,0.396l-0.22-0.638c0.439-0.286,1.078-0.473,1.749-0.473c1.628,0,2.024,1.111,2.024,2.178v1.991
		c0,0.462,0.021,0.913,0.088,1.276H256.261z M256.117,9.732c-1.056-0.022-2.255,0.165-2.255,1.199c0,0.627,0.418,0.924,0.913,0.924
		c0.692,0,1.133-0.44,1.287-0.891c0.033-0.099,0.055-0.209,0.055-0.308V9.732z"/>
	<path style="fill:#05739B;" d="M258.613,8.863c0-0.682-0.021-1.232-0.044-1.738h0.869l0.044,0.913h0.022
		c0.396-0.649,1.023-1.034,1.893-1.034c1.287,0,2.255,1.089,2.255,2.707c0,1.914-1.166,2.86-2.42,2.86
		c-0.704,0-1.32-0.308-1.64-0.836h-0.022v2.894h-0.957V8.863z M259.57,10.282c0,0.143,0.022,0.275,0.045,0.396
		c0.176,0.671,0.759,1.133,1.452,1.133c1.022,0,1.617-0.836,1.617-2.057c0-1.067-0.562-1.98-1.585-1.98
		c-0.66,0-1.275,0.473-1.463,1.199c-0.033,0.121-0.066,0.264-0.066,0.396V10.282z"/>
	<path style="fill:#05739B;" d="M265.95,5.629c0.012,0.33-0.23,0.594-0.615,0.594c-0.342,0-0.584-0.264-0.584-0.594
		c0-0.341,0.254-0.605,0.605-0.605C265.72,5.024,265.95,5.288,265.95,5.629z M264.872,12.45V7.125h0.969v5.325H264.872z"/>
	<path style="fill:#05739B;" d="M268.613,5.596v1.529h1.386v0.737h-1.386v2.872c0,0.66,0.187,1.034,0.726,1.034
		c0.253,0,0.44-0.033,0.562-0.066l0.044,0.726c-0.188,0.077-0.484,0.132-0.858,0.132c-0.451,0-0.814-0.143-1.045-0.407
		c-0.275-0.286-0.374-0.759-0.374-1.386V7.862h-0.825V7.125h0.825V5.849L268.613,5.596z"/>
	<path style="fill:#05739B;" d="M274.036,12.45l-0.077-0.671h-0.033c-0.297,0.418-0.869,0.792-1.628,0.792
		c-1.078,0-1.629-0.759-1.629-1.529c0-1.287,1.145-1.991,3.202-1.98v-0.11c0-0.44-0.121-1.232-1.211-1.232
		c-0.495,0-1.012,0.154-1.386,0.396l-0.22-0.638c0.439-0.286,1.078-0.473,1.749-0.473c1.628,0,2.024,1.111,2.024,2.178v1.991
		c0,0.462,0.021,0.913,0.088,1.276H274.036z M273.893,9.732c-1.056-0.022-2.255,0.165-2.255,1.199c0,0.627,0.418,0.924,0.913,0.924
		c0.692,0,1.133-0.44,1.287-0.891c0.033-0.099,0.055-0.209,0.055-0.308V9.732z"/>
	<path style="fill:#05739B;" d="M276.39,4.639h0.969v7.811h-0.969V4.639z"/>
</g>
<path style="fill:#909090;" d="M377.574,42.375v-0.78h3.99v0.78H377.574z M370.72,42.375v-0.78h3.991v0.78H370.72z M363.867,42.375
	v-0.78h3.99v0.78H363.867z M357.014,42.375v-0.78h3.99v0.78H357.014z M350.161,42.375v-0.78h3.989v0.78H350.161z M343.307,42.375
	v-0.78h3.99v0.78H343.307z M336.454,42.375v-0.78h3.99v0.78H336.454z M329.601,42.375v-0.78h3.99v0.78H329.601z M322.747,42.375
	v-0.78h3.99v0.78H322.747z M315.894,42.375v-0.78h3.99v0.78H315.894z M309.041,42.375v-0.78h3.99v0.78H309.041z M302.187,42.375
	v-0.78h3.99v0.78H302.187z M295.334,42.375v-0.78h3.99v0.78H295.334z M288.481,42.375v-0.78h3.99v0.78H288.481z M281.627,42.375
	v-0.78h3.99v0.78H281.627z M274.774,42.375v-0.78h3.99v0.78H274.774z M267.921,42.375v-0.78h3.99v0.78H267.921z M171.974,42.375
	v-0.78h3.99v0.78H171.974z M165.121,42.375v-0.78h3.99v0.78H165.121z M158.268,42.375v-0.78h3.99v0.78H158.268z M151.414,42.375
	v-0.78h3.99v0.78H151.414z M144.561,42.375v-0.78h3.99v0.78H144.561z M137.708,42.375v-0.78h3.99v0.78H137.708z M130.854,42.375
	v-0.78h3.99v0.78H130.854z M124.001,42.375v-0.78h3.99v0.78H124.001z M117.148,42.375v-0.78h3.99v0.78H117.148z M110.294,42.375
	v-0.78h3.99v0.78H110.294z M103.441,42.375v-0.78h3.99v0.78H103.441z M96.587,42.375v-0.78h3.991v0.78H96.587z M89.734,42.375v-0.78
	h3.99v0.78H89.734z M82.881,42.375v-0.78h3.99v0.78H82.881z M76.028,42.375v-0.78h3.99v0.78H76.028z M69.174,42.375v-0.78h3.99v0.78
	H69.174z M62.321,42.375v-0.78h3.99v0.78H62.321z M55.468,42.375v-0.78h3.99v0.78H55.468z M48.614,42.375v-0.78h3.99v0.78H48.614z
	 M41.761,42.375v-0.78h3.99v0.78H41.761z M34.908,42.375v-0.78h3.99v0.78H34.908z M28.054,42.375v-0.78h3.99v0.78H28.054z
	 M21.201,42.375v-0.78h3.99v0.78H21.201z M14.348,42.375v-0.78h3.99v0.78H14.348z M7.494,42.375v-0.78h3.99v0.78H7.494z
	 M0.641,42.375v-0.78h3.99v0.78H0.641z"/>
<g>
	<path style="fill:#909090;" d="M181.307,38.799v5.389h-0.696v-5.389H181.307z"/>
	<path style="fill:#909090;" d="M182.675,41.366c0-0.4-0.008-0.728-0.032-1.048h0.624l0.04,0.64h0.016
		c0.192-0.368,0.64-0.728,1.279-0.728c0.536,0,1.367,0.32,1.367,1.647v2.311h-0.704v-2.231c0-0.624-0.232-1.143-0.896-1.143
		c-0.464,0-0.824,0.328-0.943,0.72c-0.032,0.088-0.048,0.208-0.048,0.328v2.327h-0.704V41.366z"/>
	<path style="fill:#909090;" d="M187.332,40.318l0.76,2.175c0.128,0.352,0.232,0.672,0.312,0.992h0.024
		c0.088-0.32,0.2-0.64,0.328-0.992l0.751-2.175h0.736l-1.52,3.87h-0.671l-1.471-3.87H187.332z"/>
	<path style="fill:#909090;" d="M191.299,42.381c0.016,0.952,0.624,1.343,1.327,1.343c0.504,0,0.808-0.088,1.071-0.2l0.12,0.503
		c-0.248,0.112-0.672,0.24-1.288,0.24c-1.191,0-1.903-0.784-1.903-1.951c0-1.167,0.688-2.087,1.815-2.087
		c1.264,0,1.599,1.111,1.599,1.823c0,0.144-0.016,0.256-0.024,0.328H191.299z M193.362,41.878c0.008-0.448-0.184-1.144-0.976-1.144
		c-0.712,0-1.023,0.656-1.08,1.144H193.362z"/>
	<path style="fill:#909090;" d="M194.932,43.468c0.208,0.136,0.576,0.28,0.927,0.28c0.512,0,0.752-0.256,0.752-0.576
		c0-0.335-0.2-0.52-0.72-0.711c-0.696-0.248-1.023-0.632-1.023-1.095c0-0.624,0.503-1.136,1.335-1.136
		c0.392,0,0.735,0.112,0.951,0.24l-0.176,0.512c-0.152-0.096-0.432-0.224-0.792-0.224c-0.416,0-0.648,0.24-0.648,0.528
		c0,0.32,0.232,0.464,0.736,0.656c0.671,0.256,1.015,0.591,1.015,1.167c0,0.68-0.527,1.16-1.447,1.16
		c-0.424,0-0.816-0.104-1.087-0.264L194.932,43.468z"/>
	<path style="fill:#909090;" d="M199.139,39.207v1.111h1.007v0.536h-1.007v2.087c0,0.479,0.136,0.751,0.528,0.751
		c0.184,0,0.32-0.024,0.408-0.048l0.032,0.528c-0.136,0.056-0.352,0.096-0.624,0.096c-0.328,0-0.592-0.104-0.759-0.296
		c-0.2-0.208-0.272-0.552-0.272-1.007v-2.111h-0.6v-0.536h0.6v-0.927L199.139,39.207z"/>
	<path style="fill:#909090;" d="M204.538,42.221c0,1.431-0.992,2.055-1.927,2.055c-1.047,0-1.855-0.768-1.855-1.991
		c0-1.295,0.848-2.055,1.919-2.055C203.786,40.23,204.538,41.038,204.538,42.221z M201.467,42.261c0,0.847,0.488,1.487,1.175,1.487
		c0.671,0,1.175-0.631,1.175-1.503c0-0.656-0.328-1.487-1.16-1.487C201.827,40.758,201.467,41.525,201.467,42.261z"/>
	<path style="fill:#909090;" d="M205.427,41.525c0-0.456-0.008-0.848-0.032-1.208h0.616l0.024,0.76h0.032
		c0.176-0.52,0.6-0.848,1.072-0.848c0.08,0,0.136,0.008,0.2,0.024v0.664c-0.072-0.016-0.144-0.024-0.24-0.024
		c-0.496,0-0.848,0.375-0.943,0.903c-0.016,0.096-0.032,0.208-0.032,0.328v2.063h-0.696V41.525z"/>
	<path style="fill:#909090;" d="M214.368,41.438c0,1.855-1.127,2.838-2.502,2.838c-1.423,0-2.422-1.104-2.422-2.734
		c0-1.711,1.063-2.831,2.502-2.831C213.417,38.711,214.368,39.838,214.368,41.438z M210.187,41.525c0,1.151,0.624,2.183,1.719,2.183
		c1.104,0,1.727-1.016,1.727-2.239c0-1.071-0.56-2.19-1.719-2.19C210.762,39.279,210.187,40.342,210.187,41.525z"/>
	<path style="fill:#909090;" d="M215.723,40.318l0.512,1.967c0.112,0.432,0.216,0.832,0.288,1.231h0.024
		c0.088-0.392,0.216-0.807,0.344-1.223l0.632-1.975h0.592l0.6,1.935c0.144,0.464,0.256,0.872,0.344,1.263h0.024
		c0.064-0.392,0.168-0.799,0.296-1.255l0.552-1.943h0.695l-1.247,3.87h-0.64l-0.592-1.847c-0.136-0.432-0.248-0.815-0.344-1.271
		h-0.016c-0.096,0.464-0.216,0.863-0.352,1.279l-0.624,1.839h-0.64l-1.167-3.87H215.723z"/>
	<path style="fill:#909090;" d="M221.667,41.366c0-0.4-0.008-0.728-0.032-1.048h0.624l0.04,0.64h0.016
		c0.192-0.368,0.64-0.728,1.279-0.728c0.536,0,1.367,0.32,1.367,1.647v2.311h-0.703v-2.231c0-0.624-0.232-1.143-0.896-1.143
		c-0.464,0-0.824,0.328-0.943,0.72c-0.032,0.088-0.048,0.208-0.048,0.328v2.327h-0.704V41.366z"/>
	<path style="fill:#909090;" d="M226.499,42.381c0.016,0.952,0.624,1.343,1.327,1.343c0.504,0,0.808-0.088,1.071-0.2l0.12,0.503
		c-0.248,0.112-0.672,0.24-1.287,0.24c-1.191,0-1.903-0.784-1.903-1.951c0-1.167,0.688-2.087,1.815-2.087
		c1.263,0,1.599,1.111,1.599,1.823c0,0.144-0.016,0.256-0.023,0.328H226.499z M228.562,41.878c0.008-0.448-0.184-1.144-0.976-1.144
		c-0.711,0-1.023,0.656-1.079,1.144H228.562z"/>
	<path style="fill:#909090;" d="M230.115,41.525c0-0.456-0.008-0.848-0.032-1.208h0.615l0.024,0.76h0.032
		c0.176-0.52,0.6-0.848,1.071-0.848c0.08,0,0.136,0.008,0.199,0.024v0.664c-0.071-0.016-0.144-0.024-0.239-0.024
		c-0.496,0-0.848,0.375-0.943,0.903c-0.017,0.096-0.032,0.208-0.032,0.328v2.063h-0.695V41.525z"/>
	<path style="fill:#909090;" d="M232.843,43.468c0.208,0.136,0.576,0.28,0.928,0.28c0.512,0,0.752-0.256,0.752-0.576
		c0-0.335-0.2-0.52-0.72-0.711c-0.695-0.248-1.023-0.632-1.023-1.095c0-0.624,0.504-1.136,1.335-1.136
		c0.392,0,0.735,0.112,0.952,0.24l-0.177,0.512c-0.151-0.096-0.432-0.224-0.791-0.224c-0.416,0-0.647,0.24-0.647,0.528
		c0,0.32,0.231,0.464,0.735,0.656c0.672,0.256,1.016,0.591,1.016,1.167c0,0.68-0.528,1.16-1.447,1.16
		c-0.424,0-0.815-0.104-1.088-0.264L232.843,43.468z"/>
	<path style="fill:#909090;" d="M236.107,38.511h0.703v2.415h0.017c0.111-0.2,0.287-0.376,0.503-0.496
		c0.208-0.12,0.456-0.2,0.72-0.2c0.52,0,1.352,0.32,1.352,1.655v2.303h-0.704v-2.223c0-0.624-0.231-1.151-0.896-1.151
		c-0.455,0-0.815,0.32-0.943,0.704c-0.04,0.096-0.048,0.2-0.048,0.335v2.335h-0.703V38.511z"/>
	<path style="fill:#909090;" d="M241.33,39.231c0.008,0.24-0.168,0.432-0.447,0.432c-0.248,0-0.424-0.192-0.424-0.432
		c0-0.248,0.184-0.44,0.439-0.44C241.162,38.791,241.33,38.983,241.33,39.231z M240.547,44.188v-3.87h0.703v3.87H240.547z"/>
	<path style="fill:#909090;" d="M242.419,41.582c0-0.496-0.017-0.896-0.032-1.264h0.632l0.032,0.664h0.016
		c0.288-0.472,0.743-0.752,1.375-0.752c0.936,0,1.64,0.792,1.64,1.967c0,1.391-0.848,2.079-1.76,2.079
		c-0.512,0-0.959-0.224-1.191-0.607h-0.016v2.103h-0.695V41.582z M243.114,42.613c0,0.104,0.016,0.2,0.032,0.288
		c0.128,0.487,0.552,0.823,1.055,0.823c0.744,0,1.176-0.607,1.176-1.495c0-0.775-0.408-1.439-1.151-1.439
		c-0.479,0-0.928,0.344-1.063,0.872c-0.023,0.088-0.048,0.191-0.048,0.288V42.613z"/>
</g>
<path style="fill-rule:evenodd;clip-rule:evenodd;fill:#909090;" d="M382.77,42.397l-3.503,3.503c-0.224,0.223-0.585,0.223-0.807,0
	c-0.223-0.222-0.223-0.584,0-0.806l3.099-3.1l-3.099-3.1c-0.223-0.222-0.223-0.583,0-0.806c0.107-0.108,0.247-0.164,0.388-0.167
	h0.031c0.141,0.003,0.28,0.059,0.388,0.167l3.503,3.503c0.111,0.111,0.167,0.257,0.167,0.403
	C382.937,42.14,382.881,42.286,382.77,42.397"/>
<path style="fill-rule:evenodd;clip-rule:evenodd;fill:#909090;" d="M1.44,34.768h63.57c0.792,0,1.44,0.648,1.44,1.44v11.22
	c0,0.792-0.648,1.44-1.44,1.44H1.44c-0.792,0-1.44-0.648-1.44-1.44v-11.22C0,35.416,0.648,34.768,1.44,34.768"/>
<g>
	<path style="fill:#FFFFFF;" d="M12.837,43.596h-0.798l-2.401-3.633v3.633H8.84v-4.872h0.798l2.401,3.626v-3.626h0.798V43.596z"/>
	<path style="fill:#FFFFFF;" d="M16.596,39.921c0.299,0.163,0.534,0.396,0.707,0.7c0.173,0.304,0.259,0.651,0.259,1.043
		s-0.089,0.74-0.266,1.043c-0.177,0.304-0.419,0.538-0.725,0.704s-0.643,0.249-1.011,0.249c-0.364,0-0.693-0.083-0.987-0.249
		s-0.525-0.399-0.693-0.7c-0.168-0.301-0.252-0.649-0.252-1.046c0-0.392,0.086-0.739,0.259-1.043c0.173-0.303,0.408-0.537,0.707-0.7
		c0.299-0.164,0.632-0.245,1.001-0.245S16.297,39.757,16.596,39.921z M15.014,40.498c-0.172,0.101-0.312,0.25-0.417,0.448
		s-0.157,0.438-0.157,0.717c0,0.28,0.05,0.521,0.15,0.721c0.1,0.201,0.235,0.351,0.406,0.452c0.17,0.1,0.358,0.15,0.564,0.15
		c0.205,0,0.397-0.051,0.577-0.154c0.18-0.103,0.326-0.253,0.438-0.451c0.112-0.198,0.168-0.438,0.168-0.718
		c0-0.28-0.054-0.519-0.161-0.717c-0.107-0.198-0.25-0.348-0.427-0.448c-0.177-0.1-0.369-0.15-0.574-0.15
		C15.375,40.348,15.187,40.398,15.014,40.498z"/>
	<path style="fill:#FFFFFF;" d="M23.725,38.986c0.38,0.212,0.68,0.507,0.899,0.885s0.329,0.805,0.329,1.281s-0.11,0.904-0.329,1.284
		c-0.219,0.38-0.519,0.677-0.899,0.889s-0.799,0.318-1.256,0.318c-0.453,0-0.869-0.106-1.25-0.318s-0.682-0.509-0.903-0.889
		c-0.222-0.38-0.333-0.808-0.333-1.284s0.111-0.903,0.333-1.281s0.523-0.673,0.903-0.885s0.797-0.319,1.25-0.319
		C22.926,38.668,23.345,38.774,23.725,38.986z M21.607,39.613c-0.252,0.145-0.449,0.35-0.591,0.616
		c-0.143,0.266-0.213,0.574-0.213,0.924s0.071,0.659,0.213,0.927c0.142,0.269,0.339,0.476,0.591,0.623s0.539,0.221,0.861,0.221
		c0.322,0,0.609-0.074,0.861-0.221s0.449-0.354,0.591-0.623c0.143-0.268,0.214-0.577,0.214-0.927s-0.071-0.658-0.214-0.924
		c-0.142-0.266-0.339-0.471-0.591-0.616s-0.539-0.217-0.861-0.217C22.146,39.396,21.859,39.468,21.607,39.613z"/>
	<path style="fill:#FFFFFF;" d="M31.128,39.739l-1.197,3.857h-0.84l-0.777-2.849l-0.777,2.849h-0.84l-1.204-3.857h0.812l0.805,3.101
		l0.819-3.101h0.833l0.784,3.087l0.798-3.087H31.128z"/>
	<path style="fill:#FFFFFF;" d="M34.792,39.865c0.227,0.126,0.406,0.313,0.539,0.56c0.133,0.247,0.2,0.546,0.2,0.896v2.275H34.74
		V41.44c0-0.346-0.086-0.61-0.259-0.795c-0.173-0.184-0.408-0.276-0.707-0.276s-0.535,0.092-0.71,0.276
		c-0.175,0.185-0.262,0.449-0.262,0.795v2.156h-0.798v-3.857h0.798v0.609c0.126-0.219,0.295-0.386,0.507-0.5
		s0.454-0.171,0.725-0.171C34.313,39.676,34.565,39.739,34.792,39.865z"/>
	<path style="fill:#FFFFFF;" d="M40.053,41.937h-2.954c0.019,0.322,0.127,0.578,0.325,0.767s0.447,0.284,0.746,0.284
		c0.434,0,0.74-0.18,0.917-0.539h0.861c-0.117,0.354-0.329,0.645-0.637,0.872c-0.308,0.226-0.688,0.339-1.141,0.339
		c-0.369,0-0.695-0.083-0.98-0.249s-0.507-0.399-0.668-0.7c-0.161-0.301-0.242-0.649-0.242-1.046c0-0.396,0.081-0.746,0.242-1.046
		s0.387-0.533,0.679-0.696c0.292-0.164,0.626-0.245,1.004-0.245c0.364,0,0.688,0.079,0.973,0.238
		c0.284,0.159,0.506,0.38,0.665,0.665s0.238,0.611,0.238,0.98C40.081,41.694,40.071,41.82,40.053,41.937z M39.248,41.391
		c-0.005-0.317-0.11-0.57-0.315-0.759c-0.206-0.189-0.46-0.284-0.763-0.284c-0.285,0-0.526,0.095-0.725,0.284
		s-0.312,0.442-0.339,0.759H39.248z"/>
	<path style="fill:#FFFFFF;" d="M42.198,39.868c0.193-0.128,0.423-0.192,0.689-0.192v0.826h-0.203c-0.313,0-0.549,0.08-0.71,0.238
		s-0.241,0.434-0.241,0.826v2.03h-0.798v-3.857h0.798v0.672C41.849,40.177,42.004,39.997,42.198,39.868z"/>
	<path style="fill:#FFFFFF;" d="M46.153,40.008c0.264,0.222,0.405,0.524,0.423,0.906h-0.819c-0.014-0.191-0.081-0.34-0.2-0.448
		c-0.119-0.107-0.286-0.161-0.5-0.161c-0.214,0-0.382,0.048-0.504,0.144c-0.121,0.096-0.182,0.218-0.182,0.368
		c0,0.121,0.04,0.219,0.119,0.294c0.08,0.075,0.181,0.132,0.305,0.171c0.124,0.04,0.291,0.083,0.5,0.129
		c0.285,0.065,0.514,0.131,0.689,0.196c0.175,0.065,0.326,0.171,0.452,0.318s0.189,0.346,0.189,0.599
		c0,0.219-0.064,0.415-0.193,0.588s-0.307,0.307-0.535,0.402c-0.229,0.096-0.488,0.144-0.777,0.144c-0.448,0-0.81-0.107-1.085-0.322
		c-0.275-0.215-0.427-0.521-0.455-0.917h0.826c0.014,0.191,0.084,0.34,0.21,0.448s0.294,0.161,0.504,0.161
		c0.224,0,0.4-0.048,0.529-0.144s0.192-0.221,0.192-0.375c0-0.126-0.041-0.227-0.123-0.301c-0.082-0.074-0.186-0.131-0.312-0.171
		c-0.126-0.04-0.296-0.083-0.511-0.129c-0.28-0.065-0.506-0.129-0.679-0.192s-0.321-0.165-0.444-0.305
		c-0.124-0.14-0.186-0.329-0.186-0.567c0-0.215,0.061-0.411,0.182-0.588c0.121-0.177,0.297-0.319,0.528-0.424
		s0.503-0.157,0.815-0.157C45.542,39.676,45.889,39.787,46.153,40.008z"/>
	<path style="fill:#FFFFFF;" d="M50.36,39.865c0.227,0.126,0.406,0.313,0.539,0.56c0.133,0.247,0.2,0.546,0.2,0.896v2.275h-0.791
		V41.44c0-0.346-0.086-0.61-0.259-0.795c-0.173-0.184-0.408-0.276-0.707-0.276s-0.535,0.092-0.71,0.276
		c-0.175,0.185-0.262,0.449-0.262,0.795v2.156H47.57v-5.18h0.798v1.932c0.126-0.219,0.295-0.386,0.507-0.5s0.454-0.171,0.725-0.171
		C49.88,39.676,50.133,39.739,50.36,39.865z"/>
	<path style="fill:#FFFFFF;" d="M52.365,38.353c0.098-0.098,0.219-0.147,0.364-0.147c0.14,0,0.259,0.049,0.357,0.147
		c0.098,0.098,0.147,0.22,0.147,0.364s-0.049,0.266-0.147,0.364c-0.098,0.098-0.217,0.147-0.357,0.147
		c-0.145,0-0.266-0.049-0.364-0.147c-0.098-0.098-0.147-0.219-0.147-0.364S52.268,38.451,52.365,38.353z M53.122,39.739v3.857
		h-0.798v-3.857H53.122z"/>
	<path style="fill:#FFFFFF;" d="M57.233,39.924c0.278,0.166,0.496,0.398,0.655,0.696c0.158,0.299,0.238,0.642,0.238,1.029
		c0,0.387-0.08,0.734-0.238,1.039c-0.159,0.306-0.377,0.544-0.655,0.714s-0.584,0.255-0.92,0.255c-0.303,0-0.569-0.071-0.798-0.213
		c-0.229-0.143-0.411-0.333-0.546-0.571v2.555h-0.798v-5.691h0.798v0.686c0.13-0.224,0.311-0.405,0.542-0.542
		c0.231-0.138,0.498-0.207,0.801-0.207C56.649,39.676,56.956,39.759,57.233,39.924z M55.567,40.523
		c-0.18,0.103-0.324,0.252-0.434,0.448c-0.109,0.196-0.164,0.427-0.164,0.693s0.055,0.499,0.164,0.697
		c0.11,0.198,0.254,0.349,0.434,0.451c0.18,0.103,0.37,0.154,0.571,0.154c0.205,0,0.397-0.053,0.577-0.158s0.324-0.258,0.434-0.458
		s0.165-0.434,0.165-0.7c0-0.266-0.055-0.496-0.165-0.69c-0.11-0.193-0.254-0.34-0.434-0.441c-0.18-0.1-0.372-0.15-0.577-0.15
		C55.938,40.369,55.747,40.42,55.567,40.523z"/>
</g>
<path style="fill-rule:evenodd;clip-rule:evenodd;fill:#909090;" d="M390.421,34.768h53.49c0.792,0,1.44,0.65,1.44,1.44v11.22
	c0,0.79-0.65,1.44-1.44,1.44h-53.49c-0.79,0-1.44-0.648-1.44-1.44v-11.22C388.981,35.416,389.629,34.768,390.421,34.768"/>
<g>
	<path style="fill:#FFFFFF;" d="M401.959,38.986c0.38,0.212,0.68,0.507,0.899,0.885c0.219,0.378,0.328,0.805,0.328,1.281
		s-0.109,0.904-0.328,1.284c-0.22,0.38-0.52,0.677-0.899,0.889c-0.381,0.212-0.8,0.318-1.257,0.318c-0.453,0-0.869-0.106-1.25-0.318
		c-0.38-0.212-0.681-0.509-0.902-0.889c-0.222-0.38-0.333-0.808-0.333-1.284s0.111-0.903,0.333-1.281s0.522-0.673,0.902-0.885
		c0.381-0.212,0.797-0.319,1.25-0.319C401.159,38.668,401.578,38.774,401.959,38.986z M399.841,39.613
		c-0.252,0.145-0.449,0.35-0.592,0.616c-0.142,0.266-0.213,0.574-0.213,0.924s0.071,0.659,0.213,0.927
		c0.143,0.269,0.34,0.476,0.592,0.623s0.539,0.221,0.861,0.221s0.608-0.074,0.861-0.221c0.252-0.147,0.448-0.354,0.591-0.623
		c0.143-0.268,0.214-0.577,0.214-0.927s-0.071-0.658-0.214-0.924c-0.143-0.266-0.339-0.471-0.591-0.616
		c-0.253-0.145-0.539-0.217-0.861-0.217S400.093,39.468,399.841,39.613z"/>
	<path style="fill:#FFFFFF;" d="M409.361,39.739l-1.197,3.857h-0.84l-0.777-2.849l-0.776,2.849h-0.84l-1.204-3.857h0.812
		l0.805,3.101l0.819-3.101h0.833l0.784,3.087l0.798-3.087H409.361z"/>
	<path style="fill:#FFFFFF;" d="M413.025,39.865c0.227,0.126,0.406,0.313,0.539,0.56c0.133,0.247,0.199,0.546,0.199,0.896v2.275
		h-0.791V41.44c0-0.346-0.086-0.61-0.259-0.795c-0.173-0.184-0.408-0.276-0.707-0.276s-0.535,0.092-0.71,0.276
		c-0.176,0.185-0.263,0.449-0.263,0.795v2.156h-0.798v-3.857h0.798v0.609c0.126-0.219,0.295-0.386,0.507-0.5
		c0.213-0.114,0.454-0.171,0.725-0.171C412.546,39.676,412.799,39.739,413.025,39.865z"/>
	<path style="fill:#FFFFFF;" d="M418.286,41.937h-2.954c0.019,0.322,0.127,0.578,0.325,0.767s0.447,0.284,0.746,0.284
		c0.434,0,0.739-0.18,0.917-0.539h0.86c-0.116,0.354-0.329,0.645-0.637,0.872c-0.308,0.226-0.688,0.339-1.141,0.339
		c-0.369,0-0.696-0.083-0.98-0.249s-0.508-0.399-0.668-0.7c-0.161-0.301-0.242-0.649-0.242-1.046c0-0.396,0.081-0.746,0.242-1.046
		c0.16-0.301,0.387-0.533,0.679-0.696c0.291-0.164,0.626-0.245,1.004-0.245c0.364,0,0.688,0.079,0.974,0.238
		c0.284,0.159,0.506,0.38,0.665,0.665c0.158,0.285,0.237,0.611,0.237,0.98C418.313,41.694,418.305,41.82,418.286,41.937z
		 M417.48,41.391c-0.004-0.317-0.109-0.57-0.314-0.759s-0.46-0.284-0.763-0.284c-0.285,0-0.526,0.095-0.725,0.284
		s-0.312,0.442-0.34,0.759H417.48z"/>
	<path style="fill:#FFFFFF;" d="M420.431,39.868c0.194-0.128,0.424-0.192,0.689-0.192v0.826h-0.202c-0.313,0-0.55,0.08-0.711,0.238
		s-0.241,0.434-0.241,0.826v2.03h-0.798v-3.857h0.798v0.672C420.082,40.177,420.237,39.997,420.431,39.868z"/>
	<path style="fill:#FFFFFF;" d="M424.386,40.008c0.264,0.222,0.405,0.524,0.424,0.906h-0.819c-0.014-0.191-0.08-0.34-0.199-0.448
		s-0.286-0.161-0.5-0.161c-0.215,0-0.383,0.048-0.504,0.144c-0.122,0.096-0.183,0.218-0.183,0.368c0,0.121,0.04,0.219,0.119,0.294
		s0.181,0.132,0.305,0.171c0.123,0.04,0.29,0.083,0.5,0.129c0.285,0.065,0.515,0.131,0.689,0.196
		c0.176,0.065,0.326,0.171,0.452,0.318s0.188,0.346,0.188,0.599c0,0.219-0.063,0.415-0.192,0.588
		c-0.128,0.173-0.307,0.307-0.535,0.402s-0.488,0.144-0.777,0.144c-0.448,0-0.81-0.107-1.085-0.322
		c-0.275-0.215-0.427-0.521-0.455-0.917h0.826c0.014,0.191,0.084,0.34,0.21,0.448s0.294,0.161,0.504,0.161
		c0.225,0,0.4-0.048,0.528-0.144c0.129-0.096,0.192-0.221,0.192-0.375c0-0.126-0.04-0.227-0.122-0.301
		c-0.082-0.074-0.186-0.131-0.312-0.171c-0.126-0.04-0.296-0.083-0.511-0.129c-0.28-0.065-0.507-0.129-0.679-0.192
		c-0.173-0.063-0.321-0.165-0.445-0.305c-0.123-0.14-0.186-0.329-0.186-0.567c0-0.215,0.061-0.411,0.183-0.588
		c0.121-0.177,0.297-0.319,0.528-0.424c0.23-0.105,0.503-0.157,0.815-0.157C423.776,39.676,424.122,39.787,424.386,40.008z"/>
	<path style="fill:#FFFFFF;" d="M428.593,39.865c0.227,0.126,0.406,0.313,0.539,0.56c0.133,0.247,0.199,0.546,0.199,0.896v2.275
		h-0.791V41.44c0-0.346-0.086-0.61-0.259-0.795c-0.173-0.184-0.408-0.276-0.707-0.276s-0.535,0.092-0.71,0.276
		c-0.176,0.185-0.263,0.449-0.263,0.795v2.156h-0.798v-5.18h0.798v1.932c0.126-0.219,0.295-0.386,0.507-0.5
		c0.213-0.114,0.454-0.171,0.725-0.171C428.113,39.676,428.366,39.739,428.593,39.865z"/>
	<path style="fill:#FFFFFF;" d="M430.599,38.353c0.098-0.098,0.219-0.147,0.363-0.147c0.141,0,0.26,0.049,0.357,0.147
		c0.098,0.098,0.146,0.22,0.146,0.364s-0.049,0.266-0.146,0.364c-0.098,0.098-0.217,0.147-0.357,0.147
		c-0.145,0-0.266-0.049-0.363-0.147c-0.099-0.098-0.147-0.219-0.147-0.364S430.5,38.451,430.599,38.353z M431.354,39.739v3.857
		h-0.798v-3.857H431.354z"/>
	<path style="fill:#FFFFFF;" d="M435.468,39.924c0.277,0.166,0.495,0.398,0.654,0.696c0.158,0.299,0.238,0.642,0.238,1.029
		c0,0.387-0.08,0.734-0.238,1.039c-0.159,0.306-0.377,0.544-0.654,0.714c-0.278,0.17-0.585,0.255-0.921,0.255
		c-0.304,0-0.569-0.071-0.798-0.213c-0.229-0.143-0.411-0.333-0.546-0.571v2.555h-0.798v-5.691h0.798v0.686
		c0.13-0.224,0.312-0.405,0.542-0.542c0.231-0.138,0.498-0.207,0.802-0.207C434.883,39.676,435.189,39.759,435.468,39.924z
		 M433.802,40.523c-0.18,0.103-0.325,0.252-0.435,0.448s-0.164,0.427-0.164,0.693s0.055,0.499,0.164,0.697s0.255,0.349,0.435,0.451
		c0.18,0.103,0.369,0.154,0.57,0.154c0.205,0,0.397-0.053,0.577-0.158s0.324-0.258,0.435-0.458c0.109-0.201,0.164-0.434,0.164-0.7
		c0-0.266-0.055-0.496-0.164-0.69c-0.11-0.193-0.255-0.34-0.435-0.441c-0.18-0.1-0.372-0.15-0.577-0.15
		C434.171,40.369,433.981,40.42,433.802,40.523z"/>
</g>
<path style="fill:#909090;" d="M77.736,166.156v-0.78h-3.99v0.78H77.736z M84.589,166.156v-0.78h-3.99v0.78H84.589z M91.443,166.156
	v-0.78h-3.991v0.78H91.443z M98.296,166.156v-0.78h-3.99v0.78H98.296z M105.148,166.156v-0.78h-3.99v0.78H105.148z M112.003,166.156
	v-0.78h-3.991v0.78H112.003z M118.855,166.156v-0.78h-3.99v0.78H118.855z M125.708,166.156v-0.78h-3.99v0.78H125.708z
	 M132.561,166.156v-0.78h-3.99v0.78H132.561z M139.415,166.156v-0.78h-3.99v0.78H139.415z M146.268,166.156v-0.78h-3.99v0.78
	H146.268z M153.121,166.156v-0.78h-3.99v0.78H153.121z M159.975,166.156v-0.78h-3.99v0.78H159.975z M166.828,166.156v-0.78h-3.99
	v0.78H166.828z M283.334,166.156v-0.78h-3.989v0.78H283.334z M290.188,166.156v-0.78h-3.99v0.78H290.188z M297.041,166.156v-0.78
	h-3.99v0.78H297.041z M303.894,166.156v-0.78h-3.99v0.78H303.894z M310.748,166.156v-0.78h-3.99v0.78H310.748z M317.601,166.156
	v-0.78h-3.99v0.78H317.601z M324.454,166.156v-0.78h-3.99v0.78H324.454z M331.308,166.156v-0.78h-3.99v0.78H331.308z
	 M338.161,166.156v-0.78h-3.99v0.78H338.161z M345.014,166.156v-0.78h-3.99v0.78H345.014z M351.868,166.156v-0.78h-3.99v0.78
	H351.868z M358.721,166.156v-0.78h-3.99v0.78H358.721z M365.574,166.156v-0.78h-3.99v0.78H365.574z M372.428,166.156v-0.78h-3.99
	v0.78H372.428z M379.281,166.156v-0.78h-3.99v0.78H379.281z M386.134,166.156v-0.78h-3.99v0.78H386.134z M392.988,166.156v-0.78
	h-3.99v0.78H392.988z M399.841,166.156v-0.78h-3.99v0.78H399.841z"/>
<g>
	<path style="fill:#909090;" d="M171.13,162.581v5.389h-0.696v-5.389H171.13z"/>
	<path style="fill:#909090;" d="M172.499,165.147c0-0.4-0.008-0.728-0.032-1.048h0.624l0.04,0.64h0.016
		c0.192-0.367,0.64-0.728,1.279-0.728c0.536,0,1.367,0.32,1.367,1.647v2.311h-0.704v-2.23c0-0.624-0.232-1.144-0.896-1.144
		c-0.464,0-0.824,0.328-0.943,0.72c-0.032,0.088-0.048,0.208-0.048,0.327v2.327h-0.704V165.147z"/>
	<path style="fill:#909090;" d="M177.155,164.099l0.76,2.175c0.128,0.352,0.232,0.672,0.312,0.992h0.024
		c0.088-0.32,0.2-0.641,0.328-0.992l0.751-2.175h0.736l-1.52,3.87h-0.671l-1.471-3.87H177.155z"/>
	<path style="fill:#909090;" d="M181.123,166.163c0.016,0.951,0.624,1.343,1.327,1.343c0.504,0,0.808-0.088,1.071-0.2l0.12,0.504
		c-0.248,0.112-0.672,0.24-1.288,0.24c-1.191,0-1.903-0.783-1.903-1.951c0-1.167,0.688-2.087,1.815-2.087
		c1.264,0,1.599,1.111,1.599,1.823c0,0.144-0.016,0.256-0.024,0.328H181.123z M183.186,165.659c0.008-0.448-0.184-1.144-0.976-1.144
		c-0.712,0-1.023,0.655-1.08,1.144H183.186z"/>
	<path style="fill:#909090;" d="M184.755,167.25c0.208,0.136,0.576,0.28,0.927,0.28c0.512,0,0.752-0.256,0.752-0.576
		c0-0.336-0.2-0.52-0.72-0.711c-0.696-0.248-1.023-0.632-1.023-1.096c0-0.624,0.503-1.136,1.335-1.136
		c0.392,0,0.735,0.112,0.951,0.24l-0.176,0.512c-0.152-0.096-0.432-0.224-0.792-0.224c-0.416,0-0.648,0.239-0.648,0.527
		c0,0.319,0.232,0.464,0.736,0.655c0.671,0.256,1.015,0.592,1.015,1.168c0,0.68-0.527,1.159-1.447,1.159
		c-0.424,0-0.816-0.104-1.087-0.264L184.755,167.25z"/>
	<path style="fill:#909090;" d="M188.962,162.988v1.111h1.007v0.536h-1.007v2.087c0,0.479,0.136,0.751,0.528,0.751
		c0.184,0,0.32-0.023,0.408-0.048l0.032,0.528c-0.136,0.056-0.352,0.096-0.624,0.096c-0.328,0-0.592-0.104-0.759-0.296
		c-0.2-0.208-0.272-0.552-0.272-1.008v-2.11h-0.6v-0.536h0.6v-0.927L188.962,162.988z"/>
	<path style="fill:#909090;" d="M194.361,166.003c0,1.431-0.992,2.055-1.927,2.055c-1.047,0-1.855-0.768-1.855-1.991
		c0-1.295,0.848-2.055,1.919-2.055C193.609,164.011,194.361,164.819,194.361,166.003z M191.291,166.043
		c0,0.848,0.488,1.487,1.175,1.487c0.671,0,1.175-0.632,1.175-1.504c0-0.655-0.328-1.486-1.16-1.486
		C191.65,164.54,191.291,165.307,191.291,166.043z"/>
	<path style="fill:#909090;" d="M195.25,165.307c0-0.456-0.008-0.848-0.032-1.208h0.616l0.024,0.76h0.032
		c0.176-0.52,0.6-0.848,1.072-0.848c0.08,0,0.136,0.008,0.2,0.024v0.663c-0.072-0.016-0.144-0.023-0.24-0.023
		c-0.496,0-0.848,0.376-0.943,0.903c-0.016,0.096-0.032,0.208-0.032,0.328v2.063h-0.696V165.307z"/>
	<path style="fill:#909090;" d="M203.352,167.794c-0.256,0.128-0.768,0.256-1.423,0.256c-1.519,0-2.662-0.96-2.662-2.727
		c0-1.688,1.143-2.83,2.814-2.83c0.671,0,1.095,0.144,1.279,0.239l-0.168,0.567c-0.264-0.127-0.64-0.224-1.087-0.224
		c-1.264,0-2.103,0.808-2.103,2.223c0,1.319,0.76,2.167,2.071,2.167c0.424,0,0.855-0.088,1.135-0.224L203.352,167.794z"/>
	<path style="fill:#909090;" d="M204.202,162.293h0.704v5.677h-0.704V162.293z"/>
	<path style="fill:#909090;" d="M208.233,167.969l-0.056-0.487h-0.024c-0.216,0.304-0.631,0.575-1.183,0.575
		c-0.784,0-1.184-0.552-1.184-1.111c0-0.936,0.832-1.447,2.327-1.439v-0.08c0-0.319-0.088-0.896-0.879-0.896
		c-0.36,0-0.735,0.112-1.007,0.288l-0.16-0.464c0.32-0.208,0.784-0.344,1.271-0.344c1.183,0,1.471,0.808,1.471,1.583v1.447
		c0,0.336,0.016,0.664,0.064,0.928H208.233z M208.129,165.995c-0.768-0.017-1.639,0.119-1.639,0.871
		c0,0.456,0.304,0.672,0.664,0.672c0.504,0,0.824-0.32,0.936-0.647c0.024-0.072,0.04-0.152,0.04-0.225V165.995z"/>
	<path style="fill:#909090;" d="M210.729,163.012c0.008,0.239-0.168,0.432-0.448,0.432c-0.248,0-0.424-0.192-0.424-0.432
		c0-0.248,0.184-0.44,0.44-0.44C210.562,162.572,210.729,162.764,210.729,163.012z M209.946,167.969v-3.87h0.704v3.87H209.946z"/>
	<path style="fill:#909090;" d="M211.818,165.147c0-0.4-0.008-0.728-0.032-1.048h0.616l0.032,0.624h0.024
		c0.216-0.368,0.576-0.712,1.215-0.712c0.528,0,0.928,0.32,1.096,0.775h0.016c0.12-0.216,0.272-0.384,0.432-0.503
		c0.232-0.177,0.488-0.272,0.855-0.272c0.512,0,1.271,0.336,1.271,1.68v2.278h-0.688v-2.19c0-0.744-0.271-1.191-0.839-1.191
		c-0.4,0-0.711,0.296-0.832,0.64c-0.032,0.096-0.056,0.224-0.056,0.352v2.391h-0.688v-2.318c0-0.616-0.272-1.063-0.808-1.063
		c-0.44,0-0.759,0.352-0.872,0.703c-0.04,0.104-0.056,0.224-0.056,0.344v2.335h-0.688V165.147z"/>
	<path style="fill:#909090;" d="M223.688,166.003c0,1.431-0.992,2.055-1.927,2.055c-1.047,0-1.855-0.768-1.855-1.991
		c0-1.295,0.848-2.055,1.919-2.055C222.937,164.011,223.688,164.819,223.688,166.003z M220.618,166.043
		c0,0.848,0.487,1.487,1.175,1.487c0.671,0,1.175-0.632,1.175-1.504c0-0.655-0.328-1.486-1.159-1.486
		C220.978,164.54,220.618,165.307,220.618,166.043z"/>
	<path style="fill:#909090;" d="M224.578,165.147c0-0.4-0.008-0.728-0.032-1.048h0.624l0.039,0.64h0.017
		c0.191-0.367,0.64-0.728,1.279-0.728c0.535,0,1.367,0.32,1.367,1.647v2.311h-0.704v-2.23c0-0.624-0.231-1.144-0.896-1.144
		c-0.463,0-0.823,0.328-0.943,0.72c-0.031,0.088-0.048,0.208-0.048,0.327v2.327h-0.703V165.147z"/>
	<path style="fill:#909090;" d="M231.609,166.274l-0.56,1.695h-0.72l1.831-5.389H233l1.839,5.389h-0.743l-0.576-1.695H231.609z
		 M233.376,165.731l-0.527-1.552c-0.12-0.352-0.2-0.672-0.28-0.983h-0.016c-0.08,0.32-0.168,0.647-0.272,0.976l-0.527,1.56H233.376z
		"/>
	<path style="fill:#909090;" d="M235.514,167.25c0.208,0.136,0.576,0.28,0.928,0.28c0.512,0,0.752-0.256,0.752-0.576
		c0-0.336-0.2-0.52-0.72-0.711c-0.695-0.248-1.023-0.632-1.023-1.096c0-0.624,0.504-1.136,1.335-1.136
		c0.392,0,0.736,0.112,0.952,0.24l-0.177,0.512c-0.151-0.096-0.432-0.224-0.791-0.224c-0.416,0-0.647,0.239-0.647,0.527
		c0,0.319,0.231,0.464,0.735,0.655c0.672,0.256,1.016,0.592,1.016,1.168c0,0.68-0.528,1.159-1.447,1.159
		c-0.424,0-0.815-0.104-1.088-0.264L235.514,167.25z"/>
	<path style="fill:#909090;" d="M238.682,167.25c0.208,0.136,0.576,0.28,0.928,0.28c0.512,0,0.752-0.256,0.752-0.576
		c0-0.336-0.2-0.52-0.72-0.711c-0.695-0.248-1.023-0.632-1.023-1.096c0-0.624,0.504-1.136,1.335-1.136
		c0.392,0,0.736,0.112,0.952,0.24l-0.177,0.512c-0.151-0.096-0.432-0.224-0.791-0.224c-0.416,0-0.647,0.239-0.647,0.527
		c0,0.319,0.231,0.464,0.735,0.655c0.672,0.256,1.016,0.592,1.016,1.168c0,0.68-0.528,1.159-1.447,1.159
		c-0.424,0-0.815-0.104-1.088-0.264L238.682,167.25z"/>
	<path style="fill:#909090;" d="M242.338,166.163c0.016,0.951,0.623,1.343,1.327,1.343c0.504,0,0.808-0.088,1.071-0.2l0.12,0.504
		c-0.248,0.112-0.672,0.24-1.287,0.24c-1.191,0-1.903-0.783-1.903-1.951c0-1.167,0.688-2.087,1.815-2.087
		c1.263,0,1.599,1.111,1.599,1.823c0,0.144-0.016,0.256-0.023,0.328H242.338z M244.4,165.659c0.008-0.448-0.184-1.144-0.976-1.144
		c-0.711,0-1.023,0.655-1.079,1.144H244.4z"/>
	<path style="fill:#909090;" d="M246.802,162.988v1.111h1.007v0.536h-1.007v2.087c0,0.479,0.136,0.751,0.527,0.751
		c0.184,0,0.319-0.023,0.407-0.048l0.032,0.528c-0.136,0.056-0.352,0.096-0.623,0.096c-0.328,0-0.592-0.104-0.76-0.296
		c-0.2-0.208-0.272-0.552-0.272-1.008v-2.11h-0.6v-0.536h0.6v-0.927L246.802,162.988z"/>
	<path style="fill:#909090;" d="M248.505,167.25c0.208,0.136,0.576,0.28,0.928,0.28c0.512,0,0.752-0.256,0.752-0.576
		c0-0.336-0.2-0.52-0.72-0.711c-0.695-0.248-1.023-0.632-1.023-1.096c0-0.624,0.504-1.136,1.335-1.136
		c0.392,0,0.735,0.112,0.952,0.24l-0.177,0.512c-0.151-0.096-0.432-0.224-0.791-0.224c-0.416,0-0.647,0.239-0.647,0.527
		c0,0.319,0.231,0.464,0.735,0.655c0.672,0.256,1.016,0.592,1.016,1.168c0,0.68-0.528,1.159-1.447,1.159
		c-0.424,0-0.815-0.104-1.088-0.264L248.505,167.25z"/>
</g>
<path style="fill-rule:evenodd;clip-rule:evenodd;fill:#909090;" d="M52.72,166.178l3.503,3.503c0.223,0.223,0.585,0.223,0.807,0
	c0.223-0.223,0.223-0.584,0-0.806l-3.099-3.1l3.099-3.1c0.223-0.222,0.223-0.583,0-0.806c-0.107-0.108-0.247-0.164-0.388-0.168
	h-0.031c-0.141,0.004-0.28,0.06-0.388,0.168l-3.503,3.503c-0.111,0.111-0.167,0.257-0.167,0.403S52.609,166.068,52.72,166.178"/>
<path style="fill-rule:evenodd;clip-rule:evenodd;fill:#909090;" d="M1.44,158.549h44.85c0.792,0,1.44,0.652,1.44,1.44v11.22
	c0,0.788-0.652,1.44-1.44,1.44H1.44c-0.788,0-1.44-0.648-1.44-1.44v-11.22C0,159.197,0.648,158.549,1.44,158.549"/>
<g>
	<path style="fill:#FFFFFF;" d="M19.693,163.397v0.623h-2.065v1.478h1.61v0.615h-1.61v2.149H16.83v-4.865H19.693z"/>
	<path style="fill:#FFFFFF;" d="M20.687,163.019c0.098-0.098,0.219-0.146,0.364-0.146c0.14,0,0.259,0.049,0.357,0.146
		c0.098,0.099,0.147,0.22,0.147,0.364s-0.049,0.266-0.147,0.364c-0.098,0.098-0.217,0.146-0.357,0.146
		c-0.145,0-0.266-0.049-0.364-0.146c-0.098-0.099-0.147-0.22-0.147-0.364S20.589,163.118,20.687,163.019z M21.443,164.405v3.857
		h-0.798v-3.857H21.443z"/>
	<path style="fill:#FFFFFF;" d="M23.967,164.535c0.193-0.128,0.423-0.192,0.689-0.192v0.826h-0.203c-0.313,0-0.549,0.079-0.71,0.237
		c-0.161,0.159-0.241,0.435-0.241,0.826v2.03h-0.798v-3.857h0.798v0.673C23.618,164.844,23.773,164.664,23.967,164.535z"/>
	<path style="fill:#FFFFFF;" d="M27.992,164.674c0.264,0.222,0.405,0.524,0.423,0.907h-0.819c-0.014-0.191-0.081-0.341-0.2-0.448
		c-0.119-0.107-0.286-0.161-0.5-0.161c-0.214,0-0.382,0.048-0.504,0.144c-0.121,0.096-0.182,0.218-0.182,0.367
		c0,0.122,0.04,0.22,0.119,0.294c0.08,0.075,0.181,0.132,0.305,0.172c0.124,0.04,0.291,0.083,0.5,0.13
		c0.285,0.065,0.514,0.13,0.689,0.195c0.175,0.065,0.326,0.172,0.452,0.318c0.126,0.147,0.189,0.347,0.189,0.599
		c0,0.22-0.064,0.416-0.193,0.588c-0.128,0.173-0.307,0.308-0.535,0.403c-0.229,0.095-0.488,0.144-0.777,0.144
		c-0.448,0-0.81-0.107-1.085-0.322s-0.427-0.521-0.455-0.917h0.826c0.014,0.191,0.084,0.341,0.21,0.448s0.294,0.16,0.504,0.16
		c0.224,0,0.4-0.048,0.529-0.144c0.128-0.095,0.192-0.22,0.192-0.374c0-0.126-0.041-0.227-0.123-0.301
		c-0.082-0.075-0.186-0.132-0.312-0.172c-0.126-0.039-0.296-0.083-0.511-0.129c-0.28-0.065-0.506-0.13-0.679-0.193
		c-0.173-0.063-0.321-0.164-0.444-0.304c-0.124-0.141-0.186-0.329-0.186-0.567c0-0.215,0.061-0.41,0.182-0.588
		c0.121-0.178,0.297-0.318,0.528-0.424c0.231-0.104,0.503-0.157,0.815-0.157C27.381,164.342,27.728,164.453,27.992,164.674z"/>
	<path style="fill:#FFFFFF;" d="M30.48,165.056v2.135c0,0.145,0.034,0.249,0.102,0.312c0.067,0.063,0.183,0.095,0.346,0.095h0.49
		v0.665h-0.63c-0.359,0-0.635-0.084-0.826-0.252s-0.287-0.441-0.287-0.819v-2.135H29.22v-0.651h0.455v-0.959h0.805v0.959h0.938
		v0.651H30.48z"/>
</g>
<path style="fill-rule:evenodd;clip-rule:evenodd;fill:#909090;" d="M405.541,158.549h38.37c0.792,0,1.44,0.655,1.44,1.44v11.22
	c0,0.785-0.655,1.44-1.44,1.44h-38.37c-0.785,0-1.44-0.648-1.44-1.44v-11.22C404.101,159.197,404.749,158.549,405.541,158.549"/>
<g>
	<path style="fill:#FFFFFF;" d="M418.738,167.39h1.645V168h-2.442v-4.865h0.798V167.39z"/>
	<path style="fill:#FFFFFF;" d="M423.614,164.286c0.23,0.138,0.409,0.319,0.535,0.543v-0.687h0.805V168h-0.805v-0.721
		c-0.131,0.237-0.311,0.428-0.539,0.57s-0.495,0.214-0.798,0.214c-0.336,0-0.643-0.086-0.921-0.256
		c-0.277-0.171-0.497-0.408-0.657-0.714c-0.161-0.306-0.242-0.652-0.242-1.04c0-0.387,0.081-0.73,0.242-1.028
		c0.16-0.299,0.38-0.531,0.657-0.697c0.278-0.165,0.585-0.248,0.921-0.248C423.115,164.08,423.383,164.148,423.614,164.286z
		 M422.406,164.923c-0.178,0.1-0.32,0.247-0.431,0.44c-0.109,0.194-0.164,0.424-0.164,0.689c0,0.267,0.055,0.5,0.164,0.7
		c0.11,0.201,0.255,0.354,0.435,0.459c0.18,0.104,0.369,0.157,0.57,0.157c0.205,0,0.396-0.052,0.574-0.154
		c0.177-0.103,0.32-0.253,0.431-0.451c0.109-0.198,0.164-0.431,0.164-0.696c0-0.267-0.055-0.497-0.164-0.693
		c-0.11-0.196-0.254-0.346-0.431-0.448c-0.178-0.103-0.369-0.153-0.574-0.153S422.584,164.823,422.406,164.923z"/>
	<path style="fill:#FFFFFF;" d="M428.604,164.412c0.264,0.222,0.405,0.524,0.424,0.907h-0.819c-0.014-0.191-0.08-0.341-0.199-0.448
		s-0.286-0.161-0.5-0.161c-0.215,0-0.383,0.048-0.504,0.144c-0.122,0.096-0.183,0.218-0.183,0.367c0,0.122,0.04,0.22,0.119,0.294
		c0.079,0.075,0.181,0.132,0.305,0.172c0.123,0.04,0.29,0.083,0.5,0.13c0.285,0.065,0.515,0.13,0.689,0.195
		c0.176,0.065,0.326,0.172,0.452,0.318c0.126,0.147,0.188,0.347,0.188,0.599c0,0.22-0.063,0.416-0.192,0.588
		c-0.128,0.173-0.307,0.308-0.535,0.403c-0.229,0.095-0.488,0.144-0.777,0.144c-0.448,0-0.81-0.107-1.085-0.322
		s-0.427-0.521-0.455-0.917h0.826c0.014,0.191,0.084,0.341,0.21,0.448s0.294,0.16,0.504,0.16c0.225,0,0.4-0.048,0.528-0.144
		c0.129-0.095,0.192-0.22,0.192-0.374c0-0.126-0.04-0.227-0.122-0.301c-0.082-0.075-0.186-0.132-0.312-0.172
		c-0.126-0.039-0.296-0.083-0.511-0.129c-0.28-0.065-0.507-0.13-0.679-0.193c-0.173-0.063-0.321-0.164-0.445-0.304
		c-0.123-0.141-0.186-0.329-0.186-0.567c0-0.215,0.061-0.41,0.183-0.588c0.121-0.178,0.297-0.318,0.528-0.424
		c0.23-0.104,0.503-0.157,0.815-0.157C427.994,164.08,428.34,164.19,428.604,164.412z"/>
	<path style="fill:#FFFFFF;" d="M431.093,164.794v2.135c0,0.145,0.034,0.249,0.102,0.312c0.067,0.063,0.183,0.095,0.347,0.095h0.489
		V168h-0.63c-0.359,0-0.635-0.084-0.825-0.252c-0.191-0.168-0.287-0.441-0.287-0.819v-2.135h-0.455v-0.651h0.455v-0.959h0.805v0.959
		h0.938v0.651H431.093z"/>
</g>
<path style="fill:#909090;" d="M57.884,166.155v-0.78h-3.99v0.78H57.884z M64.738,166.155v-0.78h-3.99v0.78H64.738z M71.591,166.155
	v-0.78h-3.99v0.78H71.591z"/>
<rect x="70.526" y="84.287" style="fill-rule:evenodd;clip-rule:evenodd;fill:#00AFD8;" width="0.998" height="11.1"/>
<g>
	<path style="fill:#179BCB;" d="M281.021,79.968c-0.152,0.251-0.375,0.454-0.668,0.608c-0.293,0.154-0.638,0.232-1.032,0.232
		c-0.57,0-1.037-0.136-1.399-0.408c-0.363-0.272-0.544-0.648-0.544-1.128h0.976c0.021,0.245,0.112,0.44,0.271,0.584
		c0.16,0.144,0.393,0.216,0.696,0.216c0.314,0,0.562-0.08,0.74-0.24s0.268-0.365,0.268-0.616c0-0.197-0.055-0.353-0.164-0.468
		s-0.246-0.203-0.411-0.264c-0.166-0.061-0.393-0.126-0.681-0.196c-0.362-0.085-0.656-0.175-0.88-0.268s-0.416-0.243-0.576-0.448
		c-0.16-0.205-0.239-0.484-0.239-0.836c0-0.32,0.079-0.603,0.239-0.848c0.16-0.246,0.384-0.435,0.672-0.568s0.619-0.2,0.992-0.2
		c0.544,0,0.982,0.128,1.316,0.384c0.333,0.256,0.519,0.627,0.556,1.112h-1.008c-0.021-0.213-0.112-0.392-0.272-0.536
		c-0.159-0.144-0.373-0.216-0.64-0.216c-0.277,0-0.501,0.069-0.672,0.208c-0.171,0.139-0.256,0.344-0.256,0.616
		c0,0.197,0.055,0.356,0.164,0.476s0.246,0.21,0.412,0.272c0.165,0.062,0.395,0.126,0.688,0.196
		c0.357,0.085,0.648,0.175,0.872,0.268s0.415,0.24,0.572,0.44c0.157,0.2,0.235,0.476,0.235,0.828
		C281.248,79.451,281.173,79.717,281.021,79.968z"/>
	<path style="fill:#179BCB;" d="M286.456,76.344v4.408h-0.912v-0.696c-0.144,0.25-0.337,0.44-0.58,0.568
		c-0.242,0.128-0.519,0.192-0.827,0.192c-0.32,0-0.609-0.072-0.868-0.216s-0.464-0.356-0.616-0.636
		c-0.152-0.28-0.229-0.62-0.229-1.02v-2.6h0.904v2.464c0,0.395,0.099,0.697,0.296,0.908c0.197,0.211,0.467,0.316,0.809,0.316
		c0.341,0,0.611-0.105,0.812-0.316c0.2-0.21,0.3-0.513,0.3-0.908v-2.464H286.456z"/>
	<path style="fill:#179BCB;" d="M291.156,76.556c0.317,0.189,0.567,0.455,0.748,0.796c0.182,0.341,0.272,0.733,0.272,1.176
		c0,0.443-0.091,0.839-0.272,1.188c-0.181,0.35-0.431,0.622-0.748,0.816c-0.317,0.195-0.668,0.292-1.052,0.292
		c-0.347,0-0.65-0.081-0.912-0.244c-0.261-0.163-0.469-0.38-0.624-0.652v0.824h-0.912v-5.92h0.912v2.296
		c0.149-0.256,0.356-0.462,0.62-0.62c0.265-0.157,0.569-0.236,0.916-0.236C290.488,76.272,290.839,76.367,291.156,76.556z
		 M289.253,77.24c-0.206,0.118-0.371,0.288-0.496,0.512c-0.126,0.224-0.188,0.488-0.188,0.792s0.063,0.569,0.188,0.796
		c0.125,0.227,0.29,0.399,0.496,0.516c0.205,0.117,0.422,0.176,0.651,0.176c0.235,0,0.455-0.06,0.66-0.18s0.371-0.295,0.496-0.524
		c0.125-0.229,0.188-0.496,0.188-0.8c0-0.304-0.063-0.566-0.188-0.788c-0.125-0.221-0.291-0.389-0.496-0.504
		s-0.425-0.172-0.66-0.172C289.675,77.064,289.458,77.123,289.253,77.24z"/>
	<path style="fill:#179BCB;" d="M296.177,76.552c0.341,0.187,0.61,0.454,0.808,0.8s0.296,0.744,0.296,1.192
		c0,0.448-0.102,0.845-0.304,1.192c-0.203,0.347-0.479,0.615-0.828,0.804s-0.734,0.284-1.156,0.284
		c-0.416,0-0.792-0.094-1.128-0.284s-0.6-0.456-0.792-0.8c-0.191-0.344-0.288-0.742-0.288-1.196c0-0.448,0.099-0.845,0.296-1.192
		s0.467-0.613,0.809-0.8c0.341-0.187,0.723-0.28,1.144-0.28C295.454,76.272,295.835,76.365,296.177,76.552z M294.368,77.212
		c-0.197,0.115-0.355,0.286-0.476,0.512s-0.18,0.5-0.18,0.82s0.057,0.595,0.172,0.824c0.114,0.229,0.269,0.401,0.464,0.516
		c0.194,0.115,0.409,0.172,0.644,0.172c0.235,0,0.455-0.059,0.66-0.176c0.205-0.117,0.372-0.289,0.5-0.516
		c0.128-0.227,0.192-0.5,0.192-0.82s-0.062-0.593-0.185-0.82c-0.122-0.227-0.285-0.397-0.487-0.512
		c-0.203-0.115-0.422-0.172-0.656-0.172C294.781,77.04,294.565,77.097,294.368,77.212z"/>
	<path style="fill:#179BCB;" d="M299.628,76.492c0.222-0.147,0.484-0.22,0.788-0.22v0.944h-0.232c-0.357,0-0.628,0.091-0.812,0.272
		c-0.185,0.182-0.276,0.496-0.276,0.944v2.32h-0.912v-4.408h0.912v0.768C299.229,76.845,299.406,76.639,299.628,76.492z"/>
	<path style="fill:#179BCB;" d="M303.948,76.508c0.264,0.158,0.468,0.364,0.612,0.62v-2.296h0.92v5.92h-0.92v-0.824
		c-0.149,0.272-0.355,0.49-0.616,0.652c-0.262,0.163-0.565,0.244-0.912,0.244c-0.384,0-0.734-0.097-1.052-0.292
		c-0.317-0.194-0.568-0.466-0.752-0.816c-0.185-0.349-0.276-0.745-0.276-1.188c0-0.442,0.092-0.834,0.276-1.176
		c0.184-0.341,0.435-0.607,0.752-0.796c0.317-0.189,0.668-0.284,1.052-0.284C303.379,76.272,303.685,76.351,303.948,76.508z
		 M302.568,77.236c-0.203,0.115-0.367,0.283-0.492,0.504c-0.125,0.222-0.188,0.484-0.188,0.788c0,0.304,0.063,0.571,0.188,0.8
		c0.125,0.229,0.291,0.404,0.496,0.524s0.423,0.18,0.652,0.18c0.234,0,0.453-0.059,0.655-0.176c0.203-0.117,0.367-0.289,0.492-0.516
		c0.125-0.227,0.188-0.492,0.188-0.796s-0.063-0.568-0.188-0.792s-0.289-0.395-0.492-0.512c-0.202-0.117-0.421-0.176-0.655-0.176
		C302.989,77.064,302.771,77.121,302.568,77.236z"/>
	<path style="fill:#179BCB;" d="M306.729,74.76c0.111-0.112,0.25-0.168,0.416-0.168c0.159,0,0.296,0.056,0.407,0.168
		c0.112,0.112,0.168,0.251,0.168,0.416c0,0.166-0.056,0.304-0.168,0.416c-0.111,0.112-0.248,0.168-0.407,0.168
		c-0.166,0-0.305-0.056-0.416-0.168c-0.112-0.112-0.168-0.25-0.168-0.416C306.561,75.011,306.616,74.872,306.729,74.76z
		 M307.592,76.344v4.408h-0.912v-4.408H307.592z"/>
	<path style="fill:#179BCB;" d="M311.98,76.488c0.259,0.144,0.464,0.357,0.616,0.64c0.151,0.283,0.228,0.624,0.228,1.024v2.6h-0.904
		v-2.464c0-0.395-0.099-0.697-0.296-0.908c-0.197-0.21-0.467-0.316-0.808-0.316c-0.342,0-0.612,0.105-0.813,0.316
		c-0.199,0.211-0.3,0.514-0.3,0.908v2.464h-0.912v-4.408h0.912v0.696c0.145-0.25,0.338-0.441,0.58-0.572
		c0.243-0.13,0.519-0.196,0.828-0.196C311.433,76.272,311.722,76.344,311.98,76.488z"/>
	<path style="fill:#179BCB;" d="M316.676,76.508c0.264,0.158,0.468,0.364,0.612,0.62v-0.784h0.92v4.408h-0.92v-0.824
		c-0.149,0.272-0.355,0.49-0.616,0.652c-0.262,0.163-0.565,0.244-0.912,0.244c-0.384,0-0.734-0.097-1.052-0.292
		c-0.317-0.194-0.568-0.466-0.752-0.816c-0.185-0.349-0.276-0.745-0.276-1.188c0-0.442,0.092-0.834,0.276-1.176
		c0.184-0.341,0.435-0.607,0.752-0.796c0.317-0.189,0.668-0.284,1.052-0.284C316.106,76.272,316.412,76.351,316.676,76.508z
		 M315.296,77.236c-0.203,0.115-0.367,0.283-0.492,0.504c-0.125,0.222-0.188,0.484-0.188,0.788c0,0.304,0.063,0.571,0.188,0.8
		c0.125,0.229,0.291,0.404,0.496,0.524s0.423,0.18,0.652,0.18c0.234,0,0.453-0.059,0.655-0.176c0.203-0.117,0.367-0.289,0.492-0.516
		c0.125-0.227,0.188-0.492,0.188-0.796s-0.063-0.568-0.188-0.792s-0.289-0.395-0.492-0.512c-0.202-0.117-0.421-0.176-0.655-0.176
		C315.717,77.064,315.498,77.121,315.296,77.236z"/>
	<path style="fill:#179BCB;" d="M320.472,77.088v2.44c0,0.166,0.038,0.284,0.116,0.356c0.077,0.072,0.209,0.108,0.396,0.108h0.561
		v0.76h-0.721c-0.41,0-0.725-0.096-0.943-0.288s-0.328-0.504-0.328-0.936v-2.44h-0.521v-0.744h0.521v-1.096h0.92v1.096h1.072v0.744
		H320.472z"/>
	<path style="fill:#179BCB;" d="M326.393,78.856h-3.376c0.021,0.368,0.145,0.66,0.371,0.876c0.228,0.216,0.511,0.324,0.853,0.324
		c0.496,0,0.845-0.206,1.048-0.616h0.984c-0.134,0.405-0.376,0.737-0.729,0.996c-0.352,0.259-0.786,0.388-1.304,0.388
		c-0.422,0-0.795-0.094-1.12-0.284s-0.58-0.456-0.764-0.8c-0.185-0.344-0.276-0.742-0.276-1.196c0-0.453,0.092-0.852,0.276-1.196
		c0.184-0.344,0.442-0.609,0.775-0.796c0.334-0.187,0.717-0.28,1.148-0.28c0.416,0,0.786,0.091,1.112,0.272
		c0.325,0.181,0.578,0.435,0.76,0.76c0.181,0.326,0.271,0.699,0.271,1.12C326.424,78.579,326.413,78.723,326.393,78.856z
		 M325.473,78.232c-0.006-0.363-0.126-0.652-0.36-0.868c-0.235-0.216-0.525-0.324-0.872-0.324c-0.325,0-0.602,0.108-0.828,0.324
		c-0.227,0.216-0.355,0.505-0.388,0.868H325.473z"/>
</g>
<rect x="229.012" y="78.909" style="fill-rule:evenodd;clip-rule:evenodd;fill:#179BCB;" width="0.998" height="16.339"/>
<rect x="229.012" y="77.962" style="fill-rule:evenodd;clip-rule:evenodd;fill:#179BCB;" width="44.165" height="0.998"/>
<rect x="373.045" y="78.909" style="fill-rule:evenodd;clip-rule:evenodd;fill:#05739B;" width="0.998" height="15.852"/>
<rect x="329.878" y="77.962" style="fill-rule:evenodd;clip-rule:evenodd;fill:#05739B;" width="44.165" height="0.998"/>
</svg>
