<?xml version="1.0" encoding="utf-8"?>
<!-- Generator: Adobe Illustrator 16.0.0, SVG Export Plug-In . SVG Version: 6.00 Build 0)  -->
<!DOCTYPE svg PUBLIC "-//W3C//DTD SVG 1.1//EN" "http://www.w3.org/Graphics/SVG/1.1/DTD/svg11.dtd">
<svg version="1.1" id="Layer_1" xmlns="http://www.w3.org/2000/svg" xmlns:xlink="http://www.w3.org/1999/xlink" x="0px" y="0px"
	 width="100px" height="100px" viewBox="0 0 100 100" enable-background="new 0 0 100 100" xml:space="preserve">
<g>
	<g>
		<circle fill="none" stroke="#4681A7" cx="50" cy="48.66" r="26.25"/>
	</g>
	<path fill="none" stroke="#4681A7" stroke-dasharray="4.135,4.135" d="M66.365,60.934"/>
	<g>
		<path fill="none" stroke="#4681A7" stroke-width="0.5" stroke-linejoin="round" stroke-miterlimit="10" d="M67.262,57.432H64.15
			v-2.455h3.111V57.432z M62.762,52.766v6.133 M65.053,58.898v-1.551 M65.053,54.812v-2.047 M63.904,50.637
			c0.492,0,0.902-0.406,0.902-0.898v-0.492c0-0.568-0.41-0.898-0.902-0.898c-0.486,0-0.9,0.41-0.9,0.898v0.492
			C63.004,50.23,63.336,50.637,63.904,50.637z M65.871,54.398v-2.041c0-0.736-1.229-1.146-2.043-1.146
			c-0.738,0-2.045,0.41-2.045,1.146v2.041c0,0.414,0.408,0.902,0.9,0.902"/>
		<path fill="#4681A7" d="M47.871,40.414c-0.164,0-0.326-0.168-0.326-0.328v-1.393c0-0.162,0.162-0.328,0.326-0.328
			c0.166,0,0.328,0.166,0.328,0.328v1.393C48.199,40.246,48.037,40.414,47.871,40.414"/>
		<path fill="#4681A7" d="M46.48,40.414c-0.164,0-0.328-0.168-0.328-0.328v-1.393c0-0.162,0.164-0.328,0.328-0.328
			c0.162,0,0.326,0.166,0.326,0.328v1.393C46.807,40.246,46.643,40.414,46.48,40.414"/>
		<path fill="#4681A7" d="M45.09,40.414c-0.164,0-0.328-0.168-0.328-0.328v-1.393c0-0.162,0.164-0.328,0.328-0.328
			s0.328,0.166,0.328,0.328v1.393C45.418,40.246,45.254,40.414,45.09,40.414"/>
		<path fill="#4681A7" d="M40.262,57.023c-0.16,0-0.324-0.166-0.324-0.33V44.914c0-0.168,0.164-0.328,0.324-0.328
			c0.164,0,0.328,0.16,0.328,0.328v11.779C40.59,56.777,40.426,57.023,40.262,57.023"/>
		<path fill="#4681A7" d="M41.652,57.023c-0.164,0-0.328-0.166-0.328-0.33V44.914c0-0.168,0.164-0.328,0.328-0.328
			s0.328,0.16,0.328,0.328v11.779C41.98,56.777,41.816,57.023,41.652,57.023"/>
		<path fill="#4681A7" d="M54.09,57.023c-0.16,0-0.328-0.166-0.328-0.33v-8.262c0-0.166,0.168-0.33,0.328-0.33
			s0.328,0.164,0.328,0.33v8.262C54.418,56.777,54.25,57.023,54.09,57.023"/>
		<path fill="#4681A7" d="M55.48,57.023c-0.164,0-0.33-0.166-0.33-0.33v-8.262c0-0.166,0.166-0.33,0.33-0.33
			c0.162,0,0.326,0.164,0.326,0.33v8.262C55.807,56.777,55.643,57.023,55.48,57.023"/>
		<path fill="#4681A7" d="M49.262,40.414c-0.16,0-0.324-0.168-0.324-0.328v-1.393c0-0.162,0.164-0.328,0.324-0.328
			c0.164,0,0.328,0.166,0.328,0.328v1.393C49.59,40.246,49.426,40.414,49.262,40.414"/>
		<path fill="#4681A7" d="M50.65,40.414c-0.162,0-0.322-0.168-0.322-0.328v-1.393c0-0.162,0.16-0.328,0.322-0.328
			c0.166,0,0.33,0.166,0.33,0.328v1.393C50.98,40.246,50.816,40.414,50.65,40.414"/>
		<path fill="#4681A7" d="M47.871,43.193c-0.164,0-0.326-0.162-0.326-0.328v-1.389c0-0.164,0.162-0.332,0.326-0.332
			c0.166,0,0.328,0.168,0.328,0.332v1.389C48.199,42.947,48.037,43.193,47.871,43.193"/>
		<path fill="#4681A7" d="M46.48,43.193c-0.164,0-0.328-0.162-0.328-0.328v-1.389c0-0.164,0.164-0.332,0.328-0.332
			c0.162,0,0.326,0.168,0.326,0.332v1.389C46.807,42.947,46.643,43.193,46.48,43.193"/>
		<path fill="#4681A7" d="M45.09,43.193c-0.164,0-0.328-0.162-0.328-0.328v-1.389c0-0.164,0.164-0.332,0.328-0.332
			s0.328,0.168,0.328,0.332v1.389C45.418,42.947,45.254,43.193,45.09,43.193"/>
		<path fill="#4681A7" d="M49.262,43.193c-0.16,0-0.324-0.162-0.324-0.328v-1.389c0-0.164,0.164-0.332,0.324-0.332
			c0.164,0,0.328,0.168,0.328,0.332v1.389C49.59,42.947,49.426,43.193,49.262,43.193"/>
		<path fill="#4681A7" d="M50.65,43.193c-0.162,0-0.322-0.162-0.322-0.328v-1.389c0-0.164,0.16-0.332,0.322-0.332
			c0.166,0,0.33,0.168,0.33,0.332v1.389C50.98,42.947,50.816,43.193,50.65,43.193"/>
		<path fill="#4681A7" d="M47.871,45.977c-0.164,0-0.326-0.164-0.326-0.332v-1.387c0-0.164,0.162-0.326,0.326-0.326
			c0.166,0,0.328,0.162,0.328,0.326v1.387C48.199,45.812,48.037,45.977,47.871,45.977"/>
		<path fill="#4681A7" d="M46.48,45.977c-0.164,0-0.328-0.164-0.328-0.332v-1.387c0-0.164,0.164-0.326,0.328-0.326
			c0.162,0,0.326,0.162,0.326,0.326v1.387C46.807,45.812,46.643,45.977,46.48,45.977"/>
		<path fill="#4681A7" d="M45.09,45.977c-0.164,0-0.328-0.164-0.328-0.332v-1.387c0-0.164,0.164-0.326,0.328-0.326
			s0.328,0.162,0.328,0.326v1.387C45.418,45.812,45.254,45.977,45.09,45.977"/>
		<path fill="#4681A7" d="M49.262,45.977c-0.16,0-0.324-0.164-0.324-0.332v-1.387c0-0.164,0.164-0.326,0.324-0.326
			c0.164,0,0.328,0.162,0.328,0.326v1.387C49.59,45.812,49.426,45.977,49.262,45.977"/>
		<path fill="#4681A7" d="M50.65,45.977c-0.162,0-0.322-0.164-0.322-0.332v-1.387c0-0.164,0.16-0.326,0.322-0.326
			c0.166,0,0.33,0.162,0.33,0.326v1.387C50.98,45.812,50.816,45.977,50.65,45.977"/>
		<path fill="#4681A7" d="M47.871,48.678c-0.164,0-0.326-0.166-0.326-0.33v-1.391c0-0.164,0.162-0.328,0.326-0.328
			c0.166,0,0.328,0.164,0.328,0.328v1.391C48.199,48.594,48.037,48.678,47.871,48.678"/>
		<path fill="#4681A7" d="M46.48,48.678c-0.164,0-0.328-0.166-0.328-0.33v-1.391c0-0.164,0.164-0.328,0.328-0.328
			c0.162,0,0.326,0.164,0.326,0.328v1.391C46.807,48.594,46.643,48.678,46.48,48.678"/>
		<path fill="#4681A7" d="M45.09,48.678c-0.164,0-0.328-0.166-0.328-0.33v-1.391c0-0.164,0.164-0.328,0.328-0.328
			s0.328,0.164,0.328,0.328v1.391C45.418,48.594,45.254,48.678,45.09,48.678"/>
		<path fill="#4681A7" d="M49.262,48.678c-0.16,0-0.324-0.166-0.324-0.33v-1.391c0-0.164,0.164-0.328,0.324-0.328
			c0.164,0,0.328,0.164,0.328,0.328v1.391C49.59,48.594,49.426,48.678,49.262,48.678"/>
		<path fill="#4681A7" d="M50.65,48.678c-0.162,0-0.322-0.166-0.322-0.33v-1.391c0-0.164,0.16-0.328,0.322-0.328
			c0.166,0,0.33,0.164,0.33,0.328v1.391C50.98,48.594,50.816,48.678,50.65,48.678"/>
		<path fill="#4681A7" d="M47.871,51.539c-0.164,0-0.326-0.164-0.326-0.328v-1.387c0-0.164,0.162-0.332,0.326-0.332
			c0.166,0,0.328,0.168,0.328,0.332v1.387C48.199,51.375,48.037,51.539,47.871,51.539"/>
		<path fill="#4681A7" d="M46.48,51.539c-0.164,0-0.328-0.164-0.328-0.328v-1.387c0-0.164,0.164-0.332,0.328-0.332
			c0.162,0,0.326,0.168,0.326,0.332v1.387C46.807,51.375,46.643,51.539,46.48,51.539"/>
		<path fill="#4681A7" d="M45.09,51.539c-0.164,0-0.328-0.164-0.328-0.328v-1.387c0-0.164,0.164-0.332,0.328-0.332
			s0.328,0.168,0.328,0.332v1.387C45.418,51.375,45.254,51.539,45.09,51.539"/>
		<path fill="#4681A7" d="M49.262,51.539c-0.16,0-0.324-0.164-0.324-0.328v-1.387c0-0.164,0.164-0.332,0.324-0.332
			c0.164,0,0.328,0.168,0.328,0.332v1.387C49.59,51.375,49.426,51.539,49.262,51.539"/>
		<path fill="#4681A7" d="M50.65,51.539c-0.162,0-0.322-0.164-0.322-0.328v-1.387c0-0.164,0.16-0.332,0.322-0.332
			c0.166,0,0.33,0.168,0.33,0.332v1.387C50.98,51.375,50.816,51.539,50.65,51.539"/>
		<path fill="#4681A7" d="M49.262,58.086H46.48v-4.828h2.781V58.086z M43.699,37.223h8.264V58h-2.045v-5.152
			c0-0.162-0.168-0.324-0.328-0.324h-3.438c-0.164,0-0.328,0.162-0.328,0.324V58h-2.043V37.223H43.699z M58.59,58.086h-1.061V46.711
			c0-0.164-0.166-0.328-0.33-0.328h-3.438c-0.164,0-0.324,0.164-0.324,0.328s0.16,0.328,0.324,0.328h3.109v11.047h-4.172V36.977
			c0-0.164-0.162-0.332-0.328-0.332h-9c-0.164,0-0.326,0.168-0.326,0.332v21.109h-4.174V43.602h3.109
			c0.162,0,0.326-0.162,0.326-0.324c0-0.166-0.164-0.33-0.326-0.33h-3.436c-0.164,0-0.328,0.164-0.328,0.33v14.891h-1.064
			c-0.164,0-0.328,0.164-0.328,0.324c0,0.168,0.164,0.332,0.328,0.332h1.393l0,0l0,0h4.826l0,0h2.781h3.438h2.781l0,0h4.828l0,0l0,0
			h1.391c0.16,0,0.328-0.164,0.328-0.332C58.918,58.246,58.75,58.086,58.59,58.086"/>
	</g>
</g>
</svg>
