<?xml version="1.0" encoding="utf-8"?>
<!-- Generator: Adobe Illustrator 16.0.0, SVG Export Plug-In . SVG Version: 6.00 Build 0)  -->
<!DOCTYPE svg PUBLIC "-//W3C//DTD SVG 1.1//EN" "http://www.w3.org/Graphics/SVG/1.1/DTD/svg11.dtd">
<svg version="1.1" id="Layer_1" xmlns="http://www.w3.org/2000/svg" xmlns:xlink="http://www.w3.org/1999/xlink" x="0px" y="0px"
	 width="100px" height="100px" viewBox="0 0 100 100" enable-background="new 0 0 100 100" xml:space="preserve">
<g>
	<g>
		<path fill="#4681A7" d="M49.27,39.041c-1.637,0-2.945,1.309-2.945,2.943c0,1.639,1.309,2.947,2.945,2.947s2.945-1.309,2.945-2.947
			C52.215,40.35,50.906,39.041,49.27,39.041 M49.27,45.586c-1.965,0-3.6-1.635-3.6-3.602c0-1.963,1.635-3.598,3.6-3.598
			s3.598,1.635,3.598,3.598C52.867,43.951,51.234,45.586,49.27,45.586"/>
		<path fill="#4681A7" d="M49.27,47.959c-0.164,0-0.328-0.164-0.328-0.326V45.34c0-0.164,0.164-0.326,0.328-0.326
			c0.162,0,0.326,0.162,0.326,0.326v2.293C49.596,47.795,49.432,47.959,49.27,47.959"/>
		<path fill="#4681A7" d="M49.27,39.041c-0.164,0-0.328-0.162-0.328-0.328v-2.291c0-0.162,0.164-0.326,0.328-0.326
			c0.162,0,0.326,0.164,0.326,0.326v2.291C49.596,38.879,49.432,39.041,49.27,39.041"/>
		<path fill="#4681A7" d="M49.27,33.805c-0.328,0-0.492,0.244-0.492,0.49c0,0.328,0.246,0.492,0.492,0.492
			c0.326,0,0.49-0.246,0.49-0.492S49.596,33.805,49.27,33.805 M49.27,35.604c-0.656,0-1.227-0.57-1.227-1.225
			c0-0.656,0.57-1.23,1.227-1.23c0.654,0,1.229,0.574,1.229,1.23C50.498,35.033,49.924,35.604,49.27,35.604"/>
		<path fill="#4681A7" d="M49.27,49.104c-0.328,0-0.492,0.246-0.492,0.492c0,0.326,0.246,0.49,0.492,0.49
			c0.326,0,0.49-0.246,0.49-0.49C49.76,49.35,49.596,49.104,49.27,49.104 M49.27,50.824c-0.656,0-1.227-0.574-1.227-1.229
			c0-0.652,0.57-1.227,1.227-1.227c0.654,0,1.229,0.574,1.229,1.227C50.498,50.25,49.924,50.824,49.27,50.824"/>
		<path fill="#4681A7" d="M53.932,46.977c-0.08,0-0.164,0-0.246-0.082l-2.287-2.291c-0.164-0.16-0.164-0.324,0-0.492
			c0.16-0.16,0.324-0.16,0.488,0l2.291,2.295c0.166,0.164,0.166,0.324,0,0.488C54.098,46.977,54.014,46.977,53.932,46.977"/>
		<path fill="#4681A7" d="M46.16,39.205c-0.08,0-0.164,0-0.244-0.082l-0.574-0.574c-0.164-0.162-0.164-0.326,0-0.49
			s0.328-0.164,0.492,0l0.572,0.574c0.164,0.162,0.164,0.326,0,0.49C46.324,39.205,46.242,39.205,46.16,39.205"/>
		<path fill="#4681A7" d="M54.668,46.812c-0.162,0-0.246,0.082-0.408,0.164s-0.162,0.246-0.162,0.41c0,0.162,0.08,0.246,0.162,0.408
			c0.162,0.164,0.574,0.164,0.738,0c0.246-0.246,0.246-0.572,0-0.736C54.914,46.895,54.834,46.812,54.668,46.812 M54.668,48.611
			c-0.324,0-0.654-0.16-0.816-0.324c-0.246-0.246-0.33-0.492-0.33-0.818c0-0.328,0.164-0.656,0.33-0.82
			c0.492-0.488,1.229-0.488,1.715,0c0.492,0.492,0.492,1.23,0,1.721C55.32,48.451,54.998,48.611,54.668,48.611"/>
		<path fill="#4681A7" d="M43.867,34.623c-0.488,0-0.98,0.164-1.387,0.574c-0.738,0.734-0.738,1.963,0,2.779
			c0.324,0.328,0.816,0.572,1.387,0.572c0.492,0,0.984-0.162,1.393-0.572c0.736-0.734,0.736-1.963,0-2.779
			C44.852,34.869,44.359,34.623,43.867,34.623 M43.867,39.205c-0.734,0-1.387-0.246-1.879-0.736c-1.064-1.062-1.064-2.701,0-3.682
			c0.492-0.492,1.145-0.738,1.879-0.738c0.738,0,1.393,0.246,1.885,0.738c1.064,1.062,1.064,2.697,0,3.682
			C45.26,38.959,44.605,39.205,43.867,39.205"/>
		<path fill="#4681A7" d="M43.867,38.305c-0.652,0-1.145-0.41-1.223-0.98c0-0.164,0.078-0.328,0.324-0.41
			c0.164,0,0.328,0.082,0.41,0.328c0,0.164,0.242,0.328,0.574,0.328c0.324,0,0.57-0.164,0.57-0.328c0,0,0-0.328-0.57-0.328
			c-0.82,0-1.23-0.574-1.23-1.064c0-0.57,0.574-1.062,1.23-1.062c0.652,0,1.143,0.41,1.225,0.98c0,0.164-0.082,0.328-0.326,0.41
			c-0.166,0-0.328-0.082-0.41-0.328c0-0.164-0.246-0.328-0.574-0.328c-0.324,0-0.57,0.164-0.57,0.328
			c0,0.082,0.082,0.328,0.57,0.328c0.902,0,1.229,0.654,1.229,1.064C45.096,37.895,44.523,38.305,43.867,38.305"/>
		<path fill="#4681A7" d="M43.867,35.443c-0.16,0-0.324-0.164-0.324-0.332v-0.488c0-0.164,0.164-0.328,0.324-0.328
			c0.164,0,0.328,0.164,0.328,0.328v0.488C44.195,35.279,44.031,35.443,43.867,35.443"/>
		<path fill="#4681A7" d="M43.867,38.959c-0.16,0-0.324-0.164-0.324-0.326v-0.492c0-0.164,0.164-0.328,0.324-0.328
			c0.164,0,0.328,0.164,0.328,0.328v0.492C44.195,38.795,44.031,38.959,43.867,38.959"/>
		<path fill="#4681A7" d="M43.867,36.178c-0.16,0-0.324-0.164-0.324-0.328v-0.328c0-0.164,0.164-0.324,0.324-0.324
			c0.164,0,0.328,0.16,0.328,0.324v0.328C44.195,36.014,44.031,36.178,43.867,36.178"/>
		<path fill="#4681A7" d="M43.867,38.059c-0.16,0-0.324-0.164-0.324-0.328v-0.324c0-0.168,0.164-0.328,0.324-0.328
			c0.164,0,0.328,0.16,0.328,0.328v0.324C44.195,37.895,44.031,38.059,43.867,38.059"/>
		<path fill="#4681A7" d="M45.916,42.312h-2.295c-0.16,0-0.324-0.164-0.324-0.328c0-0.16,0.164-0.324,0.324-0.324h2.295
			c0.164,0,0.326,0.164,0.326,0.324C46.242,42.148,46.16,42.312,45.916,42.312"/>
		<path fill="#4681A7" d="M54.506,42.312h-0.82c-0.164,0-0.326-0.164-0.326-0.328c0-0.16,0.162-0.324,0.326-0.324h0.82
			c0.162,0,0.328,0.164,0.328,0.324C54.834,42.148,54.668,42.312,54.506,42.312"/>
		<path fill="#4681A7" d="M41.66,41.496c-0.326,0-0.49,0.246-0.49,0.488c0,0.328,0.246,0.492,0.49,0.492
			c0.328,0,0.492-0.246,0.492-0.492C42.152,41.66,41.906,41.496,41.66,41.496 M41.66,43.213c-0.654,0-1.229-0.572-1.229-1.229
			c0-0.652,0.574-1.225,1.229-1.225c0.656,0,1.227,0.572,1.227,1.225C42.887,42.641,42.316,43.213,41.66,43.213"/>
		<path fill="#4681A7" d="M56.879,40.021c-0.492,0-0.98,0.164-1.391,0.574c-0.736,0.736-0.736,1.963,0,2.783
			c0.324,0.326,0.816,0.572,1.391,0.572c0.488,0,0.98-0.164,1.389-0.572c0.41-0.41,0.576-0.82,0.576-1.395
			c0-0.488-0.166-0.979-0.576-1.389C57.859,40.268,57.453,40.021,56.879,40.021 M56.879,44.604c-0.734,0-1.391-0.246-1.881-0.734
			c-1.066-1.064-1.066-2.701,0-3.684c0.49-0.488,1.146-0.734,1.881-0.734s1.389,0.246,1.881,0.734
			c0.492,0.49,0.738,1.146,0.738,1.885c0,0.734-0.246,1.389-0.738,1.881C58.268,44.357,57.613,44.604,56.879,44.604"/>
		<path fill="#4681A7" d="M56.879,43.705c-0.656,0-1.145-0.41-1.227-0.982c0-0.164,0.082-0.328,0.328-0.41
			c0.164,0,0.324,0.082,0.406,0.328c0,0.164,0.246,0.328,0.574,0.328c0.324,0,0.57-0.164,0.57-0.328c0,0,0-0.328-0.57-0.328
			c-0.816,0-1.227-0.57-1.227-1.062c0-0.572,0.57-1.064,1.227-1.064c0.652,0,1.145,0.41,1.225,0.982c0,0.164-0.08,0.328-0.326,0.41
			c-0.16,0-0.328-0.082-0.406-0.328c0-0.164-0.246-0.328-0.574-0.328s-0.574,0.164-0.574,0.328c0,0.082,0.082,0.328,0.574,0.328
			c0.898,0,1.227,0.652,1.227,1.062C58.105,43.213,57.531,43.705,56.879,43.705"/>
		<path fill="#4681A7" d="M56.879,40.76c-0.164,0-0.328-0.164-0.328-0.328v-0.488c0-0.164,0.164-0.332,0.328-0.332
			s0.328,0.168,0.328,0.332v0.488C57.207,40.678,57.043,40.76,56.879,40.76"/>
		<path fill="#4681A7" d="M56.879,44.357c-0.164,0-0.328-0.16-0.328-0.324v-0.492c0-0.162,0.164-0.328,0.328-0.328
			s0.328,0.166,0.328,0.328v0.492C57.207,44.197,57.043,44.357,56.879,44.357"/>
		<path fill="#4681A7" d="M56.879,41.496c-0.164,0-0.328-0.164-0.328-0.328V40.84c0-0.164,0.164-0.326,0.328-0.326
			s0.328,0.162,0.328,0.326v0.328C57.207,41.414,57.043,41.496,56.879,41.496"/>
		<path fill="#4681A7" d="M56.879,43.459c-0.164,0-0.328-0.164-0.328-0.326v-0.328c0-0.164,0.164-0.328,0.328-0.328
			s0.328,0.164,0.328,0.328v0.328C57.207,43.295,57.043,43.459,56.879,43.459"/>
		<path fill="#4681A7" d="M51.645,39.943c-0.086,0-0.164,0-0.246-0.086c-0.164-0.16-0.164-0.324,0-0.488l2.369-2.373
			c0.164-0.164,0.33-0.164,0.492,0s0.162,0.328,0,0.488l-2.373,2.373C51.805,39.943,51.723,39.943,51.645,39.943"/>
		<path fill="#4681A7" d="M45.588,45.996c-0.082,0-0.164,0-0.246-0.082c-0.164-0.164-0.164-0.328,0-0.492l0.574-0.572
			c0.164-0.164,0.326-0.164,0.49,0s0.164,0.328,0,0.492l-0.572,0.572C45.752,45.996,45.67,45.996,45.588,45.996"/>
		<path fill="#4681A7" d="M54.668,36.096c-0.162,0-0.246,0.08-0.408,0.164c-0.082,0.08-0.162,0.246-0.162,0.408
			c0,0.164,0.08,0.246,0.162,0.41c0.162,0.164,0.574,0.164,0.738,0c0.082-0.082,0.162-0.246,0.162-0.41
			c0-0.162-0.08-0.246-0.162-0.408C54.914,36.096,54.834,36.096,54.668,36.096 M54.668,37.812c-0.324,0-0.654-0.164-0.816-0.328
			c-0.246-0.242-0.33-0.488-0.33-0.816s0.164-0.654,0.33-0.818c0.492-0.492,1.229-0.492,1.715,0
			c0.246,0.246,0.332,0.572,0.332,0.818c0,0.328-0.164,0.656-0.332,0.816C55.32,37.648,54.998,37.812,54.668,37.812"/>
		<path fill="#4681A7" d="M43.867,45.422c-0.488,0-0.98,0.164-1.387,0.574c-0.738,0.734-0.738,1.963,0,2.783
			c0.324,0.324,0.816,0.57,1.387,0.57c0.492,0,0.984-0.164,1.393-0.57c0.736-0.738,0.736-1.967,0-2.783
			C44.852,45.668,44.359,45.422,43.867,45.422 M43.867,50.006c-0.734,0-1.387-0.246-1.879-0.738c-1.064-1.062-1.064-2.697,0-3.682
			c0.492-0.49,1.145-0.736,1.879-0.736c0.738,0,1.393,0.246,1.885,0.736c1.064,1.062,1.064,2.701,0,3.682
			C45.26,49.76,44.605,50.006,43.867,50.006"/>
		<path fill="#4681A7" d="M43.867,49.104c-0.652,0-1.145-0.406-1.223-0.98c0-0.164,0.078-0.328,0.324-0.41
			c0.164,0,0.328,0.082,0.41,0.328c0,0.164,0.242,0.328,0.574,0.328c0.324,0,0.57-0.164,0.57-0.328c0,0,0-0.328-0.57-0.328
			c-0.82,0-1.23-0.572-1.23-1.064c0-0.57,0.574-1.062,1.23-1.062c0.652,0,1.143,0.41,1.225,0.984c0,0.16-0.082,0.324-0.326,0.406
			c-0.166,0-0.328-0.082-0.41-0.328c0-0.164-0.246-0.324-0.574-0.324c-0.324,0-0.57,0.16-0.57,0.324c0,0.082,0.082,0.328,0.57,0.328
			c0.902,0,1.229,0.656,1.229,1.064C45.096,48.611,44.523,49.104,43.867,49.104"/>
		<path fill="#4681A7" d="M43.867,46.16c-0.16,0-0.324-0.164-0.324-0.328v-0.49c0-0.164,0.164-0.328,0.324-0.328
			c0.164,0,0.328,0.164,0.328,0.328v0.49C44.195,45.996,44.031,46.16,43.867,46.16"/>
		<path fill="#4681A7" d="M43.867,49.76c-0.16,0-0.324-0.164-0.324-0.328v-0.488c0-0.164,0.164-0.332,0.324-0.332
			c0.164,0,0.328,0.168,0.328,0.332v0.488C44.195,49.596,44.031,49.76,43.867,49.76"/>
		<path fill="#4681A7" d="M43.867,46.895c-0.16,0-0.324-0.164-0.324-0.324v-0.332c0-0.16,0.164-0.324,0.324-0.324
			c0.164,0,0.328,0.164,0.328,0.324v0.332C44.195,46.73,44.031,46.895,43.867,46.895"/>
		<path fill="#4681A7" d="M43.867,48.857c-0.16,0-0.324-0.16-0.324-0.324v-0.328c0-0.164,0.164-0.328,0.324-0.328
			c0.164,0,0.328,0.164,0.328,0.328v0.328C44.195,48.697,44.031,48.857,43.867,48.857"/>
		<path fill="#4681A7" d="M49.27,40.596c-0.738,0-1.391,0.654-1.391,1.389c0,0.738,0.652,1.395,1.391,1.395
			c0.736,0,1.391-0.656,1.391-1.395C50.66,41.25,50.006,40.596,49.27,40.596 M49.27,44.033c-1.148,0-2.047-0.9-2.047-2.049
			c0-1.145,0.898-2.041,2.047-2.041c1.145,0,2.043,0.896,2.043,2.041C51.312,43.133,50.414,44.033,49.27,44.033"/>
		<path fill="#4681A7" d="M49.27,42.395c-0.246,0-0.41-0.164-0.41-0.41c0-0.242,0.164-0.406,0.41-0.406s0.408,0.164,0.408,0.406
			C49.678,42.23,49.516,42.395,49.27,42.395"/>
		<path fill="#4681A7" d="M44.523,52.867c-0.902,0-1.555,0.738-1.555,1.717c0,1.066,0.816,2.209,1.555,2.209
			c0.736,0,1.557-1.143,1.557-2.209C46.08,53.605,45.424,52.867,44.523,52.867 M44.523,57.449c-1.145,0-2.207-1.389-2.207-2.865
			c0-1.389,0.898-2.371,2.207-2.371c1.311,0,2.211,0.982,2.211,2.371C46.734,56.061,45.588,57.449,44.523,57.449"/>
		<path fill="none" d="M44.523,52.867c-0.902,0-1.555,0.738-1.555,1.717c0,1.066,0.816,2.209,1.555,2.209
			c0.736,0,1.557-1.143,1.557-2.209C46.08,53.605,45.424,52.867,44.523,52.867z M44.523,57.449c-1.145,0-2.207-1.389-2.207-2.865
			c0-1.389,0.898-2.371,2.207-2.371c1.311,0,2.211,0.982,2.211,2.371C46.734,56.061,45.588,57.449,44.523,57.449z"/>
		<path fill="#4681A7" d="M44.77,60.889c-2.371,0-3.518-0.574-3.764-1.969c-0.164-0.979,0.082-1.799,0.818-2.285
			c0.328-0.246,0.734-0.492,1.145-0.656c0.164-0.082,0.328,0,0.41,0.164s0,0.328-0.164,0.404c-0.328,0.164-0.656,0.334-0.98,0.574
			c-0.492,0.41-0.738,0.984-0.574,1.723c0.164,0.896,0.82,1.635,4.582,1.389c0.164,0,0.328,0.082,0.328,0.328
			c0,0.164-0.082,0.328-0.328,0.328C45.67,60.807,45.178,60.889,44.77,60.889"/>
		<path fill="none" d="M44.77,60.889c-2.371,0-3.518-0.574-3.764-1.969c-0.164-0.979,0.082-1.799,0.818-2.285
			c0.328-0.246,0.734-0.492,1.145-0.656c0.164-0.082,0.328,0,0.41,0.164s0,0.328-0.164,0.404c-0.328,0.164-0.656,0.334-0.98,0.574
			c-0.492,0.41-0.738,0.984-0.574,1.723c0.164,0.896,0.82,1.635,4.582,1.389c0.164,0,0.328,0.082,0.328,0.328
			c0,0.164-0.082,0.328-0.328,0.328C45.67,60.807,45.178,60.889,44.77,60.889z"/>
		<path fill="#4681A7" d="M47.145,57.285c-0.086,0-0.164,0-0.246-0.082s-0.656-0.492-1.064-0.656
			c-0.164-0.076-0.246-0.24-0.164-0.404s0.246-0.246,0.41-0.164c0.49,0.164,1.225,0.732,1.307,0.814
			c0.164,0.164,0.164,0.328,0,0.492C47.305,57.285,47.223,57.285,47.145,57.285"/>
		<path fill="none" d="M47.145,57.285c-0.086,0-0.164,0-0.246-0.082s-0.656-0.492-1.064-0.656c-0.164-0.076-0.246-0.24-0.164-0.404
			s0.246-0.246,0.41-0.164c0.49,0.164,1.225,0.732,1.307,0.814c0.164,0.164,0.164,0.328,0,0.492
			C47.305,57.285,47.223,57.285,47.145,57.285z"/>
		<path fill="#4681A7" d="M55.406,52.867c-0.9,0-1.555,0.738-1.555,1.717c0,1.066,0.816,2.209,1.555,2.209
			c0.816,0,1.555-1.061,1.555-2.209C57.043,53.605,56.387,52.867,55.406,52.867 M55.406,57.449c-1.146,0-2.207-1.389-2.207-2.865
			c0-1.389,0.898-2.371,2.207-2.371s2.207,0.982,2.207,2.371C57.699,56.061,56.551,57.449,55.406,57.449"/>
		<path fill="none" d="M55.406,52.867c-0.9,0-1.555,0.738-1.555,1.717c0,1.066,0.816,2.209,1.555,2.209
			c0.816,0,1.555-1.061,1.555-2.209C57.043,53.605,56.387,52.867,55.406,52.867z M55.406,57.449c-1.146,0-2.207-1.389-2.207-2.865
			c0-1.389,0.898-2.371,2.207-2.371s2.207,0.982,2.207,2.371C57.699,56.061,56.551,57.449,55.406,57.449z"/>
		<path fill="#4681A7" d="M60.234,52.867c-0.82,0-1.391,0.656-1.391,1.471c0,0.902,0.736,1.969,1.391,1.969
			c0.734,0,1.387-0.984,1.387-1.969C61.621,53.441,61.051,52.867,60.234,52.867 M60.234,56.881c-0.982,0-1.967-1.23-1.967-2.537
			c0-1.23,0.82-2.049,1.967-2.049c1.145,0,1.965,0.9,1.965,2.049C62.199,55.65,61.297,56.881,60.234,56.881"/>
		<path fill="none" d="M60.234,52.867c-0.82,0-1.391,0.656-1.391,1.471c0,0.902,0.736,1.969,1.391,1.969
			c0.734,0,1.387-0.984,1.387-1.969C61.621,53.441,61.051,52.867,60.234,52.867z M60.234,56.881c-0.982,0-1.967-1.23-1.967-2.537
			c0-1.23,0.82-2.049,1.967-2.049c1.145,0,1.965,0.9,1.965,2.049C62.199,55.65,61.297,56.881,60.234,56.881z"/>
		<path fill="#4681A7" d="M39.695,52.867c0.82,0,1.393,0.656,1.393,1.471c0,0.902-0.736,1.969-1.393,1.969
			c-0.734,0-1.391-0.984-1.391-1.969C38.305,53.441,38.879,52.867,39.695,52.867 M39.695,56.881c0.982,0,1.965-1.23,1.965-2.537
			c0-1.23-0.818-2.049-1.965-2.049c-1.145,0-1.961,0.9-1.961,2.049C37.734,55.65,38.715,56.881,39.695,56.881"/>
		<path fill="none" d="M39.695,52.867c0.82,0,1.393,0.656,1.393,1.471c0,0.902-0.736,1.969-1.393,1.969
			c-0.734,0-1.391-0.984-1.391-1.969C38.305,53.441,38.879,52.867,39.695,52.867z M39.695,56.881c0.982,0,1.965-1.23,1.965-2.537
			c0-1.23-0.818-2.049-1.965-2.049c-1.145,0-1.961,0.9-1.961,2.049C37.734,55.65,38.715,56.881,39.695,56.881z"/>
		<path fill="#4681A7" d="M55.16,60.889c-0.408,0-0.9,0-1.475-0.082c-0.164,0-0.326-0.164-0.326-0.328s0.162-0.328,0.326-0.328
			c3.682,0.246,4.336-0.492,4.5-1.389c0.082-0.492,0.082-1.23-0.572-1.723c-0.328-0.246-0.652-0.404-0.98-0.568
			c-0.164-0.082-0.246-0.246-0.164-0.41s0.246-0.246,0.41-0.164c0.406,0.164,0.82,0.41,1.143,0.65
			c0.656,0.574,0.984,1.395,0.822,2.291C58.678,60.232,57.531,60.889,55.16,60.889"/>
		<path fill="none" d="M55.16,60.889c-0.408,0-0.9,0-1.475-0.082c-0.164,0-0.326-0.164-0.326-0.328s0.162-0.328,0.326-0.328
			c3.682,0.246,4.336-0.492,4.5-1.389c0.082-0.492,0.082-1.23-0.572-1.723c-0.328-0.246-0.652-0.404-0.98-0.568
			c-0.164-0.082-0.246-0.246-0.164-0.41s0.246-0.246,0.41-0.164c0.406,0.164,0.82,0.41,1.143,0.65
			c0.656,0.574,0.984,1.395,0.822,2.291C58.678,60.232,57.531,60.889,55.16,60.889z"/>
		<path fill="#4681A7" d="M59.988,59.904c-0.408,0-0.82,0-1.311-0.082c-0.164,0-0.246-0.164-0.246-0.328s0.166-0.246,0.328-0.246
			c3.271,0.246,3.846-0.404,4.008-1.225c0.084-0.41,0.084-1.066-0.49-1.553c-0.246-0.246-0.57-0.41-0.898-0.492
			c-0.164-0.082-0.246-0.246-0.164-0.328c0.082-0.164,0.246-0.246,0.328-0.164c0.324,0.164,0.734,0.328,0.979,0.574
			c0.656,0.486,0.9,1.225,0.738,2.045C63.098,59.33,62.113,59.904,59.988,59.904"/>
		<path fill="none" d="M59.988,59.904c-0.408,0-0.82,0-1.311-0.082c-0.164,0-0.246-0.164-0.246-0.328s0.166-0.246,0.328-0.246
			c3.271,0.246,3.846-0.404,4.008-1.225c0.084-0.41,0.084-1.066-0.49-1.553c-0.246-0.246-0.57-0.41-0.898-0.492
			c-0.164-0.082-0.246-0.246-0.164-0.328c0.082-0.164,0.246-0.246,0.328-0.164c0.324,0.164,0.734,0.328,0.979,0.574
			c0.656,0.486,0.9,1.225,0.738,2.045C63.098,59.33,62.113,59.904,59.988,59.904z"/>
		<path fill="#4681A7" d="M39.941,59.904c0.41,0,0.818,0,1.311-0.082c0.164,0,0.244-0.164,0.244-0.328s-0.162-0.246-0.326-0.246
			c-3.271,0.246-3.846-0.404-4.01-1.225c-0.08-0.41-0.08-1.066,0.492-1.553c0.246-0.246,0.57-0.41,0.898-0.492
			c0.164-0.082,0.246-0.246,0.164-0.328c-0.082-0.164-0.246-0.246-0.328-0.164c-0.328,0.164-0.734,0.328-0.98,0.574
			c-0.654,0.486-0.9,1.225-0.736,2.045C36.834,59.33,37.816,59.904,39.941,59.904"/>
		<path fill="none" d="M39.941,59.904c0.41,0,0.818,0,1.311-0.082c0.164,0,0.244-0.164,0.244-0.328s-0.162-0.246-0.326-0.246
			c-3.271,0.246-3.846-0.404-4.01-1.225c-0.08-0.41-0.08-1.066,0.492-1.553c0.246-0.246,0.57-0.41,0.898-0.492
			c0.164-0.082,0.246-0.246,0.164-0.328c-0.082-0.164-0.246-0.246-0.328-0.164c-0.328,0.164-0.734,0.328-0.98,0.574
			c-0.654,0.486-0.9,1.225-0.736,2.045C36.834,59.33,37.816,59.904,39.941,59.904z"/>
		<path fill="#4681A7" d="M52.785,57.285c-0.078,0-0.164,0-0.242-0.082c-0.082-0.164-0.082-0.322,0-0.41
			c0.078-0.082,0.734-0.65,1.309-0.814c0.162-0.082,0.326,0,0.408,0.164c0.084,0.164,0,0.328-0.162,0.404
			c-0.412,0.164-0.984,0.574-1.066,0.656C52.953,57.285,52.867,57.285,52.785,57.285"/>
		<path fill="none" d="M52.785,57.285c-0.078,0-0.164,0-0.242-0.082c-0.082-0.164-0.082-0.322,0-0.41
			c0.078-0.082,0.734-0.65,1.309-0.814c0.162-0.082,0.326,0,0.408,0.164c0.084,0.164,0,0.328-0.162,0.404
			c-0.412,0.164-0.984,0.574-1.066,0.656C52.953,57.285,52.867,57.285,52.785,57.285z"/>
		<path fill="#4681A7" d="M57.859,56.711c-0.082,0-0.16,0-0.246-0.076c-0.082-0.088-0.082-0.246,0-0.41
			c0.086-0.082,0.654-0.574,1.146-0.738c0.162-0.082,0.328,0,0.328,0.164c0.08,0.164,0,0.328-0.166,0.328
			c-0.324,0.082-0.9,0.492-0.977,0.568C58.021,56.711,57.945,56.711,57.859,56.711"/>
		<path fill="none" d="M57.859,56.711c-0.082,0-0.16,0-0.246-0.076c-0.082-0.088-0.082-0.246,0-0.41
			c0.086-0.082,0.654-0.574,1.146-0.738c0.162-0.082,0.328,0,0.328,0.164c0.08,0.164,0,0.328-0.166,0.328
			c-0.324,0.082-0.9,0.492-0.977,0.568C58.021,56.711,57.945,56.711,57.859,56.711z"/>
		<path fill="#4681A7" d="M42.07,56.711c0.082,0,0.164,0,0.246-0.076c0.082-0.088,0.082-0.246,0-0.41
			c-0.082-0.082-0.656-0.574-1.146-0.738c-0.164-0.082-0.328,0-0.328,0.164c-0.082,0.164,0,0.328,0.164,0.328
			c0.328,0.082,0.9,0.492,0.982,0.568C41.906,56.711,41.988,56.711,42.07,56.711"/>
		<path fill="none" d="M42.07,56.711c0.082,0,0.164,0,0.246-0.076c0.082-0.088,0.082-0.246,0-0.41
			c-0.082-0.082-0.656-0.574-1.146-0.738c-0.164-0.082-0.328,0-0.328,0.164c-0.082,0.164,0,0.328,0.164,0.328
			c0.328,0.082,0.9,0.492,0.982,0.568C41.906,56.711,41.988,56.711,42.07,56.711z"/>
		<path fill="#4681A7" d="M49.924,52.379c-1.146,0-1.963,0.898-1.963,2.129c0,1.389,0.98,2.695,1.963,2.695s1.963-1.389,1.963-2.695
			C51.969,53.195,51.152,52.379,49.924,52.379 M49.924,57.859c-1.393,0-2.619-1.635-2.619-3.352c0-1.641,1.148-2.785,2.619-2.785
			c1.475,0,2.619,1.145,2.619,2.785C52.621,56.143,51.312,57.859,49.924,57.859"/>
		<path fill="none" d="M49.924,52.379c-1.146,0-1.963,0.898-1.963,2.129c0,1.389,0.98,2.695,1.963,2.695s1.963-1.389,1.963-2.695
			C51.969,53.195,51.152,52.379,49.924,52.379z M49.924,57.859c-1.393,0-2.619-1.635-2.619-3.352c0-1.641,1.148-2.785,2.619-2.785
			c1.475,0,2.619,1.145,2.619,2.785C52.621,56.143,51.312,57.859,49.924,57.859z"/>
		<path fill="#4681A7" d="M50.006,62.195c-0.654,0-1.311-0.082-1.963-0.164c-0.574-0.082-1.062-0.328-1.473-0.738
			c-0.41-0.404-0.736-0.896-0.818-1.389v-0.082c-0.246-1.061,0.164-2.209,0.982-2.865c0.41-0.322,0.898-0.568,1.387-0.814
			c0.164-0.082,0.332,0,0.41,0.164c0.082,0.164,0,0.328-0.164,0.404c-0.406,0.17-0.816,0.41-1.223,0.656
			c-0.656,0.492-0.984,1.395-0.738,2.209v0.082c0.082,0.41,0.328,0.82,0.652,1.066c0.328,0.322,0.738,0.486,1.148,0.568
			c1.225,0.164,2.453,0.164,3.598,0h0.164c0.984-0.158,1.717-0.896,1.883-1.881c0.08-0.738-0.246-1.471-0.82-1.963l-0.164-0.082
			c-0.324-0.246-0.734-0.486-1.145-0.656c-0.164-0.076-0.242-0.24-0.164-0.404c0.086-0.164,0.246-0.246,0.41-0.164
			c0.492,0.164,0.898,0.404,1.309,0.738l0.168,0.076c0.732,0.574,1.143,1.559,1.061,2.537c-0.162,1.312-1.146,2.291-2.373,2.455
			h-0.164C51.152,62.195,50.58,62.195,50.006,62.195"/>
		<path fill="none" d="M50.006,62.195c-0.654,0-1.311-0.082-1.963-0.164c-0.574-0.082-1.062-0.328-1.473-0.738
			c-0.41-0.404-0.736-0.896-0.818-1.389v-0.082c-0.246-1.061,0.164-2.209,0.982-2.865c0.41-0.322,0.898-0.568,1.387-0.814
			c0.164-0.082,0.332,0,0.41,0.164c0.082,0.164,0,0.328-0.164,0.404c-0.406,0.17-0.816,0.41-1.223,0.656
			c-0.656,0.492-0.984,1.395-0.738,2.209v0.082c0.082,0.41,0.328,0.82,0.652,1.066c0.328,0.322,0.738,0.486,1.148,0.568
			c1.225,0.164,2.453,0.164,3.598,0h0.164c0.984-0.158,1.717-0.896,1.883-1.881c0.08-0.738-0.246-1.471-0.82-1.963l-0.164-0.082
			c-0.324-0.246-0.734-0.486-1.145-0.656c-0.164-0.076-0.242-0.24-0.164-0.404c0.086-0.164,0.246-0.246,0.41-0.164
			c0.492,0.164,0.898,0.404,1.309,0.738l0.168,0.076c0.732,0.574,1.143,1.559,1.061,2.537c-0.162,1.312-1.146,2.291-2.373,2.455
			h-0.164C51.152,62.195,50.58,62.195,50.006,62.195z"/>
		<circle fill="none" stroke="#4681A7" cx="50" cy="49.344" r="26.25"/>
	</g>
	<path fill="none" stroke="#4681A7" stroke-dasharray="4.135,4.135" d="M65.477,61.615"/>
	<path fill="none" stroke="#4681A7" stroke-dasharray="4.135,4.135" d="M34.455,61.615"/>
</g>
</svg>
