<?xml version="1.0" encoding="utf-8"?>
<!-- Generator: Adobe Illustrator 16.0.0, SVG Export Plug-In . SVG Version: 6.00 Build 0)  -->
<!DOCTYPE svg PUBLIC "-//W3C//DTD SVG 1.1//EN" "http://www.w3.org/Graphics/SVG/1.1/DTD/svg11.dtd">
<svg version="1.1" id="Layer_1" xmlns="http://www.w3.org/2000/svg" xmlns:xlink="http://www.w3.org/1999/xlink" x="0px" y="0px"
	 width="151.5px" height="153px" viewBox="0 0 151.5 153" enable-background="new 0 0 151.5 153" xml:space="preserve">
<g>
	<g>
		<path fill="none" stroke="#4681A7" d="M75.053,149.939c40.783,0,73.807-33.023,73.807-73.809
			c0-40.781-33.023-73.805-73.807-73.805c-40.781,0-73.805,33.023-73.805,73.805C1.447,116.916,34.471,149.939,75.053,149.939z"/>
		<path fill="#4681A7" d="M77.24,46.293l0.199-0.199l-0.395-0.598l-0.598,0.398c-0.598-0.199-0.996-0.199-1.195,0
			s-0.396,0.398-0.396,0.398c0,0.396,0.197,0.596,0.396,0.994c0,0,0.199,0.199,0.199,0.398l0,0
			c-0.199,0.199-0.795,0.199-1.193-0.199c-0.199-0.199-0.398-0.199-0.398-0.398l-0.596,0.398c0,0.199,0.199,0.199,0.398,0.398
			l-0.199,0.199l0.396,0.594l0.598-0.395c0.398,0.199,0.596,0.199,0.994,0.199c0.199,0,0.598,0,0.797-0.199s0.398-0.398,0.398-0.598
			c0-0.398-0.199-0.598-0.398-0.996c-0.199-0.197-0.199-0.197-0.199-0.197s0.398-0.199,0.797,0.197
			c0.197,0.199,0.395,0.398,0.395,0.398l0.598-0.398C77.439,46.49,77.439,46.49,77.24,46.293 M74.059,50.271l-0.199,0.395v4.18
			l-3.58-1.99v-4.377l6.566-4.375l3.578,1.99L74.059,50.271z M67.096,46.094l5.77-3.584l2.785,1.594l-5.57,3.582L67.096,46.094z
			 M83.809,48.678l-5.771,3.582l-2.984-1.789l5.77-3.582L83.809,48.678z M77.838,55.045h0.398l6.367-4.18l-0.396-0.594l-6.17,3.979
			l-3.381-1.99v-1.195l3.182,1.791h0.398l6.367-4.178v-0.594l-3.186-1.791l0,0v-0.598l-4.373-2.389h-0.398l-0.398,0.398
			l-3.383-1.789h-0.398l-6.365,4.178v0.596l3.383,1.988v1.195L66.5,48.084l-0.398,0.594l3.383,1.988v1.195L66.5,50.072l-0.398,0.594
			l3.383,1.99v0.598l0.199,0.398l4.178,2.389l0.596-0.398v-0.199l3.182,1.789h0.398l6.367-4.178l-0.396-0.596l-6.17,3.98
			l-3.381-1.99v-1.195L77.838,55.045z"/>
	</g>
	<rect x="60.73" y="64.994" fill="#4681A7" width="19.299" height="5.568"/>
	<polyline fill="#4681A7" points="79.631,76.529 88.186,67.775 79.83,59.221 	"/>
	<rect x="68.887" y="84.088" fill="#4681A7" width="19.299" height="5.574"/>
	<polyline fill="#4681A7" points="69.285,78.32 60.73,87.074 69.086,95.629 	"/>
	
		<line fill="none" stroke="#4681A7" stroke-width="0.75" stroke-dasharray="2.642,2.642" x1="74.457" y1="117.908" x2="74.457" y2="144.17"/>
	
		<line fill="none" stroke="#4681A7" stroke-width="0.75" stroke-dasharray="2.642,2.642" x1="74.457" y1="10.283" x2="74.457" y2="36.543"/>
	<g>
		<path fill="#4681A7" d="M111.857,60.217c0.199,0.199,0.996,0.598,2.188,0.598c1.193,0,1.791-0.199,2.189-0.398
			c-0.598-0.797-1.395-1.59-2.189-2.387C113.053,58.627,112.455,59.42,111.857,60.217 M114.045,62.008
			c-1.59,0-3.383-0.398-3.383-1.791c0-0.199,0-0.199,0.199-0.398c0.797-1.191,1.793-2.188,2.984-3.18
			c0.199-0.199,0.598-0.199,0.795,0c1.195,0.992,2.191,2.188,2.986,3.18c0,0,0.199,0.199,0.199,0.398
			c0,0.398-0.199,0.598-0.396,0.994C116.234,61.809,114.443,62.008,114.045,62.008"/>
		<path fill="#4681A7" d="M112.057,82.1h4.178l0.398-1.59c0,0-0.398-0.199-0.797-0.398c-0.398,0-0.996-0.199-1.592-0.199
			c-1.391,0-2.188,0.199-2.387,0.398L112.057,82.1z M116.633,83.295L116.633,83.295h-5.174c-0.199,0-0.598-0.199-0.598-0.398
			l-0.594-2.188c0,0,0,0,0-0.199c0-1.592,2.785-1.592,3.578-1.592c0.598,0,1.193,0,1.791,0.199c1.594,0.398,1.793,0.994,1.793,1.393
			c0,0,0,0,0,0.199l-0.398,2.188C117.031,83.096,116.832,83.295,116.633,83.295"/>
		<path fill="#4681A7" d="M108.875,75.932c-1.793,1.195-2.787,1.99-2.986,2.986c-0.199,0.797,0,1.791,0.199,2.982
			c0.596-1.59,1.592-1.988,3.781-2.783C109.471,78.121,109.074,76.928,108.875,75.932 M106.088,84.287
			c-0.199,0-0.398-0.199-0.598-0.395c-1.59-4.775-1.789-6.367,3.385-9.352c0.199,0,0.396-0.199,0.596,0
			c0.199,0,0.398,0.199,0.398,0.398c0.398,1.391,0.793,2.783,1.391,4.377c0,0.199,0,0.398,0,0.398c0,0.197-0.199,0.197-0.398,0.396
			l-0.594,0.199c-2.588,0.996-2.986,0.996-3.783,3.777C106.484,84.088,106.285,84.287,106.088,84.287L106.088,84.287z"/>
		<path fill="#4681A7" d="M118.225,79.117c0.199,0,0.199,0.199,0.398,0.199c1.789,0.795,2.785,0.994,3.578,2.584
			c0.795-2.783,0.398-3.779-2.984-5.969C119.018,77.127,118.623,78.121,118.225,79.117 M122.201,84.287L122.201,84.287
			c-0.199,0-0.398-0.199-0.594-0.395c-0.797-2.387-1.195-2.586-3.383-3.582c-0.199-0.199-0.598-0.199-0.994-0.398
			c-0.398-0.197-0.398-0.396-0.398-0.795c0.598-1.395,0.994-2.986,1.393-4.377c0-0.199,0.199-0.398,0.398-0.398
			c0.195,0,0.395,0,0.594,0c4.975,2.984,5.174,4.576,3.582,9.352C122.6,84.287,122.4,84.287,122.201,84.287"/>
		<path fill="#4681A7" d="M127.971,94.236c-0.199,0-0.398-0.199-0.598-0.398c-0.395-0.996-1.191-1.789-1.986-2.387
			c-0.199,0-0.199-0.199-0.199-0.199c-0.797-1.59-2.389-2.785-4.178-2.785c-0.996,0-1.992,0.398-2.984,0.996
			c-0.596,0.398-1.193,1.191-1.393,1.789c0,0.199-0.398,0.398-0.598,0.398s-0.398-0.199-0.598-0.398
			c-0.398-1.195-1.791-2.188-2.982-2.188c-0.598,0-1.195,0.199-1.793,0.598c-0.199,0.199-0.395,0.395-0.594,0.594
			s-0.199,0.199-0.398,0.199l0,0c-0.199,0-0.398,0-0.398-0.199c-0.795-0.992-1.99-1.59-3.383-1.59c-2.387,0-4.574,1.988-4.574,4.574
			c0,0.199,0,0.199,0,0.398c0,0.398-0.199,0.596-0.596,0.596c-0.398,0-0.598-0.197-0.598-0.596c0-0.199,0-0.398,0-0.398
			c0-3.184,2.584-5.568,5.568-5.568c1.393,0,2.787,0.596,3.781,1.393c0.199-0.199,0.398-0.199,0.398-0.398
			c0.793-0.398,1.59-0.598,2.387-0.598c1.391,0,2.783,0.797,3.58,1.988c0.398-0.395,0.797-0.992,1.195-1.191
			c0.994-0.797,2.385-1.193,3.58-1.193c2.188,0,4.178,1.193,5.174,3.182c0.994,0.598,1.986,1.59,2.385,2.785
			c0.199,0.398,0,0.596-0.398,0.795C127.971,94.236,127.971,94.236,127.971,94.236"/>
		<path fill="#4681A7" d="M112.256,88.07c1.391,0,2.783,0.795,3.58,1.99c0.199-0.398,0.598-0.598,0.797-0.996
			c-0.797-1.791-1.395-4.379-1.594-5.57h-2.584c-0.199,0.992-0.598,2.982-1.395,4.773C111.658,88.07,112.057,88.07,112.256,88.07
			 M115.836,91.65L115.836,91.65c-0.199,0-0.398-0.199-0.598-0.398c-0.398-1.191-1.787-2.188-2.982-2.188
			c-0.598,0-1.195,0.199-1.793,0.598c-0.195,0.199-0.594,0.199-0.793,0s-0.199-0.398,0-0.797c1.391-2.189,1.988-6.168,1.988-6.367
			s0.199-0.598,0.598-0.598l0,0h3.58c0.199,0,0.398,0,0.398,0.199s0.199,0.199,0.199,0.398c0,0.398,0.797,4.178,1.592,6.168
			c0.199,0.199,0,0.598-0.199,0.797c-0.596,0.398-1.193,1.191-1.393,1.789C116.434,91.65,116.234,91.65,115.836,91.65"/>
		<path fill="#4681A7" d="M116.633,83.295c-0.398,0-0.598-0.199-0.598-0.598l0,0c0-0.398,0.199-0.598,0.598-0.598
			s0.598,0.199,0.598,0.598S116.832,83.295,116.633,83.295"/>
		<path fill="#4681A7" d="M101.514,87.273c-0.199,0-0.199,0-0.398,0c-0.197-0.199-0.396-0.598-0.197-0.797
			c0.795-1.193,1.189-2.189,1.189-2.189c0.199-0.395,0.398-0.395,0.797-0.395c0.398,0.195,0.398,0.395,0.398,0.793
			c0,0-0.398,1.195-1.391,2.389C101.912,87.273,101.713,87.273,101.514,87.273"/>
		<path fill="#4681A7" d="M125.982,88.467c-0.197,0-0.197,0-0.396-0.199c-0.797-0.795-1.594-2.984-1.594-3.383s0-0.598,0.398-0.797
			c0.398,0,0.598,0,0.797,0.398c0.199,0.996,0.795,2.389,1.193,2.787c0.199,0.199,0.199,0.598,0,0.797
			C126.381,88.467,126.182,88.467,125.982,88.467"/>
		<path fill="#4681A7" d="M119.018,76.33l-1.191-0.398c1.789-4.971,1.391-8.75,0.598-11.137c-0.797-2.588-2.189-3.98-2.189-3.98
			l0.797-0.797c0,0,1.393,1.592,2.385,4.379C120.412,66.783,121.01,70.961,119.018,76.33"/>
		<path fill="#4681A7" d="M108.875,76.33c-1.992-5.17-1.395-9.348-0.598-11.934c0.996-2.787,2.385-4.379,2.385-4.379l0.797,0.797
			l-0.398-0.398l0.398,0.398c0,0-1.391,1.393-2.188,3.98c-0.795,2.387-1.393,6.166,0.598,11.137L108.875,76.33z"/>
		<path fill="#4681A7" d="M114.045,66.584c-0.598,0-1.191,0.199-1.59,0.598c-0.398,0.395-0.598,0.992-0.598,1.59
			c0,1.193,0.996,2.189,2.188,2.189v0.596v-0.596c0.596,0,1.193-0.199,1.592-0.598s0.598-0.996,0.598-1.592
			C116.234,67.576,115.238,66.584,114.045,66.584 M114.045,72.154L114.045,72.154c-1.789,0-3.383-1.592-3.383-3.383
			c0-0.996,0.398-1.789,0.996-2.387s1.395-0.996,2.387-0.996c1.791,0,3.385,1.594,3.385,3.383c0,0.994-0.398,1.791-0.996,2.389
			C115.836,71.756,115.039,72.154,114.045,72.154"/>
		<path fill="#4681A7" d="M45.014,72.752c1.592,0,2.785,1.191,2.785,2.785c0,1.59-1.193,2.783-2.785,2.783
			c-1.59,0-2.785-1.193-2.785-2.783C42.229,73.943,43.424,72.752,45.014,72.752 M45.014,79.715c2.387,0,4.377-1.992,4.377-4.178
			c0-2.387-1.99-4.178-4.377-4.178s-4.377,1.99-4.377,4.178C40.637,77.922,42.627,79.715,45.014,79.715"/>
		<path fill="#4681A7" d="M41.633,81.307c0.396,0.398,0.596,0.793,0.994,1.191C43.225,82.1,44.02,82.1,44.814,82.1
			c2.984,0,5.57,2.387,5.57,5.373c0,0.398,0,0.598,0,0.994h1.395c0-0.396,0-0.596,0-0.994c0-3.779-3.184-6.764-6.965-6.764
			C43.82,80.51,42.627,80.709,41.633,81.307"/>
		<path fill="#4681A7" d="M41.83,88.268h1.395c0-4.773-3.98-8.553-8.754-8.553c-4.775,0-8.754,3.779-8.754,8.553h1.393
			c0-3.98,3.182-7.16,7.361-7.16C38.447,81.107,41.83,84.287,41.83,88.268"/>
		<path fill="#4681A7" d="M34.471,69.766c1.988,0,3.779,1.594,3.779,3.584c0,1.988-1.592,3.578-3.779,3.578
			c-1.99,0-3.781-1.59-3.781-3.578C30.689,71.359,32.48,69.766,34.471,69.766 M34.471,78.32c2.785,0,5.172-2.189,5.172-4.971
			c0-2.787-2.188-4.977-5.172-4.977c-2.785,0-5.174,2.189-5.174,4.977C29.297,76.131,31.686,78.32,34.471,78.32"/>
		<path fill="#4681A7" d="M18.557,88.268c0-0.396,0-0.596,0-0.994c0-2.986,2.584-5.373,5.568-5.373c0.797,0,1.592,0.199,2.189,0.398
			c0.199-0.398,0.598-0.793,0.994-1.191c-0.994-0.398-1.99-0.797-3.184-0.797c-3.779,0-6.963,2.984-6.963,6.764
			c0,0.398,0,0.598,0,0.996h1.395V88.268z"/>
		<path fill="#4681A7" d="M23.926,72.752c1.592,0,2.787,1.191,2.787,2.785c0,1.59-1.195,2.783-2.787,2.783s-2.785-1.193-2.785-2.783
			C21.141,73.943,22.334,72.752,23.926,72.752 M23.926,79.715c2.389,0,4.377-1.992,4.377-4.178c0-2.387-1.988-4.178-4.377-4.178
			c-2.387,0-4.375,1.99-4.375,4.178C19.551,77.922,21.539,79.715,23.926,79.715"/>
		<path fill="none" stroke="#4681A7" stroke-width="0.402" d="M76.447,104.383c-0.598-0.199-1.195-0.398-1.99-0.398
			c-3.184,0-5.768,2.588-5.768,5.768c0,3.186,2.584,5.77,5.768,5.77c3.182,0,5.768-2.584,5.768-5.77
			c0-0.797-0.195-1.391-0.395-1.988l-5.373,1.988L76.447,104.383z"/>
		<path fill="none" stroke="#4681A7" stroke-width="0.402" d="M78.236,102.789l-1.789,4.975l4.971-1.789
			C81.418,105.975,81.021,103.387,78.236,102.789z"/>
	</g>
</g>
</svg>
