<?xml version="1.0" encoding="utf-8"?>
<!-- Generator: Adobe Illustrator 16.0.0, SVG Export Plug-In . SVG Version: 6.00 Build 0)  -->
<!DOCTYPE svg PUBLIC "-//W3C//DTD SVG 1.1//EN" "http://www.w3.org/Graphics/SVG/1.1/DTD/svg11.dtd">
<svg version="1.1" id="Layer_1" xmlns="http://www.w3.org/2000/svg" xmlns:xlink="http://www.w3.org/1999/xlink" x="0px" y="0px"
	 width="100px" height="100px" viewBox="0 0 100 100" enable-background="new 0 0 100 100" xml:space="preserve">
<g>
	<g>
		<circle fill="none" stroke="#4681A7" cx="50" cy="50.296" r="26.249"/>
	</g>
	<path fill="none" stroke="#4681A7" stroke-dasharray="4.135,4.135" d="M66.365,62.57"/>
	<path fill="none" stroke="#4681A7" stroke-dasharray="4.135,4.135" d="M35.342,62.57"/>
	<g>
		<path fill="#4681A7" d="M55.547,60.092h-0.09l-6.131,1.623c-0.994,0.27-2.074,0.094-2.889-0.545l-6.58-5.133
			c0.539-0.363,1.264-0.545,1.805-0.275l0.27,0.088l3.604,1.629c-0.18,0.182-0.266,0.357-0.451,0.539
			c-0.268,0.363-0.268,0.814-0.088,1.26c0.273,0.451,0.721,0.633,1.172,0.633l5.594-0.363c0.178,0,0.355-0.176,0.355-0.357
			s-0.178-0.357-0.355-0.357l-5.594,0.357c-0.182,0-0.359-0.088-0.451-0.27c0-0.088-0.092-0.27,0-0.451
			c0.27-0.451,0.631-0.721,0.721-0.721c1.266-0.633,4.781-2.168,5.949-2.168c1.264-0.088,3.16,1.084,3.16,1.084
			c0.09,0,0.09,0.094,0.18,0.094h1.262v3.422L55.547,60.092L55.547,60.092z M43.373,55.223c0.541-0.275,1.264-0.275,1.803,0
			l2.076,1.172c-0.455,0.182-0.904,0.363-1.084,0.451l-3.246-1.535L43.373,55.223z M46.889,55.041
			c0.545-0.182,1.084-0.094,1.535,0.182l0.721,0.451c-0.359,0.176-0.721,0.27-1.082,0.445l-1.535-0.896L46.889,55.041z
			 M60.598,63.432h-2.977v-9.293h2.977c0.178,0,0.359-0.182,0.359-0.357c0-0.182-0.182-0.363-0.359-0.363H57.26
			c-0.182,0-0.361,0.182-0.361,0.363v2.068h-1.082c-0.453-0.27-2.166-1.166-3.516-1.078c-0.455,0-1.264,0.27-2.166,0.539
			l-1.17-0.721c-0.633-0.357-1.443-0.451-2.168-0.182l-0.988,0.363l-0.184-0.088c-0.719-0.363-1.711-0.451-2.43-0.094l-0.994,0.451
			l-0.092-0.094c-1.082-0.445-2.252-0.088-2.977,0.727c-0.086,0.088-0.086,0.176-0.086,0.27s0.086,0.176,0.178,0.27l6.943,5.408
			c0.721,0.545,1.535,0.908,2.438,0.908c0.359,0,0.721-0.094,1.172-0.182l6.129-1.629h1.262v3.07c0,0.182,0.18,0.363,0.361,0.363
			h3.338c0.178,0,0.359-0.182,0.359-0.363S60.775,63.432,60.598,63.432"/>
		<path fill="#4681A7" d="M58.883,55.58c0,0.27,0.27,0.539,0.545,0.539c0.27,0,0.533-0.27,0.533-0.539s-0.264-0.539-0.533-0.539
			C59.152,55.041,58.883,55.311,58.883,55.58"/>
		<path fill="#4681A7" d="M42.473,40.254c0-2.975,2.434-5.408,5.41-5.408c2.973,0,5.406,2.434,5.406,5.408
			c0,2.973-2.434,5.41-5.406,5.41C44.906,45.664,42.473,43.227,42.473,40.254 M47.521,50.174c-1.443,0.902-2.795,0.451-3.516-0.545
			c-0.361-0.449-0.902-1.078-1.264-1.621c0.992,0.27,2.613,0.812,3.516,1.621c0.09,0.096,0.18,0.096,0.18,0.096
			c0.09,0,0.182,0,0.27-0.096c0.09-0.18,0.09-0.355,0-0.449c-0.812-0.721-2.162-1.262-3.242-1.623
			c3.154-0.178,3.969,2.072,4.057,2.348V50.174z M50.043,47.648c1.082-0.902,2.617-1.445,4.602-1.445
			c-3.877,1.264-5.41,3.426-5.5,3.521c-0.09,0.18-0.09,0.357,0.09,0.449c0.092,0,0.092,0.09,0.184,0.09
			c0.086,0,0.178-0.09,0.27-0.182c0,0,1.801-2.434,6.309-3.605c-0.359,0.539-0.811,1.262-1.352,2.344
			c-0.719,1.354-2.436,3.336-6.221,1.623C48.424,49.988,48.785,48.639,50.043,47.648 M48.246,52.697v-1.533
			c1.08,0.451,1.98,0.633,2.791,0.633c2.438,0,3.701-1.715,4.148-2.617c1.08-2.164,1.803-2.977,1.893-2.977l0,0
			c0,0,0.09-0.088,0.09-0.178l0,0v-0.092l0,0l0,0l0,0c0,0,0-0.09-0.09-0.09l0,0c0,0-0.09-0.088-0.18-0.088l0,0
			c-3.152-0.361-5.592,0.178-7.211,1.531c-0.633,0.539-1.082,1.172-1.355,1.711v-2.521c3.156-0.182,5.682-2.795,5.682-6.041
			c0-3.34-2.707-6.041-6.041-6.041c-3.336,0-6.041,2.701-6.041,6.041c0,3.246,2.525,5.859,5.682,6.041v2.344
			c-0.816-0.994-2.529-2.254-5.773-1.441l0,0l0,0l0,0c0,0-0.09,0-0.09,0.088l0,0c0,0,0,0.09-0.088,0.09l0,0l0,0l0,0v0.092l0,0
			c0,0.09,0,0.09,0.088,0.09l0,0c0,0,1.354,1.621,1.895,2.436c0.539,0.721,1.531,1.262,2.523,1.262c0.539,0,0.99-0.09,1.535-0.359
			v1.709"/>
		<path fill="#4681A7" d="M47.613,42.867h0.719v-0.721c0.723-0.18,0.994-0.721,0.994-1.264c0-0.629-0.271-0.99-0.902-1.35
			l-0.451-0.27c-0.359-0.182-0.539-0.361-0.539-0.631c0-0.182,0.18-0.363,0.629-0.363c0.453,0,0.723,0.182,0.812,0.273l0.27-0.721
			c-0.09-0.092-0.359-0.273-0.812-0.367v-0.721h-0.719v0.721c-0.725,0.094-1.086,0.545-1.086,1.176c0,0.633,0.27,0.902,0.906,1.354
			l0.449,0.27c0.363,0.27,0.449,0.359,0.449,0.721c0,0.182-0.178,0.359-0.629,0.359s-0.814-0.27-0.996-0.451l-0.27,0.721
			c0.182,0.092,0.545,0.451,1.176,0.451V42.867z"/>
	</g>
</g>
</svg>
