<?xml version="1.0" encoding="utf-8"?>
<!-- Generator: Adobe Illustrator 16.0.0, SVG Export Plug-In . SVG Version: 6.00 Build 0)  -->
<!DOCTYPE svg PUBLIC "-//W3C//DTD SVG 1.1//EN" "http://www.w3.org/Graphics/SVG/1.1/DTD/svg11.dtd">
<svg version="1.1" id="Layer_1" xmlns="http://www.w3.org/2000/svg" xmlns:xlink="http://www.w3.org/1999/xlink" x="0px" y="0px"
	 width="800px" height="413.102px" viewBox="0 92.602 800 413.102" enable-background="new 0 0 800 600" xml:space="preserve">
<g id="Ebene_2_4_" opacity="0.2">
	<!-- <rect x="191.672" y="92.602" fill="#4681A7" width="419.047" height="413.102"/> -->
	<path fill="#816661" d="M479.281,505.328c0,0-1.148-84.508-28.359-99.062c4.023-22.805-1.539-55.953,5.938-76.641
		c4.977-13.805-32.188,2.289-32.188,2.289s-10.742-4.398-9.195,4.023c4.586,27.406,22.789,83.547,22.789,83.547l36.797,87.953
		L479.281,505.328z"/>
	<path fill="#816661" d="M406.078,344.953c-2.492,27.781,0.195,73.375,0.195,73.375l7.094,66.305l13.023,4.219
		c5.367-25.68,10.539-66.305-4.406-80.102c9.586-20.875,9.773-37.938,22.227-55.945c8.43-12.266-28.734-22.609-28.734-22.609
		S406.852,336.516,406.078,344.953"/>
	<path fill="#341D0F" d="M355.109,161.391c0,0-5.938-3.828-10.727,5.172c-4.977,9.578,6.328,21.078,6.328,21.078L355.109,161.391z"
		/>
	<path fill="#816661" d="M295.328,220.781l14.758,32.578l10.539-4.406c0,0-22.992-32.766-22.992-33.914L295.328,220.781z"/>
	<path fill="#164673" d="M386.344,206.039c0,0-18.391-1.156-28.359,24.141c-5.938,14.758-29.125,30.078-29.125,30.078l-8.43-11.875
		l-10.156,5.172c0,0,3.836,7.852,6.516,13.602c5.945,12.453,12.836,10.922,19.93,6.703c5.945-3.445,15.133-10.539,30.469-21.078
		C362.773,232.469,386.344,206.039,386.344,206.039"/>
	<path fill="#164673" d="M421.414,287.461c0,0-49.438-3.445-53.461-40.039c-2.875-26.25,10.344-39.094,10.344-39.094
		L421.414,287.461z"/>
	<path fill="#FFFFFF" d="M378.102,203.352c0,0-11.68,55.188,18.969,71.852c9.586,9.969,14.758,16.094,17.633,19.922v-0.18
		c0,0,5.359,1.336,12.648,1.336c2.867,0,5.938-0.195,9-0.773l7.859-22.031c0.383-1.336,1.734-2.109,2.875-2.109
		c0.375,0,0.766,0,0.953,0.195l1.344,0.383c-5.367-9.578-11.875-22.992-18.578-40.617c-21.859-1.344-9.969-28.172-29.906-28.555
		c-1.336,0-3.055,0-4.781,0C388.07,203.156,378.102,203.352,378.102,203.352"/>
	<path fill="#9EC6D3" d="M421.414,299.922c0,0-9.586-15.133-21.656-26.25c-12.453-11.5-10.922-20.891-10.922-20.891
		s0,4.984,11.5,18.969c12.453,14.953,25.297,27.406,25.297,27.406L421.414,299.922z"/>
	<path fill="#164673" d="M455.133,280.375c-12.648-18.391-19.938-39.086-22.227-49.438c-24.328-4.203-10.734-27.203-10.922-29.312
		c-9.969-1.141-21.461,0.391-33.336,0.391c-5.367,31.227-11.312,34.102,30.273,89.664
		C444.211,289.953,453.992,281.141,455.133,280.375"/>
	<path fill="#9EC6D3" d="M381.555,233.43c0,0-0.578-12.07,0.383-24.898c-0.578,0-7.859-1.352-9.391-0.961
		C366.422,222.133,381.555,233.43,381.555,233.43"/>
	<path fill="#554B48" d="M358.758,189.75c0.57,3.445-3.648,6.312-6.711,7.664c-5.172,2.109-6.898,1.914-7.664,2.68
		c6.703-0.188,18.586,4.789,32.383,16.664c0,4.602,1.727,13.422,4.789,17.82c5.172-6.125,1.727-27.586,1.727-32.375
		c-8.625-6.703-6.516-12.836-6.711-13.797l-16.094-16.664C360.477,171.352,356.648,178.062,358.758,189.75"/>
	<path fill="#816661" d="M345.344,200.094c4.023,0.391,7.477,0.391,10.531-1.344c4.023-2.484,6.328-10.734,6.328-10.734
		s3.258-1.719,3.641-4.398c0.188-2.688,0.961-4.023-3.445-5.758c-6.523-2.672,0.188-10.719,0.188-10.719l-4.211-3.836
		c0,0-2.688-0.961-4.219,0.953c-1.914,2.305-6.516,6.711-7.859,13.992c-3.062,3.828-5.172,6.898-5.172,6.898s0,0.961,1.148,1.148
		c0.961,0.188,1.344,1.148,1.344,1.148s-0.188,1.148-1.344,2.109c0,0.57,0.188,1.344,0.961,1.914
		c-0.57,0.195-0.57,0.969-0.773,1.344c1.734,2.297-1.141,4.984,0.391,6.516C343.039,199.906,343.617,199.906,345.344,200.094"/>
	<path fill="#3A3D57" d="M347.453,180.547c0,0.383,0,0.578,1.148,0.773c1.148,0.188,2.484,0.188,3.641,0
		c0.188,0-1.727-0.773-4.219-2.5c-0.766-0.57-0.383,0.195-0.195,0.578C347.453,179.594,347.453,180.172,347.453,180.547"/>
	<path fill="#9EC6D3" d="M389.023,201.047c0,0,0.391,9.203,4.219,15.531c-4.406,1.336-5.555,3.062-5.555,3.062
		s1.727,2.109,8.047,5.555c-7.477,7.664-11.109,22.805-10.352,31.414c-7.086-19.156-5.172-40.031,0.766-55.367
		C388.07,201.625,389.023,201.047,389.023,201.047"/>
	<path fill="#164673" d="M281.914,217.531c-0.953,2.875,0.773,6.133,4.031,7.273l2.109,0.773c3.25,1.156,6.508-0.383,7.469-3.445
		l10.734-31.625c0.953-2.867-0.773-6.133-4.031-7.273l-2.109-0.773c-3.25-1.141-6.508,0.383-7.469,3.445L281.914,217.531z"/>
	<path fill="#816661" d="M282.875,215.039c0,0-1.336-0.773-2.297-1.148c-1.344-0.578-0.57-2.297,0.383-2.297
		c-0.383-0.195-0.766-0.578-0.383-1.531c0.195-0.961,1.148-0.961,1.148-0.961s-0.578-0.391-0.383-1.148
		c0.383-1.156,1.531-0.961,1.914-0.773c0.383,0.195,3.641,1.148,4.219,1.352c0,0.375-0.578,1.336-1.148,1.336
		c0.188,0.195,0.57,0.383,0.57,0.953c-0.188,0.578-0.953,0.578-0.953,0.578s0.57,0.578,0.383,1.148c0,0.188-0.578,0.383-0.961,0.578
		c-0.766,0.188-1.727,0.188-1.727,0.188L282.875,215.039z"/>
	<path fill="#C9E1EC" d="M232.102,172.695c-0.578,1.539,0.383,3.445,2.297,4.023l1.156,0.383c1.719,0.578,3.633-0.195,4.211-1.914
		l7.086-21.844c0.578-1.531-0.375-3.453-2.297-4.023l-1.148-0.383c-1.727-0.578-3.641,0.188-4.219,1.914L232.102,172.695z"/>
	<path fill="#FCFDF5" d="M318.133,170.969c8.812,2.875,13.414,12.266,10.727,20.891c-2.867,8.805-12.258,13.406-20.883,10.719
		L318.133,170.969z"/>
	<path fill="#C9E1EC" d="M258.352,124.984c22.797,24.141,31.609,36.211,41,39.469c3.258,1.156,17.438,5.938,17.438,5.938
		l-10.344,31.625c0,0-16.281-5.562-18.969-6.516c-9.008-3.266-22.992,2.492-54.992,8.812L258.352,124.984z"/>
	<path fill="#164673" d="M225.586,202.969c-0.383,1.344,0.383,2.875,1.719,3.453l0.391,0.188c1.344,0.383,2.875-0.391,3.445-1.727
		l26.25-80.477c0.383-1.336-0.383-2.875-1.727-3.445h-0.375c-1.344-0.383-2.875,0.383-3.453,1.727L225.586,202.969z"/>
	<path fill="#164673" d="M322.922,196.836c-0.766-0.195-1.148-1.148-0.953-1.727c0.188-0.766,1.148-1.156,1.719-0.953l3.453,1.148
		c-0.578,0.961-1.148,1.719-1.727,2.492L322.922,196.836z"/>
	<path fill="#164673" d="M329.25,189.555l-3.648-1.148c-0.766-0.188-1.141-0.961-0.953-1.727c0.188-0.773,1.148-1.148,1.719-0.953
		l2.883,0.953C329.625,187.445,329.438,188.406,329.25,189.555"/>
	<path fill="#164673" d="M323.5,190.703c0.188-0.766,0.961-1.148,1.727-0.953l3.828,1.336c0,0.195-0.195,0.578-0.195,0.773
		c-0.188,0.578-0.383,1.336-0.766,1.914l-3.633-1.156C323.5,192.438,323.117,191.469,323.5,190.703"/>
	<path fill="#FFFFFF" d="M260.648,134.18c-0.188,0-0.383,0-0.57,0.188c-0.383,0.391-0.383,0.969,0,1.352
		c0.188,0.18,17.242,19.156,27.398,28.359c0.188,0.18,0.188,0.18,0.383,0.18s0.195,0,0.383,0s0.578-0.18,0.766-0.383
		c0.383-0.375,0.383-0.953,0-1.336c-9.961-9.195-27.016-28.164-27.203-28.359C261.227,134.18,260.844,134.18,260.648,134.18"/>
	<path fill="#816661" d="M299.742,220.406c0,0-3.836-1.156-4.414-5.367c-0.375-2.492-2.484-3.445-3.258-4.398
		c-0.766-0.969-1.336-2.109-0.766-2.883c0.578,0.383,1.344,1.148,3.258,1.914c1.344,1.727,2.305,1.922,3.836,3.258
		C300.695,214.844,299.742,220.406,299.742,220.406"/>
	<path fill="#164673" d="M463.375,299.727c18.008,24.914-22.422,56.906,1.141,84.688c-25.664,8.242-44.453,10.93-62.844,6.328
		c0.961-53.648,13.227-95.797,13.227-95.797s21.258,5.742,37.547-5.758C454.555,291.875,460.492,295.508,463.375,299.727"/>
	<path fill="#245D82" d="M488.289,286.125c1.516,0.578,2.477,2.305,1.906,3.828l-9.953,27.977c-0.594,1.539-2.312,2.492-3.844,1.914
		l-40.047-14.18c-1.523-0.562-2.492-2.289-1.914-3.828l9.961-27.977c0.578-1.531,2.305-2.492,3.836-1.914L488.289,286.125z"/>
	<path fill="#FFFFFF" d="M453.398,302.797l8.047-6.133l-2.477,9.773C456.664,305.664,454.75,304.523,453.398,302.797
		 M451.109,293.219c0.383-1.734,1.148-3.266,2.109-4.406l8.047,6.891l-8.43,6.516C451.109,299.727,450.336,296.477,451.109,293.219
		 M437.508,303.562l37.75,13.414l10.531-29.516l-37.75-13.406L437.508,303.562z"/>
	<path fill="#DEA39E" d="M458.773,306.438l2.492-9.773l-8.047,6.133C454.75,304.523,456.664,305.664,458.773,306.438"/>
	<path fill="#99C4D1" d="M462.219,296.086l-2.68,10.352c5.75,1.336,11.695-2.305,13.023-8.047L462.219,296.086z"/>
	<path fill="#C6E7ED" d="M451.109,293.219c-0.773,3.258,0,6.508,1.727,9l8.43-6.516l-8.047-6.891
		C452.258,289.953,451.492,291.484,451.109,293.219"/>
	<path fill="#99C4D1" d="M462.039,295.328l10.719,2.484c1.156-5.938-2.492-11.688-8.43-13.023c-4.023-0.961-8.047,0.383-10.727,3.25
		L462.039,295.328z"/>
	<path fill="#816661" d="M479.086,234.961l-13.609,65.922l4.406,1.336c0,0,12.266-34.875,17.633-51.164
		C492.688,234.578,479.086,234.961,479.086,234.961"/>
	<path fill="#164673" d="M471.992,268.875l5.938-30.648c0,0-33.141-7.664-60.164-11.695c-25.094-3.641-15.906-20.688-15.906-20.688
		s12.07-10.539,34.297,0.195c3.836,1.914,22.227,9,45.227,16.664c3.062,0.961,14.18,6.32,8.812,22.797
		c-1.727,5.375-5.75,15.328-9.773,26.25L471.992,268.875z"/>
	<path fill="#816661" d="M470.266,299.727c0,0,0.195,1.914,0.195,3.648c0,2.109-1.336,8.422-2.297,10.156
		c-0.961,1.719-2.297,3.828-3.258,3.641c-0.961-0.195-0.961-0.773-2.109-0.391c-1.352,0.391-1.531-0.961-3.07-0.383
		c-1.719,0.383-3.062-3.07-3.062-3.07l2.492,0.961c0,0,0.961-3.641,1.531-4.789c0.578-1.148,0.961-2.68,0.961-2.68
		s-5.562,1.727-6.898,1.531c-1.352-0.195-1.719-0.961-1.719-0.961s5.547-1.906,7.461-3.641c1.727-1.148,4.609-3.445,4.984-4.023
		c0.391-0.57,0.766-1.531,0.766-1.531L470.266,299.727z"/>
	<path fill="#341D0F" d="M353.195,156.594c0.195-0.188,0.195-0.188,0.383-0.383c-0.57,0.383-0.961,0.578-1.531,0.961
		C352.43,156.984,352.82,156.789,353.195,156.594 M378.867,162.156c0.203,0.188,0.391,0.383,0.578,0.766l0,0
		c-0.953-1.727-2.484-3.445-4.406-4.984c-2.492-2.109-6.703-4.594-11.492-4.789c-0.773,0-1.344,0-2.109,0.195
		c1.531,0,3.062,0.195,4.594,0.578c0.391,0,0.961,0,1.344,0.18c2.875,0.578,5.75,2.109,8.43,4.602
		C376.961,159.656,377.914,160.812,378.867,162.156 M381.172,163.117C381.172,163.117,381.359,162.922,381.172,163.117
		c0-0.195,0-0.195-0.195-0.195c0,0-0.188,0-0.188,0.195c0,0,0,0,0,0.188l0,0C380.977,163.117,381.172,163.117,381.172,163.117
		 M381.75,164.078L381.75,164.078L381.75,164.078C381.938,164.078,381.938,164.078,381.75,164.078
		C381.938,164.078,381.75,164.078,381.75,164.078 M383.859,163.5L383.859,163.5C383.859,163.305,383.664,163.305,383.859,163.5
		c-0.195-0.195-0.195-0.195-0.195-0.195s0,0-0.195,0c0,0,0,0.195,0.195,0.195H383.859C383.664,163.5,383.859,163.5,383.859,163.5
		 M393.625,162.922c0.383,0,0.961,0,1.344,0.195C394.391,162.922,394.008,162.727,393.625,162.922
		c-0.766-0.195-1.344-0.195-2.109-0.195C392.281,162.727,392.859,162.727,393.625,162.922 M393.438,204.312L393.438,204.312
		c0.188-1.344,0.57-2.688,0.953-4.031v-0.188c0.383-0.961,0.773-1.922,1.148-3.07c0-0.383,0.195-0.758,0.195-1.141
		c0-0.195,0-0.195,0.195-0.391c0.375-0.961,0.766-1.914,1.141-3.055c-0.766,2.289-1.336,4.586-1.719,6.695
		C394.586,201.047,394.008,202.773,393.438,204.312 M400.336,180.547c0-0.195,0-0.375,0-0.578c0,0.203,0,0.203,0,0.383V180.547z
		 M390.18,205.266c-0.195,0.383-0.578,0.953-0.766,1.344c0.188-0.766,0.383-1.344,0.383-1.922c0.383-0.578,0.57-1.141,0.953-1.719
		C390.562,203.734,390.367,204.5,390.18,205.266 M400.898,177.859c0-0.18-0.18-0.18-0.18-0.375c0-0.188,0.18-0.578,0.18-0.766
		c0,0.188,0,0.383,0,0.578C400.898,177.484,400.898,177.68,400.898,177.859 M401.289,174.414L401.289,174.414v-0.383
		c0-1.727-0.758-3.445-1.906-4.977c-0.203-0.383-0.203-0.578-0.391-0.961c0.188,0.188,0.391,0.188,0.391,0.383
		c0.18,0.195,0.375,0.383,0.375,0.578l0.188,0.188l0.195,0.195v0.195l0,0l0,0l0,0l0.195,0.383c0,0.188,0.195,0.375,0.195,0.57
		c0.188,0.383,0.188,0.961,0.367,1.336c0,0.383,0.203,0.961,0.203,1.344C401.289,173.844,401.289,174.031,401.289,174.414
		 M398.414,169.633c0,0.18,0,0.18,0.195,0.383c-0.195-0.203-0.383-0.383-0.578-0.383c-0.188-0.195-0.57-0.391-0.766-0.578
		c-0.195-0.195-0.195-0.383-0.383-0.578l0,0l0,0l0,0l0,0c0,0,0,0.195,0.188,0.195l0,0l0,0
		C397.461,168.477,398.031,169.055,398.414,169.633 M396.305,170.391L396.305,170.391L396.305,170.391
		C396.5,170.391,396.5,170.391,396.305,170.391c0.195,0.195,0.195,0.195,0.195,0.195S396.5,170.586,396.305,170.391
		 M395.539,171.164c0.195,0.188,0.391,0.383,0.578,0.578C395.93,171.742,395.734,171.547,395.539,171.164
		C395.539,171.164,395.352,171.164,395.539,171.164C395.352,171.164,395.539,171.164,395.539,171.164 M394.773,172.695
		L394.773,172.695L394.773,172.695L394.773,172.695L394.773,172.695 M391.906,182.281
		C391.906,182.461,391.906,182.461,391.906,182.281c-0.195,0.953-0.391,1.719-0.578,2.484c-0.195,0.383-0.383,0.961-0.578,1.344
		c0-0.203,0-0.203,0-0.383C391.133,184.766,391.516,183.617,391.906,182.281 M394.586,176.719c0.188,0.383,0.188,0.766,0.188,1.141
		v0.203c0-0.203,0-0.383-0.188-0.578C394.773,177.297,394.773,177.102,394.586,176.719
		C394.586,176.906,394.586,176.719,394.586,176.719 M394.391,178.82L394.391,178.82C394.391,179.016,394.391,179.016,394.391,178.82
		C394.203,178.82,394.391,178.82,394.391,178.82 M393.82,180.547c0,0.195,0.188,0.195,0.188,0.383l-0.57,1.727
		c0-0.375,0-0.578,0-0.953C393.625,181.32,393.82,180.93,393.82,180.547 M385.008,203.93l0.766-1.914
		c-0.195,0.375-0.391,0.953-0.391,1.336c-0.188,0.578-0.375,0.961-0.375,1.531c-0.195,0.383-0.195,0.961-0.383,1.336l0,0
		C384.625,205.648,384.812,204.688,385.008,203.93 M397.844,172.5c0-0.195,0-0.195,0-0.375v-0.203
		c0.188,0.578,0.383,1.352,0.383,1.922C398.031,173.273,397.844,172.883,397.844,172.5 M397.07,175.766
		C397.07,175.57,397.07,175.57,397.07,175.766c0.195,0,0.195,0.188,0.195,0.375s0.195,0.383,0.195,0.766v0.195
		C397.266,176.523,397.266,176.141,397.07,175.766 M386.148,203.547c0.391-0.969,0.766-1.922,1.156-2.883
		c0.383-0.758,0.766-1.531,1.148-2.492c-0.766,2.312-1.539,4.602-2.305,6.906l-1.719,5.742c0-0.18,0-0.18,0-0.383
		c0-0.188,0-0.57,0.195-0.766c0-0.383,0.188-0.57,0.188-0.961c0-0.383,0.195-0.758,0.195-1.141c0-0.195,0-0.391,0.188-0.391
		L386.148,203.547z M394.391,186.109c0.195-0.203,0.195-0.383,0.383-0.578l0,0c-0.188,0.766-0.383,1.727-0.766,2.484v-0.18
		c0-0.195,0.195-0.391,0.195-0.578l0,0c0-0.195,0-0.195,0.188-0.383l0,0C394.203,186.484,394.391,186.297,394.391,186.109
		 M395.734,183.234c0-0.195,0-0.195,0.195-0.383c0,0,0-0.195,0.188-0.195c0,0.195,0,0.383,0,0.766c0,0.195,0,0.195-0.188,0.391
		C395.93,183.617,395.93,183.422,395.734,183.234 M393.82,189.555C393.82,189.367,393.82,189.367,393.82,189.555
		c0-0.188,0-0.383,0-0.383l0,0l0,0C394.008,189.172,394.008,189.367,393.82,189.555 M386.727,207.18
		c0.188,0,0.188-0.188,0.188-0.383l0,0c0,0,0-0.188,0.203-0.375c0-0.203,0.188-0.578,0.375-0.961
		c0.195-0.383,0.391-0.961,0.578-1.531c0.188-0.578,0.578-1.156,0.766-1.914c0.188-0.391,0.383-0.773,0.383-1.156
		c0.195-0.375,0.383-0.766,0.578-1.148c0.383-0.766,0.766-1.719,1.148-2.492c0.188-0.383,0.188-0.578,0.383-0.953
		c0-0.203,0.188-0.203,0.188-0.383c-0.383,1.336-0.953,2.672-1.336,3.828c-0.961,2.305-1.922,4.789-2.875,7.086
		c-0.391,0.578-0.766,1.344-1.156,2.109L386.727,207.18z M398.797,177.484c0-0.188,0.195-0.383,0.195-0.578
		c0,0.195,0.188,0.195,0.188,0.391c0,0.383,0,0.766,0,1.141c0,0.195-0.188,0.383-0.188,0.578l0,0
		C398.992,178.438,398.797,177.859,398.797,177.484 M397.648,182.281L397.648,182.281L397.648,182.281
		C397.648,182.461,397.648,182.461,397.648,182.281 M395.164,169.438L395.164,169.438c-0.195,0-0.195,0-0.195,0
		S394.969,169.438,395.164,169.438 M392.281,175.375c0,0.195,0,0.391,0.195,0.766v0.188c0,0.195,0,0.391-0.195,0.578
		c0,0-0.188,0-0.188-0.188L392.281,175.375z M387.883,187.258L387.883,187.258v0.188c0,0,0,0,0,0.195V187.258z M383.664,197.414
		c0.57-1.352,1.148-2.688,1.719-4.023l-0.375,2.297l0,0c0,0.195,0,0.195-0.195,0.375
		C384.43,196.266,384.047,196.836,383.664,197.414 M381.172,203.352c0.578-1.148,1.344-2.305,2.109-3.445
		c-0.195,0.578-0.383,0.953-0.578,1.531c-0.383,0.953-0.766,1.914-1.148,2.672c-0.195,0.391-0.383,0.969-0.578,1.352
		C380.977,204.883,380.977,204.109,381.172,203.352 M389.984,178.062c0-0.383,0-0.578,0-0.961c0,0,0,0,0.195,0
		C390.18,177.297,389.984,177.68,389.984,178.062 M391.133,174.414L391.133,174.414L391.133,174.414
		C390.945,174.414,390.945,174.414,391.133,174.414 M394.773,165.414c-0.383,0-0.953-0.195-1.336-0.195
		c-0.766-0.188-1.344-0.188-2.109-0.383c0.578,0,1.344-0.188,1.914,0C393.82,165.031,394.203,165.219,394.773,165.414
		 M386.914,175.953C386.914,175.953,387.117,176.141,386.914,175.953L386.914,175.953
		C386.914,176.141,386.914,176.141,386.914,175.953C386.914,176.141,386.914,175.953,386.914,175.953 M385.961,178.062
		c0.188,0.375,0.188,0.758,0.188,1.148c0,0.578,0,1.336-0.188,1.914c0.188-0.773,0-1.336,0-2.109c0-0.383-0.188-0.766-0.188-1.156
		C385.773,178.062,385.773,178.062,385.961,178.062 M388.453,166.945L388.453,166.945c-0.383,0-0.57,0.195-0.766,0.195
		c0,0,0,0,0-0.195C387.883,166.945,388.07,166.945,388.453,166.945 M385.008,179.789
		C385.008,179.789,385.008,179.969,385.008,179.789c0,0.383,0,0.758,0,0.953c0,0.383,0,0.578,0,0.961l0,0c0-0.383,0-0.578,0-0.961
		C384.812,180.547,385.008,180.172,385.008,179.789 M387.883,177.859L387.883,177.859L387.883,177.859L387.883,177.859
		L387.883,177.859 M387.117,180.742c0,0.188,0,0.188,0,0.383s0,0.383,0,0.578c0-0.195,0-0.195,0-0.195s0,0,0-0.188c0,0,0,0,0-0.195
		C387.117,181.125,387.117,180.93,387.117,180.742 M384.43,187.836c0.195-0.578,0.383-0.961,0.766-1.539l0.188-0.391
		c0.195-0.562,0.578-1.141,0.766-1.906c0,0.188,0,0.375,0,0.766c-0.375,0.578-0.766,1.344-0.953,1.914
		C384.812,187.062,384.625,187.445,384.43,187.836 M390.75,173.844h0.195l0,0C390.945,173.844,390.945,173.844,390.75,173.844
		L390.75,173.844z M380.023,202.016c0-0.195,0.188-0.391,0.188-0.578c0,0.383,0,0.766-0.188,1.141
		c-0.195,0.195-0.195,0.578-0.383,0.773c0,0.195,0,0.383,0,0.383c-0.195,0.375-0.383,0.766-0.57,1.336c0,0,0,0,0-0.188
		c0-0.383,0.188-0.57,0.188-0.953C379.445,203.352,379.641,202.578,380.023,202.016 M381.938,197.797
		C381.938,197.602,382.125,197.602,381.938,197.797c0.383-0.578,0.578-0.961,0.766-1.531c0,0,0.195,0,0.195,0.188l0,0l0,0
		c-0.383,0.961-0.773,1.719-1.148,2.492C381.75,198.555,381.938,198.172,381.938,197.797 M386.148,168.672
		C386.148,168.672,385.961,168.672,386.148,168.672c-0.188,0-0.188,0-0.375,0.188l0,0
		C385.773,168.672,385.961,168.672,386.148,168.672L386.148,168.672 M375.422,194.727l-0.188,0.195
		c-0.578,0.578-1.156,1.141-1.727,1.531c-0.195,0.188-0.383,0.188-0.578,0.383l0,0c-1.148,0.766-2.484,1.156-3.828,1.336
		c0.953-0.375,2.109-0.758,3.062-1.336c0.766-0.383,1.539-0.953,2.305-1.531C374.656,195.109,375.039,194.922,375.422,194.727
		 M383.469,165.797L383.469,165.797L383.469,165.797l-0.188,0.188c0,0,0-0.188-0.195-0.188c0,0,0,0,0.195,0
		C383.281,165.797,383.469,165.609,383.469,165.797L383.469,165.797 M381.75,168.859l-0.195,0.195l0,0c0-0.195,0-0.383,0-0.773l0,0
		l0,0v0.195C381.75,168.672,381.75,168.859,381.75,168.859 M376.383,193.391l0.188-0.195l0,0
		C376.383,193.391,376.383,193.391,376.383,193.391 M381.75,166.367L381.75,166.367C381.555,166.367,381.555,166.367,381.75,166.367
		C381.555,166.367,381.555,166.367,381.75,166.367L381.75,166.367 M380.211,170.016
		C380.023,170.016,380.023,170.016,380.211,170.016c-0.188-0.383-0.383-0.773-0.57-1.156h0.188c0,0,0,0,0,0.195v0.188
		C380.023,169.438,380.023,169.812,380.211,170.016 M381.172,165.219C380.977,165.414,380.977,165.414,381.172,165.219
		c-0.195,0.195-0.383,0.195-0.383,0.195l0,0c0,0,0,0,0-0.195H381.172C380.977,165.219,380.977,165.219,381.172,165.219
		 M379.258,165.219c-0.188-0.188-0.391-0.383-0.578-0.766c-0.953-1.336-1.914-2.484-3.062-3.641
		c-2.492-2.492-5.367-4.219-8.43-4.602c-0.383,0-0.961-0.18-1.344-0.18c-1.531-0.391-3.07-0.578-4.602-0.578
		c0.766-0.195,1.344-0.195,2.109-0.195c4.789,0,8.812,2.68,11.5,4.789C376.766,161.586,378.102,163.305,379.258,165.219
		C379.258,165.031,379.258,165.031,379.258,165.219 M361.242,156.594c-0.578,0.195-1.148,0.391-1.719,0.578
		c-1.344,0.195-2.688,0.391-4.023,0.953c0.375-0.375,0.766-0.562,1.148-0.758C357.984,156.789,359.523,156.594,361.242,156.594
		 M355.688,159.094c-0.188,0-0.188,0.188-0.383,0.188c-0.578,0.195-1.148,0.375-1.727,0.578l0,0
		C354.344,159.477,355.109,159.281,355.688,159.094 M364.5,157.172c0.383,0,0.766,0,1.156,0h0.188
		c0.766,0.195,1.531,0.578,2.297,0.766C366.992,157.562,365.656,157.367,364.5,157.172 M358.945,158.516
		c0.188-0.195,0.383-0.195,0.766-0.391c1.344-0.188,2.688-0.188,4.211,0c0.391,0,0.773,0,1.156,0.195c-0.383,0-0.578,0-0.961,0.195
		c-0.766,0-1.344-0.195-2.109-0.195C360.867,158.32,359.898,158.32,358.945,158.516 M353.391,158.516
		c-0.195,0.188-0.195,0.188-0.383,0.383c-0.391,0.195-0.766,0.383-1.156,0.578C352.242,159.094,352.82,158.898,353.391,158.516
		 M397.461,204.312c0.188-1.156,0.188-2.109,0.383-3.266c0.188-1.141,0.383-2.102,0.57-3.25c0.383-2.109,0.766-4.219,1.148-6.328
		c0.195-1.141,0.578-2.102,0.773-3.25l0.766-3.266c0.188-1.141,0.57-2.102,0.57-3.25c0.188-1.156,0.188-2.109,0.188-3.266
		c0-0.188,0-0.375,0-0.578c0.391-1.531,0.391-3.055,0.391-4.586c0-0.578-0.195-0.969-0.195-1.531
		c-0.195-0.578-0.195-0.969-0.383-1.539c0-0.188-0.18-0.188-0.18-0.391c0-0.18,0-0.18,0-0.375c0-0.383-0.203-0.961-0.391-1.344
		c0-0.188-0.203-0.375-0.203-0.57l-0.18-0.383l0,0l0,0l0,0v-0.195l-0.195-0.195l-0.188-0.188c-0.195-0.195-0.391-0.375-0.391-0.578
		c-0.188-0.188-0.383-0.375-0.383-0.375c0.195,0.375,0.383,0.578,0.383,0.953c0.578,0.766,1.156,1.719,1.547,2.688l0,0l0,0
		l-0.203-0.195l-0.188-0.383l-0.203-0.391c-0.18-0.188-0.375-0.375-0.562-0.562c-0.578-0.578-1.344-0.969-1.922-1.352
		c-0.188-0.18-0.383-0.383-0.57-0.57c-1.148-1.148-2.492-1.922-4.023-2.102c-1.727-0.195-3.453,0.18-4.984,0.562h-0.188
		c-0.195,0-0.195,0-0.391,0l0,0l-1.719,0.391l0,0h-0.195c-0.195,0-0.195-0.195-0.383-0.195c-0.188-0.195-0.383-0.195-0.578-0.375
		c-0.375-0.203-0.758-0.203-1.148-0.383c-0.383-0.391-0.953-0.578-1.531-0.391c-0.383,0-0.578,0.195-0.766,0.57
		c-0.383-0.18-0.578-0.18-0.961-0.18c-0.188,0-0.383,0.18-0.57,0.18c-0.961-1.906-2.492-3.641-4.602-5.359
		c-2.68-2.305-7.094-4.977-12.258-4.977c-0.773,0-1.539,0-2.305,0.18c0.195,0,0.383,0,0.383-0.18c-1.531,0-3.062,0.18-4.594,0.57
		c-0.383,0.188-0.766,0.57-1.156,0.766c0.961-0.383,1.922-0.578,2.883-0.766c-0.961,0.383-1.727,0.766-2.492,1.148
		c-2.688,0.773-5.18,2.305-6.898,4.414c-0.195,0.188-0.195,0.562,0,0.758c-0.195,0.195-0.383,0.195-0.578,0.383
		c-0.188,0.195-0.383,0.578-0.188,0.773c0,0.18,0.188,0.18,0.188,0.18h0.195v0.203l0,0c-0.383,0.375-0.766,0.758-1.156,1.336
		c5.945,3.836,16.672,12.07,17.055,21.648c0.578,13.422,4.219,8.242,6.133,8.625c1.531,0.391-4.211,2.875-6.133,5.555l0,0
		c0.383,0,0.961,0,1.344,0s0.953,0,1.344-0.188l0.57-0.195l0.57-0.195h0.203c0.766-0.18,1.531-0.383,2.102-0.562
		c-0.961,0.562-2.102,0.953-3.258,1.141c-0.766,0.195-1.727,0.391-2.68,0.391c-0.195,0-0.383-0.195-0.766-0.195
		c-0.195,0.383-0.391,0.766-0.391,1.156c0.391,0.18,0.578,0.18,0.961,0.18c1.148,0.195,2.297-0.18,3.07-0.383
		c5.359-1.531,10.148-5.172,13.023-9.953c-1.531,3.828-2.875,7.844-4.016,12.062c0,0.203,0,0.578,0.375,0.766l0,0
		c0.391,0,0.578-0.188,0.766-0.383c0-0.383,0.195-0.57,0.195-0.758v-0.195c0,0,0,0,0-0.195c0.383-1.719,0.961-3.453,1.531-4.984
		c0,0.195,0,0.195,0.195,0.383c-0.195,0.578-0.383,0.969-0.578,1.531c-0.375,0.773-0.578,1.539-0.766,2.305
		c-0.188,0.383-0.188,0.578-0.383,0.961c0,0.195,0,0.195,0,0.383s-0.195,0.57-0.195,0.766c0,0.383-0.188,0.578-0.188,0.961
		s-0.188,0.57-0.188,0.758c-0.195,0.578-0.195,0.961-0.195,1.352c0,0.383-0.195,0.758-0.195,0.953c0,0.188,0,0.383,0,0.383
		s0,0,0,0.195v0.188c-0.188,0.773-0.375,1.531-0.375,2.109c0,0.195,0.188,0.57,0.375,0.57c0,0,0,0,0.195,0
		c0.383,0,0.57-0.188,0.57-0.57c0.195-1.539,0.578-3.07,1.156-4.602c0,0.773,0,1.727,0,2.492l0,0
		c-0.188,0.57-0.578,1.148-0.578,1.531c-0.383,0.961-0.578,1.352-0.578,1.352s0,0,0,0.18c0,0.383,0.195,0.773,0.578,0.773
		c0.188,0,0.578-0.195,0.578-0.391l0,0c0,0,0.188-0.383,0.383-1.141l0.188,0.188h0.195c0.383,0,0.57-0.188,0.57-0.57
		c0-0.969,0-1.922,0-2.883c0-0.188,0.195-0.375,0.195-0.578c0.383-0.758,0.57-1.531,0.961-2.484c0.375-0.766,0.766-1.719,1.148-2.68
		s0.953-1.922,1.336-2.883c0.195-0.18,0.195-0.57,0.391-0.758c0,0,0,0,0.188,0c0,0,0,0.188-0.188,0.188
		c-1.539,3.453-3.266,6.898-3.648,10.727l-0.57,1.352c-0.195,0.188,0,0.57,0.188,0.758l0,0c0.195,0.203,0.578,0,0.766-0.375
		l0.578-1.352c0,0,0-0.18,0.188-0.18l0.773-1.922h0.188c0,0,0,0,0.195,0c0.188,0,0.383,0,0.383-0.188
		c0,0.375-0.195,0.758-0.195,0.953c-0.188,0.766-0.383,1.336-0.383,1.914c-0.188,0.578-0.188,0.961-0.188,1.148
		c0,0.203,0,0.383,0,0.383l0,0c0,0.383,0.188,0.578,0.57,0.578l0,0l-1.344,4.406c0,0.391,0,0.57,0.391,0.773l0,0
		c0.383,0,0.57,0,0.766-0.383l0.57-1.93c0,0.203,0,0.391,0,0.578c0,0.391,0.195,0.578,0.578,0.578s0.578-0.188,0.578-0.578
		c0-2.867,1.336-5.555,2.875-8.234l0,0c-0.195,0.57-0.195,1.148-0.391,1.539c-0.188,0.383-0.375,0.562-0.578,0.953
		c-0.375,0.766-0.57,1.336-0.766,1.719c-0.188,0.383-0.188,0.578-0.188,0.578l0,0c0,0.383,0,0.578,0.383,0.773
		c0.195,0,0.57,0,0.57-0.391c0,0.195,0,0.195,0,0.391c0,0.188,0.203,0.562,0.391,0.562c0,0,0,0,0.188,0
		c0.391,0,0.578-0.188,0.578-0.562c0.188-1.734,0.578-3.266,0.766-4.992c0.188-0.188,0.188-0.383,0.383-0.57
		c0.188-0.188,0.188-0.391,0.383-0.766c-0.195,1.148-0.383,2.484-0.578,3.641c0,0.195,0.195,0.578,0.391,0.578c0,0,0,0,0.188,0
		c0.383,0,0.578-0.195,0.578-0.578c0.383-2.688,0.953-5.172,1.531-7.664c0.383-0.961,0.766-1.914,1.344-2.875
		c0.383-0.953,0.953-2.109,1.336-3.258c0,0.195-0.188,0.375-0.188,0.375c-0.195,0.391-0.195,0.773-0.383,1.156
		c-0.195,0.383-0.195,0.773-0.383,1.156c-0.195,0.375-0.195,0.758-0.383,1.148c0,0.383-0.195,0.758-0.195,0.961
		c-0.188,0.57-0.383,1.336-0.383,1.906c-0.195,0.578-0.195,1.156-0.383,1.719c0,0.578-0.188,0.969-0.188,1.547
		c0,0.188,0,0.383,0,0.562c0,0.203,0,0.391,0,0.578c0,0.383,0,0.578,0,0.961c0,0.391,0,0.773,0,0.773l0,0
		c0,0.375,0.188,0.57,0.57,0.57c0.195,0,0.578-0.391,0.578-0.57l0,0c0,0,0-0.203,0-0.773c0-0.188,0-0.578,0-0.766
		c0-0.195,0-0.383,0-0.57c0-0.203,0-0.383,0-0.578c0-0.383,0-0.961,0.188-1.344c0-0.188,0-0.375,0-0.57
		c0,0.195,0.195,0.195,0.195,0.195l0,0c0.188,0.188,0.57,0,0.766-0.391c0.383-0.766,0.57-1.344,0.961-2.109
		c0.188,0,0.57-0.188,0.57-0.383c0.195-0.961,0.383-1.914,0.57-2.867c0.961-2.875,1.727-5.938,2.492-8.82
		c0.195-0.961,0.586-1.719,0.961-2.68l-0.766,3.07c-0.578,2.102-0.961,4.211-1.344,6.32c-0.188,1.148-0.383,2.109-0.578,3.258
		l-0.57,3.25l0,0c0,0.383,0.195,0.578,0.57,0.578C397.266,204.883,397.461,204.5,397.461,204.312"/>
</g>
</svg>
