<?xml version="1.0" encoding="utf-8"?>
<!-- Generator: Adobe Illustrator 16.0.0, SVG Export Plug-In . SVG Version: 6.00 Build 0)  -->
<!DOCTYPE svg PUBLIC "-//W3C//DTD SVG 1.1//EN" "http://www.w3.org/Graphics/SVG/1.1/DTD/svg11.dtd">
<svg version="1.1" id="Layer_1" xmlns="http://www.w3.org/2000/svg" xmlns:xlink="http://www.w3.org/1999/xlink" x="0px" y="0px"
	 width="800px" height="413.799px" viewBox="0 93.784 800 413.799" enable-background="new 0 0 800 600" xml:space="preserve">
<g>
	<rect x="206.388" y="93.784" fill="#6D99BA" width="388.326" height="413.799"/>
	<path fill="#F4F8F8" d="M570.049,203.997l-5.973,5.568l0.797,0.797l5.973-5.568L570.049,203.997z M231.058,443.12l-4.378,6.37
		l1.19,0.797l4.378-6.37L231.058,443.12z M238.216,432.779l-4.772,6.76l1.191,0.797l4.776-6.76L238.216,432.779z M244.979,422.43
		l-4.776,6.764l1.2,0.797l4.771-6.764L244.979,422.43z M252.143,412.084l-4.772,6.77l1.191,0.797l4.777-6.77L252.143,412.084z
		 M259.305,401.744l-4.771,6.764l1.19,0.792l4.776-6.759L259.305,401.744z M333.311,392.195v1.19h8.358v-1.19H333.311z
		 M320.979,392.195v1.19h8.353v-1.19H320.979z M308.641,392.195v1.19h8.358v-1.19H308.641z M295.909,392.195v1.19h8.358v-1.19
		H295.909z M283.577,392.195v1.19h8.358v-1.19H283.577z M271.244,392.195v1.19h8.353v-1.19H271.244z M265.67,392.195l-4.378,6.365
		l1.195,0.797l3.98-5.972h0.792v-1.19H265.67z M352.807,389.41l-4.378,2.785h-2.785v1.19h3.183l4.777-2.784L352.807,389.41z
		 M363.55,382.646l-7.162,4.373l0.797,1.191l7.162-4.369L363.55,382.646z M373.891,375.883l-7.158,4.373l0.792,1.195l7.162-4.378
		L373.891,375.883z M384.236,369.119l-7.158,4.373l0.792,1.199l7.163-4.387L384.236,369.119z M394.581,362.35l-1.589,1.195
		l-5.568,3.586l0.792,1.191l5.573-3.582l1.589-1.195L394.581,362.35z M404.533,354.789l-6.765,5.175l0.792,1.195l6.764-5.171
		L404.533,354.789z M414.475,347.232l-6.759,5.176l0.797,1.189l6.759-5.17L414.475,347.232z M424.422,340.07l-6.76,5.17l0.797,1.195
		l6.76-5.166L424.422,340.07z M434.373,332.115l-1.992,1.992l-4.378,3.178l0.797,1.191l4.378-3.178l1.992-1.988L434.373,332.115z
		 M443.528,323.758l-5.972,5.568l0.787,0.797l5.972-5.568L443.528,323.758z M452.279,315.404l-5.977,5.568l0.797,0.797l5.973-5.568
		L452.279,315.404z M461.425,306.648l-5.972,5.568l0.797,0.797l5.972-5.568L461.425,306.648z M470.58,298.295l-5.973,5.568
		l0.797,0.797l5.968-5.573L470.58,298.295z M479.725,289.942l-5.962,5.568l0.797,0.797l5.962-5.568L479.725,289.942z
		 M488.875,281.186l-5.963,5.569l0.797,0.797l5.963-5.569L488.875,281.186z M497.631,272.833l-5.962,5.568l0.797,0.797l5.962-5.568
		L497.631,272.833z M506.781,264.076l-5.963,5.574l0.797,0.792l5.963-5.569L506.781,264.076z M515.936,255.724l-5.967,5.568
		l0.792,0.797l5.972-5.568L515.936,255.724z M524.688,246.967l-5.963,5.574l0.793,0.792l5.967-5.569L524.688,246.967z
		 M533.842,238.216l-5.972,5.568l0.797,0.797l5.972-5.573L533.842,238.216z M542.997,229.862l-5.972,5.569l0.797,0.797l5.972-5.574
		L542.997,229.862z M551.748,221.106l-5.972,5.568l0.792,0.797l5.973-5.573L551.748,221.106z M560.894,212.753l-5.972,5.569
		l0.797,0.797l5.972-5.574L560.894,212.753z"/>
	<g>
		<path fill="#F4F8F8" d="M511.558,263.678c0-1.987-1.186-3.581-3.183-3.581c-1.987,0-3.581,1.195-3.581,3.188
			c0,1.987,1.19,3.577,3.188,3.577C509.969,267.259,511.558,265.67,511.558,263.678"/>
		<path fill="#F4F8F8" d="M435.963,334.9c0-1.988-1.191-3.582-3.184-3.582s-3.581,1.195-3.581,3.184c0,1.992,1.19,3.58,3.183,3.58
			S435.963,336.494,435.963,334.9"/>
		<path fill="#F4F8F8" d="M352.01,392.987c0-1.983-1.195-3.577-3.183-3.577s-3.582,1.191-3.582,3.188
			c0,1.983,1.195,3.572,3.183,3.572S352.01,394.975,352.01,392.987"/>
		<path fill="#F4F8F8" d="M269.65,392.987c0-1.983-1.195-3.577-3.183-3.577s-3.582,1.191-3.582,3.188
			c0,1.983,1.195,3.572,3.183,3.572C267.658,396.17,269.65,394.975,269.65,392.987"/>
		<path fill="#F4F8F8" d="M231.058,449.889c0-1.992-1.195-3.586-3.188-3.586c-1.987,0-3.576,1.195-3.576,3.188
			c0,1.988,1.19,3.582,3.178,3.582C229.065,453.072,230.659,451.877,231.058,449.889"/>
		<path fill="#F4F8F8" d="M582.381,207.578c-1.594,5.967-7.959,9.947-13.922,8.353c-5.972-1.589-9.946-7.955-8.353-13.922
			c1.584-5.967,7.954-9.947,13.922-8.358C580.389,194.847,583.975,201.212,582.381,207.578"/>
		<path fill="#574241" d="M336.893,294.315l0.797-0.398c0,0,0.792-0.398,0.792-0.797c0.797-0.398,2.391-0.792,3.581-2.386
			c0.797,0.797-1.19,1.987-1.594,3.581c0.403-0.398,0.403-0.398,0.797-1.594c1.594-0.394,2.391-0.394,3.183-1.19
			c0.398,0-1.19,1.589-1.19,2.386c-0.398,0.398-0.797,1.195-1.195,1.594c-0.394,0-1.594,0.398-2.386,0.398c-1.195,0-1.594,0-1.594,0
			h-1.19V294.315z"/>
		<path fill="#574241" d="M337.291,234.634c0,0-0.398,0.797-0.797,1.195s-4.777,1.988-4.777,1.988s0.398,0.797,1.594,0.398
			c1.191-0.398,1.191,0,1.191,0s-1.191,2.784-1.589,3.183c-0.398,0.797-0.398,1.195-0.398,1.589l0.398,0.398c0,0,0.398,0,1.988-1.19
			c-0.398,0.398-1.191,1.987-0.398,1.987c0.398,0,1.594-1.987,1.594-2.386c0.398-0.398,0.797-1.195,1.594-2.386
			c0.394-0.797,1.19-2.391,1.19-2.391l0.797-1.191L337.291,234.634z"/>
		<path fill="#21366A" d="M354.002,199.619l-2.391,12.337l-14.719,22.678l2.386,1.988c0,0,14.325-15.914,16.711-18.699
			s4.378-7.561,5.17-11.541c0.797-3.975,3.188-17.901,3.188-17.901L354.002,199.619z"/>
		<path fill="#574241" d="M328.534,238.216c0,0-1.589-0.797-1.589-0.398c-0.398,1.19-2.386,3.183-3.183,3.581
			c-0.403,0.398-0.403,1.195-0.403,1.987c0,1.195,0.403,1.195,0.797,2.391c0,0.398,1.2,1.19,1.594,1.589
			c0,0.398,0.797,0,0.797-0.398c0.398-0.394,0.398-0.394,0.792-0.394c0.398-0.398,0-0.398,0.398-0.797s0.797,0,0.797-0.797
			c0-0.398,0.398-1.594,0.398-2.386c0-1.195,0-1.992,0-1.992l0.398-1.987L328.534,238.216z"/>
		<path fill="#5A505B" d="M328.534,241.797c-0.398,0.398-3.178,1.589-4.378,1.589c-0.797,0-1.19,0-1.19-0.792
			c-0.398,0-0.797,0.792-0.797,1.19c0,0.797,0.398,3.581,0,4.776c-0.398,0.398,1.19,0.792,1.19,0.792l0.797,0.398l1.2-1.988
			c0,0,0.394-0.398,1.19-1.19c0.792-0.797,1.19-0.797,1.987-1.195c0.398-0.398,1.195-0.797,1.195-1.195s0-0.398,0-1.195
			c0-0.394-0.398-0.394,0-1.19S329.331,241,328.933,241C328.534,241.398,328.534,241.398,328.534,241.797"/>
		<path fill="#574241" d="M328.136,245.378c0,0-0.398-0.797-0.797-1.195c-0.394-0.398-0.792-0.398-0.792-0.398v0.398h-0.398
			c-0.398,0.398,0,0.398,0,0.398h-0.398v0.398h-0.394c0,0.398,0,0.398,0,0.398l0.792,1.195c0,0,0.398,0.394,0.398,0
			C326.148,247.764,328.136,245.378,328.136,245.378"/>
		<path fill="#574241" d="M324.56,243.386c-0.403,0.398,0,1.594-0.403,2.391c-0.394,0.398-0.797,0.398-0.797,0.398
			s0-1.594-0.394-2.391c-0.398-1.19,0-1.589,0-1.589S324.953,242.987,324.56,243.386"/>
		<path fill="#21366A" d="M294.714,296.308l19.898,3.178l22.28-5.569l0.797,2.789c0,0-15.919,6.755-18.305,7.552
			c-2.386,0.797-5.171,1.594-6.366,1.594c-1.992,0-20.69,0.402-20.69,0.402L294.714,296.308z"/>
		<path fill="#F4F8F8" d="M303.471,435.963c11.536-8.757,53.714-36.605,53.714-36.605s17.109,17.109,33.422,21.881
			c15.909,4.772,32.222,3.188,32.625-3.975c0.394-5.972-13.528-10.744-43.768-20.695c-30.239-9.951-52.125-28.246-48.539-70.026
			c3.577-40.978,38.194-56.892,64.852-62.466v-22.279h33.422c0,0,0,15.914,0,21.881c16.711,1.594,44.564,3.582,74.007,33.82
			c-11.143,11.146-43.364,41.381-43.364,41.381s-17.906-14.324-33.825-15.516c-15.909-1.199-22.279,4.772-22.279,7.955
			c0,3.184,3.183,6.361,15.914,10.346c12.73,3.975,45.355,13.125,59.681,27.455c14.325,14.324,20.69,27.449,19.495,52.119
			c-1.594,37.406-45.355,62.471-71.222,63.662v22.683h-33.023c0,0,0.398-13.533,0-22.683
			C356.388,484.107,318.986,463.014,303.471,435.963"/>
		<path fill="#A0CCD7" d="M369.518,179.729c-15.516,2.78-20.691,13.125-20.691,13.125s1.589,5.972,11.541,6.764
			c2.784,0.398,5.967,0.398,8.752,0.398c6.764,0,12.731,0,15.914,2.789c4.776,4.374,18.305-9.553,18.305-9.553
			s-15.914-13.523-30.239-13.523C371.903,179.729,370.713,179.729,369.518,179.729"/>
		<path fill="#21366A" d="M401.346,190.07c0,0-40.585,30.239-42.572,32.231c-2.386,1.987-2.784,5.568-2.386,6.764
			c0.394,1.589,2.386,44.564,2.386,44.564s4.378,0,5.573,0c1.589-20.691,5.569-32.63,4.374-42.976
			c1.594-0.398,22.683-10.345,33.422-18.698C414.076,201.611,401.346,190.07,401.346,190.07"/>
		<path fill="#21366A" d="M369.119,230.256c0.398,0.398,1.195,6.765,0,12.731c0.797,0.797,21.487,19.102,21.487,19.102l3.576-2.391
			C394.183,259.698,376.281,233.837,369.119,230.256"/>
		<path fill="#21366A" d="M394.183,260.894l0.797,3.183l-2.386,0.797l-0.398-1.195l-2.784,1.594l-3.183,0.792
			c0,0-0.398-0.394,0-0.792l2.784-1.195l1.594-2.386L394.183,260.894z"/>
		<path fill="#415C97" d="M407.312,200.814c0,0-9.942-4.374-11.935-3.183c-1.987,1.195,5.569,6.765,5.569,6.765
			s2.79-0.398,6.366-1.589C407.312,202.009,407.312,200.814,407.312,200.814"/>
		<path fill="#5A505B" d="M340.075,181.318c0,0,0.797,3.183,1.594,4.777c0.792,1.589-1.992,5.569-2.789,6.366
			c-1.19,1.19,4.776-2.391,8.357-2.784c1.589-2.391-0.398-7.562-0.398-7.562s-1.195,0-1.992-0.797
			c-0.398-0.398-0.797-0.398-1.589-0.398C342.062,180.92,340.075,181.318,340.075,181.318"/>
		<path fill="#574241" d="M342.461,189.677c1.195-1.195,0.398-2.789,0.398-2.789l-1.19-2.785c0,0,0.394-0.797,0.394-1.594
			c0-0.394-0.394-1.589-1.594-0.792c-1.987,0.792-4.373-4.378-4.373-4.378l-2.386,1.195l-1.195,2.386l1.195,8.757
			c0,0,0.394,0.394,0.792,0c0.398-0.403,1.195-0.797,1.195-0.797s2.386,4.771,2.784,4.373"/>
		<path fill="#2D2C69" d="M333.709,185.697c0.394,0.398,0.394,0.398,0.792,0s1.195-0.797,1.195-1.195c0,0-0.797,0-1.988,0.398
			C333.311,185.298,333.709,185.298,333.709,185.697"/>
		<path fill="#21366A" d="M340.075,175.352c-7.561,1.589-9.947,3.183-9.15,4.776c0,0.394,0.792,0.792,1.191,1.19
			c1.589-1.589,3.183-3.183,3.582-1.589c0.398,0.398,1.992,5.569,3.183,4.772c0-0.797-0.398-2.785,1.195-3.183
			c0.797,0,1.594,1.589,4.771,0C343.258,178.933,341.266,175.75,340.075,175.352"/>
		<path fill="#21366A" d="M362.753,272.43l1.992,2.789l-2.391,1.589l-0.398-0.797l-1.987,2.391l-2.784,1.594
			c0,0-0.797-0.398-0.403-0.797l1.992-1.992l0.797-2.784L362.753,272.43z"/>
		<polygon fill="#F4F8F8" points="346.839,182.115 347.237,191.266 349.624,188.88 350.022,180.92 		"/>
		<path fill="#21366A" d="M349.624,181.318c0,0-7.163,8.752,5.17,12.731s18.703-3.183,32.63,1.594
			c5.967,2.386,9.149,4.772,13.523,7.557c6.366-1.191,11.541-3.98,11.541-3.98s-12.731-23.077-35.016-24.666
			C355.192,172.961,349.624,181.318,349.624,181.318"/>
		<path fill="#74438D" d="M356.388,192.854c0,0-1.195,0-1.987,0.398c0,0.797,0,1.594,0,1.594s-0.797,3.183-1.195,9.947
			c0,10.345,7.954,23.475,7.954,23.475l4.777,0.398l0.398-4.771c0,0-9.15-10.351-9.947-19.102c-0.797-5.574,0-9.947,0-9.947
			s0-0.797,0.797-1.195C356.781,193.651,356.388,192.854,356.388,192.854"/>
		<path fill="#21366A" d="M350.814,183.306c-3.179,3.188-3.577,9.155-12.731,28.65c-3.183,7.163-11.536,26.26-11.536,26.26
			l3.183,1.589c0,0,11.143-16.706,15.516-24.666c4.378-7.959,17.906-26.259,17.906-26.259S358.375,184.501,350.814,183.306"/>
		<path fill="#21366A" d="M293.125,353.992c0,0,9.549,9.951,19.097,21.094c0,5.17,6.765,21.084,13.528,36.206
			c1.195,0,4.378-1.195,4.378-1.195s-8.756-37.401-9.548-39.792c-1.195-2.381-3.188-5.963-4.378-7.955
			c-1.195-1.987-5.175-8.357-5.175-8.357s-12.333,2.391-14.32-1.584C294.714,348.029,293.125,353.992,293.125,353.992"/>
		<path fill="#415C97" d="M277.211,316.998c0,0-5.967,4.771-9.154,7.557c-3.976,3.975-15.117,9.154-15.117,9.154
			s8.353-1.992,15.516-1.195c10.743,1.594,17.508,6.365,17.508,6.365L277.211,316.998z"/>
		<path fill="#5A505B" d="M286.76,287.153c0,0,0.398-0.792-0.398-2.785c-0.797-1.988,1.589-4.374,1.589-4.374
			s2.784,1.589,3.984,2.78c1.19,1.195,3.178,1.195,3.576,0.797c1.594-0.797,3.582-1.988,3.582-1.988s-5.175,4.777-7.158,9.155
			C291.935,292.722,286.76,287.153,286.76,287.153"/>
		<path fill="#5A505B" d="M286.361,284.767c0.797,1.988,0.398,2.785,0.398,2.785s4.771,5.17,5.175,3.979
			c1.987-4.378,7.158-9.15,7.158-9.15s-2.386,1.191-3.582,1.988c-0.797,0.398-2.784,0.398-3.576-0.797
			c-1.2-1.191-3.979-2.785-3.979-2.785S285.564,282.775,286.361,284.767"/>
		<path fill="#574241" d="M299.092,282.381c-1.191,0.792-2.785,1.589-3.98,2.386c-1.589,0.797-2.784-0.398-2.784-0.398l-2.391-1.988
			c0,0-0.792,0-1.589-0.398c-0.398,0-1.19-0.797-0.398-1.987c1.195-1.594-2.784-4.776-2.784-4.776l1.992-1.992h2.779l7.167,3.581
			c0,0,0.398,0.398,0,0.797s-0.797,0.797-0.797,0.797s3.183,3.581,3.183,3.975C299.491,281.584,299.491,281.982,299.092,282.381"/>
		<path fill="#2B2C5C" d="M293.523,275.617c0.398,0.394,0,0.394,0,0.792c-0.398,0.398-1.195,0.797-1.195,0.797
			s0.398-0.797,0.797-1.589C293.125,274.82,293.125,275.219,293.523,275.617"/>
		<path fill="#21366A" d="M281.983,278.401c3.582-6.764,5.967-8.357,7.561-7.162c0.394,0.398,0.797,0.797,0.394,1.594
			c-1.987,0.797-3.975,1.987-2.381,3.178c0.394,0.398,4.771,3.586,3.581,4.378c-0.797-0.394-2.391-1.19-3.188,0
			c-0.394,0.797,1.195,1.992-1.589,4.378C284.768,282.381,282.381,279.597,281.983,278.401"/>
		<path fill="#F4F8F8" d="M281.19,341.664c0,0-7.565-21.488-5.972-33.422c4.378-7.959,10.346-19.894,10.346-19.894l1.195-1.195
			c0,0,16.711,9.553,15.516,24.271c-1.594,15.914-0.398,30.239-0.398,30.239H281.19z"/>
		<path fill="#A0CBD6" d="M299.092,316.201c-3.582,10.341-11.536,15.516-11.536,15.516s0.398,1.992,0.398,3.184
			c0,1.982-0.398,3.182-0.398,3.182s5.17-1.588,6.759-2.783C295.909,334.107,299.092,326.542,299.092,316.201"/>
		<path fill="#A0CBD6" d="M296.308,339.676c0,0,4.772-7.162,2.785-13.532c-2.386-6.759,1.195-13.13,1.195-13.13
			s-1.594,4.777-0.398,12.74c1.191,7.955-1.594,14.316-1.594,14.316L296.308,339.676z"/>
		<path fill="#74438D" d="M293.125,291.93c0,0,1.589,0.398,2.386,0.792c0,0.398-0.797,1.195-0.797,1.195s5.175,4.378,5.968,13.931
			c0.797,9.549-5.569,25.064-5.569,25.064l-5.967,1.988l-0.797-5.973c0,0,8.756-10.34,9.154-20.283
			c0.398-8.362-3.581-13.931-3.581-13.931s0,0-0.797,0C292.727,293.519,293.125,291.93,293.125,291.93"/>
		<path fill="#21366A" d="M321.771,248.162l-13.523,29.044l-19.5,13.533c-0.792-0.797-3.183-1.997-3.183-1.997
			s-3.183,1.2-7.163,6.769c-5.967,7.95-5.17,21.886-5.17,21.886s-5.573,4.373-15.516,5.967c-9.947,1.594-15.521,9.15-17.513,12.334
			c20.69,4.775,45.76-9.554,51.328-24.272c1.195-3.183,1.992-7.964,1.594-10.345c3.979-3.98,8.752-7.96,12.731-11.541
			c3.979-3.577,7.959-6.764,9.947-11.935c5.569-14.32,9.553-27.853,9.553-27.853L321.771,248.162z"/>
		<path fill="#21366A" d="M280.394,338.879c0,0-1.195,15.516,15.117,15.91c16.312,0.402,28.252-3.576,29.049-3.576
			c-1.594,10.738,1.589,29.84,2.386,36.604h4.378c0,0,2.386-35.807,1.988-38.592c-0.398-3.188,0-6.764-4.777-7.561
			C323.763,340.473,280.394,338.879,280.394,338.879"/>
		<path fill="#21366A" d="M328.136,386.617l-1.987,2.793l1.987,1.594l0.797-0.797l1.992,2.78l2.78,1.987
			c0,0,0.797-0.394,0.398-0.792l-1.988-2.382l-0.398-2.793L328.136,386.617z"/>
		<path fill="#21366A" d="M326.945,410.495l-0.797,3.183l2.386,0.797l0.398-1.195l4.378,1.594l1.988-1.195c0,0,0-0.398-0.398-0.797
			l-1.589,0.398l-2.386-1.987L326.945,410.495z"/>
		<path fill="#21366A" d="M342.461,173.758c0,0,0-0.394-0.398-0.394l0,0c0-0.403,0-0.403-0.394-0.403c-0.403-0.394-0.797,0-0.797,0
			l0,0l0,0c0,0,0,0-0.403,0c0,0,0,0-0.394-0.394c-0.398-0.403-0.797,0-0.797,0c0-0.403-0.398-0.403-0.797-0.403c0,0,0,0-0.398,0
			c0-0.394-0.394-0.394-0.792-0.394l0,0c0,0-0.398-0.398-0.797-0.398s-0.797,0.398-0.797,0.792l0,0l0,0c0,0,0,0-0.398,0
			c0,0,0,0-0.398,0s-0.797,0.403-0.797,0.797h-0.398c0,0,0-0.394-0.394-0.394c-0.398,0-0.797,0-0.797,0.394c0,0,0,0,0,0.403
			c-0.398,0-0.797,0-0.797,0.394l0,0c-0.394,0-0.394,0-0.394,0.398v0.398c0,0-0.398,0-0.398,0.398l0,0c-0.398,0-0.398,0-0.797,0.398
			s0,0.792,0,0.792l0,0l0,0h-0.398c-0.398,0-0.398,0.398-0.398,0.797c0,0,0,0,0,0.398c-0.398,0-0.398,0.398-0.398,0.797l0,0
			c0,0,0,0.398,0,0.797c0,0,0,0.398,0.398,0.398c0,0-0.398,0-0.398,0.398c-0.398,0.398,0,0.792,0.398,1.19l0,0
			c0,0.398,0,0.398,0.398,0.797c0,0,0,0,0.398,0c0,0.398,0,0.792,0.398,0.792l0,0c0,0.398,0,0.398,0.398,0.797
			c0.398,0,0.398,0,0.792,0c0,0,0,0.398,0.398,0.398c0.398,0.398,0.797,0.398,0.797,0c0.398,0,0.398,0,0.792-0.398l0,0
			c0.398,0,0.398,0,0.797-0.398s0-0.792-0.398-0.792l0,0c0.398-0.398,0-0.797-0.398-0.797c-0.394,0-0.792,0-0.792,0l0,0l0,0
			c0-0.398,0-0.398,0-0.797l0,0c0,0,0,0,0-0.394l0,0c0.792,0.394,1.589,0,1.988-0.398c0-0.398,0.398-0.398,0.398-0.797
			c0.398,0,0.398,0,0.797-0.398c0,0,0,0,0.398,0l0,0c0,0.398,0.398,0.797,0.797,0.797s0.398,0,0.792-0.398l0,0l0,0
			c0,0.398,0.398,0.398,0.398,0.797l0,0c0,0,0,0,0,0.394c0,0,0,0,0,0.398s0.398,0.797,0.797,0.797s0.398,0,0.797-0.398l0,0h0.394
			c0,0,0,0.398,0.403,0.398c0,0.398,0,0.398,0.394,0.797h0.403l0,0l0,0c0,0,0,0,0,0.394c0,0,0,0-0.403,0
			c0,0.398,0,0.797,0.403,0.797c0.394,0,0.394,0,0.792,0l0,0c0.398,0.398,0.797,0,0.797,0v-0.398c0,0,0,0,0.398-0.398l0,0
			c0.394,0,0.394,0,0.792-0.394c0-0.398,0-0.398,0-0.797c0,0,0.398,0,0.398-0.398s0-0.797-0.398-0.797c0,0,0,0-0.398,0v-0.394
			c0.398,0,0.398,0,0.398-0.398s0-0.398,0-0.797c0,0,0.398,0,0.398-0.398s0-0.797-0.398-0.797c0,0,0,0-0.398,0
			c0-0.398,0-0.797-0.394-0.797l0,0c0-0.398,0-0.398-0.398-0.398s-0.398,0-0.797,0l0,0c0.398-0.394,0-0.792-0.398-1.19
			C343.258,173.758,342.859,173.758,342.461,173.758"/>
		<path fill="#21366A" d="M280.792,269.251c-0.398,0-0.398,0-0.797,0l0,0c-0.398,0-0.398,0-0.797,0
			c-0.398,0.398-0.398,0.792,0,1.191l0,0l0,0c0,0,0,0-0.398,0.398h-0.398c-0.398,0.398-0.398,0.797,0,1.195
			c-0.398,0-0.797,0.394-0.797,0.797c0,0,0,0,0,0.394c-0.394,0-0.792,0.403-0.792,0.797l0,0c-0.398,0-0.398,0.398-0.398,0.398
			c0,0.398,0,0.797,0.797,1.195l0,0l0,0v0.398c0,0,0,0,0,0.394c0,0.398,0,0.797,0.792,1.195c0,0.398,0,0.398,0,0.797
			c-0.398,0-0.398,0-0.792,0.398c-0.398,0.398-0.398,0.797,0,1.195c0,0,0,0,0.394,0c-0.394,0.394,0,0.792,0,1.19l0,0
			c0,0.398,0,0.797,0.398,0.797l0.398,0.398v0.394c0,0,0,0,0,0.398s0,0.797,0,0.797c0.398,0.398,0.797,0.398,1.195,0.398l0,0l0,0
			c0,0-0.398,0.398,0,0.797c0,0.398,0.398,0.797,0.797,0.797c0,0,0,0,0.398,0c0,0.398,0.398,0.792,0.792,0.792l0,0
			c0,0.398,0.398,0.398,0.797,0.398h0.398c0,0.398,0,0.398,0.398,0.797s1.191,0.792,1.589,0.398l0,0
			c0.398,0.394,0.797,0.394,1.195,0c0,0,0,0,0.398-0.398c0.398,0.398,0.797,0.398,1.195,0l0,0c0.398,0,0.792,0,0.792,0
			c0.398,0,0.398-0.398,0.398-0.797h0.398c0.398-0.398,0.398-0.792,0-1.191c0-0.398,0-0.797,0-0.797l0,0c0-0.398,0-0.797,0-0.797
			c-0.398-0.398-0.797-0.398-1.19-0.398l0,0c-0.398-0.398-0.797-0.398-1.195-0.398c-0.398,0.398-0.398,0.797-0.398,1.195l0,0l0,0
			c-0.398-0.398-0.398-0.398-0.797-0.398c0,0,0,0,0-0.398c0,0,0,0-0.398-0.398l0,0c0.797-0.797,0.797-1.988,0-2.785
			c-0.398-0.398-0.398-0.792-0.797-0.792c0-0.398,0-0.797,0-0.797s0,0,0-0.398l0,0c0.398,0,0.797,0,1.195-0.398
			c0-0.398,0-0.797-0.398-0.797l0,0l0,0c0.398,0,0.797,0,0.797-0.398c0,0,0,0,0.398,0h0.398h0.398c0.398,0,0.797,0,1.19-0.398
			c0-0.398,0-0.792-0.394-0.792l0,0v-0.398h0.394c0.398,0,0.797,0,0.797,0l0.398-0.398l0,0l0,0c0,0,0,0,0.398,0.398v0.398
			c0.398,0.394,0.792,0.394,1.195,0c0.394-0.398,0.394-0.398,0.394-0.797l0,0c0.403-0.398,0.403-0.797,0-1.195l-0.394-0.394v-0.403
			l0,0c0-0.394,0-0.797,0-0.797c-0.403-0.394-0.797-0.394-0.797-0.394c0-0.398,0-0.398,0-0.797c-0.398-0.398-0.797-0.398-1.195,0
			c0,0,0,0,0,0.398c0,0-0.398,0-0.398-0.398s0-0.398,0-0.797c-0.398-0.398-0.398-0.398-0.792-0.398c0-0.394,0-0.394,0-0.792
			c-0.398-0.398-0.797-0.398-1.195,0c0,0,0,0,0,0.398c-0.398-0.398-0.797-0.398-1.195,0l0,0c-0.398,0-0.398,0-0.797,0
			s-0.398,0.394-0.398,0.792l0,0c-0.398-0.398-0.792-0.792-1.589-0.398C281.19,268.455,280.792,268.853,280.792,269.251"/>
	</g>
</g>
</svg>
