<?xml version="1.0" encoding="utf-8"?>
<!-- Generator: Adobe Illustrator 17.0.0, SVG Export Plug-In . SVG Version: 6.00 Build 0)  -->
<!DOCTYPE svg PUBLIC "-//W3C//DTD SVG 1.1//EN" "http://www.w3.org/Graphics/SVG/1.1/DTD/svg11.dtd">
<svg version="1.1" id="Layer_1" xmlns="http://www.w3.org/2000/svg" xmlns:xlink="http://www.w3.org/1999/xlink" x="0px" y="0px"
	 width="126px" height="38.71px" viewBox="0 -5.333 126 38.71" enable-background="new 0 -5.333 126 38.71" xml:space="preserve">
<g>
	<path fill="#DA1F3D" d="M10.211,19.337v-6.849c-0.028-0.911-0.358-1.478-0.989-1.988C8.59,9.99,7.997,9.731,7.1,9.722H6.753
		c-0.932,0.022-1.541,0.328-2.169,0.916c-0.628,0.588-0.955,1.184-0.98,2.071v6.333c0.025,0.888,0.352,1.483,0.98,2.071
		c0.628,0.588,1.237,0.894,2.169,0.916H7.1c0.897-0.012,1.49-0.273,2.121-0.782C9.853,20.738,10.182,20.196,10.211,19.337
		L10.211,19.337z M9.807,24.321c-0.108,0.069-0.221,0.16-0.335,0.256l-0.031,0.025c-0.022,0.018-0.045,0.035-0.069,0.053
		c-0.023,0.017-0.047,0.035-0.071,0.052c-0.024,0.017-0.049,0.034-0.074,0.051c-0.025,0.017-0.051,0.033-0.077,0.05
		c-0.026,0.016-0.053,0.032-0.08,0.048c-0.027,0.016-0.054,0.032-0.082,0.047c-0.028,0.015-0.056,0.031-0.085,0.046
		c-0.029,0.015-0.058,0.029-0.087,0.044c-0.029,0.014-0.059,0.028-0.089,0.042s-0.061,0.027-0.092,0.04
		c-0.031,0.013-0.062,0.026-0.093,0.038c-0.031,0.012-0.062,0.024-0.092,0.035c-0.031,0.011-0.061,0.022-0.092,0.032
		c-0.031,0.01-0.061,0.02-0.092,0.029c-0.03,0.009-0.061,0.018-0.091,0.027c-0.03,0.008-0.06,0.016-0.09,0.024
		c-0.03,0.007-0.06,0.014-0.089,0.021c-0.029,0.006-0.059,0.013-0.088,0.018c-0.029,0.006-0.058,0.011-0.087,0.016
		c-0.352,0.06-0.716,0.091-1.093,0.093H6.449c-1.82-0.044-3.338-0.641-4.554-1.792C0.679,22.465,0.047,21.022,0,19.287v-6.822
		c0.047-1.735,0.679-3.178,1.894-4.329C3.11,6.984,4.628,6.387,6.448,6.343h0.359c0.344,0.006,0.665,0.029,0.964,0.07l0.087,0.015
		c0.03,0.005,0.06,0.01,0.09,0.016c0.03,0.006,0.061,0.012,0.091,0.019C8.07,6.47,8.101,6.477,8.131,6.485
		C8.162,6.493,8.193,6.501,8.224,6.51c0.031,0.009,0.062,0.018,0.094,0.027c0.031,0.01,0.063,0.02,0.094,0.03
		C8.443,6.578,8.475,6.589,8.506,6.6C8.538,6.612,8.569,6.623,8.6,6.635C8.631,6.648,8.661,6.66,8.691,6.673
		c0.03,0.013,0.06,0.026,0.089,0.039C8.81,6.725,8.839,6.739,8.868,6.753c0.029,0.014,0.057,0.028,0.085,0.043
		C8.98,6.81,9.008,6.825,9.035,6.84c0.027,0.015,0.053,0.03,0.08,0.046L9.138,6.9l0.035,0.022l0.034,0.022L9.24,6.965l0.033,0.022
		L9.305,7.01l0.031,0.023l0.032,0.023l0.03,0.023l0.03,0.023l0.029,0.023l0.029,0.023l0.028,0.024l0.028,0.024L9.571,7.22
		l0.027,0.024l0.026,0.024l0.026,0.024c0,0,0.023,0.022,0.053,0.042c0.017,0.01,0.031,0.019,0.046,0.025
		c0.02,0.009,0.042,0.015,0.063,0.019c0.022,0.005,0.045,0.007,0.068,0.007c0.023,0,0.046-0.002,0.068-0.007
		c0.022-0.005,0.043-0.011,0.063-0.02s0.039-0.019,0.057-0.031c0.018-0.012,0.035-0.026,0.05-0.041
		c0.015-0.015,0.029-0.032,0.041-0.05c0.012-0.018,0.023-0.037,0.031-0.057c0.009-0.02,0.015-0.041,0.02-0.063
		c0.005-0.022,0.008-0.045,0.008-0.068c-0.002-0.225-0.007-0.531,0.246-0.605c0.15-0.044,0.335-0.022,0.486-0.022h1.501h0.801
		c0.235,0,0.589-0.058,0.686,0.23c0.072,0.214,0.024,0.66,0.024,0.888l0,3.185v7.449l-0.001,3.913c0,1.292,0.052,2.598-0.094,3.885
		c-0.406,3.587-2.199,6.635-5.994,7.303c-2.297,0.405-4.586-0.414-6.36-1.877c-0.217-0.179-0.666-0.479-0.648-0.787
		c0.006-0.109,0.059-0.209,0.131-0.289c0,0,1.47-1.556,1.578-1.691c0.104-0.116,0.25-0.282,0.414-0.282
		c0.232,0.001,0.473,0.218,0.894,0.464c0.717,0.42,1.485,0.805,2.301,0.928c0.516,0.077,1.078,0.006,1.572-0.154
		c1.925-0.623,2.458-3.053,2.568-4.957l0-0.032c0-0.011,0-0.023-0.001-0.034c-0.001-0.011-0.003-0.022-0.005-0.033
		c-0.002-0.011-0.005-0.021-0.008-0.032c-0.003-0.01-0.007-0.02-0.011-0.03c-0.004-0.01-0.009-0.02-0.014-0.029
		c-0.005-0.009-0.011-0.019-0.017-0.027c-0.006-0.009-0.012-0.017-0.019-0.026c-0.007-0.008-0.014-0.016-0.021-0.024
		c-0.007-0.007-0.015-0.015-0.024-0.021c-0.008-0.007-0.017-0.013-0.026-0.019c-0.009-0.006-0.018-0.012-0.027-0.017
		c-0.009-0.005-0.019-0.01-0.029-0.014c-0.01-0.004-0.02-0.008-0.031-0.011c-0.01-0.003-0.021-0.006-0.032-0.008
		c-0.011-0.002-0.022-0.004-0.033-0.005c-0.011-0.001-0.022-0.002-0.034-0.002c-0.011,0-0.023,0.001-0.034,0.002
		c-0.011,0.001-0.022,0.003-0.033,0.005c-0.011,0.002-0.021,0.005-0.032,0.008c-0.01,0.003-0.021,0.007-0.031,0.011
		C9.853,24.295,9.816,24.315,9.807,24.321L9.807,24.321z"/>
	<path fill="#DA1F3D" d="M39.947,24.969v-2.505c-0.002-0.145-0.04-0.251-0.115-0.318c-0.075-0.067-0.176-0.1-0.303-0.099h-6.897
		c-0.166-0.001-0.284-0.03-0.355-0.089c-0.064-0.057-0.11-0.127-0.11-0.235c-0.005-0.099,0.039-0.221,0.089-0.304l7.557-14.262
		c0.022-0.043,0.041-0.092,0.058-0.146c0.017-0.054,0.025-0.103,0.026-0.146c-0.007-0.216-0.16-0.327-0.46-0.334h-12.38
		c-0.286-0.007-0.425,0.132-0.418,0.417v2.505c-0.007,0.285,0.132,0.424,0.418,0.417h6.466c0.147,0.001,0.265,0.027,0.344,0.085
		c0.079,0.058,0.115,0.144,0.116,0.25c-0.001,0.044-0.01,0.092-0.026,0.146c-0.017,0.054-0.036,0.103-0.057,0.146L26.263,24.76
		c-0.022,0.044-0.041,0.092-0.058,0.146c-0.017,0.054-0.025,0.103-0.026,0.146c0.007,0.216,0.16,0.327,0.46,0.334h12.89
		c0.146,0.001,0.252-0.032,0.319-0.099C39.915,25.22,39.948,25.114,39.947,24.969L39.947,24.969z"/>
	<path fill="#DA1F3D" d="M18.532,4.108c0.013,0.138,0.053,0.244,0.123,0.315c0.082,0.082,0.209,0.125,0.379,0.13h2.606
		c0.17-0.005,0.298-0.048,0.379-0.13c0.07-0.07,0.122-0.175,0.122-0.311c0,0,0-0.072,0-0.076V1.141
		c-0.005-0.173-0.044-0.304-0.127-0.387c-0.082-0.082-0.209-0.125-0.379-0.13l-0.207-0.001c-0.162,0-0.297,0.036-0.446,0.194
		l-2.187,2.441l-0.105,0.124c-0.117,0.136-0.163,0.251-0.163,0.397v0.257C18.529,4.057,18.532,4.108,18.532,4.108L18.532,4.108z"/>
	<path fill="#DA1F3D" d="M22.125,6.962c0-0.147-0.036-0.263-0.104-0.335c-0.072-0.076-0.187-0.113-0.345-0.112h-2.713
		c-0.157,0.002-0.272,0.045-0.345,0.129c-0.068,0.079-0.107,0.185-0.107,0.317l0,0.075l0,10.192l0.003,7.71
		c0,0.148,0.036,0.263,0.104,0.335c0.072,0.076,0.187,0.112,0.345,0.112h2.713c0.157-0.002,0.272-0.045,0.345-0.129
		c0.068-0.079,0.104-0.184,0.104-0.317L22.125,6.962L22.125,6.962z"/>
	<path fill="#DA1F3D" d="M49.39,25.057c-0.042-0.053-0.105-0.079-0.188-0.079h-1.666l1.878-3.603
		c0.031-0.057,0.046-0.115,0.046-0.172c0-0.079-0.029-0.148-0.086-0.205c-0.057-0.057-0.13-0.086-0.218-0.086h-1.891
		c-0.088,0-0.152,0.026-0.192,0.079c-0.04,0.053-0.06,0.11-0.06,0.172c0,0.062,0.02,0.119,0.06,0.172
		c0.04,0.053,0.104,0.079,0.192,0.079h1.567l-1.871,3.59c-0.026,0.049-0.04,0.101-0.04,0.159c0,0.084,0.025,0.158,0.076,0.221
		c0.051,0.064,0.122,0.096,0.215,0.096h1.99c0.084,0,0.146-0.026,0.188-0.079c0.042-0.053,0.063-0.11,0.063-0.172
		C49.452,25.167,49.432,25.11,49.39,25.057L49.39,25.057z M52.629,22.505c0-0.084-0.026-0.146-0.079-0.188
		c-0.053-0.042-0.11-0.063-0.172-0.063c-0.062,0-0.119,0.021-0.172,0.063s-0.079,0.104-0.079,0.188v1.946
		c0,0.154-0.055,0.286-0.165,0.396c-0.11,0.11-0.245,0.165-0.403,0.165h-0.06c-0.154,0-0.287-0.055-0.397-0.165
		c-0.11-0.11-0.165-0.242-0.165-0.396v-1.946c0-0.083-0.026-0.146-0.079-0.188c-0.053-0.042-0.11-0.063-0.172-0.063
		c-0.062,0-0.119,0.021-0.172,0.063c-0.053,0.042-0.079,0.105-0.079,0.188v1.95c0,0.185,0.029,0.344,0.086,0.476
		c0.057,0.132,0.134,0.241,0.231,0.327c0.097,0.086,0.21,0.15,0.34,0.192c0.13,0.042,0.265,0.063,0.407,0.063h0.06
		c0.115,0,0.223-0.017,0.324-0.05c0.101-0.033,0.183-0.082,0.245-0.144c0.013,0.067,0.044,0.116,0.093,0.147
		c0.048,0.031,0.101,0.047,0.159,0.047c0.062,0,0.119-0.021,0.172-0.063c0.053-0.042,0.079-0.102,0.079-0.182L52.629,22.505
		L52.629,22.505z M56.015,24.563c0-0.215-0.043-0.385-0.129-0.508c-0.086-0.123-0.192-0.219-0.317-0.287
		c-0.126-0.068-0.263-0.119-0.413-0.152c-0.15-0.033-0.288-0.066-0.413-0.099c-0.126-0.033-0.231-0.077-0.317-0.132
		c-0.086-0.055-0.129-0.14-0.129-0.254v-0.02c0.004-0.097,0.055-0.18,0.152-0.251c0.097-0.07,0.238-0.106,0.423-0.106h0.026
		c0.15,0,0.267,0.021,0.35,0.063c0.084,0.042,0.161,0.08,0.231,0.116c0.053,0.026,0.101,0.04,0.145,0.04
		c0.07,0,0.128-0.024,0.172-0.073c0.044-0.048,0.066-0.104,0.066-0.166c0-0.08-0.031-0.145-0.093-0.194
		c-0.026-0.022-0.065-0.05-0.116-0.084c-0.051-0.033-0.112-0.065-0.185-0.094c-0.073-0.029-0.156-0.055-0.251-0.077
		c-0.095-0.022-0.199-0.034-0.314-0.034h-0.026c-0.106,0-0.221,0.014-0.347,0.043c-0.126,0.029-0.242,0.076-0.35,0.142
		c-0.108,0.066-0.199,0.153-0.274,0.26c-0.075,0.108-0.112,0.241-0.112,0.399c0,0.207,0.043,0.366,0.129,0.478
		c0.086,0.112,0.192,0.199,0.317,0.26c0.126,0.062,0.263,0.107,0.413,0.135c0.15,0.029,0.288,0.063,0.413,0.102
		c0.126,0.04,0.231,0.093,0.317,0.162c0.086,0.068,0.129,0.173,0.129,0.313v0.02c-0.004,0.11-0.061,0.211-0.169,0.303
		c-0.108,0.092-0.263,0.139-0.466,0.139h-0.033c-0.123,0-0.249-0.042-0.377-0.126c-0.128-0.084-0.234-0.181-0.317-0.291
		c-0.031-0.044-0.066-0.074-0.106-0.089c-0.04-0.015-0.079-0.023-0.119-0.023c-0.066,0-0.126,0.022-0.179,0.066
		c-0.053,0.044-0.079,0.104-0.079,0.179c0,0.018,0.011,0.06,0.033,0.126c0.053,0.101,0.121,0.193,0.205,0.276
		c0.084,0.083,0.176,0.152,0.278,0.208c0.101,0.056,0.208,0.099,0.321,0.131s0.221,0.047,0.327,0.047h0.04
		c0.137,0,0.273-0.02,0.41-0.059c0.137-0.04,0.26-0.098,0.37-0.175c0.11-0.077,0.198-0.173,0.264-0.287
		c0.066-0.114,0.099-0.248,0.099-0.402V24.563L56.015,24.563z M59.505,25.113c-0.033-0.046-0.087-0.076-0.162-0.089
		c-0.115-0.022-0.172-0.095-0.172-0.218v-1.534c0-0.141-0.026-0.273-0.079-0.397c-0.053-0.123-0.126-0.231-0.218-0.324
		s-0.203-0.165-0.331-0.218c-0.128-0.053-0.264-0.079-0.41-0.079h-0.046c-0.088,0-0.179,0.01-0.271,0.03s-0.183,0.053-0.271,0.099
		c-0.088,0.046-0.171,0.109-0.248,0.188c-0.077,0.079-0.142,0.179-0.195,0.298c-0.018,0.031-0.026,0.071-0.026,0.119
		c0,0.071,0.026,0.127,0.079,0.169c0.053,0.042,0.11,0.063,0.172,0.063c0.044,0,0.086-0.01,0.126-0.03
		c0.04-0.02,0.073-0.054,0.099-0.102c0.062-0.11,0.132-0.193,0.212-0.248c0.079-0.055,0.187-0.083,0.324-0.083h0.046
		c0.145,0,0.271,0.04,0.377,0.119c0.106,0.079,0.159,0.218,0.159,0.417c0,0.018-0.001,0.037-0.003,0.06
		c-0.002,0.022-0.008,0.04-0.017,0.053c-0.026,0.035-0.087,0.063-0.182,0.083c-0.095,0.02-0.204,0.041-0.327,0.063
		c-0.123,0.022-0.253,0.051-0.39,0.086c-0.137,0.035-0.262,0.087-0.377,0.155c-0.115,0.068-0.209,0.159-0.284,0.271
		c-0.075,0.112-0.112,0.255-0.112,0.426v0.079c0,0.154,0.031,0.291,0.093,0.41c0.062,0.119,0.142,0.218,0.241,0.298
		c0.099,0.079,0.213,0.139,0.34,0.179c0.128,0.04,0.258,0.06,0.39,0.06h0.06c0.278,0,0.516-0.086,0.714-0.258
		c0.044,0.062,0.101,0.115,0.172,0.159c0.07,0.044,0.163,0.075,0.278,0.093c0.004,0.004,0.02,0.007,0.046,0.007
		c0.079,0,0.14-0.025,0.182-0.076c0.042-0.051,0.063-0.109,0.063-0.175C59.554,25.209,59.538,25.159,59.505,25.113L59.505,25.113z
		 M58.668,24.449c0,0.159-0.056,0.292-0.169,0.4c-0.112,0.108-0.246,0.162-0.4,0.162h-0.06c-0.168,0-0.303-0.042-0.407-0.126
		c-0.104-0.084-0.155-0.196-0.155-0.337v-0.053c0-0.115,0.039-0.203,0.116-0.264c0.077-0.062,0.175-0.11,0.294-0.145
		c0.119-0.035,0.248-0.063,0.387-0.083c0.139-0.02,0.27-0.045,0.393-0.076L58.668,24.449L58.668,24.449z M64.466,23.312
		c0-0.181-0.029-0.338-0.086-0.473c-0.057-0.134-0.136-0.245-0.235-0.331s-0.213-0.15-0.34-0.192
		c-0.128-0.042-0.262-0.063-0.403-0.063h-0.06c-0.168,0-0.321,0.034-0.459,0.102c-0.139,0.068-0.259,0.16-0.36,0.274
		c-0.101-0.115-0.221-0.206-0.36-0.274c-0.139-0.068-0.292-0.102-0.459-0.102h-0.06c-0.115,0-0.223,0.018-0.324,0.053
		c-0.101,0.035-0.183,0.084-0.245,0.145c-0.013-0.066-0.044-0.116-0.093-0.149c-0.049-0.033-0.099-0.05-0.152-0.05
		c-0.066,0-0.126,0.022-0.179,0.066c-0.053,0.044-0.079,0.106-0.079,0.185v2.764c0,0.084,0.026,0.145,0.079,0.185
		c0.053,0.04,0.11,0.06,0.172,0.06c0.062,0,0.119-0.02,0.172-0.06s0.079-0.101,0.079-0.185v-2.003c0-0.154,0.057-0.278,0.172-0.37
		c0.115-0.093,0.247-0.139,0.397-0.139h0.06c0.159,0,0.293,0.053,0.403,0.159c0.11,0.106,0.165,0.242,0.165,0.41v1.93
		c0,0.088,0.026,0.153,0.079,0.195c0.053,0.042,0.11,0.063,0.172,0.063c0.062,0,0.119-0.021,0.172-0.063
		c0.053-0.042,0.079-0.107,0.079-0.195v-1.93c0-0.163,0.055-0.299,0.165-0.407c0.11-0.108,0.245-0.162,0.403-0.162h0.06
		c0.167,0,0.303,0.046,0.407,0.139c0.104,0.093,0.155,0.231,0.155,0.417v1.957c0,0.084,0.026,0.145,0.079,0.185
		c0.053,0.04,0.11,0.06,0.172,0.06c0.062,0,0.119-0.02,0.172-0.06c0.053-0.04,0.079-0.101,0.079-0.185L64.466,23.312L64.466,23.312z
		 M69.529,23.312c0-0.181-0.029-0.338-0.086-0.473c-0.057-0.134-0.136-0.245-0.235-0.331s-0.213-0.15-0.34-0.192
		c-0.128-0.042-0.262-0.063-0.403-0.063h-0.06c-0.168,0-0.321,0.034-0.459,0.102c-0.139,0.068-0.259,0.16-0.36,0.274
		c-0.101-0.115-0.221-0.206-0.36-0.274c-0.139-0.068-0.292-0.102-0.459-0.102h-0.06c-0.115,0-0.223,0.018-0.324,0.053
		c-0.101,0.035-0.183,0.084-0.245,0.145c-0.013-0.066-0.044-0.116-0.093-0.149c-0.049-0.033-0.099-0.05-0.152-0.05
		c-0.066,0-0.126,0.022-0.179,0.066c-0.053,0.044-0.079,0.106-0.079,0.185v2.764c0,0.084,0.026,0.145,0.079,0.185
		c0.053,0.04,0.11,0.06,0.172,0.06c0.062,0,0.119-0.02,0.172-0.06c0.053-0.04,0.079-0.101,0.079-0.185v-2.003
		c0-0.154,0.057-0.278,0.172-0.37c0.115-0.093,0.247-0.139,0.397-0.139h0.06c0.159,0,0.293,0.053,0.403,0.159
		c0.11,0.106,0.165,0.242,0.165,0.41v1.93c0,0.088,0.026,0.153,0.079,0.195c0.053,0.042,0.11,0.063,0.172,0.063
		c0.062,0,0.119-0.021,0.172-0.063c0.053-0.042,0.079-0.107,0.079-0.195v-1.93c0-0.163,0.055-0.299,0.165-0.407
		c0.11-0.108,0.245-0.162,0.403-0.162h0.06c0.167,0,0.303,0.046,0.407,0.139c0.104,0.093,0.155,0.231,0.155,0.417v1.957
		c0,0.084,0.026,0.145,0.079,0.185c0.053,0.04,0.11,0.06,0.172,0.06c0.062,0,0.119-0.02,0.172-0.06
		c0.053-0.04,0.079-0.101,0.079-0.185L69.529,23.312L69.529,23.312z M72.83,23.325c0-0.154-0.028-0.296-0.083-0.426
		c-0.055-0.13-0.131-0.243-0.228-0.34c-0.097-0.097-0.211-0.172-0.34-0.225c-0.13-0.053-0.268-0.079-0.413-0.079H71.7
		c-0.145,0-0.283,0.028-0.413,0.083c-0.13,0.055-0.244,0.131-0.34,0.228c-0.097,0.097-0.173,0.211-0.228,0.34
		c-0.055,0.13-0.083,0.268-0.083,0.413v1.137c0,0.15,0.027,0.289,0.083,0.417c0.055,0.128,0.131,0.239,0.228,0.334
		c0.097,0.095,0.21,0.17,0.34,0.225c0.13,0.055,0.268,0.083,0.413,0.083h0.066c0.225,0,0.422-0.058,0.592-0.174
		c0.17-0.116,0.294-0.267,0.374-0.454c0.018-0.031,0.026-0.068,0.026-0.112c0-0.075-0.026-0.137-0.079-0.185
		c-0.053-0.048-0.112-0.073-0.179-0.073c-0.044,0-0.086,0.012-0.126,0.036c-0.04,0.024-0.071,0.065-0.093,0.122
		c-0.044,0.093-0.109,0.172-0.195,0.238s-0.193,0.099-0.321,0.099H71.7c-0.154,0-0.287-0.055-0.397-0.164
		c-0.11-0.109-0.165-0.241-0.165-0.394v-0.335h1.441c0.07,0,0.13-0.025,0.179-0.076c0.048-0.051,0.073-0.109,0.073-0.175V23.325
		L72.83,23.325z M72.328,23.655h-1.19v-0.333c0-0.16,0.056-0.294,0.169-0.403c0.112-0.109,0.246-0.163,0.4-0.163h0.066
		c0.145,0,0.274,0.054,0.387,0.163c0.112,0.109,0.169,0.245,0.169,0.41V23.655L72.328,23.655z M76.114,23.318
		c0-0.181-0.029-0.338-0.086-0.473c-0.057-0.134-0.134-0.246-0.231-0.334c-0.097-0.088-0.209-0.153-0.337-0.195
		c-0.128-0.042-0.262-0.063-0.403-0.063h-0.06c-0.115,0-0.223,0.018-0.324,0.053c-0.101,0.035-0.183,0.084-0.245,0.145
		c-0.013-0.066-0.044-0.116-0.093-0.149c-0.049-0.033-0.101-0.05-0.159-0.05c-0.066,0-0.126,0.022-0.179,0.066
		c-0.053,0.044-0.079,0.106-0.079,0.185v2.764c0,0.084,0.026,0.145,0.079,0.185c0.053,0.04,0.11,0.06,0.172,0.06
		c0.062,0,0.119-0.02,0.172-0.06c0.053-0.04,0.079-0.101,0.079-0.185v-1.95c0-0.159,0.056-0.292,0.168-0.4
		c0.112-0.108,0.244-0.162,0.398-0.162h0.059c0.158,0,0.292,0.055,0.401,0.165c0.109,0.11,0.164,0.242,0.164,0.397v1.95
		c0,0.084,0.027,0.145,0.08,0.185c0.054,0.04,0.112,0.06,0.174,0.06c0.063,0,0.119-0.02,0.171-0.06
		c0.051-0.04,0.077-0.101,0.077-0.185V23.318L76.114,23.318z M79.675,25.113c-0.033-0.046-0.087-0.076-0.162-0.089
		c-0.115-0.022-0.172-0.095-0.172-0.218v-1.534c0-0.141-0.026-0.273-0.079-0.397c-0.053-0.123-0.126-0.231-0.218-0.324
		c-0.093-0.093-0.203-0.165-0.331-0.218c-0.128-0.053-0.264-0.079-0.41-0.079h-0.046c-0.088,0-0.179,0.01-0.271,0.03
		c-0.093,0.02-0.183,0.053-0.271,0.099c-0.088,0.046-0.171,0.109-0.248,0.188c-0.077,0.079-0.142,0.179-0.195,0.298
		c-0.018,0.031-0.026,0.071-0.026,0.119c0,0.071,0.026,0.127,0.079,0.169c0.053,0.042,0.11,0.063,0.172,0.063
		c0.044,0,0.086-0.01,0.126-0.03c0.04-0.02,0.073-0.054,0.099-0.102c0.062-0.11,0.132-0.193,0.212-0.248
		c0.079-0.055,0.187-0.083,0.324-0.083h0.046c0.145,0,0.271,0.04,0.377,0.119c0.106,0.079,0.159,0.218,0.159,0.417
		c0,0.018-0.001,0.037-0.003,0.06c-0.002,0.022-0.008,0.04-0.017,0.053c-0.026,0.035-0.087,0.063-0.182,0.083
		c-0.095,0.02-0.204,0.041-0.327,0.063c-0.123,0.022-0.254,0.051-0.39,0.086c-0.137,0.035-0.262,0.087-0.377,0.155
		c-0.115,0.068-0.209,0.159-0.284,0.271c-0.075,0.112-0.112,0.255-0.112,0.426v0.079c0,0.154,0.031,0.291,0.093,0.41
		c0.062,0.119,0.142,0.218,0.241,0.298c0.099,0.079,0.213,0.139,0.34,0.179c0.128,0.04,0.258,0.06,0.39,0.06h0.06
		c0.278,0,0.516-0.086,0.714-0.258c0.044,0.062,0.101,0.115,0.172,0.159c0.07,0.044,0.163,0.075,0.278,0.093
		c0.004,0.004,0.02,0.007,0.046,0.007c0.079,0,0.14-0.025,0.182-0.076c0.042-0.051,0.063-0.109,0.063-0.175
		C79.725,25.209,79.708,25.159,79.675,25.113L79.675,25.113z M78.839,24.449c0,0.159-0.056,0.292-0.169,0.4
		c-0.112,0.108-0.246,0.162-0.4,0.162h-0.06c-0.168,0-0.303-0.042-0.407-0.126c-0.104-0.084-0.155-0.196-0.155-0.337v-0.053
		c0-0.115,0.039-0.203,0.116-0.264c0.077-0.062,0.175-0.11,0.294-0.145c0.119-0.035,0.248-0.063,0.387-0.083s0.27-0.045,0.393-0.076
		V24.449L78.839,24.449z M82.364,22.578c-0.079-0.115-0.182-0.197-0.307-0.248c-0.126-0.051-0.252-0.076-0.38-0.076
		c-0.088,0-0.161,0.007-0.218,0.02c-0.057,0.013-0.106,0.029-0.145,0.046c-0.049,0.018-0.086,0.04-0.112,0.066
		c-0.022-0.048-0.053-0.083-0.093-0.102s-0.082-0.03-0.126-0.03c-0.062,0-0.12,0.022-0.175,0.066
		c-0.055,0.044-0.083,0.106-0.083,0.185v2.75c0,0.088,0.026,0.153,0.079,0.195c0.053,0.042,0.11,0.063,0.172,0.063
		c0.062,0,0.119-0.021,0.172-0.063c0.053-0.042,0.079-0.107,0.079-0.195v-2.056c0-0.053,0.004-0.106,0.013-0.159
		c0.009-0.053,0.029-0.1,0.06-0.142c0.031-0.042,0.075-0.076,0.132-0.102c0.057-0.026,0.137-0.04,0.238-0.04
		c0.084,0,0.149,0.017,0.195,0.05s0.083,0.063,0.109,0.089c0.062,0.062,0.13,0.093,0.205,0.093c0.066,0,0.123-0.022,0.172-0.066
		c0.048-0.044,0.073-0.101,0.073-0.172C82.424,22.697,82.404,22.639,82.364,22.578L82.364,22.578L82.364,22.578z M85.636,23.318
		c0-0.145-0.028-0.283-0.083-0.413c-0.055-0.13-0.131-0.243-0.228-0.34c-0.097-0.097-0.211-0.173-0.34-0.228
		c-0.13-0.055-0.27-0.083-0.42-0.083h-0.046c-0.115,0-0.225,0.019-0.331,0.056c-0.106,0.037-0.187,0.092-0.245,0.162v-1.349
		c0-0.084-0.026-0.146-0.079-0.188c-0.053-0.042-0.11-0.063-0.172-0.063c-0.062,0-0.119,0.021-0.172,0.063
		c-0.053,0.042-0.079,0.105-0.079,0.188v4.159c0,0.079,0.026,0.138,0.079,0.175c0.053,0.037,0.11,0.056,0.172,0.056
		c0.057,0,0.11-0.016,0.159-0.047c0.048-0.031,0.077-0.08,0.086-0.147c0.048,0.049,0.12,0.094,0.215,0.134
		c0.095,0.04,0.213,0.06,0.354,0.06h0.06c0.145,0,0.283-0.028,0.413-0.083c0.13-0.055,0.243-0.13,0.34-0.225
		c0.097-0.095,0.174-0.206,0.231-0.334c0.057-0.128,0.086-0.267,0.086-0.417L85.636,23.318L85.636,23.318z M85.134,24.45
		c0,0.154-0.055,0.286-0.165,0.396c-0.11,0.11-0.245,0.165-0.403,0.165h-0.06c-0.15,0-0.281-0.046-0.393-0.138
		c-0.112-0.092-0.169-0.22-0.169-0.382v-1.226c0-0.154,0.056-0.277,0.169-0.369c0.112-0.092,0.243-0.138,0.393-0.138h0.06
		c0.159,0,0.293,0.055,0.403,0.165c0.11,0.11,0.165,0.242,0.165,0.395V24.45L85.134,24.45z M88.916,23.325
		c0-0.154-0.028-0.296-0.083-0.426c-0.055-0.13-0.131-0.243-0.228-0.34c-0.097-0.097-0.211-0.172-0.34-0.225
		c-0.13-0.053-0.268-0.079-0.413-0.079h-0.066c-0.145,0-0.283,0.028-0.413,0.083c-0.13,0.055-0.244,0.131-0.34,0.228
		c-0.097,0.097-0.173,0.211-0.228,0.34c-0.055,0.13-0.083,0.268-0.083,0.413v1.137c0,0.15,0.027,0.289,0.083,0.417
		c0.055,0.128,0.131,0.239,0.228,0.334c0.097,0.095,0.21,0.17,0.34,0.225c0.13,0.055,0.268,0.083,0.413,0.083h0.066
		c0.225,0,0.422-0.058,0.592-0.174c0.17-0.116,0.294-0.267,0.374-0.454c0.018-0.031,0.026-0.068,0.026-0.112
		c0-0.075-0.026-0.137-0.079-0.185c-0.053-0.048-0.112-0.073-0.179-0.073c-0.044,0-0.086,0.012-0.126,0.036
		c-0.04,0.024-0.071,0.065-0.093,0.122c-0.044,0.093-0.109,0.172-0.195,0.238c-0.086,0.066-0.193,0.099-0.321,0.099h-0.066
		c-0.154,0-0.287-0.055-0.397-0.164c-0.11-0.109-0.165-0.241-0.165-0.394v-0.335h1.441c0.07,0,0.13-0.025,0.179-0.076
		c0.048-0.051,0.073-0.109,0.073-0.175L88.916,23.325L88.916,23.325z M88.414,23.655h-1.19v-0.333c0-0.16,0.056-0.294,0.169-0.403
		c0.112-0.109,0.246-0.163,0.4-0.163h0.066c0.145,0,0.274,0.054,0.387,0.163c0.112,0.109,0.169,0.245,0.169,0.41L88.414,23.655
		L88.414,23.655z M90.544,21.123c0-0.084-0.026-0.146-0.079-0.188c-0.053-0.042-0.11-0.063-0.172-0.063
		c-0.062,0-0.119,0.021-0.172,0.063c-0.053,0.042-0.079,0.105-0.079,0.188v0.145c0,0.084,0.026,0.147,0.079,0.188
		c0.053,0.042,0.11,0.063,0.172,0.063c0.062,0,0.119-0.021,0.172-0.063c0.053-0.042,0.079-0.105,0.079-0.188V21.123L90.544,21.123z
		 M90.544,22.505c0-0.084-0.026-0.146-0.079-0.188c-0.053-0.042-0.11-0.063-0.172-0.063c-0.062,0-0.119,0.021-0.172,0.063
		c-0.053,0.042-0.079,0.105-0.079,0.188v2.764c0,0.084,0.026,0.145,0.079,0.185c0.053,0.04,0.11,0.06,0.172,0.06
		c0.062,0,0.119-0.02,0.172-0.06c0.053-0.04,0.079-0.101,0.079-0.185V22.505L90.544,22.505z M93.159,25.098
		c-0.037-0.049-0.096-0.078-0.175-0.087c-0.101-0.009-0.191-0.045-0.268-0.109c-0.077-0.064-0.116-0.153-0.116-0.267v-1.859h0.357
		c0.084,0,0.146-0.026,0.188-0.079c0.042-0.053,0.063-0.11,0.063-0.172c0-0.062-0.021-0.119-0.063-0.172
		c-0.042-0.053-0.105-0.079-0.188-0.079H92.6v-1.15c0-0.084-0.026-0.146-0.079-0.188c-0.053-0.042-0.11-0.063-0.172-0.063
		c-0.062,0-0.119,0.021-0.172,0.063c-0.053,0.042-0.079,0.105-0.079,0.188v1.15h-0.231c-0.084,0-0.147,0.026-0.188,0.079
		c-0.042,0.053-0.063,0.11-0.063,0.172c0,0.062,0.021,0.119,0.063,0.172c0.042,0.053,0.105,0.079,0.188,0.079h0.231v1.871
		c0,0.119,0.022,0.231,0.066,0.337c0.044,0.106,0.106,0.198,0.185,0.278c0.079,0.079,0.172,0.141,0.278,0.185
		s0.218,0.066,0.337,0.066c0.088,0,0.152-0.026,0.192-0.077c0.04-0.051,0.06-0.108,0.06-0.171
		C93.215,25.203,93.196,25.147,93.159,25.098L93.159,25.098z M96.891,25.417c-0.106-0.17-0.199-0.362-0.281-0.578
		c-0.082-0.216-0.147-0.452-0.195-0.707c-0.049-0.256-0.073-0.524-0.073-0.807c0-0.273,0.024-0.537,0.073-0.79
		c0.048-0.253,0.112-0.488,0.192-0.704c0.079-0.216,0.171-0.41,0.274-0.582c0.104-0.172,0.21-0.313,0.321-0.423
		c0.048-0.048,0.073-0.101,0.073-0.159c0-0.062-0.026-0.119-0.079-0.172c-0.062-0.048-0.119-0.073-0.172-0.073
		c-0.062,0-0.119,0.026-0.172,0.079c-0.137,0.141-0.266,0.312-0.387,0.512c-0.121,0.201-0.226,0.422-0.314,0.664
		c-0.088,0.242-0.159,0.502-0.212,0.78c-0.053,0.278-0.079,0.566-0.079,0.866c0,0.304,0.026,0.598,0.079,0.883
		c0.053,0.284,0.124,0.549,0.215,0.793c0.09,0.245,0.197,0.466,0.321,0.664c0.123,0.198,0.256,0.366,0.397,0.502
		c0.053,0.053,0.108,0.079,0.165,0.079c0.066,0,0.126-0.026,0.179-0.079c0.057-0.044,0.086-0.099,0.086-0.165
		c0-0.057-0.026-0.112-0.079-0.165C97.107,25.727,96.997,25.587,96.891,25.417L96.891,25.417z M100.653,23.239
		c0-0.066-0.025-0.124-0.076-0.175c-0.051-0.051-0.109-0.076-0.175-0.076h-0.945c-0.084,0-0.147,0.026-0.188,0.079
		c-0.042,0.053-0.063,0.11-0.063,0.172c0,0.062,0.021,0.119,0.063,0.172c0.042,0.053,0.105,0.079,0.188,0.079h0.694v0.77
		c0,0.105-0.02,0.203-0.06,0.293c-0.04,0.09-0.094,0.169-0.162,0.237c-0.068,0.068-0.148,0.122-0.238,0.161
		c-0.09,0.039-0.188,0.059-0.294,0.059h-0.066c-0.106,0-0.204-0.02-0.294-0.059c-0.09-0.04-0.17-0.094-0.238-0.162
		c-0.068-0.068-0.122-0.147-0.162-0.238c-0.04-0.09-0.06-0.188-0.06-0.294V22.12c0-0.101,0.02-0.197,0.06-0.287
		c0.04-0.09,0.094-0.169,0.162-0.238c0.068-0.068,0.148-0.122,0.238-0.162c0.09-0.04,0.188-0.059,0.294-0.059h0.066
		c0.216,0,0.387,0.062,0.512,0.185c0.126,0.123,0.206,0.278,0.241,0.463c0.013,0.075,0.044,0.129,0.093,0.162
		c0.048,0.033,0.101,0.05,0.159,0.05c0.062,0,0.119-0.021,0.172-0.063c0.053-0.042,0.079-0.102,0.079-0.182v-0.04
		c-0.022-0.154-0.069-0.298-0.142-0.43c-0.073-0.132-0.165-0.246-0.278-0.34c-0.112-0.095-0.24-0.17-0.383-0.225
		c-0.143-0.055-0.294-0.083-0.453-0.083h-0.066c-0.172,0-0.335,0.033-0.489,0.099c-0.154,0.066-0.288,0.155-0.4,0.268
		c-0.112,0.112-0.202,0.245-0.268,0.397s-0.099,0.316-0.099,0.493v2.135c0,0.176,0.033,0.34,0.099,0.493
		c0.066,0.152,0.155,0.284,0.268,0.397c0.112,0.112,0.246,0.201,0.4,0.264c0.154,0.064,0.317,0.096,0.489,0.096h0.066
		c0.172,0,0.335-0.032,0.489-0.096c0.154-0.064,0.288-0.152,0.4-0.264s0.202-0.245,0.268-0.397s0.099-0.316,0.099-0.493V23.239
		L100.653,23.239z M102.484,21.123c0-0.084-0.026-0.146-0.079-0.188c-0.053-0.042-0.11-0.063-0.172-0.063
		c-0.062,0-0.119,0.021-0.172,0.063c-0.053,0.042-0.079,0.105-0.079,0.188v4.145c0,0.084,0.026,0.145,0.079,0.185
		c0.053,0.04,0.11,0.06,0.172,0.06c0.062,0,0.119-0.02,0.172-0.06c0.053-0.04,0.079-0.101,0.079-0.185V21.123L102.484,21.123z
		 M106.156,25.057c-0.042-0.053-0.105-0.079-0.188-0.079h-1.666l1.878-3.603c0.031-0.057,0.046-0.115,0.046-0.172
		c0-0.079-0.029-0.148-0.086-0.205c-0.057-0.057-0.13-0.086-0.218-0.086h-1.891c-0.088,0-0.152,0.026-0.192,0.079
		c-0.04,0.053-0.06,0.11-0.06,0.172c0,0.062,0.02,0.119,0.06,0.172c0.04,0.053,0.104,0.079,0.192,0.079h1.567l-1.871,3.59
		c-0.026,0.049-0.04,0.101-0.04,0.159c0,0.084,0.025,0.158,0.076,0.221c0.051,0.064,0.122,0.096,0.215,0.096h1.99
		c0.084,0,0.146-0.026,0.188-0.079c0.042-0.053,0.063-0.11,0.063-0.172C106.219,25.167,106.198,25.11,106.156,25.057L106.156,25.057
		z M108.433,22.462c-0.051-0.28-0.12-0.542-0.208-0.787c-0.088-0.245-0.193-0.467-0.314-0.668c-0.121-0.201-0.252-0.369-0.393-0.506
		c-0.053-0.053-0.11-0.079-0.172-0.079c-0.053,0-0.11,0.024-0.172,0.073c-0.053,0.053-0.079,0.11-0.079,0.172
		c0,0.057,0.024,0.11,0.073,0.159c0.115,0.11,0.224,0.251,0.327,0.423c0.104,0.172,0.195,0.366,0.274,0.582
		c0.079,0.216,0.142,0.451,0.188,0.704c0.046,0.253,0.069,0.517,0.069,0.79c0,0.282-0.024,0.551-0.073,0.807
		c-0.049,0.256-0.114,0.492-0.195,0.707c-0.082,0.216-0.175,0.409-0.281,0.578s-0.216,0.31-0.331,0.42
		c-0.049,0.048-0.073,0.101-0.073,0.159c0,0.062,0.026,0.119,0.079,0.172c0.057,0.053,0.117,0.079,0.179,0.079
		c0.057,0,0.112-0.026,0.165-0.079c0.141-0.137,0.273-0.304,0.397-0.502c0.123-0.198,0.23-0.42,0.321-0.664
		c0.09-0.245,0.162-0.509,0.215-0.793c0.053-0.284,0.079-0.578,0.079-0.883C108.509,23.03,108.484,22.742,108.433,22.462
		L108.433,22.462z M113.666,23.239c0-0.066-0.025-0.124-0.076-0.175c-0.051-0.051-0.109-0.076-0.175-0.076h-0.945
		c-0.084,0-0.147,0.026-0.188,0.079c-0.042,0.053-0.063,0.11-0.063,0.172c0,0.062,0.021,0.119,0.063,0.172
		c0.042,0.053,0.105,0.079,0.188,0.079h0.694v0.77c0,0.105-0.02,0.203-0.06,0.293c-0.04,0.09-0.094,0.169-0.162,0.237
		c-0.068,0.068-0.148,0.122-0.238,0.161c-0.09,0.039-0.188,0.059-0.294,0.059h-0.066c-0.106,0-0.204-0.02-0.294-0.059
		c-0.09-0.04-0.17-0.094-0.238-0.162c-0.068-0.068-0.122-0.147-0.162-0.238c-0.04-0.09-0.06-0.188-0.06-0.294V22.12
		c0-0.101,0.02-0.197,0.06-0.287c0.04-0.09,0.094-0.169,0.162-0.238c0.068-0.068,0.148-0.122,0.238-0.162
		c0.09-0.04,0.188-0.059,0.294-0.059h0.066c0.216,0,0.387,0.062,0.512,0.185c0.126,0.123,0.206,0.278,0.241,0.463
		c0.013,0.075,0.044,0.129,0.093,0.162c0.048,0.033,0.101,0.05,0.159,0.05c0.062,0,0.119-0.021,0.172-0.063
		c0.053-0.042,0.079-0.102,0.079-0.182v-0.04c-0.022-0.154-0.069-0.298-0.142-0.43c-0.073-0.132-0.165-0.246-0.278-0.34
		c-0.112-0.095-0.24-0.17-0.383-0.225c-0.143-0.055-0.294-0.083-0.453-0.083h-0.066c-0.172,0-0.335,0.033-0.489,0.099
		c-0.154,0.066-0.288,0.155-0.4,0.268c-0.112,0.112-0.202,0.245-0.268,0.397s-0.099,0.316-0.099,0.493v2.135
		c0,0.176,0.033,0.34,0.099,0.493c0.066,0.152,0.155,0.284,0.268,0.397c0.112,0.112,0.246,0.201,0.4,0.264
		c0.154,0.064,0.317,0.096,0.489,0.096h0.066c0.172,0,0.335-0.032,0.489-0.096c0.154-0.064,0.288-0.152,0.4-0.264
		s0.202-0.245,0.268-0.397s0.099-0.316,0.099-0.493V23.239L113.666,23.239z M118.771,23.312c0-0.181-0.029-0.338-0.086-0.473
		c-0.057-0.134-0.136-0.245-0.235-0.331c-0.099-0.086-0.213-0.15-0.34-0.192c-0.128-0.042-0.262-0.063-0.403-0.063h-0.06
		c-0.168,0-0.321,0.034-0.459,0.102c-0.139,0.068-0.259,0.16-0.36,0.274c-0.101-0.115-0.221-0.206-0.36-0.274
		c-0.139-0.068-0.292-0.102-0.459-0.102h-0.06c-0.115,0-0.223,0.018-0.324,0.053c-0.101,0.035-0.183,0.084-0.245,0.145
		c-0.013-0.066-0.044-0.116-0.093-0.149c-0.049-0.033-0.099-0.05-0.152-0.05c-0.066,0-0.126,0.022-0.179,0.066
		c-0.053,0.044-0.079,0.106-0.079,0.185v2.764c0,0.084,0.026,0.145,0.079,0.185c0.053,0.04,0.11,0.06,0.172,0.06
		c0.062,0,0.119-0.02,0.172-0.06c0.053-0.04,0.079-0.101,0.079-0.185v-2.003c0-0.154,0.057-0.278,0.172-0.37
		c0.115-0.093,0.247-0.139,0.397-0.139h0.06c0.159,0,0.293,0.053,0.403,0.159c0.11,0.106,0.165,0.242,0.165,0.41v1.93
		c0,0.088,0.026,0.153,0.079,0.195c0.053,0.042,0.11,0.063,0.172,0.063c0.062,0,0.119-0.021,0.172-0.063
		c0.053-0.042,0.079-0.107,0.079-0.195v-1.93c0-0.163,0.055-0.299,0.165-0.407c0.11-0.108,0.245-0.162,0.403-0.162h0.06
		c0.167,0,0.303,0.046,0.407,0.139c0.104,0.093,0.155,0.231,0.155,0.417v1.957c0,0.084,0.026,0.145,0.079,0.185
		c0.053,0.04,0.11,0.06,0.172,0.06c0.062,0,0.119-0.02,0.172-0.06c0.053-0.04,0.079-0.101,0.079-0.185L118.771,23.312
		L118.771,23.312z M122.188,23.318c0-0.145-0.028-0.283-0.083-0.413c-0.055-0.13-0.131-0.243-0.228-0.34
		c-0.097-0.097-0.211-0.173-0.34-0.228c-0.13-0.055-0.27-0.083-0.42-0.083h-0.046c-0.115,0-0.225,0.019-0.331,0.056
		c-0.106,0.037-0.187,0.092-0.245,0.162v-1.349c0-0.084-0.026-0.146-0.079-0.188c-0.053-0.042-0.11-0.063-0.172-0.063
		c-0.062,0-0.119,0.021-0.172,0.063c-0.053,0.042-0.079,0.105-0.079,0.188v4.159c0,0.079,0.026,0.138,0.079,0.175
		c0.053,0.037,0.11,0.056,0.172,0.056c0.057,0,0.11-0.016,0.159-0.047c0.048-0.031,0.077-0.08,0.086-0.147
		c0.048,0.049,0.12,0.094,0.215,0.134c0.095,0.04,0.213,0.06,0.354,0.06h0.06c0.145,0,0.283-0.028,0.413-0.083
		c0.13-0.055,0.243-0.13,0.34-0.225c0.097-0.095,0.174-0.206,0.231-0.334c0.057-0.128,0.086-0.267,0.086-0.417L122.188,23.318
		L122.188,23.318z M121.685,24.45c0,0.154-0.055,0.286-0.165,0.396c-0.11,0.11-0.245,0.165-0.403,0.165h-0.06
		c-0.15,0-0.281-0.046-0.393-0.138c-0.112-0.092-0.169-0.22-0.169-0.382v-1.226c0-0.154,0.056-0.277,0.169-0.369
		c0.112-0.092,0.243-0.138,0.393-0.138h0.06c0.159,0,0.293,0.055,0.403,0.165c0.11,0.11,0.165,0.242,0.165,0.395V24.45
		L121.685,24.45z M126,21.123c0-0.084-0.026-0.146-0.079-0.188c-0.053-0.042-0.11-0.063-0.172-0.063
		c-0.062,0-0.119,0.021-0.172,0.063c-0.053,0.042-0.079,0.105-0.079,0.188v1.745h-1.567v-1.745c0-0.084-0.026-0.146-0.079-0.188
		c-0.053-0.042-0.11-0.063-0.172-0.063c-0.062,0-0.119,0.021-0.172,0.063c-0.053,0.042-0.079,0.105-0.079,0.188v4.145
		c0,0.084,0.026,0.145,0.079,0.185c0.053,0.04,0.11,0.06,0.172,0.06c0.062,0,0.119-0.02,0.172-0.06
		c0.053-0.04,0.079-0.101,0.079-0.185v-1.897h1.567v1.897c0,0.088,0.026,0.151,0.079,0.188c0.053,0.037,0.11,0.056,0.172,0.056
		c0.062,0,0.119-0.019,0.172-0.056c0.053-0.037,0.079-0.1,0.079-0.188V21.123L126,21.123z"/>
	<path fill="#DA1F3D" d="M48.391,13.726c-0.042-0.053-0.105-0.079-0.188-0.079c-0.123,0-0.237,0.022-0.34,0.066
		c-0.104,0.044-0.194,0.105-0.271,0.182c-0.077,0.077-0.137,0.17-0.179,0.278c-0.042,0.108-0.063,0.224-0.063,0.347v0.529h-0.145
		c-0.084,0-0.147,0.026-0.188,0.079c-0.042,0.053-0.063,0.11-0.063,0.172c0,0.062,0.021,0.119,0.063,0.172
		c0.042,0.053,0.105,0.079,0.188,0.079h0.145v2.492c0,0.084,0.026,0.145,0.079,0.185c0.053,0.04,0.11,0.06,0.172,0.06
		c0.062,0,0.119-0.02,0.172-0.06c0.053-0.04,0.079-0.101,0.079-0.185v-2.492h0.311c0.084,0,0.146-0.026,0.188-0.079
		c0.042-0.053,0.063-0.11,0.063-0.172c0-0.062-0.02-0.119-0.06-0.172c-0.04-0.053-0.104-0.079-0.192-0.079h-0.311v-0.529
		c0-0.101,0.032-0.188,0.096-0.261c0.064-0.073,0.149-0.109,0.255-0.109c0.084,0,0.146-0.026,0.188-0.079
		c0.042-0.053,0.063-0.11,0.063-0.172C48.454,13.836,48.433,13.779,48.391,13.726L48.391,13.726z M51.333,13.898
		c0-0.084-0.028-0.146-0.083-0.188c-0.055-0.042-0.114-0.063-0.175-0.063c-0.062,0-0.118,0.021-0.169,0.063
		c-0.051,0.042-0.076,0.105-0.076,0.188v0.145c0,0.084,0.026,0.147,0.079,0.188c0.053,0.042,0.11,0.063,0.172,0.063
		c0.062,0,0.119-0.021,0.172-0.063c0.053-0.042,0.079-0.105,0.079-0.188L51.333,13.898L51.333,13.898z M50.117,13.898
		c0-0.084-0.026-0.146-0.079-0.188c-0.053-0.042-0.11-0.063-0.172-0.063c-0.062,0-0.119,0.021-0.172,0.063
		c-0.053,0.042-0.079,0.105-0.079,0.188v0.145c0,0.084,0.026,0.147,0.079,0.188c0.053,0.042,0.11,0.063,0.172,0.063
		c0.062,0,0.119-0.021,0.172-0.063c0.053-0.042,0.079-0.105,0.079-0.188V13.898L50.117,13.898z M51.578,15.28
		c0-0.084-0.026-0.146-0.079-0.188c-0.053-0.042-0.11-0.063-0.172-0.063c-0.062,0-0.119,0.021-0.172,0.063
		c-0.053,0.042-0.079,0.104-0.079,0.188v1.946c0,0.154-0.055,0.286-0.165,0.396c-0.11,0.11-0.245,0.165-0.403,0.165h-0.06
		c-0.154,0-0.287-0.055-0.397-0.165c-0.11-0.11-0.165-0.242-0.165-0.396v-1.946c0-0.083-0.026-0.146-0.079-0.188
		c-0.053-0.042-0.11-0.063-0.172-0.063c-0.062,0-0.119,0.021-0.172,0.063c-0.053,0.042-0.079,0.105-0.079,0.188v1.95
		c0,0.185,0.029,0.344,0.086,0.476c0.057,0.132,0.134,0.241,0.231,0.327c0.097,0.086,0.21,0.15,0.34,0.192
		c0.13,0.042,0.265,0.063,0.407,0.063h0.06c0.115,0,0.223-0.017,0.324-0.05c0.101-0.033,0.183-0.082,0.245-0.144
		c0.013,0.067,0.044,0.116,0.093,0.147c0.048,0.031,0.101,0.047,0.159,0.047c0.062,0,0.119-0.021,0.172-0.063
		s0.079-0.102,0.079-0.182L51.578,15.28L51.578,15.28z M54.397,15.353c-0.079-0.115-0.182-0.197-0.307-0.248
		c-0.126-0.051-0.252-0.076-0.38-0.076c-0.088,0-0.161,0.007-0.218,0.02c-0.057,0.013-0.106,0.029-0.145,0.046
		c-0.049,0.018-0.086,0.04-0.112,0.066c-0.022-0.048-0.053-0.083-0.093-0.102s-0.082-0.03-0.126-0.03
		c-0.062,0-0.12,0.022-0.175,0.066c-0.055,0.044-0.083,0.106-0.083,0.185v2.75c0,0.088,0.026,0.153,0.079,0.195
		c0.053,0.042,0.11,0.063,0.172,0.063c0.062,0,0.119-0.021,0.172-0.063c0.053-0.042,0.079-0.107,0.079-0.195v-2.056
		c0-0.053,0.004-0.106,0.013-0.159c0.009-0.053,0.029-0.1,0.06-0.142c0.031-0.042,0.075-0.076,0.132-0.102
		c0.057-0.026,0.137-0.04,0.238-0.04c0.084,0,0.149,0.017,0.195,0.05c0.046,0.033,0.083,0.063,0.109,0.089
		c0.062,0.062,0.13,0.093,0.205,0.093c0.066,0,0.123-0.022,0.172-0.066c0.048-0.044,0.073-0.101,0.073-0.172
		C54.456,15.472,54.437,15.414,54.397,15.353L54.397,15.353L54.397,15.353z M58.165,13.898c0-0.084-0.026-0.146-0.079-0.188
		c-0.053-0.042-0.11-0.063-0.172-0.063c-0.062,0-0.119,0.021-0.172,0.063c-0.053,0.042-0.079,0.105-0.079,0.188v4.145
		c0,0.084,0.026,0.145,0.079,0.185c0.053,0.04,0.11,0.06,0.172,0.06c0.062,0,0.119-0.02,0.172-0.06
		c0.053-0.04,0.079-0.101,0.079-0.185V13.898L58.165,13.898z M61.696,16.093c0-0.181-0.029-0.338-0.086-0.473
		c-0.057-0.134-0.134-0.246-0.231-0.334c-0.097-0.088-0.209-0.153-0.337-0.195c-0.128-0.042-0.262-0.063-0.403-0.063h-0.06
		c-0.115,0-0.223,0.018-0.324,0.053c-0.101,0.035-0.183,0.084-0.245,0.145c-0.013-0.066-0.044-0.116-0.093-0.149
		c-0.049-0.033-0.101-0.05-0.159-0.05c-0.066,0-0.126,0.022-0.179,0.066c-0.053,0.044-0.079,0.106-0.079,0.185v2.764
		c0,0.084,0.026,0.145,0.079,0.185c0.053,0.04,0.11,0.06,0.172,0.06c0.062,0,0.119-0.02,0.172-0.06
		c0.053-0.04,0.079-0.101,0.079-0.185v-1.95c0-0.159,0.056-0.292,0.168-0.4c0.112-0.108,0.244-0.162,0.398-0.162h0.059
		c0.158,0,0.292,0.055,0.401,0.165c0.109,0.11,0.164,0.242,0.164,0.397v1.95c0,0.084,0.027,0.145,0.08,0.185
		c0.054,0.04,0.112,0.06,0.174,0.06c0.063,0,0.119-0.02,0.171-0.06c0.051-0.04,0.077-0.101,0.077-0.185V16.093L61.696,16.093z
		 M64.173,17.873c-0.037-0.049-0.096-0.078-0.175-0.087c-0.101-0.009-0.191-0.045-0.268-0.109c-0.077-0.064-0.116-0.153-0.116-0.267
		v-1.859h0.357c0.084,0,0.146-0.026,0.188-0.079c0.042-0.053,0.063-0.11,0.063-0.172c0-0.062-0.021-0.119-0.063-0.172
		c-0.042-0.053-0.105-0.079-0.188-0.079h-0.357v-1.15c0-0.084-0.026-0.146-0.079-0.188c-0.053-0.042-0.11-0.063-0.172-0.063
		c-0.062,0-0.119,0.021-0.172,0.063c-0.053,0.042-0.079,0.105-0.079,0.188v1.15H62.88c-0.084,0-0.147,0.026-0.188,0.079
		c-0.042,0.053-0.063,0.11-0.063,0.172c0,0.062,0.021,0.119,0.063,0.172c0.042,0.053,0.105,0.079,0.188,0.079h0.231v1.871
		c0,0.119,0.022,0.231,0.066,0.337c0.044,0.106,0.106,0.198,0.185,0.278c0.079,0.079,0.172,0.141,0.278,0.185
		s0.218,0.066,0.337,0.066c0.088,0,0.152-0.026,0.192-0.077c0.04-0.051,0.06-0.108,0.06-0.171
		C64.229,17.977,64.21,17.922,64.173,17.873L64.173,17.873z M67.338,16.1c0-0.154-0.028-0.296-0.083-0.426
		c-0.055-0.13-0.131-0.243-0.228-0.34c-0.097-0.097-0.211-0.172-0.34-0.225c-0.13-0.053-0.268-0.079-0.413-0.079h-0.066
		c-0.145,0-0.283,0.028-0.413,0.083c-0.13,0.055-0.244,0.131-0.34,0.228c-0.097,0.097-0.173,0.211-0.228,0.34
		c-0.055,0.13-0.083,0.268-0.083,0.413v1.137c0,0.15,0.027,0.289,0.083,0.417c0.055,0.128,0.131,0.239,0.228,0.334
		c0.097,0.095,0.21,0.17,0.34,0.225c0.13,0.055,0.268,0.083,0.413,0.083h0.066c0.225,0,0.422-0.058,0.592-0.174
		c0.17-0.116,0.294-0.267,0.374-0.454c0.018-0.031,0.026-0.068,0.026-0.112c0-0.075-0.026-0.137-0.079-0.185
		c-0.053-0.048-0.112-0.073-0.179-0.073c-0.044,0-0.086,0.012-0.126,0.036c-0.04,0.024-0.071,0.065-0.093,0.122
		c-0.044,0.093-0.109,0.172-0.195,0.238c-0.086,0.066-0.193,0.099-0.321,0.099h-0.066c-0.154,0-0.287-0.055-0.397-0.164
		c-0.11-0.109-0.165-0.241-0.165-0.394v-0.335h1.441c0.07,0,0.13-0.025,0.179-0.076c0.048-0.051,0.073-0.109,0.073-0.175
		L67.338,16.1L67.338,16.1z M66.836,16.43h-1.19v-0.333c0-0.16,0.056-0.294,0.169-0.403c0.112-0.109,0.246-0.163,0.4-0.163h0.066
		c0.145,0,0.274,0.054,0.387,0.163c0.112,0.109,0.169,0.245,0.169,0.41L66.836,16.43L66.836,16.43z M70.049,15.353
		c-0.079-0.115-0.182-0.197-0.307-0.248c-0.126-0.051-0.252-0.076-0.38-0.076c-0.088,0-0.161,0.007-0.218,0.02
		c-0.057,0.013-0.106,0.029-0.145,0.046c-0.049,0.018-0.086,0.04-0.112,0.066c-0.022-0.048-0.053-0.083-0.093-0.102
		s-0.082-0.03-0.126-0.03c-0.062,0-0.12,0.022-0.175,0.066c-0.055,0.044-0.083,0.106-0.083,0.185v2.75
		c0,0.088,0.026,0.153,0.079,0.195c0.053,0.042,0.11,0.063,0.172,0.063c0.062,0,0.119-0.021,0.172-0.063
		c0.053-0.042,0.079-0.107,0.079-0.195v-2.056c0-0.053,0.004-0.106,0.013-0.159c0.009-0.053,0.029-0.1,0.06-0.142
		c0.031-0.042,0.075-0.076,0.132-0.102c0.057-0.026,0.137-0.04,0.238-0.04c0.084,0,0.149,0.017,0.195,0.05
		c0.046,0.033,0.083,0.063,0.109,0.089c0.062,0.062,0.13,0.093,0.205,0.093c0.066,0,0.123-0.022,0.172-0.066
		c0.048-0.044,0.073-0.101,0.073-0.172C70.108,15.472,70.088,15.414,70.049,15.353L70.049,15.353L70.049,15.353z M73.163,16.093
		c0-0.181-0.029-0.338-0.086-0.473c-0.057-0.134-0.134-0.246-0.231-0.334c-0.097-0.088-0.209-0.153-0.337-0.195
		c-0.128-0.042-0.262-0.063-0.403-0.063h-0.06c-0.115,0-0.223,0.018-0.324,0.053c-0.101,0.035-0.183,0.084-0.245,0.145
		c-0.013-0.066-0.044-0.116-0.093-0.149c-0.049-0.033-0.101-0.05-0.159-0.05c-0.066,0-0.126,0.022-0.179,0.066
		c-0.053,0.044-0.079,0.106-0.079,0.185v2.764c0,0.084,0.026,0.145,0.079,0.185c0.053,0.04,0.11,0.06,0.172,0.06
		c0.062,0,0.119-0.02,0.172-0.06c0.053-0.04,0.079-0.101,0.079-0.185v-1.95c0-0.159,0.056-0.292,0.168-0.4
		c0.112-0.108,0.244-0.162,0.398-0.162h0.059c0.158,0,0.292,0.055,0.401,0.165c0.109,0.11,0.164,0.242,0.164,0.397v1.95
		c0,0.084,0.027,0.145,0.08,0.185c0.054,0.04,0.112,0.06,0.174,0.06c0.063,0,0.119-0.02,0.171-0.06
		c0.051-0.04,0.077-0.101,0.077-0.185V16.093L73.163,16.093z M76.724,17.888c-0.033-0.046-0.087-0.076-0.162-0.089
		c-0.115-0.022-0.172-0.095-0.172-0.218v-1.534c0-0.141-0.026-0.273-0.079-0.397c-0.053-0.123-0.126-0.231-0.218-0.324
		c-0.093-0.093-0.203-0.165-0.331-0.218c-0.128-0.053-0.264-0.079-0.41-0.079h-0.046c-0.088,0-0.179,0.01-0.271,0.03
		c-0.093,0.02-0.183,0.053-0.271,0.099c-0.088,0.046-0.171,0.109-0.248,0.188c-0.077,0.079-0.142,0.179-0.195,0.298
		c-0.018,0.031-0.026,0.071-0.026,0.119c0,0.071,0.026,0.127,0.079,0.169c0.053,0.042,0.11,0.063,0.172,0.063
		c0.044,0,0.086-0.01,0.126-0.03c0.04-0.02,0.073-0.054,0.099-0.102c0.062-0.11,0.132-0.193,0.212-0.248
		c0.079-0.055,0.187-0.083,0.324-0.083h0.046c0.145,0,0.271,0.04,0.377,0.119c0.106,0.079,0.159,0.218,0.159,0.417
		c0,0.018-0.001,0.037-0.003,0.06c-0.002,0.022-0.008,0.04-0.017,0.053c-0.026,0.035-0.087,0.063-0.182,0.083
		c-0.095,0.02-0.204,0.041-0.327,0.063c-0.123,0.022-0.254,0.051-0.39,0.086c-0.137,0.035-0.262,0.087-0.377,0.155
		c-0.115,0.068-0.209,0.159-0.284,0.271c-0.075,0.112-0.112,0.255-0.112,0.426v0.079c0,0.154,0.031,0.291,0.093,0.41
		c0.062,0.119,0.142,0.218,0.241,0.298c0.099,0.079,0.213,0.139,0.34,0.179c0.128,0.04,0.258,0.06,0.39,0.06h0.06
		c0.278,0,0.516-0.086,0.714-0.258c0.044,0.062,0.101,0.115,0.172,0.159c0.07,0.044,0.163,0.075,0.278,0.093
		c0.004,0.004,0.02,0.007,0.046,0.007c0.079,0,0.14-0.025,0.182-0.076c0.042-0.051,0.063-0.109,0.063-0.175
		C76.774,17.984,76.757,17.934,76.724,17.888L76.724,17.888z M75.888,17.224c0,0.159-0.056,0.292-0.169,0.4
		c-0.112,0.108-0.246,0.162-0.4,0.162h-0.06c-0.168,0-0.303-0.042-0.407-0.126c-0.104-0.084-0.155-0.196-0.155-0.337V17.27
		c0-0.115,0.039-0.203,0.116-0.264c0.077-0.062,0.175-0.11,0.294-0.145c0.119-0.035,0.248-0.063,0.387-0.083
		c0.139-0.02,0.27-0.045,0.393-0.076V17.224L75.888,17.224z M78.964,17.873c-0.037-0.049-0.096-0.078-0.175-0.087
		c-0.101-0.009-0.191-0.045-0.268-0.109c-0.077-0.064-0.116-0.153-0.116-0.267v-1.859h0.357c0.084,0,0.146-0.026,0.188-0.079
		c0.042-0.053,0.063-0.11,0.063-0.172c0-0.062-0.021-0.119-0.063-0.172c-0.042-0.053-0.105-0.079-0.188-0.079h-0.357v-1.15
		c0-0.084-0.026-0.146-0.079-0.188c-0.053-0.042-0.11-0.063-0.172-0.063c-0.062,0-0.119,0.021-0.172,0.063
		c-0.053,0.042-0.079,0.105-0.079,0.188v1.15h-0.231c-0.084,0-0.147,0.026-0.188,0.079c-0.042,0.053-0.063,0.11-0.063,0.172
		c0,0.062,0.021,0.119,0.063,0.172c0.042,0.053,0.105,0.079,0.188,0.079h0.231v1.871c0,0.119,0.022,0.231,0.066,0.337
		c0.044,0.106,0.106,0.198,0.185,0.278c0.079,0.079,0.172,0.141,0.278,0.185c0.106,0.044,0.218,0.066,0.337,0.066
		c0.088,0,0.152-0.026,0.192-0.077s0.06-0.108,0.06-0.171C79.02,17.977,79.001,17.922,78.964,17.873L78.964,17.873z M80.591,13.898
		c0-0.084-0.026-0.146-0.079-0.188c-0.053-0.042-0.11-0.063-0.172-0.063c-0.062,0-0.119,0.021-0.172,0.063
		c-0.053,0.042-0.079,0.105-0.079,0.188v0.145c0,0.084,0.026,0.147,0.079,0.188c0.053,0.042,0.11,0.063,0.172,0.063
		c0.062,0,0.119-0.021,0.172-0.063c0.053-0.042,0.079-0.105,0.079-0.188V13.898L80.591,13.898z M80.591,15.28
		c0-0.084-0.026-0.146-0.079-0.188c-0.053-0.042-0.11-0.063-0.172-0.063c-0.062,0-0.119,0.021-0.172,0.063
		c-0.053,0.042-0.079,0.105-0.079,0.188v2.764c0,0.084,0.026,0.145,0.079,0.185c0.053,0.04,0.11,0.06,0.172,0.06
		c0.062,0,0.119-0.02,0.172-0.06c0.053-0.04,0.079-0.101,0.079-0.185V15.28L80.591,15.28z M83.969,16.093
		c0-0.145-0.028-0.283-0.083-0.413c-0.055-0.13-0.131-0.243-0.228-0.34c-0.097-0.097-0.211-0.173-0.34-0.228
		c-0.13-0.055-0.268-0.083-0.413-0.083h-0.066c-0.145,0-0.283,0.028-0.413,0.083c-0.13,0.055-0.244,0.131-0.34,0.228
		c-0.097,0.097-0.173,0.211-0.228,0.34c-0.055,0.13-0.083,0.268-0.083,0.413v1.137c0,0.15,0.027,0.289,0.083,0.417
		c0.055,0.128,0.131,0.239,0.228,0.334c0.097,0.095,0.21,0.17,0.34,0.225c0.13,0.055,0.268,0.083,0.413,0.083h0.066
		c0.145,0,0.283-0.028,0.413-0.083c0.13-0.055,0.243-0.13,0.34-0.225c0.097-0.095,0.173-0.206,0.228-0.334
		c0.055-0.128,0.083-0.267,0.083-0.417V16.093L83.969,16.093z M83.467,17.225c0,0.154-0.055,0.286-0.165,0.396
		c-0.11,0.11-0.242,0.165-0.397,0.165h-0.06c-0.159,0-0.293-0.055-0.403-0.165c-0.11-0.11-0.165-0.242-0.165-0.396v-1.134
		c0-0.154,0.055-0.286,0.165-0.395c0.11-0.11,0.242-0.165,0.397-0.165h0.066c0.154,0,0.286,0.055,0.397,0.165
		c0.11,0.11,0.165,0.242,0.165,0.395V17.225L83.467,17.225z M87.312,16.093c0-0.181-0.029-0.338-0.086-0.473
		c-0.057-0.134-0.134-0.246-0.231-0.334c-0.097-0.088-0.209-0.153-0.337-0.195c-0.128-0.042-0.262-0.063-0.403-0.063h-0.06
		c-0.115,0-0.223,0.018-0.324,0.053c-0.101,0.035-0.183,0.084-0.245,0.145c-0.013-0.066-0.044-0.116-0.093-0.149
		c-0.049-0.033-0.101-0.05-0.159-0.05c-0.066,0-0.126,0.022-0.179,0.066c-0.053,0.044-0.079,0.106-0.079,0.185v2.764
		c0,0.084,0.026,0.145,0.079,0.185c0.053,0.04,0.11,0.06,0.172,0.06c0.062,0,0.119-0.02,0.172-0.06
		c0.053-0.04,0.079-0.101,0.079-0.185v-1.95c0-0.159,0.056-0.292,0.168-0.4c0.112-0.108,0.244-0.162,0.398-0.162h0.059
		c0.158,0,0.292,0.055,0.401,0.165c0.109,0.11,0.164,0.242,0.164,0.397v1.95c0,0.084,0.027,0.145,0.08,0.185
		c0.054,0.04,0.112,0.06,0.174,0.06c0.063,0,0.119-0.02,0.171-0.06c0.051-0.04,0.077-0.101,0.077-0.185V16.093L87.312,16.093z
		 M90.873,17.888c-0.033-0.046-0.087-0.076-0.162-0.089c-0.115-0.022-0.172-0.095-0.172-0.218v-1.534
		c0-0.141-0.026-0.273-0.079-0.397c-0.053-0.123-0.126-0.231-0.218-0.324c-0.093-0.093-0.203-0.165-0.331-0.218
		c-0.128-0.053-0.264-0.079-0.41-0.079h-0.046c-0.088,0-0.179,0.01-0.271,0.03c-0.093,0.02-0.183,0.053-0.271,0.099
		c-0.088,0.046-0.171,0.109-0.248,0.188c-0.077,0.079-0.142,0.179-0.195,0.298c-0.018,0.031-0.026,0.071-0.026,0.119
		c0,0.071,0.026,0.127,0.079,0.169c0.053,0.042,0.11,0.063,0.172,0.063c0.044,0,0.086-0.01,0.126-0.03
		c0.04-0.02,0.073-0.054,0.099-0.102c0.062-0.11,0.132-0.193,0.212-0.248c0.079-0.055,0.187-0.083,0.324-0.083h0.046
		c0.145,0,0.271,0.04,0.377,0.119c0.106,0.079,0.159,0.218,0.159,0.417c0,0.018-0.001,0.037-0.003,0.06
		c-0.002,0.022-0.008,0.04-0.017,0.053c-0.026,0.035-0.087,0.063-0.182,0.083c-0.095,0.02-0.204,0.041-0.327,0.063
		c-0.123,0.022-0.254,0.051-0.39,0.086c-0.137,0.035-0.262,0.087-0.377,0.155c-0.115,0.068-0.209,0.159-0.284,0.271
		c-0.075,0.112-0.112,0.255-0.112,0.426v0.079c0,0.154,0.031,0.291,0.093,0.41c0.062,0.119,0.142,0.218,0.241,0.298
		c0.099,0.079,0.213,0.139,0.34,0.179c0.128,0.04,0.258,0.06,0.39,0.06h0.06c0.278,0,0.516-0.086,0.714-0.258
		c0.044,0.062,0.101,0.115,0.172,0.159c0.07,0.044,0.163,0.075,0.278,0.093c0.004,0.004,0.02,0.007,0.046,0.007
		c0.079,0,0.14-0.025,0.182-0.076c0.042-0.051,0.063-0.109,0.063-0.175C90.923,17.984,90.906,17.934,90.873,17.888L90.873,17.888z
		 M90.037,17.224c0,0.159-0.056,0.292-0.169,0.4c-0.112,0.108-0.246,0.162-0.4,0.162h-0.06c-0.168,0-0.303-0.042-0.407-0.126
		c-0.104-0.084-0.155-0.196-0.155-0.337V17.27c0-0.115,0.039-0.203,0.116-0.264c0.077-0.062,0.175-0.11,0.294-0.145
		c0.119-0.035,0.248-0.063,0.387-0.083s0.27-0.045,0.393-0.076V17.224L90.037,17.224z M92.982,17.866
		c-0.04-0.054-0.104-0.08-0.192-0.08c-0.101-0.004-0.187-0.042-0.258-0.112c-0.071-0.07-0.106-0.156-0.106-0.257v-3.518
		c0-0.084-0.026-0.146-0.079-0.188c-0.053-0.042-0.11-0.063-0.172-0.063c-0.062,0-0.119,0.021-0.172,0.063
		c-0.053,0.042-0.079,0.105-0.079,0.188v3.524c0,0.119,0.022,0.231,0.066,0.337c0.044,0.106,0.106,0.198,0.185,0.278
		c0.079,0.079,0.172,0.141,0.278,0.185c0.106,0.044,0.218,0.066,0.337,0.066c0.088,0,0.152-0.026,0.192-0.077
		c0.04-0.051,0.06-0.108,0.06-0.171C93.041,17.977,93.022,17.919,92.982,17.866L92.982,17.866z M96.148,16.1
		c0-0.154-0.028-0.296-0.083-0.426c-0.055-0.13-0.131-0.243-0.228-0.34c-0.097-0.097-0.211-0.172-0.34-0.225
		c-0.13-0.053-0.268-0.079-0.413-0.079h-0.066c-0.145,0-0.283,0.028-0.413,0.083c-0.13,0.055-0.244,0.131-0.34,0.228
		c-0.097,0.097-0.173,0.211-0.228,0.34c-0.055,0.13-0.083,0.268-0.083,0.413v1.137c0,0.15,0.027,0.289,0.083,0.417
		c0.055,0.128,0.131,0.239,0.228,0.334c0.097,0.095,0.21,0.17,0.34,0.225c0.13,0.055,0.268,0.083,0.413,0.083h0.066
		c0.225,0,0.422-0.058,0.592-0.174c0.17-0.116,0.294-0.267,0.374-0.454c0.018-0.031,0.026-0.068,0.026-0.112
		c0-0.075-0.026-0.137-0.079-0.185c-0.053-0.048-0.112-0.073-0.179-0.073c-0.044,0-0.086,0.012-0.126,0.036
		c-0.04,0.024-0.071,0.065-0.093,0.122c-0.044,0.093-0.109,0.172-0.195,0.238c-0.086,0.066-0.193,0.099-0.321,0.099h-0.066
		c-0.154,0-0.287-0.055-0.397-0.164c-0.11-0.109-0.165-0.241-0.165-0.394v-0.335h1.441c0.07,0,0.13-0.025,0.179-0.076
		c0.048-0.051,0.073-0.109,0.073-0.175L96.148,16.1L96.148,16.1z M95.646,16.43h-1.19v-0.333c0-0.16,0.056-0.294,0.169-0.403
		c0.112-0.109,0.246-0.163,0.4-0.163h0.066c0.145,0,0.274,0.054,0.387,0.163c0.112,0.109,0.169,0.245,0.169,0.41L95.646,16.43
		L95.646,16.43z"/>
	<path fill="#DA1F3D" d="M49.823,7.711c0-0.172-0.033-0.334-0.099-0.486c-0.066-0.152-0.155-0.284-0.268-0.397
		c-0.112-0.112-0.245-0.202-0.397-0.268s-0.314-0.099-0.486-0.099h-1.071c-0.066,0-0.125,0.025-0.175,0.076
		c-0.051,0.051-0.076,0.109-0.076,0.175v4.066c0,0.066,0.025,0.125,0.076,0.175c0.051,0.051,0.109,0.076,0.175,0.076h1.071
		c0.172,0,0.334-0.033,0.486-0.099c0.152-0.066,0.284-0.155,0.397-0.268s0.202-0.246,0.268-0.4c0.066-0.154,0.099-0.317,0.099-0.489
		V7.711L49.823,7.711z M49.32,9.774c0,0.106-0.02,0.204-0.059,0.294c-0.039,0.09-0.093,0.17-0.161,0.238
		c-0.068,0.068-0.147,0.122-0.237,0.162s-0.188,0.06-0.293,0.06h-0.816V6.964h0.823c0.105,0,0.203,0.02,0.293,0.06
		s0.168,0.094,0.234,0.162c0.066,0.068,0.119,0.148,0.158,0.238c0.039,0.09,0.059,0.188,0.059,0.294L49.32,9.774L49.32,9.774z
		 M53.181,8.874c0-0.154-0.028-0.296-0.083-0.426c-0.055-0.13-0.131-0.243-0.228-0.34c-0.097-0.097-0.211-0.172-0.34-0.225
		c-0.13-0.053-0.268-0.079-0.413-0.079h-0.066c-0.145,0-0.283,0.028-0.413,0.083c-0.13,0.055-0.244,0.131-0.34,0.228
		c-0.097,0.097-0.173,0.211-0.228,0.34c-0.055,0.13-0.083,0.268-0.083,0.413v1.137c0,0.15,0.027,0.289,0.083,0.417
		c0.055,0.128,0.131,0.239,0.228,0.334c0.097,0.095,0.21,0.17,0.34,0.225c0.13,0.055,0.268,0.083,0.413,0.083h0.066
		c0.225,0,0.422-0.058,0.592-0.174c0.17-0.116,0.294-0.267,0.374-0.454c0.018-0.031,0.026-0.068,0.026-0.112
		c0-0.075-0.026-0.137-0.079-0.185c-0.053-0.048-0.112-0.073-0.179-0.073c-0.044,0-0.086,0.012-0.126,0.036
		c-0.04,0.024-0.071,0.065-0.093,0.122c-0.044,0.093-0.109,0.172-0.195,0.238s-0.193,0.099-0.321,0.099h-0.066
		c-0.154,0-0.287-0.055-0.397-0.164c-0.11-0.109-0.165-0.241-0.165-0.394V9.668h1.441c0.07,0,0.13-0.025,0.179-0.076
		c0.048-0.051,0.073-0.109,0.073-0.175L53.181,8.874L53.181,8.874z M52.679,9.205h-1.19V8.872c0-0.16,0.056-0.294,0.169-0.403
		s0.246-0.163,0.4-0.163h0.066c0.145,0,0.274,0.054,0.387,0.163s0.169,0.245,0.169,0.41L52.679,9.205L52.679,9.205z M56.433,8.055
		c0-0.084-0.026-0.146-0.079-0.188c-0.053-0.042-0.11-0.063-0.172-0.063c-0.062,0-0.119,0.021-0.172,0.063s-0.079,0.104-0.079,0.188
		V10c0,0.154-0.055,0.286-0.165,0.396c-0.11,0.11-0.245,0.165-0.403,0.165h-0.06c-0.154,0-0.287-0.055-0.397-0.165
		c-0.11-0.11-0.165-0.242-0.165-0.396V8.054c0-0.083-0.026-0.146-0.079-0.188s-0.11-0.063-0.172-0.063
		c-0.062,0-0.119,0.021-0.172,0.063c-0.053,0.042-0.079,0.105-0.079,0.188v1.95c0,0.185,0.029,0.344,0.086,0.476
		c0.057,0.132,0.134,0.241,0.231,0.327c0.097,0.086,0.21,0.15,0.34,0.192c0.13,0.042,0.265,0.063,0.407,0.063h0.06
		c0.115,0,0.223-0.017,0.324-0.05c0.101-0.033,0.183-0.082,0.245-0.144c0.013,0.067,0.044,0.116,0.093,0.147
		c0.048,0.031,0.101,0.047,0.159,0.047c0.062,0,0.119-0.021,0.172-0.063c0.053-0.042,0.079-0.102,0.079-0.182L56.433,8.055
		L56.433,8.055z M58.998,10.647c-0.037-0.049-0.096-0.078-0.175-0.087c-0.101-0.009-0.191-0.045-0.268-0.109
		c-0.077-0.064-0.116-0.153-0.116-0.267V8.326h0.357c0.084,0,0.146-0.026,0.188-0.079c0.042-0.053,0.063-0.11,0.063-0.172
		c0-0.062-0.021-0.119-0.063-0.172c-0.042-0.053-0.105-0.079-0.188-0.079h-0.357v-1.15c0-0.084-0.026-0.146-0.079-0.188
		c-0.053-0.042-0.11-0.063-0.172-0.063c-0.062,0-0.119,0.021-0.172,0.063c-0.053,0.042-0.079,0.105-0.079,0.188v1.15h-0.231
		c-0.084,0-0.147,0.026-0.188,0.079c-0.042,0.053-0.063,0.11-0.063,0.172c0,0.062,0.021,0.119,0.063,0.172
		c0.042,0.053,0.105,0.079,0.188,0.079h0.231v1.871c0,0.119,0.022,0.231,0.066,0.337c0.044,0.106,0.106,0.198,0.185,0.278
		c0.079,0.079,0.172,0.141,0.278,0.185c0.106,0.044,0.218,0.066,0.337,0.066c0.088,0,0.152-0.026,0.192-0.077
		c0.04-0.051,0.06-0.108,0.06-0.171C59.054,10.752,59.035,10.696,58.998,10.647L58.998,10.647z M62.256,10.113
		c0-0.215-0.043-0.385-0.129-0.508c-0.086-0.123-0.192-0.219-0.317-0.287C61.684,9.25,61.547,9.2,61.397,9.167
		c-0.15-0.033-0.288-0.066-0.413-0.099c-0.126-0.033-0.231-0.077-0.317-0.132c-0.086-0.055-0.129-0.14-0.129-0.254v-0.02
		c0.004-0.097,0.055-0.18,0.152-0.251c0.097-0.07,0.238-0.106,0.423-0.106h0.026c0.15,0,0.267,0.021,0.35,0.063
		c0.084,0.042,0.161,0.08,0.231,0.116c0.053,0.026,0.101,0.04,0.145,0.04c0.07,0,0.128-0.024,0.172-0.073
		c0.044-0.048,0.066-0.104,0.066-0.166c0-0.08-0.031-0.145-0.093-0.194c-0.026-0.022-0.065-0.05-0.116-0.084
		c-0.051-0.033-0.112-0.065-0.185-0.094c-0.073-0.029-0.156-0.055-0.251-0.077c-0.095-0.022-0.199-0.034-0.314-0.034h-0.026
		c-0.106,0-0.221,0.014-0.347,0.043c-0.126,0.029-0.242,0.076-0.35,0.142c-0.108,0.066-0.199,0.153-0.274,0.26
		c-0.075,0.108-0.112,0.241-0.112,0.399c0,0.207,0.043,0.366,0.129,0.478c0.086,0.112,0.192,0.199,0.317,0.26
		c0.126,0.062,0.263,0.107,0.413,0.135c0.15,0.029,0.288,0.063,0.413,0.102c0.126,0.04,0.231,0.093,0.317,0.162
		c0.086,0.068,0.129,0.173,0.129,0.313v0.02c-0.004,0.11-0.061,0.211-0.169,0.303c-0.108,0.092-0.263,0.139-0.466,0.139h-0.033
		c-0.123,0-0.249-0.042-0.377-0.126c-0.128-0.084-0.234-0.181-0.317-0.291c-0.031-0.044-0.066-0.074-0.106-0.089
		c-0.04-0.015-0.079-0.023-0.119-0.023c-0.066,0-0.126,0.022-0.179,0.066c-0.053,0.044-0.079,0.104-0.079,0.179
		c0,0.018,0.011,0.06,0.033,0.126c0.053,0.101,0.121,0.193,0.205,0.276c0.084,0.083,0.176,0.152,0.278,0.208
		c0.101,0.056,0.208,0.099,0.321,0.131c0.112,0.031,0.221,0.047,0.327,0.047h0.04c0.137,0,0.273-0.02,0.41-0.059
		c0.137-0.04,0.26-0.098,0.37-0.175c0.11-0.077,0.198-0.173,0.264-0.287c0.066-0.114,0.099-0.248,0.099-0.402V10.113L62.256,10.113z
		 M65.386,9.803c-0.053-0.042-0.11-0.063-0.172-0.063c-0.062,0-0.118,0.021-0.169,0.063c-0.051,0.042-0.078,0.107-0.083,0.195
		c-0.009,0.154-0.066,0.287-0.172,0.397c-0.106,0.11-0.236,0.165-0.39,0.165h-0.06c-0.159,0-0.293-0.055-0.403-0.165
		c-0.11-0.11-0.165-0.242-0.165-0.396V8.866c0-0.154,0.055-0.286,0.165-0.395c0.11-0.11,0.242-0.165,0.397-0.165h0.066
		c0.154,0,0.284,0.053,0.39,0.159c0.106,0.106,0.163,0.242,0.172,0.41c0.004,0.084,0.032,0.145,0.083,0.185
		c0.051,0.04,0.107,0.06,0.169,0.06c0.062,0,0.119-0.021,0.172-0.063c0.053-0.042,0.079-0.105,0.079-0.188
		c0-0.145-0.029-0.283-0.086-0.413c-0.057-0.13-0.133-0.243-0.228-0.34c-0.095-0.097-0.207-0.173-0.337-0.228
		c-0.13-0.055-0.268-0.083-0.413-0.083h-0.066c-0.145,0-0.283,0.028-0.413,0.083c-0.13,0.055-0.242,0.13-0.337,0.225
		c-0.095,0.095-0.171,0.207-0.228,0.337c-0.057,0.13-0.086,0.27-0.086,0.42v1.137c0,0.15,0.027,0.289,0.083,0.417
		c0.055,0.128,0.131,0.239,0.228,0.334c0.097,0.095,0.21,0.17,0.34,0.225c0.13,0.055,0.268,0.083,0.413,0.083h0.066
		c0.145,0,0.283-0.028,0.413-0.084c0.13-0.056,0.243-0.132,0.34-0.228c0.097-0.096,0.173-0.208,0.228-0.336
		c0.055-0.128,0.083-0.267,0.083-0.417C65.465,9.91,65.439,9.845,65.386,9.803L65.386,9.803z M68.782,8.868
		c0-0.145-0.028-0.283-0.083-0.413c-0.055-0.13-0.131-0.243-0.228-0.34c-0.097-0.097-0.211-0.173-0.34-0.228
		c-0.13-0.055-0.268-0.083-0.413-0.083h-0.053c-0.115,0-0.225,0.018-0.331,0.053c-0.106,0.035-0.187,0.084-0.245,0.145V6.673
		c0-0.084-0.026-0.146-0.079-0.188c-0.053-0.042-0.11-0.063-0.172-0.063c-0.062,0-0.119,0.021-0.172,0.063
		c-0.053,0.042-0.079,0.105-0.079,0.188v4.145c0,0.084,0.026,0.145,0.079,0.185c0.053,0.04,0.11,0.06,0.172,0.06
		c0.062,0,0.119-0.02,0.172-0.06c0.053-0.04,0.079-0.101,0.079-0.185V8.835c0-0.084,0.018-0.159,0.053-0.225
		c0.035-0.066,0.08-0.122,0.136-0.169c0.055-0.046,0.119-0.08,0.192-0.102c0.073-0.022,0.146-0.033,0.221-0.033
		c0.07,0,0.141,0.011,0.212,0.033c0.07,0.022,0.134,0.056,0.192,0.102c0.057,0.046,0.102,0.105,0.136,0.175
		c0.033,0.071,0.05,0.154,0.05,0.251v1.95c0,0.084,0.026,0.145,0.079,0.185c0.053,0.04,0.11,0.06,0.172,0.06
		c0.062,0,0.119-0.02,0.172-0.06c0.053-0.04,0.079-0.101,0.079-0.185L68.782,8.868L68.782,8.868z M72.059,8.874
		c0-0.154-0.028-0.296-0.083-0.426c-0.055-0.13-0.131-0.243-0.228-0.34c-0.097-0.097-0.211-0.172-0.34-0.225
		c-0.13-0.053-0.268-0.079-0.413-0.079h-0.066c-0.145,0-0.283,0.028-0.413,0.083c-0.13,0.055-0.244,0.131-0.34,0.228
		c-0.097,0.097-0.173,0.211-0.228,0.34c-0.055,0.13-0.083,0.268-0.083,0.413v1.137c0,0.15,0.027,0.289,0.083,0.417
		c0.055,0.128,0.131,0.239,0.228,0.334c0.097,0.095,0.21,0.17,0.34,0.225c0.13,0.055,0.268,0.083,0.413,0.083h0.066
		c0.225,0,0.422-0.058,0.592-0.174c0.17-0.116,0.294-0.267,0.374-0.454c0.018-0.031,0.026-0.068,0.026-0.112
		c0-0.075-0.026-0.137-0.079-0.185c-0.053-0.048-0.112-0.073-0.179-0.073c-0.044,0-0.086,0.012-0.126,0.036
		c-0.04,0.024-0.071,0.065-0.093,0.122c-0.044,0.093-0.109,0.172-0.195,0.238s-0.193,0.099-0.321,0.099h-0.066
		c-0.154,0-0.287-0.055-0.397-0.164c-0.11-0.109-0.165-0.241-0.165-0.394V9.668h1.441c0.07,0,0.13-0.025,0.179-0.076
		c0.048-0.051,0.073-0.109,0.073-0.175L72.059,8.874L72.059,8.874z M71.557,9.205h-1.19V8.872c0-0.16,0.056-0.294,0.169-0.403
		c0.112-0.109,0.246-0.163,0.4-0.163h0.066c0.145,0,0.274,0.054,0.387,0.163c0.112,0.109,0.169,0.245,0.169,0.41L71.557,9.205
		L71.557,9.205z M77.91,8.788c0-0.066-0.025-0.124-0.076-0.175c-0.051-0.051-0.109-0.076-0.175-0.076h-0.945
		c-0.084,0-0.147,0.026-0.188,0.079c-0.042,0.053-0.063,0.11-0.063,0.172c0,0.062,0.021,0.119,0.063,0.172
		c0.042,0.053,0.105,0.079,0.188,0.079h0.694v0.77c0,0.105-0.02,0.203-0.06,0.293s-0.094,0.169-0.162,0.237
		c-0.068,0.068-0.148,0.122-0.238,0.161c-0.09,0.039-0.188,0.059-0.294,0.059h-0.066c-0.106,0-0.204-0.02-0.294-0.059
		c-0.09-0.04-0.17-0.094-0.238-0.162c-0.068-0.068-0.122-0.147-0.162-0.238c-0.04-0.09-0.06-0.188-0.06-0.294V7.67
		c0-0.101,0.02-0.197,0.06-0.287c0.04-0.09,0.094-0.169,0.162-0.238c0.068-0.068,0.148-0.122,0.238-0.162
		c0.09-0.04,0.188-0.059,0.294-0.059h0.066c0.216,0,0.387,0.062,0.512,0.185c0.126,0.123,0.206,0.278,0.241,0.463
		c0.013,0.075,0.044,0.129,0.093,0.162c0.048,0.033,0.101,0.05,0.159,0.05c0.062,0,0.119-0.021,0.172-0.063
		c0.053-0.042,0.079-0.102,0.079-0.182v-0.04c-0.022-0.154-0.069-0.298-0.142-0.43c-0.073-0.132-0.165-0.246-0.278-0.34
		c-0.112-0.095-0.24-0.17-0.383-0.225c-0.143-0.055-0.294-0.083-0.453-0.083h-0.066c-0.172,0-0.335,0.033-0.489,0.099
		c-0.154,0.066-0.288,0.155-0.4,0.268c-0.112,0.112-0.202,0.245-0.268,0.397c-0.066,0.152-0.099,0.316-0.099,0.493v2.135
		c0,0.176,0.033,0.34,0.099,0.493c0.066,0.152,0.155,0.284,0.268,0.397c0.112,0.112,0.246,0.201,0.4,0.264
		c0.154,0.064,0.317,0.096,0.489,0.096h0.066c0.172,0,0.335-0.032,0.489-0.096c0.154-0.064,0.288-0.152,0.4-0.264
		c0.112-0.112,0.202-0.245,0.268-0.397s0.099-0.316,0.099-0.493L77.91,8.788L77.91,8.788z M81.265,8.874
		c0-0.154-0.028-0.296-0.083-0.426c-0.055-0.13-0.131-0.243-0.228-0.34c-0.097-0.097-0.211-0.172-0.34-0.225
		c-0.13-0.053-0.268-0.079-0.413-0.079h-0.066c-0.145,0-0.283,0.028-0.413,0.083c-0.13,0.055-0.244,0.131-0.34,0.228
		c-0.097,0.097-0.173,0.211-0.228,0.34c-0.055,0.13-0.083,0.268-0.083,0.413v1.137c0,0.15,0.027,0.289,0.083,0.417
		c0.055,0.128,0.131,0.239,0.228,0.334c0.097,0.095,0.21,0.17,0.34,0.225c0.13,0.055,0.268,0.083,0.413,0.083h0.066
		c0.225,0,0.422-0.058,0.592-0.174c0.17-0.116,0.294-0.267,0.374-0.454c0.018-0.031,0.026-0.068,0.026-0.112
		c0-0.075-0.026-0.137-0.079-0.185c-0.053-0.048-0.112-0.073-0.179-0.073c-0.044,0-0.086,0.012-0.126,0.036
		c-0.04,0.024-0.071,0.065-0.093,0.122c-0.044,0.093-0.109,0.172-0.195,0.238c-0.086,0.066-0.193,0.099-0.321,0.099h-0.066
		c-0.154,0-0.287-0.055-0.397-0.164c-0.11-0.109-0.165-0.241-0.165-0.394V9.668h1.441c0.07,0,0.13-0.025,0.179-0.076
		c0.048-0.051,0.073-0.109,0.073-0.175L81.265,8.874L81.265,8.874z M80.763,9.205h-1.19V8.872c0-0.16,0.056-0.294,0.169-0.403
		c0.112-0.109,0.246-0.163,0.4-0.163h0.066c0.145,0,0.274,0.054,0.387,0.163c0.112,0.109,0.169,0.245,0.169,0.41L80.763,9.205
		L80.763,9.205z M84.561,10.113c0-0.215-0.043-0.385-0.129-0.508c-0.086-0.123-0.192-0.219-0.317-0.287
		C83.989,9.25,83.851,9.2,83.702,9.167c-0.15-0.033-0.288-0.066-0.413-0.099c-0.126-0.033-0.231-0.077-0.317-0.132
		s-0.129-0.14-0.129-0.254v-0.02c0.004-0.097,0.055-0.18,0.152-0.251c0.097-0.07,0.238-0.106,0.423-0.106h0.026
		c0.15,0,0.267,0.021,0.35,0.063c0.084,0.042,0.161,0.08,0.231,0.116c0.053,0.026,0.101,0.04,0.145,0.04
		c0.07,0,0.128-0.024,0.172-0.073c0.044-0.048,0.066-0.104,0.066-0.166c0-0.08-0.031-0.145-0.093-0.194
		c-0.026-0.022-0.065-0.05-0.116-0.084c-0.051-0.033-0.112-0.065-0.185-0.094c-0.073-0.029-0.157-0.055-0.251-0.077
		c-0.095-0.022-0.199-0.034-0.314-0.034h-0.026c-0.106,0-0.221,0.014-0.347,0.043c-0.126,0.029-0.242,0.076-0.35,0.142
		c-0.108,0.066-0.199,0.153-0.274,0.26c-0.075,0.108-0.112,0.241-0.112,0.399c0,0.207,0.043,0.366,0.129,0.478
		c0.086,0.112,0.192,0.199,0.317,0.26c0.126,0.062,0.263,0.107,0.413,0.135c0.15,0.029,0.288,0.063,0.413,0.102
		c0.126,0.04,0.231,0.093,0.317,0.162s0.129,0.173,0.129,0.313v0.02c-0.004,0.11-0.061,0.211-0.169,0.303
		c-0.108,0.092-0.263,0.139-0.466,0.139h-0.033c-0.123,0-0.249-0.042-0.377-0.126c-0.128-0.084-0.234-0.181-0.317-0.291
		c-0.031-0.044-0.066-0.074-0.106-0.089c-0.04-0.015-0.079-0.023-0.119-0.023c-0.066,0-0.126,0.022-0.179,0.066
		c-0.053,0.044-0.079,0.104-0.079,0.179c0,0.018,0.011,0.06,0.033,0.126c0.053,0.101,0.121,0.193,0.205,0.276
		c0.084,0.083,0.176,0.152,0.278,0.208c0.101,0.056,0.208,0.099,0.321,0.131c0.112,0.031,0.221,0.047,0.327,0.047h0.04
		c0.137,0,0.273-0.02,0.41-0.059c0.137-0.04,0.26-0.098,0.37-0.175c0.11-0.077,0.198-0.173,0.264-0.287s0.099-0.248,0.099-0.402
		V10.113L84.561,10.113z M87.767,8.874c0-0.154-0.028-0.296-0.083-0.426c-0.055-0.13-0.131-0.243-0.228-0.34
		c-0.097-0.097-0.211-0.172-0.34-0.225c-0.13-0.053-0.268-0.079-0.413-0.079h-0.066c-0.145,0-0.283,0.028-0.413,0.083
		c-0.13,0.055-0.244,0.131-0.34,0.228c-0.097,0.097-0.173,0.211-0.228,0.34c-0.055,0.13-0.083,0.268-0.083,0.413v1.137
		c0,0.15,0.027,0.289,0.083,0.417c0.055,0.128,0.131,0.239,0.228,0.334c0.097,0.095,0.21,0.17,0.34,0.225
		c0.13,0.055,0.268,0.083,0.413,0.083h0.066c0.225,0,0.422-0.058,0.592-0.174c0.17-0.116,0.294-0.267,0.374-0.454
		c0.018-0.031,0.026-0.068,0.026-0.112c0-0.075-0.026-0.137-0.079-0.185c-0.053-0.048-0.112-0.073-0.179-0.073
		c-0.044,0-0.086,0.012-0.126,0.036c-0.04,0.024-0.071,0.065-0.093,0.122c-0.044,0.093-0.109,0.172-0.195,0.238
		s-0.193,0.099-0.321,0.099h-0.066c-0.154,0-0.287-0.055-0.397-0.164c-0.11-0.109-0.165-0.241-0.165-0.394V9.668h1.441
		c0.07,0,0.13-0.025,0.179-0.076c0.048-0.051,0.073-0.109,0.073-0.175L87.767,8.874L87.767,8.874z M87.264,9.205h-1.19V8.872
		c0-0.16,0.056-0.294,0.169-0.403c0.112-0.109,0.246-0.163,0.4-0.163h0.066c0.145,0,0.274,0.054,0.387,0.163s0.169,0.245,0.169,0.41
		L87.264,9.205L87.264,9.205z M89.95,10.641c-0.04-0.054-0.104-0.08-0.192-0.08c-0.101-0.004-0.187-0.042-0.258-0.112
		c-0.071-0.07-0.106-0.156-0.106-0.257V6.672c0-0.084-0.026-0.146-0.079-0.188c-0.053-0.042-0.11-0.063-0.172-0.063
		c-0.062,0-0.119,0.021-0.172,0.063c-0.053,0.042-0.079,0.105-0.079,0.188v3.524c0,0.119,0.022,0.231,0.066,0.337
		c0.044,0.106,0.106,0.198,0.185,0.278c0.079,0.079,0.172,0.141,0.278,0.185c0.106,0.044,0.218,0.066,0.337,0.066
		c0.088,0,0.152-0.026,0.192-0.077c0.04-0.051,0.06-0.108,0.06-0.171C90.009,10.752,89.989,10.694,89.95,10.641L89.95,10.641z
		 M92.026,10.641c-0.04-0.054-0.104-0.08-0.192-0.08c-0.101-0.004-0.187-0.042-0.258-0.112c-0.071-0.07-0.106-0.156-0.106-0.257
		V6.672c0-0.084-0.026-0.146-0.079-0.188c-0.053-0.042-0.11-0.063-0.172-0.063c-0.062,0-0.119,0.021-0.172,0.063
		c-0.053,0.042-0.079,0.105-0.079,0.188v3.524c0,0.119,0.022,0.231,0.066,0.337c0.044,0.106,0.106,0.198,0.185,0.278
		c0.079,0.079,0.172,0.141,0.278,0.185c0.106,0.044,0.218,0.066,0.337,0.066c0.088,0,0.152-0.026,0.192-0.077
		c0.04-0.051,0.06-0.108,0.06-0.171C92.085,10.752,92.065,10.694,92.026,10.641L92.026,10.641z M95.291,10.113
		c0-0.215-0.043-0.385-0.129-0.508c-0.086-0.123-0.192-0.219-0.317-0.287C94.719,9.25,94.581,9.2,94.431,9.167
		c-0.15-0.033-0.288-0.066-0.413-0.099c-0.126-0.033-0.231-0.077-0.317-0.132s-0.129-0.14-0.129-0.254v-0.02
		c0.004-0.097,0.055-0.18,0.152-0.251c0.097-0.07,0.238-0.106,0.423-0.106h0.026c0.15,0,0.267,0.021,0.35,0.063
		c0.084,0.042,0.161,0.08,0.231,0.116c0.053,0.026,0.101,0.04,0.145,0.04c0.07,0,0.128-0.024,0.172-0.073
		c0.044-0.048,0.066-0.104,0.066-0.166c0-0.08-0.031-0.145-0.093-0.194c-0.026-0.022-0.065-0.05-0.116-0.084
		c-0.051-0.033-0.112-0.065-0.185-0.094c-0.073-0.029-0.157-0.055-0.251-0.077c-0.095-0.022-0.199-0.034-0.314-0.034h-0.026
		c-0.106,0-0.221,0.014-0.347,0.043c-0.126,0.029-0.242,0.076-0.35,0.142c-0.108,0.066-0.199,0.153-0.274,0.26
		c-0.075,0.108-0.112,0.241-0.112,0.399c0,0.207,0.043,0.366,0.129,0.478c0.086,0.112,0.192,0.199,0.317,0.26
		c0.126,0.062,0.263,0.107,0.413,0.135c0.15,0.029,0.288,0.063,0.413,0.102c0.126,0.04,0.231,0.093,0.317,0.162
		c0.086,0.068,0.129,0.173,0.129,0.313v0.02c-0.004,0.11-0.061,0.211-0.169,0.303c-0.108,0.092-0.263,0.139-0.466,0.139h-0.033
		c-0.123,0-0.249-0.042-0.377-0.126c-0.128-0.084-0.234-0.181-0.317-0.291c-0.031-0.044-0.066-0.074-0.106-0.089
		c-0.04-0.015-0.079-0.023-0.119-0.023c-0.066,0-0.126,0.022-0.179,0.066c-0.053,0.044-0.079,0.104-0.079,0.179
		c0,0.018,0.011,0.06,0.033,0.126c0.053,0.101,0.121,0.193,0.205,0.276c0.084,0.083,0.176,0.152,0.278,0.208
		c0.101,0.056,0.208,0.099,0.321,0.131c0.112,0.031,0.221,0.047,0.327,0.047h0.04c0.137,0,0.273-0.02,0.41-0.059
		c0.137-0.04,0.26-0.098,0.37-0.175c0.11-0.077,0.198-0.173,0.264-0.287c0.066-0.114,0.099-0.248,0.099-0.402V10.113L95.291,10.113z
		 M98.421,9.803c-0.053-0.042-0.11-0.063-0.172-0.063c-0.062,0-0.118,0.021-0.169,0.063c-0.051,0.042-0.078,0.107-0.083,0.195
		c-0.009,0.154-0.066,0.287-0.172,0.397c-0.106,0.11-0.236,0.165-0.39,0.165h-0.06c-0.159,0-0.293-0.055-0.403-0.165
		c-0.11-0.11-0.165-0.242-0.165-0.396V8.866c0-0.154,0.055-0.286,0.165-0.395c0.11-0.11,0.242-0.165,0.397-0.165h0.066
		c0.154,0,0.284,0.053,0.39,0.159c0.106,0.106,0.163,0.242,0.172,0.41c0.004,0.084,0.032,0.145,0.083,0.185
		c0.051,0.04,0.107,0.06,0.169,0.06c0.062,0,0.119-0.021,0.172-0.063C98.473,9.014,98.5,8.951,98.5,8.868
		c0-0.145-0.029-0.283-0.086-0.413c-0.057-0.13-0.133-0.243-0.228-0.34c-0.095-0.097-0.207-0.173-0.337-0.228
		c-0.13-0.055-0.268-0.083-0.413-0.083h-0.066c-0.145,0-0.283,0.028-0.413,0.083c-0.13,0.055-0.242,0.13-0.337,0.225
		c-0.095,0.095-0.171,0.207-0.228,0.337c-0.057,0.13-0.086,0.27-0.086,0.42v1.137c0,0.15,0.027,0.289,0.083,0.417
		c0.055,0.128,0.131,0.239,0.228,0.334c0.097,0.095,0.21,0.17,0.34,0.225c0.13,0.055,0.268,0.083,0.413,0.083h0.066
		c0.145,0,0.283-0.028,0.413-0.084c0.13-0.056,0.243-0.132,0.34-0.228c0.097-0.096,0.173-0.208,0.228-0.336
		c0.055-0.128,0.083-0.267,0.083-0.417C98.5,9.91,98.473,9.845,98.421,9.803L98.421,9.803z M101.753,8.868
		c0-0.145-0.028-0.283-0.083-0.413c-0.055-0.13-0.131-0.243-0.228-0.34c-0.097-0.097-0.211-0.173-0.34-0.228
		c-0.13-0.055-0.268-0.083-0.413-0.083h-0.053c-0.115,0-0.225,0.018-0.331,0.053c-0.106,0.035-0.187,0.084-0.245,0.145V6.673
		c0-0.084-0.026-0.146-0.079-0.188c-0.053-0.042-0.11-0.063-0.172-0.063c-0.062,0-0.119,0.021-0.172,0.063
		c-0.053,0.042-0.079,0.105-0.079,0.188v4.145c0,0.084,0.026,0.145,0.079,0.185c0.053,0.04,0.11,0.06,0.172,0.06
		c0.062,0,0.119-0.02,0.172-0.06c0.053-0.04,0.079-0.101,0.079-0.185V8.835c0-0.084,0.018-0.159,0.053-0.225
		c0.035-0.066,0.08-0.122,0.136-0.169c0.055-0.046,0.119-0.08,0.192-0.102c0.073-0.022,0.146-0.033,0.221-0.033
		c0.07,0,0.141,0.011,0.212,0.033c0.07,0.022,0.134,0.056,0.192,0.102c0.057,0.046,0.102,0.105,0.136,0.175
		c0.033,0.071,0.05,0.154,0.05,0.251v1.95c0,0.084,0.026,0.145,0.079,0.185c0.053,0.04,0.11,0.06,0.172,0.06
		c0.062,0,0.119-0.02,0.172-0.06c0.053-0.04,0.079-0.101,0.079-0.185V8.868L101.753,8.868z M105.299,10.663
		c-0.033-0.046-0.087-0.076-0.162-0.089c-0.115-0.022-0.172-0.095-0.172-0.218V8.822c0-0.141-0.026-0.273-0.079-0.397
		c-0.053-0.123-0.126-0.231-0.218-0.324c-0.093-0.093-0.203-0.165-0.331-0.218c-0.128-0.053-0.264-0.079-0.41-0.079h-0.046
		c-0.088,0-0.179,0.01-0.271,0.03c-0.093,0.02-0.183,0.053-0.271,0.099c-0.088,0.046-0.171,0.109-0.248,0.188
		c-0.077,0.079-0.142,0.179-0.195,0.298c-0.018,0.031-0.026,0.071-0.026,0.119c0,0.071,0.026,0.127,0.079,0.169
		c0.053,0.042,0.11,0.063,0.172,0.063c0.044,0,0.086-0.01,0.126-0.03c0.04-0.02,0.073-0.054,0.099-0.102
		c0.062-0.11,0.132-0.193,0.212-0.248c0.079-0.055,0.187-0.083,0.324-0.083h0.046c0.145,0,0.271,0.04,0.377,0.119
		c0.106,0.079,0.159,0.218,0.159,0.417c0,0.018-0.001,0.037-0.003,0.06c-0.002,0.022-0.008,0.04-0.017,0.053
		c-0.026,0.035-0.087,0.063-0.182,0.083c-0.095,0.02-0.204,0.041-0.327,0.063c-0.123,0.022-0.253,0.051-0.39,0.086
		c-0.137,0.035-0.262,0.087-0.377,0.155c-0.115,0.068-0.209,0.159-0.284,0.271c-0.075,0.112-0.112,0.255-0.112,0.426v0.079
		c0,0.154,0.031,0.291,0.093,0.41c0.062,0.119,0.142,0.218,0.241,0.298c0.099,0.079,0.213,0.139,0.34,0.179
		c0.128,0.04,0.258,0.06,0.39,0.06h0.06c0.278,0,0.516-0.086,0.714-0.258c0.044,0.062,0.101,0.115,0.172,0.159
		c0.07,0.044,0.163,0.075,0.278,0.093c0.004,0.004,0.02,0.007,0.046,0.007c0.079,0,0.14-0.025,0.182-0.076
		c0.042-0.051,0.063-0.109,0.063-0.175C105.348,10.759,105.332,10.709,105.299,10.663L105.299,10.663z M104.463,9.998
		c0,0.159-0.056,0.292-0.169,0.4c-0.112,0.108-0.246,0.162-0.4,0.162h-0.06c-0.168,0-0.303-0.042-0.407-0.126
		c-0.104-0.084-0.155-0.196-0.155-0.337v-0.053c0-0.115,0.039-0.203,0.116-0.264c0.077-0.062,0.175-0.11,0.294-0.145
		c0.119-0.035,0.248-0.063,0.387-0.083s0.27-0.045,0.393-0.076L104.463,9.998L104.463,9.998z M107.515,6.501
		c-0.042-0.053-0.105-0.079-0.188-0.079c-0.123,0-0.237,0.022-0.34,0.066c-0.104,0.044-0.194,0.105-0.271,0.182
		c-0.077,0.077-0.137,0.17-0.179,0.278c-0.042,0.108-0.063,0.224-0.063,0.347v0.529h-0.145c-0.084,0-0.147,0.026-0.188,0.079
		c-0.042,0.053-0.063,0.11-0.063,0.172c0,0.062,0.021,0.119,0.063,0.172c0.042,0.053,0.105,0.079,0.188,0.079h0.145v2.492
		c0,0.084,0.026,0.145,0.079,0.185c0.053,0.04,0.11,0.06,0.172,0.06c0.062,0,0.119-0.02,0.172-0.06
		c0.053-0.04,0.079-0.101,0.079-0.185V8.326h0.311c0.084,0,0.146-0.026,0.188-0.079c0.042-0.053,0.063-0.11,0.063-0.172
		c0-0.062-0.02-0.119-0.06-0.172s-0.104-0.079-0.192-0.079h-0.311V7.294c0-0.101,0.032-0.188,0.096-0.261
		c0.064-0.073,0.149-0.109,0.255-0.109c0.084,0,0.146-0.026,0.188-0.079c0.042-0.053,0.063-0.11,0.063-0.172
		C107.578,6.611,107.557,6.554,107.515,6.501L107.515,6.501z M109.684,10.647c-0.037-0.049-0.096-0.078-0.175-0.087
		c-0.101-0.009-0.191-0.045-0.268-0.109c-0.077-0.064-0.116-0.153-0.116-0.267V8.326h0.357c0.084,0,0.146-0.026,0.188-0.079
		c0.042-0.053,0.063-0.11,0.063-0.172c0-0.062-0.021-0.119-0.063-0.172c-0.042-0.053-0.105-0.079-0.188-0.079h-0.357v-1.15
		c0-0.084-0.026-0.146-0.079-0.188c-0.053-0.042-0.11-0.063-0.172-0.063c-0.062,0-0.119,0.021-0.172,0.063
		c-0.053,0.042-0.079,0.105-0.079,0.188v1.15h-0.231c-0.084,0-0.147,0.026-0.188,0.079c-0.042,0.053-0.063,0.11-0.063,0.172
		c0,0.062,0.021,0.119,0.063,0.172c0.042,0.053,0.105,0.079,0.188,0.079h0.231v1.871c0,0.119,0.022,0.231,0.066,0.337
		c0.044,0.106,0.106,0.198,0.185,0.278c0.079,0.079,0.172,0.141,0.278,0.185c0.106,0.044,0.218,0.066,0.337,0.066
		c0.088,0,0.152-0.026,0.192-0.077c0.04-0.051,0.06-0.108,0.06-0.171C109.74,10.752,109.721,10.696,109.684,10.647L109.684,10.647z"
		/>
</g>
</svg>
