<?xml version="1.0" encoding="utf-8"?>
<!-- Generator: Adobe Illustrator 16.0.0, SVG Export Plug-In . SVG Version: 6.00 Build 0)  -->
<!DOCTYPE svg PUBLIC "-//W3C//DTD SVG 1.1//EN" "http://www.w3.org/Graphics/SVG/1.1/DTD/svg11.dtd">
<svg version="1.1" id="Layer_1" xmlns="http://www.w3.org/2000/svg" xmlns:xlink="http://www.w3.org/1999/xlink" x="0px" y="0px"
	 width="100px" height="100px" viewBox="0 0 100 100" enable-background="new 0 0 100 100" xml:space="preserve">
<g>
	<g>
		<path fill="none" stroke="#4681A7" d="M50,75.525c14.316,0,25.977-11.592,25.977-25.98C75.977,35.23,64.385,23.57,50,23.57
			c-14.387,0-25.977,11.59-25.977,25.975C24.023,63.934,35.613,75.525,50,75.525z"/>
	</g>
	<path fill="none" stroke="#4681A7" stroke-dasharray="4.084,4.084" d="M66.16,61.684"/>
	<g>
		<path fill="#4681A7" d="M42.734,60.045c-0.16,0-0.324-0.164-0.324-0.326c0-0.33,0-0.492,0-0.738s0-0.57,0-0.816
			c0-0.41-0.164-0.57-0.328-0.816c-0.492-0.492-0.982-0.982-1.393-1.475c-0.408-0.408-0.736-0.82-1.146-1.146
			c-0.246-0.246-0.406-0.492-0.492-0.816c-0.324-0.898-0.488-1.555-0.652-2.209c-0.082-0.246-0.082-0.736-0.082-0.736
			c-0.082-1.312,0-2.129,0.082-3.354c0-0.33,0.246-0.656,0.574-0.822c0.324-0.162,0.734-0.078,0.98,0.246
			c0.408,0.412,0.408,1.23,0.492,2.375c0,0.164-0.164,0.324-0.33,0.41c-0.162,0-0.326-0.168-0.408-0.332
			c0-0.652-0.082-1.715-0.324-1.961c-0.086-0.08-0.168-0.08-0.246-0.08c-0.086,0-0.086,0.08-0.164,0.164
			c-0.082,1.225-0.082,2.041-0.082,3.354c0,0.162,0,0.49,0.082,0.57c0.164,0.652,0.41,1.312,0.652,2.129
			c0.082,0.246,0.164,0.41,0.328,0.57c0.408,0.41,0.818,0.818,1.146,1.146c0.49,0.492,0.9,0.984,1.389,1.475l0,0
			c0.246,0.324,0.492,0.57,0.574,1.227c0,0.328,0,0.57,0,0.898c0,0.164,0,0.246,0,0.408h2.863v-2.533
			c0-0.982-0.49-1.721-1.555-2.457c-0.82-0.57-1.473-1.227-2.043-1.965c-0.41-0.486-0.818-0.898-1.393-1.389
			c-0.082-0.08-0.082-0.08-0.164-0.08c0,0-0.082,0-0.082,0.08c0,0,0,0.082,0,0.328c0.082,0.328,0.246,0.738,0.574,1.146
			c0.326,0.406,0.654,0.816,1.064,1.145c0.16,0.164,0.16,0.324,0.082,0.488c-0.164,0.168-0.328,0.168-0.492,0.082
			c-0.408-0.406-0.9-0.816-1.229-1.309c-0.244-0.324-0.574-0.898-0.654-1.471c-0.082-0.328-0.082-0.656,0.08-0.902
			c0.084-0.08,0.33-0.326,0.574-0.326c0.164,0,0.41,0,0.656,0.246c0.572,0.492,0.982,0.982,1.389,1.475
			c0.574,0.654,1.148,1.307,1.965,1.799c0.818,0.574,1.801,1.473,1.801,3.027v2.945c0,0.162-0.164,0.326-0.328,0.326H42.734
			L42.734,60.045z"/>
		<path fill="#4681A7" d="M58.115,60.045L58.115,60.045h-3.518c-0.162,0-0.324-0.164-0.324-0.326v-2.945
			c0-1.555,1.062-2.453,1.801-3.027c0.816-0.574,1.309-1.145,1.961-1.799c0.408-0.49,0.9-0.982,1.393-1.475
			c0.246-0.246,0.49-0.246,0.654-0.246c0.328,0,0.492,0.246,0.57,0.332c0.164,0.24,0.164,0.568,0.082,0.898
			c-0.082,0.57-0.406,1.062-0.652,1.469c-0.332,0.492-0.738,0.902-1.23,1.309c-0.162,0.164-0.408,0.086-0.49-0.078
			c-0.164-0.164-0.08-0.41,0.082-0.492c0.408-0.328,0.82-0.738,1.066-1.145c0.326-0.408,0.486-0.818,0.572-1.146
			c0.082-0.246,0-0.328,0-0.328c0-0.08-0.086-0.08-0.086-0.08s-0.078,0-0.16,0.08c-0.492,0.412-0.9,0.902-1.393,1.389
			c-0.568,0.66-1.229,1.312-2.045,1.965c-1.062,0.736-1.555,1.475-1.555,2.457v2.533h2.863c0-0.162,0-0.244,0-0.408
			c0-0.246,0-0.57,0-0.898c0.082-0.656,0.244-0.98,0.49-1.227l0,0c0.492-0.49,0.984-0.982,1.393-1.475
			c0.406-0.408,0.738-0.814,1.145-1.146c0.164-0.16,0.246-0.324,0.328-0.57c0.328-0.898,0.488-1.553,0.652-2.129
			c0-0.078,0.082-0.408,0.082-0.57c0-1.23,0-2.129-0.082-3.354c0-0.084-0.078-0.164-0.164-0.164c-0.078,0-0.16,0-0.242,0.08
			c-0.246,0.246-0.246,1.309-0.328,1.961c0,0.164-0.164,0.332-0.406,0.332c-0.164,0-0.332-0.168-0.332-0.41
			c0.086-1.23,0.168-2.045,0.492-2.375c0.246-0.246,0.656-0.324,0.98-0.246c0.328,0.168,0.574,0.412,0.574,0.822
			c0.086,1.225,0.086,2.123,0.086,3.354c0,0,0,0.49-0.086,0.736c-0.16,0.654-0.406,1.311-0.652,2.209
			c-0.086,0.324-0.246,0.57-0.492,0.816c-0.41,0.408-0.734,0.818-1.148,1.146c-0.486,0.492-0.898,0.982-1.389,1.475
			c-0.246,0.246-0.326,0.41-0.326,0.816c0,0.328,0,0.57,0,0.816s0,0.492,0,0.738C58.527,59.799,58.361,60.045,58.115,60.045"/>
		<path fill="#4681A7" d="M51.328,37.791c-0.41,0-0.818,0.328-0.818,0.82c0,0.408,0.326,0.814,0.818,0.814
			c0.488,0,0.816-0.324,0.816-0.814C52.145,38.119,51.816,37.791,51.328,37.791 M51.328,40.082L51.328,40.082
			c-0.818,0-1.475-0.656-1.475-1.471c0-0.82,0.656-1.477,1.475-1.477c0.816,0,1.469,0.656,1.469,1.477
			C52.797,39.426,52.145,40.082,51.328,40.082 M51.328,40.98c-0.9,0-1.639,0.738-1.639,1.639v2.533c0,0.574,0.246,1.066,0.738,1.393
			c0.082,0.082,0.162,0.166,0.162,0.328v3.107c0,0.41,0.328,0.818,0.82,0.818c0.488,0,0.816-0.326,0.816-0.818v-3.107
			c0-0.082,0.082-0.246,0.164-0.328c0.406-0.326,0.738-0.818,0.738-1.393v-2.533C52.961,41.719,52.227,40.98,51.328,40.98
			 M51.328,51.373c-0.818,0-1.475-0.654-1.475-1.475v-2.941c-0.572-0.412-0.9-1.145-0.9-1.801v-2.537
			c0-1.307,1.064-2.373,2.375-2.373l0,0c0.652,0,1.223,0.246,1.633,0.652c0.414,0.414,0.654,1.066,0.654,1.637v2.539
			c0,0.738-0.326,1.391-0.9,1.799v2.947C52.797,50.719,52.145,51.373,51.328,51.373"/>
		<path fill="#4681A7" d="M55.582,41.965c-0.246,0-0.408,0.162-0.408,0.408s0.162,0.408,0.408,0.408s0.406-0.162,0.406-0.408
			S55.828,41.965,55.582,41.965 M55.582,43.434L55.582,43.434c-0.654,0-1.146-0.486-1.146-1.145c0-0.654,0.492-1.145,1.146-1.145
			c0.652,0,1.145,0.49,1.145,1.145C56.727,42.947,56.152,43.434,55.582,43.434 M55.582,44.418c-0.572,0-0.984,0.41-0.984,0.98v1.721
			c0,0.328,0.166,0.654,0.412,0.814c0.08,0.086,0.164,0.168,0.164,0.332v2.125c0,0.244,0.162,0.408,0.408,0.408
			s0.406-0.164,0.406-0.408v-2.125c0-0.086,0.086-0.246,0.164-0.332c0.246-0.16,0.41-0.486,0.41-0.814v-1.721
			C56.562,44.828,56.152,44.418,55.582,44.418 M55.582,51.373c-0.654,0-1.146-0.492-1.146-1.146v-1.961
			c-0.328-0.332-0.574-0.818-0.574-1.309v-1.723c0-0.898,0.736-1.715,1.721-1.715c0.898,0,1.715,0.738,1.715,1.715v1.723
			c0,0.49-0.246,0.977-0.57,1.309v1.961C56.727,50.881,56.152,51.373,55.582,51.373"/>
		<path fill="#4681A7" d="M46.336,38.611c-0.326,0-0.654,0.246-0.654,0.654c0,0.328,0.244,0.652,0.654,0.652
			c0.328,0,0.652-0.246,0.652-0.652C46.988,38.934,46.664,38.611,46.336,38.611 M46.336,40.574L46.336,40.574
			c-0.736,0-1.311-0.574-1.311-1.309c0-0.738,0.574-1.309,1.311-1.309c0.738,0,1.309,0.57,1.309,1.309
			C47.645,40,47.074,40.574,46.336,40.574 M44.699,46.957h0.654c0.082,0,0.164,0,0.246,0.078c0.082,0.084,0.082,0.166,0.082,0.246
			v2.785c0,0.324,0.244,0.652,0.654,0.652c0.328,0,0.652-0.246,0.652-0.652v-2.785c0-0.162,0.164-0.326,0.328-0.326h0.656
			c-0.246-0.49-0.246-0.982-0.246-1.635v-0.168l0,0c0-0.078,0-0.078,0-0.164v-2.123c0-0.738-0.574-1.393-1.391-1.393
			c-0.736,0-1.391,0.572-1.391,1.393v2.123c0,0.086,0,0.086,0,0.164l0,0v0.168C45.025,45.973,45.025,46.465,44.699,46.957
			 M46.336,51.373c-0.736,0-1.311-0.574-1.311-1.307v-2.455h-0.982c-0.16,0-0.246-0.084-0.328-0.246
			c-0.078-0.164,0-0.246,0.082-0.408c0.492-0.492,0.492-0.898,0.492-1.723v-0.16c0-0.082,0-0.164,0-0.164v-2.129
			c0-1.146,0.9-2.047,2.047-2.047c0.574,0,1.062,0.246,1.473,0.578c0.406,0.406,0.574,0.898,0.574,1.469v2.129
			c0,0.082,0,0.164,0,0.164v0.16c0,0.824,0,1.23,0.488,1.723c0.082,0.078,0.164,0.244,0.082,0.408
			c-0.082,0.162-0.164,0.246-0.328,0.246h-0.98v2.455C47.645,50.799,47.074,51.373,46.336,51.373"/>
		<path fill="#4681A7" d="M50.182,59.799h0.654v-0.654c0.652-0.164,0.898-0.656,0.898-1.062c0-0.57-0.246-0.816-0.816-1.148
			l-0.408-0.246c-0.328-0.16-0.492-0.322-0.492-0.568c0-0.162,0.164-0.33,0.572-0.33c0.406,0,0.652,0.166,0.738,0.246l0.246-0.654
			c-0.086-0.082-0.332-0.246-0.738-0.328V54.48h-0.654v0.654c-0.574,0.084-0.982,0.492-0.982,1.066c0,0.572,0.246,0.818,0.818,1.225
			l0.41,0.246c0.322,0.246,0.408,0.328,0.408,0.574c0,0.164-0.162,0.328-0.572,0.328s-0.738-0.246-0.902-0.41l-0.246,0.656
			c0.166,0.078,0.41,0.324,1.066,0.406V59.799z"/>
	</g>
</g>
</svg>
