<svg fill="#04749c" version="1.1" id="Layer_1" xmlns="http://www.w3.org/2000/svg" xmlns:xlink="http://www.w3.org/1999/xlink" x="0px" y="0px"
	 width="373.121px" height="388.801px" viewBox="0 0 373.121 388.801" style="enable-background:new 0 0 373.121 388.801;"
	 xml:space="preserve">
<g>
	<path d="M230.879,339.762v11.359c0,9.039-6.641,16.559-15.277,17.84l-2.801,10.32c-1.52,5.598-6.563,9.52-12.403,9.52h-27.757
		c-5.84,0-10.879-3.922-12.403-9.52l-2.718-10.32c-8.719-1.359-15.36-8.801-15.36-17.922V339.68c0-6.078,4.879-10.961,10.961-10.961
		h66.801C226,328.801,230.879,333.68,230.879,339.762L230.879,339.762z M282.32,186.641c0,25.839-10.242,49.281-26.879,66.48
		c-12.64,13.117-20.8,29.84-23.519,47.68c-1.203,7.679-7.844,13.359-15.684,13.359h-59.437c-7.762,0-14.481-5.601-15.602-13.281
		c-2.801-17.84-11.039-34.801-23.679-47.84c-16.321-16.961-26.481-40-26.719-65.359c-0.563-53.282,41.84-96.399,95.121-96.801
		C239.121,90.48,282.32,133.52,282.32,186.641L282.32,186.641z M197.359,128.641c0-5.922-4.8-10.801-10.8-10.801
		c-38.079,0-69.118,30.961-69.118,69.121c0,5.918,4.797,10.801,10.797,10.801c5.922,0,10.801-4.801,10.801-10.801
		c0-26.242,21.359-47.52,47.52-47.52C192.559,139.441,197.359,134.641,197.359,128.641L197.359,128.641z M186.559,59.441
		c5.921,0,10.8-4.8,10.8-10.8v-37.84c0-5.922-4.8-10.801-10.8-10.801s-10.797,4.801-10.797,10.801v37.84
		C175.762,54.641,180.641,59.441,186.559,59.441L186.559,59.441z M59.441,186.559c0-5.918-4.8-10.797-10.8-10.797h-37.84
		C4.879,175.762,0,180.559,0,186.559c0,5.921,4.801,10.8,10.801,10.8h37.84C54.641,197.359,59.441,192.559,59.441,186.559
		L59.441,186.559z M362.32,175.762h-37.84c-5.921,0-10.8,4.797-10.8,10.797c0,5.921,4.8,10.8,10.8,10.8h37.84
		c5.918,0,10.801-4.8,10.801-10.8C373.121,180.641,368.32,175.762,362.32,175.762L362.32,175.762z M81.441,276.48l-26.8,26.801
		c-4.243,4.239-4.243,11.039,0,15.278c2.078,2.082,4.879,3.121,7.597,3.121c2.723,0,5.524-1.039,7.602-3.121l26.801-26.797
		c4.238-4.242,4.238-11.043,0-15.282C92.48,272.238,85.602,272.238,81.441,276.48L81.441,276.48z M284.078,99.84
		c2.723,0,5.524-1.039,7.602-3.121l26.8-26.797c4.239-4.242,4.239-11.043,0-15.281c-4.242-4.243-11.039-4.243-15.281,0l-26.801,26.8
		c-4.238,4.239-4.238,11.039,0,15.278C278.559,98.801,281.281,99.84,284.078,99.84L284.078,99.84z M81.441,96.641
		c2.079,2.078,4.879,3.121,7.598,3.121c2.723,0,5.52-1.043,7.602-3.121c4.238-4.243,4.238-11.039,0-15.282l-26.801-26.8
		c-4.238-4.239-11.039-4.239-15.281,0c-4.239,4.242-4.239,11.043,0,15.281L81.441,96.641z M291.68,276.48
		c-4.239-4.242-11.039-4.242-15.282,0c-4.238,4.239-4.238,11.04,0,15.282l26.801,26.797c2.082,2.082,4.879,3.121,7.602,3.121
		c2.719,0,5.519-1.039,7.597-3.121c4.243-4.239,4.243-11.039,0-15.278L291.68,276.48z M291.68,276.48"/>
</g>
</svg>
