<svg fill="#fff" xmlns="http://www.w3.org/2000/svg" xmlns:xlink="http://www.w3.org/1999/xlink" x="0px" y="0px"
	 width="50px" height="50px" viewBox="0 0 18.903 18.903" style="enable-background:new 0 0 18.903 18.903;"
	 xml:space="preserve">
<g>
	<path d="M9.449,0C4.231,0,0,4.231,0,9.449c0,5.219,4.231,9.454,9.449,9.454c5.219,0,9.454-4.235,9.454-9.454
		C18.903,4.231,14.668,0,9.449,0L9.449,0z M11.418,14.649c-0.488,0.191-0.875,0.336-1.164,0.437
		c-0.289,0.102-0.625,0.153-1.008,0.153c-0.59,0-1.05-0.145-1.375-0.434c-0.328-0.285-0.488-0.652-0.488-1.094
		c0-0.172,0.012-0.347,0.035-0.527c0.024-0.18,0.063-0.379,0.117-0.606l0.61-2.152c0.054-0.207,0.101-0.402,0.136-0.582
		c0.036-0.188,0.055-0.355,0.055-0.508c0-0.273-0.058-0.465-0.172-0.574c-0.113-0.109-0.328-0.16-0.648-0.16
		c-0.156,0-0.32,0.023-0.485,0.07C6.867,8.723,6.727,8.77,6.61,8.813l0.16-0.66c0.398-0.164,0.781-0.301,1.144-0.418
		c0.364-0.118,0.707-0.176,1.032-0.176c0.585,0,1.035,0.144,1.351,0.426c0.316,0.281,0.477,0.648,0.477,1.101
		c0,0.094-0.012,0.258-0.032,0.492c-0.023,0.239-0.062,0.453-0.121,0.649l-0.605,2.144c-0.051,0.172-0.094,0.371-0.137,0.59
		c-0.039,0.219-0.058,0.387-0.058,0.5c0,0.285,0.066,0.481,0.191,0.582c0.129,0.106,0.348,0.156,0.664,0.156
		c0.148,0,0.313-0.027,0.5-0.078c0.184-0.05,0.32-0.097,0.406-0.136L11.418,14.649z M11.313,5.946
		c-0.285,0.261-0.625,0.394-1.024,0.394c-0.394,0-0.738-0.133-1.023-0.394C8.985,5.684,8.84,5.364,8.84,4.989
		c0-0.372,0.145-0.692,0.426-0.958c0.285-0.261,0.629-0.394,1.023-0.394c0.399,0,0.739,0.133,1.024,0.394
		c0.281,0.266,0.422,0.586,0.422,0.958C11.735,5.364,11.594,5.684,11.313,5.946L11.313,5.946z M11.313,5.946"/>
</g>
</svg>
