<?xml version="1.0" encoding="utf-8"?>
<!-- Generator: Adobe Illustrator 16.0.0, SVG Export Plug-In . SVG Version: 6.00 Build 0)  -->
<!DOCTYPE svg PUBLIC "-//W3C//DTD SVG 1.1//EN" "http://www.w3.org/Graphics/SVG/1.1/DTD/svg11.dtd">
<svg version="1.1" id="Layer_1" xmlns="http://www.w3.org/2000/svg" xmlns:xlink="http://www.w3.org/1999/xlink" x="0px" y="0px"
	 width="525.5px" height="415.799px" viewBox="0 57.094 525.5 472.799" enable-background="new 0 0 265 291" xml:space="preserve">
<g transform='scale(2 2)'>
	<rect x="20.344" y="28.547" fill="#6D99BA" width="221.812" height="236.359"/>
	<path fill="#FFFFFF" d="M193.75,223.32c-12.734,15.906-24.312,12.039-28.188,10.68c-0.219,0-0.68-0.234-0.68-0.234
		c-0.445,0.234-1.367,2.281-2.039,3.414c-1.367,2.727-2.727,5.461-4.547,5.68c-2.047,0.227-2.5-2.719-3.18-5.68
		c-0.234-1.133-0.68-4.094-1.141-4.539c-0.461,1.125-0.227,5.445-0.227,8.625c0.227,7.5,0.227,12.281-1.594,14.094
		c-0.219,0.227-0.68,0.461-0.906,0.461c-0.234,0-0.234,0-0.453,0c-1.82-0.68-2.5-6.141-4.094-22.055
		c-0.453-4.086-0.688-8.625-1.141-10.906c-1.125,2.727-2.719,9.32-4.086,15.688c0,0.453-0.461,0.68-0.914,0.68
		c-0.445,0-0.68-0.461-0.68-0.906c2.273-11.367,4.094-17.5,5.461-17.961c0.453-0.219,0.672,0,1.133,0.227
		c0.68,0.68,1.141,2.5,2.039,13.18c0.688,6.82,1.602,17.961,2.734,20.234c1.133-1.82,0.906-7.953,0.688-12.5
		c-0.234-5.914-0.234-8.859,0.906-10c0.219-0.234,0.672-0.453,0.906-0.453c2.047,0,2.5,2.953,2.953,6.133
		c0.234,1.367,0.68,4.086,1.141,4.32c0.906-0.234,2.273-2.953,3.172-4.773c1.367-2.727,2.281-4.547,3.641-4.32
		c0.227,0,0.688,0.234,1.141,0.234c3.641,1.125,14.547,4.766,26.359-10.234c0.227-0.453,0.906-0.453,1.141-0.227
		C193.977,222.406,193.977,223.086,193.75,223.32 M147.156,204.906h-63.18v-7.047h63.18V204.906z M147.156,187.641h-63.18v-7.055
		h63.18V187.641z M147.156,169.68h-63.18v-7.039h63.18V169.68z M206.25,138.312H64.203v126.594H206.25V138.312z"/>
	<g>
		<g>
			<g>
				<g>
					<g>
						<g>
							<g>
								<g>
									<g>
										<g>
											<g>
												<g>
													<defs>
														<path id="SVGID_1_" d="M123.523,84.453c0.68,0.227,0.68,0.453,0.68,0.453s0,0-1.141,0.688
															c-0.672,0-1.359,0.453-1.586,0.672c0,0-0.227,0.461,0,0.461c0,0.227,0,0.453,0,0.453s0.914-0.227,1.586-0.227
															c-0.453,0.227-1.125,0.227-0.906,0.688c0.234,0,1.367-0.234,1.367-0.234c0.227,0,1.133-0.227,1.82-0.453
															c0.68-0.227,1.359-0.906,1.359-0.906l0.688-0.234c0,0-0.234-0.672-0.453-1.359c-0.234,0-0.234,0-0.461,0
															s-3.414-0.906-3.414-0.906S122.609,84.453,123.523,84.453"/>
													</defs>
													<clipPath id="SVGID_2_">
														<use xlink:href="#SVGID_1_"  overflow="visible"/>
													</clipPath>
													<rect x="121.25" y="83.547" clip-path="url(#SVGID_2_)" fill="#574241" width="6.141" height="4.094"/>
												</g>
											</g>
										</g>
									</g>
								</g>
							</g>
						</g>
					</g>
				</g>
			</g>
		</g>
	</g>
	<path fill="#21366A" d="M147.156,61.953c-2.273,3.859-5.453,9.094-9.094,12.953c-3.625,3.859-11.586,9.32-11.586,9.32l0.68,1.82
		c0,0,9.094-3.188,13.859-7.281c2.734-2.266,6.367-6.586,6.367-6.586s8.867-14.539,5.68-13.867
		C151.938,58.547,149.656,57.859,147.156,61.953"/>
	<polygon fill="#222D60" points="182.508,98.281 186.703,82.234 198.359,85.273 194.156,101.32 	"/>
	<g>
		<path fill="#222D60" d="M183.062,91.266c0,0.461,0.234,0.688,0.453,0.914l1.367,0.461c0.461,0,0.914-0.234,0.914-0.461l0.68-2.5
			c0-0.453-0.227-0.914-0.461-0.914l-1.359-0.453c-0.453,0-0.906,0.234-0.906,0.453L183.062,91.266z M184.883,93.094l-1.367-0.453
			c-0.672-0.234-1.133-0.914-0.898-1.594l0.68-2.5c0.219-0.688,0.906-1.141,1.586-0.906l1.367,0.453
			c0.688,0.219,1.133,0.906,0.906,1.586l-0.68,2.5C186.25,92.859,185.562,93.547,184.883,93.094"/>
		<path fill="#574241" d="M181.477,87.641c0,0-0.227,0.672-0.227,1.125c0,0.461,0.688,1.828,0.906,3.188
			c0,0,0.461-0.227,0.461-0.453c0-0.453,0-0.906,0-0.906l0.68,0.453v0.219c0,0,0.219,0,0.453,0c0.227,0,0.453-0.219,0.453-0.219
			s0-0.234,0.234-0.234c0.219-0.219,0.219-0.219,0.219-0.453c0,0,0-0.219,0.227-0.219c0.234-0.234,0-0.234,0-0.234
			s-0.445-0.453-0.68-0.906c-0.453-0.453-1.359-0.906-1.359-0.906l-0.461-0.453H181.477z"/>
	</g>
	<polygon fill="#415C97" points="191.703,91.727 192.844,83.766 192.383,83.547 191.016,91.727 188.297,99.68 188.75,99.68 	"/>
	<path fill="#D8DBE5" d="M191.25,90.812l-0.453,2.047l0.453-0.906V90.812L191.25,90.812z M191.703,90.812l-0.227,0.914l-0.461,1.133
		h0.234h0.227c0.461,0,0.906-0.219,0.906-0.68C192.844,91.727,192.383,91.266,191.703,90.812L191.703,90.812z"/>
	<polygon fill="#DDE2ED" points="191.016,91.727 190.797,92.641 190.797,92.859 191.25,92.859 191.703,91.727 191.703,90.812
		191.25,90.812 	"/>
	<g>
		<path fill="#415C97" d="M176.703,95.359c0,0-2.266-2.5-10.906-2.719c-7.953-0.461-10.68-17.961-10.68-17.961
			s15.227,10.914,19.766,16.586C176.25,92.641,176.703,95.359,176.703,95.359"/>
		<path fill="#21366A" d="M169.438,136.047v1.594h-1.375v-0.461l-1.812,0.68h-1.594c0,0-0.219-0.219,0-0.453l1.594-0.453
			l1.367-0.906H169.438z"/>
		<path fill="#21366A" d="M160.562,136.047v1.594h-1.359v-0.461l-1.82,0.68h-1.586c0,0-0.234-0.219,0-0.453l1.586-0.453l1.594-0.906
			H160.562z"/>
		<path fill="#21366A" d="M153.297,84.906c0,0-7.5-5.227-7.953-15c-0.461-7.5,5.906-12.266,5.906-12.266L153.297,84.906z"/>
		<path fill="#F4F8F8" d="M151.477,90.359c0,0-1.594-7.719-3.633-17.047c-1.594-7.719,3.406-16.586,3.406-16.586l4.094,0.453
			c0,0,7.5,5.914,9.312,13.414c1.141,4.547,2.047,12.719,2.047,12.719l-0.227,6.828L151.477,90.359z"/>
		<path fill="#A0CBD6" d="M154.203,91.727c0,0,0.453-4.773-1.359-7.5c-2.047-2.961-2.281-9.086-2.281-9.086s0.914,5,2.5,8.859
			c1.594,3.641,1.82,7.953,1.82,7.953L154.203,91.727z"/>
		<path fill="#A0CBD6" d="M155.117,57.406l0.445,0.234l-2.719,3.625c0,0-1.594-0.453-2.281-2.039
			C153.516,59.453,155.117,57.406,155.117,57.406"/>
		<path fill="#21366A" d="M155.562,57.641c0,0-8.625,13.406,2.055,21.812c17.266,13.641,20.227,18.406,20.227,18.406
			s1.359-7.953-5.227-12.719C155.562,72.18,155.562,57.641,155.562,57.641"/>
		<path fill="#21366A" d="M166.938,82.641c0,0,1.125-13.875,0-20c-0.461-0.688-0.922-1.141-1.594-1.375
			c-5.906-2.266-9.547-3.406-9.547-3.406s-4.094,7.047,1.359,15.453C162.617,81.266,166.938,82.641,166.938,82.641"/>
		<path fill="#A0CBD6" d="M151.938,78.766c0,0,1.578,3.875,2.945,6.375s2.5,3.625,2.5,3.625s2.273-0.219,2.961,0
			c0.672,0.234,1.812,0.688,1.812,0.688s-0.68-3.188-1.141-4.094c-0.453-0.906-1.359-1.594-1.359-1.594l-2.5-2.266L151.938,78.766z"
			/>
		<path fill="#74438D" d="M150.344,59.453c0,0-0.461,0.227-0.688,1.359c0,0.688,0.227,1.141,0.227,1.141s-1.82,3.641-1.367,8.641
			c0.461,7.5,8.641,16.359,8.641,16.359l3.859,0.453l-0.672-4.094c0,0-8.406-5.906-9.781-13.172c-0.906-5,0-7.961,0-7.961
			s0.234-0.227,0.914-0.914C150.797,60.359,150.344,59.453,150.344,59.453"/>
		<path fill="#244982" d="M154.438,61.266c-0.234,0.461-0.461,1.141-0.688,1.594c-0.688,2.5-2.047,7.953,1.812,13.188
			c-0.906-2.281-0.906-5.234-0.445-7.281c-0.461-0.906-0.461-1.812-0.68-2.719c-0.234-0.453-0.461-0.453-0.461-0.453
			s0.227,0,0.227-0.234C153.977,64,154.203,62.406,154.438,61.266"/>
		<path fill="#244982" d="M155.797,58.312c0,0-0.68,1.367-1.359,3.188c-0.234,1.141-0.234,2.5-0.234,4.094
			c0.234-0.234,0.914-0.453,1.359-0.914c-1.359-1.82,0.914-5,0.914-5L155.797,58.312z M154.203,66.266
			c0.234,0.914,0.453,1.828,0.68,2.734c0-0.688,0.234-1.141,0.461-1.594C154.883,66.727,154.438,66.5,154.203,66.266"/>
		<path fill="#574241" d="M155.117,57.18c0,0-0.68-0.914-0.68-2.953c0-2.047-2.281-1.586-2.281-1.586s-0.68,1.812-0.906,2.719
			c-0.234,0.906-1.133,1.82-1.594,1.82c-0.906,0.227-2.719,0.227-2.719,0.227s2.719,0.234,3.625,1.594
			C152.844,59,155.117,57.18,155.117,57.18"/>
	</g>
	<g>
		<g>
			<path id="SVGID_287_" fill="#A0CBD6" d="M152.383,52.641c0,0-0.68,1.812-0.906,2.719s-1.133,1.82-1.594,1.82
				c-0.906,0.227-2.727,0.227-2.727,0.227s2.727,0.234,3.641,1.594c2.266,0,4.766-1.82,4.766-1.82s-0.68-0.914-0.68-2.953
				c0-1.586-1.133-1.82-1.82-1.82C152.383,52.641,152.383,52.641,152.383,52.641"/>
		</g>
		<g>
			<g>
				<g>
					<g>
						<g>
							<g>
								<g>
									<g>
										<g>
											<g>
												<g>
													<defs>
														<path id="SVGID_3_" d="M152.383,52.641c0,0-0.68,1.812-0.906,2.719s-1.133,1.82-1.594,1.82
															c-0.906,0.227-2.727,0.227-2.727,0.227s2.727,0.234,3.641,1.594c2.266,0,4.766-1.82,4.766-1.82
															s-0.68-0.914-0.68-2.953c0-1.586-1.133-1.82-1.82-1.82C152.383,52.641,152.383,52.641,152.383,52.641"/>
													</defs>
													<clipPath id="SVGID_4_">
														<use xlink:href="#SVGID_3_"  overflow="visible"/>
													</clipPath>
												</g>
												<g>
													<defs>
														<path id="SVGID_5_" d="M152.383,52.641c0,0-0.68,1.812-0.906,2.719s-1.133,1.82-1.594,1.82
															c-0.906,0.227-2.727,0.227-2.727,0.227s2.727,0.234,3.641,1.594c2.266,0,4.766-1.82,4.766-1.82
															s-0.68-0.914-0.68-2.953c0-1.586-1.133-1.82-1.82-1.82C152.383,52.641,152.383,52.641,152.383,52.641"/>
													</defs>
													<defs>
														<path id="SVGID_6_" d="M152.383,52.641c0,0-0.68,1.812-0.906,2.719s-1.133,1.82-1.594,1.82
															c-0.906,0.227-2.727,0.227-2.727,0.227s2.727,0.234,3.641,1.594c2.266,0,4.766-1.82,4.766-1.82
															s-0.68-0.914-0.68-2.953c0-1.586-1.133-1.82-1.82-1.82C152.383,52.641,152.383,52.641,152.383,52.641"/>
													</defs>
													<clipPath id="SVGID_7_">
														<use xlink:href="#SVGID_5_"  overflow="visible"/>
													</clipPath>
													<clipPath id="SVGID_8_" clip-path="url(#SVGID_7_)">
														<use xlink:href="#SVGID_6_"  overflow="visible"/>
													</clipPath>
													<rect x="146.938" y="52.18" clip-path="url(#SVGID_8_)" fill="#5A505B" width="8.18" height="6.82"/>
												</g>
											</g>
										</g>
									</g>
								</g>
							</g>
						</g>
					</g>
				</g>
			</g>
		</g>
	</g>
	<path fill="#574241" d="M147.156,57.406c0.906,0,2.281-0.227,2.961-0.227c1.133-0.227,1.133-1.133,1.133-1.133l0.453-1.82
		c0,0,0.453-0.227,0.68-0.68c0.234-0.234,0.461-0.906-0.445-1.367c-1.141-0.453-0.461-3.18-0.461-3.18l-1.594-0.453l-1.367,0.906
		l-2.5,4.094c0,0,0,0.219,0.234,0.219c0.453,0,0.688,0,0.688,0s-0.234,2.961-0.234,3.188
		C146.938,57.18,146.938,57.406,147.156,57.406"/>
	<path fill="#1D2E5C" d="M147.844,51.953c0,0.227,0,0.227,0.219,0.227c0.234,0,0.914,0,0.914-0.227c0,0-0.461-0.227-1.133-0.453
		C147.844,51.5,147.844,51.727,147.844,51.953"/>
	<path fill="#21366A" d="M154.203,49.453c-4.086-2.273-5.453-2.273-5.906-1.141c0,0.234,0,0.688,0.219,0.914
		c1.367-0.227,2.734-0.227,2.281,0.68c0,0.234-1.359,3.406-0.234,3.406c0.234-0.453,0.914-1.586,1.594-1.133
		c0.461,0.227,0,1.82,2.281,2.047C154.656,52.641,154.656,50.359,154.203,49.453"/>
	<polygon fill="#21366A" points="157.383,136.047 160.562,136.727 164.438,98.094 151.477,90.359 	"/>
	<path fill="#415C97" d="M162.156,120.812l-0.219,2.281c0,0-5-13.641-5.234-17.734C156.703,101.266,162.156,120.812,162.156,120.812
		"/>
	<path fill="#415C97" d="M165.117,68.547c0,0-2.734-1.141-0.68,1.594c1.359,1.812,2.945,3.859,2.945,3.859v-1.82L165.117,68.547z"/>
	<polygon fill="#21366A" points="182.383,87.641 181.016,88.547 163.062,68.547 166.938,62.859 	"/>
	<g>
		<path fill="#21366A" d="M151.477,90.359l15.68,46.141c0,0,1.82,0,2.5-0.234c-0.453-8.406-1.594-20.453-4.312-24.539
			c0.219-6.586,1.133-12.5,1.133-21.586C160.562,90.359,151.477,90.359,151.477,90.359"/>
		<polyline fill="#21366A" points="150.562,49.906 150.562,49.906 150.562,49.906 150.562,49.906 150.562,49.906 		"/>
		<line fill="none" x1="150.562" y1="49.906" x2="150.562" y2="49.906"/>
		<polyline fill="#21366A" points="152.383,51.266 152.383,51.5 152.383,51.5 152.383,51.5 152.383,51.5 152.383,51.266 		"/>
		<line fill="none" x1="152.383" y1="51.5" x2="152.383" y2="51.5"/>
		<polyline fill="#21366A" points="152.617,53.312 152.617,53.312 152.617,53.312 152.617,53.312 152.617,53.312 		"/>
		<line fill="none" x1="152.617" y1="53.547" x2="152.617" y2="53.547"/>
		<path fill="#21366A" d="M156.703,51.727c0,0,0.234-0.227,0.234-0.461l0,0c0.219,0,0.219-0.219,0.219-0.453
			c0-0.219-0.219-0.453-0.453-0.453l0,0l0,0v-0.219v-0.234c0-0.227-0.227-0.453-0.453-0.453c0-0.227,0-0.453,0-0.453l0,0
			c0.227-0.234,0.227-0.453,0-0.688l0,0c0-0.219,0-0.219,0-0.453c-0.234-0.219-0.453-0.219-0.688,0l0,0l0,0c0,0,0,0-0.219-0.219
			v-0.234c-0.227-0.227-0.461-0.227-0.688,0l-0.219-0.227c0,0,0-0.227,0-0.453s-0.234-0.461-0.461-0.461c0,0,0,0-0.227,0
			c0-0.219-0.234-0.453-0.453-0.219l0,0c0-0.234-0.234-0.234-0.453-0.234c0,0-0.227,0-0.227,0.234h-0.234c0,0,0,0-0.227,0
			c0-0.234-0.219-0.234-0.453-0.234c-0.227,0-0.453,0.234-0.453,0.453l0,0l0,0c0-0.219,0-0.219-0.234-0.219
			c-0.219-0.234-0.453,0-0.672,0.219c0,0,0,0,0,0.234c-0.227,0-0.461,0-0.461,0.227l0,0c-0.227,0-0.227,0-0.445,0.227v0.227
			l-0.234-0.227c-0.227,0-0.453,0.227-0.453,0.688l0,0c-0.234,0-0.234,0.219-0.234,0.453c0,0,0,0,0,0.219
			c-0.219,0-0.219,0.234-0.219,0.453l0,0c-0.234,0-0.234,0.234-0.234,0.461s0,0.227,0.234,0.453v0.227
			c0,0.234,0.219,0.453,0.453,0.453c0,0.234,0.227,0.234,0.453,0.234l0,0c0,0.219,0.234,0.219,0.453,0.219
			c0.227,0,0.461-0.219,0.461-0.453c0.227,0,0.445-0.219,0.445-0.453c0-0.227-0.219-0.453-0.219-0.453l0,0l0,0
			c0.219,0,0.219-0.227,0.453-0.227l0,0h0.219l0,0c0.234,0.453,0.688,0.914,1.141,0.914c0.227,0,0.461,0,0.461-0.234
			c0,0.234,0.227,0.234,0.445,0.234c0,0,0,0,0,0.219l0,0c-0.219,0.234-0.219,0.453,0,0.688c0.234,0.219,0.234,0.219,0.453,0.219l0,0
			l0,0c-0.219,0.234-0.219,0.234-0.219,0.461l0,0c0,0,0,0-0.234,0.227h-0.219c-0.227,0.227-0.227,0.453,0,0.688
			c0,0.219,0.219,0.219,0.453,0.219l0,0c0,0,0,0,0.219,0.234v0.219c-0.219,0-0.219,0.234-0.219,0.453c0,0.234,0,0.234,0.219,0.234
			l0,0l0,0h-0.219c0,0,0,0-0.234,0c-0.219,0-0.445,0.227-0.445,0.453s0.227,0.453,0.227,0.453l0,0c0,0.234,0.219,0.453,0.453,0.453
			h0.219h0.234l0,0c0,0.234,0.227,0.234,0.453,0.234c0.234,0,0.234-0.234,0.453-0.234l0.227,0.234c0.234,0,0.461-0.234,0.461-0.453
			c0,0,0,0,0-0.234c0,0,0.219,0,0.219-0.227l0.234,0.227c0.219,0,0.219-0.227,0.453-0.227l0.227,0.227
			c0.227,0,0.461-0.227,0.461-0.453c0,0,0,0,0-0.227c0.219,0,0.219-0.227,0.219-0.461l0,0c0.227,0,0.227-0.219,0.227-0.453
			c0-0.219,0-0.219-0.227-0.453l0,0c0.227,0,0.461-0.219,0.461-0.68C156.938,51.953,156.938,51.727,156.703,51.727"/>
	</g>
	<g>
		<g>
			<g>
				<g>
					<g>
						<g>
							<g>
								<g>
									<g>
										<g>
											<g>
												<g>
													<defs>
														<path id="SVGID_9_" d="M113.523,81.047c-0.227,0-0.227,0-0.461,0c-0.453,0.68-0.453,1.359-0.453,1.359l0.688,0.234
															c0,0,0.68,0.672,1.359,0.906c0.688,0.219,1.594,0.453,1.82,0.453c0,0,1.133,0.227,1.367,0.227
															c0.219-0.227-0.688-0.461-0.906-0.68c0.672,0,1.359,0.219,1.586,0.219c0,0,0.227-0.219,0-0.453
															c0.227,0,0.227-0.453,0-0.453c-0.227-0.219-1.133-0.68-1.586-0.68c-1.141-0.453-1.141-0.68-1.141-0.68
															s0-0.234,0.68-0.453c0.68-0.234,0.68-0.906,0.68-0.906S113.75,81.047,113.523,81.047"/>
													</defs>
													<clipPath id="SVGID_10_">
														<use xlink:href="#SVGID_9_"  overflow="visible"/>
													</clipPath>
													<rect x="112.391" y="80.359" clip-path="url(#SVGID_10_)" fill="#574241" width="6.133" height="4.094"/>
												</g>
											</g>
										</g>
									</g>
								</g>
							</g>
						</g>
					</g>
				</g>
			</g>
		</g>
	</g>
	<g>
		<path fill="#5A505B" d="M88.523,88.312c0,0-0.227,1.141,0,1.367c0.227,0.68,0,1.82,0.227,3.633c0,0-0.688,0-0.688-0.672
			c0-0.688-0.672-0.688-0.672-0.688s-0.234,0.227-0.688,0s-0.68-0.227-0.68-0.453c0.227-0.688,0.453-1.594,0.68-1.82
			c0.234-0.453,0.453-0.68,0.453-0.68l0.234-0.906L88.523,88.312z"/>
		<path fill="#262F68" d="M85.344,91.953l-0.234,0.906v0.234l0.234,0.219L88.297,94l0,0c0.227,0,0.227,0,0.227-0.234l0.227-0.906
			v-0.219l-0.227-0.234l-2.961-0.68L85.344,91.953 M88.062,94.453l-2.953-0.688c-0.219,0-0.453-0.219-0.453-0.453
			c-0.219-0.219-0.219-0.453-0.219-0.672l0.219-0.914c0-0.461,0.453-0.68,0.906-0.68l2.961,0.68c0.227,0,0.453,0.227,0.453,0.453
			c0.227,0.227,0.227,0.461,0.227,0.68l-0.227,0.906C88.977,94.227,88.75,94.453,88.062,94.453L88.062,94.453z"/>
	</g>
	<polygon fill="#262F68" points="77.391,102.641 92.156,105.594 93.297,99.453 85.797,99 78.75,96.266 	"/>
	<polygon fill="#262F68" points="78.523,96.047 85.797,98.766 93.523,99.227 94.438,94.453 79.656,91.5 	"/>
	<polygon fill="#F4F8F8" points="84.883,99.703 84.969,99.258 86.531,99.57 86.438,100.016 	"/>
	<g>
		<path fill="#574241" d="M86.023,91.5c0,0-0.227,0.227-0.227,0.453c0,0.453,0.453,0.227,0.453,0.227s0,0.227,0.227,0.227
			s0.461,0,0.461,0s0,0.234,0.219,0.234c0.234,0,0.453,0,0.453-0.234c0-0.227,0.234-0.68,0.453-1.359
			c0-0.234-0.219-0.234-0.453-0.234c0,0,0-0.219-0.219-0.219c-0.234,0-0.453,0-0.453,0s0-0.234-0.234-0.234
			C86.938,90.594,86.25,91.266,86.023,91.5L86.023,91.5z"/>
		<path fill="#262F68" d="M100.109,65.594c-0.672,0.906-1.133,1.359-2.5,2.266c-2.5,1.82-5.906,8.188-5.906,8.188l-3.18,12.5
			l-1.586-0.234c0,0,0.906-10.906,1.812-14.312c2.273-3.859,3.641-7.953,5.227-10.688C96.477,58.766,101.703,60.594,100.109,65.594"
			/>
	</g>
	<g>
		<g>
			<g>
				<g>
					<g>
						<g>
							<g>
								<g>
									<g>
										<g>
											<g>
												<g>
													<defs>
														<path id="SVGID_11_" d="M102.156,93.547c0,0-8.18,0.219-7.266,3.18c1.586,4.32,0.672,7.953,1.586,12.727
															c-5.914,3.188-6.133,23.859-6.133,23.859l-0.453,0.914l0.672,1.82l0.914,1.359h0.68l-0.68-3.641l7.961-21.586
															c0,0,3.859-12.039,4.766-17.953c0.234-0.914-0.227-1.133-0.906-1.133C102.609,93.094,102.156,93.547,102.156,93.547"
															/>
													</defs>
													<clipPath id="SVGID_12_">
														<use xlink:href="#SVGID_11_"  overflow="visible"/>
													</clipPath>
													<rect x="89.891" y="92.406" clip-path="url(#SVGID_12_)" fill="#574241" width="14.547" height="45"/>
												</g>
											</g>
										</g>
									</g>
								</g>
							</g>
						</g>
					</g>
				</g>
			</g>
		</g>
	</g>
	<g>
		<path fill="#262F68" d="M104.891,82.18c-1.141-5.68,0-7.5,0.672-12.953c1.141-7.5-7.719-12.047-7.719-12.047
			s-0.688,1.367-1.367,2.047c-1.586,1.586-4.539,6.82-2.5,11.133c3.414,7.047,1.133,10.453,1.133,10.453S98.75,82.859,104.891,82.18
			"/>
		<path fill="#E9F3F4" d="M103.523,66.266c0,0-2.047-5.219-5.227-7.719c0.906,0,0.453,0,1.141-0.453
			C102.609,60.359,103.523,66.266,103.523,66.266"/>
		<path fill="#5A505B" d="M97.391,58.094l-1.367-6.828l3.867-0.672c0,0,0.219,2.953,0.672,3.859
			c0.461,1.141,0.914,1.594,1.375,1.812c0.906,0.234,1.812,0.234,1.812,0.234s-2.047,0.227-3.641,3.406
			C99.438,60.141,97.391,58.094,97.391,58.094"/>
	</g>
	<g>
		<g>
			<g>
				<g>
					<g>
						<g>
							<g>
								<g>
									<g>
										<g>
											<g>
												<g>
													<defs>
														<path id="SVGID_13_" d="M96.023,51.266l1.367,6.828c0,0,2.047,2.047,2.719,1.586c1.594-3.18,3.641-3.414,3.641-3.414
															s-0.906-0.219-1.812-0.219c-0.461,0-0.914-0.688-1.375-1.82c-0.453-1.133-0.672-3.867-0.672-3.867L96.023,51.266z"/>
													</defs>
													<clipPath id="SVGID_14_">
														<use xlink:href="#SVGID_13_"  overflow="visible"/>
													</clipPath>
													<polygon clip-path="url(#SVGID_14_)" fill="#5A505B" points="97.156,60.141 95.344,47.641 103.75,51.5 103.75,60.141
																											"/>
												</g>
											</g>
										</g>
									</g>
								</g>
							</g>
						</g>
					</g>
				</g>
			</g>
		</g>
	</g>
	<path fill="#574241" d="M103.523,56.5c-0.461,0-0.68,0-1.586-0.234c-1.375-0.219-1.594-1.125-1.594-1.125l-0.453-1.594
		c0,0-0.453-0.688-0.688-0.906c-0.227-0.234-0.227-1.828,0.688-2.047c1.359-0.453,1.812-2.953,1.812-2.953l1.594,0.906
		c0,0,0.453,0.906,0.906,2.266c0.234,0.688,0.688,1.141,1.141,1.594c0,0.234-0.234,0.234-0.234,0.234c-0.219,0-0.219,0-0.219,0
		s0,0.906-0.234,2.039c-0.219,0.914-0.219,1.367-0.219,1.367C103.977,56.5,103.75,56.5,103.523,56.5"/>
	<path fill="#574241" d="M105.344,138.094l-1.594-3.414l2.273-22.727c0,0,0.68-12.727,0.227-18.641
		c-0.227-1.812-2.047-0.219-2.047-0.219s-7.953,2.266-6.141,4.766c2.734,3.867,2.734,7.5,4.781,12.047
		c-4.781,4.547,0.219,24.773,0.219,24.773l-0.219,0.914l1.133,1.586L105.344,138.094L105.344,138.094z"/>
	<path fill="#262F69" d="M105.344,137.641c0.453,0.219,1.359,0.672,1.359,0.672c0.453,0,0.234,0.453,0.234,0.453s-1.828,0-2.281,0
		s-0.906-1.359-0.906-1.359v1.359h-0.688c0,0-0.219-1.359-0.219-2.266c0-0.688,0-1.141,0-1.141s0.453,0,1.359,1.141
		C104.656,137.859,104.891,137.641,105.344,137.641"/>
	<path fill="#262F69" d="M91.938,136.953c0.219,0.227,1.125,0.906,1.125,1.141c0.461,0.219,0,0.453,0,0.453
		s-1.812-0.453-2.039-0.688c-0.461-0.219-0.461-1.594-0.461-1.594l-0.453,1.375l-0.672-0.234c0,0,0.219-1.359,0.219-2.266
		c0-0.688,0.234-0.914,0.234-0.914s0.453,0,0.906,1.367C91.25,136.953,91.703,136.953,91.938,136.953"/>
	<path fill="#262F68" d="M94.656,82.859c-3.859,5.234,2.5,12.047-1.594,18.406c5.461,1.828,10,2.281,13.875,1.375
		c-0.234-11.594-2.734-20.461-2.734-20.461l-8.641-0.914C95.562,81.047,95.109,82.18,94.656,82.859"/>
	<path fill="#232A55" d="M103.75,51.266c0,0.234,0,0.234-0.227,0.234s-0.914,0-0.914,0s0.453-0.234,0.914-0.453
		C103.75,50.812,103.75,51.047,103.75,51.266"/>
	<path fill="#496EA8" d="M95.109,63.312h-0.906c0,0-0.906,4.547-0.68,9.547c0.227-0.453,1.367-2.047,1.367-2.047L95.109,63.312z"/>
	<path fill="#496EA8" d="M104.891,77.641c0,0-3.641-2.281-6.594-2.734c0.453-2.047,0.453-5.453,0.453-5.453l-1.359,6.594
		L104.891,77.641z"/>
	<path fill="#262F68" d="M100.344,64c-0.234,1.141-0.906,2.266-0.906,2.953c-0.914,2.953-1.375,8.188-1.375,8.188l15.234,5.906
		l-0.453,2.047c0,0-11.82-3.188-14.547-3.641c-4.547-0.906-4.32-1.812-4.32-1.812s0-9.094,0.227-12.281
		c0.234-3.18,2.047-6.133,3.641-6.133C99.203,59,100.344,61.047,100.344,64"/>
	<path fill="#F4F8F8" d="M97.391,57.18c0,0,1.812,1.82,4.086,4.547c2.727,3.18,2.727,6.367,2.273,7.5
		c-0.688-2.5-3.641-5.461-3.641-5.461l0.453-1.586l-1.586,0.68l-2.039-4.547L97.391,57.18z"/>
	<path fill="#F4F8F8" d="M94.891,80.812c0,0,4.086,1.828,9.312,1.367c-0.68-0.227-0.453-0.914,0-0.914
		c-5.68,0.234-8.641-1.359-8.641-1.359L94.891,80.812z"/>
	<path fill="#F4F8F8" d="M104.203,81.266c0,0,0.453,0,0.453,0.461c0,0.453-0.453,0.68-0.453,0.68h0.688l-0.234-0.906L104.203,81.266
		z"/>
	<path fill="#21366A" d="M103.75,46.953C103.75,46.953,103.523,46.953,103.75,46.953C103.75,46.953,103.75,47.18,103.75,46.953
		C103.75,47.18,103.75,47.18,103.75,46.953 M98.062,46.047C97.844,46.047,97.844,46.047,98.062,46.047
		C97.844,46.047,97.844,46.047,98.062,46.047c0.234-0.234,0.688-0.453,1.141-0.688c0.688-0.219,1.82-0.453,2.734,0
		c0.219,0,0.219,0.234,0.453,0.234c-0.234-0.234-0.688-0.234-0.914-0.234h-0.227c-0.688-0.219-1.359,0-2.047,0.234
		C98.523,45.812,98.297,45.812,98.062,46.047 M97.391,46.047L97.391,46.047C97.391,45.812,97.391,46.047,97.391,46.047
		S97.609,46.047,97.391,46.047L97.391,46.047L97.391,46.047L97.391,46.047 M97.156,46.047L97.156,46.047L97.156,46.047
		L97.156,46.047 M96.938,45.812L96.938,45.812L96.938,45.812L96.938,45.812L96.938,45.812L96.938,45.812L96.938,45.812
		L96.938,45.812 M94.891,44.906h-0.234H94.891c0.219,0,0.219,0,0.453,0C95.109,44.906,95.109,44.906,94.891,44.906 M91.477,53.312
		L91.477,53.312c0-0.219,0.227-0.672,0.227-0.906l0,0c0-0.227,0-0.453,0-0.68V51.5l0,0c0-0.234,0-0.453,0-0.688
		c0,0.453-0.227,1.141-0.227,1.594C91.477,52.641,91.477,53.094,91.477,53.312 M92.156,48.094L92.156,48.094L92.156,48.094
		L92.156,48.094z M92.156,53.766c0,0.234,0,0.234,0,0.234V53.766c0-0.219,0-0.453,0-0.453
		C92.156,53.547,92.156,53.766,92.156,53.766 M92.156,47.406C92.156,47.406,92.156,47.18,92.156,47.406c0-0.227,0-0.227,0-0.227
		S92.156,47.18,92.156,47.406C92.156,47.18,92.156,47.18,92.156,47.406 M92.391,46.5L92.391,46.5L92.391,46.5
		c0.219-0.453,0.453-0.688,0.906-0.906c0,0,0,0,0.227-0.234c0,0,0,0-0.227,0c0,0,0,0-0.234,0l0,0l0,0l0,0l0,0l0,0l0,0l0,0l0,0
		l-0.219,0.234C92.609,46.266,92.609,46.266,92.391,46.5L92.391,46.5 M93.297,45.812L93.297,45.812
		C93.297,45.812,93.523,45.812,93.297,45.812c0.227,0,0.227,0,0.227,0s0,0,0.227,0l0,0l0,0l0,0l0,0l0,0l0,0l0,0
		C93.75,45.812,93.523,45.812,93.297,45.812 M93.75,46.266L93.75,46.266L93.75,46.266L93.75,46.266L93.75,46.266L93.75,46.266
		 M93.75,46.5L93.75,46.5L93.75,46.5C93.75,46.5,93.977,46.5,93.75,46.5C93.977,46.5,93.75,46.5,93.75,46.5 M93.977,46.727
		L93.977,46.727L93.977,46.727L93.977,46.727L93.977,46.727 M93.75,49L93.75,49c0,0.227,0,0.453,0,0.453v0.227l0,0
		C93.523,49.453,93.523,49.227,93.75,49 M93.523,47.641l-0.227,0.219l0,0C93.297,48.094,93.523,48.094,93.523,47.641L93.523,47.641
		L93.523,47.641 M93.523,48.094L93.523,48.094L93.523,48.094L93.523,48.094 M93.297,48.547L93.297,48.547V49V48.547
		C93.297,48.766,93.297,48.547,93.297,48.547 M93.297,54v-0.453C93.297,53.766,93.297,53.766,93.297,54
		C93.062,54,93.062,54.227,93.297,54c0,0.227,0,0.453,0,0.453l0,0C93.062,54.453,93.297,54.227,93.297,54 M93.297,46.5L93.297,46.5
		C93.297,46.5,93.297,46.266,93.297,46.5C93.297,46.5,93.062,46.5,93.297,46.5C93.062,46.727,93.297,46.5,93.297,46.5 M93.062,47.18
		L93.062,47.18L93.062,47.18C93.062,47.406,93.062,47.406,93.062,47.18c-0.219,0.227-0.219,0.227-0.219,0.227
		C93.062,47.406,93.062,47.18,93.062,47.18 M93.062,53.766c0-0.219,0-0.453,0-0.672c0-0.234,0-0.453,0-0.688
		c0,0.453,0,1.141-0.219,1.594l-0.234,1.359l0,0v-0.219v-0.234V54.68l0,0L93.062,53.766z M92.844,49.68
		C92.844,49.453,92.844,49.453,92.844,49.68C92.844,49.453,92.844,49.453,92.844,49.68c0,0,0,0.227,0,0.461l0,0
		C92.844,49.906,92.844,49.906,92.844,49.68L92.844,49.68L92.844,49.68L92.844,49.68L92.844,49.68 M92.844,48.766L92.844,48.766
		L92.844,48.766L92.844,48.766C92.609,49,92.609,49,92.844,48.766C92.844,49,92.844,49,92.844,48.766 M92.609,50.359L92.609,50.359
		L92.609,50.359L92.609,50.359L92.609,50.359L92.609,50.359 M92.609,54.453L92.609,54.453L92.609,54.453L92.609,54.453
		c0-0.227,0-0.227,0-0.453c0,0,0-0.234,0-0.453c0-0.234,0-0.234,0-0.453v-0.234v-0.219c0-0.234,0-0.461,0-0.688v-0.227l0,0
		c0,0.227,0,0.68,0,0.914C92.609,53.312,92.609,54,92.609,54.453c0,0,0,0.227,0,0.453V54.453z M92.609,47.406L92.609,47.406
		L92.609,47.406L92.609,47.406c-0.219,0.234-0.219,0.234-0.219,0.234l0,0C92.609,47.641,92.609,47.406,92.609,47.406 M92.391,48.547
		L92.391,48.547L92.391,48.547L92.391,48.547 M93.977,46.047L93.977,46.047C94.203,46.047,94.203,46.047,93.977,46.047
		C94.203,46.047,94.203,46.047,93.977,46.047 M94.203,47.641C94.203,47.641,93.977,47.641,94.203,47.641
		C93.977,47.641,93.977,47.641,94.203,47.641c0,0.219,0,0.219,0,0.219l0,0V47.641z M93.977,50.359L93.977,50.359L93.977,50.359
		L93.977,50.359L93.977,50.359z M93.977,52.859c0-0.219,0-0.68,0-0.906v0.453l0,0l0,0C93.977,52.641,93.977,52.641,93.977,52.859
		 M93.977,54.227c0-0.227,0-0.461-0.227-0.914c0,0.234,0,0.234,0,0.453C93.977,54,93.977,54.227,93.977,54.227
		c-0.227,0.227-0.227,0.453-0.227,0.453C93.977,54.453,93.977,54.453,93.977,54.227 M94.438,48.312
		C94.438,48.312,94.438,48.094,94.438,48.312C94.438,48.094,94.438,48.094,94.438,48.312C94.438,48.094,94.438,48.312,94.438,48.312
		 M94.438,47.406L94.438,47.406L94.438,47.406L94.438,47.406 M94.438,45.359h0.219c0.234,0,0.234,0,0.453,0
		c-0.219,0-0.219-0.219-0.453-0.219C94.656,45.359,94.656,45.359,94.438,45.359 M95.109,48.094L95.109,48.094L95.109,48.094
		L95.109,48.094L95.109,48.094 M95.109,48.547c0,0,0,0.219-0.219,0.219c0,0.234,0,0.234-0.234,0.461
		C94.891,49.227,95.109,49,95.109,48.547C95.109,48.766,95.344,48.766,95.109,48.547C95.344,48.547,95.344,48.547,95.109,48.547
		 M95.562,46.047L95.562,46.047C95.797,46.266,95.797,46.266,95.562,46.047C95.797,46.266,95.797,46.266,95.562,46.047
		C95.797,46.266,95.797,46.266,95.562,46.047 M95.344,49L95.344,49C95.344,49.227,95.109,49.227,95.344,49
		c0,0.227-0.234,0.227-0.234,0.453l0,0C95.109,49.453,95.109,49.453,95.344,49C95.109,49.227,95.344,49.227,95.344,49
		 M94.891,48.547L94.891,48.547L94.891,48.547L94.891,48.547L94.891,48.547 M94.656,49C94.656,49,94.656,49.227,94.656,49
		C94.656,49.227,94.656,49.227,94.656,49C94.656,49.227,94.656,49.227,94.656,49C94.656,49.227,94.656,49.227,94.656,49
		C94.656,49.227,94.656,49.227,94.656,49C94.656,49.227,94.656,49.227,94.656,49 M94.656,50.812c0-0.219,0-0.219,0-0.453l0,0
		c0-0.219,0-0.219,0-0.453c0,0,0,0,0,0.234C94.656,50.359,94.656,50.359,94.656,50.812C94.656,50.594,94.656,50.594,94.656,50.812
		 M94.656,47.406L94.656,47.406C94.438,47.406,94.438,47.406,94.656,47.406L94.656,47.406L94.656,47.406z M94.438,54L94.438,54
		L94.438,54c0,0.227,0,0.227,0,0.227l0,0v0.227l0,0v-0.227C94.438,54.453,94.438,54.227,94.438,54 M94.438,53.094L94.438,53.094
		c0-0.234,0-0.234,0-0.453l0,0l0,0l0,0c0,0.219,0,0.453,0,0.672C94.438,53.094,94.438,53.094,94.438,53.094 M96.023,46.727
		L96.023,46.727L96.023,46.727L96.023,46.727L96.023,46.727L96.023,46.727 M96.023,52.859L96.023,52.859
		c0,0.234,0.227,0.453,0.227,0.453s0,0,0,0.234l0,0c0.227,0.219,0.453,0.453,0.688,0.68c-0.234-0.227-0.461-0.461-0.461-0.461
		C96.25,53.547,96.25,53.312,96.023,52.859C96.023,53.094,96.023,53.094,96.023,52.859 M96.703,46.266L96.703,46.266L96.703,46.266
		L96.703,46.266L96.703,46.266L96.703,46.266L96.703,46.266L96.703,46.266 M96.938,47.18L96.938,47.18L96.938,47.18L96.938,47.18
		C96.938,46.953,96.938,46.953,96.938,47.18C96.938,46.953,96.938,46.953,96.938,47.18L96.938,47.18L96.938,47.18 M95.797,52.641
		L95.797,52.641L95.797,52.641L95.797,52.641 M97.156,46.5L97.156,46.5C97.156,46.727,97.156,46.727,97.156,46.5L97.156,46.5z
		 M97.156,47.406L97.156,47.406L97.156,47.406C97.391,47.18,97.156,47.18,97.156,47.406C97.156,47.18,97.156,47.18,97.156,47.406
		L97.156,47.406L97.156,47.406 M97.156,46.5C97.391,46.5,97.391,46.5,97.156,46.5C97.391,46.5,97.391,46.5,97.156,46.5L97.156,46.5
		C97.391,46.5,97.391,46.5,97.156,46.5C97.391,46.5,97.391,46.5,97.156,46.5C97.391,46.5,97.391,46.5,97.156,46.5 M97.609,46.5
		C97.609,46.5,97.844,46.5,97.609,46.5c0.453-0.234,0.688-0.453,1.141-0.453c0.688-0.234,1.359-0.453,2.047-0.234h0.227
		c0.453,0,0.68,0.234,0.914,0.234c-0.234,0-0.234-0.234-0.461-0.234c-0.914-0.453-2.039-0.219-2.727,0
		C98.523,46.047,98.062,46.266,97.609,46.5L97.609,46.5 M102.156,46.266l0.234,0.234c0.219,0.227,0.453,0.227,0.672,0.453
		c0,0,0-0.227-0.219-0.227C102.609,46.727,102.391,46.5,102.156,46.266 M102.844,47.406
		C102.844,47.406,103.062,47.406,102.844,47.406c0.219,0.234,0.219,0.234,0.219,0.453l0,0
		C103.062,47.406,103.062,47.406,102.844,47.406 M101.25,46.266h-0.227l0,0c-0.227,0-0.227,0-0.461,0
		C100.797,46.047,101.023,46.047,101.25,46.266 M102.391,46.953C102.391,46.953,102.156,46.727,102.391,46.953
		c-0.453-0.227-0.688-0.453-0.914-0.453h-0.227h0.227c0.227,0,0.227,0,0.461,0.227C101.938,46.727,102.156,46.727,102.391,46.953
		 M103.523,47.406L103.523,47.406c0,0.234,0.227,0.234,0.227,0.234C103.523,47.641,103.523,47.406,103.523,47.406 M90.562,53.094
		c0-0.234,0.234-0.453,0.234-0.688c0-0.227,0.227-0.453,0.227-0.68c0-0.461,0.227-0.914,0.227-1.367c0-0.219,0-0.453,0.227-0.68V49
		c0-0.234,0-0.453,0.227-0.688c0-0.219,0.234-0.453,0.234-0.672l0,0c0-0.234,0.219-0.688,0.219-0.914c0,0,0-0.227,0.234-0.227
		l0.219-0.234l0,0l0,0l0.234-0.219l0,0l0,0l0,0l0,0l0,0l0,0l0,0l0,0c0,0,0,0,0.219,0c0,0,0,0,0.234,0c0,0-0.234,0-0.234,0.219
		c-0.219,0.234-0.453,0.234-0.453,0.461l0,0l0,0l0,0l0,0l0,0c0,0,0,0,0.234,0c0.219,0,0.453,0,0.453-0.227h0.227
		c0.227-0.234,0.68-0.234,0.914,0c0.453,0,0.672,0.227,0.906,0.453l0,0l0,0l0,0l0.219,0.227l0,0l0,0l0,0c0,0,0,0,0.234,0h0.227
		c0.227,0,0.227,0,0.227,0s0,0,0.227,0.227h0.227l0,0c0.453-0.227,0.906-0.453,1.359-0.68c0.688-0.227,1.828-0.461,2.961,0
		c0.227,0,0.227,0.227,0.453,0.227l0,0c0.227,0.227,0.68,0.227,0.914,0.453c0,0,0,0.234,0.219,0.234
		c-0.219-0.234-0.453-0.234-0.453-0.461c0.234,0.227,0.234,0.227,0.453,0.461c0.453,0.453,0.914,0.906,1.141,1.586v0.227
		c0,0,0,0,0,0.227v0.227l0,0l0,0l0,0l0,0c0,0.234,0,0.234,0.227,0.453c-1.586,0.234-4.32,1.141-5.227,2.953
		c-1.141,2.734-1.594,1.367-2.047,1.367c-0.227,0,0.688,0.914,0.688,1.586l0,0c0,0-0.234,0-0.234-0.219c0,0-0.219,0-0.219-0.234
		h-0.234h-0.227l0,0c-0.227,0-0.227-0.219-0.453-0.219c0.227,0.219,0.453,0.453,0.453,0.453c0.227,0.219,0.227,0.219,0.461,0.219
		c0,0,0,0,0.219,0V56.5h-0.219c-0.234,0-0.461-0.234-0.688-0.453c-0.906-0.688-1.594-1.82-1.812-3.188c0,0.906,0,1.82-0.234,2.734
		c0,0,0,0-0.227,0l0,0c0,0-0.227,0,0-0.234v-0.219l0,0l0,0c0-0.461,0-0.688,0.227-1.141l0,0c0,0.227,0,0.227,0,0.453
		s0,0.453,0,0.453v0.234l0,0v0.219v0.234v0.219c0,0.234,0,0.234,0,0.234v0.219l0,0l0,0l0,0c0,0.234,0,0.234,0,0.461c0,0,0,0-0.227,0
		l0,0c0,0,0,0,0-0.227c0-0.234,0.227-0.688,0.227-1.141c0,0.234-0.227,0.453-0.227,0.453l0,0c0,0.234,0,0.234,0,0.453
		c0,0.234,0,0.234,0,0.234l0,0c0,0,0,0.227-0.227,0c0,0,0,0,0-0.234c0,0,0,0,0-0.219l0,0l0,0c0,0,0,0,0-0.234
		c0-0.219,0.227-0.453,0.227-0.672c0,0,0,0,0-0.234c0-0.227,0-0.453,0-0.68s0-0.461,0-0.68c0-0.234,0-0.453,0-0.688v-0.219l0,0l0,0
		c0,0.906,0,1.812-0.227,2.5v0.219v0.234l0,0c0,0-0.227,0-0.227-0.234v-0.219l0,0V54.68l0,0l0,0l0,0v0.227c0,0.234,0,0.234,0,0.453
		c0,0.234,0,0.234,0,0.234l0,0l0,0c0,0,0,0-0.227,0l0,0V56.5c0,0,0,0.227-0.234,0.227l0,0c0,0-0.219,0,0-0.227v-0.453l0,0
		c0,0,0,0-0.219,0c0,0,0,0,0-0.234c0.219-0.672,0.219-1.359,0-1.812l0,0c0,0.227,0,0.227,0,0.453v0.227c0,0.227,0,0.227,0,0.461
		v0.219l0,0c0,0,0,0.234-0.234,0c0,0,0,0,0-0.219l0,0c0,0,0,0-0.219,0l0,0c0,0,0,0,0-0.234c0-0.453,0.219-0.68,0.219-1.141
		c0,0,0,0,0-0.219v-0.234c0,0.234,0,0.453-0.219,0.914c0,0,0,0-0.234,0l0,0c0,0,0,0,0-0.227c0.234-0.453,0.234-1.141,0.234-1.82
		c0-0.227,0-0.453,0-0.68c0-0.234,0-0.453,0-0.688l0,0v0.234v0.219V51.5v0.227c0,0.227,0,0.227,0,0.453s0,0.227,0,0.461
		c0,0.219,0,0.219,0,0.219s0,0,0,0.234c0,0,0,0,0,0.219v0.234v0.219l0,0c0,0,0,0-0.234,0c0,0,0,0,0-0.219l0,0c0,0,0,0,0-0.234
		c0,0,0,0,0-0.219l0,0c0,0,0,0,0-0.234v-0.219c0,0,0,0,0-0.234l0,0l0,0c0,0-0.219,0-0.219-0.227s0-0.227,0-0.453c0,0,0,0,0-0.227
		c0-0.234,0-0.453,0-0.688c0-0.672,0.219-1.359,0.219-2.047c0-0.219,0-0.453,0-0.672v0.672c0,0.461-0.219,0.914-0.219,1.375
		c0,0.219,0,0.453-0.234,0.672L91.477,51.5l0,0C90.797,53.094,90.797,53.312,90.562,53.094
		C90.797,53.094,90.562,53.094,90.562,53.094"/>
</g>
</svg>
