<?xml version="1.0" encoding="utf-8"?>
<!-- Generator: Adobe Illustrator 16.0.0, SVG Export Plug-In . SVG Version: 6.00 Build 0)  -->
<!DOCTYPE svg PUBLIC "-//W3C//DTD SVG 1.1//EN" "http://www.w3.org/Graphics/SVG/1.1/DTD/svg11.dtd">
<svg version="1.1" id="Layer_1" xmlns="http://www.w3.org/2000/svg" xmlns:xlink="http://www.w3.org/1999/xlink" x="0px" y="0px"
	 width="151.5px" height="153px" viewBox="0 0 151.5 153" enable-background="new 0 0 151.5 153" xml:space="preserve">
<g>
	<g>
		<path fill="none" stroke="#4681A7" d="M75.555,149.568c40.783,0,73.807-33.023,73.807-73.805
			c0-40.785-33.023-73.809-73.807-73.809c-40.781,0-73.807,33.023-73.807,73.809C1.947,116.545,34.971,149.568,75.555,149.568z"/>
		<path fill="#4681A7" d="M77.742,45.922l0.199-0.199l-0.396-0.598l-0.598,0.398c-0.594-0.199-0.994-0.199-1.193,0
			s-0.396,0.398-0.396,0.398c0,0.398,0.197,0.598,0.396,0.994c0,0,0.199,0.199,0.199,0.398l0,0
			c-0.199,0.199-0.795,0.199-1.193-0.199c-0.199-0.199-0.398-0.199-0.398-0.396l-0.596,0.396c0,0.199,0.199,0.199,0.398,0.398
			l-0.199,0.199l0.396,0.598l0.598-0.398c0.398,0.199,0.596,0.199,0.994,0.199c0.201,0,0.596,0,0.795-0.199s0.398-0.398,0.398-0.598
			c0-0.398-0.199-0.596-0.398-0.994c-0.199-0.199-0.199-0.199-0.199-0.199s0.398-0.199,0.797,0.199
			c0.197,0.199,0.396,0.398,0.396,0.398l0.598-0.398C77.941,46.121,77.941,46.121,77.742,45.922 M74.561,49.9l-0.199,0.398v4.178
			l-3.58-1.99v-4.375l6.564-4.379l3.582,1.99L74.561,49.9z M67.598,45.723l5.771-3.58l2.785,1.59l-5.572,3.582L67.598,45.723z
			 M84.311,48.311l-5.771,3.578L75.555,50.1l5.771-3.58L84.311,48.311z M78.34,54.676h0.398l6.365-4.178L84.709,49.9l-6.17,3.979
			l-3.381-1.99v-1.191l3.182,1.789h0.398l6.365-4.176v-0.598l-3.184-1.791l0,0v-0.598l-4.375-2.389h-0.398l-0.398,0.398
			l-3.379-1.789h-0.398l-6.367,4.178v0.598l3.383,1.99v1.191l-2.984-1.789l-0.398,0.598l3.383,1.988v1.191l-2.984-1.789
			l-0.398,0.598l3.383,1.988v0.596l0.199,0.398l4.178,2.389l0.596-0.398v-0.199l3.182,1.793h0.398l6.365-4.18l-0.395-0.598
			l-6.17,3.98l-3.381-1.99v-1.195L78.34,54.676z"/>
	</g>
	<rect x="61.232" y="64.623" fill="#4681A7" width="19.299" height="5.568"/>
	<polyline fill="#4681A7" points="80.133,75.959 88.688,67.408 80.332,58.854 	"/>
	<rect x="69.389" y="83.721" fill="#4681A7" width="19.299" height="5.57"/>
	<polyline fill="#4681A7" points="69.787,77.951 61.232,86.504 69.588,95.258 	"/>
	
		<line fill="none" stroke="#4681A7" stroke-width="0.75" stroke-dasharray="2.642,2.642" x1="74.959" y1="117.541" x2="74.959" y2="143.799"/>
	
		<line fill="none" stroke="#4681A7" stroke-width="0.75" stroke-dasharray="2.642,2.642" x1="74.959" y1="9.912" x2="74.959" y2="36.174"/>
	<g>
		<path fill="#4681A7" d="M112.359,59.846c0.199,0.199,0.996,0.598,2.189,0.598c1.191,0,1.789-0.199,2.188-0.398
			c-0.598-0.797-1.395-1.59-2.188-2.387C113.555,58.256,112.957,59.053,112.359,59.846 M114.549,61.637
			c-1.592,0-3.385-0.396-3.385-1.791c0-0.199,0-0.199,0.199-0.398c0.797-1.191,1.793-2.188,2.986-3.18
			c0.199-0.199,0.598-0.199,0.793,0c1.195,0.992,2.191,2.188,2.984,3.18c0,0,0.199,0.199,0.199,0.398
			c0,0.398-0.199,0.598-0.395,0.996C116.736,61.438,114.947,61.637,114.549,61.637"/>
		<path fill="#4681A7" d="M112.559,81.732h4.178l0.398-1.594c0,0-0.398-0.197-0.797-0.396c-0.398,0-0.996-0.199-1.59-0.199
			c-1.393,0-2.189,0.199-2.389,0.398L112.559,81.732z M117.135,82.924L117.135,82.924h-5.174c-0.199,0-0.598-0.199-0.598-0.398
			l-0.596-2.188c0,0,0,0,0-0.197c0-1.594,2.787-1.594,3.582-1.594c0.598,0,1.191,0,1.789,0.199c1.594,0.398,1.793,0.996,1.793,1.395
			c0,0,0,0,0,0.197l-0.398,2.188C117.533,82.725,117.334,82.924,117.135,82.924"/>
		<path fill="#4681A7" d="M109.377,75.564c-1.793,1.191-2.785,1.988-2.984,2.982c-0.199,0.797,0,1.791,0.199,2.986
			c0.594-1.592,1.59-1.99,3.777-2.787C109.971,77.752,109.576,76.557,109.377,75.564 M106.592,83.92
			c-0.199,0-0.398-0.199-0.598-0.398c-1.592-4.775-1.791-6.367,3.383-9.352c0.199,0,0.395-0.199,0.594,0
			c0.199,0,0.398,0.199,0.398,0.398c0.398,1.391,0.795,2.785,1.393,4.377c0,0.199,0,0.398,0,0.398c0,0.199-0.199,0.199-0.398,0.398
			l-0.596,0.199c-2.586,0.994-2.984,0.994-3.781,3.779C106.986,83.721,106.787,83.92,106.592,83.92L106.592,83.92z"/>
		<path fill="#4681A7" d="M118.725,78.746c0.199,0,0.199,0,0.398,0.199c1.791,0.797,2.787,0.996,3.582,2.588
			c0.793-2.787,0.398-3.781-2.986-5.969C119.52,76.756,119.123,77.752,118.725,78.746 M122.705,83.92L122.705,83.92
			c-0.199,0-0.398-0.199-0.596-0.398c-0.797-2.387-1.195-2.586-3.385-3.58c-0.199-0.199-0.598-0.199-0.992-0.398
			c-0.398-0.199-0.398-0.398-0.398-0.797c0.598-1.393,0.992-2.982,1.391-4.377c0-0.199,0.199-0.398,0.398-0.398
			c0.197,0,0.396,0,0.596,0c4.975,2.984,5.174,4.576,3.584,9.352C123.104,83.721,122.904,83.92,122.705,83.92"/>
		<path fill="#4681A7" d="M128.473,93.865c-0.199,0-0.398-0.199-0.598-0.398c-0.396-0.992-1.193-1.789-1.986-2.387
			c-0.199,0-0.199-0.199-0.199-0.199c-0.797-1.59-2.387-2.783-4.178-2.783c-0.996,0-1.992,0.396-2.986,0.994
			c-0.594,0.398-1.191,1.195-1.391,1.789c0,0.199-0.398,0.398-0.598,0.398s-0.398-0.199-0.598-0.398
			c-0.398-1.191-1.789-2.188-2.982-2.188c-0.598,0-1.195,0.199-1.793,0.598c-0.199,0.199-0.396,0.398-0.596,0.598
			s-0.199,0.199-0.398,0.199l0,0c-0.199,0-0.398,0-0.398-0.199c-0.793-0.996-1.988-1.592-3.379-1.592
			c-2.389,0-4.578,1.99-4.578,4.572c0,0.199,0,0.199,0,0.398c0,0.398-0.199,0.598-0.594,0.598c-0.398,0-0.598-0.199-0.598-0.598
			c0-0.199,0-0.398,0-0.398c0-3.18,2.584-5.568,5.57-5.568c1.391,0,2.785,0.598,3.777,1.393c0.199-0.197,0.398-0.197,0.398-0.396
			c0.795-0.398,1.592-0.598,2.389-0.598c1.393,0,2.783,0.797,3.58,1.99c0.398-0.398,0.797-0.996,1.195-1.193
			c0.992-0.797,2.385-1.195,3.58-1.195c2.189,0,4.178,1.195,5.174,3.186c0.992,0.594,1.986,1.59,2.385,2.781
			c0.199,0.398,0,0.598-0.398,0.797C128.473,93.865,128.473,93.865,128.473,93.865"/>
		<path fill="#4681A7" d="M112.758,87.699c1.393,0,2.783,0.795,3.58,1.99c0.199-0.398,0.598-0.598,0.797-0.996
			c-0.797-1.791-1.395-4.379-1.594-5.57h-2.584c-0.199,0.996-0.598,2.984-1.395,4.775C112.16,87.699,112.559,87.699,112.758,87.699
			 M116.338,91.279L116.338,91.279c-0.199,0-0.398-0.199-0.598-0.398c-0.398-1.191-1.787-2.188-2.982-2.188
			c-0.598,0-1.195,0.199-1.793,0.598c-0.197,0.199-0.596,0.199-0.795,0s-0.199-0.398,0-0.797c1.393-2.189,1.99-6.168,1.99-6.367
			c0-0.195,0.199-0.594,0.598-0.594l0,0h3.58c0.199,0,0.398,0,0.398,0.199s0.199,0.199,0.199,0.395c0,0.398,0.797,4.178,1.59,6.168
			c0.199,0.199,0,0.598-0.199,0.797c-0.594,0.398-1.191,1.195-1.391,1.789C116.936,91.279,116.736,91.279,116.338,91.279"/>
		<path fill="#4681A7" d="M117.135,82.924c-0.398,0-0.598-0.199-0.598-0.598l0,0c0-0.395,0.199-0.594,0.598-0.594
			s0.598,0.199,0.598,0.594C117.732,82.725,117.334,82.924,117.135,82.924"/>
		<path fill="#4681A7" d="M102.014,86.902c-0.199,0-0.199,0-0.398,0c-0.195-0.199-0.395-0.598-0.195-0.795
			c0.793-1.195,1.189-2.188,1.189-2.188c0.199-0.398,0.398-0.398,0.797-0.398c0.398,0.199,0.398,0.398,0.398,0.793
			c0,0-0.398,1.195-1.393,2.389C102.412,86.703,102.213,86.902,102.014,86.902"/>
		<path fill="#4681A7" d="M126.482,88.098c-0.195,0-0.195,0-0.395-0.199c-0.797-0.797-1.594-2.986-1.594-3.385
			c0-0.395,0-0.594,0.398-0.793c0.398,0,0.598,0,0.797,0.398c0.199,0.992,0.793,2.385,1.191,2.783c0.199,0.199,0.199,0.598,0,0.797
			C126.881,88.098,126.682,88.098,126.482,88.098"/>
		<path fill="#4681A7" d="M119.52,75.959l-1.193-0.395c1.791-4.975,1.393-8.754,0.598-11.141c-0.797-2.588-2.188-3.98-2.188-3.98
			l0.797-0.797c0,0,1.391,1.594,2.385,4.379C120.914,66.412,121.512,70.59,119.52,75.959"/>
		<path fill="#4681A7" d="M109.377,75.959c-1.992-5.17-1.395-9.348-0.598-11.934c0.996-2.785,2.385-4.379,2.385-4.379l0.797,0.797
			l-0.398-0.398l0.398,0.398c0,0-1.393,1.393-2.189,3.98c-0.793,2.387-1.391,6.166,0.598,11.141L109.377,75.959z"/>
		<path fill="#4681A7" d="M114.549,66.213c-0.598,0-1.193,0.199-1.592,0.598s-0.598,0.992-0.598,1.59
			c0,1.193,0.996,2.189,2.189,2.189v0.598V70.59c0.594,0,1.191-0.199,1.59-0.598s0.598-0.994,0.598-1.592
			C116.736,67.209,115.74,66.213,114.549,66.213 M114.549,71.783L114.549,71.783c-1.791,0-3.385-1.592-3.385-3.383
			c0-0.992,0.398-1.789,0.996-2.387s1.395-0.992,2.389-0.992c1.789,0,3.383,1.59,3.383,3.379c0,0.996-0.398,1.791-0.996,2.389
			S115.541,71.783,114.549,71.783"/>
		<path fill="#4681A7" d="M45.516,72.381c1.592,0,2.787,1.195,2.787,2.785s-1.195,2.785-2.787,2.785s-2.785-1.195-2.785-2.785
			S43.924,72.381,45.516,72.381 M45.516,79.344c2.389,0,4.377-1.99,4.377-4.178s-1.988-4.178-4.377-4.178s-4.377,1.99-4.377,4.178
			S43.127,79.344,45.516,79.344"/>
		<path fill="#4681A7" d="M42.135,80.936c0.396,0.398,0.596,0.797,0.992,1.191c0.598-0.395,1.395-0.395,2.189-0.395
			c2.986,0,5.57,2.387,5.57,5.369c0,0.398,0,0.598,0,0.996h1.393c0-0.398,0-0.598,0-0.996c0-3.779-3.182-6.764-6.963-6.764
			C44.322,80.139,43.127,80.338,42.135,80.936"/>
		<path fill="#4681A7" d="M42.332,87.898h1.393c0-4.775-3.977-8.555-8.754-8.555c-4.773,0-8.752,3.779-8.752,8.555h1.393
			c0-3.979,3.184-7.162,7.359-7.162C38.951,80.736,42.332,83.92,42.332,87.898"/>
		<path fill="#4681A7" d="M34.971,69.396c1.99,0,3.781,1.592,3.781,3.582c0,1.988-1.592,3.578-3.781,3.578
			c-1.988,0-3.777-1.59-3.777-3.578C31.193,70.988,32.982,69.396,34.971,69.396 M34.971,77.951c2.787,0,5.174-2.188,5.174-4.973
			c0-2.787-2.387-4.977-5.174-4.977c-2.783,0-5.172,2.189-5.172,4.977C29.799,75.764,32.188,77.951,34.971,77.951"/>
		<path fill="#4681A7" d="M19.057,87.898c0-0.398,0-0.598,0-0.996c0-2.982,2.586-5.369,5.57-5.369c0.797,0,1.592,0.199,2.188,0.398
			c0.199-0.398,0.598-0.797,0.996-1.195c-0.996-0.398-1.99-0.795-3.184-0.795c-3.779,0-6.963,2.982-6.963,6.762
			c0,0.398,0,0.598,0,0.996L19.057,87.898L19.057,87.898z"/>
		<path fill="#4681A7" d="M24.428,72.381c1.592,0,2.785,1.195,2.785,2.785s-1.193,2.785-2.785,2.785
			c-1.59,0-2.785-1.195-2.785-2.785S22.838,72.381,24.428,72.381 M24.428,79.344c2.387,0,4.377-1.99,4.377-4.178
			s-1.99-4.178-4.377-4.178s-4.375,1.99-4.375,4.178S22.041,79.344,24.428,79.344"/>
		<path fill="none" stroke="#4681A7" stroke-width="0.402" d="M86.496,103.016c-0.596-0.197-1.193-0.396-1.986-0.396
			c-3.184,0-5.771,2.586-5.771,5.77c0,3.182,2.588,5.77,5.771,5.77c3.182,0,5.766-2.588,5.766-5.77c0-0.797-0.199-1.391-0.395-1.988
			l-5.371,1.988L86.496,103.016z"/>
		<path fill="none" stroke="#4681A7" stroke-width="0.402" d="M88.488,101.225l-1.793,4.977l4.975-1.791
			C91.67,104.41,91.072,102.021,88.488,101.225z"/>
		<path fill="#4681A7" d="M67.199,104.609l0.199-0.199l-0.396-0.598l-0.598,0.398c-0.596-0.199-0.994-0.199-1.193,0
			c-0.197,0.199-0.396,0.398-0.396,0.398c0,0.398,0.199,0.596,0.396,0.994c0,0,0.199,0.199,0.199,0.398l0,0
			c-0.199,0.199-0.795,0.199-1.193-0.199c-0.199-0.199-0.398-0.199-0.398-0.398l-0.598,0.398c0,0.199,0.199,0.199,0.398,0.398
			L63.42,106.4l0.398,0.598l0.598-0.398c0.398,0.199,0.598,0.199,0.994,0.199c0.199,0,0.598,0,0.795-0.199
			c0.199-0.199,0.398-0.398,0.398-0.598c0-0.398-0.199-0.598-0.398-0.994c-0.199-0.199-0.199-0.199-0.199-0.199
			s0.398-0.199,0.797,0.199c0.199,0.197,0.396,0.396,0.396,0.396l0.598-0.396C67.398,104.809,67.398,104.609,67.199,104.609
			 M64.018,108.389l-0.199,0.398v4.178l-3.582-1.99V106.6l6.566-4.379l3.58,1.99L64.018,108.389z M57.055,104.41l5.77-3.58
			l2.785,1.59l-5.572,3.582L57.055,104.41z M73.766,106.799l-5.77,3.578l-2.982-1.789l5.768-3.58L73.766,106.799z M67.996,113.164
			h0.396l6.367-4.178l-0.398-0.598l-6.168,3.979l-3.379-1.99v-1.191l3.182,1.789h0.396l6.367-4.176v-0.598l-3.184-1.791l0,0v-0.598
			l-4.377-2.389h-0.396l-0.398,0.398l-3.383-1.789h-0.396l-6.365,4.178v0.598l3.381,1.99v1.191l-2.982-1.789l-0.398,0.598
			l3.381,1.988v1.191l-2.982-1.789l-0.398,0.598l3.381,1.988v0.596l0.197,0.398l4.18,2.389l0.598-0.398v-0.199l3.182,1.789h0.396
			l6.367-4.176l-0.396-0.598l-6.168,3.98l-3.381-1.99v-1.195L67.996,113.164z"/>
	</g>
</g>
</svg>
