<?xml version="1.0" encoding="iso-8859-1"?>
<!-- Generator: Adobe Illustrator 17.0.0, SVG Export Plug-In . SVG Version: 6.00 Build 0)  -->
<!DOCTYPE svg PUBLIC "-//W3C//DTD SVG 1.1//EN" "http://www.w3.org/Graphics/SVG/1.1/DTD/svg11.dtd">
<svg version="1.1" id="Layer_1" xmlns="http://www.w3.org/2000/svg" xmlns:xlink="http://www.w3.org/1999/xlink" x="0px" y="0px"
	 width="95px" height="80px" viewBox="0 0 295.213 253.155" style="enable-background:new 0 0 295.213 253.155;"
	 xml:space="preserve">
<g>
	<path style="fill:#76B82A;" d="M228.389,244.726c0,3.223,1.449,4.844,3.547,4.844c1.659,0,2.307-0.935,2.517-1.278h0.038v1.049
		h2.193v-13.653l-2.403,0.209v4.329c-0.343-0.21-0.858-0.401-1.62-0.401C230.411,239.825,228.389,241.484,228.389,244.726
		L228.389,244.726z M232.642,247.51c-1.03,0-1.793-0.801-1.793-2.898c0-1.926,0.896-2.842,2.174-2.842
		c0.572,0,0.972,0.153,1.258,0.344v4.767C233.957,247.186,233.442,247.51,232.642,247.51L232.642,247.51z M246.304,243.544
		c0-2.441-1.22-3.719-3.222-3.719c-2.308,0-4.234,1.507-4.234,4.806c0,3.528,1.793,4.939,4.31,4.939c2.193,0,3.013-0.82,3.299-1.087
		l-0.553-1.678c-0.248,0.19-1.011,0.743-2.212,0.743c-1.526,0-2.384-0.629-2.517-2.193h4.977
		C246.228,244.917,246.304,244.383,246.304,243.544L246.304,243.544z M242.853,241.694c0.839,0,1.316,0.629,1.316,1.621
		c0,0.134,0,0.267-0.019,0.439h-2.994C241.213,242.381,241.899,241.694,242.853,241.694L242.853,241.694z M256.05,240.054h-2.383
		l-1.812,6.179h-0.038l-1.869-6.179h-2.593l3.356,9.287h1.983L256.05,240.054L256.05,240.054z M264.337,243.544
		c0-2.441-1.22-3.719-3.222-3.719c-2.308,0-4.234,1.507-4.234,4.806c0,3.528,1.793,4.939,4.31,4.939c2.193,0,3.013-0.82,3.299-1.087
		l-0.553-1.678c-0.248,0.19-1.011,0.743-2.212,0.743c-1.526,0-2.384-0.629-2.517-2.193h4.977
		C264.261,244.917,264.337,244.383,264.337,243.544L264.337,243.544z M260.886,241.694c0.839,0,1.316,0.629,1.316,1.621
		c0,0.134,0,0.267-0.02,0.439h-2.993C259.246,242.381,259.932,241.694,260.886,241.694L260.886,241.694z M268.99,235.688
		l-2.403,0.209v10.793c0,2.098,0.935,2.822,2.479,2.822c0.858,0,1.392-0.247,1.602-0.362l-0.153-1.678
		c-0.095,0.038-0.362,0.134-0.705,0.134c-0.591,0-0.82-0.267-0.82-1.259V235.688L268.99,235.688z M280.301,244.688
		c0-3.375-1.83-4.863-4.195-4.863c-2.25,0-4.329,1.583-4.329,4.863c0,3.375,1.85,4.882,4.196,4.882
		C278.223,249.57,280.301,247.968,280.301,244.688L280.301,244.688z M277.841,244.688c0,2.021-0.801,2.822-1.792,2.822
		c-0.992,0-1.812-0.763-1.812-2.822c0-2.002,0.82-2.803,1.812-2.803C277.021,241.885,277.841,242.629,277.841,244.688
		L277.841,244.688z M290.722,244.478c0-3.165-1.411-4.653-3.451-4.653c-1.469,0-2.308,0.82-2.594,1.259h-0.038v-1.03h-2.212v13.101
		h2.403v-3.967c0.343,0.191,0.877,0.363,1.602,0.363C289.006,249.551,290.722,247.834,290.722,244.478L290.722,244.478z
		 M286.375,241.885c1.144,0,1.887,0.744,1.887,2.708c0,2.154-0.82,3.032-2.269,3.032c-0.496,0-0.877-0.134-1.163-0.305v-4.901
		C285.154,242.152,285.669,241.885,286.375,241.885L286.375,241.885z M295.213,248.12c0-0.896-0.572-1.468-1.449-1.468
		c-0.858,0-1.431,0.572-1.431,1.468c0,0.897,0.573,1.45,1.431,1.45C294.641,249.57,295.213,249.017,295.213,248.12L295.213,248.12z"
		/>
	<path style="fill:#D3033B;" d="M161.092,240.588c-0.305-0.229-1.068-0.763-2.536-0.763c-2.364,0-4.767,1.488-4.767,4.787
		c0,3.642,1.792,4.958,4.348,4.958c1.849,0,2.574-0.63,2.974-0.992l-0.686-1.697c-0.362,0.267-0.915,0.629-1.926,0.629
		c-1.297,0-2.25-0.763-2.25-2.898c0-1.964,1.087-2.746,2.517-2.746c0.858,0,1.411,0.4,1.64,0.591L161.092,240.588L161.092,240.588z
		 M170.882,244.688c0-3.375-1.83-4.863-4.195-4.863c-2.25,0-4.329,1.583-4.329,4.863c0,3.375,1.85,4.882,4.196,4.882
		C168.804,249.57,170.882,247.968,170.882,244.688L170.882,244.688z M168.422,244.688c0,2.021-0.801,2.822-1.792,2.822
		c-0.992,0-1.812-0.763-1.812-2.822c0-2.002,0.82-2.803,1.812-2.803C167.602,241.885,168.422,242.629,168.422,244.688
		L168.422,244.688z M180.998,249.341v-5.892c0-2.308-1.068-3.624-3.051-3.624c-1.525,0-2.345,0.801-2.689,1.259h-0.038v-1.03h-2.212
		v9.287h2.403v-6.808c0.362-0.324,0.915-0.648,1.697-0.648c1.03,0,1.487,0.591,1.487,1.964v5.492H180.998L180.998,249.341z
		 M191.503,249.341v-5.892c0-2.308-1.068-3.624-3.051-3.624c-1.525,0-2.345,0.801-2.689,1.259h-0.038v-1.03h-2.212v9.287h2.403
		v-6.808c0.362-0.324,0.915-0.648,1.697-0.648c1.03,0,1.487,0.591,1.487,1.964v5.492H191.503L191.503,249.341z M201.057,243.544
		c0-2.441-1.221-3.719-3.223-3.719c-2.307,0-4.233,1.507-4.233,4.806c0,3.528,1.792,4.939,4.309,4.939
		c2.193,0,3.013-0.82,3.299-1.087l-0.553-1.678c-0.248,0.19-1.01,0.743-2.212,0.743c-1.525,0-2.383-0.629-2.517-2.193h4.977
		C200.98,244.917,201.057,244.383,201.057,243.544L201.057,243.544z M197.605,241.694c0.839,0,1.316,0.629,1.316,1.621
		c0,0.134,0,0.267-0.019,0.439h-2.994C195.965,242.381,196.652,241.694,197.605,241.694L197.605,241.694z M210.194,240.588
		c-0.305-0.229-1.068-0.763-2.536-0.763c-2.364,0-4.767,1.488-4.767,4.787c0,3.642,1.792,4.958,4.348,4.958
		c1.849,0,2.574-0.63,2.974-0.992l-0.686-1.697c-0.363,0.267-0.916,0.629-1.926,0.629c-1.297,0-2.25-0.763-2.25-2.898
		c0-1.964,1.087-2.746,2.517-2.746c0.858,0,1.411,0.4,1.64,0.591L210.194,240.588L210.194,240.588z M217.62,240.054h-2.346v-2.555
		h-2.136l-0.267,2.593l-1.258,0.229v1.64h1.258v3.986c0,2.631,0.935,3.585,3.013,3.585c1.049,0,1.583-0.325,1.774-0.42l-0.172-1.773
		c-0.152,0.057-0.534,0.171-0.972,0.171c-0.878,0-1.24-0.438-1.24-1.792v-3.757h2.136L217.62,240.054L217.62,240.054z
		 M222.421,248.12c0-0.896-0.572-1.468-1.449-1.468c-0.858,0-1.43,0.572-1.43,1.468c0,0.897,0.572,1.45,1.43,1.45
		C221.849,249.57,222.421,249.017,222.421,248.12L222.421,248.12z"/>
	<path style="fill:#00B0DB;" d="M92.522,240.054h-2.403v9.287h2.403V240.054L92.522,240.054z M92.713,237.099
		c0-0.859-0.572-1.392-1.392-1.392c-0.839,0-1.411,0.533-1.411,1.392c0,0.839,0.572,1.373,1.411,1.373
		C92.141,238.472,92.713,237.938,92.713,237.099L92.713,237.099z M103.063,249.341v-5.892c0-2.308-1.068-3.624-3.051-3.624
		c-1.525,0-2.345,0.801-2.689,1.259h-0.038v-1.03h-2.212v9.287h2.403v-6.808c0.362-0.324,0.915-0.648,1.697-0.648
		c1.03,0,1.487,0.591,1.487,1.964v5.492H103.063L103.063,249.341z M111.158,240.664c-0.324-0.247-1.087-0.839-2.613-0.839
		c-1.906,0-3.318,1.03-3.318,2.67c0,1.468,0.82,2.231,2.098,2.899l0.553,0.286c0.973,0.495,1.354,0.686,1.354,1.239
		c0,0.42-0.534,0.687-1.354,0.687c-1.03,0-1.792-0.611-2.155-0.973l-0.743,1.945c0.438,0.381,1.315,0.992,2.974,0.992
		c2.289,0,3.509-1.125,3.509-2.842c0-1.506-0.934-2.269-2.345-2.955l-0.553-0.267c-0.859-0.42-1.202-0.649-1.202-1.125
		c0-0.363,0.439-0.649,1.24-0.649c0.972,0,1.659,0.496,1.926,0.687L111.158,240.664L111.158,240.664z M121.789,244.478
		c0-3.165-1.411-4.653-3.452-4.653c-1.468,0-2.307,0.82-2.593,1.259h-0.038v-1.03h-2.212v13.101h2.402v-3.967
		c0.344,0.191,0.878,0.363,1.602,0.363C120.072,249.551,121.789,247.834,121.789,244.478L121.789,244.478z M117.441,241.885
		c1.144,0,1.888,0.744,1.888,2.708c0,2.154-0.82,3.032-2.269,3.032c-0.496,0-0.878-0.134-1.164-0.305v-4.901
		C116.221,242.152,116.735,241.885,117.441,241.885L117.441,241.885z M126.336,240.054h-2.402v9.287h2.402V240.054L126.336,240.054z
		 M126.527,237.099c0-0.859-0.572-1.392-1.392-1.392c-0.839,0-1.411,0.533-1.411,1.392c0,0.839,0.572,1.373,1.411,1.373
		C125.955,238.472,126.527,237.938,126.527,237.099L126.527,237.099z M134.208,239.959c-0.095-0.019-0.42-0.076-0.763-0.076
		c-1.239,0-1.888,0.629-2.307,1.468H131.1v-1.297h-2.212v9.287h2.402v-6.445c0.325-0.496,0.973-0.954,2.041-0.954
		c0.381,0,0.629,0.076,0.705,0.115L134.208,239.959L134.208,239.959z M142.829,243.544c0-2.441-1.221-3.719-3.223-3.719
		c-2.307,0-4.233,1.507-4.233,4.806c0,3.528,1.792,4.939,4.309,4.939c2.193,0,3.013-0.82,3.299-1.087l-0.553-1.678
		c-0.248,0.19-1.01,0.743-2.212,0.743c-1.525,0-2.383-0.629-2.517-2.193h4.977C142.753,244.917,142.829,244.383,142.829,243.544
		L142.829,243.544z M139.377,241.694c0.839,0,1.316,0.629,1.316,1.621c0,0.134,0,0.267-0.019,0.439h-2.994
		C137.737,242.381,138.424,241.694,139.377,241.694L139.377,241.694z M147.84,248.12c0-0.896-0.572-1.468-1.449-1.468
		c-0.858,0-1.431,0.572-1.431,1.468c0,0.897,0.573,1.45,1.431,1.45C147.268,249.57,147.84,249.017,147.84,248.12L147.84,248.12z"/>
	<path style="fill:none;stroke:#7F0D2D;stroke-width:3;stroke-linejoin:round;" d="M26.729,93.516
		c0,6.967-5.649,12.614-12.615,12.614c-6.968,0-12.615-5.647-12.615-12.614c0-6.969,5.646-12.615,12.615-12.615
		C21.08,80.901,26.729,86.547,26.729,93.516L26.729,93.516z M14.115,106.944c0,26.313,43.851,30.52,43.851,54.803l0.212,87.525"/>
	<path style="fill:none;stroke:#D3033B;stroke-width:3;stroke-linejoin:round;" d="M36.634,7.841v99.307
		c0,25.945,26.7,30.317,26.7,54.599l0.129,87.525 M39.772,4.654c0,1.743-1.411,3.153-3.154,3.153c-1.741,0-3.153-1.41-3.153-3.153
		c0-1.741,1.412-3.154,3.153-3.154C38.361,1.5,39.772,2.913,39.772,4.654L39.772,4.654z"/>
	<path style="fill:none;stroke:#FBBA00;stroke-width:3;stroke-linejoin:round;" d="M79.683,51.107v55.924
		c0,26.107-10.935,30.434-10.935,54.716l0.052,87.526 M85.991,44.508c0,3.484-2.824,6.308-6.308,6.308
		c-3.483,0-6.307-2.824-6.307-6.308c0-3.483,2.824-6.307,6.307-6.307C83.167,38.201,85.991,41.025,85.991,44.508L85.991,44.508z"/>
	<path style="fill:none;stroke:#76B82A;stroke-width:3;stroke-linejoin:round;" d="M120.002,88.81v18.374
		c0,26.352-45.926,30.281-45.926,54.563l-0.045,87.526 M129.463,78.943c0,5.225-4.234,9.46-9.459,9.46
		c-5.226,0-9.463-4.235-9.463-9.46c0-5.226,4.237-9.46,9.463-9.46C125.229,69.483,129.463,73.717,129.463,78.943L129.463,78.943z"/>
	<path style="fill:none;stroke:#00B0DB;stroke-width:3;stroke-linejoin:round;" d="M139.888,68.947v38.237
		c0,26.729-60.444,30.281-60.444,54.563l-0.128,87.525 M143.042,65.51c0,1.741-1.412,3.153-3.151,3.153
		c-1.741,0-3.156-1.412-3.156-3.153c0-1.743,1.415-3.155,3.156-3.155C141.63,62.355,143.042,63.767,143.042,65.51L143.042,65.51z"/>
	<path style="fill:#00B0DB;" d="M94.484,203.96h-4.41v17.045h4.41V203.96L94.484,203.96z M94.834,198.535
		c0-1.575-1.05-2.555-2.555-2.555c-1.54,0-2.59,0.98-2.59,2.555c0,1.54,1.05,2.52,2.59,2.52
		C93.784,201.055,94.834,200.075,94.834,198.535L94.834,198.535z M113.629,221.005V210.19c0-4.235-1.96-6.65-5.6-6.65
		c-2.8,0-4.305,1.47-4.935,2.31h-0.07v-1.89h-4.06v17.045h4.41V208.51c0.665-0.595,1.68-1.19,3.115-1.19
		c1.89,0,2.73,1.085,2.73,3.605v10.08H113.629L113.629,221.005z M145.269,221.005l-8.855-24.15h-3.675l-8.89,24.15h4.69l2.1-6.51
		h7.455l2.1,6.51H145.269L145.269,221.005z M137.079,211.135h-5.39l2.66-8.26h0.07L137.079,211.135L137.079,211.135z
		 M157.301,203.96h-4.235v-1.54c0-2.17,0.805-2.94,2.38-2.94c0.77,0,1.47,0.315,1.68,0.42l0.7-3.5
		c-0.315-0.175-1.225-0.63-2.87-0.63c-4.025,0-6.3,2.31-6.3,6.79v1.47l-2.31,0.42v3.01h2.31v13.545h4.41V207.46h3.815
		L157.301,203.96L157.301,203.96z M169.89,203.785c-0.175-0.035-0.77-0.14-1.4-0.14c-2.275,0-3.465,1.155-4.235,2.695h-0.07v-2.38
		h-4.06v17.045h4.41v-11.83c0.595-0.91,1.785-1.75,3.745-1.75c0.7,0,1.155,0.14,1.295,0.21L169.89,203.785L169.89,203.785z
		 M177.173,203.96h-4.41v17.045h4.41V203.96L177.173,203.96z M177.523,198.535c0-1.575-1.05-2.555-2.555-2.555
		c-1.54,0-2.59,0.98-2.59,2.555c0,1.54,1.05,2.52,2.59,2.52C176.473,201.055,177.523,200.075,177.523,198.535L177.523,198.535z
		 M194.183,204.94c-0.56-0.42-1.96-1.4-4.655-1.4c-4.34,0-8.75,2.73-8.75,8.785c0,6.685,3.29,9.1,7.98,9.1
		c3.395,0,4.725-1.155,5.46-1.82l-1.26-3.115c-0.665,0.49-1.68,1.155-3.535,1.155c-2.38,0-4.13-1.4-4.13-5.32
		c0-3.605,1.995-5.04,4.62-5.04c1.575,0,2.59,0.735,3.01,1.085L194.183,204.94L194.183,204.94z M196.64,216.315
		c0,3.08,1.96,5.11,4.76,5.11c2.415,0,3.465-1.26,4.06-2.31h0.07c0,0.665,0.07,1.4,0.105,1.89h4.06
		c-0.14-1.085-0.28-2.625-0.28-4.585v-5.74c0-4.9-2.24-7.14-6.23-7.14c-3.5,0-5.495,1.68-6.3,2.52l1.365,2.8
		c0.595-0.56,1.925-1.645,4.025-1.645c1.925,0,2.87,1.12,2.87,3.325v0.595h-0.7C200.07,211.135,196.64,212.745,196.64,216.315
		L196.64,216.315z M202.66,217.995c-1.05,0-1.855-0.875-1.855-2.1c0-1.365,1.19-1.96,3.465-2.065l0.875-0.035v3.15
		C204.655,217.47,203.92,217.995,202.66,217.995L202.66,217.995z"/>
	<path style="fill:#58666D;" d="M114.714,162.355h-4.725l-7.105,17.605h-0.07l-7.035-17.605h-5.145v24.15h4.515V172.05h0.07
		l5.81,14.455h3.29l5.81-14.455h0.07v14.455h4.515V162.355L114.714,162.355z M118.966,181.815c0,3.08,1.96,5.11,4.76,5.11
		c2.415,0,3.465-1.26,4.06-2.31h0.07c0,0.665,0.07,1.4,0.105,1.89h4.06c-0.14-1.085-0.28-2.625-0.28-4.585v-5.74
		c0-4.9-2.24-7.14-6.23-7.14c-3.5,0-5.495,1.68-6.3,2.52l1.365,2.8c0.595-0.56,1.925-1.645,4.025-1.645
		c1.925,0,2.87,1.12,2.87,3.325v0.595h-0.7C122.396,176.635,118.966,178.245,118.966,181.815L118.966,181.815z M124.986,183.495
		c-1.05,0-1.855-0.875-1.855-2.1c0-1.365,1.19-1.96,3.465-2.065l0.875-0.035v3.15C126.981,182.97,126.246,183.495,124.986,183.495
		L124.986,183.495z M150.75,169.46h-4.9l-4.13,6.615h-1.155v-14.63l-4.41,0.385v24.675h4.41v-6.86h1.225l4.06,6.86h5.32
		l-5.775-9.205L150.75,169.46L150.75,169.46z M166.097,175.865c0-4.48-2.24-6.825-5.915-6.825c-4.235,0-7.77,2.765-7.77,8.82
		c0,6.475,3.29,9.065,7.91,9.065c4.025,0,5.53-1.505,6.055-1.995l-1.015-3.08c-0.455,0.35-1.855,1.365-4.06,1.365
		c-2.8,0-4.375-1.155-4.62-4.025h9.135C165.957,178.385,166.097,177.405,166.097,175.865L166.097,175.865z M159.762,172.47
		c1.54,0,2.415,1.155,2.415,2.975c0,0.245,0,0.49-0.035,0.805h-5.495C156.752,173.73,158.012,172.47,159.762,172.47L159.762,172.47z
		 M179.704,174.01h-9.765v3.5h9.765V174.01L179.704,174.01z M185.391,183.11h-2.905v3.395h10.5v-3.395h-2.905v-17.36h2.87v-3.395
		h-10.43v3.395h2.87V183.11L185.391,183.11z M214.917,162.355h-19.04v3.85h7.07v20.3h4.69v-20.3h7L214.917,162.355L214.917,162.355z
		"/>
</g>
</svg>
