<?xml version="1.0" encoding="utf-8"?>
<!-- Generator: Adobe Illustrator 16.0.0, SVG Export Plug-In . SVG Version: 6.00 Build 0)  -->
<!DOCTYPE svg PUBLIC "-//W3C//DTD SVG 1.1//EN" "http://www.w3.org/Graphics/SVG/1.1/DTD/svg11.dtd">
<svg version="1.1" id="Layer_1" xmlns="http://www.w3.org/2000/svg" xmlns:xlink="http://www.w3.org/1999/xlink" x="0px" y="0px"
	 width="100px" height="100px" viewBox="0 0 100 100" enable-background="new 0 0 100 100" xml:space="preserve">
<g>
	<g>
		<path fill="none" stroke="#4681A7" d="M50.091,76.317c14.316,0,25.977-11.59,25.977-25.977c0-14.318-11.59-25.979-25.977-25.979
			S24.112,35.954,24.112,50.341S35.704,76.317,50.091,76.317z"/>
	</g>
	<path fill="none" stroke="#4681A7" stroke-width="0.5" stroke-dasharray="4.084,4.084" d="M67.989,62.704"/>
	<path fill="none" stroke="#4681A7" stroke-width="0.5" stroke-dasharray="4.084,4.084" d="M32.784,62.704"/>
	<g>
		<path fill="#4681A7" d="M52.782,56.54c-0.275,0-0.545,0.27-0.545,0.541c0,0.27,0.27,0.539,0.545,0.539
			c0.27,0,0.539-0.27,0.539-0.539C53.321,56.63,53.14,56.54,52.782,56.54"/>
		<path fill="none" stroke="#FFFFFF" stroke-width="0.139" stroke-miterlimit="10" d="M52.782,56.54
			c-0.275,0-0.545,0.27-0.545,0.541c0,0.27,0.27,0.539,0.545,0.539c0.27,0,0.539-0.27,0.539-0.539
			C53.321,56.63,53.14,56.54,52.782,56.54z"/>
		<path fill="#4681A7" d="M55.399,57.712h-5.236c-0.447,0-0.811-0.361-0.811-0.812v-0.809h6.766v0.809
			C56.208,57.442,55.841,57.712,55.399,57.712 M56.208,55.64h-6.766v-9.561h6.766V55.64z M50.163,44.366h5.236
			c0.441,0,0.809,0.361,0.809,0.811v0.27h-6.766v-0.27C49.442,44.817,49.802,44.366,50.163,44.366 M55.399,43.462h-5.236
			c-0.9,0-1.711,0.727-1.711,1.715v11.812c0,0.9,0.721,1.711,1.711,1.711h5.236c0.893,0,1.711-0.719,1.711-1.711V45.177
			C57.11,44.188,56.388,43.462,55.399,43.462"/>
		<path fill="none" stroke="#FFFFFF" stroke-width="0.139" stroke-miterlimit="10" d="M55.399,57.712h-5.236
			c-0.447,0-0.811-0.361-0.811-0.812v-0.809h6.766v0.809C56.208,57.442,55.841,57.712,55.399,57.712z M56.208,55.64h-6.766v-9.561
			h6.766V55.64z M50.163,44.366h5.236c0.441,0,0.809,0.361,0.809,0.811v0.27h-6.766v-0.27
			C49.442,44.817,49.802,44.366,50.163,44.366z M55.399,43.462h-5.236c-0.9,0-1.711,0.727-1.711,1.715v11.812
			c0,0.9,0.721,1.711,1.711,1.711h5.236c0.893,0,1.711-0.719,1.711-1.711V45.177C57.11,44.188,56.388,43.462,55.399,43.462z"/>
		<path fill="#4681A7" d="M43.132,40.759c0.182,0,0.361-0.18,0.361-0.363c0-0.178-0.18-0.359-0.361-0.359
			c-0.178,0-0.361,0.182-0.361,0.359C42.771,40.579,42.954,40.759,43.132,40.759"/>
		<path fill="none" stroke="#FFFFFF" stroke-width="0.139" stroke-miterlimit="10" d="M43.132,40.759
			c0.182,0,0.361-0.18,0.361-0.363c0-0.178-0.18-0.359-0.361-0.359c-0.178,0-0.361,0.182-0.361,0.359
			C42.771,40.579,42.954,40.759,43.132,40.759z"/>
		<path fill="#4681A7" d="M33.122,39.315h19.93c0.445,0,0.809,0.361,0.809,0.811v1.172H32.399v-1.172
			C32.399,39.587,32.761,39.315,33.122,39.315 M32.399,41.837H53.86v0.725h0.902v-2.525c0-0.898-0.721-1.711-1.711-1.711h-19.93
			c-0.9,0-1.711,0.721-1.711,1.711V53.11h0.898L32.399,41.837L32.399,41.837z"/>
		<path fill="none" stroke="#FFFFFF" stroke-width="0.139" stroke-miterlimit="10" d="M33.122,39.315h19.93
			c0.445,0,0.809,0.361,0.809,0.811v1.172H32.399v-1.172C32.399,39.587,32.761,39.315,33.122,39.315z M32.399,41.837H53.86v0.725
			h0.902v-2.525c0-0.898-0.721-1.711-1.711-1.711h-19.93c-0.9,0-1.711,0.721-1.711,1.711V53.11h0.898L32.399,41.837L32.399,41.837z"
			/>
		<path fill="#4681A7" d="M45.294,55.364H40.97v-0.27h4.324V55.364z M28.704,55.817c0,0.9,0.723,1.711,1.713,1.711h17.225V56.63
			H30.417c-0.451,0-0.811-0.367-0.811-0.812v-0.812h10.73v0.904h5.5v-0.904h1.713v-0.9H28.614v1.713H28.704z"/>
		<path fill="none" stroke="#FFFFFF" stroke-width="0.139" stroke-miterlimit="10" d="M45.294,55.364H40.97v-0.27h4.324V55.364z
			 M28.704,55.817c0,0.9,0.723,1.711,1.713,1.711h17.225V56.63H30.417c-0.451,0-0.811-0.367-0.811-0.812v-0.812h10.73v0.904h5.5
			v-0.904h1.713v-0.9H28.614v1.713H28.704z"/>
		<path fill="none" stroke="#4681A7" stroke-width="0.5" stroke-linejoin="round" stroke-miterlimit="10" d="M71.806,54.825
			l-0.633,0.629 M69.731,58.341l-1.539-1.441l3.613-3.52l1.527,1.445L69.731,58.341z M67.026,54.282h-2.432
			c-1.178,0-1.178-1.441,0-1.441h1.617c0.27,0,0.727-0.633,1.084-0.633h1.537c0.359,0,0.898,0.361,1.168,0.633
			c0.449,0.449,1.172,1.172,1.172,1.172 M68.833,56.263c-0.094-0.084-0.277-0.262-0.641-0.262H64.05
			c-0.357,0-2.166-1.809-2.436-2.078c-0.18-0.27-1.258-1.715-1.535-2.344c0.184-0.273,0.633-0.449,1.172-0.273
			c0.549,0.092,0.818,0.543,1.172,1.176l1.357,0.721"/>
		<path fill="none" stroke="#4681A7" stroke-width="0.5" stroke-miterlimit="10" d="M66.306,51.13v0.629 M66.306,48.151v-0.631
			 M65.491,50.228v0.27c0,0.361,0.27,0.633,0.633,0.633h0.633c0.365,0,0.627-0.271,0.627-0.633v-0.18
			c0-0.27-0.182-0.449-0.357-0.539l-0.99-0.361c-0.275-0.094-0.363-0.27-0.363-0.545v-0.18c0-0.363,0.27-0.633,0.633-0.633h0.633
			c0.357,0,0.627,0.27,0.627,0.633v0.27 M67.202,46.532c-0.08,0.086-0.539,0.178-0.721,0.178c-0.176,0-0.627-0.092-0.721-0.178
			l-0.809-1.625c0.27-0.541,0.99-0.449,1.529-0.271c0.902,0.182,1.18,0.182,1.363,0.182L67.202,46.532z M65.761,46.532
			c-1.711,1.168-2.607,2.615-2.607,4.148c0,0.449,0.078,0.898,0.357,1.168 M69.825,51.13c0-0.18,0-0.271,0-0.449
			c0-1.533-0.992-2.98-2.623-4.148"/>
	</g>
</g>
</svg>
