<svg fill="#fff" xmlns="http://www.w3.org/2000/svg" xmlns:xlink="http://www.w3.org/1999/xlink" x="0px" y="0px" width="35px" height="55px" viewBox="0 0 378.915 598.123">

<path d="M189.458,468.489c-5.508,0-9.969,4.461-9.969,9.969v109.687c0,5.504,4.461,9.969,9.969,9.969

	c5.503,0,9.972-4.465,9.972-9.969V478.458C199.43,472.95,194.961,468.489,189.458,468.489L189.458,468.489z M189.458,468.489"/>

<path d="M141.399,468.688c-2.598-0.508-5.289,0.055-7.465,1.551c-2.18,1.504-3.656,3.816-4.105,6.426l-19.946,109.687

	c-0.968,5.391,2.594,10.555,7.977,11.563c0.586,0.167,1.195,0.234,1.801,0.199c4.816,0.035,8.949-3.426,9.769-8.172l19.942-109.692

	C150.34,474.864,146.782,469.696,141.399,468.688L141.399,468.688z M141.399,468.688"/>

<path d="M237.52,468.688c-5.383,1.008-8.945,6.176-7.977,11.562l19.946,109.692c0.816,4.746,4.949,8.207,9.769,8.172

	c0.602,0.035,1.211-0.032,1.797-0.199c5.383-1.008,8.942-6.172,7.977-11.563l-19.946-109.687c-0.437-2.614-1.91-4.934-4.093-6.442

	C242.813,468.727,240.118,468.172,237.52,468.688L237.52,468.688z M237.52,468.688"/>

<path d="M287.958,300.309c0.359-6.527,0.726-13.101,0.816-19.781c0.301-7.078,0.398-14.262,0.398-21.442

	c0-139.601-88.144-250.886-91.937-255.57C195.266,1.278,192.438,0,189.458,0c-2.973,0-5.805,1.278-7.778,3.516

	c-3.793,4.684-91.937,115.969-91.937,255.57c0,7.18,0.097,14.364,0.398,21.442c0.086,6.68,0.457,13.254,0.817,19.781

	C37.887,322.708,0,406.817,0,504.786v3.488c0.016,4.461,2.985,8.371,7.278,9.57c0.871,0.278,1.777,0.414,2.691,0.403

	c3.512-0.032,6.758-1.879,8.578-4.887c21.864-37.344,55.243-66.606,95.125-83.391c1.36,4.117,2.731,8.184,4.188,12.094

	c0.101,0.102,0.101,0.301,0.199,0.398c0.266,0.582,0.563,1.153,0.902,1.696c0.399,0.523,0.832,1.023,1.293,1.496

	c1.852,1.851,4.364,2.89,6.981,2.89H251.68c0.778,0.004,1.547-0.093,2.297-0.296c0.387-0.075,0.754-0.207,1.094-0.403

	c0.336-0.113,0.672-0.246,0.996-0.398c0.894-0.375,1.703-0.922,2.394-1.594c0.352-0.34,0.688-0.707,0.997-1.098

	c0.593-0.675,1.066-1.457,1.398-2.293c0.098-0.097,0.098-0.296,0.199-0.398c1.453-3.918,2.828-7.977,4.199-12.125

	c39.879,16.805,73.246,46.078,95.118,83.422c1.816,3.008,5.062,4.855,8.574,4.887c0.914,0.011,1.824-0.125,2.691-0.403

	c4.293-1.199,7.262-5.109,7.278-9.57v-3.488C378.915,406.817,341.024,322.708,287.958,300.309L287.958,300.309z M189.458,269.055

	c-27.536,0-49.86-22.316-49.86-49.859c0-27.531,22.324-49.86,49.86-49.86c27.535,0,49.859,22.329,49.859,49.86

	C239.317,246.739,216.993,269.055,189.458,269.055L189.458,269.055z M189.458,269.055"/>

</svg>

