<svg fill="#fff" xmlns="http://www.w3.org/2000/svg" xmlns:xlink="http://www.w3.org/1999/xlink" x="0px" y="0px" width="42px" height="55px" viewBox="0 0 390 512" >
<defs>
	<rect id="SVGID_1_" x="0" width="390" height="512"/>
</defs>
<clipPath id="SVGID_2_">
	<use xlink:href="#SVGID_1_"  style="overflow:visible;"/>
</clipPath>
<path style="clip-path:url(#SVGID_2_);" d="M195,91c26.703,0,52.223,5.574,76.004,15.293
	c9.445-23.512,22.832-60.973,27.164-70.441c3.727-6.844,1.586-15.36-4.848-19.657c-32.402-21.593-74.238-21.593-106.64,0
	c-22.297,14.852-51.067,14.852-73.36,0c-6.211-4.133-14.562-3.078-19.554,2.532c-4.969,5.613-5.028,14.019-0.149,19.718
	c5.84,6.821,7.785,19.215,26.098,67.551C143.297,96.461,168.566,91,195,91L195,91z M195,91"/>
<path style="clip-path:url(#SVGID_2_);" d="M0,346c0,75.277,33.84,166,195,166s195-90.723,195-166c0-124.07-87.48-225-195-225
	S0,221.93,0,346L0,346z M195,331c-24.812,0-45-20.188-45-45c0-19.531,12.578-36.023,30-42.238V226c0-8.289,6.711-15,15-15
	s15,6.711,15,15v17.762c17.422,6.215,30,22.707,30,42.238c0,8.289-6.711,15-15,15c-8.289,0-15-6.711-15-15c0-8.277-6.723-15-15-15
	c-8.277,0-15,6.723-15,15c0,8.277,6.723,15,15,15c24.812,0,45,20.188,45,45c0,19.531-12.578,36.023-30,42.238V406
	c0,8.289-6.711,15-15,15s-15-6.711-15-15v-17.762c-17.422-6.215-30-22.707-30-42.238c0-8.289,6.711-15,15-15
	c8.289,0,15,6.711,15,15c0,8.277,6.723,15,15,15c8.277,0,15-6.723,15-15C210,337.723,203.277,331,195,331L195,331z M195,331"/>
</svg>
