<svg fill="#fff" xmlns="http://www.w3.org/2000/svg" xmlns:xlink="http://www.w3.org/1999/xlink" x="0px" y="0px" width="52px" height="51px" viewBox="0 0 37.599 37.59" >
<path d="M22.211,22.211H2.562V3.418h19.649v7.184l1.711,0.363V3.18c0.508-0.297,0.851-0.84,0.851-1.473
	C24.773,0.766,24.008,0,23.066,0H1.707C0.766,0,0,0.766,0,1.707C0,2.34,0.344,2.883,0.855,3.18v19.887
	c0,0.468,0.383,0.855,0.852,0.855h5.266L3.902,35.438c-0.242,0.914,0.297,1.851,1.211,2.093c0.149,0.04,0.293,0.059,0.442,0.059
	c0.754,0,1.445-0.504,1.648-1.269l3.309-12.399h3.75l3.308,12.399c0.203,0.765,0.895,1.269,1.653,1.269
	c0.144,0,0.293-0.019,0.441-0.059c0.91-0.242,1.449-1.179,1.211-2.093l-3.074-11.516h5.265c0.473,0,0.856-0.387,0.856-0.855v-5.11
	l-1.711-0.367V22.211z M22.211,22.211"/>
<path d="M29.477,12.395c1.675,0,3.035-1.36,3.035-3.032c0-1.675-1.36-3.035-3.035-3.035c-1.672,0-3.032,1.356-3.032,3.035
	C26.445,11.035,27.805,12.395,29.477,12.395L29.477,12.395z M29.477,12.395"/>
<path d="M37.484,22.453l-3.136-8.121c-0.254-0.656-0.887-1.094-1.594-1.094H31.09c-0.473,0-0.879,0.208-1.188,0.516l0.797,5.84
	l-1.222,1.031l-1.219-1.031l0.797-5.84c-0.309-0.308-0.715-0.516-1.188-0.516h-1.484l-9.793-2.089
	c-0.922-0.2-1.832,0.39-2.028,1.312c-0.199,0.926,0.391,1.832,1.313,2.027l9.973,2.133c0.101,0.02,0.207,0.032,0.312,0.035v7.903
	l-0.652,11.219c-0.055,0.945,0.664,1.75,1.605,1.808c0.035,0,0.071,0,0.102,0c0.898,0,1.652-0.699,1.707-1.609l0.558-9.621
	l0.563,9.621c0.051,0.91,0.805,1.609,1.703,1.609c0.031,0,0.066,0,0.102,0c0.941-0.058,1.66-0.863,1.605-1.808l-0.652-11.219
	v-4.758l1.5,3.887c0.34,0.879,1.332,1.316,2.211,0.976C37.387,24.324,37.824,23.336,37.484,22.453L37.484,22.453z M37.484,22.453"
	/>
<path d="M3.844,12.176v7.262c0,0.468,0.383,0.851,0.855,0.851c0.473,0,0.856-0.383,0.856-0.851v-7.262
	c0-0.473-0.383-0.855-0.856-0.855C4.227,11.321,3.844,11.703,3.844,12.176L3.844,12.176z M3.844,12.176"/>
<path d="M7.688,6.196v13.238c0,0.472,0.382,0.855,0.855,0.855c0.473,0,0.852-0.383,0.852-0.855V6.196
	c0-0.473-0.383-0.856-0.852-0.856C8.07,5.34,7.688,5.723,7.688,6.196L7.688,6.196z M7.688,6.196"/>
<path d="M11.531,9.61v9.824c0,0.472,0.383,0.855,0.856,0.855c0.472,0,0.855-0.383,0.855-0.855V9.61
	c0-0.473-0.383-0.856-0.855-0.856C11.914,8.754,11.531,9.137,11.531,9.61L11.531,9.61z M11.531,9.61"/>
</svg>
