<svg fill="#fff" xmlns="http://www.w3.org/2000/svg" xmlns:xlink="http://www.w3.org/1999/xlink" x="0px" y="0px" width="49px" height="48px" viewBox="0 0 37.92 38.001" >
<path d="M35.875,34.165H1.707C0.766,34.165,0,34.931,0,35.876c0,0.942,0.766,1.707,1.707,1.707h34.168
	c0.945,0,1.711-0.765,1.711-1.707C37.582,34.931,36.82,34.165,35.875,34.165L35.875,34.165z M35.875,34.165"/>
	<defs>
		<rect id="SVGID_1_" x="0" y="0.001" width="37.92" height="38"/>
	</defs>
	<clipPath id="SVGID_2_">
		<use xlink:href="#SVGID_1_"  style="overflow:visible;"/>
	</clipPath>
	<path style="clip-path:url(#SVGID_2_);" d="M3.844,29.724c-0.946,0-1.707,0.765-1.707,1.707c0,0.945,0.761,1.711,1.707,1.711
		h29.894c0.946,0,1.711-0.766,1.711-1.711c0-0.942-0.765-1.707-1.711-1.707h-0.426V14.349h0.426c0.473,0,0.856-0.383,0.856-0.856
		c0-0.468-0.383-0.851-0.856-0.851H3.844c-0.473,0-0.852,0.383-0.852,0.851c0,0.473,0.379,0.856,0.852,0.856H4.27v15.375H3.844z
		 M29.895,14.349v15.375H24.77V14.349H29.895z M21.355,14.349v15.375H16.23V14.349H21.355z M7.688,14.349h5.124v15.375H7.688
		V14.349z M7.688,14.349"/>
	<path style="clip-path:url(#SVGID_2_);" d="M1.707,11.107h34.184c0.945,0,1.711-0.766,1.711-1.711c0-0.75-0.485-1.387-1.157-1.617
		L19.492,0.15c-0.445-0.2-0.953-0.2-1.398,0L1.008,7.837C0.273,8.169-0.133,8.97,0.039,9.755
		C0.207,10.544,0.902,11.107,1.707,11.107L1.707,11.107z M1.707,11.107"/>
</svg>