<svg fill="#fff" version="1.1" id="Layer_1" xmlns="http://www.w3.org/2000/svg" xmlns:xlink="http://www.w3.org/1999/xlink" x="0px" y="0px"
	 width="53px" height="52px" viewBox="0 0 53.938 64" style="enable-background:new 0 0 53.938 64;" xml:space="preserve">
<g>
	<g>
		<defs>
			<rect id="SVGID_1_" width="53.76" height="64"/>
		</defs>
		<clipPath id="SVGID_2_">
			<use xlink:href="#SVGID_1_"  style="overflow:visible;"/>
		</clipPath>
		<path style="clip-path:url(#SVGID_2_);" d="M53.402,1.254L53.402,1.254C53.402,1.254,53.223,1.254,53.402,1.254
			C52.863,0.359,51.969,0,51.07,0H2.867C1.254,0,0,1.254,0,2.867v57.879c0,0.539,0.18,1.078,0.539,1.613
			c0.535,0.719,1.434,1.254,2.328,1.254H51.07c1.614,0,2.868-1.254,2.868-2.867V2.867C53.758,2.152,53.582,1.793,53.402,1.254
			L53.402,1.254z M18.277,54.656c0,0.719-0.535,1.254-1.254,1.254h-6.628c-0.715,0-1.254-0.539-1.254-1.254v-2.867
			c0-0.715,0.539-1.254,1.254-1.254h6.628c0.719,0,1.254,0.539,1.254,1.254V54.656z M18.277,44.98c0,0.715-0.535,1.254-1.254,1.254
			h-6.628c-0.715,0-1.254-0.539-1.254-1.254v-2.867c0-0.719,0.539-1.254,1.254-1.254h6.628c0.719,0,1.254,0.535,1.254,1.254V44.98z
			 M18.277,35.48c0,0.719-0.535,1.254-1.254,1.254h-6.628c-0.715,0-1.254-0.535-1.254-1.254v-2.867c0-0.715,0.539-1.254,1.254-1.254
			h6.628c0.719,0,1.254,0.539,1.254,1.254V35.48z M31.359,54.656c0,0.719-0.539,1.254-1.254,1.254h-6.628
			c-0.719,0-1.254-0.539-1.254-1.254v-2.867c0-0.715,0.535-1.254,1.254-1.254h6.628c0.719,0,1.254,0.539,1.254,1.254V54.656z
			 M31.359,44.98c0,0.715-0.539,1.254-1.254,1.254h-6.628c-0.719,0-1.254-0.539-1.254-1.254v-2.867c0-0.719,0.535-1.254,1.254-1.254
			h6.628c0.719,0,1.254,0.535,1.254,1.254V44.98z M31.359,35.48c0,0.719-0.539,1.254-1.254,1.254h-6.628
			c-0.719,0-1.254-0.535-1.254-1.254v-2.867c0-0.715,0.535-1.254,1.254-1.254h6.628c0.719,0,1.254,0.539,1.254,1.254V35.48z
			 M44.621,54.656c0,0.719-0.539,1.254-1.254,1.254h-6.629c-0.718,0-1.258-0.539-1.258-1.254v-2.867c0-0.715,0.54-1.254,1.258-1.254
			h6.629c0.715,0,1.254,0.539,1.254,1.254V54.656z M44.621,44.98c0,0.715-0.539,1.254-1.254,1.254h-6.629
			c-0.718,0-1.258-0.539-1.258-1.254v-2.867c0-0.719,0.54-1.254,1.258-1.254h6.629c0.715,0,1.254,0.535,1.254,1.254V44.98z
			 M44.621,35.48c0,0.719-0.539,1.254-1.254,1.254h-6.629c-0.718,0-1.258-0.535-1.258-1.254v-2.867c0-0.715,0.54-1.254,1.258-1.254
			h6.629c0.715,0,1.254,0.539,1.254,1.254V35.48z M45.156,25.445L45.156,25.445c0,0.719-0.535,1.254-1.254,1.254H9.676
			c-0.715,0-1.254-0.535-1.254-1.254V8.781c0-0.715,0.539-1.254,1.254-1.254h34.226c0.719,0,1.254,0.539,1.254,1.254V25.445z
			 M45.156,25.445"/>
	</g>
	<path d="M17.922,15.769c-1.254-0.539-1.793-0.715-1.793-1.254c0-0.359,0.359-0.715,1.254-0.715c1.074,0,1.613,0.356,1.972,0.536
		l0.356-1.614c-0.535-0.179-1.074-0.355-1.969-0.535v-1.254h-1.433v1.434c-1.434,0.355-2.332,1.254-2.332,2.508
		c0,1.433,1.078,2.148,2.511,2.507c1.074,0.36,1.434,0.719,1.434,1.254c0,0.539-0.539,0.899-1.434,0.899
		c-0.898,0-1.793-0.36-2.332-0.539l-0.355,1.613c0.535,0.359,1.433,0.539,2.328,0.539v1.434h1.433v-1.614
		c1.614-0.359,2.508-1.433,2.508-2.687C20.25,17.203,19.531,16.308,17.922,15.769L17.922,15.769z M17.922,15.769"/>
	<path d="M27.598,15.769c-1.254-0.539-1.793-0.715-1.793-1.254c0-0.359,0.359-0.715,1.254-0.715c1.074,0,1.613,0.356,1.972,0.536
		l0.356-1.614c-0.535-0.179-1.075-0.355-1.969-0.535v-1.254h-1.434v1.434c-1.433,0.355-2.332,1.254-2.332,2.508
		c0,1.433,1.078,2.148,2.512,2.507c1.074,0.36,1.434,0.719,1.434,1.254c0,0.539-0.539,0.899-1.434,0.899
		c-0.894,0-1.793-0.36-2.328-0.539l-0.359,1.613c0.535,0.359,1.433,0.539,2.328,0.539v1.434h1.433v-1.614
		c1.614-0.359,2.508-1.433,2.508-2.687C30.105,17.203,29.387,16.308,27.598,15.769L27.598,15.769z M27.598,15.769"/>
	<path d="M37.453,15.769c-1.254-0.539-1.789-0.715-1.789-1.254c0-0.359,0.356-0.715,1.25-0.715c1.078,0,1.617,0.356,1.973,0.536
		l0.359-1.614c-0.539-0.179-1.078-0.355-1.973-0.535v-1.254H35.84v1.434c-1.434,0.355-2.328,1.254-2.328,2.508
		c0,1.433,1.074,2.148,2.508,2.507c1.074,0.36,1.433,0.719,1.433,1.254c0,0.539-0.539,0.899-1.433,0.899
		c-0.895,0-1.793-0.36-2.329-0.539l-0.359,1.613c0.539,0.355,1.434,0.539,2.328,0.539v1.434h1.434v-1.618
		c1.613-0.355,2.511-1.429,2.511-2.683C39.781,17.203,39.066,16.308,37.453,15.769L37.453,15.769z M37.453,15.769"/>
</g>
</svg>
