<svg fill="#fff" xmlns="http://www.w3.org/2000/svg" xmlns:xlink="http://www.w3.org/1999/xlink" x="0px" y="0px" width="53px" height="52px" viewBox="0 0 37.602 37.597">
<path d="M5.898,15.379H1.711C0.766,15.379,0,16.144,0,17.09v18.8c0,0.946,0.766,1.707,1.711,1.707h4.187
	c0.942,0,1.707-0.765,1.707-1.707v-18.8C7.605,16.144,6.84,15.379,5.898,15.379L5.898,15.379z M5.898,15.379"/>
<path d="M15.895,20.508h-4.188c-0.945,0-1.707,0.765-1.707,1.711V35.89c0,0.942,0.762,1.707,1.707,1.707h4.188
	c0.945,0,1.71-0.765,1.71-1.707V22.219C17.605,21.273,16.84,20.508,15.895,20.508L15.895,20.508z M15.895,20.508"/>
<path d="M25.891,20.508h-4.188c-0.941,0-1.707,0.765-1.707,1.711V35.89c0,0.942,0.766,1.707,1.707,1.707h4.188
	c0.945,0,1.711-0.765,1.711-1.707V22.219C27.602,21.273,26.836,20.508,25.891,20.508L25.891,20.508z M25.891,20.508"/>
<path d="M35.891,15.379h-4.188c-0.945,0-1.707,0.765-1.707,1.711v18.8c0,0.946,0.762,1.707,1.707,1.707h4.188
	c0.945,0,1.711-0.765,1.711-1.707v-18.8C37.602,16.144,36.836,15.379,35.891,15.379L35.891,15.379z M35.891,15.379"/>
<path d="M19.297,10.297v3.074c0.933-0.063,1.914-0.496,1.914-1.524C21.211,10.793,20.137,10.48,19.297,10.297L19.297,10.297z
	 M19.297,10.297"/>
<path d="M16.621,6.613c0,0.777,0.578,1.227,1.746,1.461V5.289C17.309,5.324,16.621,5.945,16.621,6.613L16.621,6.613z M16.621,6.613
	"/>
<path d="M18.801,0c-5.184,0-9.403,4.219-9.403,9.398c0,5.18,4.219,9.399,9.403,9.399c5.183,0,9.398-4.219,9.398-9.399
	C28.199,4.219,23.984,0,18.801,0L18.801,0z M19.297,14.957v0.965c0,0.265-0.203,0.527-0.469,0.527
	c-0.262,0-0.461-0.262-0.461-0.527v-0.965c-2.629-0.063-3.933-1.633-3.933-2.86c0-0.621,0.375-0.98,0.961-0.98
	c1.742,0,0.386,2.145,2.972,2.254v-3.246c-2.305-0.422-3.699-1.43-3.699-3.156c0-2.114,1.758-3.204,3.699-3.262V2.879
	c0-0.266,0.199-0.532,0.461-0.532c0.266,0,0.469,0.266,0.469,0.532v0.828c1.211,0.031,3.699,0.793,3.699,2.316
	c0,0.606-0.453,0.961-0.98,0.961c-1.012,0-0.996-1.66-2.719-1.691v2.949c2.051,0.437,3.871,1.043,3.871,3.437
	C23.168,13.762,21.613,14.816,19.297,14.957L19.297,14.957z M19.297,14.957"/>
</svg>
