<svg fill="#fff" xmlns="http://www.w3.org/2000/svg" xmlns:xlink="http://www.w3.org/1999/xlink" x="0px" y="0px"	width="53px" height="55px" viewBox="0 0 512 511.98" >
<defs>
	<rect id="SVGID_1_" x="1" width="511" height="511"/>
</defs>
<clipPath id="SVGID_2_">
	<use xlink:href="#SVGID_1_"  style="overflow:visible;"/>
</clipPath>
<path style="clip-path:url(#SVGID_2_);" d="M455.922,161.344h-65.199v-50.231h105.289c0.008-0.004,0.011-0.004,0.019,0
	c8.27,0,14.973-6.703,14.973-14.968c0-4.372-1.875-8.301-4.856-11.04l-29.054-29.05l29.504-29.5
	c4.281-4.282,5.562-10.719,3.246-16.317c-2.321-5.59-7.778-9.242-13.832-9.242H375.75c-8.266,0-14.969,6.703-14.969,14.973
	v145.375H343.68c-30.356,0-55.055,24.699-55.055,55.058v280.606c0,8.269,6.707,14.972,14.969,14.972h192.418
	c8.269,0,14.972-6.703,14.972-14.972V216.406C510.984,186.047,486.281,161.344,455.922,161.344L455.922,161.344z M455.922,161.344
	"/>
<path style="clip-path:url(#SVGID_2_);" d="M0,456.922v40.086c0,8.269,6.703,14.972,14.973,14.972h51.293V401.867H55.059
	C24.699,401.867,0,426.562,0,456.922L0,456.922z M0,456.922"/>
<path style="clip-path:url(#SVGID_2_);" d="M96.207,376.746v120.262c0,8.269,6.703,14.972,14.973,14.972h51.297V321.695h-11.211
	C120.906,321.695,96.207,346.391,96.207,376.746L96.207,376.746z M96.207,376.746"/>
<path style="clip-path:url(#SVGID_2_);" d="M192.418,296.574v200.434c0,8.269,6.703,14.972,14.969,14.972h51.297V241.52h-11.207
	C217.117,241.52,192.418,266.219,192.418,296.574L192.418,296.574z M192.418,296.574"/>
</svg>
