<svg fill="#fff" xmlns="http://www.w3.org/2000/svg" xmlns:xlink="http://www.w3.org/1999/xlink" x="0px" y="0px"
	 width="52px" height="52px" viewBox="0 0 37.92 30" style="enable-background:new 0 0 37.92 30;" xml:space="preserve">
<g>
	<path d="M29.48,26.493H8.117c-0.945,0-1.707,0.765-1.707,1.707c0,0.945,0.762,1.711,1.707,1.711H29.48
		c0.946,0,1.711-0.766,1.711-1.711C31.191,27.258,30.426,26.493,29.48,26.493L29.48,26.493z M29.48,26.493"/>
	<path d="M5.98,13.672v4.274c0,0.707,0.579,1.281,1.286,1.281s1.281-0.574,1.281-1.281v-4.274c0-0.707-0.574-1.281-1.281-1.281
		C6.555,12.391,5.98,12.965,5.98,13.672L5.98,13.672z M5.98,13.672"/>
	<path d="M10.254,11.965v5.981c0,0.707,0.574,1.281,1.281,1.281c0.707,0,1.285-0.574,1.285-1.281v-5.981
		c0-0.707-0.578-1.285-1.285-1.285C10.828,10.68,10.254,11.258,10.254,11.965L10.254,11.965z M10.254,11.965"/>
	<g>
		<defs>
			<rect id="SVGID_1_" y="0.15" width="37.92" height="29.85"/>
		</defs>
		<clipPath id="SVGID_2_">
			<use xlink:href="#SVGID_1_"  style="overflow:visible;"/>
		</clipPath>
		<path style="clip-path:url(#SVGID_2_);" d="M14.527,10.254v7.692c0,0.707,0.575,1.281,1.282,1.281s1.281-0.574,1.281-1.281v-7.692
			c0-0.707-0.574-1.281-1.281-1.281S14.527,9.547,14.527,10.254L14.527,10.254z M14.527,10.254"/>
		<path style="clip-path:url(#SVGID_2_);" d="M35.891,0H1.711C0.766,0,0,0.766,0,1.711v21.364c0,0.941,0.766,1.707,1.711,1.707
			h32.617c-0.051-0.043-0.105-0.078-0.152-0.125l-2.367-2.368c-1.364,0.77-2.907,1.184-4.493,1.184
			c-2.156,0-4.203-0.746-5.843-2.109H3.418V3.418H34.18v4.817c1.488,1.676,2.308,3.804,2.308,6.066c0,1.582-0.414,3.125-1.179,4.488
			l2.289,2.293V1.707C37.602,0.766,36.836,0,35.891,0L35.891,0z M35.891,0"/>
	</g>
	<path d="M33.898,19.797c-0.171-0.168-0.402-0.238-0.625-0.215l-0.359-0.359c1.203-1.363,1.863-3.09,1.863-4.922
		c0-1.992-0.773-3.867-2.183-5.273c-1.41-1.414-3.282-2.188-5.278-2.188c-1.992,0-3.863,0.774-5.273,2.188
		c-1.41,1.406-2.188,3.281-2.188,5.273c0,1.992,0.778,3.867,2.188,5.278c1.41,1.41,3.281,2.183,5.273,2.183
		c1.836,0,3.559-0.664,4.922-1.863l0.36,0.359c-0.024,0.223,0.047,0.449,0.218,0.621l2.571,2.571
		c0.148,0.152,0.343,0.222,0.539,0.222c0.195,0,0.394-0.074,0.543-0.222c0.297-0.297,0.297-0.782,0-1.079L33.898,19.797z
		 M31.512,18.493c-1.121,1.121-2.61,1.738-4.196,1.738c-1.582,0-3.07-0.617-4.191-1.735c-1.121-1.121-1.738-2.609-1.738-4.195
		c0-1.582,0.617-3.074,1.738-4.191c1.121-1.121,2.609-1.739,4.191-1.739c1.586,0,3.075,0.618,4.196,1.739
		c1.121,1.117,1.734,2.609,1.734,4.191C33.246,15.887,32.633,17.375,31.512,18.493L31.512,18.493z M31.512,18.493"/>
</g>
</svg>
