<?xml version="1.0" encoding="utf-8"?>
<!-- Generator: Adobe Illustrator 16.0.0, SVG Export Plug-In . SVG Version: 6.00 Build 0)  -->
<!DOCTYPE svg PUBLIC "-//W3C//DTD SVG 1.1//EN" "http://www.w3.org/Graphics/SVG/1.1/DTD/svg11.dtd">
<svg version="1.1" id="Layer_1" xmlns="http://www.w3.org/2000/svg" xmlns:xlink="http://www.w3.org/1999/xlink" x="0px" y="0px"
	 width="800px" height="339.531px" viewBox="0 131.078 800 339.531" enable-background="new 0 0 800 600" xml:space="preserve">
<g>
	<g>
		<rect x="171.734" y="131.078" fill="#4681A7" width="459.859" height="339.531"/>
		<rect x="400.32" y="212.133" fill="#FFFFFF" width="52.305" height="183.367"/>
		<g>
			<g>
				<g>
					<g>
						<g>
							<g>
								<g>
									<g>
										<g>
											<g>
												<defs>
													<rect id="SVGID_1_" x="170.969" y="131.078" width="460.625" height="339.531"/>
												</defs>
												<clipPath id="SVGID_2_">
													<use xlink:href="#SVGID_1_"  overflow="visible"/>
												</clipPath>
												<path clip-path="url(#SVGID_2_)" fill="#21366C" d="M337.859,346.055c-0.195,1.531-1.344,2.492-2.875,2.305
													l-22.609-2.305c-1.531-0.188-2.492-1.336-2.297-2.867l1.336-12.836c0.195-1.531,1.531-2.5,2.875-2.305l22.617,2.305
													c1.523,0.188,2.484,1.344,2.289,2.875L337.859,346.055z"/>
											</g>
										</g>
									</g>
								</g>
							</g>
						</g>
					</g>
				</g>
				<g>
					<g>
						<g>
							<g>
								<g>
									<g>
										<g>
											<g>
												<g>
													<g>
														<g>
															<defs>
																<rect id="SVGID_3_" x="170.969" y="131.078" width="460.625" height="339.531"/>
															</defs>
															<clipPath id="SVGID_4_">
																<use xlink:href="#SVGID_3_"  overflow="visible"/>
															</clipPath>
															<path clip-path="url(#SVGID_4_)" fill="#21366C" d="M327.891,327.094L327.891,327.094l-4.023-0.383
																c-1.148-0.195-2.297,0.766-2.297,1.914c-0.188,1.148,0.766,2.109,1.727,2.297l0,0l4.023,0.391
																c1.148,0.18,2.297-0.773,2.297-1.93C329.812,328.242,329.047,327.094,327.891,327.094 M323.297,332.07
																c-1.727-0.195-3.062-1.914-2.875-3.641c0.188-1.914,1.914-3.25,3.641-3.062l4.023,0.391
																c1.914,0.18,3.258,1.906,3.062,3.625c-0.188,1.93-1.914,3.266-3.633,3.07L323.297,332.07L323.297,332.07z"/>
														</g>
													</g>
												</g>
											</g>
										</g>
									</g>
								</g>
							</g>
							<g>
								<g>
									<g>
										<g>
											<g>
												<g>
													<g>
														<g>
															<g>
																<g>
																	<g>
																		<defs>
																			<rect id="SVGID_5_" x="170.969" y="131.078" width="460.625" height="339.531"/>
																		</defs>
																		<clipPath id="SVGID_6_">
																			<use xlink:href="#SVGID_5_"  overflow="visible"/>
																		</clipPath>
																		<path clip-path="url(#SVGID_6_)" fill="#FFFFFF" d="M326.359,339.742c-0.188,0.953-0.953,1.719-2.102,1.719
																			c-0.961-0.188-1.727-0.961-1.727-2.102l0.188-1.93c0.195-0.953,0.961-1.719,2.109-1.719
																			c0.961,0.203,1.719,0.961,1.719,2.109L326.359,339.742z"/>
																	</g>
																</g>
															</g>
														</g>
													</g>
												</g>
											</g>
										</g>
										<g>
											<g>
												<g>
													<g>
														<g>
															<g>
																<g>
																	<g>
																		<g>
																			<g>
																				<g>
																					<defs>
																						<rect id="SVGID_7_" x="170.969" y="131.078" width="460.625" height="339.531"/>
																					</defs>
																					<clipPath id="SVGID_8_">
																						<use xlink:href="#SVGID_7_"  overflow="visible"/>
																					</clipPath>
																					<path clip-path="url(#SVGID_8_)" fill="#21366C" d="M325.406,338.203c0-0.383-0.195-0.773-0.578-0.773
																						s-0.766,0.203-0.766,0.578c0,0.195,0.195,0.578,0.383,0.578v0.953c0,0.203,0.195,0.391,0.383,0.391
																						c0.195,0,0.383-0.188,0.383-0.391v-0.953C325.211,338.781,325.406,338.586,325.406,338.203"/>
																				</g>
																			</g>
																		</g>
																	</g>
																</g>
															</g>
														</g>
													</g>
													<g>
														<g>
															<g>
																<g>
																	<g>
																		<g>
																			<g>
																				<g>
																					<g>
																						<g>
																							<g>
																								<defs>
																									<rect id="SVGID_9_" x="170.969" y="131.078" width="460.625" height="339.531"/>
																								</defs>
																								<clipPath id="SVGID_10_">
																									<use xlink:href="#SVGID_9_"  overflow="visible"/>
																								</clipPath>
																								<path clip-path="url(#SVGID_10_)" fill="#816661" d="M326.359,321.156c0,0,1.344,1.336,1.727,1.531
																									c0.57,0.578,0.961,2.109,2.875,3.445c0.188,0.188-0.961,0.383-1.344,0
																									c-0.961-0.578-1.727-0.766-1.727-0.766l-0.375,1.344l0.766,0.188c0,0-0.578,0.766-0.961,1.148
																									s-0.57,0.195-0.773,0c-0.188-0.195-0.188-0.195-0.375-0.195c-0.383,0-0.578,0-0.961-0.188
																									c-0.188-0.188-0.57,0-0.953-0.375c-0.195-0.195-0.195-0.578-0.195-0.578s0.195-0.953,0.578-1.727
																									c0.383-0.961,0.766-2.492,0.766-2.492l0.188-0.766L326.359,321.156z"/>
																							</g>
																						</g>
																					</g>
																				</g>
																			</g>
																		</g>
																	</g>
																</g>
																<g id="Ebene_2_3_">
																	<g>
																		<g>
																			<path fill="#21366A" d="M334.023,264.633c0,0-12.07,16.852-13.031,18.203c-0.953,1.336-3.258,4.977-2.492,9.578
																				c1.539,6.125,6.711,29.5,6.711,29.5l2.875-0.375l-3.445-31.234c0,0,9.383-7.859,15.32-14.375
																				C341.688,270.188,334.023,264.633,334.023,264.633"/>
																		</g>
																		<g>
																			<g>
																				<path fill="#191817" d="M355.102,242.406c8.43-4.602,11.883-4.797,12.648-2.492
																					c0.195,0.383,0.195,1.336-0.383,1.914c-2.68-0.383-5.367-0.383-4.602,1.336c0.188,0.578,2.68,6.898,0.391,7.094
																					c-0.391-0.766-1.734-2.875-3.453-2.109c-0.961,0.578,0,2.875-4.602,3.641
																					C354.906,248.344,354.336,243.742,355.102,242.406"/>
																			</g>
																		</g>
																	</g>
																</g>
															</g>
														</g>
													</g>
												</g>
											</g>
										</g>
									</g>
								</g>
							</g>
						</g>
					</g>
				</g>
			</g>
		</g>
		<g>
			<g>

					<linearGradient id="SVGID_11_" gradientUnits="userSpaceOnUse" x1="-821.2812" y1="8516.6621" x2="556.7383" y2="8516.6621" gradientTransform="matrix(0.1916 0 0 -0.1916 328.3329 2060.791)">
					<stop  offset="0" style="stop-color:#AEDCE2"/>
					<stop  offset="1" style="stop-color:#D3E8EE"/>
				</linearGradient>
				<polygon id="SVGID_202_" fill="url(#SVGID_11_)" points="400.516,395.5 170.969,412.352 170.969,466.203 435.008,396.07
					434.812,391.664 				"/>
			</g>
		</g>
		<g>
			<g>
				<g>
					<g>
						<g>
							<g>
								<g>
									<g>
										<g>
											<g>
												<g>
													<g>
														<defs>
															<path id="SVGID_12_" d="M403.578,307.734c-0.57,0-0.391,0-0.953-0.18c-0.773,1.336-1.156,2.289-1.156,2.289
																l0.961,0.578c0,0,1.531,1.148,2.68,1.727c1.148,0.57,2.875,0.766,3.258,0.961c0.195,0,2.305,0.57,2.688,0.57
																c0.383-0.57-1.156-0.766-1.727-1.148c1.148,0,2.68,0.578,2.867,0.383c0.195-0.195,0.195-0.578,0-0.766
																c0.391,0,0.195-0.766,0.195-0.766c-0.562-0.578-1.914-1.539-3.062-1.734c-1.922-0.953-1.922-1.141-1.922-1.141
																s0-0.383,1.156-0.578c1.336-0.375,1.336-1.531,1.336-1.531S404.148,307.734,403.578,307.734"/>
														</defs>
														<clipPath id="SVGID_13_">
															<use xlink:href="#SVGID_12_"  overflow="visible"/>
														</clipPath>
														<rect x="401.469" y="306.203" clip-path="url(#SVGID_13_)" fill="#816661" width="11.117" height="7.477"/>
													</g>
												</g>
											</g>
										</g>
									</g>
								</g>
							</g>
						</g>
					</g>
				</g>
			</g>
		</g>
		<g>
			<g>
				<g>
					<g>
						<g>
							<g>
								<g>
									<g>
										<g>
											<g>
												<g>
													<g>
														<defs>
															<rect id="SVGID_14_" x="170.969" y="131.078" width="460.625" height="339.531"/>
														</defs>
														<clipPath id="SVGID_15_">
															<use xlink:href="#SVGID_14_"  overflow="visible"/>
														</clipPath>
														<path clip-path="url(#SVGID_15_)" fill="#21366A" d="M368.898,263.859c3.445,7.289,8.43,17.242,14.367,24.914
															c5.938,7.664,19.359,18.578,19.359,18.578l-1.547,3.266c0,0-15.891-7.094-24.133-15.328
															c-2.297-2.312-3.836-4.219-5.945-6.898c2.5-12.266-4.789-6.328-4.789-6.328s-13.984-27.977-8.047-26.25
															C361.047,256.586,365.258,256.008,368.898,263.859"/>
													</g>
												</g>
											</g>
										</g>
									</g>
								</g>
							</g>
						</g>
					</g>
				</g>
			</g>
			<g>
				<g>
					<g>
						<g>
							<g>
								<g>
									<g>
										<g>
											<g>
												<g>
													<g>
														<defs>
															<rect id="SVGID_16_" x="170.969" y="131.078" width="460.625" height="339.531"/>
														</defs>
														<clipPath id="SVGID_17_">
															<use xlink:href="#SVGID_16_"  overflow="visible"/>
														</clipPath>
														<path clip-path="url(#SVGID_17_)" fill="#415C97" d="M318.125,319.227c0,0,2.68-3.25,16.672-4.016
															c14.75-0.766,19.344-32.375,19.344-32.375s-20.688,13.789-29.117,24.141
															C322.719,309.648,318.125,319.227,318.125,319.227"/>
													</g>
												</g>
											</g>
										</g>
									</g>
								</g>
							</g>
						</g>
					</g>
				</g>
			</g>
			<g>
				<g>
					<g>
						<g>
							<g>
								<g>
									<g>
										<g>
											<g>
												<g>
													<g>
														<defs>
															<rect id="SVGID_18_" x="170.969" y="131.078" width="460.625" height="339.531"/>
														</defs>
														<clipPath id="SVGID_19_">
															<use xlink:href="#SVGID_18_"  overflow="visible"/>
														</clipPath>
														<path clip-path="url(#SVGID_19_)" fill="#21366A" d="M357.594,305.625c0,0,13.609-9.383,14.562-27.203
															c0.578-13.602-10.734-22.609-10.734-22.609L357.594,305.625z"/>
													</g>
												</g>
											</g>
										</g>
									</g>
								</g>
							</g>
						</g>
					</g>
				</g>
			</g>
			<g>
				<g>
					<g>
						<g>
							<g>
								<g>
									<g>
										<g>
											<g>
												<g>
													<g>
														<defs>
															<rect id="SVGID_20_" x="170.969" y="131.078" width="460.625" height="339.531"/>
														</defs>
														<clipPath id="SVGID_21_">
															<use xlink:href="#SVGID_20_"  overflow="visible"/>
														</clipPath>
														<path clip-path="url(#SVGID_21_)" fill="#FFFFFF" d="M361.422,315.602c0,0,2.688-14.188,6.328-31.234
															c3.062-13.992-6.133-30.281-6.133-30.281l-7.477,0.969c0,0-13.789,10.914-17.234,24.32
															c-2.109,8.242-2.109,23.578-2.109,23.578l-0.391,12.258L361.422,315.602z"/>
													</g>
												</g>
											</g>
										</g>
									</g>
								</g>
							</g>
						</g>
					</g>
				</g>
			</g>
			<g>
				<g>
					<g>
						<g>
							<g>
								<g>
									<g>
										<g>
											<g>
												<g>
													<g>
														<defs>
															<rect id="SVGID_22_" x="170.969" y="131.078" width="460.625" height="339.531"/>
														</defs>
														<clipPath id="SVGID_23_">
															<use xlink:href="#SVGID_22_"  overflow="visible"/>
														</clipPath>
														<path clip-path="url(#SVGID_23_)" fill="#A0CBD6" d="M357.398,316.172c0,0-0.953-8.82,2.492-13.992
															c3.641-5.555,4.023-16.859,4.023-16.859s-1.531,9.391-4.406,16.094s-3.258,14.562-3.258,14.562L357.398,316.172z"/>
													</g>
												</g>
											</g>
										</g>
									</g>
								</g>
							</g>
						</g>
					</g>
				</g>
			</g>
			<g>
				<g>
					<g>
						<g>
							<g>
								<g>
									<g>
										<g>
											<g>
												<g>
													<g>
														<defs>
															<rect id="SVGID_24_" x="170.969" y="131.078" width="460.625" height="339.531"/>
														</defs>
														<clipPath id="SVGID_25_">
															<use xlink:href="#SVGID_24_"  overflow="visible"/>
														</clipPath>
														<path clip-path="url(#SVGID_25_)" fill="#FFFFFF" d="M354.141,255.234l-0.766,0.578l5.18,6.516
															c0,0,2.492-0.578,3.633-3.07C357.016,259.07,354.141,255.234,354.141,255.234"/>
													</g>
												</g>
											</g>
										</g>
									</g>
								</g>
							</g>
						</g>
					</g>
				</g>
			</g>
			<g>
				<g>
					<g>
						<g>
							<g>
								<g>
									<g>
										<g>
											<g>
												<g>
													<g>
														<defs>
															<rect id="SVGID_26_" x="170.969" y="131.078" width="460.625" height="339.531"/>
														</defs>
														<clipPath id="SVGID_27_">
															<use xlink:href="#SVGID_26_"  overflow="visible"/>
														</clipPath>
														<path clip-path="url(#SVGID_27_)" fill="#21366A" d="M353.375,255.812c0,0,15.523,24.141-3.828,39.852
															c-26.055,20.695-33.727,26.445-33.727,26.445s0.383-9.391,9.586-18.203
															C346.672,283.398,353.375,255.812,353.375,255.812"/>
													</g>
												</g>
											</g>
										</g>
									</g>
								</g>
							</g>
						</g>
					</g>
				</g>
			</g>
			<g>
				<g>
					<g>
						<g>
							<g>
								<g>
									<g>
										<g>
											<g>
												<g>
													<g>
														<defs>
															<rect id="SVGID_28_" x="170.969" y="131.078" width="460.625" height="339.531"/>
														</defs>
														<clipPath id="SVGID_29_">
															<use xlink:href="#SVGID_28_"  overflow="visible"/>
														</clipPath>
														<path clip-path="url(#SVGID_29_)" fill="#21366A" d="M333.836,302.758c0,0-0.578-9.578-0.578-18.969
															c7.859-7.664-0.383-13.992,0.578-18.781c0.766-1.148,1.336-1.727,2.492-2.109c10.727-4.016,17.047-7.086,17.047-7.086
															s7.672,12.844-2.484,27.977C340.734,298.93,333.836,302.758,333.836,302.758"/>
													</g>
												</g>
											</g>
										</g>
									</g>
								</g>
							</g>
						</g>
					</g>
				</g>
			</g>
			<g>
				<g>
					<g>
						<g>
							<g>
								<g>
									<g>
										<g>
											<g>
												<g>
													<g>
														<defs>
															<rect id="SVGID_30_" x="170.969" y="131.078" width="460.625" height="339.531"/>
														</defs>
														<clipPath id="SVGID_31_">
															<use xlink:href="#SVGID_30_"  overflow="visible"/>
														</clipPath>
														<path clip-path="url(#SVGID_31_)" fill="#74438D" d="M362.578,259.453c0,0,0.766,0.578,1.336,2.297
															c0,1.148-0.57,1.914-0.57,1.914s3.258,6.711,2.68,15.711c-0.961,13.805-15.516,29.898-15.516,29.898l-7.094,0.953
															l1.148-7.469c0,0,15.328-10.922,17.82-24.336c1.727-9.195-0.195-14.367-0.195-14.367s-0.57-0.195-1.719-1.531
															C361.812,261.172,362.578,259.453,362.578,259.453"/>
													</g>
												</g>
											</g>
										</g>
									</g>
								</g>
							</g>
						</g>
					</g>
				</g>
			</g>
			<g>
				<g>
					<g>
						<g>
							<g>
								<g>
									<g>
										<g>
											<g>
												<g>
													<g>
														<defs>
															<rect id="SVGID_32_" x="170.969" y="131.078" width="460.625" height="339.531"/>
														</defs>
														<clipPath id="SVGID_33_">
															<use xlink:href="#SVGID_32_"  overflow="visible"/>
														</clipPath>
														<path clip-path="url(#SVGID_33_)" fill="#244982" d="M355.867,262.523c0.383,2.109,0.578,4.594,0.383,7.273
															c0.383,0.195,0.578,0.391,0.578,0.391s-0.195,0.383-0.766,0.961c-0.195,1.531-0.578,3.25-1.344,5.172
															c0.578,3.633,0.383,8.812-0.953,13.031c6.891-9.398,4.594-19.555,3.25-23.961
															C356.633,264.438,356.25,263.477,355.867,262.523"/>
													</g>
												</g>
											</g>
										</g>
									</g>
								</g>
							</g>
						</g>
					</g>
				</g>
			</g>
			<g>
				<g>
					<g>
						<g>
							<g>
								<g>
									<g>
										<g>
											<g>
												<g>
													<g>
														<defs>
															<rect id="SVGID_34_" x="170.969" y="131.078" width="460.625" height="339.531"/>
														</defs>
														<clipPath id="SVGID_35_">
															<use xlink:href="#SVGID_34_"  overflow="visible"/>
														</clipPath>
														<path clip-path="url(#SVGID_35_)" fill="#244982" d="M353.188,256.961l-1.344,2.109c0,0,2.492,3.828,1.727,9.391
															c0.961,0.766,1.914,1.336,2.492,1.727c0.188-2.688,0-5.18-0.383-7.289
															C354.531,259.453,353.188,256.961,353.188,256.961 M355.867,271.328c-0.383,0.578-1.148,1.352-2.102,2.109
															c0.375,0.773,0.57,1.727,0.766,2.883C355.297,274.594,355.68,272.867,355.867,271.328"/>
													</g>
												</g>
											</g>
										</g>
									</g>
								</g>
							</g>
						</g>
					</g>
				</g>
			</g>
			<g>
				<g>
					<g>
						<g>
							<g>
								<g>
									<g>
										<g>
											<g>
												<g>
													<g>
														<defs>
															<rect id="SVGID_36_" x="170.969" y="131.078" width="460.625" height="339.531"/>
														</defs>
														<clipPath id="SVGID_37_">
															<use xlink:href="#SVGID_36_"  overflow="visible"/>
														</clipPath>
														<path clip-path="url(#SVGID_37_)" fill="#191817" d="M354.336,255.234c0,0,1.148-1.914,1.344-5.555
															c0-3.641,4.023-3.062,4.023-3.062s1.344,3.258,1.719,5.172c0.195,1.727,2.109,3.266,2.875,3.266
															c1.727,0,4.414,0.18,4.414,0.18s-4.602,1.156-6.328,3.836C358.164,259.07,354.336,255.234,354.336,255.234"/>
													</g>
												</g>
											</g>
										</g>
									</g>
								</g>
							</g>
						</g>
					</g>
				</g>
			</g>
		</g>
		<g>
			<g>
				<path id="SVGID_208_" fill="#434343" d="M355.484,249.492c0,3.633-1.344,5.562-1.344,5.562s3.836,3.828,8.047,3.828
					c1.539-2.688,6.328-3.828,6.328-3.828s-2.68-0.203-4.406-0.203c-0.766,0-2.688-1.531-2.875-3.258
					c-0.383-1.914-1.727-5.164-1.727-5.164s-0.188,0-0.766,0C357.789,246.43,355.484,246.805,355.484,249.492"/>
			</g>
		</g>
		<g>
			<g>
				<g>
					<g>
						<g>
							<g>
								<g>
									<g>
										<g>
											<g>
												<g>
													<g>
														<defs>
															<path id="SVGID_38_" d="M355.484,249.492c0,3.633-1.344,5.562-1.344,5.562s3.836,3.828,8.047,3.828
																c1.539-2.688,6.328-3.828,6.328-3.828s-2.68-0.203-4.406-0.203c-0.766,0-2.688-1.531-2.875-3.258
																c-0.383-1.914-1.727-5.164-1.727-5.164s-0.188,0-0.766,0C357.789,246.43,355.484,246.805,355.484,249.492"/>
														</defs>
														<clipPath id="SVGID_39_">
															<use xlink:href="#SVGID_38_"  overflow="visible"/>
														</clipPath>
														<rect x="354.336" y="245.852" clip-path="url(#SVGID_39_)" fill="#434343" width="14.375" height="13.219"/>
													</g>
												</g>
											</g>
										</g>
									</g>
								</g>
							</g>
						</g>
					</g>
				</g>
			</g>
		</g>
		<g>
			<g>
				<g>
					<g>
						<g>
							<g>
								<g>
									<g>
										<g>
											<g>
												<g>
													<g>
														<defs>
															<rect id="SVGID_40_" x="170.969" y="131.078" width="460.625" height="339.531"/>
														</defs>
														<clipPath id="SVGID_41_">
															<use xlink:href="#SVGID_40_"  overflow="visible"/>
														</clipPath>
														<path clip-path="url(#SVGID_41_)" fill="#816661" d="M368.516,255.234c-1.531,0-3.258-0.18-4.602-0.18
															c-1.914,0-2.492-2.312-2.492-2.312l-0.953-3.25c0,0-0.766-0.391-1.344-1.148c-0.188-0.383-0.57-1.914,0.961-2.305
															c2.297-0.766,0.766-5.938,0.766-5.938l3.062-0.578l2.688,1.531c0,0,1.914,2.883,1.914,4.023
															c0.383,0.578,2.484,3.648,2.484,3.648s0,0.375-0.57,0.375c-0.766,0-1.336,0.195-1.336,0.195s0,0.773,0.375,1.539
															c0,0.188,0,0.375-0.375,0.758c0.188,0,0.375,0.195,0.375,0.578c-0.57,1.148,0.195,1.531,0.195,2.305
															C369.469,254.664,369.094,255.234,368.516,255.234"/>
													</g>
												</g>
											</g>
										</g>
									</g>
								</g>
							</g>
						</g>
					</g>
				</g>
			</g>
			<g>
				<g>
					<g>
						<g>
							<g>
								<g>
									<g>
										<g>
											<g>
												<g>
													<g>
														<defs>
															<rect id="SVGID_42_" x="170.969" y="131.078" width="460.625" height="339.531"/>
														</defs>
														<clipPath id="SVGID_43_">
															<use xlink:href="#SVGID_42_"  overflow="visible"/>
														</clipPath>
														<path clip-path="url(#SVGID_43_)" fill="#21366A" d="M356.062,240.867c7.664-4.016,10.148-3.836,10.727-1.727
															c0.195,0.383,0,1.336-0.383,1.727c-2.492-0.391-4.789-0.391-4.219,1.148c0.195,0.57,2.305,6.328,0.195,6.328
															c-0.383-0.773-1.531-2.875-3.062-2.109c-0.961,0.383,0,3.062-4.023,3.828
															C355.297,246.805,355.484,242.211,356.062,240.867"/>
													</g>
												</g>
											</g>
										</g>
									</g>
								</g>
							</g>
						</g>
					</g>
				</g>
			</g>
			<g>
				<g>
					<g>
						<g>
							<g>
								<g>
									<g>
										<g>
											<g>
												<g>
													<g>
														<defs>
															<rect id="SVGID_44_" x="170.969" y="131.078" width="460.625" height="339.531"/>
														</defs>
														<clipPath id="SVGID_45_">
															<use xlink:href="#SVGID_44_"  overflow="visible"/>
														</clipPath>
														<path clip-path="url(#SVGID_45_)" fill="#21366A" d="M323.867,396.641l-0.188,2.109h2.297l0.195-0.953l3.258,0.953
															h3.062c0,0,0.383-0.57-0.188-0.758c-0.195,0-3.07-0.773-3.07-0.773l-0.766-0.578H323.867z"/>
													</g>
												</g>
											</g>
										</g>
									</g>
								</g>
							</g>
						</g>
					</g>
				</g>
			</g>
			<g>
				<g>
					<g>
						<g>
							<g>
								<g>
									<g>
										<g>
											<g>
												<g>
													<g>
														<defs>
															<rect id="SVGID_46_" x="170.969" y="131.078" width="460.625" height="339.531"/>
														</defs>
														<clipPath id="SVGID_47_">
															<use xlink:href="#SVGID_46_"  overflow="visible"/>
														</clipPath>
														<path clip-path="url(#SVGID_47_)" fill="#21366A" d="M343.609,394.352l-0.195,2.672h2.305v-0.953l3.062,0.953h3.062
															c0,0,0.383-0.562-0.188-0.766c-0.195,0-3.07-0.758-3.07-0.758l-2.68-1.531L343.609,394.352z"/>
													</g>
												</g>
											</g>
										</g>
									</g>
								</g>
							</g>
						</g>
					</g>
				</g>
			</g>
			<g>
				<g>
					<g>
						<g>
							<g>
								<g>
									<g>
										<g>
											<g>
												<g>
													<g>
														<defs>
															<rect id="SVGID_48_" x="170.969" y="131.078" width="460.625" height="339.531"/>
														</defs>
														<clipPath id="SVGID_49_">
															<use xlink:href="#SVGID_48_"  overflow="visible"/>
														</clipPath>
														<path clip-path="url(#SVGID_49_)" fill="#21366A" d="M348.398,394.352c0,0-2.875,0.758-6.328,0.758
															c-0.383-16.281-1.148-29.117,1.539-36.984c-0.578-20.695-5.18-43.102-5.18-43.102l22.805,0.188L348.398,394.352z"/>
													</g>
												</g>
											</g>
										</g>
									</g>
								</g>
							</g>
						</g>
					</g>
				</g>
			</g>
			<g>
				<g>
					<g>
						<g>
							<g>
								<g>
									<g>
										<g>
											<g>
												<g>
													<g>
														<defs>
															<rect id="SVGID_50_" x="170.969" y="131.078" width="460.625" height="339.531"/>
														</defs>
														<clipPath id="SVGID_51_">
															<use xlink:href="#SVGID_50_"  overflow="visible"/>
														</clipPath>
														<path clip-path="url(#SVGID_51_)" fill="#415C97" d="M342.844,346.445l0.57,6.32c0,0,5.172-16.094,5.172-21.273
															C348.586,324.023,342.844,346.445,342.844,346.445"/>
													</g>
												</g>
											</g>
										</g>
									</g>
								</g>
							</g>
						</g>
					</g>
				</g>
			</g>
			<g>
				<g>
					<g>
						<g>
							<g>
								<g>
									<g>
										<g>
											<g>
												<g>
													<g>
														<defs>
															<rect id="SVGID_52_" x="170.969" y="131.078" width="460.625" height="339.531"/>
														</defs>
														<clipPath id="SVGID_53_">
															<use xlink:href="#SVGID_52_"  overflow="visible"/>
														</clipPath>
														<path clip-path="url(#SVGID_53_)" fill="#21366A" d="M353.57,315.602l-24.914,80.656c0,0-4.016,1.156-5.359,0.961
															c0.961-15.336,1.148-32.188,6.133-39.656c5.555-32.383,1.336-27.023,4.977-42.164
															C345.141,315.398,353.57,315.602,353.57,315.602"/>
													</g>
												</g>
											</g>
										</g>
									</g>
								</g>
							</g>
						</g>
					</g>
				</g>
			</g>
			<g>
				<g>
					<g>
						<g>
							<g>
								<g>
									<g>
										<g>
											<g>
												<g>
													<g>
														<defs>
															<rect id="SVGID_54_" x="170.969" y="131.078" width="460.625" height="339.531"/>
														</defs>
														<clipPath id="SVGID_55_">
															<use xlink:href="#SVGID_54_"  overflow="visible"/>
														</clipPath>
														<path clip-path="url(#SVGID_55_)" fill="#21366A" d="M367.555,246.234c0,0.195,0,0.195-0.57,0.383
															c-0.383,0-0.961,0-1.539,0c-0.188,0,0.766-0.188,1.922-0.961c0.383-0.188,0.188,0,0,0.195
															C367.555,245.852,367.555,246.039,367.555,246.234"/>
													</g>
												</g>
											</g>
										</g>
									</g>
								</g>
							</g>
						</g>
					</g>
				</g>
			</g>
		</g>
		<g>
			<g>
				<g>
					<g>
						<g>
							<g>
								<g>
									<g>
										<g>
											<g>
												<g>
													<defs>
														<rect id="SVGID_56_" x="395.344" y="185.688" width="121.094" height="219.773"/>
													</defs>
													<clipPath id="SVGID_57_">
														<use xlink:href="#SVGID_56_"  overflow="visible"/>
													</clipPath>

														<linearGradient id="SVGID_58_" gradientUnits="userSpaceOnUse" x1="439.7188" y1="-11109.9492" x2="891.6914" y2="-11109.9492" gradientTransform="matrix(0.1916 0 0 0.1916 328.3329 2430.0713)">
														<stop  offset="0" style="stop-color:#1B98B2"/>
														<stop  offset="1" style="stop-color:#1F869D"/>
													</linearGradient>
													<polygon clip-path="url(#SVGID_57_)" fill="url(#SVGID_58_)" points="499.188,392.812 412.781,403.547
														412.586,199.094 499.188,214.617 													"/>
												</g>
											</g>
										</g>
									</g>
								</g>
							</g>
						</g>
					</g>
				</g>
			</g>
		</g>
	</g>
	<g>
		<g>
			<g>
				<g>
					<g>
						<g>
							<g>
								<g>
									<defs>
										<rect id="SVGID_59_" x="170.969" y="131.078" width="460.625" height="339.531"/>
									</defs>
									<clipPath id="SVGID_60_">
										<use xlink:href="#SVGID_59_"  overflow="visible"/>
									</clipPath>
									<path clip-path="url(#SVGID_60_)" fill="#415C97" d="M339.586,346.055c-0.195,1.531-1.539,2.492-2.883,2.305l-22.602-2.305
										c-1.539-0.188-2.492-1.531-2.305-2.867l1.344-12.836c0.195-1.531,1.531-2.5,2.875-2.305l22.609,2.305
										c1.531,0.188,2.492,1.344,2.297,2.875L339.586,346.055z"/>
								</g>
							</g>
						</g>
					</g>
				</g>
			</g>
		</g>
	</g>
	<g>
		<g>
			<g>
				<g>
					<g>
						<g>
							<g>
								<g>
									<g>
										<g>
											<defs>
												<rect id="SVGID_61_" x="170.969" y="131.078" width="460.625" height="339.531"/>
											</defs>
											<clipPath id="SVGID_62_">
												<use xlink:href="#SVGID_61_"  overflow="visible"/>
											</clipPath>
											<polygon clip-path="url(#SVGID_62_)" fill="#16879E" points="412.781,403.734 408.367,403.156 408.367,199.672
												412.781,199.094 											"/>
										</g>
									</g>
								</g>
							</g>
						</g>
					</g>
				</g>
			</g>
		</g>
	</g>
</g>
</svg>
