<?xml version="1.0" encoding="utf-8"?>
<!-- Generator: Adobe Illustrator 16.0.0, SVG Export Plug-In . SVG Version: 6.00 Build 0)  -->
<!DOCTYPE svg PUBLIC "-//W3C//DTD SVG 1.1//EN" "http://www.w3.org/Graphics/SVG/1.1/DTD/svg11.dtd">
<svg version="1.1" id="Layer_1" xmlns="http://www.w3.org/2000/svg" xmlns:xlink="http://www.w3.org/1999/xlink" x="0px" y="0px"
	 width="800px" height="488.062px" viewBox="0 56.432 800 488.062" enable-background="new 0 0 800 600" xml:space="preserve">
<g opacity="0.25" id="Ebene_2_6_">
	<!-- <rect x="285.414" y="56.432" fill="#04729A" width="231.766" height="488.062"/> -->
	<path fill="#04729A" d="M440.922,120.428c-0.152,0-0.305-0.152-0.305-0.305s0.152-0.309,0.305-0.309s4.523-0.23,6.055-0.152
		c0.844,0.078,1.992,0,2.914-0.078c0.844-0.074,1.379-0.074,1.609-0.074c0.383,0.074,1.07,0,1.07,0c0.156,0,0.309,0.074,0.309,0.23
		c0,0.152-0.078,0.305-0.309,0.305c0,0-0.766,0.078-1.227,0c-0.152,0-0.844,0-1.453,0.078c-0.922,0.074-2.148,0.152-2.992,0.074
		C445.367,120.197,441,120.428,440.922,120.428L440.922,120.428"/>
	<path fill="#04729A" d="M440.922,101.729c-0.152,0-0.305-0.152-0.305-0.309c0-0.152,0.152-0.305,0.305-0.305
		s4.445-0.23,5.977-0.152c0.844,0.074,1.992,0,2.914-0.078c0.844-0.078,1.305-0.078,1.531-0.078c0.383,0.078,1.074,0,1.074,0
		c0.152,0,0.309,0.078,0.309,0.23s-0.078,0.309-0.309,0.309c0,0-0.766,0.074-1.227,0c-0.152,0-0.766,0-1.457,0.074
		c-0.918,0.078-2.07,0.156-2.988,0.078C445.367,101.498,441,101.729,440.922,101.729L440.922,101.729"/>
	<path fill="#04729A" d="M440.844,111.002c-0.152,0-0.305-0.152-0.305-0.309c0-0.152,0.152-0.305,0.305-0.305
		c1.227,0,2.684,0,2.836-0.078c0.078,0,0.309-0.074,3.375-0.074c0.609,0,1.914-0.078,2.297-0.156c0.156,0,0.461,0,0.922,0
		c0.609,0,1.453,0.078,2.145,0c0.152,0,0.309,0.156,0.309,0.309s-0.156,0.305-0.309,0.305c-0.766,0.078-1.609,0-2.223,0
		c-0.383,0-0.688,0-0.844,0c-0.305,0-1.762,0.156-2.375,0.156c-2.68,0-3.141,0.074-3.219,0.074
		C443.527,111.002,441.609,111.002,440.844,111.002"/>
	<path fill="#04729A" d="M441.074,92.377c-0.152,0-0.305-0.152-0.305-0.305c0-0.156,0.152-0.309,0.305-0.309
		c1.227,0,2.605,0,2.762-0.074c0.074,0,0.305-0.078,3.293-0.078c0.535,0,1.84-0.078,2.301-0.152c0.152,0,0.461,0,0.922,0
		c0.609,0,1.453,0.074,2.141,0c0.156,0,0.309,0.152,0.309,0.305s-0.074,0.309-0.309,0.309c-0.688,0.074-1.531,0-2.141,0
		c-0.387,0-0.691,0-0.844,0c-0.309,0-1.688,0.152-2.379,0.152c-2.605,0-3.066,0.074-3.141,0.074
		C443.758,92.377,441.844,92.377,441.074,92.377"/>
	<path fill="#04729A" d="M440.844,82.951c-0.152,0-0.305-0.152-0.305-0.309c0-0.152,0.152-0.305,0.305-0.305
		c0.156,0,4.445-0.23,5.98-0.152c0.84,0.074,1.992,0,2.91-0.078c0.844-0.078,1.305-0.078,1.535-0.078c0.383,0.078,1.074,0,1.074,0
		c0.148,0,0.305,0.078,0.305,0.309c0,0.152-0.078,0.305-0.305,0.305c0,0-0.77,0.078-1.227,0c-0.156,0-0.766,0-1.461,0.078
		c-0.914,0.078-2.066,0.152-2.984,0.078C445.289,82.721,440.922,82.951,440.844,82.951L440.844,82.951"/>
	<path fill="#04729A" d="M440.691,64.174c-0.152,0-0.309-0.156-0.309-0.309s0.156-0.305,0.309-0.305s4.523-0.23,6.055-0.152
		c0.844,0.074,1.996,0,2.914-0.078c0.84-0.078,1.379-0.078,1.609-0.078c0.383,0.078,1.074,0,1.074,0
		c0.148,0,0.305,0.078,0.305,0.309c0,0.152-0.078,0.305-0.305,0.305c0,0-0.77,0.078-1.227,0c-0.156,0-0.844,0-1.457,0.078
		c-0.918,0.074-2.145,0.152-2.988,0.074C445.215,63.943,440.77,64.174,440.691,64.174L440.691,64.174"/>
	<path fill="#04729A" d="M440.691,73.521c-0.152,0-0.309-0.152-0.309-0.305s0.156-0.309,0.309-0.309c1.301,0,2.684,0,2.91-0.074
		c0.078,0,0.309-0.078,3.375-0.078c0.613,0,1.914-0.074,2.375-0.152c0.156,0,0.539,0,0.922,0c0.609,0,1.453,0.078,2.145,0
		c0.152,0,0.309,0.152,0.309,0.305c0,0.156-0.156,0.309-0.309,0.309c-0.766,0.078-1.609,0-2.223,0c-0.383,0-0.766,0-0.844,0
		c-0.305,0-1.762,0.152-2.453,0.152c-2.758,0-3.141,0.078-3.219,0.078C443.453,73.447,441.535,73.521,440.691,73.521"/>
	<path fill="#04729A" d="M440.844,128.553c0,0,0.23-3.832,0.156-4.828c-0.078-0.996,0-2.684,0.074-2.758
		c0-0.156,0.152-0.309,0.309-0.309c0.152,0,0.305,0.152,0.305,0.309c0,0-0.078,1.684-0.078,2.68
		c0.078,0.996,0.078,4.754,0.078,4.828"/>
	<path fill="#04729A" d="M441.152,119.662c-0.152,0-0.309-0.152-0.309-0.305c0-0.156,0-3.066,0.078-3.832
		c0.078-0.691,0.078-4.062,0.078-4.062c0-0.156,0.152-0.309,0.305-0.309c0.156,0,0.305,0.152,0.305,0.309
		c0,0.074,0,3.449-0.074,4.137c-0.074,0.691-0.074,3.754-0.074,3.754C441.461,119.51,441.383,119.662,441.152,119.662"/>
	<path fill="#04729A" d="M441.305,110.389C441.305,110.389,441.227,110.389,441.305,110.389c-0.152,0-0.305-0.152-0.305-0.309
		c0,0,0.074-3.445,0-4.598c-0.156-1.148-0.156-3.219-0.156-3.293c0-0.156,0.156-0.309,0.309-0.309s0.309,0.152,0.309,0.309
		c0,0,0,2.066,0.074,3.219c0.152,1.148,0,4.598,0,4.672C441.609,110.236,441.461,110.389,441.305,110.389"/>
	<path fill="#04729A" d="M441.383,100.963c-0.156,0-0.309-0.156-0.309-0.309c0,0,0-3.449,0-4.828
		c0.078-1.688,0.078-3.066,0.078-3.066c0-0.152,0.152-0.305,0.309-0.305c0.148,0,0.305,0.152,0.305,0.305c0,0,0,1.457-0.078,3.066
		c0,1.379,0,4.75,0,4.828C441.688,100.807,441.535,100.963,441.383,100.963L441.383,100.963"/>
	<path fill="#04729A" d="M441.461,91.533c-0.156,0-0.309-0.152-0.309-0.305c0,0,0-1.688-0.078-2.988
		c0-1.305-0.074-4.906-0.074-4.984c0-0.152,0.152-0.305,0.305-0.305c0.156,0,0.305,0.152,0.305,0.305c0,0,0,3.68,0.078,4.906
		c0,1.301,0,2.988,0,2.988C441.766,91.459,441.609,91.533,441.461,91.533"/>
	<path fill="#04729A" d="M441.305,82.186L441.305,82.186c-0.152,0-0.305-0.156-0.305-0.309c0,0,0-4.062-0.156-5.133
		c-0.152-1.227-0.074-2.684-0.074-2.684c0-0.152,0.152-0.309,0.305-0.309s0.309,0.156,0.309,0.309c0,0-0.078,1.457,0.078,2.605
		c0.148,1.148,0.148,5.211,0.148,5.289C441.609,82.029,441.461,82.186,441.305,82.186"/>
	<path fill="#04729A" d="M441,72.682L441,72.682c-0.23,0-0.309-0.156-0.309-0.309c0,0,0.152-1.914,0-3.523
		c-0.23-1.688-0.074-4.219-0.074-4.293c0-0.152,0.152-0.309,0.305-0.309s0.305,0.156,0.305,0.309c0,0-0.152,2.527,0.078,4.137
		c0.23,1.688,0,3.602,0,3.68C441.305,72.604,441.152,72.682,441,72.682"/>
	<path fill="#04729A" d="M453.719,129.471c-0.074-1.227-0.148-10.113,0-13.945c0.078-3.297-0.074-6.898-0.148-8.203
		c0-0.23,0-0.383,0-0.461c0-0.152,0-1.531,0-3.141c0-3.371,0.074-5.98,0-6.363c0-0.305,0-2.375,0-4.367
		c0-2.145,0.074-4.367,0.074-5.363c0-1.227-0.074-2.609-0.152-3.68c0-0.539-0.078-0.996-0.078-1.152c0-0.152,0-0.457,0-0.918
		c0-0.918,0.078-2.223,0.078-2.758c0-0.77-0.078-10.27-0.078-10.348s-0.078-4.598,0-6.438c0-0.461,0.078-1.074,0.078-1.766h-0.613
		c0,0.613,0,1.227-0.078,1.688c-0.074,1.84,0,6.363,0,6.438c0,0.383,0,9.582,0.078,10.348c0,0.535,0,1.84-0.078,2.684
		c0,0.457,0,0.844,0,0.918c0,0.152,0,0.613,0.078,1.227c0.074,0.996,0.152,2.453,0.152,3.68c0,0.918,0,3.297-0.078,5.363
		c0,2.223-0.074,4.062,0,4.371c0,0.383,0,3.754,0,6.285c0,1.684,0,2.988,0,3.141c0,0.078,0,0.23,0,0.461
		c0.078,1.301,0.309,4.906,0.156,8.199c-0.078,3.832-0.078,12.723,0.078,14.027"/>
	<path fill="#04729A" d="M454.719,130.471c0-0.539,0-4.445,0.078-5.289c0-0.461,0-0.844,0-0.922c0-0.152,0-0.613-0.078-1.227
		c-0.078-0.996-0.156-2.453-0.156-3.676c0-0.922,0-3.297,0.078-5.367c0-2.223,0.078-4.062,0-4.367c0-0.383,0-3.758,0-6.285
		c0-1.688,0-2.988,0-3.145c0-0.074,0-0.23,0-0.457c-0.078-1.305-0.305-4.906-0.152-8.203c0.152-3.832,0.074-12.723-0.078-14.023
		c-0.074-1.305-0.152-4.602-0.074-5.215c0.074-0.457,0.152-8.277,0.152-11.727h-0.613c0,3.375-0.078,11.113-0.156,11.652
		c-0.074,0.766,0,4.062,0.078,5.363c0.078,1.227,0.156,10.117,0,13.949c-0.078,3.297,0.078,6.898,0.156,8.203
		c0,0.227,0,0.383,0,0.457c0,0.156,0,1.535,0,3.145c-0.078,3.371-0.078,5.977,0,6.359c0,0.309,0,2.379,0,4.371
		c0,2.145-0.078,4.367-0.078,5.363c0,1.227,0.078,2.605,0.152,3.68c0,0.535,0.078,0.996,0.078,1.148s0,0.461,0,0.922
		c0,0.918-0.078,4.828-0.078,5.363"/>
	<path fill="#04729A" d="M440.383,128.17c0-2.145,0.309-4.293,0.234-5.211c0-1.227-0.078-2.605-0.156-3.68
		c0-0.535-0.078-0.996-0.078-1.148c0-0.156,0-0.461,0-0.922c0-0.918,0.078-2.223,0.078-2.758c0-0.766-0.078-10.27-0.078-10.348
		c0.078-0.996,0.309-5.902,0.156-6.516c-0.078-0.305-0.078-2.527,0-4.676c0-1.301,0.078-2.836,0.078-4.215
		c0-2.68-0.156-7.281-0.234-9.734c0-0.918-0.074-1.531-0.074-1.684s0-0.613,0-1.227c0-1.992-0.074-5.594,0-6.133
		c0-0.23,0-0.766,0-1.609c-0.074-2.07-0.152-5.594-0.074-7.664h-0.617c-0.074,2.07,0,5.594,0.078,7.664c0,0.766,0,1.305,0,1.535
		c0,0.457,0,3.371,0,6.129c0,0.691,0,1.152,0,1.227c0,0.152,0,0.766,0.078,1.688c0.078,2.453,0.227,7.051,0.227,9.734
		c0,1.379,0,2.91,0,4.215c0,2.836-0.074,4.445,0.078,4.828c0.078,0.383,0,3.523-0.152,6.359c0,0.383,0,9.582,0.074,10.348
		c0,0.535,0,1.84-0.074,2.684c0,0.461,0,0.844,0,0.918c0,0.156,0,0.613,0.074,1.227c0.078,0.996,0.156,2.453,0.156,3.68
		c0,0.918-0.305,2.301-0.305,4.293"/>
	<path fill="#04729A" d="M440.617,60.725c0,1.07,0,2.297,0,2.297c0,0.156,0.152,0.309,0.305,0.309l0,0
		c0.152,0,0.305-0.152,0.305-0.309c0-0.074,0-1.227,0-2.297H440.617z"/>
	<path fill="#816661" d="M410.188,499.428c0.766,1.379,1.383,2.453,1.688,2.988c0.844,1.457,2.223,2.301,3.602,2.301
		c1.07,0,2.07-0.535,2.758-1.609c-0.078-0.152-0.305-0.461-0.535-0.918c-0.309-0.309-0.535-0.691-0.766-1.074
		c-0.387-0.613-1.074-1.84-1.918-3.371C413.562,498.279,411.875,498.814,410.188,499.428"/>
	<path fill="#04729A" d="M415.555,499.58c-0.234,0.078-0.617,0.539-0.309,1.074c0,0,0.535,0.996,0.535,1.074
		c0.309,0.688,0.691,1.148,1.152,1.148c0.535,0,1.074-0.23,1.074-0.23l-1.844-3.371C416.164,499.275,415.781,499.506,415.555,499.58
		"/>
	<path fill="#341D0F" d="M399.842,490.076c0.459,0.844,0.994,1.766,1.533,2.762c1.305-0.383,5.133-1.609,9.117-2.988
		c-0.148-0.309-0.383-0.613-0.535-0.922l-4.293-0.766L399.842,490.076z"/>
	<path fill="#816661" d="M414.555,485.326C414.633,485.404,414.633,485.404,414.555,485.326h-0.074H414.555z M409.883,489.006
		l2.145,0.383c-0.535,0.152-1.074,0.383-1.609,0.535C410.266,489.619,410.109,489.311,409.883,489.006 M420.535,495.521
		c0.996,1.762,1.84,3.141,2.223,3.832c0.078,0.152,0.152,0.305,0.305,0.457c0.539,0.996,1,1.766,1.148,2.07
		c-0.766,1.305-1.914,1.84-3.141,1.84c-1.148,0-2.375-0.535-3.219-1.531c-0.305-0.309-0.535-0.691-0.766-1.074
		c-0.383-0.613-1.07-1.84-1.914-3.371c1.684-0.613,3.141-1.074,4.137-1.457C419.691,496.135,420.152,495.826,420.535,495.521"/>
	<path fill="#04729A" d="M421.07,497.896c-0.227,0.152-0.688,0.613-0.383,1.227l0.613,1.148c0.383,0.766,0.77,1.305,1.301,1.305
		c0.617,0,1.227-0.23,1.227-0.23l-2.066-3.832C421.762,497.514,421.301,497.744,421.07,497.896"/>
	<path fill="#816661" d="M420.535,495.521c0.996,1.762,1.84,3.141,2.223,3.832c0.078,0.152,0.152,0.305,0.305,0.457
		c0.922,1.379,2.375,2.148,3.758,2.148c1.148,0,2.375-0.539,3.141-1.84c-0.461-0.844-2.453-4.445-4.672-8.355l-2.301-0.383
		C422.602,492.912,421.762,494.521,420.535,495.521 M414.633,485.326C414.633,485.404,414.633,485.404,414.633,485.326l5.211,0.996
		c-0.996-0.535-2.07-1.074-3.062-1.609L414.633,485.326z"/>
	<path fill="#04729A" d="M426.898,496.135c-0.234,0.152-0.691,0.609-0.383,1.223l0.609,1.152c0.383,0.766,0.766,1.301,1.305,1.301
		c0.613,0,1.227-0.23,1.227-0.23l-2.07-3.832C427.586,495.748,427.047,496.057,426.898,496.135"/>
	<path fill="#341D0F" d="M399.842,490.076l5.822-1.836l-7.586-1.383C398.615,487.854,399.152,488.928,399.842,490.076
		 M403.289,483.408l11.266,1.996h0.078l2.148-0.691c-2.836-1.531-5.52-2.914-6.516-3.449
		C408.656,481.725,405.82,482.568,403.289,483.408"/>
	<path fill="#816661" d="M393.709,478.506C393.787,478.506,393.787,478.506,393.709,478.506c0.691,1.227,1.227,2.375,1.764,3.449
		l7.738,1.379c2.609-0.766,5.367-1.688,6.898-2.145l0,0c-0.074-2.684-0.305-8.051-0.305-8.051l0,0l0,0L393.709,478.506z"/>
	<path fill="#816661" d="M410.188,481.264L410.188,481.264c0.996,0.461,3.68,1.918,6.516,3.449c1.07,0.535,2.07,1.148,3.062,1.609
		l0.695,0.152h0.074c0.309-0.074,0.535-0.152,0.691-0.23c0.148-0.074,0.305-0.152,0.457-0.152l0,0
		c0.309,0.23,0.535,0.535,0.691,0.844l8.047,1.457c0.844-0.766,1.305-1.918,1.148-3.145c-2.219-1.227-21.383-11.648-21.766-11.879
		l0,0C409.805,473.369,410.109,478.58,410.188,481.264"/>
	<path fill="#04729A" d="M426.82,483.408c-0.156,0.23-0.23,0.922,0.305,1.227l1.148,0.613c0.77,0.461,1.383,0.691,1.844,0.387
		c0.535-0.309,0.918-0.844,0.918-0.844l-3.832-2.07C427.203,482.643,426.973,483.182,426.82,483.408"/>
	<path fill="#816661" d="M420.609,486.4L420.609,486.4c0.309-0.078,0.539-0.156,0.691-0.23
		C421.07,486.244,420.844,486.322,420.609,486.4 M421.684,485.939L421.684,485.939L421.684,485.939 M391.871,495.979
		c0,0,4.291-1.301,8.66-2.758c1.531-0.461,6.668-2.148,11.57-3.832h-0.074c-0.535,0.152-1.074,0.383-1.609,0.535
		c-3.988,1.379-7.895,2.605-9.121,2.988c-0.535-0.996-1.07-1.914-1.533-2.758c-0.611-1.148-1.225-2.223-1.762-3.219l-7.436-1.305
		C391.258,491.303,391.871,495.979,391.871,495.979 M393.709,478.506c-0.996,0.305-2.529,0.844-3.525,2.375c0,0.078,0,0.078,0,0.152
		l5.365,0.922C394.936,480.881,394.4,479.732,393.709,478.506C393.787,478.506,393.787,478.506,393.709,478.506"/>
	<path fill="#816661" d="M421.684,485.939c-0.074,0.078-0.23,0.078-0.457,0.152c-0.156,0.078-0.383,0.152-0.691,0.23l0.309-0.078
		c0,0,0,0.078,0.074,0.23l1.535,0.23C422.219,486.475,421.992,486.17,421.684,485.939L421.684,485.939 M374.318,505.635
		c0,0,6.133,13.797,6.516,13.797l0,0c7.816-1.227,11.037-4.062,15.559-9.043c4.674-5.289,4.752-7.742,10.115-9.656
		c4.676-1.609,10.117-3.527,12.648-4.445c1.992-0.691,3.371-2.836,3.832-4.984l-5.902-1.07c-0.688,0.23-1.305,0.457-1.305,0.457
		c-0.152,0.078-0.305,0.078-0.383,0.078c-0.688,0-1.07-0.613-1.227-0.918c0-0.078,0-0.078-0.074-0.156l-1.996-0.383
		c-4.902,1.688-10.117,3.375-11.57,3.832c-4.369,1.457-8.66,2.762-8.66,2.762s-0.537-4.602-1.227-10.426l-3.143-0.535
		C381.906,493.834,374.318,505.635,374.318,505.635 M390.107,481.033h0.076c0-0.074,0-0.074,0-0.152
		C390.184,480.959,390.107,481.033,390.107,481.033"/>
	<path fill="#04729A" d="M414.098,489.693c0,0.078,0.074,0.078,0.074,0.156c0.078,0.305,0.539,0.918,1.227,0.918
		c0.156,0,0.23,0,0.383-0.078c0,0,0.617-0.227,1.305-0.457L414.098,489.693z M420.609,486.4L420.609,486.4l-0.148,0.074l0.457,0.078
		c0-0.152-0.074-0.23-0.074-0.23L420.609,486.4z"/>
	<polygon fill="#21366A" points="377.615,483.256 434.328,493.299 435.098,489.006 378.381,478.963 	"/>
	<polygon fill="#203D74" points="378.457,480.189 433.871,490.002 433.41,491.994 378.15,482.26 	"/>
	<polygon fill="#415C97" points="378.457,480.189 433.871,490.002 435.098,489.006 378.381,478.963 	"/>
	<polygon fill="#54B9CE" points="376.848,479.807 376.465,481.955 377.615,483.256 379.07,482.412 379.453,480.268 378.381,478.963
			"/>
	<path fill="#04729A" d="M377.539,481.033c-0.078,0.461,0.076,0.844,0.383,0.922c0.307,0.074,0.535-0.309,0.613-0.77
		c0.076-0.457-0.078-0.84-0.307-0.918C377.844,480.189,377.615,480.572,377.539,481.033"/>
	<polygon fill="#54B9CE" points="433.336,489.85 432.953,491.994 434.328,493.299 439.617,492.838 439.852,491.303 435.098,489.006
			"/>
	<path fill="#04729A" d="M439.234,490.998c0,0,1.609,0.766,2.148,0.996c0.535,0.23,0.535,0.535-0.23,0.613
		c-0.844,0.078-2.379,0.23-2.379,0.23s-0.305-0.383-0.148-0.996C438.699,491.303,439.234,490.998,439.234,490.998"/>
	<path fill="#816661" d="M400.684,493.143c-3.143,8.434,0.613,9.43,6.055,7.512c4.676-1.609,10.117-3.523,12.645-4.445
		c3.91-1.379,5.289-8.047,2.531-10.348C420.305,486.627,403.598,492.225,400.684,493.143"/>
	<path fill="#04729A" d="M413.945,488.697c0,0,0.227,0.766,0.383,1.074c0.152,0.305,0.688,1.148,1.609,0.844
		c0.078,0,2.988-0.996,3.062-1.074c1.152-0.383,1.992-0.766,2.148-1.531c0.152-0.844-0.078-1.766-0.078-1.766L413.945,488.697z"/>
	<path fill="#04729A" d="M413.945,488.697c0,0,0.227,0.766,0.383,1.074c0.152,0.305,0.688,1.148,1.609,0.844
		c0.078,0,2.988-0.996,3.062-1.074c1.152-0.383,1.992-0.766,2.148-1.531c0.152-0.844-0.078-1.766-0.078-1.766L413.945,488.697z"/>
	<polygon fill="#21366A" points="381.523,532.537 362.133,542.119 290.701,536.447 369.26,508.166 	"/>
	<path fill="#04729A" d="M382.596,527.939c-1.072,0.535-2.682,1.379-2.682,1.379l-10.654-21.152l5.059-2.531l10.578,21.078
		C384.896,526.713,383.977,527.174,382.596,527.939"/>
	<path fill="#D4DBE6" d="M376.695,529.701c0.613,0,1.227,0.309,1.533,0.922c0.383,0.844,0.076,1.84-0.768,2.223
		c-0.23,0.152-0.535,0.152-0.766,0.152c-0.613,0-1.227-0.309-1.533-0.918c-0.383-0.844-0.076-1.84,0.766-2.301
		C376.158,529.779,376.465,529.701,376.695,529.701"/>
	<path fill="#341D0F" d="M458.016,467.162c0,0,0.227-0.152,0.305-0.23h0.383c0.305,0.152,0.922,0.535,0.922,0.535
		c0.148,0.23,0.766,0.922,0.992,1.305c0.078,0.078,0.461,0.23,0.461,0.23l-0.688,0.383c0,0-0.691-0.078-0.844-0.309
		c-0.078-0.074-0.23-0.305-0.305-0.457c-0.309-0.461-0.844-0.461-1-0.613c-0.152-0.23,0-0.309,0-0.309s0.539,0.23,0.922,0.309
		c0-0.078,0-0.23,0-0.23l-0.539-0.461h-0.305c0,0-0.156,0.23-0.305,0.078c-0.156,0.074-0.234-0.078-0.234-0.078L458.016,467.162z"/>
	<path fill="#415C97" d="M476.867,478.963l-0.383-0.152c0,0,0.922-2.145,1.914-2.066
		C478.859,476.744,476.867,478.963,476.867,478.963"/>
	<polygon fill="#04729A" points="479.016,529.088 510.055,535.221 510.055,529.471 490.895,529.014 490.051,529.014
		490.512,529.166 488.977,529.014 488.059,529.014 506.68,531.389 481.926,528.936 481.082,529.014 481.695,529.244
		479.934,528.936 	"/>
	<path fill="#21366C" d="M483.227,475.361c0,0-2.68-1.07-6.898-1.148c-2.91-0.078-5.668-1.227-5.668-1.227l-9.965-4.215
		l-0.766,1.227c0,0,4.445,2.758,5.594,3.523c1.609,0.996,6.668,3.449,10.805,5.289C478.324,475.439,483.227,475.361,483.227,475.361
		"/>
	<path fill="#21366C" d="M475.641,483.104c0,2.988,1.148,8.508,2.453,11.496c1.379,3.219,1.379-10.805,1.379-10.805
		s2.301-9.504,0.309-8.434C478.633,476.053,475.562,479.119,475.641,483.104"/>
	<path fill="#415C97" d="M489.129,488.623c0,0-1.07-4.445-0.766-4.828c0.309-0.387,1.074,3.293,1.074,3.293L489.129,488.623z"/>
	<path fill="#54B9CE" d="M480.316,474.596c-0.309,0.383-0.766,0.996-1.227,1.762c-1.227,1.918-2.605,4.832-2.453,7.973
		c0.309,6.59,1.152,12.723,1.152,12.723l3.523,0.305c-0.152-0.766-0.305-1.684-0.461-2.68l-0.766-0.383
		c0,0-2.453-6.746-2.223-11.883c0.152-3.371,1.609-5.594,1.609-5.594s-0.152-0.305-0.074-0.691c0.074-0.688,0.535-0.84,0.535-0.84
		s0.152,0.535,0.691,1.07c-0.539,0.461-0.691,0.613-0.691,0.613s-0.918,1.766-0.691,5.289c0.078,1.148,0.309,2.301,0.539,3.371
		c-0.156-7.355,3.141-10.652,3.68-11.113l0,0c-0.156-0.152-0.234-0.227-0.234-0.227l-2.68-0.078
		C480.773,474.061,480.625,474.213,480.316,474.596"/>
	<path fill="#86BBC9" d="M479.703,497.971c0,0,0.688-3.832-0.305-5.898c-1.152-2.223-0.766-6.438-0.766-6.438
		s0.148,3.523,0.918,6.129c0.766,2.605,0.535,6.133,0.535,6.133L479.703,497.971L479.703,497.971z"/>
	<path fill="#21366C" d="M483.688,474.291c0,0-4.367,3.676-3.68,12.797c0.617,7.207,1.766,12.492,1.766,12.492
		s5.211,0.156,8.352-0.613c0.078-5.746-2.68-6.742-2.223-13.793C488.289,479.885,483.688,474.291,483.688,474.291"/>
	<path fill="#21366C" d="M488.059,496.744c0,0,0.152-3.676,1.07-8.277c-2.449-9.656,1.688-8.199,1.457-9.961
		c-0.23-0.461-0.613-0.844-0.996-1.074c-3.832-1.914-5.902-3.141-5.902-3.141s-3.68,4.445-0.535,10.5
		C486.219,490.92,488.059,496.744,488.059,496.744"/>
	<path fill="#74438D" d="M480.008,475.209c0,0-0.383,0.152-0.535,0.844c-0.074,0.383,0.078,0.691,0.078,0.691
		s-1.457,2.297-1.609,5.594c-0.309,5.133,2.223,11.879,2.223,11.879l2.527,1.227l0.152-2.605c0,0-3.141-5.594-3.445-10.652
		c-0.234-3.527,0.688-5.289,0.688-5.289s0.156-0.152,0.688-0.613C480.164,475.744,480.008,475.209,480.008,475.209"/>
	<path fill="#234883" d="M482.691,475.9c-0.613,1.301-1.223,3.371-0.691,5.898c-0.531,1.227-1.301,3.449-1.609,5.367
		c-0.074-0.152-0.074-0.383-0.148-0.539c-0.156-4.059,0.609-7.051,1.453-9.043C482,476.971,482.387,476.357,482.691,475.9"/>
	<path fill="#234883" d="M483.609,474.674c0,0-0.074,0.918-0.148,1.531c-0.156,0.844-0.309,1.84-0.309,2.836
		c-0.691,0.383-1.301,0.613-1.301,0.613s-0.078,0.613,0.535,1.379c-0.152,0.156-0.23,0.461-0.387,0.766
		c-0.531-2.527,0.078-4.598,0.691-5.898C483.227,475.131,483.609,474.674,483.609,474.674"/>
	<path fill="#565391" d="M480.242,486.627c0.074,0.156,0.074,0.387,0.148,0.539c0,0.23-0.074,0.461-0.074,0.613
		C480.316,487.396,480.242,487.014,480.242,486.627"/>
	<path fill="#21366C" d="M481.926,528.244v0.77h-0.844v-0.383l-1.227,0.383h-0.84c0,0-0.156-0.23,0.074-0.23
		c0.074,0,0.691-0.152,0.691-0.152l0.688-0.461L481.926,528.244z"/>
	<path fill="#21366C" d="M480.391,528.018c0,0,0.844,0.383,2.07,0.383c0.309-7.82,1.305-11.039,0.617-15.559
		c0.531-7.742,2.91-15.637,2.91-15.637l-8.199-0.152L480.391,528.018z"/>
	<path fill="#415C97" d="M483.766,507.018l-0.23,1.762c0,0-1.074-3.297-0.996-5.289
		C482.539,500.732,483.766,507.018,483.766,507.018"/>
	<path fill="#21366C" d="M480.625,497.053l8.734,31.117c0,0,1.457-0.078,1.992-0.152c-0.305-5.98-0.688-12.035-2.145-15.254
		c-0.691-8.582,0.078-11.035-0.535-15.633C484.762,497.205,480.625,497.053,480.625,497.053"/>
	<path fill="#415C97" d="M486.832,508.854c0,0.539,0.457,1.074,0.996,1.074l8.965,0.309c0.539,0,1.074-0.461,1.074-0.996
		l0.152-5.137c0-0.535-0.457-1.074-0.996-1.074l-8.965-0.305c-0.539,0-1.074,0.461-1.074,0.996L486.832,508.854z"/>
	<path fill="#21366C" d="M487.52,508.854c0,0.539,0.461,1.074,0.996,1.074l8.969,0.309c0.535,0,1.074-0.461,1.074-0.996l0.152-5.137
		c0-0.535-0.461-1.074-0.996-1.074l-8.969-0.305c-0.535,0-1.07,0.461-1.07,0.996L487.52,508.854z"/>
	<path fill="#21366C" d="M492.504,501.959L492.504,501.959l1.609,0.074c0.457,0,0.844,0.383,0.844,0.844s-0.387,0.844-0.844,0.844
		l0,0l-1.535-0.078c-0.457,0-0.844-0.383-0.844-0.844C491.66,502.342,492.043,501.959,492.504,501.959 M494.035,504.256
		c0.691,0,1.305-0.535,1.305-1.301s-0.539-1.379-1.305-1.379l-1.531-0.078c-0.77,0-1.379,0.535-1.379,1.301
		c0,0.77,0.535,1.383,1.301,1.383L494.035,504.256L494.035,504.256z"/>
	<path fill="#04729A" d="M492.348,507.092c0,0.383,0.309,0.766,0.691,0.766s0.766-0.305,0.766-0.688v-0.766
		c0-0.383-0.305-0.77-0.688-0.77s-0.77,0.309-0.77,0.691V507.092z"/>
	<path fill="#21366C" d="M492.887,506.557c0-0.152,0.152-0.309,0.305-0.309s0.309,0.156,0.309,0.309c0,0.078-0.078,0.152-0.156,0.23
		v0.383c0,0.074-0.074,0.152-0.152,0.152c-0.074,0-0.152-0.078-0.152-0.152v-0.383C492.887,506.709,492.887,506.635,492.887,506.557
		"/>
	<path fill="#341D0F" d="M493.422,499.811c0,0-0.613,0.461-0.766,0.539c-0.23,0.227-0.461,0.766-1.305,1.148
		c-0.074,0,0.309,0.23,0.539,0.078c0.383-0.156,0.766-0.156,0.766-0.156l0.078,0.539h-0.309c0,0,0.152,0.305,0.309,0.535
		c0.074,0.152,0.227,0.078,0.305,0.078c0.078-0.078,0.078-0.078,0.152-0.078c0.152,0,0.23,0.078,0.383-0.078
		c0.156-0.074,0.23,0,0.383-0.074c0.078-0.078,0.078-0.23,0.078-0.23s-0.078-0.383-0.078-0.691c-0.074-0.383-0.152-1.07-0.152-1.07
		l-0.074-0.309L493.422,499.811z"/>
	<path fill="#21366C" d="M494.113,500.576l-1.992-0.152c0,0-0.461-8.199-4.523-18.316c0.078-0.152,1.688-7.203,3.297-3.066
		C494.648,488.775,494.113,500.576,494.113,500.576"/>
	<path fill="#A0CBD6" d="M483.461,474.061l0.227,0.23l-2.527,2.223c0,0-0.613-0.387-1.074-1.383
		C481.926,475.209,483.461,474.061,483.461,474.061"/>
	<path fill="#21366C" d="M490.969,528.244v0.77h-0.844v-0.383l-1.227,0.383h-0.84c0,0-0.156-0.23,0.074-0.23
		c0.078,0,0.691-0.152,0.691-0.152l0.688-0.461L490.969,528.244z"/>
	<path fill="#04729A" d="M453.645,490.232c0.152,0,0.309-0.156,0.309-0.309s-0.156-0.305-0.309-0.305s-4.371-0.23-5.902-0.156
		c-0.844,0.078-1.688,0-2.297-0.074c-0.539-0.078-0.922-0.078-1.148,0c-0.156,0-0.309,0.152-0.234,0.305
		c0,0.156,0.156,0.309,0.309,0.23c0.152,0,0.613,0,0.996,0c0.688,0.078,1.531,0.078,2.375,0.078
		C449.273,490.002,453.57,490.232,453.645,490.232L453.645,490.232z"/>
	<path fill="#04729A" d="M453.797,471.607c0.156,0,0.309-0.152,0.309-0.309c0-0.152-0.152-0.305-0.309-0.305
		c-0.152,0-4.367-0.23-5.898-0.152c-0.844,0.074-1.918,0-2.836-0.078c-0.844-0.074-1.305-0.074-1.535-0.074
		c-0.383,0.074-0.996,0-1.074,0c-0.152,0-0.305,0.074-0.305,0.227c0,0.156,0.078,0.309,0.23,0.309c0,0,0.691,0.074,1.223,0
		c0.156,0,0.77,0,1.383,0.074c0.922,0.078,2.07,0.156,2.914,0.078C449.43,471.377,453.719,471.607,453.797,471.607L453.797,471.607z
		"/>
	<path fill="#04729A" d="M453.645,480.959c0.152,0,0.309-0.156,0.309-0.309s-0.156-0.305-0.309-0.305c-1.227,0-2.605,0-2.762-0.078
		c-0.074,0-0.305-0.078-3.219-0.078c-0.535,0-1.836-0.074-2.219-0.152c-0.156,0-0.461,0-0.922,0c-0.613,0-1.379,0.078-2.07,0
		c-0.152,0-0.305,0.152-0.305,0.309c0,0.152,0.078,0.305,0.305,0.305c0.691,0.078,1.535,0,2.148,0c0.383,0,0.688,0,0.844,0
		c0.305,0,1.684,0.152,2.297,0.152c2.609,0,3.066,0.078,3.066,0.078C450.961,480.959,452.801,480.959,453.645,480.959"/>
	<path fill="#04729A" d="M453.645,462.334c0.152,0,0.309-0.152,0.309-0.309c0-0.152-0.156-0.305-0.309-0.305
		c-1.227,0-2.605,0-2.762-0.078c-0.074,0-0.305-0.074-3.293-0.074c-0.535,0-1.84-0.078-2.301-0.156c-0.152,0-0.461,0-0.918,0
		c-0.613,0-1.457,0.078-2.07,0c-0.152,0-0.309,0.078-0.309,0.309c0,0.152,0.078,0.305,0.309,0.305c0.691,0.078,1.535,0,2.145,0
		c0.383,0,0.691,0,0.844,0c0.309,0,1.688,0.156,2.301,0.156c2.605,0,3.066,0.074,3.145,0.074
		C451.039,462.256,452.879,462.334,453.645,462.334"/>
	<path fill="#04729A" d="M453.797,452.982c0.156,0,0.309-0.152,0.309-0.305c0-0.156-0.152-0.309-0.309-0.309
		c-0.152,0-4.367-0.23-5.898-0.152c-0.844,0.078-1.918,0-2.836-0.078c-0.844-0.074-1.305-0.074-1.535-0.074
		c-0.383,0.074-1.074,0-1.074,0c-0.152,0-0.305,0.074-0.305,0.227c0,0.156,0.078,0.309,0.23,0.309c0,0,0.691,0.078,1.223,0
		c0.156,0,0.77,0,1.383,0.078c0.922,0.074,2.07,0.152,2.914,0.074C449.43,452.752,453.719,452.982,453.797,452.982L453.797,452.982z
		"/>
	<path fill="#04729A" d="M453.797,434.51c0.156,0,0.309-0.152,0.309-0.305s-0.152-0.305-0.309-0.305
		c-0.152,0-4.367-0.23-5.824-0.156c-0.844,0.078-1.918,0-2.836-0.074c-0.84-0.078-1.301-0.078-1.535-0.078
		c-0.383,0.078-0.992,0-0.992,0c-0.156,0-0.309,0.078-0.309,0.23s0.078,0.305,0.23,0.305c0,0,0.688,0.078,1.227,0
		c0.152,0,0.766,0,1.379,0.078c0.918,0.078,2.07,0.152,2.91,0.078C449.43,434.357,453.719,434.51,453.797,434.51L453.797,434.51z"/>
	<path fill="#04729A" d="M453.875,443.709c0.152,0,0.305-0.152,0.305-0.309c0-0.152-0.152-0.305-0.305-0.305
		c-1.227,0-2.605,0-2.758-0.078c-0.078,0-0.309-0.074-3.219-0.074c-0.539,0-1.844-0.078-2.301-0.152c-0.152,0-0.461,0-0.918,0
		c-0.617,0-1.383,0.074-2.07,0c-0.156,0-0.309,0.152-0.309,0.305s0.078,0.305,0.309,0.305c0.688,0.078,1.531,0,2.145,0
		c0.383,0,0.691,0,0.844,0c0.309,0,1.684,0.156,2.301,0.156c2.602,0,3.062,0.074,3.062,0.074
		C451.191,443.709,453.109,443.709,453.875,443.709"/>
	<path fill="#04729A" d="M453.645,425.314c0.152,0,0.309-0.152,0.309-0.305c0-0.156-0.156-0.309-0.309-0.309
		c-1.227,0-2.527,0-2.684-0.078c-0.078,0-0.305-0.074-3.219-0.074c-0.535,0-1.836-0.078-2.223-0.152c-0.152,0-0.457,0-0.918,0
		c-0.613,0-1.383,0.074-2.07,0c-0.152,0-0.305,0.074-0.305,0.305c0,0.152,0.074,0.309,0.305,0.309c0.688,0.074,1.531,0,2.148,0
		c0.383,0,0.688,0,0.84,0c0.309,0,1.688,0.152,2.301,0.152c2.605,0,2.988,0.074,3.062,0.074
		C451.039,425.314,452.879,425.314,453.645,425.314"/>
	<path fill="#04729A" d="M453.875,415.963c0.152,0,0.305-0.152,0.305-0.305s-0.152-0.309-0.305-0.309
		c-0.156,0-4.367-0.23-5.828-0.152c-0.84,0.078-1.914,0-2.832-0.078c-0.844-0.074-1.305-0.074-1.535-0.074
		c-0.383,0.074-0.996,0-0.996,0c-0.152,0-0.305,0.074-0.305,0.23c0,0.152,0.074,0.305,0.23,0.305c0,0,0.688,0.078,1.227,0
		c0.152,0,0.766,0,1.379,0.078c0.918,0.078,2.066,0.152,2.91,0.078C449.508,415.811,453.797,415.963,453.875,415.963
		L453.875,415.963z"/>
	<path fill="#04729A" d="M454.027,397.494c0.152,0,0.309-0.156,0.309-0.309s-0.156-0.305-0.309-0.305s-4.367-0.23-5.902-0.152
		c-0.844,0.074-1.914,0-2.836-0.078c-0.844-0.078-1.301-0.078-1.531-0.078c-0.383,0.078-1.074,0-1.074,0
		c-0.152,0-0.305,0.078-0.305,0.23s0.074,0.309,0.23,0.309c0,0,0.688,0.074,1.227,0c0.152,0,0.766,0,1.379,0.074
		c0.918,0.078,2.066,0.152,2.91,0.078C449.66,397.338,453.953,397.494,454.027,397.494L454.027,397.494z"/>
	<path fill="#04729A" d="M454.027,406.689c0.152,0,0.309-0.152,0.309-0.305c0-0.156-0.156-0.309-0.309-0.309
		c-1.227,0-2.605,0-2.836-0.074c-0.074,0-0.309-0.078-3.293-0.078c-0.539,0-1.844-0.078-2.301-0.152c-0.152,0-0.461,0-0.918,0
		c-0.617,0-1.461,0.074-2.148,0c-0.152,0-0.305,0.074-0.305,0.305c0,0.152,0.074,0.309,0.305,0.309c0.688,0.074,1.531,0,2.223,0
		c0.383,0,0.691,0,0.844,0c0.309,0,1.684,0.152,2.375,0.152c2.684,0,3.066,0.078,3.145,0.078
		C451.344,406.689,453.262,406.689,454.027,406.689"/>
	<path fill="#04729A" d="M453.109,489.389L453.109,489.389c0.152,0,0.305-0.152,0.305-0.309c0,0-0.078-1.684,0-2.527
		c0.156-0.844,0-5.137,0-5.211c0-0.152-0.152-0.309-0.305-0.309c-0.156,0-0.309,0.156-0.309,0.309c0,0,0.152,4.293,0,5.059
		c-0.152,0.844-0.074,2.605-0.074,2.68C452.879,489.311,452.953,489.389,453.109,489.389"/>
	<path fill="#04729A" d="M453.262,480.115L453.262,480.115c0.152,0,0.309-0.152,0.309-0.309c0,0,0-4.98,0-5.824v-1.992
		c0-0.152-0.156-0.309-0.309-0.309s-0.309,0.156-0.309,0.309v1.992c0,0.844,0,5.75,0,5.824
		C452.953,480.037,453.109,480.115,453.262,480.115"/>
	<path fill="#04729A" d="M453.492,470.686L453.492,470.686c0.152,0,0.305-0.152,0.305-0.305c0,0-0.152-2.605-0.078-3.68
		c0-1.148,0.078-3.91,0.078-3.984c0-0.152-0.152-0.309-0.305-0.309c-0.156,0-0.305,0.156-0.305,0.309c0,0,0,2.836-0.078,3.91
		c-0.078,1.148,0.078,3.602,0.078,3.754S453.336,470.686,453.492,470.686"/>
	<path fill="#04729A" d="M453.414,461.643L453.414,461.643c0.156,0,0.305-0.152,0.305-0.305c0,0-0.074-4.141,0-5.137
		c0-0.996,0-2.684,0-2.684c0-0.152-0.148-0.305-0.305-0.305c-0.152,0-0.305,0.152-0.305,0.305c0,0,0.078,1.688,0,2.684
		c0,0.996,0,5.059,0,5.137C453.109,461.49,453.262,461.643,453.414,461.643"/>
	<path fill="#04729A" d="M453.57,452.217c0.148,0,0.305-0.152,0.305-0.309c0-0.152,0-3.062-0.078-3.754s-0.078-3.984-0.078-4.062
		c0-0.152-0.148-0.305-0.305-0.305c-0.152,0-0.305,0.152-0.305,0.305c0,0.078,0,3.371,0.078,4.141
		c0.074,0.688,0.074,3.676,0.074,3.676C453.262,452.064,453.336,452.217,453.57,452.217"/>
	<path fill="#04729A" d="M453.414,443.096L453.414,443.096c0.156,0,0.305-0.152,0.305-0.305c0,0-0.074-3.449,0-4.523
		c0.078-1.148,0.078-3.141,0.078-3.219c0-0.152-0.152-0.309-0.305-0.309c-0.156,0-0.305,0.156-0.305,0.309c0,0,0,2.07-0.078,3.219
		s0,4.523,0,4.598C453.188,442.943,453.262,443.096,453.414,443.096"/>
	<path fill="#04729A" d="M453.336,433.822c0.156,0,0.309-0.152,0.309-0.305c0,0,0-3.449,0-4.754
		c-0.074-1.609-0.074-2.988-0.074-3.066c0-0.152-0.156-0.305-0.309-0.305s-0.309,0.152-0.309,0.305c0,0,0,1.379,0.078,3.066
		c0,1.305,0,4.754,0,4.754C453.031,433.67,453.188,433.822,453.336,433.822L453.336,433.822z"/>
	<path fill="#04729A" d="M453.262,424.549c0.152,0,0.309-0.152,0.309-0.309c0,0,0-1.684,0-2.91s0.074-4.906,0.074-4.906
		c0-0.152-0.152-0.305-0.309-0.305c-0.148,0-0.305,0.152-0.305,0.305c0,0,0,3.602-0.078,4.906c0,1.227,0,2.91,0,2.988
		S453.109,424.549,453.262,424.549"/>
	<path fill="#04729A" d="M453.414,415.275L453.414,415.275c0.156,0,0.305-0.156,0.305-0.309c0,0,0-3.984,0.156-5.059
		c0.152-1.148,0.078-2.605,0.078-2.68c0-0.156-0.156-0.309-0.309-0.309s-0.309,0.152-0.309,0.309c0,0,0.078,1.453-0.074,2.527
		c-0.152,1.148-0.152,5.137-0.152,5.211C453.109,415.119,453.262,415.275,453.414,415.275"/>
	<path fill="#04729A" d="M453.719,405.924L453.719,405.924c0.234,0,0.309-0.152,0.309-0.305c0,0-0.152-1.84,0-3.527
		s0.078-4.137,0.078-4.215c0-0.152-0.152-0.309-0.309-0.309c-0.152,0-0.305,0.156-0.305,0.309c0,0,0.152,2.453-0.078,4.137
		c-0.152,1.688,0,3.527,0,3.605C453.414,405.771,453.57,405.924,453.719,405.924"/>
	<path fill="#04729A" d="M441.305,486.17c0-1.152-0.078-2.301,0-3.066c0-0.535,0-1.074,0-1.688c0-0.844,0-1.684,0.078-2.605
		c0.078-1.531,0-10.957-0.078-11.648c-0.078-0.766,0-4.062,0.078-5.289s0.152-9.965,0-13.719c-0.078-3.297,0.078-6.82,0.152-8.125
		c0-0.23,0-0.383,0-0.457c0-0.156,0-1.535,0-3.066c0-3.297-0.074-5.902,0-6.285c0-0.309,0-2.301,0-4.293
		c0-2.145-0.074-4.367-0.074-5.289c0-1.227,0.074-2.605,0.148-3.602c0-0.535,0.078-0.996,0.078-1.148s0-0.461,0-0.922
		c0-0.918-0.078-2.223-0.078-2.758c0-0.766,0.078-10.117,0.078-10.195c0-0.074,0.078-4.52,0-6.281c0-0.461-0.078-1.074-0.078-1.688
		h0.617c0,0.613,0,1.227,0.074,1.688c0.078,1.762,0,6.281,0,6.359c0,0.383,0,9.426-0.074,10.195c0,0.535,0,1.84,0.074,2.68
		c0,0.461,0,0.77,0,0.922s0,0.613-0.074,1.227c-0.078,0.996-0.156,2.375-0.156,3.602c0,0.918,0,3.219,0.078,5.289
		c0,2.145,0.078,3.984,0,4.367c0,0.383,0,3.754,0,6.207c0,1.609,0,2.914,0,3.145c0,0.074,0,0.23,0,0.461
		c-0.078,1.301-0.305,4.828-0.156,8.047c0.078,3.832,0.078,12.566,0,13.793c-0.074,1.305-0.148,4.523-0.074,5.137
		c0.074,0.691,0.23,10.195,0.074,11.727c-0.074,0.918-0.074,1.762-0.074,2.527c0,0.613,0,1.152,0,1.688c0,0.766,0,1.84,0,2.988
		c0,0.844,0,1.688,0,2.453c0,1.918-0.074,3.832-0.074,3.832c0,0.152-0.156,0.309-0.309,0.309l0,0c-0.152,0-0.309-0.156-0.309-0.309
		c0,0,0.078-1.914,0.078-3.832C441.383,487.779,441.305,486.936,441.305,486.17"/>
	<path fill="#04729A" d="M440.234,467.854c0-0.387,0-9.43,0.074-10.195c0-0.535,0-1.84-0.074-2.684c0-0.461,0-0.844,0-0.918
		c0-0.156,0-0.613,0.074-1.227c0.074-0.996,0.152-2.375,0.152-3.602c0-0.922,0-3.219-0.078-5.289c0-2.148-0.074-3.984,0-4.367
		c0-0.387,0-3.758,0-6.211c0-1.609,0-2.91,0-3.141c0-0.078,0-0.23,0-0.461c0.078-1.305,0.309-4.828,0.156-8.047
		c-0.078-3.832-0.078-12.57,0-13.797c0.078-1.301,0.152-4.523,0.078-5.133c-0.078-0.461-0.156-5.367-0.156-8.738h0.613
		c0,3.371,0.078,8.199,0.152,8.66c0.078,0.766,0,4.062-0.074,5.289c-0.078,1.227-0.152,9.961,0,13.719
		c0.074,3.297-0.078,6.82-0.152,8.125c0,0.227,0,0.383,0,0.457c0,0.156,0,1.535,0,3.066c0,3.297,0.074,5.902,0,6.285
		c0,0.309,0,2.301,0,4.293c0,2.145,0.074,4.367,0.074,5.289c0,1.227-0.074,2.605-0.152,3.602c0,0.535-0.078,0.996-0.078,1.148
		s0,0.461,0,0.922c0,0.918,0.078,2.223,0.078,2.758c0,0.766-0.078,10.117-0.078,10.195c0,0.152,0,3.676-0.227,5.441
		c-0.234,1.762-0.078,7.203-0.078,7.277c0,0.156-0.156,0.309-0.305,0.309l0,0c-0.156,0-0.309-0.152-0.309-0.309
		c0-0.227-0.152-5.594,0.074-7.355C440.234,471.455,440.234,467.928,440.234,467.854"/>
	<path fill="#04729A" d="M452.57,519.814c0-0.688,0.078-2.145,0.156-3.68c0.074-1.762,0.152-3.984,0.152-4.289
		c-0.078-0.613-0.078-4.602-0.078-5.137c0-0.23,0-0.918,0-1.609c0-0.766-0.074-1.688,0-2.301c0-0.535,0-1.992,0.078-3.371
		c0-1.379,0-2.836,0.074-3.523c0.078-1.305,0.078-4.984,0.078-5.059c0-0.156,0.156-0.309,0.305-0.309l0,0
		c0.156,0,0.309,0.152,0.309,0.309c0,0-0.074,3.676-0.074,5.059c0,0.688,0,2.145-0.078,3.523c0,1.457,0,2.914-0.078,3.449
		c0,0.535,0,1.457,0,2.223s0.078,1.379,0,1.688c-0.078,0.535-0.078,4.445,0.078,4.98c0.078,0.305,0,1.918-0.078,4.367
		c-0.078,1.457-0.152,2.992-0.152,3.605c0,1.07,0,3.676,0,5.363c0,0.844,0,1.531,0,1.688c0,0.074,0,0.152,0,0.23
		c0,0.074,0,0.152,0,0.227c0,0,0,0,0.152,0.078c0.23,0.078,0.383-0.152,0.539-0.23c0-0.383,0.074-2.07,0.074-3.754
		c0-0.766,0-1.609,0-2.453c0-1.148-0.074-2.301,0-3.066c0-0.535,0-1.074,0-1.688c0-0.84,0-1.684,0.078-2.605
		c0.074-1.531,0-10.957-0.078-11.648c-0.074-0.766,0-4.062,0.078-5.289c0.074-1.227,0.152-9.961,0-13.719
		c-0.078-3.293,0.074-6.82,0.152-8.125c0-0.23,0-0.383,0-0.457c0-0.156,0-1.535,0-3.066c0-3.297-0.078-5.902,0-6.285
		c0-0.309,0-2.301,0-4.293c0-2.145-0.078-4.367-0.078-5.289c0-1.227,0.078-2.605,0.156-3.602c0-0.535,0.074-0.996,0.074-1.148
		s0-0.461,0-0.922c0-0.918-0.074-2.223-0.074-2.758c0-0.766,0.074-10.117,0.074-10.191c-0.074-1-0.305-5.828-0.152-6.441
		c0.078-0.305,0.078-2.449,0-4.598c0-1.301,0-2.836,0-4.215c0-2.605,0.152-7.129,0.23-9.582c0-0.84,0.074-1.531,0.074-1.609
		c0-0.152,0-0.613,0-1.227c0-1.914,0.078-5.516,0-6.055c0-0.227,0-0.766,0-1.531c0.078-2.07,0.156-5.52,0.078-7.512h0.613
		c0.074,2.07,0,5.52-0.074,7.59c0,0.766,0,1.301,0,1.531c0,0.461,0,3.371,0,6.055c0,0.613,0,1.148,0,1.227
		c0,0.152,0,0.766-0.078,1.688c-0.078,2.453-0.23,6.973-0.23,9.578c0,1.379,0,2.836,0,4.141c0,2.758,0.074,4.367-0.074,4.75
		c-0.078,0.309,0,3.449,0.148,6.285c0,0.383,0,9.426-0.074,10.195c0,0.535,0,1.84,0.074,2.68c0,0.461,0,0.77,0,0.922
		s0,0.613-0.074,1.227c-0.074,0.996-0.152,2.375-0.152,3.602c0,0.918,0,3.219,0.078,5.289c0,2.145,0.074,3.984,0,4.367
		c0,0.383,0,3.754,0,6.207c0,1.609,0,2.914,0,3.145c0,0.074,0,0.23,0,0.461c-0.078,1.301-0.309,4.828-0.156,8.047
		c0.078,3.832,0.078,12.566,0,13.793c-0.078,1.305-0.152,4.523-0.078,5.137c0.078,0.691,0.234,10.195,0.078,11.727
		c-0.078,0.918-0.078,1.762-0.078,2.527c0,0.613,0,1.152,0,1.688c0,0.766,0,1.84,0,2.988c0,0.844,0,1.688,0,2.453
		c0,1.918-0.074,3.832-0.074,3.832v0.078l-0.078,0.074c-0.152,0.23-0.535,0.613-0.996,0.613c-0.078,0-0.152,0-0.152,0
		c-0.691-0.152-0.613-0.613-0.613-0.918c0-0.078,0-0.152,0-0.23c0-0.152,0-0.766,0-1.609
		C452.57,523.494,452.57,520.889,452.57,519.814"/>
	<path fill="#04729A" d="M454.105,394.119c0,1,0,2.223,0,2.223c0,0.156-0.152,0.309-0.309,0.309l0,0
		c-0.152,0-0.305-0.152-0.305-0.309c0-0.074,0-1.223,0-2.297h0.613V394.119z"/>
	<path fill="#AE7D5D" d="M479.164,470.229c-0.074,0.152,0,0.152,0.078,0.23c0.156,0.074,0.613,0.23,0.613,0.152
		s-0.23-0.23-0.535-0.613C479.242,469.92,479.164,470.072,479.164,470.229"/>
	<path fill="#04729A" d="M441.461,386.838c-0.156,0-0.309-0.152-0.309-0.305s0.152-0.305,0.309-0.305
		c0.148,0,4.445-0.23,5.977-0.156c0.844,0.078,1.992,0,2.914-0.074c0.84-0.078,1.301-0.078,1.531-0.078c0.383,0.078,1.07,0,1.07,0
		c0.156,0,0.309,0.078,0.309,0.309c0,0.152-0.074,0.305-0.309,0.305c0,0-0.766,0.078-1.227,0c-0.152,0-0.766,0-1.375,0.078
		c-0.922,0.074-2.07,0.152-2.992,0.074C445.906,386.611,441.535,386.838,441.461,386.838L441.461,386.838"/>
	<path fill="#04729A" d="M441.461,368.061c-0.156,0-0.309-0.152-0.309-0.305s0.152-0.309,0.309-0.309
		c0.148,0,4.367-0.227,5.898-0.152c0.844,0.078,1.992,0,2.836-0.074c0.844-0.078,1.305-0.078,1.531-0.078
		c0.383,0.078,1.074,0,1.074,0c0.152,0,0.309,0.078,0.309,0.305c0,0.156-0.078,0.309-0.23,0.309c0,0-0.691,0.078-1.227,0
		c-0.152,0-0.77,0-1.379,0.078c-0.922,0.074-2.07,0.152-2.914,0.074C445.906,367.834,441.535,368.061,441.461,368.061
		C441.535,368.061,441.461,368.061,441.461,368.061"/>
	<path fill="#04729A" d="M441.383,377.412c-0.156,0-0.309-0.152-0.309-0.305c0-0.156,0.152-0.309,0.309-0.309
		c1.227,0,2.605,0,2.836-0.074c0.078,0,0.305-0.078,3.297-0.078c0.531,0,1.836-0.078,2.297-0.152c0.152,0,0.461,0,0.922,0
		c0.609,0,1.453,0.074,2.145,0c0.152,0,0.309,0.152,0.309,0.305s-0.078,0.309-0.309,0.309c-0.691,0.074-1.535,0-2.223,0
		c-0.383,0-0.691,0-0.844,0c-0.305,0-1.688,0.152-2.375,0.152c-2.684,0-3.066,0.078-3.141,0.078
		C444.062,377.412,442.148,377.412,441.383,377.412"/>
	<path fill="#04729A" d="M441.609,358.787c-0.148,0-0.305-0.152-0.305-0.305s0.156-0.309,0.305-0.309c1.227,0,2.609,0,2.762-0.074
		c0.074,0,0.309-0.078,3.219-0.078c0.535,0,1.84-0.074,2.223-0.152c0.152,0,0.461,0,0.922,0c0.609,0,1.375,0.078,2.066,0
		c0.152,0,0.309,0.152,0.309,0.305c0,0.156-0.078,0.309-0.309,0.309c-0.691,0.074-1.531,0-2.145,0c-0.383,0-0.691,0-0.844,0
		c-0.305,0-1.688,0.152-2.297,0.152c-2.609,0-2.992,0.078-3.07,0.078C444.219,358.787,442.379,358.787,441.609,358.787"/>
	<path fill="#04729A" d="M441.383,349.283c-0.156,0-0.309-0.152-0.309-0.305s0.152-0.309,0.309-0.309
		c0.152,0,4.367-0.227,5.898-0.152c0.844,0.078,1.992,0,2.836-0.074c0.844-0.078,1.305-0.078,1.535-0.078
		c0.383,0.078,1.074,0,1.074,0c0.152,0,0.305,0.078,0.305,0.305c0,0.156-0.078,0.309-0.23,0.309c0,0-0.691,0.078-1.227,0
		c-0.152,0-0.766,0-1.379,0.078c-0.922,0.074-2.07,0.152-2.914,0.074C445.75,349.057,441.461,349.283,441.383,349.283
		L441.383,349.283"/>
	<path fill="#04729A" d="M441.227,330.584c-0.152,0-0.305-0.152-0.305-0.309c0-0.152,0.152-0.305,0.305-0.305
		c0.156,0,4.445-0.23,5.98-0.152c0.84,0.074,1.992,0,2.91-0.078c0.844-0.074,1.305-0.074,1.535-0.074c0.383,0.074,1.074,0,1.074,0
		c0.152,0,0.305,0.074,0.305,0.227c0,0.156-0.078,0.309-0.305,0.309c0,0-0.766,0.074-1.227,0c-0.156,0-0.766,0-1.383,0.074
		c-0.918,0.078-2.07,0.156-2.988,0.078C445.672,330.354,441.305,330.584,441.227,330.584
		C441.305,330.584,441.305,330.584,441.227,330.584"/>
	<path fill="#04729A" d="M441.227,339.857c-0.152,0-0.305-0.152-0.305-0.305c0-0.156,0.152-0.309,0.305-0.309
		c1.227,0,2.684,0,2.836-0.078c0.078,0,0.309-0.074,3.375-0.074c0.609,0,1.914-0.078,2.297-0.152c0.156,0,0.461,0,0.922,0
		c0.613,0,1.453,0.074,2.145,0c0.152,0,0.309,0.152,0.309,0.305s-0.156,0.305-0.309,0.305c-0.691,0.078-1.609,0-2.223,0
		c-0.383,0-0.688,0-0.844,0c-0.305,0-1.762,0.156-2.375,0.156c-2.68,0-3.141,0.074-3.219,0.074
		C443.988,339.857,442.07,339.857,441.227,339.857"/>
	<path fill="#04729A" d="M441.688,395.576c0,0-0.078-4.52-0.152-5.516c0-1,0-2.684,0-2.762c0-0.152,0.152-0.305,0.309-0.305
		c0.148,0,0.305,0.152,0.305,0.305c0,0-0.078,1.688,0,2.684c0,0.996,0.078,5.137,0.078,5.211"/>
	<path fill="#04729A" d="M441.688,385.998c-0.152,0-0.305-0.156-0.305-0.309s0-3.066,0.078-3.832
		c0.074-0.688,0.074-4.062,0.074-4.062c0-0.152,0.152-0.305,0.309-0.305c0.148,0,0.305,0.152,0.305,0.305
		c0,0.078,0,3.449-0.078,4.141c-0.078,0.688-0.078,3.754-0.078,3.754C441.992,385.92,441.918,385.998,441.688,385.998"/>
	<path fill="#04729A" d="M441.844,376.725L441.844,376.725c-0.156,0-0.309-0.156-0.309-0.309c0,0,0.074-3.449,0-4.598
		s-0.074-3.219-0.074-3.297c0-0.152,0.148-0.305,0.305-0.305c0.152,0,0.305,0.152,0.305,0.305c0,0,0,2.07,0.078,3.219
		c0.078,1.152,0,4.598,0,4.676C442.148,376.646,441.992,376.725,441.844,376.725"/>
	<path fill="#04729A" d="M441.918,367.373c-0.152,0-0.309-0.152-0.309-0.309c0,0,0-3.445,0-4.828
		c0.078-1.684,0.078-3.062,0.078-3.062c0-0.156,0.156-0.309,0.305-0.309c0.156,0,0.309,0.152,0.309,0.309c0,0,0,1.453-0.074,3.062
		c0,1.383,0,4.754,0,4.828C442.227,367.221,442.07,367.373,441.918,367.373L441.918,367.373"/>
	<path fill="#04729A" d="M441.992,357.947c-0.148,0-0.305-0.156-0.305-0.309c0,0,0-1.688-0.078-2.988
		c0-1.305-0.074-4.906-0.074-4.98c0-0.156,0.152-0.309,0.309-0.309c0.148,0,0.305,0.152,0.305,0.309c0,0,0,3.676,0.078,4.902
		c0,1.305,0,2.988,0,2.988C442.301,357.791,442.148,357.947,441.992,357.947"/>
	<path fill="#04729A" d="M441.844,348.518L441.844,348.518c-0.156,0-0.309-0.152-0.309-0.305c0,0,0-4.062-0.152-5.137
		c-0.156-1.227-0.078-2.684-0.078-2.684c0-0.152,0.156-0.305,0.305-0.305c0.156,0,0.309,0.152,0.309,0.305
		c0,0-0.074,1.457,0.074,2.609c0.156,1.223,0.156,5.211,0.156,5.285C442.148,348.443,441.992,348.518,441.844,348.518"/>
	<path fill="#04729A" d="M441.535,339.092L441.535,339.092c-0.23,0-0.309-0.152-0.309-0.309c0,0,0.156-1.914,0-3.523
		c-0.152-1.688-0.074-4.215-0.074-4.293c0-0.152,0.152-0.305,0.309-0.305c0.148,0,0.305,0.152,0.305,0.305
		c0,0-0.156,2.527,0.078,4.137c0.148,1.688,0,3.605,0,3.68C441.844,338.939,441.688,339.092,441.535,339.092"/>
	<path fill="#04729A" d="M454.105,395.885c-0.078-1.227-0.152-10.117,0-13.949c0.074-3.297-0.078-6.898-0.152-8.203
		c0-0.23,0-0.383,0-0.457c0-0.156,0-1.535,0-3.145c0-3.371,0.074-5.977,0-6.359c0-0.309,0-2.379,0-4.371
		c0-2.145,0.074-4.367,0.074-5.363c0-1.227-0.074-2.605-0.152-3.68c0-0.535-0.078-0.996-0.078-1.148s0-0.461,0-0.922
		c0-0.918,0.078-2.223,0.078-2.758c0-0.766-0.078-10.27-0.078-10.348s-0.078-4.598,0-6.438c0-0.461,0.078-1.074,0.078-1.762h-0.613
		c0,0.613,0,1.227-0.074,1.684c-0.078,1.84,0,6.363,0,6.438c0,0.387,0,9.582,0.074,10.348c0,0.539,0,1.84-0.074,2.684
		c0,0.461,0,0.844,0,0.918c0,0.156,0,0.613,0.074,1.227c0.074,0.996,0.152,2.453,0.152,3.68c0,0.922,0,3.297-0.078,5.367
		c0,2.223-0.074,4.062,0,4.367c0,0.383,0,3.754,0,6.285c0,1.688,0,2.988,0,3.141c0,0.078,0,0.23,0,0.461
		c0.078,1.305,0.309,4.906,0.156,8.203c-0.078,3.832-0.078,12.723,0.078,14.023"/>
	<path fill="#04729A" d="M455.102,394.275c0-0.539,0-1.84,0.078-2.684c0-0.461,0-0.844,0-0.918c0-0.156,0-0.613-0.078-1.227
		c-0.078-1-0.156-2.453-0.156-3.68c0-0.922,0-3.297,0.078-5.367c0-2.223,0.078-4.062,0-4.367c0-0.383,0-3.754,0-6.285
		c0-1.688,0-2.988,0-3.141c0-0.078,0-0.23,0-0.461c-0.078-1.305-0.305-4.906-0.152-8.199c0.074-3.836,0.074-12.727-0.074-14.027
		c-0.078-1.305-0.156-4.598-0.078-5.211c0.078-0.461,0.152-5.441,0.152-8.891h-0.613c0,3.371-0.078,8.277-0.156,8.812
		c-0.074,0.766,0,4.062,0.078,5.363c0.078,1.227,0.156,10.117,0,13.949c-0.078,3.297,0.078,6.898,0.156,8.203
		c0,0.23,0,0.383,0,0.461c0,0.152,0,1.531,0,3.141c0,3.371-0.078,5.977,0,6.363c0,0.305,0,2.375,0,4.367
		c0,2.145-0.078,4.367-0.078,5.363c0,1.227,0.078,2.605,0.152,3.68c0,0.535,0.078,0.996,0.078,1.152c0,0.152,0,0.457,0,0.918
		c0,0.918-0.078,2.223-0.078,2.758"/>
	<path fill="#04729A" d="M441.074,394.506c0-2.148,0.078-4.219,0.078-5.215c0-1.227-0.078-2.605-0.152-3.676
		c0-0.539-0.078-1-0.078-1.152s0-0.461,0-0.918c0-0.922,0.078-2.223,0.078-2.762c0-0.766-0.078-10.27-0.078-10.344
		c0.078-0.996,0.305-5.902,0.152-6.516c-0.074-0.309-0.074-2.531,0-4.676c0-1.301,0-2.836,0-4.215c0-2.684-0.152-7.281-0.23-9.734
		c0-0.918-0.074-1.531-0.074-1.688c0-0.152,0-0.613,0-1.227c0-1.992-0.078-5.594,0-6.129c0-0.23,0-0.766,0-1.609
		c-0.078-2.07-0.152-5.598-0.078-7.664h-0.613c-0.078,2.066,0,5.594,0.078,7.664c0,0.766,0,1.301,0,1.531c0,0.461,0,3.371,0,6.133
		c0,0.688,0,1.148,0,1.227c0,0.152,0,0.766,0.078,1.684c0.074,2.453,0.227,7.055,0.227,9.734c0,1.379,0,2.914,0,4.215
		c-0.078,2.836-0.078,4.445,0.078,4.832c0.078,0.383,0,3.523-0.156,6.359c0,0.383,0,9.582,0.078,10.348c0,0.535,0,1.84-0.078,2.684
		c0,0.457,0,0.84,0,0.918c0,0.152,0,0.613,0.078,1.227c0.078,0.996,0.156,2.453,0.156,3.68c0,0.918-0.078,2.91-0.078,4.98"/>
	<path fill="#04729A" d="M441.152,327.135c0,1.074,0,2.301,0,2.301c0,0.152,0.152,0.305,0.309,0.305l0,0
		c0.148,0,0.305-0.152,0.305-0.305c0-0.078,0-1.227,0-2.301H441.152z"/>
	<path fill="#04729A" d="M441,320.314c-0.156,0-0.309-0.152-0.309-0.309c0-0.152,0.152-0.305,0.309-0.305
		c0.152,0,4.52-0.23,6.055-0.152c0.844,0.074,1.992,0,2.91-0.078c0.844-0.078,1.379-0.078,1.609-0.078c0.387,0.078,1.074,0,1.074,0
		c0.152,0,0.305,0.078,0.305,0.309c0,0.152-0.074,0.305-0.305,0.305c0,0-0.766,0.078-1.227,0c-0.152,0-0.844,0-1.457,0.078
		c-0.918,0.078-2.145,0.152-2.988,0.078C445.52,320.084,441.074,320.314,441,320.314C441.074,320.314,441.074,320.314,441,320.314"
		/>
	<path fill="#04729A" d="M441.074,301.611c-0.152,0-0.305-0.152-0.305-0.305s0.152-0.309,0.305-0.309s4.445-0.227,5.98-0.152
		c0.844,0.078,1.992,0,2.91-0.074c0.844-0.078,1.305-0.078,1.535-0.078c0.383,0.078,1.07,0,1.07,0c0.156,0,0.309,0.078,0.309,0.305
		c0,0.156-0.078,0.309-0.309,0.309c0,0-0.766,0.078-1.227,0c-0.152,0-0.766,0-1.453,0.078c-0.922,0.074-2.07,0.152-2.992,0.074
		C445.52,301.385,441.152,301.611,441.074,301.611L441.074,301.611"/>
	<path fill="#04729A" d="M440.922,310.885c-0.152,0-0.305-0.152-0.305-0.305s0.152-0.305,0.305-0.305c1.227,0,2.68,0,2.836-0.078
		c0.078,0,0.305-0.078,3.371-0.078c0.613,0,1.918-0.074,2.301-0.152c0.152,0,0.461,0,0.922,0c0.609,0,1.453,0.078,2.141,0
		c0.156,0,0.309,0.152,0.309,0.305c0,0.156-0.152,0.309-0.309,0.309c-0.766,0.078-1.609,0-2.219,0c-0.383,0-0.691,0-0.844,0
		c-0.305,0-1.766,0.152-2.375,0.152c-2.684,0-3.145,0.078-3.219,0.078C443.68,310.885,441.766,310.885,440.922,310.885"/>
	<path fill="#04729A" d="M441.152,292.264c-0.152,0-0.309-0.156-0.309-0.309s0.156-0.305,0.309-0.305c1.227,0,2.605,0,2.758-0.078
		c0.078,0,0.309-0.078,3.297-0.078c0.535,0,1.84-0.074,2.301-0.152c0.152,0,0.457,0,0.918,0c0.613,0,1.457,0.078,2.145,0
		c0.156,0,0.309,0.152,0.309,0.309c0,0.152-0.078,0.305-0.309,0.305c-0.688,0.078-1.531,0-2.145,0c-0.383,0-0.691,0-0.844,0
		c-0.309,0-1.684,0.152-2.375,0.152c-2.684,0-3.066,0.078-3.145,0.078C443.836,292.264,441.992,292.264,441.152,292.264"/>
	<path fill="#04729A" d="M441,282.834c-0.156,0-0.309-0.152-0.309-0.305s0.152-0.309,0.309-0.309c0.152,0,4.445-0.227,5.977-0.152
		c0.844,0.078,1.992,0,2.914-0.074c0.844-0.078,1.301-0.078,1.531-0.078c0.383,0.078,1.07,0,1.07,0c0.156,0,0.309,0.078,0.309,0.23
		s-0.074,0.305-0.309,0.305c0,0-0.766,0.078-1.223,0c-0.152,0-0.77,0-1.457,0.078c-0.922,0.074-2.07,0.152-2.988,0.074
		C445.445,282.604,441,282.834,441,282.834L441,282.834"/>
	<path fill="#04729A" d="M440.844,264.057c-0.152,0-0.305-0.152-0.305-0.305s0.152-0.309,0.305-0.309
		c0.156,0,4.523-0.23,6.055-0.152c0.844,0.078,1.992,0,2.914-0.078c0.844-0.074,1.379-0.074,1.609-0.074c0.383,0.074,1.07,0,1.07,0
		c0.156,0,0.309,0.074,0.309,0.305c0,0.152-0.074,0.309-0.309,0.309c0,0-0.766,0.074-1.223,0c-0.152,0-0.844,0-1.457,0.074
		c-0.922,0.078-2.148,0.156-2.988,0.078C445.289,263.826,440.922,264.057,440.844,264.057L440.844,264.057"/>
	<path fill="#04729A" d="M440.844,273.408c-0.152,0-0.305-0.152-0.305-0.305c0-0.156,0.152-0.309,0.305-0.309
		c1.305,0,2.684,0,2.914-0.078c0.078,0,0.305-0.074,3.371-0.074c0.613,0,1.918-0.078,2.379-0.152c0.152,0,0.535,0,0.918,0
		c0.613,0,1.457,0.074,2.145,0c0.156,0,0.309,0.152,0.309,0.305s-0.152,0.305-0.309,0.305c-0.766,0.078-1.609,0-2.219,0
		c-0.387,0-0.77,0-0.844,0c-0.309,0-1.766,0.156-2.453,0.156c-2.758,0-3.145,0.074-3.219,0.074
		C443.602,273.33,441.609,273.408,440.844,273.408"/>
	<path fill="#04729A" d="M441.227,329.127c0,0-0.074-4.52-0.152-5.516c-0.074-1,0-2.684,0-2.762c0-0.152,0.152-0.305,0.309-0.305
		c0.152,0,0.305,0.152,0.305,0.305c0,0-0.078,1.688-0.078,2.684c0.078,0.996,0.078,5.133,0.078,5.211"/>
	<path fill="#04729A" d="M441.305,319.549c-0.152,0-0.305-0.156-0.305-0.309s0-3.066,0.074-3.832
		c0.078-0.688,0.078-4.062,0.078-4.062c0-0.152,0.152-0.305,0.309-0.305c0.148,0,0.305,0.152,0.305,0.305
		c0,0.078,0,3.449-0.078,4.141c-0.078,0.688-0.078,3.754-0.078,3.754C441.609,319.393,441.461,319.549,441.305,319.549"/>
	<path fill="#04729A" d="M441.383,310.275L441.383,310.275c-0.156,0-0.309-0.156-0.309-0.309c0,0,0.078-3.449,0-4.598
		c-0.152-1.148-0.152-3.219-0.152-3.297c0-0.152,0.152-0.305,0.305-0.305c0.156,0,0.309,0.152,0.309,0.305c0,0,0,2.07,0.074,3.219
		c0.156,1.148,0,4.598,0,4.676C441.688,310.119,441.535,310.275,441.383,310.275"/>
	<path fill="#04729A" d="M441.461,300.846c-0.156,0-0.309-0.152-0.309-0.305c0,0,0-3.449,0-4.828
		c0.074-1.688,0.074-3.066,0.074-3.066c0-0.152,0.156-0.309,0.309-0.309s0.309,0.156,0.309,0.309c0,0,0,1.457-0.078,3.066
		c0,1.379,0,4.75,0,4.828C441.766,300.768,441.688,300.846,441.461,300.846L441.461,300.846"/>
	<path fill="#04729A" d="M441.609,291.42c-0.148,0-0.305-0.152-0.305-0.309c0,0,0-1.684-0.078-2.988c0-1.301-0.074-4.902-0.074-4.98
		c0-0.152,0.152-0.309,0.309-0.309c0.148,0,0.305,0.156,0.305,0.309c0,0,0,3.68,0.078,4.906c0,1.301,0,2.988,0,2.988
		C441.918,291.342,441.766,291.42,441.609,291.42"/>
	<path fill="#04729A" d="M441.383,282.068L441.383,282.068c-0.156,0-0.309-0.152-0.309-0.305c0,0,0-4.062-0.152-5.137
		c-0.152-1.227-0.078-2.684-0.078-2.684c0-0.152,0.156-0.305,0.309-0.305s0.309,0.152,0.309,0.305c0,0-0.078,1.457,0.074,2.605
		c0.152,1.227,0.152,5.215,0.152,5.289C441.688,281.916,441.609,282.068,441.383,282.068"/>
	<path fill="#04729A" d="M441.152,272.564L441.152,272.564c-0.23,0-0.309-0.152-0.309-0.305c0,0,0.156-1.918,0-3.527
		c-0.227-1.688-0.074-4.215-0.074-4.293c0-0.152,0.152-0.305,0.305-0.305s0.309,0.152,0.309,0.305c0,0-0.156,2.531,0.078,4.141
		c0.227,1.684,0,3.602,0,3.68C441.461,272.49,441.305,272.564,441.152,272.564"/>
	<path fill="#04729A" d="M453.797,329.357c-0.078-1.227-0.152-10.117,0-13.949c0.078-3.297-0.078-6.898-0.152-8.199
		c0-0.23,0-0.383,0-0.461c0-0.152,0-1.531,0-3.145c0-3.371,0.074-5.977,0-6.359c0-0.305,0-2.375,0-4.367
		c0-2.148,0.074-4.371,0.074-5.367c0-1.227-0.074-2.605-0.148-3.68c0-0.535-0.078-0.996-0.078-1.148s0-0.461,0-0.918
		c0-0.922,0.078-2.223,0.078-2.762c0-0.766-0.078-10.27-0.078-10.348c0-0.074-0.078-4.598,0-6.438c0-0.457,0.078-1.07,0.078-1.762
		h-0.617c0,0.613,0,1.227-0.074,1.688c-0.078,1.84,0,6.359,0,6.438c0,0.383,0,9.578,0.074,10.348c0,0.535,0,1.84-0.074,2.68
		c0,0.461,0,0.844,0,0.922c0,0.152,0,0.613,0.074,1.227c0.078,0.996,0.156,2.453,0.156,3.676c0,0.922,0,3.297-0.078,5.367
		c0,2.223-0.078,4.062,0,4.367c0,0.383,0,3.758,0,6.285c0,1.688,0,2.988,0,3.145c0,0.074,0,0.23,0,0.457
		c0.078,1.305,0.305,4.906,0.156,8.203c-0.078,3.832-0.078,12.723,0.074,14.023"/>
	<path fill="#04729A" d="M454.871,330.354c0-0.535,0-4.445,0.074-5.289c0-0.457,0-0.844,0-0.918c0-0.152,0-0.613-0.074-1.227
		c-0.074-0.996-0.152-2.453-0.152-3.68c0-0.918,0-3.297,0.078-5.363c0-2.223,0.074-4.062,0-4.371c0-0.383,0-3.754,0-6.285
		c0-1.684,0-2.988,0-3.141c0-0.078,0-0.23,0-0.461c-0.078-1.301-0.309-4.906-0.156-8.199c0.156-3.832,0.078-12.723-0.078-14.027
		c-0.074-1.301-0.152-4.598-0.074-5.211c0.074-0.461,0.152-8.277,0.152-11.727h-0.613c0,3.371-0.074,11.113-0.152,11.648
		c-0.078,0.77,0,4.062,0.078,5.367c0.074,1.227,0.152,10.117,0,13.949c-0.078,3.293,0.074,6.898,0.152,8.199c0,0.23,0,0.383,0,0.461
		c0,0.152,0,1.531,0,3.141c-0.078,3.375-0.078,5.98,0,6.363c0,0.305,0,2.375,0,4.367c0,2.148-0.078,4.371-0.078,5.367
		c0,1.227,0.078,2.605,0.152,3.676c0,0.539,0.078,1,0.078,1.152s0,0.461,0,0.918c0,0.922-0.078,4.828-0.078,5.367"/>
	<path fill="#04729A" d="M440.691,328.057c0-2.148,0.152-4.219,0.078-5.215c0-1.227-0.078-2.605-0.152-3.676
		c0-0.539-0.078-1-0.078-1.152s0-0.461,0-0.918c0-0.922,0.078-2.223,0.078-2.762c0-0.766-0.078-10.27-0.078-10.344
		c0.078-0.996,0.305-5.902,0.152-6.516c-0.074-0.309-0.074-2.531,0-4.676c0-1.305,0-2.836,0-4.215c0-2.684-0.152-7.281-0.23-9.734
		c0-0.918-0.078-1.531-0.078-1.688c0-0.152,0-0.613,0-1.227c0-1.992-0.074-5.594,0-6.129c0-0.23,0-0.766,0-1.609
		c-0.074-2.07-0.148-5.598-0.074-7.664h-0.613c-0.078,2.066,0,5.594,0.078,7.664c0,0.766,0,1.301,0,1.531c0,0.461,0,3.371,0,6.133
		c0,0.688,0,1.148,0,1.227c0,0.152,0,0.766,0.078,1.684c0.074,2.453,0.227,7.051,0.227,9.734c0,1.379,0,2.914-0.078,4.215
		c0,2.836-0.074,4.445,0.078,4.828c0.078,0.383,0,3.527-0.152,6.363c0,0.383,0,9.582,0.074,10.348c0,0.535,0,1.84-0.074,2.68
		c0,0.461,0,0.844,0,0.922c0,0.152,0,0.613,0.074,1.227c0.078,0.996,0.156,2.453,0.156,3.68c0,0.918-0.078,2.91-0.078,4.98"/>
	<path fill="#04729A" d="M440.77,260.607c0,1.074,0,2.301,0,2.301c0,0.152,0.152,0.305,0.305,0.305l0,0
		c0.152,0,0.309-0.152,0.309-0.305c0-0.078,0-1.227,0-2.301H440.77z"/>
	<path fill="#04729A" d="M441,253.174c-0.156,0-0.309-0.152-0.309-0.305c0-0.156,0.152-0.309,0.309-0.309
		c0.152,0,4.52-0.23,6.055-0.152c0.844,0.078,1.992,0,2.91-0.078c0.844-0.074,1.379-0.074,1.609-0.074c0.387,0.074,1.074,0,1.074,0
		c0.152,0,0.305,0.074,0.305,0.23c0,0.152-0.074,0.305-0.305,0.305c0,0-0.766,0.078-1.227,0c-0.152,0-0.844,0-1.457,0.078
		c-0.918,0.074-2.145,0.152-2.988,0.074C445.52,252.943,441.074,253.174,441,253.174C441.074,253.174,441.074,253.174,441,253.174"
		/>
	<path fill="#04729A" d="M441.074,234.475c-0.152,0-0.305-0.156-0.305-0.309s0.152-0.305,0.305-0.305s4.445-0.23,5.98-0.152
		c0.844,0.074,1.992,0,2.91-0.078c0.844-0.078,1.305-0.078,1.535-0.078c0.383,0.078,1.07,0,1.07,0c0.156,0,0.309,0.078,0.309,0.309
		c0,0.152-0.078,0.305-0.309,0.305c0,0-0.766,0.078-1.227,0c-0.152,0-0.766,0-1.453,0.078c-0.922,0.074-2.07,0.152-2.992,0.074
		C445.52,234.244,441.152,234.475,441.074,234.475L441.074,234.475"/>
	<path fill="#04729A" d="M440.922,243.748c-0.152,0-0.305-0.152-0.305-0.309c0-0.152,0.152-0.305,0.305-0.305
		c1.227,0,2.68,0,2.836-0.078c0.078,0,0.305-0.074,3.371-0.074c0.613,0,1.918-0.078,2.301-0.156c0.152,0,0.461,0,0.922,0
		c0.609,0,1.453,0.078,2.141,0c0.156,0,0.309,0.156,0.309,0.309s-0.152,0.305-0.309,0.305c-0.766,0.078-1.609,0-2.219,0
		c-0.383,0-0.691,0-0.844,0c-0.305,0-1.766,0.156-2.375,0.156c-2.684,0-3.145,0.074-3.219,0.074
		C443.68,243.748,441.766,243.748,440.922,243.748"/>
	<path fill="#04729A" d="M441.152,225.123c-0.152,0-0.309-0.152-0.309-0.309c0-0.152,0.156-0.305,0.309-0.305
		c1.227,0,2.605,0,2.758-0.078c0.078,0,0.309-0.074,3.297-0.074c0.535,0,1.84-0.078,2.301-0.152c0.152,0,0.457,0,0.918,0
		c0.613,0,1.457,0.074,2.145,0c0.156,0,0.309,0.152,0.309,0.305s-0.078,0.305-0.309,0.305c-0.688,0.078-1.531,0-2.145,0
		c-0.383,0-0.691,0-0.844,0c-0.309,0-1.684,0.156-2.375,0.156c-2.684,0-3.066,0.074-3.145,0.074
		C443.836,225.123,441.992,225.123,441.152,225.123"/>
	<path fill="#04729A" d="M441,215.619c-0.156,0-0.309-0.152-0.309-0.305c0-0.156,0.152-0.309,0.309-0.309
		c0.152,0,4.445-0.23,5.977-0.152c0.844,0.078,1.992,0,2.914-0.078c0.844-0.074,1.301-0.074,1.531-0.074c0.383,0.074,1.07,0,1.07,0
		c0.156,0,0.309,0.074,0.309,0.305c0,0.152-0.074,0.309-0.309,0.309c0,0-0.766,0.074-1.223,0c-0.152,0-0.77,0-1.457,0.074
		c-0.922,0.078-2.07,0.152-2.988,0.078C445.445,215.389,441,215.619,441,215.619L441,215.619"/>
	<path fill="#04729A" d="M440.844,196.92c-0.152,0-0.305-0.156-0.305-0.309s0.152-0.305,0.305-0.305c0.156,0,4.523-0.23,6.055-0.156
		c0.844,0.078,1.992,0,2.914-0.074c0.844-0.078,1.379-0.078,1.609-0.078c0.383,0.078,1.07,0,1.07,0c0.156,0,0.309,0.078,0.309,0.23
		s-0.074,0.305-0.309,0.305c0,0-0.766,0.078-1.223,0c-0.152,0-0.844,0-1.457,0.078c-0.922,0.078-2.148,0.152-2.988,0.078
		C445.289,196.689,440.922,196.92,440.844,196.92L440.844,196.92"/>
	<path fill="#04729A" d="M440.844,206.193c-0.152,0-0.305-0.152-0.305-0.309c0-0.152,0.152-0.305,0.305-0.305
		c1.305,0,2.684,0,2.914-0.078c0.078,0,0.305-0.078,3.371-0.078c0.613,0,1.918-0.074,2.379-0.152c0.152,0,0.535,0,0.918,0
		c0.613,0,1.457,0.078,2.145,0c0.156,0,0.309,0.152,0.309,0.309c0,0.152-0.152,0.305-0.309,0.305c-0.766,0.078-1.609,0-2.219,0
		c-0.387,0-0.77,0-0.844,0c-0.309,0-1.766,0.152-2.453,0.152c-2.758,0-3.145,0.078-3.219,0.078
		C443.602,206.193,441.609,206.193,440.844,206.193"/>
	<path fill="#04729A" d="M441.227,261.912c0,0-0.074-4.523-0.152-5.52c-0.074-0.996,0-2.68,0-2.758c0-0.152,0.152-0.309,0.309-0.309
		c0.152,0,0.305,0.156,0.305,0.309c0,0-0.078,1.688-0.078,2.684c0.078,0.996,0.078,5.133,0.078,5.211"/>
	<path fill="#04729A" d="M441.305,252.408c-0.152,0-0.305-0.152-0.305-0.305c0-0.156,0-3.066,0.074-3.836
		c0.078-0.688,0.078-4.059,0.078-4.059c0-0.156,0.152-0.309,0.309-0.309c0.148,0,0.305,0.152,0.305,0.309
		c0,0.074,0,3.449-0.078,4.137c-0.078,0.691-0.078,3.754-0.078,3.754C441.609,252.256,441.461,252.408,441.305,252.408"/>
	<path fill="#04729A" d="M441.383,243.057L441.383,243.057c-0.156,0-0.309-0.152-0.309-0.305c0,0,0.078-3.449,0-4.602
		c-0.152-1.148-0.152-3.219-0.152-3.293c0-0.152,0.152-0.309,0.305-0.309c0.156,0,0.309,0.156,0.309,0.309c0,0,0,2.07,0.074,3.219
		c0.156,1.148,0,4.598,0,4.676C441.688,242.982,441.535,243.057,441.383,243.057"/>
	<path fill="#04729A" d="M441.461,233.705c-0.156,0-0.309-0.152-0.309-0.305c0,0,0-3.449,0-4.828
		c0.074-1.688,0.074-3.066,0.074-3.066c0-0.152,0.156-0.305,0.309-0.305s0.309,0.152,0.309,0.305c0,0,0,1.457-0.078,3.066
		c0,1.379,0,4.75,0,4.828C441.766,233.553,441.688,233.705,441.461,233.705L441.461,233.705"/>
	<path fill="#04729A" d="M441.609,224.279c-0.148,0-0.305-0.152-0.305-0.305c0,0,0-1.688-0.078-2.988
		c0-1.305-0.074-4.906-0.074-4.984c0-0.152,0.152-0.305,0.309-0.305c0.148,0,0.305,0.152,0.305,0.305c0,0,0,3.68,0.078,4.906
		c0,1.301,0,2.988,0,2.988C441.918,224.127,441.766,224.279,441.609,224.279"/>
	<path fill="#04729A" d="M441.383,214.928L441.383,214.928c-0.156,0-0.309-0.152-0.309-0.305c0,0,0-4.062-0.152-5.137
		c-0.152-1.227-0.078-2.68-0.078-2.68c0-0.156,0.156-0.309,0.309-0.309s0.309,0.152,0.309,0.309c0,0-0.078,1.453,0.074,2.605
		c0.152,1.227,0.152,5.211,0.152,5.289C441.688,214.775,441.609,214.928,441.383,214.928"/>
	<path fill="#04729A" d="M441.152,205.424L441.152,205.424c-0.23,0-0.309-0.152-0.309-0.305c0,0,0.156-1.914,0-3.527
		c-0.227-1.684-0.074-4.215-0.074-4.289c0-0.156,0.152-0.309,0.305-0.309s0.309,0.152,0.309,0.309c0,0-0.156,2.527,0.078,4.137
		c0.227,1.688,0,3.602,0,3.68C441.461,205.271,441.305,205.424,441.152,205.424"/>
	<path fill="#04729A" d="M453.797,262.217c-0.078-1.227-0.152-10.117,0-13.949c0.078-3.293-0.078-6.895-0.152-8.199
		c0-0.23,0-0.383,0-0.461c0-0.152,0-1.531,0-3.141c0-3.371,0.074-5.98,0-6.363c0-0.305,0-2.375,0-4.367
		c0-2.148,0.074-4.367,0.074-5.367c0-1.227-0.074-2.605-0.148-3.676c0-0.539-0.078-0.996-0.078-1.152c0-0.152,0-0.457,0-0.918
		c0-0.918,0.078-2.223,0.078-2.758c0-0.77-0.078-10.273-0.078-10.348c0-0.078-0.078-4.598,0-6.438c0-0.461,0.078-1.074,0.078-1.766
		h-0.617c0,0.613,0,1.227-0.074,1.688c-0.078,1.84,0,6.363,0,6.438c0,0.383,0,9.582,0.074,10.348c0,0.535,0,1.84-0.074,2.684
		c0,0.457,0,0.844,0,0.918c0,0.152,0,0.613,0.074,1.227c0.078,0.996,0.156,2.453,0.156,3.68c0,0.918,0,3.293-0.078,5.363
		c0,2.223-0.078,4.062,0,4.371c0,0.383,0,3.754,0,6.285c0,1.684,0,2.988,0,3.141c0,0.078,0,0.23,0,0.461
		c0.078,1.301,0.305,4.902,0.156,8.199c-0.078,3.832-0.078,12.723,0.074,14.027"/>
	<path fill="#04729A" d="M454.871,263.213c0-0.535,0-4.445,0.074-5.285c0-0.461,0-0.844,0-0.922c0-0.152,0-0.613-0.074-1.227
		c-0.074-0.996-0.152-2.453-0.152-3.68c0-0.918,0-3.293,0.078-5.363c0-2.223,0.074-4.062,0-4.367c0-0.383,0-3.758,0-6.285
		c0-1.688,0-2.988,0-3.145c0-0.074,0-0.23,0-0.457c-0.078-1.305-0.309-4.906-0.156-8.203c0.156-3.832,0.078-12.723-0.078-14.023
		c-0.074-1.305-0.152-4.602-0.074-5.215c0.074-0.457,0.152-8.277,0.152-11.727h-0.613c0,3.375-0.074,11.113-0.152,11.652
		c-0.078,0.766,0,4.062,0.078,5.363c0.074,1.227,0.152,10.117,0,13.949c-0.078,3.297,0.074,6.898,0.152,8.199
		c0,0.23,0,0.387,0,0.461c0,0.152,0,1.535,0,3.145c-0.078,3.371-0.078,5.977,0,6.359c0,0.309,0,2.379,0,4.371
		c0,2.145-0.078,4.367-0.078,5.363c0,1.227,0.078,2.605,0.152,3.68c0,0.535,0.078,0.996,0.078,1.148s0,0.461,0,0.922
		c0,0.918-0.078,4.828-0.078,5.363"/>
	<path fill="#04729A" d="M440.691,260.916c0-2.148,0.152-4.215,0.078-5.211c0-1.227-0.078-2.609-0.152-3.68
		c0-0.539-0.078-0.996-0.078-1.148c0-0.156,0-0.461,0-0.922c0-0.918,0.078-2.223,0.078-2.758c0-0.766-0.078-10.27-0.078-10.348
		c0.078-0.996,0.305-5.902,0.152-6.516c-0.074-0.305-0.074-2.527,0-4.676c0-1.301,0-2.836,0-4.215c0-2.684-0.152-7.281-0.23-9.734
		c0-0.918-0.078-1.531-0.078-1.684c0-0.156,0-0.613,0-1.227c0-1.992-0.074-5.598,0-6.133c0-0.23,0-0.766,0-1.609
		c-0.074-2.07-0.148-5.594-0.074-7.664h-0.613c-0.078,2.07,0,5.594,0.078,7.664c0,0.766,0,1.305,0,1.531c0,0.461,0,3.375,0,6.133
		c0,0.691,0,1.148,0,1.227c0,0.152,0,0.766,0.078,1.688c0.074,2.453,0.227,7.051,0.227,9.734c0,1.379,0,2.91-0.078,4.215
		c0,2.836-0.074,4.445,0.078,4.828c0.078,0.383,0,3.523-0.152,6.359c0,0.383,0,9.582,0.074,10.348c0,0.535,0,1.84-0.074,2.684
		c0,0.457,0,0.844,0,0.918c0,0.152,0,0.613,0.074,1.227c0.078,0.996,0.156,2.453,0.156,3.68c0,0.918-0.078,2.914-0.078,4.98"/>
	<path fill="#04729A" d="M441.152,186.42c0,1.07-0.383,9.273-0.383,9.273c0,0.152,0.152,0.305,0.305,0.305l0,0
		c0.152,0,0.309-0.152,0.309-0.305c0-0.078,0.461-8.277,0.383-9.352L441.152,186.42L441.152,186.42z"/>
	<path fill="#04729A" d="M441,186.189c-0.156,0-0.309-0.156-0.309-0.309s0.152-0.305,0.309-0.305c0.152,0,4.52-0.23,6.055-0.152
		c0.844,0.074,1.992,0,2.91-0.078c0.844-0.078,1.379-0.078,1.609-0.078c0.387,0.078,1.074,0,1.074,0
		c0.152,0,0.305,0.078,0.305,0.309c0,0.152-0.074,0.305-0.305,0.305c0,0-0.766,0.078-1.227,0c-0.152,0-0.844,0-1.457,0.078
		c-0.918,0.074-2.145,0.152-2.988,0.074C445.52,185.959,441.074,186.189,441,186.189C441.074,186.189,441.074,186.189,441,186.189"
		/>
	<path fill="#04729A" d="M441.074,167.412c-0.152,0-0.305-0.156-0.305-0.309s0.152-0.305,0.305-0.305s4.445-0.23,5.98-0.156
		c0.844,0.078,1.992,0,2.91-0.074c0.844-0.078,1.305-0.078,1.535-0.078c0.383,0.078,1.07,0,1.07,0c0.156,0,0.309,0.078,0.309,0.23
		s-0.078,0.309-0.309,0.309c0,0-0.766,0.074-1.227,0c-0.152,0-0.766,0-1.453,0.074c-0.922,0.078-2.07,0.152-2.992,0.078
		C445.52,167.256,441.152,167.412,441.074,167.412L441.074,167.412"/>
	<path fill="#04729A" d="M440.922,176.76c-0.152,0-0.305-0.152-0.305-0.305s0.152-0.309,0.305-0.309c1.227,0,2.68,0,2.836-0.074
		c0.078,0,0.305-0.078,3.371-0.078c0.613,0,1.918-0.078,2.301-0.152c0.152,0,0.461,0,0.922,0c0.609,0,1.453,0.078,2.141,0
		c0.156,0,0.309,0.152,0.309,0.305c0,0.156-0.152,0.309-0.309,0.309c-0.766,0.078-1.609,0-2.219,0c-0.383,0-0.691,0-0.844,0
		c-0.305,0-1.766,0.152-2.375,0.152c-2.684,0-3.145,0.078-3.219,0.078C443.68,176.76,441.766,176.76,440.922,176.76"/>
	<path fill="#04729A" d="M441.152,158.139c-0.152,0-0.309-0.156-0.309-0.309s0.156-0.305,0.309-0.305c1.227,0,2.605,0,2.758-0.078
		c0.078,0,0.309-0.078,3.297-0.078c0.535,0,1.84-0.074,2.301-0.152c0.152,0,0.457,0,0.918,0c0.613,0,1.457,0.078,2.145,0
		c0.156,0,0.309,0.152,0.309,0.309c0,0.152-0.078,0.305-0.309,0.305c-0.688,0.078-1.531,0-2.145,0c-0.383,0-0.691,0-0.844,0
		c-0.309,0-1.684,0.152-2.375,0.152c-2.684,0-3.066,0.078-3.145,0.078C443.836,158.139,441.992,158.139,441.152,158.139"/>
	<path fill="#04729A" d="M441,148.635c-0.156,0-0.309-0.156-0.309-0.309s0.152-0.305,0.309-0.305c0.152,0,4.445-0.23,5.977-0.156
		c0.844,0.078,1.992,0,2.914-0.074c0.844-0.078,1.301-0.078,1.531-0.078c0.383,0.078,1.07,0,1.07,0c0.156,0,0.309,0.078,0.309,0.23
		s-0.074,0.309-0.309,0.309c0,0-0.766,0.074-1.223,0c-0.152,0-0.77,0-1.457,0.074c-0.922,0.078-2.07,0.152-2.988,0.078
		C445.445,148.404,441,148.635,441,148.635L441,148.635"/>
	<path fill="#04729A" d="M440.844,129.932c-0.152,0-0.305-0.152-0.305-0.305c0-0.156,0.152-0.309,0.305-0.309
		c0.156,0,4.523-0.23,6.055-0.152c0.844,0.078,1.992,0,2.914-0.078c0.844-0.074,1.379-0.074,1.609-0.074c0.383,0.074,1.07,0,1.07,0
		c0.156,0,0.309,0.074,0.309,0.23c0,0.152-0.074,0.305-0.309,0.305c0,0-0.766,0.078-1.223,0c-0.152,0-0.844,0-1.457,0.078
		c-0.922,0.074-2.148,0.152-2.988,0.074C445.289,129.701,440.922,129.932,440.844,129.932L440.844,129.932"/>
	<path fill="#04729A" d="M440.844,139.205c-0.152,0-0.305-0.152-0.305-0.305s0.152-0.309,0.305-0.309c1.305,0,2.684,0,2.914-0.074
		c0.078,0,0.305-0.078,3.371-0.078c0.613,0,1.918-0.078,2.379-0.152c0.152,0,0.535,0,0.918,0c0.613,0,1.457,0.074,2.145,0
		c0.156,0,0.309,0.152,0.309,0.305s-0.152,0.309-0.309,0.309c-0.766,0.074-1.609,0-2.219,0c-0.387,0-0.77,0-0.844,0
		c-0.309,0-1.766,0.152-2.453,0.152c-2.758,0-3.145,0.078-3.219,0.078C443.602,139.205,441.609,139.205,440.844,139.205"/>
	<path fill="#04729A" d="M441.305,185.346c-0.152,0-0.305-0.152-0.305-0.309c0-0.152,0-3.062,0.074-3.832
		c0.078-0.688,0.078-4.062,0.078-4.062c0-0.152,0.152-0.305,0.309-0.305c0.148,0,0.305,0.152,0.305,0.305
		c0,0.078,0,3.449-0.078,4.141s-0.078,3.754-0.078,3.754C441.609,185.268,441.461,185.346,441.305,185.346"/>
	<path fill="#04729A" d="M441.383,176.072L441.383,176.072c-0.156,0-0.309-0.152-0.309-0.309c0,0,0.078-3.449,0-4.598
		c-0.152-1.148-0.152-3.219-0.152-3.297c0-0.152,0.152-0.305,0.305-0.305c0.156,0,0.309,0.152,0.309,0.305c0,0,0,2.07,0.074,3.219
		c0.156,1.152,0,4.602,0,4.676C441.688,175.994,441.535,176.072,441.383,176.072"/>
	<path fill="#04729A" d="M441.461,166.721c-0.156,0-0.309-0.152-0.309-0.305c0,0,0-3.449,0-4.828
		c0.074-1.688,0.074-3.066,0.074-3.066c0-0.156,0.156-0.309,0.309-0.309s0.309,0.152,0.309,0.309c0,0,0,1.453-0.078,3.066
		c0,1.379,0,4.75,0,4.828C441.766,166.568,441.688,166.721,441.461,166.721L441.461,166.721"/>
	<path fill="#04729A" d="M441.609,157.295c-0.148,0-0.305-0.152-0.305-0.309c0,0,0-1.684-0.078-2.988
		c0-1.301-0.074-4.906-0.074-4.98c0-0.152,0.152-0.309,0.309-0.309c0.148,0,0.305,0.156,0.305,0.309c0,0,0,3.68,0.078,4.902
		c0,1.305,0,2.992,0,2.992C441.918,157.143,441.766,157.295,441.609,157.295"/>
	<path fill="#04729A" d="M441.383,147.865L441.383,147.865c-0.156,0-0.309-0.152-0.309-0.305c0,0,0-4.062-0.152-5.137
		c-0.152-1.227-0.078-2.68-0.078-2.68c0-0.156,0.156-0.309,0.309-0.309s0.309,0.152,0.309,0.309c0,0-0.078,1.453,0.074,2.605
		c0.152,1.227,0.152,5.211,0.152,5.289C441.688,147.791,441.609,147.865,441.383,147.865"/>
	<path fill="#04729A" d="M441.152,138.439L441.152,138.439c-0.23,0-0.309-0.152-0.309-0.305c0,0,0.156-1.918,0-3.527
		c-0.227-1.688-0.074-4.215-0.074-4.293c0-0.152,0.152-0.305,0.305-0.305s0.309,0.152,0.309,0.305c0,0-0.156,2.531,0.078,4.141
		c0.227,1.684,0,3.602,0,3.68C441.461,138.287,441.305,138.439,441.152,138.439"/>
	<path fill="#04729A" d="M453.645,195.232c-0.074-1.227,0.074-10.117,0.152-13.949c0.078-3.297-0.078-6.898-0.152-8.199
		c0-0.23,0-0.387,0-0.461c0-0.152,0-1.535,0-3.145c0.074-3.371,0.074-5.977,0-6.359c0-0.309,0-2.375,0-4.367
		c0-2.148,0.074-4.371,0.074-5.367c0-1.227-0.074-2.605-0.148-3.68c0-0.535-0.078-0.996-0.078-1.148s0-0.461,0-0.918
		c0-0.922,0.078-2.223,0.078-2.762c0-0.766-0.078-10.27-0.078-10.348c0-0.074-0.078-4.598,0-6.438c0-0.457,0.078-1.07,0.078-1.762
		h-0.617c0,0.613-0.074,1.227-0.074,1.688c-0.078,1.836,0,6.359,0,6.438c0,0.383,0,9.578,0.074,10.348c0,0.535,0,1.836-0.074,2.68
		c0,0.461,0,0.844,0,0.922c0,0.152,0,0.613,0.074,1.227c0.078,0.996,0.156,2.449,0.156,3.676c0,0.922,0,3.297-0.078,5.367
		c0,2.223-0.078,4.062,0,4.367c0,0.383,0,3.758,0,6.285c0,1.688,0,2.988,0,3.145c0,0.074,0,0.227,0,0.457
		c0.078,1.305,0.305,4.906,0.156,8.203c-0.078,3.832-0.309,12.723-0.156,14.023"/>
	<path fill="#04729A" d="M454.641,196.229c0-0.535,0.23-4.445,0.305-5.289c0-0.461,0-0.844,0-0.918c0-0.152,0-0.613-0.074-1.227
		c-0.074-0.996-0.152-2.453-0.152-3.68c0-0.918,0-3.297,0.078-5.363c0-2.223,0.074-4.062,0-4.371c0-0.383,0-3.754,0-6.285
		c0-1.684,0-2.988,0-3.141c0-0.078,0-0.23,0-0.461c-0.078-1.301-0.309-4.906-0.156-8.199c0.156-3.832,0.078-12.723-0.078-14.027
		c-0.074-1.301-0.152-4.598-0.074-5.211c0.074-0.461,0.152-8.277,0.152-11.727h-0.613c0,3.371-0.074,11.113-0.152,11.648
		c-0.078,0.766,0,4.062,0.078,5.367c0.074,1.227,0.152,10.117,0,13.949c-0.078,3.293,0.074,6.898,0.152,8.199
		c0,0.23,0,0.383,0,0.461c0,0.152,0,1.531,0,3.141c-0.078,3.375-0.078,5.98,0,6.363c0,0.305,0,2.375,0,4.367
		c0,2.148-0.078,4.371-0.078,5.367c0,1.227,0.078,2.605,0.152,3.676c0,0.539,0.078,1,0.078,1.152s0,0.457,0,0.918
		c0,0.922-0.305,4.828-0.305,5.367"/>
	<path fill="#04729A" d="M440.461,193.854c0-2.148,0.309-4.215,0.309-5.211c0-1.227-0.078-2.609-0.152-3.68
		c0-0.539-0.078-0.996-0.078-1.152c0-0.152,0-0.457,0-0.918c0-0.918,0.078-2.223,0.078-2.758c0-0.77-0.078-10.273-0.078-10.348
		c0.078-0.996,0.305-5.902,0.152-6.516c-0.074-0.305-0.074-2.527,0-4.676c0-1.301,0.078-2.836,0.078-4.215
		c0-2.684-0.152-7.281-0.23-9.734c0-0.918-0.078-1.531-0.078-1.684c0-0.156,0-0.613,0-1.227c0-1.992-0.078-5.598,0-6.133
		c0-0.23,0-0.766,0-1.609c-0.078-2.07-0.152-5.594-0.078-7.664h-0.609c-0.078,2.07,0,5.594,0.078,7.664c0,0.766,0,1.305,0,1.531
		c0,0.461,0,3.375,0,6.133c0,0.691,0,1.148,0,1.227c0,0.152,0,0.766,0.074,1.688c0.074,2.453,0.23,7.051,0.23,9.73
		c0,1.383,0,2.914-0.078,4.219c0,2.836-0.078,4.445,0.078,4.828c0.078,0.383,0,3.523-0.156,6.359c0,0.383,0,9.582,0.078,10.348
		c0,0.535,0,1.84-0.078,2.684c0,0.457,0,0.844,0,0.918c0,0.152,0,0.613,0.078,1.227c0.078,0.996,0.156,2.453,0.156,3.68
		c0,0.918-0.309,2.914-0.309,4.98"/>
	<path fill="#04729A" d="M440.77,126.482c0,1.074,0,2.301,0,2.301c0,0.152,0.152,0.305,0.305,0.305l0,0
		c0.152,0,0.309-0.152,0.309-0.305c0-0.078,0-1.227,0-2.301H440.77z"/>
	<path fill="#341D0F" d="M485.223,470.459c0.074,0,0.074-0.078,0.074-0.078c0-0.078,0-0.078,0-0.152l0.078-0.078
		c0-0.078,0-0.152-0.078-0.23l0,0l-0.074-0.074l0,0c0.074,0,0.074-0.078,0.074-0.156c0-0.074,0-0.152-0.074-0.227l0.074-0.078
		c0.078-0.078,0.078-0.152,0-0.23c0,0,0,0-0.074-0.078h-0.078v-0.074c0-0.078-0.078-0.156-0.152-0.156c0-0.074,0-0.074,0-0.152
		c0-0.074,0-0.152-0.078-0.23l0,0c0.078-0.074,0.078-0.152,0-0.227c-0.074,0-0.074,0-0.152,0v-0.078c0-0.078,0.078-0.078,0-0.152
		c0-0.078-0.152-0.156-0.23-0.156l0,0c0-0.074-0.078-0.074-0.078-0.074h-0.074c0-0.078-0.078-0.078-0.078-0.078
		c-0.074-0.078-0.152,0-0.23,0c0-0.078,0-0.152-0.074-0.152c0-0.078-0.078-0.078-0.152-0.078h-0.078h-0.078v-0.074
		c0,0,0-0.078-0.078-0.078c-0.074,0-0.074,0-0.148,0c-0.078,0-0.078,0-0.156,0.078v-0.078c0,0,0,0,0-0.078l0,0
		c-0.078-0.074-0.152-0.152-0.227-0.152c-0.078,0-0.156,0.078-0.234,0.152l-0.074,0.078c0-0.078-0.078-0.23-0.23-0.23
		c-0.078,0-0.078,0-0.078,0.078c0-0.078-0.078-0.078-0.152-0.078s-0.23,0.078-0.309,0.23v-0.078c-0.074-0.074-0.148-0.074-0.227,0
		c-0.156,0.078-0.23,0.23-0.305,0.383c-0.078-0.074-0.156-0.152-0.234-0.074c-0.074,0-0.152,0.152-0.152,0.152l0,0
		c0,0-0.074-0.078-0.152,0c-0.078,0-0.078,0.078-0.078,0.152v0.078c-0.078,0-0.152,0-0.152,0c-0.074,0.074-0.074,0.152-0.074,0.23
		c-0.156,0.152-0.77,0.766-0.844,0.996c-0.078,0.23-0.078,0.305-0.156,0.383c-0.152,0.078-0.227,0.305-0.305,0.461
		c-0.078,0.152,0.23,0.383,0.23,0.457c0,0.078-0.918,0.77-0.918,1c0,0.227,0.227,0.227,0.305,0.305s-0.23,0.383-0.23,0.461
		c0,0.074,0.152,0.305,0.152,0.305l-0.152,0.078c-0.074,0.074,0.074,0.305,0.074,0.383c0,0,0.383,0.078,0.383,0.152
		c0,0,0,0.078-0.074,0.152c-0.074,0-0.152,0.078-0.152,0.156v0.074h-0.078c-0.078,0-0.078,0.078-0.078,0.152
		c0,0.078,0,0.156,0.078,0.156c-0.078,0-0.078,0.074-0.078,0.074c0,0.078,0,0.156,0.078,0.23c0,0,0,0,0.078,0
		c0,0.078,0,0.078,0,0.152c0,0.078,0.078,0.078,0.152,0.078v0.078c0,0.074,0.074,0.074,0.152,0.074s0.078,0,0.156-0.074
		c0,0.074,0,0.074,0.074,0.152c0.078,0.078,0.152,0.152,0.23,0.078c0.078,0,0.078-0.078,0.078-0.156
		c0.074,0.078,0.152,0.156,0.305,0.078l0.078-0.078h0.078c0.074,0,0.074-0.074,0.074-0.074l0,0c0.23-0.078,0.383-0.078,0.457,0
		c0.078,0.074-0.074,0.152-0.074,0.383s0.074,0.613,0.074,0.613s1.609,0.074,3.223-1.074c0-0.461-0.078-0.996,0-1.074
		c0,0,0,0,0.074-0.074l0,0c0.078,0,0.078-0.078,0.156-0.152c0,0,0,0,0.074,0c0,0,0,0,0.078-0.078c0,0,0,0,0.074,0
		c0.078,0,0.078-0.078,0.078-0.152v-0.078h0.078c0.074,0,0.074-0.152,0.074-0.152l0,0c0.078,0,0.078,0,0.156-0.078
		c0.074-0.074,0.074-0.152,0-0.23c0,0,0.074,0,0.074-0.074c0-0.078,0-0.078,0-0.156c0,0,0,0,0.078,0c0.074,0,0.074,0,0.074-0.074
		c0.078-0.078,0.078-0.152,0-0.23c0.156-0.078,0.23-0.152,0.156-0.305c0.074,0,0.074-0.078,0.152-0.078
		c0.078-0.078,0.078-0.152,0.078-0.23c0,0,0-0.078-0.078-0.078c0.078-0.074,0.152-0.074,0.152-0.23
		C485.375,470.611,485.297,470.533,485.223,470.459"/>
</g>
</svg>
