<?xml version="1.0" encoding="utf-8"?>
<!-- Generator: Adobe Illustrator 16.0.0, SVG Export Plug-In . SVG Version: 6.00 Build 0)  -->
<!DOCTYPE svg PUBLIC "-//W3C//DTD SVG 1.1//EN" "http://www.w3.org/Graphics/SVG/1.1/DTD/svg11.dtd">
<svg version="1.1" id="Layer_1" xmlns="http://www.w3.org/2000/svg" xmlns:xlink="http://www.w3.org/1999/xlink" x="0px" y="0px"
	 width="100px" height="100px" viewBox="0 0 100 100" enable-background="new 0 0 100 100" xml:space="preserve">
<g>
	<g>
		<path fill="none" stroke="#4681A7" d="M50,74.365c14.316,0,25.977-11.59,25.977-25.979C75.977,34.068,64.385,22.41,50,22.41
			c-14.387,0-25.977,11.592-25.977,25.977C24.023,62.705,35.613,74.365,50,74.365z"/>
	</g>
	<path fill="none" stroke="#4681A7" stroke-dasharray="4.084,4.084" d="M66.16,60.525"/>
	<path fill="none" stroke="#4681A7" stroke-dasharray="4.084,4.084" d="M35.477,60.525"/>
	<path fill="#4681A7" d="M47.805,42.51h5.154l-2.619-1.635L47.805,42.51z M55.66,43.248H45.188l5.238-3.273L55.66,43.248z"/>
	<rect x="38.887" y="46.109" fill="#4681A7" width="1.146" height="2.865"/>
	<rect x="41.75" y="46.109" fill="#4681A7" width="1.145" height="2.865"/>
	<rect x="38.887" y="50.773" fill="#4681A7" width="1.146" height="2.867"/>
	<rect x="41.75" y="50.773" fill="#4681A7" width="1.145" height="2.867"/>
	<rect x="57.949" y="46.109" fill="#4681A7" width="1.145" height="2.865"/>
	<rect x="60.73" y="46.109" fill="#4681A7" width="1.148" height="2.865"/>
	<rect x="57.949" y="50.773" fill="#4681A7" width="1.145" height="2.867"/>
	<rect x="60.73" y="50.773" fill="#4681A7" width="1.148" height="2.867"/>
	<g>
		<path fill="#4681A7" d="M33.16,44.637h3.191v-0.818H33.16V44.637z M37.086,45.375h-4.578v-2.373h4.578V45.375z M33.812,54.133
			h2.047v-7.777h-2.047V54.133z M36.516,54.947h-3.438v-9.326h3.438V54.947z M32.586,56.746h11.455v-1.143h-6.955v-0.656h-0.324
			v-9.326h0.57v-1.557h6.217c0-0.082-0.08-0.164-0.08-0.164l0,0H37.25v-0.98h-4.988v2.779h0.57v9.33h-0.324v1.717H32.586
			L32.586,56.746z M44.697,57.484H31.852v-3.352h0.328v-7.777h-0.574V42.02h6.379v0.982h6.139v0.41c0,0.082,0,0.16,0,0.246
			c0.082,0.16,0.164,0.324,0.246,0.488l0.736,0.654h-7.199v1.555h-0.574v7.777h0.328v0.65h6.953v2.701H44.697z"/>
		<path fill="#4681A7" d="M64.414,44.637h3.191v-0.818h-3.191V44.637z M68.34,45.375h-4.578v-2.373h4.578V45.375z M64.984,54.133
			h2.049v-7.777h-2.049V54.133z M67.688,54.947h-3.441v-9.326h3.441V54.947z M56.805,56.746h11.457v-1.799h-0.328v-9.326h0.574
			v-2.783h-4.992v0.98h-6.221l0,0c0,0.082,0,0.164-0.082,0.164h6.221v1.557h0.574v9.326H63.68v0.656h-6.957v1.225H56.805z
			 M68.914,57.484H56.07v-2.701h6.955v-0.65h0.322v-7.777h-0.568v-1.555h-7.201l0.734-0.654c0.164-0.164,0.246-0.328,0.246-0.488
			c0-0.086,0-0.164,0-0.246v-0.41h6.137V42.02h6.383v4.336h-0.57v7.777h0.324v3.352H68.914z"/>
	</g>
	<path fill="#4681A7" d="M45.516,56.746h9.816v-2.613h-9.816V56.746z M55.984,57.484H44.779v-4.178h11.205V57.484z"/>
	<path fill="#4681A7" d="M45.516,45.457h9.816v-0.656h-9.816V45.457z M55.984,46.273H44.779v-2.209h11.205V46.273z"/>
	<path fill="#4681A7" d="M46.086,51.594h0.984l-0.086-3.682H46.25L46.086,51.594z M47.805,52.41h-2.371l0.164-5.236h2.043
		L47.805,52.41z"/>
	<path fill="#4681A7" d="M53.779,51.594h0.982l-0.082-3.682h-0.738L53.779,51.594z M55.414,52.41h-2.373l0.164-5.236h2.041
		L55.414,52.41z"/>
	<path fill="#4681A7" d="M49.934,51.594h0.98l-0.082-3.682h-0.738L49.934,51.594z M51.57,52.41h-2.373l0.162-5.236h2.047
		L51.57,52.41z"/>
</g>
</svg>
