<?xml version="1.0" encoding="utf-8"?>
<!-- Generator: Adobe Illustrator 16.0.0, SVG Export Plug-In . SVG Version: 6.00 Build 0)  -->
<!DOCTYPE svg PUBLIC "-//W3C//DTD SVG 1.1//EN" "http://www.w3.org/Graphics/SVG/1.1/DTD/svg11.dtd">
<svg version="1.1" id="Layer_1" xmlns="http://www.w3.org/2000/svg" xmlns:xlink="http://www.w3.org/1999/xlink" x="0px" y="0px"
	 width="800px" height="445.158px" viewBox="0 77.42 800 445.158" enable-background="new 0 0 800 600" xml:space="preserve">
<g>
	<rect x="191.777" y="77.42" fill="#6088BA" width="417.762" height="445.158"/>
	<polygon fill="#345566" points="461.438,292.723 461.438,344.512 434.898,344.512 448.172,294.006 	"/>
	<polygon fill="#346267" points="428.055,360.777 448.598,360.777 443.031,305.988 428.055,296.146 	"/>
	<polygon fill="#345566" points="415.211,297.43 428.055,296.146 428.055,367.199 415.211,370.625 	"/>

		<linearGradient id="SVGID_1_" gradientUnits="userSpaceOnUse" x1="337.5562" y1="361.8027" x2="371.1543" y2="361.8027" gradientTransform="matrix(1.0701 0 0 1.0701 140.46 -75.3926)">
		<stop  offset="0" style="stop-color:#7DA6A4"/>
		<stop  offset="1" style="stop-color:#95C6C3"/>
	</linearGradient>
	<polygon fill="url(#SVGID_1_)" points="501.676,293.578 501.676,318.402 537.629,329.961 525.215,293.578 	"/>
	<polygon fill="#345566" points="547.047,288.014 547.047,316.691 452.879,341.09 463.152,314.551 	"/>
	<path fill="#345566" d="M594.129,313.27L594.129,313.27l-43.66,6.418l1.285-3.426c-35.953,1.285-93.738,4.711-126.699,15.41
		l-132.689,44.52v0.426l-5.992,2.141h-0.43l-79.186,26.109v117.281h387.801L594.129,313.27L594.129,313.27z M470,317.121
		L470,317.121"/>
	<path fill="#FFFFFF" d="M594.129,313.27l-39.805-5.566l-1.285,3.426c-22.688,0.852-53.504,2.141-83.469,5.562l58.641-19.262
		l10.703,1.713l7.703-11.557l-44.941,5.564l10.699,1.711l-60.352,19.689c5.133-8.133,1.281-15.408-3.852-20.973l13.266-1.285
		l-35.098-6.848l-11.559,11.557l12.844-1.283c7.273,8.131,12.414,21.828-20.977,32.957L206.33,396.309v8.559l218.299-73.195
		c32.957-10.699,90.742-14.125,126.699-15.41l-1.285,3.426L594.129,313.27z"/>
	<polygon fill="none" points="319.76,367.629 320.188,367.629 329.176,364.629 329.176,364.203 	"/>

		<linearGradient id="SVGID_2_" gradientUnits="userSpaceOnUse" x1="159.1543" y1="229.1211" x2="176.7544" y2="229.1211" gradientTransform="matrix(1.0701 0 0 -1.0701 140.46 610.2412)">
		<stop  offset="0" style="stop-color:#B5B5B5"/>
		<stop  offset="1" style="stop-color:#FFFFFF"/>
	</linearGradient>
	<path fill="url(#SVGID_2_)" d="M310.77,362.062c0,0,4.709,2.996,5.994,3.426c0.855,0.43,0,0.855,2.139,2.141
		c0.43,0,0.857,0.43,0.857,0.43l9.844-3.43v-0.852l0,0c-0.428,0-2.141-0.43-3.424-0.43c-1.285-0.43-2.996-0.43-3.424-0.43l0,0
		h-0.428c-0.43,0-1.285,0-1.713-0.426c-0.428,0-0.855-0.43-1.283-0.43h-0.43c-0.428,0,0.43,1.715,0.43,1.715l-1.713-0.859h-0.428
		c0,0,0.855,0.43,1.711,0.859c0,0.852-0.855,1.281-0.855,1.281L310.77,362.062L310.77,362.062z"/>
	<path fill="#2E2D36" d="M317.619,157.891c0,0,2.141,3.852,3.424,5.137c1.713,1.283,4.281,1.711,4.281,1.711
		s-1.713,2.141-1.713,4.281s0.428,3.424,0,4.279c-0.855,0.857-2.568,1.713-6.42,0.857c-3.854-0.43-4.709-0.43-4.709-0.43
		s-0.855,1.713-0.855,2.568c0,0.857,0.428,3.854,0.428,3.854s-0.855,0-2.996,2.141c-1.713,2.139-2.996,4.279-2.996,4.279
		l-0.855,1.283c0,0-1.285,1.285-3.854,5.137c-2.996,3.426-5.992,7.277-10.701,7.277c-4.707,0-10.273-5.137-10.273-5.137
		s15.41-2.996,14.555-10.701c-0.428-3.852-5.564-12.84-5.564-20.117s5.137-13.27,9.416-14.98c7.705-2.568,11.129-0.428,11.984,0.428
		c0.857,0.855,1.285,2.568,1.285,2.568s4.709,0,5.992,1.711C318.047,156.605,317.619,157.891,317.619,157.891"/>
	<polygon fill="#2E2D36" points="308.631,270.463 311.199,350.504 312.91,356.07 318.047,357.355 315.051,352.645 315.479,271.32
		"/>
	<path fill="#444D64" d="M311.199,350.504c0,0-0.857,0.859-1.285,2.57s0.855,2.141,0.855,2.996s0,5.566,0,5.566h0.43l0.428-5.137
		c0,0,0.855,0.426,2.568,1.711c1.711,1.285,2.141,3.852,3.852,3.852c1.713,0.43,5.992,0.43,5.992,0.43s-3.424-2.566-4.279-3.426
		c-0.857-1.281-1.285-1.711-1.285-1.711s-2.141-0.43-4.279-2.141C311.627,353.074,311.199,350.504,311.199,350.504"/>
	<polygon fill="#2E2D36" points="314.623,271.748 316.764,351.793 318.902,357.355 324.039,358.637 321.043,353.504
		321.043,272.604 	"/>
	<path fill="#444D64" d="M304.35,222.096c1.713,6.42-3.424,21.402-3.424,21.402h24.826c0,0-4.281-3.426-5.564-14.125
		c-0.428-3.854,1.283-17.123,0.428-23.971c-0.428-2.568,4.279-0.855,2.141-8.988c-0.857-4.709-8.133-14.555-8.133-14.555
		l-14.982-0.428C299.641,181.432,299.641,204.975,304.35,222.096"/>
	<polygon fill="#FFFFFF" points="299.641,181.432 300.926,178.436 315.051,180.576 320.615,191.705 312.91,182.717 	"/>
	<path fill="#444D64" d="M300.498,251.631c0.855,8.561,4.707,12.412,4.707,14.98s1.713,11.129,1.713,11.129l15.41,0.855
		c0,0,2.139-26.965,1.283-31.246c-0.855-4.279-1.283-6.42-1.283-6.42h-19.262C303.494,240.502,300.07,248.205,300.498,251.631"/>
	<path fill="#444D64" d="M316.764,351.793c0,0-0.857,0.852-1.285,2.566c-0.428,1.711,0.855,2.141,0.855,2.996s0,5.562,0,5.562h0.43
		l0.428-5.133c0,0,0.855,0.426,2.568,1.711c1.711,1.281,2.139,3.852,3.852,3.852c1.713,0.43,5.992,0.43,5.992,0.43
		s-3.424-2.57-4.279-3.426c-0.857-1.285-1.285-1.715-1.285-1.715s-2.141-0.426-4.279-2.137
		C317.619,354.359,316.764,351.793,316.764,351.793"/>
	<path fill="#444D64" d="M297.502,149.758c-3.854,1.283-8.99,7.275-9.418,14.98c0,7.277,5.137,16.266,5.564,20.117
		c0.428,8.133-14.553,10.701-14.553,10.701s5.564,5.137,10.273,5.137c4.707,0,8.133-3.852,10.701-7.275
		c0.428-0.857,1.283-1.285,1.711-2.141l5.564-8.988c0,0-2.568-8.133-2.568-13.27s4.709-5.992,8.561-6.422
		c3.854-0.428,3.854-5.135,3.854-5.135s0.428-1.285-0.857-3.426c-1.283-2.139-5.992-1.711-5.992-1.711s-0.428-1.713-1.283-2.568
		c-0.428-0.428-2.141-1.713-5.564-1.713C302.637,148.473,300.498,148.902,297.502,149.758"/>
	<path fill="#2E2D36" d="M264.543,154.895c0,0-0.428,3.424,0,6.42c0.428,3.852,2.141,7.277,1.711,8.133
		c-0.428,1.283-2.568,1.283-2.568,1.283s1.285,7.705,0.857,8.562c-0.43,0.855-6.85-0.857-6.85-0.857l-2.141,2.996l-10.699-1.283
		v-2.141l7.703-18.834L264.543,154.895z"/>

		<linearGradient id="SVGID_3_" gradientUnits="userSpaceOnUse" x1="90.3555" y1="304.3203" x2="122.7544" y2="304.3203" gradientTransform="matrix(1.0701 0 0 -1.0701 140.46 610.2412)">
		<stop  offset="0" style="stop-color:#32394B"/>
		<stop  offset="0.1337" style="stop-color:#32394B"/>
		<stop  offset="0.4964" style="stop-color:#333B4D"/>
		<stop  offset="0.6948" style="stop-color:#3C4350"/>
		<stop  offset="0.8531" style="stop-color:#495156"/>
		<stop  offset="0.9901" style="stop-color:#5B645E"/>
		<stop  offset="1" style="stop-color:#5C665F"/>
	</linearGradient>
	<path fill="url(#SVGID_3_)" d="M252.557,308.559l1.285,71.91c-1.285,0-2.568,0.426-3.424,0.426L252.557,308.559z M245.281,183.145
		c-10.701,21.83-8.561,56.5-5.564,67.629s-2.568,24.826-2.568,24.826h8.133v110.006l0,0l0,0h4.279l0,0h0.428l0,0
		c0.857-0.43,2.141-0.855,3.854-1.285v1.715h5.564c2.996-0.859,9.844-3.426,12.412-4.711v-0.855c-2.139,0-6.42,0.426-10.271,0.855
		c1.711-0.855,2.996-1.281,2.568-1.711c-0.857,0-2.998,0-5.994,0l0.43-104.869l4.707-0.428c0,0,3.426-21.83,0-46.656
		c-3.424-24.826-2.141-44.516-8.561-44.516H245.281z"/>
	<polygon fill="#FFFFFF" points="245.281,183.145 245.281,180.148 255.982,181.432 257.693,184.855 255.125,183.145 	"/>
	<path fill="#444D64" d="M252.984,149.758c-5.562,0.855-11.129,5.137-11.129,5.137c-2.139,7.275,3.426,22.686,3.426,22.686
		l8.988,1.711v-7.703c0,0-2.568-3.426-1.713-5.137c0.857-1.713,1.285-2.141,2.568-1.713c1.285,0.855,2.568,4.281,2.568,4.281
		l1.713-0.857c0,0-0.855-6.42,0-7.703c0.855-1.285,4.709-5.564,4.709-5.564s-5.137-5.137-10.273-5.137
		C253.842,149.758,253.414,149.758,252.984,149.758"/>
	<path fill="#F4F8F8" d="M437.039,175.867h105.727c0.43-1.283,0.43-2.568,0-4.279c-1.285-5.994-7.703-6.85-11.984-6.85
		c0-3.424-6.422-3.424-8.562-2.996c0.43-11.984-16.691-23.541-23.539-11.557c-1.285,2.141-2.141,4.709-2.141,7.277
		c-5.137-4.281-9.418-0.43-12.414,3.424c-2.141-3.854-12.414-3.424-13.27,2.141c-4.707-7.705-14.551-7.277-20.117-1.285
		c-0.855,0.855-1.285,2.141-2.141,2.996c-1.285,0.855-0.855,0.428-2.566,0.428s-3-0.428-4.711,0.428
		c-2.996,1.285-5.133,4.709-4.281,8.562C436.613,175.012,436.613,175.439,437.039,175.867"/>
	<path fill="#F4F8F8" d="M470.43,272.176h57.781c0-0.428,0-1.283,0-2.141c-0.426-3.424-4.277-3.852-6.418-3.852
		c0-2.141-3.426-2.141-4.711-1.713c0.43-6.848-8.988-12.84-12.84-6.42c-0.855,1.283-1.285,2.568-1.285,3.852
		c-2.566-2.139-5.137,0-6.848,1.713c-1.285-2.141-6.848-1.713-7.277,1.283c-2.566-4.279-7.703-3.852-11.129-0.428
		c-0.426,0.428-0.855,1.285-0.855,1.713c-0.855,0.428-0.426,0-1.285,0c-0.852,0-1.711,0-2.566,0
		c-1.715,0.855-2.566,2.568-2.566,4.709C470.43,271.32,470.43,271.748,470.43,272.176"/>
	<path fill="#F4F8F8" d="M311.627,115.514c-0.857-3.424-4.281-7.275-8.133-5.135c-1.713-12.414-15.838-9.846-22.258-3.426
		c-1.285-3.424-11.986-4.279-15.838-3.852c-4.709-14.553-26.539-9.416-23.113,5.992c-2.568,0.428-5.137,1.713-5.564,4.281
		c-1.713,0.428-2.996,1.283-3.424,2.139H311.627z"/>
</g>
</svg>
