<?xml version="1.0" encoding="utf-8"?>
<!-- Generator: Adobe Illustrator 16.0.0, SVG Export Plug-In . SVG Version: 6.00 Build 0)  -->
<!DOCTYPE svg PUBLIC "-//W3C//DTD SVG 1.1//EN" "http://www.w3.org/Graphics/SVG/1.1/DTD/svg11.dtd">
<svg version="1.1" id="Layer_1" xmlns="http://www.w3.org/2000/svg" xmlns:xlink="http://www.w3.org/1999/xlink" x="0px" y="0px"
	 width="800px" height="435.906px" viewBox="0 79.309 800 435.906" enable-background="new 0 0 800 600" xml:space="preserve">
<g id="Ebene_2">
	<g>
		<rect x="196.67" y="79.309" fill="#01719A" width="409.082" height="435.906"/>
		<g>
			<path fill="#094E70" d="M486.295,343.367c-7.961-8.383-11.312-18.023-19.281-26.406
				c-20.535,10.477-101.43,80.055-113.166,175.621h97.244c0-3.355,0.414-6.707,0.836-10.48
				c4.609-46.102,25.566-95.984,52.812-118.617C498.033,356.781,491.326,347.977,486.295,343.367"/>
			<path fill="#0B404E" d="M513.959,350.492c-4.191,2.094-8.801,5.031-12.574,8.383c3.773,3.773,7.547,6.707,11.316,7.965
				L513.959,350.492z"/>
			<path fill="#F4F8F8" d="M354.268,515.633c4.191-45.688,19.699-82.148,49.039-102.27c0,0-48.619-43.59-60.355-51.973
				c-18.861,13.414-81.314,67.48-101.014,154.242H354.268L354.268,515.633z"/>
		</g>
		<polygon fill="#F4F8F8" points="280.918,313.188 443.963,313.188 446.061,475.816 		"/>
		<g>
			<path fill="#1F5072" d="M253.254,399.953c1.258-14.672,6.287-26.406,15.928-33.113c0,0-15.928-14.254-19.699-16.766
				c-6.287,4.609-26.406,21.793-32.693,50.297h36.465V399.953z"/>
		</g>
		<polygon fill="#1F5072" points="229.363,334.148 282.176,334.148 283.014,386.957 		"/>
		<g>
			<path fill="#F4F8F8" d="M249.062,411.266c0.42-6.703,2.936-12.152,7.127-15.086c0,0-7.127-6.289-8.803-7.547
				c-2.934,2.098-12.154,10.062-15.09,22.633H249.062z"/>
		</g>
		<polygon fill="#F4F8F8" points="238.584,381.09 262.477,381.09 262.895,405.398 		"/>
		<g>
			<path fill="#3D98AF" d="M511.443,474.141c1.258-14.672,6.289-26.406,15.93-33.113c0,0-15.93-14.254-19.699-16.766
				c-6.289,4.609-26.406,21.793-32.691,50.297h36.461V474.141z"/>
		</g>
		<polygon fill="#3D98AF" points="487.975,408.336 540.787,408.336 541.205,461.148 		"/>
		<g>
			<path fill="#1F5072" d="M257.445,291.812c0.84-7.545,3.354-13.412,7.965-16.766c0,0-7.965-7.125-9.641-8.383
				c-2.934,2.096-12.994,10.898-16.346,25.148H257.445z"/>
		</g>
		<polygon fill="#1F5072" points="245.711,259.119 271.697,259.119 272.115,285.105 		"/>
		<g>
			<path fill="#69ADBC" d="M479.17,275.885c0.422-5.867,2.516-10.479,6.289-12.992c0,0-6.289-5.449-7.547-6.707
				c-2.516,1.678-10.477,8.803-12.992,19.699H479.17L479.17,275.885z"/>
		</g>
		<polygon fill="#69ADBC" points="469.529,249.48 490.49,249.48 490.908,270.438 		"/>
		<g>
			<path fill="#3D98AF" d="M364.746,512.699c2.096-23.891,10.059-35.207,25.986-46.105c0,0-25.566-22.633-31.436-27.242
				c-9.641,7.125-42.752,27.664-52.811,73.348H364.746z"/>
		</g>
		<polygon fill="#3D98AF" points="326.186,414.203 411.689,414.203 412.947,499.707 		"/>
		<polygon fill="#094E70" points="425.1,289.717 534.916,289.717 536.174,399.531 		"/>
		<polygon fill="#25A098" points="402.049,340.852 408.756,341.691 407.92,347.977 		"/>
		<polygon fill="#F4F8F8" points="503.9,436.836 510.189,436.836 510.189,443.539 		"/>
		<polygon fill="#F4F8F8" points="298.521,290.555 304.809,292.232 303.133,298.52 		"/>
		<polygon fill="#F4F8F8" points="586.889,279.238 594.018,282.172 591.084,289.297 		"/>
		<polygon fill="#3E3C41" points="357.201,253.252 357.201,253.252 327.023,229.361 344.209,207.566 374.387,231.457 		"/>
		<g>
			<path fill="#555555" d="M367.262,241.936L367.262,241.936c0,0-7.545-3.354-17.186-10.898s-14.67-14.25-14.67-14.25l8.383-10.479
				l31.855,25.148L367.262,241.936z"/>
		</g>

			<rect x="338.794" y="221.101" transform="matrix(-0.6215 0.7834 -0.7834 -0.6215 726.2709 93.8213)" fill="#C7C7C6" width="3.353" height="2.515"/>

			<rect x="359.212" y="236.935" transform="matrix(-0.6205 0.7842 -0.7842 -0.6205 771.6095 102.9772)" fill="#C7C7C6" width="3.352" height="2.515"/>
		<g>
			<path fill="#432917" d="M355.105,215.529L355.105,215.529c1.258-1.676,2.934-2.096,4.191-1.258l5.449,4.191
				c1.258,0.838,1.258,2.516,0,3.771l-0.42,0.42l1.258,0.838l0.42-0.418c1.676-2.096,1.258-4.611-0.42-6.287l-5.449-4.191
				c-1.676-1.258-4.609-0.838-6.287,0.838l-0.418,0.418L355.105,215.529z"/>
		</g>

			<rect x="352.935" y="211.088" transform="matrix(-0.6221 0.7829 -0.7829 -0.6221 740.4201 69.847)" fill="#432917" width="0.838" height="5.029"/>

			<rect x="366.046" y="221.49" transform="matrix(-0.621 0.7838 -0.7838 -0.621 769.6187 75.8725)" fill="#432917" width="0.84" height="5.03"/>
		<g>
			<path fill="#816661" d="M367.68,212.596c-0.418-0.838-1.676-1.678-1.676-2.934c0-1.258,0.838-2.516,0.418-3.354
				c-0.418-0.838-1.256-0.838-2.096-1.258l-1.676,1.676c-0.838,0.42-1.258,0.84-2.096,1.678s-1.258,1.676-1.676,2.514
				c-0.84,1.258-0.84,3.354-0.42,4.611c0.42,0.838,1.676,1.258,2.096,1.676c1.258,0.838,2.096,2.516,3.771,2.936
				c0.84,0.418,2.936-3.773,2.936-4.611c0.418-0.42,0.838-0.838,0.838-1.678C368.1,213.434,367.68,213.014,367.68,212.596"/>
		</g>
		<polygon fill="#F4F8F8" points="360.975,205.051 360.555,207.566 366.842,209.242 367.68,206.309 		"/>
		<g>
			<path fill="#1B1C1C" d="M459.053,289.297c0.422,0,0.836-0.418,1.258-0.418c0.418-0.42,1.258-0.838,1.676-1.676
				c0.418-1.258-1.258-0.84-2.098-0.84c-3.352,0-6.703-0.418-9.641-1.258c-1.254-0.418-2.512-0.418-3.352-0.838
				c-0.418-0.418-1.258-0.418-1.258-0.838c-0.418-0.418-0.418-1.258-1.258-1.676c-0.418-0.42-1.258-0.42-2.094-0.42
				s-2.516,0-3.352,0.838c-0.84,1.258-0.84,2.516-0.84,3.773c0,0.418,0,4.191,0.418,4.191h1.258h8.805
				C452.346,290.137,455.701,290.555,459.053,289.297"/>
			<path fill="#1B1C1C" d="M381.932,311.93c0-1.672-2.516-1.672-4.611-1.672c-2.516,0-3.354-2.098-5.029-3.355
				c-0.838-0.84-1.678-1.676-2.516-2.516c-0.418-0.418-0.838-0.84-0.838-1.676s0.42-1.258,0-2.096
				c-0.42-0.42-1.258-0.838-1.676-1.258c-0.84-0.42-2.516-1.258-3.354-0.838c-1.258,0.418-2.096,2.096-2.516,2.934
				c0,0.422-2.096,3.773-1.676,3.773c0.418,0.418,0.838,0.418,1.258,0.836c2.514,1.258,5.029,2.938,7.543,4.191
				c1.678,0.84,3.354,2.516,5.449,2.516C378.996,313.609,381.932,312.77,381.932,311.93"/>
			<path fill="#C7C7C6" d="M401.209,164.812c-5.865,4.611-5.865,17.186-6.703,23.053c-0.84,6.287-1.678,12.156-3.354,18.443
				c-0.42,1.676-1.258,3.771-2.096,5.449c-0.42,0.838-1.678,3.771-1.258,5.029c0.838,1.256,5.449,2.096,6.707,2.514
				c2.514,0.84,5.029,1.258,7.543,1.678c2.516,0.418,5.871,2.096,8.383,1.256c0.84,0,0.84,0,0.84-1.256
				c0-0.42-0.422-1.258-0.422-2.096c-0.418-2.516,0-5.449,0-7.965c0-2.934-0.418-5.867,0-9.221
				c0.422-5.867,0.422-12.154,0.84-18.023c0-3.354,1.676-6.287,2.516-9.639c0.418-1.678,2.098-5.869,1.258-7.545
				c-0.84-2.936-8.801-3.773-11.316-3.354C403.725,163.137,402.467,163.975,401.209,164.812"/>
			<path fill="#816661" d="M404.564,157.688c0.418,1.676-0.84,5.029-1.676,6.707c0,0,4.191,7.543,10.898,4.609
				c0.418,0,1.258-9.221,1.258-9.641c0-1.256,0.418-2.094,0-3.352c-0.422-1.258-1.258-2.096-2.098-2.934
				c-1.258-1.258-2.934-2.516-5.027-3.354c-1.68-0.838-2.938-0.42-4.613,0.418C404.146,152.658,404.146,155.172,404.564,157.688
				L404.564,157.688z"/>
			<path fill="#816661" d="M421.33,139.246c0.418,0,0.418,3.352,0.418,3.771c0,2.096,0,3.771,0.84,5.449
				c0.84,1.676,1.258,2.514,0.418,4.191c-1.676,2.096-1.676,4.611-2.094,7.125c-0.422,1.258-0.84,2.096-2.098,2.516
				c-6.285,2.514-12.152-4.191-14.25-9.641C404.564,152.238,400.373,131.701,421.33,139.246"/>
			<path fill="#1B1C1C" d="M404.146,156.43c-0.84-5.449-6.289-11.734-4.611-17.604c2.096-6.705,8.385-9.221,13.83-9.221
				c2.938,0,12.156,3.771,8.383,8.801c-1.676,2.516-3.773,2.936-6.285,3.354c0.418-2.096-0.84-3.354-2.516-3.771
				c0.84,0,0.84,4.191,0.418,5.029c-0.418-0.42-0.836-0.42-1.258-0.42c0.422,1.678,0,2.516-0.418,4.191
				c-0.418,2.098,0.418,3.773,0.418,5.449c-0.836,0-1.676,0-2.094,0.42c-0.422-1.676-2.516-4.611-4.191-3.354
				s0.418,5.449,0.84,7.125C405.822,157.27,405.404,157.27,404.146,156.43"/>
			<path fill="#3E3E3E" d="M383.188,217.625c-0.418,10.059-0.838,18.861-1.256,28.92c0,2.936-0.42,5.449-0.42,8.383
				c0,4.191-0.838,7.965-2.516,11.736c-1.256,2.096-2.514,4.611-3.354,7.125c-2.934,5.449-5.447,10.898-8.383,16.348
				c-1.676,3.352-3.352,6.705-5.029,10.059c0,0,2.096,2.934,7.965,1.676c5.029-7.543,9.639-15.088,14.67-23.051
				c1.258-1.678,2.096-3.354,3.352-5.031c3.773-5.449,5.031-12.154,6.707-18.441c1.676-5.449,3.354-10.898,5.029-16.348l0.838-2.094
				c4.191,0,7.965,0,12.156,0c3.355,0,12.152-0.84,14.668,0c3.355,1.256,3.355,3.771,3.773,6.705
				c0.84,3.354,1.258,6.287,2.094,9.641c1.68,7.545,2.938,15.508,4.195,23.053c0.418,1.258,0.418,2.516,0.418,3.771
				c0,0.42,0,3.354,0.418,3.773c0,0,2.938,1.676,7.125-0.42c-0.418-7.545-0.836-14.67-1.258-22.215
				c-0.418-10.896-1.258-20.957-1.672-31.854c0-1.678-0.422-3.354-1.68-4.191s-2.934-1.258-4.609-1.258
				c-3.352,0-6.289-0.42-9.641-0.42c-5.031-0.418-6.707-0.418-11.734-0.838l-0.84-1.258L383.188,217.625z"/>
			<path fill="#A2A2A1" d="M394.506,218.883L394.506,218.883l17.184,1.676l0,0L394.506,218.883z"/>
			<path fill="#D1D2D2" d="M383.188,223.492l-0.418,11.316l0,0C382.77,231.037,382.77,227.266,383.188,223.492L383.188,223.492"/>
			<path fill="#393937" d="M394.506,218.883c-0.42,0.418-0.84,0.838-0.84,1.258c-2.096,2.514-6.287,3.352-9.221,3.352h-0.418
				c0,0,0,0,0.418,0h-0.418l0,0c0,3.773-0.42,7.545-0.42,11.318l28.922-14.252c0,0,0,0,0-0.418l0,0L394.506,218.883z"/>
		</g>
		<g>
			<path fill="#303030" d="M386.541,218.043l-2.934-0.418c-0.42,10.059-0.838,18.861-1.258,28.92c0,2.936-0.418,5.449-0.418,8.383
				c0,4.191-0.84,7.965-2.516,11.736c-1.258,2.096-2.516,4.611-3.354,7.125c-2.934,5.449-5.449,10.898-8.383,16.348
				c-1.676,3.352-3.354,6.705-5.029,10.059c0,0,0.838,0.838,2.516,1.676c1.256,0.418,14.25-28.5,19.279-38.561
				C384.865,262.055,386.541,218.043,386.541,218.043"/>
			<path fill="#303030" d="M438.096,283.012c0,0,0.84,0.838,2.934,0.838c0-1.258-0.836-5.449-1.258-7.965
				c-0.836-7.545-6.289-40.656-8.801-41.914c-4.191-2.514-27.664-1.256-28.922-1.676c-0.84,2.096-1.676,3.354-1.676,4.191
				c1.676,0,9.641,0,12.156,0c3.352,0,12.57-0.42,14.668,0c3.355,0.838,3.355,3.771,3.773,6.707c0.84,3.352,1.258,6.287,2.098,9.639
				c1.672,7.545,2.93,15.51,4.188,23.053C437.678,277.143,438.096,281.754,438.096,283.012"/>
			<path fill="#555555" d="M387.379,179.902c-0.418,4.191-0.418,7.963-0.418,12.154c-0.42,5.449-0.838,10.898-2.934,16.348
				c-1.258,2.934-2.516,5.029-4.191,7.545c-0.84,1.256-4.611,6.285-1.678,7.125c1.258,0.418,11.316,2.096,15.09-2.934
				c2.934-3.773,7.125-11.318,8.383-15.928c1.676-6.707,2.516-13.412,3.352-20.119c0.422-3.773,0-7.125-0.836-10.479
				c-0.422-2.096,0.418-7.963-0.84-9.221c-2.512-2.516-12.992,1.258-15.928,2.934C384.027,169.004,387.379,179.902,387.379,179.902"
				/>
			<path fill="#434141" d="M387.379,179.902c0,0.418,0,0.418,0,0.838c0,1.678,0,2.934,0,4.611c0,2.096,0,4.609-0.418,6.705
				c-0.42,5.449-0.838,10.898-2.934,16.348c-1.258,2.934-2.516,5.029-4.191,7.545c-0.84,1.256-4.611,6.287-1.678,7.125
				c1.678,0.418,3.354,0.418,5.449,0.838c-3.354,0-1.258-5.449-0.838-7.125c0.838-1.678,1.676-3.354,2.514-5.029
				c0.84-2.096,2.516-1.678,4.611-1.258c1.676,0.418,2.934,0.838,2.516-1.258c-1.258,0-2.516,0-3.773-0.42
				c-2.934-1.256-1.258-2.934-0.838-5.447c0.838-2.936,0.838-5.869,1.258-9.223c0.418-4.609,0-8.801,1.676-12.992
				c0.42-1.258,1.258-2.516,2.096-3.773c0.42-0.838,1.258-2.096,0-2.514c-2.096-0.838-5.449,1.676-6.287,3.354
				C386.961,178.645,387.379,179.482,387.379,179.902"/>
		</g>
		<g>
			<path fill="#464646" d="M397.02,167.746c-0.838-5.447-6.705-2.094-9.641-0.418c-3.352,1.676-18.441,11.736-21.795,18.861
				c-1.676,4.191-4.191,13.412-5.867,19.699l8.383,1.678c2.096-6.289,5.029-16.348,5.867-18.023
				c2.516-5.031,7.965-7.125,13.412-9.641c3.354-1.676,6.707-3.773,8.383-7.125C397.02,171.1,397.439,169.424,397.02,167.746"/>
			<path fill="#353434" d="M396.182,165.652c-1.676-2.516-6.707,0.418-8.803,1.676c-3.352,1.676-18.441,11.736-21.795,18.861
				c-2.096,4.191-4.191,13.832-5.867,19.699l1.258,0.42c0,0,4.191-18.443,5.867-20.539
				C381.092,169.004,396.602,166.07,396.182,165.652"/>
			<path fill="#555555" d="M425.521,170.262c-2.934-0.838-5.031-0.838-7.547-2.516c-1.258-0.838-1.672-2.094-2.512-0.418
				c-0.418,0.838,0,2.096,0,2.934c-0.418,5.029-2.516,10.059-3.773,15.09c-1.258,5.449-1.676,11.316-1.676,16.766
				c0,3.771,0,7.963,0.418,11.734c0,2.098,0.418,4.191,1.258,6.289c0.84,2.514,6.285,2.514,6.285,2.094
				c0.422-0.418,0-0.838-0.414-1.676c-0.422-0.838-0.844-1.258-1.258-2.096c-1.68-2.934-1.258-5.867-0.84-9.221
				c0.84-3.771,1.254-7.545,2.098-10.898c1.254-4.609,2.512-9.641,3.77-14.25c0.418-2.516,1.258-3.773,3.77-4.611
				c1.258-0.418,2.516-1.256,3.773-1.676c2.098-0.838,4.609-2.516,5.453-4.611c0.414-0.418,0.414-1.676,0.414-2.096
				c-0.414-1.256-0.836-0.838-1.672-0.838C430.553,171.1,428.037,171.1,425.521,170.262"/>
			<path fill="#464646" d="M422.588,182.418c1.258-2.516,6.285-2.098,13.41-4.191c2.516-0.42,4.613-1.678,6.711-2.516
				c2.512-1.258,5.027-1.676,4.609-5.029c-0.422-1.678-0.84-2.936-1.258-4.611c-0.422-1.676-7.547-23.053-7.965-23.053
				c0,0-4.613,0.42-9.223,2.096c1.258,4.191,7.547,20.957,7.965,23.053c-4.609,1.678-7.125,2.516-10.895,2.096
				c-1.258,0-7.129-1.258-7.969-2.516C422.17,171.52,423.428,175.711,422.588,182.418"/>
			<path fill="#353434" d="M422.17,182.418c1.258-2.516,6.285-2.516,13.828-4.191c2.516-0.42,4.613-1.678,6.711-2.516
				c2.512-1.258,5.027-1.676,4.609-5.029c-0.422-1.678-0.84-2.936-1.258-4.611c-0.422-1.676-7.547-23.053-7.965-23.053
				s-1.676,0.42-1.676,0.42c0,0.838,9.219,25.566,8.801,27.662c-0.84,2.936-7.965,4.611-10.059,5.029
				c-4.191,1.258-9.219,1.678-12.574,0C423.006,179.064,423.006,180.74,422.17,182.418"/>
			<path fill="#3E3C41" d="M399.115,163.137v12.574l3.773,0.838l-2.094,2.516c-0.422,0.418,3.352,13.412,0.414,27.244
				c3.773-10.061,4.195-23.891,4.195-28.082c0-3.354,0-6.707-0.84-10.061c0-0.42-2.098-6.705-1.676-6.705L399.115,163.137z"/>
			<path fill="#C63F27" d="M409.178,172.777c0.414,0.418,1.254,0.838,1.672,0.838c0.422,0,1.68,0,1.68-0.838c0-0.42,0-0.84,0-0.84
				c0-0.418,0-0.838,0-1.256c0-0.838-1.258-0.838-1.68-0.838c-0.418,0-0.836,0-1.258,0.418c-0.418,0-0.418,0.838-0.418,0.838
				C409.592,171.52,409.178,171.938,409.178,172.777"/>
			<path fill="#C63F27" d="M412.107,174.873c0-0.838,0-2.096-0.418-2.096s-0.84,0.418-1.258,0.418c0,0.84,0,1.258,0,2.096
				c0,1.258-0.418,2.096-0.418,3.354c0,1.676,0,2.934-1.258,4.191c-1.258,1.678-3.773,2.096-5.867,1.678
				c-2.936,0-5.449-0.84-8.383-1.258c-2.516,0-5.031,0-7.545,1.676c-0.838,0.838-2.096,1.678-2.516,2.516
				c-1.258,2.096-1.258,4.609-0.42,7.125c1.258-0.838,2.516-1.258,3.773-1.676c0.418,0,0.838-0.42,1.258-0.42
				c0.418-0.42,0.838-0.838,1.258-1.258c2.514-3.354,7.125-2.516,10.895-2.516c2.938,0,6.289,0,8.383-2.514
				c1.258-1.258,1.68-2.934,2.098-5.029C412.529,179.064,412.107,176.969,412.107,174.873L412.107,174.873z"/>
		</g>
		<g>
			<path fill="#C63F27" d="M410.85,173.615c0,2.514,0,5.449,0,7.963c0,2.516,0,5.869-1.672,8.383
				c-1.258,2.516-4.195,2.516-6.711,2.516c-1.258,0-2.514,0-3.77,0c-0.42,0-1.258,0-1.678,0.42c-0.838,0.418,0,0.838,0.42,1.676
				c1.258-1.258,4.191-0.42,5.449-0.42c2.094,0,4.609-0.418,6.703-1.676c2.098-1.676,2.516-4.191,2.516-6.707
				c0-2.514,0.422-5.449-0.418-7.963C411.271,176.129,411.271,174.453,410.85,173.615L410.85,173.615L410.85,173.615z"/>
			<path fill="#3E3C41" d="M414.623,164.812l3.352,2.516l0.84,8.801c-0.418,0.42-2.098,0.42-2.512,0.84l0.414,2.096
				c-5.027,10.059-6.285,23.053-6.703,26.406c-0.422-2.516-0.422-9.641,0.836-18.443c0.422-3.354,0.84-6.707,1.68-10.059
				C412.947,176.549,415.045,166.07,414.623,164.812"/>
			<path fill="#F4F8F8" d="M404.564,159.363c0,0,0.418,5.031,6.707,10.061l-6.289,4.611c0,0-3.773-7.127-4.609-11.736
				C400.373,162.299,402.049,160.621,404.564,159.363"/>
			<path fill="#F4F8F8" d="M414.623,164.812c0,0,1.258,0.84,2.094,2.096c0.422,1.258,0,9.641,0,9.641s-2.512-5.449-4.609-6.705
				C411.689,169.424,414.623,168.166,414.623,164.812"/>
			<path fill="#816661" d="M433.482,140.922c0,0-0.414-0.418-0.836-0.418c0,0-0.418-0.42-0.836-0.42c-0.422,0-0.84,0-1.258,0
				c-1.258,0-6.289,0.838-7.125,0.838c-0.84,0-1.68,0.42-2.516,0.42c-1.258,0.418-2.516,0.418-3.352,0.838
				c-0.844,0-1.68,0.418-1.258,1.258c0.836,0.838,3.352,0.418,4.609,0.418c1.676,0,3.773-0.418,5.445-0.418
				c0.84,0,2.098,0,2.938,0.418c0.418,0,0.836,0.84,1.258,0.84l4.609-1.258C434.74,142.598,433.904,141.342,433.482,140.922"/>
			<path fill="#816661" d="M429.713,144.275L429.713,144.275L429.713,144.275c0-0.42-0.418-0.42-0.84-0.838
				c-0.418,0-0.836-0.42-1.676-0.42c-0.418,0-0.84,0-1.676,0s-1.258,0-1.676,0.42c-0.418,0.418-0.84,1.258,0,1.258
				c1.676,0.838,3.77-0.84,5.027-0.84C428.873,144.275,429.295,144.275,429.713,144.275"/>
		</g>
		<polygon fill="#F4F8F8" points="429.713,144.275 429.713,145.113 436.42,143.438 435.58,141.342 		"/>
		<g>
			<path fill="#F4F8F8" d="M441.451,205.051h65.805c0-0.838,0.418-1.676,0-2.516c-0.84-3.771-5.031-4.191-7.547-4.191
				c0-2.096-4.191-2.096-5.449-1.676c0.418-7.545-10.48-14.67-14.668-7.125c-0.84,1.258-1.258,2.934-1.68,4.609
				c-2.93-2.514-5.867,0-7.961,2.096c-1.258-2.514-7.965-2.096-8.383,1.258c-2.938-4.609-9.223-4.609-12.574-0.838
				c-0.418,0.42-0.84,1.258-1.258,1.676c-0.84,0.42-0.418,0-1.676,0s-2.098-0.418-2.938,0.42c-2.094,0.838-2.93,2.934-2.93,5.449
				C441.451,204.213,441.451,204.631,441.451,205.051"/>
			<path fill="#69ADBC" d="M226.85,481.266c0.418-4.609,2.096-8.383,5.029-10.48c0,0-5.029-4.191-5.869-5.027
				c-2.096,1.258-7.963,6.703-10.059,15.508H226.85z"/>
		</g>
		<polygon fill="#69ADBC" points="219.723,460.727 236.07,460.727 236.488,477.07 		"/>
		<g>
			<path fill="#25A098" d="M397.439,350.492l-0.42-0.836c1.678-1.258,3.354-2.516,5.029-3.773l0.418,0.836
				C400.795,347.977,399.115,349.234,397.439,350.492 M387.799,358.039l-0.838-0.84c1.676-1.258,3.354-2.516,5.029-3.773l0.838,0.84
				C390.732,355.523,389.057,356.781,387.799,358.039 M378.158,366l-0.838-0.836c1.676-1.258,3.354-2.516,4.611-3.773l0.838,0.836
				C381.092,363.484,379.836,364.742,378.158,366 M368.938,373.965l-0.838-0.84c1.676-1.258,2.934-2.934,4.609-4.188l0.84,0.836
				C371.871,371.449,370.195,372.707,368.938,373.965 M359.717,382.348l-0.838-0.84c1.676-1.258,2.934-2.934,4.609-4.188
				l0.838,0.836C362.65,379.832,360.975,381.09,359.717,382.348 M350.914,391.148l-0.838-0.836c1.258-1.258,2.934-2.938,4.191-4.609
				l0.838,0.836C353.848,388.215,352.172,389.891,350.914,391.148 M342.531,400.371l-0.838-0.84
				c1.258-1.676,2.934-2.934,4.191-4.609l0.838,0.836C345.047,397.016,343.789,398.695,342.531,400.371 M334.148,409.594
				l-0.838-0.84c1.258-1.676,2.516-2.934,4.191-4.613l0.838,0.84C337.082,406.238,335.406,407.914,334.148,409.594 M326.186,418.812
				l-0.838-0.836c1.256-1.68,2.514-3.355,3.771-4.613l0.838,0.84C329.119,415.879,327.443,417.555,326.186,418.812 M318.641,428.871
				l-0.838-0.418c1.258-1.68,2.514-3.352,3.771-5.031l0.838,0.422C321.156,425.52,319.898,427.195,318.641,428.871 M311.516,438.93
				l-0.838-0.418c1.256-1.676,2.514-3.355,3.771-5.027l0.838,0.418C314.029,435.578,312.773,437.254,311.516,438.93
				 M304.809,448.992l-0.838-0.422c1.258-1.676,2.096-3.352,3.354-5.031l0.838,0.422
				C306.904,445.637,306.066,447.312,304.809,448.992 M298.521,459.891l-0.838-0.422c0.838-1.676,2.096-3.352,3.354-5.449
				l0.838,0.418C300.617,456.117,299.359,457.793,298.521,459.891 M292.234,470.367l-0.838-0.422
				c0.838-1.672,2.096-3.77,2.934-5.445l0.838,0.418C294.33,467.016,293.072,468.688,292.234,470.367 M286.785,481.684l-0.838-0.418
				c0.838-1.68,1.678-3.773,2.934-5.449l0.84,0.418C288.463,477.914,287.625,479.586,286.785,481.684 M281.338,492.582l-0.84-0.418
				c0.84-1.68,1.678-3.773,2.516-5.453l0.838,0.422C283.014,488.809,282.176,490.906,281.338,492.582 M276.727,503.898l-0.838-0.422
				l0.418-0.836c0.84-1.676,1.258-3.352,2.096-5.031l0.84,0.422c-0.84,1.676-1.258,3.352-2.096,5.031L276.727,503.898z
				 M272.115,515.633l-0.838-0.418c0.838-1.676,1.258-3.77,2.096-5.867l0.838,0.418
				C273.793,511.859,272.955,513.957,272.115,515.633"/>
			<path fill="#F4F8F8" d="M301.455,294.746l-0.418-0.838c0.838-0.42,1.676-0.838,2.934-1.676l0.42,0.838
				C303.133,293.908,302.295,294.328,301.455,294.746 M290.559,301.033l-0.42-0.838c1.676-1.258,3.354-2.096,5.449-3.354l0.42,0.838
				C294.33,298.938,292.234,299.777,290.559,301.033 M280.498,307.742l-0.418-0.84c1.676-1.258,3.354-2.516,5.029-3.355l0.42,0.84
				C283.852,305.645,282.176,306.902,280.498,307.742 M270.439,315.285l-0.838-0.84c1.676-1.258,3.354-2.516,5.029-3.773l0.42,0.84
				C273.793,312.77,272.115,314.027,270.439,315.285 M260.799,323.25l-0.838-0.84c1.676-1.258,3.354-2.516,4.611-4.191l0.838,0.836
				C263.732,320.312,262.477,321.57,260.799,323.25 M251.578,331.211l-0.838-0.836c1.676-1.258,2.934-2.938,4.609-4.195l0.84,0.84
				C254.512,328.695,253.254,329.953,251.578,331.211 M243.195,340.016l-0.838-0.84c1.258-1.676,2.934-2.934,4.191-4.613l0.838,0.84
				C245.711,337.078,244.453,338.758,243.195,340.016 M234.812,349.656l-0.838-0.84c1.258-1.676,2.514-3.355,4.191-4.613l0.838,0.84
				C237.328,346.301,236.07,347.977,234.812,349.656 M227.688,359.297l-0.838-0.422c1.256-1.676,2.514-3.352,3.771-5.031
				l0.838,0.422C229.783,355.941,228.525,357.617,227.688,359.297 M220.98,369.773l-0.838-0.422
				c0.838-1.672,2.096-3.352,3.354-5.445l0.838,0.418C223.076,366.422,221.818,368.094,220.98,369.773 M215.113,380.672
				l-0.838-0.422c0.838-1.676,1.676-3.773,2.934-5.445l0.838,0.418C216.789,376.898,215.951,378.992,215.113,380.672
				 M210.502,391.988l-0.838-0.418c0.838-2.098,1.258-3.773,2.096-5.867l0.838,0.414
				C211.76,388.215,210.922,390.312,210.502,391.988"/>
			<path fill="#F4F8F8" d="M499.709,447.734l-0.836-0.84c1.254-1.676,2.934-3.355,4.188-4.609l0.84,0.84
				C502.643,444.797,501.385,446.055,499.709,447.734 M492.584,457.793l-0.84-0.418c1.258-1.68,2.098-3.773,3.355-5.031l0.836,0.422
				C495.1,454.438,493.842,456.117,492.584,457.793 M487.135,468.688l-0.84-0.414c0.84-2.098,1.68-3.773,2.938-5.453l0.836,0.422
				C488.811,464.918,487.975,466.594,487.135,468.688 M482.525,480.008l-0.84-0.422c0.84-2.094,1.258-3.77,2.094-5.867l0.84,0.422
				C483.779,476.234,482.943,478.328,482.525,480.008 M478.752,491.742l-0.84-0.418c0.422-2.098,1.258-4.191,1.68-5.871l0.836,0.422
				C480.01,487.969,479.17,490.066,478.752,491.742 M475.818,503.898l-0.836-0.422c0.414-2.094,0.836-4.188,1.258-5.867l0.836,0.422
				C476.654,499.707,476.24,501.805,475.818,503.898 M473.725,516.055h-0.84c0.418-2.098,0.418-4.195,0.84-6.289h0.836
				C474.561,511.859,474.143,513.957,473.725,516.055 M472.045,522.34h0.84"/>
			<path fill="#F4F8F8" d="M579.346,288.879l-0.418-0.838c1.676-0.838,3.773-1.678,5.449-2.516l0.418,0.838
				C583.119,287.203,581.443,288.041,579.346,288.879 M568.447,294.746l-0.418-0.838c1.676-0.838,3.773-2.096,5.449-2.934
				l0.418,0.838C572.221,292.65,570.123,293.908,568.447,294.746 M557.553,301.033l-0.422-0.838
				c1.676-0.838,3.355-2.096,5.449-2.934l0.418,0.838C561.322,298.938,559.646,299.777,557.553,301.033 M547.072,307.32
				l-0.418-0.836c1.676-1.258,3.352-2.098,5.449-3.355l0.418,0.84C550.846,305.227,548.748,306.062,547.072,307.32 M537.014,314.027
				l-0.422-0.84c1.68-1.258,3.355-2.516,5.031-3.352l0.418,0.836C540.365,311.93,538.689,313.188,537.014,314.027 M526.955,321.57
				l-0.422-0.836c1.676-1.258,3.355-2.516,5.031-3.773l0.418,0.836C530.307,319.055,528.631,320.312,526.955,321.57
				 M517.314,329.117l-0.84-0.84c1.676-1.258,3.352-2.512,4.609-3.77l0.84,0.836C520.666,326.602,518.99,327.859,517.314,329.117
				 M508.092,337.5l-0.836-0.84c1.676-1.258,2.934-2.934,4.609-4.191l0.836,0.84C511.025,334.562,509.768,336.242,508.092,337.5
				 M499.291,345.883l-0.84-0.84c1.258-1.258,2.934-2.934,4.609-4.191l0.84,0.84C502.225,342.945,500.549,344.625,499.291,345.883
				 M490.908,355.102l-0.84-0.836c1.258-1.68,2.934-2.938,4.191-4.609l0.84,0.836C493.424,352.168,492.166,353.426,490.908,355.102
				 M482.943,364.742l-0.836-0.836c1.258-1.68,2.512-3.355,3.77-4.609l0.84,0.836C485.459,361.391,484.201,363.066,482.943,364.742
				 M475.396,374.383l-0.836-0.418c1.258-1.676,2.516-3.355,3.773-5.031l0.836,0.418
				C477.912,371.031,476.654,372.707,475.396,374.383 M468.693,384.445l-0.836-0.422c1.254-1.676,2.094-3.352,3.352-5.031
				l0.836,0.422C470.787,381.09,469.529,382.766,468.693,384.445 M462.404,395.34l-0.836-0.418c0.836-1.68,2.094-3.773,2.934-5.449
				l0.84,0.418C464.084,391.57,463.244,393.242,462.404,395.34 M456.537,406.238l-0.836-0.418c0.836-1.68,1.676-3.773,2.93-5.449
				l0.844,0.418C458.217,402.469,457.377,404.562,456.537,406.238 M451.506,417.555l-0.836-0.418
				c0.836-1.676,1.676-3.773,2.516-5.871l0.836,0.422C453.186,413.781,452.346,415.461,451.506,417.555 M447.318,429.289
				l-0.84-0.418c0.84-2.098,1.258-3.77,2.098-5.867l0.836,0.418C448.576,425.102,447.736,427.195,447.318,429.289 M443.545,441.027
				l-0.836-0.418c0.414-2.098,1.254-4.195,1.672-5.867l0.84,0.414C444.803,436.836,443.963,438.93,443.545,441.027 M441.029,453.18
				h-0.836c0.418-2.094,0.836-4.188,1.258-6.285l0.836,0.418C441.451,448.992,441.029,451.086,441.029,453.18 M439.354,465.336
				h-0.84c0,0,0-2.094,0.84-6.285h0.84C439.354,462.82,439.354,465.336,439.354,465.336"/>
			<path fill="#F4F8F8" d="M212.598,392.828c0,1.672-1.258,2.512-2.514,2.512c-1.678,0-2.516-1.254-2.516-2.512
				c0-1.68,1.258-2.516,2.516-2.516C211.34,389.891,212.598,391.148,212.598,392.828"/>
		</g>
		<polygon fill="#F4F8F8" points="518.15,262.893 512.283,262.893 512.283,264.148 516.893,264.148 516.893,264.148
			512.701,272.531 513.959,272.531 518.15,263.73 		"/>
		<g>
			<path fill="#F4F8F8" d="M520.248,270.855c-0.422,0-0.84,0.42-0.84,0.838c0,0.42,0.418,0.838,0.84,0.838
				c0.418,0,0.836-0.418,0.836-0.838C521.506,271.275,521.084,270.855,520.248,270.855"/>
			<path fill="#F4F8F8" d="M528.209,262.893H523.6l-0.418,4.609c0.418,0,0.84,0,1.258,0c1.676,0,2.516,0.84,2.516,2.096
				c0,1.258-0.84,2.096-2.098,2.096c-0.836,0-1.676-0.418-2.094-0.418l-0.422,0.838c0.422,0.42,1.258,0.42,2.516,0.42
				c2.098,0,3.352-1.258,3.352-3.354c0-1.258-0.418-2.096-1.254-2.516c-0.422-0.418-1.258-0.418-2.098-0.418
				c-0.418,0-0.418,0-0.836,0l0.418-2.516h3.352v-0.838H528.209z"/>
			<path fill="#F4F8F8" d="M534.916,262.893h-1.258l-4.191,5.867v0.838h4.191v2.516h1.258v-2.516h1.258v-0.838h-1.258V262.893z
				 M530.725,268.76L530.725,268.76l2.098-3.354c0.418-0.418,0.418-0.838,0.836-1.258l0,0c0,0.42,0,0.84,0,1.258v2.934h-2.934
				V268.76z"/>
			<path fill="#F4F8F8" d="M542.463,262.893c-0.422,0-0.422,0-0.84,0c-1.258,0-2.094,0.418-2.934,1.258
				c-0.84,0.838-1.676,2.514-1.676,4.191c0,2.514,1.258,3.771,3.352,3.771c2.098,0,2.934-1.676,2.934-3.354
				c0-1.676-1.258-2.934-2.934-2.934c-0.836,0-1.676,0.42-2.094,1.258l0,0c0.418-1.678,1.258-2.934,3.352-3.354
				c0.418,0,0.418,0,0.84,0l0,0V262.893L542.463,262.893z M540.365,271.693c-1.258,0-2.094-1.256-2.094-2.514c0-0.42,0-0.42,0-0.42
				c0.418-0.838,0.836-1.258,1.676-1.258c1.258,0,2.094,0.838,2.094,2.096S541.205,271.693,540.365,271.693"/>
			<path fill="#F4F8F8" d="M550.006,262.893h-4.609l-0.422,4.609c0.422,0,0.84,0,1.258,0c1.68,0,2.516,0.84,2.516,2.096
				c0,1.258-0.836,2.096-2.094,2.096c-0.84,0-1.68-0.418-2.098-0.418l-0.418,0.838c0.418,0.42,1.258,0.42,2.516,0.42
				c2.094,0,3.352-1.258,3.352-3.354c0-1.258-0.418-2.096-1.258-2.516c-0.418-0.418-1.258-0.418-2.094-0.418
				c-0.422,0-0.422,0-0.84,0l0.418-2.516h3.355v-0.838H550.006z"/>
			<path fill="#3D98AF" d="M309,329.953c0.42,0.422,1.258,0.422,2.096,0.422c1.678,0,2.096-0.84,2.096-1.68
				c0-1.258-1.258-1.672-2.514-1.672h-0.84v-0.844h0.84c0.838,0,2.096-0.414,2.096-1.672c0-0.84-0.42-1.258-1.678-1.258
				c-0.838,0-1.258,0.418-1.676,0.418l-0.42-0.84c0.42-0.418,1.258-0.836,2.516-0.836c1.676,0,2.514,1.258,2.514,2.094
				c0,0.84-0.418,1.68-1.676,2.094l0,0c1.258,0.422,2.096,1.258,2.096,2.516c0,1.68-1.258,2.938-3.354,2.938
				c-0.838,0-2.096-0.422-2.514-0.422L309,329.953z"/>
			<path fill="#3D98AF" d="M317.383,324.508c0,0.836,0.838,1.258,1.678,1.672c0.838-0.414,1.256-0.836,1.256-1.672
				c0-0.84-0.418-1.68-1.676-1.68C318.221,322.828,317.383,323.668,317.383,324.508 M320.736,329.117
				c0-1.258-0.838-1.68-2.096-2.098c-1.258,0.418-1.676,0.84-1.676,2.098c0,0.836,0.838,1.676,1.676,1.676
				C320.316,330.793,320.736,329.953,320.736,329.117 M316.125,329.117c0-1.258,0.84-2.098,1.678-2.516l0,0
				c-0.838-0.422-1.678-1.258-1.678-2.094c0-1.68,1.258-2.516,2.936-2.516c1.676,0,2.514,1.258,2.514,2.094
				c0,0.84-0.418,1.68-1.676,2.094l0,0c1.258,0.422,1.676,1.258,1.676,2.516c0,1.68-1.258,2.516-3.354,2.516
				C316.965,331.633,316.125,330.375,316.125,329.117"/>
			<path fill="#3D98AF" d="M329.119,323.25h-3.354l-0.418,2.516c0.418,0,0.418,0,0.838,0c0.838,0,1.258,0,2.096,0.414
				c0.838,0.422,1.258,1.258,1.258,2.516c0,1.68-1.258,3.355-3.354,3.355c-0.838,0-1.678-0.418-2.516-0.418l0.42-0.84
				c0.418,0.418,1.258,0.418,2.096,0.418c1.258,0,2.096-0.836,2.096-2.094s-0.838-2.094-2.516-2.094c-0.42,0-0.838,0-1.258,0
				l0.42-4.613h4.611v0.84H329.119z"/>
			<path fill="#3D98AF" d="M330.795,330.793c0-0.418,0.42-0.84,0.84-0.84c0.418,0,0.838,0.422,0.838,0.84s-0.42,0.84-0.838,0.84
				C331.215,331.633,330.795,331.211,330.795,330.793"/>
			<path fill="#3D98AF" d="M333.73,331.633v-0.84l0.838-0.84c2.514-2.094,3.354-3.352,3.354-5.027c0-0.84-0.42-1.676-1.678-1.676
				c-0.838,0-1.676,0.418-2.096,0.836l-0.418-0.836c0.838-0.422,1.676-0.84,2.514-0.84c2.096,0,2.934,1.258,2.934,2.516
				c0,1.676-1.256,2.934-3.352,5.027l-0.84,0.84l0,0h4.191v0.84H333.73L333.73,331.633z"/>
			<path fill="#3D98AF" d="M346.723,323.25h-3.354l-0.418,2.516c0.418,0,0.418,0,0.838,0c0.838,0,1.258,0,2.096,0.414
				c0.838,0.422,1.258,1.258,1.258,2.516c0,1.68-1.258,3.355-3.354,3.355c-0.838,0-1.676-0.418-2.516-0.418l0.42-0.84
				c0.42,0.418,1.258,0.418,2.096,0.418c1.258,0,2.096-0.836,2.096-2.094s-0.838-2.094-2.516-2.094c-0.418,0-0.838,0-1.258,0
				l0.42-4.613h4.611v0.84H346.723z"/>
			<path fill="#308094" d="M489.232,330.375v-2.938c-1.68,0-3.355-0.418-4.613-1.258l0.84-2.094c1.258,0.84,2.516,1.258,4.191,1.258
				c2.094,0,3.352-1.258,3.352-2.934s-1.258-2.516-3.352-3.355c-2.934-0.836-5.031-2.094-5.031-4.609s1.676-4.191,4.191-4.609
				v-2.934h1.68v2.512c1.676,0,2.934,0.422,3.77,0.84l-0.836,1.676c-0.84-0.418-1.68-0.836-3.773-0.836
				c-2.098,0-2.934,1.258-2.934,2.516s1.258,2.094,3.773,2.934c2.934,1.254,4.609,2.512,4.609,5.027
				c0,2.098-1.676,4.195-4.609,5.031v2.934L489.232,330.375z"/>
			<path fill="#244C58" d="M360.555,480.844c-0.838,0.422-2.516,0.84-5.029,0.84c-5.449,0-9.221-3.355-9.221-9.641
				c0-5.867,4.191-10.059,9.639-10.059c2.516,0,3.773,0.418,4.611,0.836l-0.42,2.098c-0.838-0.418-2.096-0.84-3.771-0.84
				c-4.611,0-7.545,2.938-7.545,7.965c0,4.613,2.516,7.543,7.125,7.543c1.678,0,2.936-0.418,3.773-0.836L360.555,480.844z"/>
		</g>
		<rect x="345.047" y="469.531" fill="#244C58" width="10.896" height="2.094"/>
		<rect x="345.047" y="472.883" fill="#244C58" width="10.896" height="2.094"/>
		<g>
			<path fill="#69ADBC" d="M320.736,283.85c0-1.258-0.838-2.096-1.676-2.096c-0.84,0-1.258,0.418-1.678,1.258v0.418
				c0,1.258,0.838,2.516,1.678,2.516C319.898,285.945,320.736,285.105,320.736,283.85 M321.156,278.82c-0.42,0-0.42,0-0.84,0
				c-1.676,0.418-2.934,1.676-2.934,2.934l0,0c0.42-0.42,1.258-0.84,2.096-0.84c1.678,0,2.516,1.258,2.516,2.936
				c0,1.676-1.258,2.934-2.934,2.934c-1.678,0-2.936-1.258-2.936-3.771c0-1.678,0.42-2.936,1.258-3.773s1.678-1.258,2.516-1.258
				c0.418,0,0.838,0,0.838,0v0.84H321.156z"/>
			<path fill="#69ADBC" d="M324.09,280.914c0,1.258,0.838,1.678,1.676,1.678s1.258-0.42,1.678-0.838v-0.42
				c0-1.258-0.42-2.514-1.678-2.514C324.928,278.82,324.09,279.658,324.09,280.914 M323.67,285.945c0.42,0,0.42,0,0.838,0
				c0.84,0,1.258-0.42,1.678-0.838c0.418-0.42,0.838-1.258,1.258-2.096l0,0c-0.42,0.418-1.258,0.838-2.096,0.838
				c-1.678,0-2.516-1.258-2.516-2.516c0-1.676,1.258-2.934,2.934-2.934c1.678,0,2.934,1.258,2.934,3.771
				c0,1.678-0.418,3.354-1.256,4.191c-0.84,0.84-1.678,0.84-2.516,1.258c-0.42,0-0.838,0-1.258,0V285.945L323.67,285.945z"/>
			<path fill="#69ADBC" d="M330.795,280.076c0,0.838,0.84,1.258,1.678,1.678c0.838-0.42,1.258-0.84,1.258-1.678
				s-0.42-1.256-1.258-1.256S330.795,279.658,330.795,280.076 M334.148,284.688c0-0.838-0.838-1.676-1.676-1.676
				c-0.838,0.418-1.678,0.838-1.678,1.676s0.42,1.676,1.678,1.676C333.311,285.945,334.148,285.525,334.148,284.688
				 M329.539,284.688c0-1.258,0.838-1.676,1.676-2.096l0,0c-0.838-0.42-1.258-1.258-1.258-2.096c0-1.258,1.258-2.096,2.516-2.096
				c1.676,0,2.514,0.838,2.514,2.096c0,0.838-0.418,1.676-1.256,2.096l0,0c1.256,0.42,1.676,1.258,1.676,2.096
				c0,1.676-1.258,2.516-2.934,2.516C330.795,286.783,329.539,285.945,329.539,284.688"/>
		</g>
		<polygon fill="#69ADBC" points="206.311,345.461 206.311,345.883 203.377,352.168 202.539,352.168 205.473,346.301
			205.473,346.301 202.119,346.301 202.119,345.461 		"/>
		<g>
			<path fill="#69ADBC" d="M210.084,349.656v-2.098c0-0.418,0-0.84,0-1.258l0,0c0,0.418-0.42,0.84-0.42,0.84l-1.678,2.094l0,0h2.098
				V349.656z M210.084,352.168v-1.676h-2.936v-0.418l2.936-4.191h0.838v4.191h0.838v0.84h-0.838v1.672h-0.838V352.168z"/>
			<path fill="#69ADBC" d="M212.598,351.75c0-0.422,0.42-0.836,0.42-0.836c0.418,0,0.418,0.414,0.418,0.836
				s-0.418,0.836-0.418,0.836C213.018,352.168,212.598,352.168,212.598,351.75"/>
			<path fill="#69ADBC" d="M218.885,346.301h-2.516l-0.418,1.676h0.418c0.42,0,0.84,0,1.258,0.422c0.42,0.418,0.84,0.836,0.84,1.676
				c0,1.254-1.258,2.512-2.516,2.512c-0.838,0-1.258-0.418-1.676-0.418l0.418-0.84c0.42,0,0.838,0.422,1.258,0.422
				c0.838,0,1.676-0.422,1.676-1.676c0-0.84-0.418-1.676-2.096-1.676c-0.418,0-0.838,0-0.838,0l0.42-3.355h3.354v1.258H218.885z"/>
			<path fill="#69ADBC" d="M223.076,349.656v-2.098c0-0.418,0-0.84,0-1.258l0,0c-0.418,0.418-0.418,0.84-0.418,0.84l-1.678,2.094
				l0,0h2.096V349.656z M223.076,352.168v-1.676h-3.354v-0.418l2.936-4.191h0.838v4.191h0.838v0.84h-0.42v1.672h-0.838V352.168z"/>
			<path fill="#69ADBC" d="M595.693,355.523l-28.504,0.418h-0.418c0,0-0.418,0.418-0.418,0.84l0.418,17.602
				c0,0.422,0.418,0.84,0.84,0.84v0.84v-0.84l28.5-0.418c0.418,0,0.84-0.422,0.84-0.84l-0.422-17.605
				C596.529,355.941,596.111,355.523,595.693,355.523 M567.611,377.734c-1.258,0-2.516-1.258-2.516-2.512l-0.418-17.605
				c0-0.836,0.418-1.676,0.836-2.094c0.422-0.422,1.258-0.84,1.676-0.84l28.504-0.418c1.258,0,2.516,1.258,2.516,2.516l0.418,17.602
				c0,1.68-1.258,2.938-2.516,2.938L567.611,377.734z"/>
		</g>

			<rect x="565.909" y="359.265" transform="matrix(-0.9998 0.0186 -0.0186 -0.9998 1170.3066 711.8143)" fill="#69ADBC" width="31.853" height="4.192"/>

			<rect x="586.025" y="365.138" transform="matrix(-0.9998 0.0182 -0.0182 -0.9998 1186.5691 722.4407)" fill="#69ADBC" width="7.962" height="2.934"/>
		<path fill="#F4F8F8" d="M304.391,158.107c-0.84-3.773-5.031-7.965-8.803-5.869c-2.096-13.832-17.186-10.896-24.311-3.771
			c-1.676-3.354-13.412-4.611-17.186-4.191c-5.029-15.928-29.34-10.059-25.148,6.707c-2.934,0.418-5.867,1.676-6.285,5.029
			c-2.098,0.418-2.936,1.258-3.773,2.096H304.391z"/>
	</g>
</g>
</svg>
