<svg class="svgImg" xmlns="http://www.w3.org/2000/svg" xmlns:xlink="http://www.w3.org/1999/xlink" x="0px" y="0px"
	 width="111.32px" height="111.32px" viewBox="0 0 111.32 111.32" style="enable-background:new 0 0 111.32 111.32;"
	 xml:space="preserve">
<path style="fill:#05739C;" d="M54.66,111.32c30.188,0,54.66-24.472,54.66-54.66S84.848,2,54.66,2S0,26.472,0,56.66
	S24.472,111.32,54.66,111.32"/>
<path style="fill:#FFFFFF;" d="M56.206,44.617l0.206-0.131l-0.278-0.471l-0.439,0.28c-0.412-0.169-0.762-0.105-0.942,0.01
	c-0.19,0.108-0.25,0.255-0.268,0.36c-0.044,0.261,0.128,0.488,0.291,0.68c0.055,0.064,0.142,0.165,0.173,0.226
	c-0.005,0.003-0.011,0.008-0.019,0.012c-0.221,0.141-0.576,0.101-0.949-0.109c-0.169-0.094-0.281-0.21-0.302-0.248l-0.481,0.234
	c0.044,0.1,0.127,0.197,0.224,0.284l-0.2,0.127l0.278,0.472l0.438-0.279c0.233,0.1,0.463,0.152,0.678,0.152
	c0.22,0,0.422-0.053,0.592-0.162c0.161-0.102,0.255-0.235,0.277-0.393c0.039-0.273-0.147-0.491-0.311-0.683
	c-0.087-0.102-0.128-0.163-0.148-0.199c0.064-0.035,0.29-0.084,0.604,0.092c0.204,0.115,0.298,0.227,0.336,0.284l0.437-0.313
	C56.362,44.779,56.298,44.701,56.206,44.617 M53.892,47.468l-0.126,0.235v3.06l-2.629-1.471v-3.218l4.933-3.192l2.639,1.496
	L53.892,47.468z M48.738,44.424l4.235-2.701l2.08,1.166l-4.203,2.72L48.738,44.424z M61.075,46.268l-4.236,2.702l-2.281-1.28
	l4.226-2.711L61.075,46.268z M56.721,51.043l0.265-0.008L61.746,48l-0.278-0.471l-4.629,2.952l-2.541-1.426v-0.883l2.423,1.36
	l0.265-0.008l4.76-3.035l-0.012-0.479l-2.428-1.366l0.071-0.045l-0.012-0.478l-3.177-1.801l-0.268,0.008l-0.348,0.225l-2.481-1.392
	l-0.265,0.007l-4.76,3.035l0.013,0.479l2.527,1.418v0.883l-2.274-1.276l-0.253,0.487l2.527,1.417v0.828l-2.274-1.276l-0.253,0.486
	l2.527,1.418v0.39l0.14,0.244l3.16,1.768l0.392-0.244v-0.086l2.423,1.36l0.265-0.008l4.76-3.035l-0.278-0.471l-4.629,2.952
	l-2.541-1.426v-0.828L56.721,51.043z"/>
<rect x="43.956" y="63.158" style="fill:#FFFFFF;" width="14.299" height="4.172"/>
<polygon style="fill:#FFFFFF;" points="58.036,71.596 64.394,65.238 58.116,58.889 "/>
<line style="fill:none;stroke:#FFFFFF;stroke-width:1.5;stroke-dasharray:7.2,7.2;" x1="54.127" y1="84.28" x2="54.127" y2="107.113"/>
<line style="fill:none;stroke:#FFFFFF;stroke-dasharray:4.8,4.8;" x1="54.127" y1="7.782" x2="54.127" y2="30.615"/>
<path style="fill:#FFFFFF;" d="M32.327,54.893c1.242,0,2.253,1.041,2.253,2.321c0,1.28-1.011,2.321-2.253,2.321
	c-1.242,0-2.253-1.041-2.253-2.321C30.074,55.934,31.085,54.893,32.327,54.893 M32.327,60.825c1.936,0,3.505-1.617,3.505-3.611
	c0-1.994-1.569-3.611-3.505-3.611c-1.936,0-3.505,1.617-3.505,3.611C28.822,59.208,30.391,60.825,32.327,60.825z"/>
<path style="fill:#FFFFFF;" d="M29.726,62.126c0.283,0.295,0.545,0.612,0.784,0.947c0.555-0.258,1.169-0.402,1.816-0.402
	c2.448,0,4.44,2.051,4.44,4.573c0,0.274-0.025,0.542-0.07,0.803h1.183c0.036-0.263,0.055-0.53,0.055-0.803
	c0-3.19-2.51-5.777-5.608-5.777C31.387,61.467,30.503,61.706,29.726,62.126"/>
<path style="fill:#FFFFFF;" d="M29.756,68.047h1.168c0-3.988-3.138-7.222-7.01-7.222c-3.871,0-7.01,3.234-7.01,7.222h1.169
	c0-3.318,2.62-6.018,5.841-6.018S29.756,64.729,29.756,68.047"/>
<path style="fill:#FFFFFF;" d="M23.914,52.324c1.651,0,2.994,1.384,2.994,3.084c0,1.701-1.343,3.085-2.994,3.085
	c-1.651,0-2.994-1.384-2.994-3.085C20.92,53.708,22.263,52.324,23.914,52.324 M23.914,59.621c2.258,0,4.089-1.886,4.089-4.213
	c0-2.326-1.831-4.212-4.089-4.212s-4.089,1.886-4.089,4.212C19.825,57.735,21.656,59.621,23.914,59.621z"/>
<path style="fill:#FFFFFF;" d="M11.132,68.047c-0.045-0.261-0.07-0.529-0.07-0.802c0-2.522,1.992-4.574,4.44-4.574
	c0.647,0,1.262,0.144,1.817,0.402c0.238-0.335,0.5-0.652,0.783-0.947c-0.777-0.42-1.661-0.659-2.6-0.659
	c-3.097,0-5.608,2.587-5.608,5.778c0,0.272,0.019,0.54,0.055,0.802H11.132z"/>
<path style="fill:#FFFFFF;" d="M15.502,54.893c1.242,0,2.253,1.041,2.253,2.321c0,1.28-1.011,2.321-2.253,2.321
	s-2.253-1.041-2.253-2.321C13.249,55.934,14.26,54.893,15.502,54.893 M15.502,60.825c1.936,0,3.505-1.617,3.505-3.611
	c0-1.994-1.569-3.611-3.505-3.611s-3.505,1.617-3.505,3.611C11.997,59.208,13.566,60.825,15.502,60.825z"/>
<path style="fill:#FFFFFF;" d="M81.014,48.23c0.155,0.151,0.711,0.38,1.616,0.38c0.825,0,1.393-0.19,1.576-0.368
	c-0.457-0.637-0.995-1.248-1.603-1.823C82.002,46.987,81.469,47.594,81.014,48.23 M82.631,49.485c-1.168,0-2.533-0.348-2.536-1.328
	c0-0.089,0.027-0.176,0.077-0.25c0.591-0.858,1.311-1.668,2.141-2.408c0.166-0.149,0.417-0.148,0.583,0
	c0.838,0.748,1.563,1.563,2.155,2.421c0.05,0.072,0.077,0.159,0.077,0.247c0.001,0.255-0.102,0.493-0.297,0.689
	C84.248,49.44,82.999,49.485,82.631,49.485z"/>
<path style="fill:#FFFFFF;" d="M81.126,64.392l3.071,0.009l0.258-1.135c-0.057-0.048-0.226-0.156-0.653-0.244
	c-0.337-0.07-0.752-0.109-1.172-0.109c-1.007,0-1.622,0.208-1.771,0.336L81.126,64.392z M84.546,65.277h-0.001l-3.768-0.011
	c-0.203-0.001-0.378-0.141-0.425-0.338l-0.372-1.595c-0.008-0.032-0.011-0.066-0.011-0.099c0-1.11,2.037-1.196,2.661-1.196
	c0.485,0,0.951,0.044,1.349,0.127c1.127,0.231,1.366,0.715,1.367,1.081c0,0.033-0.004,0.066-0.011,0.098l-0.362,1.592
	C84.927,65.136,84.75,65.277,84.546,65.277z"/>
<path style="fill:#FFFFFF;" d="M78.783,59.854c-1.381,0.869-2.018,1.502-2.221,2.183c-0.171,0.571-0.069,1.268,0.194,2.211
	c0.506-1.144,1.138-1.426,2.781-2.038C79.241,61.406,78.988,60.617,78.783,59.854 M76.731,66.101c-0.19,0-0.359-0.123-0.417-0.304
	c-1.149-3.582-1.31-4.717,2.522-7.001c0.119-0.071,0.265-0.081,0.394-0.028c0.128,0.054,0.223,0.166,0.255,0.301
	c0.25,1.031,0.594,2.121,1.024,3.24c0.042,0.109,0.039,0.23-0.009,0.337c-0.048,0.106-0.136,0.189-0.245,0.23l-0.372,0.139
	c-1.961,0.73-2.166,0.806-2.731,2.77c-0.054,0.185-0.222,0.313-0.415,0.316H76.731z"/>
<path style="fill:#FFFFFF;" d="M85.756,62.26c0.098,0.038,0.191,0.074,0.282,0.109c1.357,0.521,2.058,0.791,2.611,1.917
	c0.548-2.035,0.265-2.815-2.154-4.358C86.292,60.693,86.045,61.474,85.756,62.26 M88.693,66.101h-0.004
	c-0.193-0.002-0.362-0.13-0.416-0.314c-0.537-1.828-0.844-1.946-2.549-2.601c-0.211-0.081-0.44-0.169-0.69-0.269
	c-0.223-0.088-0.333-0.339-0.247-0.563c0.418-1.091,0.756-2.173,1.005-3.216c0.033-0.136,0.128-0.249,0.258-0.303
	c0.129-0.053,0.276-0.042,0.396,0.031c3.691,2.255,3.801,3.326,2.664,6.929C89.053,65.977,88.884,66.101,88.693,66.101z"/>
<path style="fill:#FFFFFF;" d="M92.93,73.395c-0.172,0-0.336-0.103-0.405-0.272c-0.299-0.731-0.846-1.343-1.54-1.725
	c-0.082-0.045-0.148-0.115-0.187-0.199c-0.566-1.22-1.801-2.008-3.145-2.008c-0.785,0-1.525,0.256-2.142,0.74
	c-0.454,0.356-0.814,0.825-1.043,1.354c-0.071,0.164-0.238,0.27-0.415,0.263c-0.179-0.005-0.337-0.119-0.398-0.288
	c-0.346-0.955-1.262-1.597-2.28-1.597c-0.46,0-0.906,0.129-1.29,0.373c-0.189,0.118-0.36,0.262-0.511,0.429
	c-0.083,0.092-0.201,0.144-0.325,0.144h-0.002c-0.125,0-0.244-0.054-0.326-0.148c-0.632-0.716-1.542-1.127-2.497-1.127
	c-1.833,0-3.324,1.489-3.324,3.32c0,0.086,0.004,0.176,0.011,0.269c0.019,0.241-0.161,0.451-0.402,0.471
	c-0.242,0.019-0.451-0.161-0.47-0.402c-0.009-0.116-0.014-0.229-0.014-0.338c0-2.313,1.884-4.195,4.199-4.195
	c1.054,0,2.064,0.395,2.834,1.098c0.114-0.095,0.235-0.183,0.361-0.262c0.522-0.331,1.13-0.507,1.756-0.507
	c1.09,0,2.095,0.541,2.702,1.405c0.248-0.358,0.549-0.68,0.893-0.951c0.773-0.606,1.701-0.926,2.683-0.926
	c1.636,0,3.142,0.932,3.877,2.386c0.811,0.481,1.449,1.218,1.805,2.09c0.091,0.224-0.016,0.479-0.24,0.57
	C93.041,73.385,92.985,73.395,92.93,73.395"/>
<path style="fill:#FFFFFF;" d="M81.376,68.788c1.09,0,2.094,0.541,2.702,1.406c0.182-0.264,0.394-0.508,0.629-0.726
	c-0.561-1.325-0.972-3.307-1.125-4.193l-1.863-0.008c-0.122,0.703-0.431,2.253-0.977,3.582
	C80.95,68.809,81.162,68.788,81.376,68.788 M84.067,71.549c-0.004,0-0.009,0-0.013,0c-0.18-0.006-0.337-0.12-0.398-0.289
	c-0.346-0.955-1.262-1.596-2.28-1.596c-0.46,0-0.906,0.128-1.29,0.372c-0.172,0.109-0.396,0.085-0.541-0.057
	c-0.145-0.143-0.173-0.367-0.067-0.54c0.99-1.627,1.432-4.643,1.436-4.673c0.031-0.216,0.216-0.376,0.433-0.376h0.002l2.608,0.011
	c0.118,0.001,0.23,0.049,0.313,0.134c0.072,0.075,0.115,0.172,0.121,0.275c0.031,0.253,0.535,3.125,1.244,4.586
	c0.09,0.185,0.039,0.407-0.123,0.535c-0.454,0.357-0.815,0.825-1.043,1.354C84.399,71.446,84.241,71.549,84.067,71.549z"/>
<path style="fill:#FFFFFF;" d="M84.546,65.277c-0.242,0-0.438-0.195-0.438-0.437v-0.001c0-0.242,0.196-0.438,0.438-0.438
	c0.242,0,0.438,0.196,0.438,0.438C84.984,65.081,84.788,65.277,84.546,65.277"/>
<path style="fill:#FFFFFF;" d="M73.411,68.256c-0.083,0-0.167-0.024-0.241-0.073c-0.202-0.133-0.257-0.405-0.124-0.606
	c0.619-0.935,0.903-1.659,0.905-1.666c0.088-0.225,0.341-0.338,0.566-0.251c0.226,0.087,0.338,0.34,0.251,0.565
	c-0.013,0.033-0.317,0.815-0.992,1.835C73.692,68.187,73.553,68.256,73.411,68.256"/>
<path style="fill:#FFFFFF;" d="M91.499,69.191c-0.1,0-0.2-0.034-0.283-0.104c-0.651-0.552-1.14-2.151-1.231-2.466
	c-0.068-0.232,0.066-0.475,0.298-0.542s0.475,0.066,0.542,0.298c0.198,0.679,0.625,1.761,0.957,2.043
	c0.185,0.156,0.207,0.432,0.051,0.616C91.747,69.138,91.623,69.191,91.499,69.191"/>
<path style="fill:#FFFFFF;" d="M86.415,60.082l-0.819-0.307c1.364-3.64,0.964-6.485,0.389-8.231
	c-0.626-1.896-1.589-2.948-1.598-2.959l0.64-0.597c0.044,0.047,1.084,1.174,1.773,3.236C87.432,53.112,87.878,56.181,86.415,60.082"
	/>
<path style="fill:#FFFFFF;" d="M78.832,60.082c-1.463-3.901-1.017-6.97-0.385-8.858c0.69-2.062,1.73-3.189,1.774-3.236l0.639,0.598
	l-0.32-0.299l0.32,0.298c-0.009,0.011-0.972,1.063-1.598,2.959c-0.575,1.746-0.975,4.591,0.389,8.231L78.832,60.082z"/>
<path style="fill:#FFFFFF;" d="M82.716,52.864c-0.442,0-0.852,0.17-1.159,0.479c-0.307,0.307-0.475,0.717-0.474,1.152
	c0.003,0.906,0.742,1.644,1.649,1.647l0.005,0.437v-0.437c0.437,0,0.848-0.17,1.155-0.478c0.307-0.308,0.475-0.717,0.473-1.153
	C84.362,53.606,83.623,52.867,82.716,52.864 M82.737,57.017h-0.008c-1.386-0.004-2.517-1.134-2.521-2.519
	c-0.002-0.67,0.257-1.3,0.729-1.773c0.473-0.475,1.103-0.736,1.774-0.736c1.394,0.004,2.525,1.134,2.53,2.519
	c0.001,0.67-0.257,1.3-0.729,1.774C84.039,56.756,83.409,57.017,82.737,57.017z"/>
</svg>
