<svg fill="#1da1f2" xmlns="http://www.w3.org/2000/svg" xmlns:xlink="http://www.w3.org/1999/xlink" x="0px" y="0px" width="25px" height="21px" viewBox="0 0 27.105 22.027" >
<path d="M24.332,5.488c0.012,0.234,0.016,0.473,0.016,0.715c0,7.351-5.594,15.824-15.821,15.824c-3.144,0-6.066-0.922-8.527-2.5
	c0.438,0.051,0.879,0.078,1.328,0.078c2.606,0,5-0.886,6.902-2.379c-2.429-0.047-4.484-1.652-5.191-3.863
	c0.34,0.066,0.688,0.102,1.047,0.102c0.508,0,1-0.071,1.465-0.196C3.008,12.758,1.09,10.508,1.09,7.816v-0.07
	c0.75,0.418,1.605,0.668,2.519,0.695C2.117,7.445,1.137,5.742,1.137,3.812c0-1.019,0.273-1.972,0.75-2.797
	C4.629,4.379,8.73,6.594,13.348,6.828c-0.094-0.41-0.145-0.832-0.145-1.27c0-3.07,2.492-5.558,5.563-5.558
	c1.601,0,3.046,0.676,4.058,1.754c1.266-0.25,2.457-0.711,3.531-1.348c-0.414,1.297-1.296,2.387-2.445,3.074
	c1.125-0.133,2.199-0.433,3.195-0.875C26.359,3.722,25.418,4.703,24.332,5.488L24.332,5.488z M24.332,5.488"/>
</svg>
