<?xml version="1.0" encoding="utf-8"?>
<!-- Generator: Adobe Illustrator 16.0.0, SVG Export Plug-In . SVG Version: 6.00 Build 0)  -->
<!DOCTYPE svg PUBLIC "-//W3C//DTD SVG 1.1//EN" "http://www.w3.org/Graphics/SVG/1.1/DTD/svg11.dtd">
<svg version="1.1" id="Layer_1" xmlns="http://www.w3.org/2000/svg" xmlns:xlink="http://www.w3.org/1999/xlink" x="0px" y="0px"
	 width="800px" height="600px" viewBox="0 0 800 600" enable-background="new 0 0 800 600" xml:space="preserve">
<g opacity="0.25" id="Ebene_2_1_">
	<!-- <rect x="206.55" y="66.523" fill="#ABC8DC" width="388.871" height="468.273"/> -->
	<path fill="#DCE8EB" d="M511.739,463.742c0-0.215,0-0.428,0-0.643c0-3.424-2.566-6.42-5.992-6.848c0-0.215,0-0.428,0-0.643
		c0-3.424-2.568-6.42-5.992-6.848c0.428-0.643,0.643-1.498,0.643-2.355c0-2.141-1.713-4.066-3.854-4.279
		c0.215-0.428,0.215-0.643,0.215-1.07c0-0.857-0.428-1.498-1.07-1.926c0.855-0.43,1.713-1.285,1.713-2.568
		c0-1.285-0.855-2.355-1.926-2.568l-1.285-151.953h-10.273l1.285,152.809c-0.643,0.428-0.855,0.855-0.855,1.713
		c0,0.641,0.428,1.283,0.855,1.498c-0.855,0.428-1.285,1.07-1.285,1.926c0,0.428,0.215,0.855,0.215,1.07
		c-2.141,0.213-3.852,2.141-3.852,4.279c0,1.285,0.641,2.568,1.498,3.211c-2.783,0.855-4.709,3.424-4.709,6.42c0,0,0,0,0,0.215
		c-3.426,0.428-5.992,3.424-5.992,6.848c0,0.643,0,1.07,0.215,1.498h40.447V463.742z"/>
	<path fill="#92C4D0" d="M485.415,282.684c0,0.855-0.213,1.926-0.213,2.996c0,6.205,1.711,11.984,4.279,15.623
		c2.568-3.854,4.281-9.418,4.281-15.623c0-1.07,0-1.928-0.215-2.996H485.415z"/>
	<path fill="#ABC8DC" d="M487.343,283.324c0,0.428,0,0.857,0,1.498c0,3.211,0.855,5.994,2.139,7.92
		c1.285-1.926,2.141-4.709,2.141-7.92c0-0.428,0-1.07,0-1.498H487.343z"/>
	<path fill="#21366A" d="M489.911,174.818c0,0,16.479,17.121,16.693,40.234c0.213,23.756-4.924,52.006-4.924,52.006h-11.77V174.818z
		"/>
	<path fill="#ABC8DC" d="M489.911,174.818c0,0-16.48,17.121-16.693,40.234c-0.215,23.756,4.922,52.006,4.922,52.006h11.771V174.818z
		"/>
	<path fill="#ABC8DC" d="M490.339,206.064c5.564,0,10.271,4.494,10.271,10.273c0,5.564-4.494,10.271-10.271,10.271
		c-5.564,0-10.273-4.494-10.273-10.271C480.065,210.559,484.56,206.064,490.339,206.064"/>
	<path fill="#1B98B2" d="M500.61,216.338h-1.068c0,2.568-1.07,4.922-2.783,6.42c-1.713,1.713-3.852,2.781-6.42,2.781
		s-4.924-1.068-6.422-2.781c-1.711-1.713-2.781-3.852-2.781-6.42s1.07-4.924,2.781-6.422c1.713-1.711,3.854-2.781,6.422-2.781
		s4.922,1.07,6.42,2.781c1.713,1.713,2.783,3.854,2.783,6.422H500.61h0.857c0-6.207-4.924-11.129-11.129-11.129
		c-6.207,0-11.129,4.922-11.129,11.129c0,6.205,4.922,11.129,11.129,11.129c6.205,0,11.129-4.924,11.129-11.129H500.61z"/>
	<polygon fill="#ABC8DC" points="477.925,254.004 477.497,254.004 477.497,258.713 463.159,269.199 463.159,265.133 478.14,254.219
		477.925,254.004 477.497,254.004 477.925,254.004 477.712,253.576 462.302,264.705 462.302,270.912 478.353,259.141
		478.353,253.148 477.712,253.576 	"/>
	<path fill="#ABC8DC" d="M462.729,263.422c2.568,0,4.496,1.926,4.496,4.494s-1.928,4.494-4.496,4.494
		c-2.566,0-4.494-1.926-4.494-4.494C458.235,265.561,460.376,263.422,462.729,263.422"/>
	<path fill="#21366A" d="M462.729,266.631c0.643,0,1.285,0.643,1.285,1.285c0,0.641-0.643,1.283-1.285,1.283
		c-0.641,0-1.283-0.641-1.283-1.283S462.089,266.631,462.729,266.631"/>
	<rect x="461.446" y="269.627" fill="#ABC8DC" width="2.354" height="10.488"/>
	<path fill="#ABC8DC" d="M456.952,283.324h11.344c-1.5-1.283-3.426-2.139-5.781-2.139
		C460.376,281.186,458.448,282.041,456.952,283.324"/>
	<rect x="462.302" y="279.9" fill="#ABC8DC" width="0.643" height="1.713"/>
	<path fill="#ABC8DC" d="M476.854,252.721c2.568,0,4.496,1.926,4.496,4.494s-1.928,4.494-4.496,4.494
		c-2.566,0-4.494-1.926-4.494-4.494S474.288,252.721,476.854,252.721"/>
	<path fill="#21366A" d="M476.854,255.93c0.643,0,1.285,0.643,1.285,1.285s-0.643,1.283-1.285,1.283
		c-0.855,0-1.283-0.641-1.283-1.283S475.999,255.93,476.854,255.93"/>
	<polygon fill="#92C4D0" points="501.681,254.004 501.253,254.004 501.253,259.141 517.304,270.912 517.304,264.705
		501.253,253.148 501.253,254.004 501.681,254.004 501.468,254.219 516.448,265.133 516.448,269.199 502.108,258.713
		502.108,254.004 501.681,254.004 501.468,254.219 	"/>
	<path fill="#92C4D0" d="M516.876,263.422c-2.568,0-4.494,1.926-4.494,4.494s1.926,4.494,4.494,4.494s4.494-1.926,4.494-4.494
		C521.37,265.561,519.444,263.422,516.876,263.422"/>
	<path fill="#21366A" d="M516.876,266.631c-0.641,0-1.283,0.643-1.283,1.285c0,0.855,0.643,1.283,1.283,1.283
		c0.643,0,1.285-0.641,1.285-1.283C518.374,267.273,517.733,266.631,516.876,266.631"/>
	<rect x="515.806" y="269.627" fill="#92C4D0" width="2.355" height="10.488"/>
	<path fill="#92C4D0" d="M522.868,283.324h-11.342c1.498-1.283,3.424-2.139,5.777-2.139
		C519.231,281.186,521.157,282.041,522.868,283.324"/>
	<rect x="516.663" y="279.9" fill="#92C4D0" width="0.641" height="1.713"/>
	<path fill="#21366A" d="M502.966,252.721c-2.568,0-4.494,1.926-4.494,4.494s1.926,4.494,4.494,4.494s4.494-1.926,4.494-4.494
		S505.319,252.721,502.966,252.721"/>
	<path fill="#21366A" d="M502.966,255.93c-0.643,0-1.285,0.643-1.285,1.285s0.643,1.283,1.285,1.283s1.283-0.641,1.283-1.283
		S503.608,255.93,502.966,255.93"/>
	<path fill="#2B507E" d="M505.106,242.232c0.428-0.641,0.855-2.139,0.428-3.209h-15.41v3.209H505.106z"/>
	<path fill="#92C4D0" d="M474.714,242.232c-0.426-0.641-0.855-2.139-0.426-3.209h15.623v3.209H474.714z"/>
	<path fill="#21366A" d="M490.124,283.539h11.344c-0.215-8.775-5.137-15.623-11.344-15.623l0,0V283.539z"/>
	<path fill="#92C4D0" d="M490.124,283.539h-11.342c0.213-8.775,5.135-15.623,11.342-15.623l0,0V283.539z"/>
	<rect x="486.058" y="267.273" fill="#21366A" width="7.705" height="1.713"/>
	<path fill="#1B98B2" d="M503.608,239.451c0.428,0,0.855,0.428,0.855,0.855s-0.428,0.857-0.855,0.857
		c-0.43,0-0.857-0.43-0.857-0.857S503.179,239.451,503.608,239.451"/>
	<path fill="#1B98B2" d="M498.257,239.451c0.428,0,0.855,0.428,0.855,0.855s-0.428,0.857-0.855,0.857s-0.855-0.43-0.855-0.857
		S497.829,239.451,498.257,239.451"/>
	<path fill="#1B98B2" d="M492.907,239.451c0.428,0,0.855,0.428,0.855,0.855s-0.428,0.857-0.855,0.857s-0.857-0.43-0.857-0.857
		C491.837,239.879,492.265,239.451,492.907,239.451"/>
	<path fill="#ABC8DC" d="M487.556,239.451c0.428,0,0.857,0.428,0.857,0.855s-0.43,0.857-0.857,0.857s-0.855-0.43-0.855-0.857
		S487.128,239.451,487.556,239.451"/>
	<path fill="#ABC8DC" d="M482.206,239.451c0.428,0,0.855,0.428,0.855,0.855s-0.428,0.857-0.855,0.857s-0.855-0.43-0.855-0.857
		S481.778,239.451,482.206,239.451"/>
	<path fill="#ABC8DC" d="M476.642,239.451c0.428,0,0.855,0.428,0.855,0.855s-0.428,0.857-0.855,0.857s-0.857-0.43-0.857-0.857
		S476.214,239.451,476.642,239.451"/>
	<path fill="#ABC8DC" d="M423.136,445.764c0-4.064,7.277-7.275,16.053-7.275c8.988,0,16.051,3.211,16.051,7.275v7.705h-32.104
		V445.764z"/>
	<polygon fill="#21366A" points="465.513,463.527 412.864,463.527 417.573,455.182 461.019,455.182 	"/>
	<path fill="#ABC8DC" d="M417.573,455.182c0.426-0.855,1.496-1.713,2.566-1.713h38.523c0.855,0,2.141,0.857,2.568,1.713H417.573z"/>
	<path fill="#8CC1CF" d="M439.188,438.273c-3.211,0-6.207,0.428-8.775,1.285c1.498,1.07,4.281,1.711,7.705,1.711
		c3.639,0,6.85-0.855,8.133-2.139C444.11,438.488,441.757,438.273,439.188,438.273"/>
	<rect x="365.138" y="463.314" fill="#0593AE" width="153.023" height="43.445"/>
	<path fill="#434343" d="M299.435,404.244c0,0-2.783,16.48,10.7,30.82c7.919,8.346,19.048,20.117,26.753,28.25
		c3.638,3.852,9.631,4.279,9.631,4.279l65.062-21.4l-16.48-44.516l-78.759-13.912L299.435,404.244z"/>
	<path fill="#666060" d="M299.648,410.666c0,0,1.069,16.266,14.981,29.748c3.852,3.639,8.774,9.631,12.841,13.27
		c3.853,3.639,10.272,2.996,16.051-2.568c5.779-5.779,10.915-10.916,22.473-23.113c11.557-12.199,5.351-33.389,5.351-33.389
		l-47.084-7.49L299.648,410.666z"/>
	<path fill="#A7A0A5" d="M370.916,433.352c14.981-2.996,20.546-4.281,27.608-5.564c9.631,6.207,12.199,7.918,17.764,11.771
		c7.49,4.922,19.902,2.568,25.254,0.213c8.348-3.852,10.059-10.486,7.492-15.195c-1.07,0-14.127,0-21.189,0
		c-5.992-4.922-15.838-13.055-22.686-19.047c-6.421-5.35-14.554-8.133-19.048-8.988c-17.764-3.211-43.018-10.488-43.018-10.488
		l-25.896,14.127c0,0,21.402,22.898,21.83,23.541C343.094,428.002,358.289,435.92,370.916,433.352"/>
	<path fill="#816661" d="M317.411,400.18c0,0,21.402,22.898,21.83,23.541c3.853,4.281,19.048,12.199,31.675,9.631
		c14.981-2.996,20.546-4.281,27.608-5.564c9.631,6.207,12.199,7.918,17.764,11.771c7.49,4.922,19.902,2.568,25.254,0.213
		c8.348-3.852,10.059-10.486,7.492-15.195c-1.07,0-14.127,0-21.189,0c-5.992-4.922-15.838-13.055-22.686-19.047
		c-6.421-5.35-14.554-8.133-19.048-8.988c-17.764-3.211-42.804-10.488-42.804-10.488L317.411,400.18z"/>
	<path fill="#BCAEAA" d="M431.698,427.145c0,0.857,0.641,2.783,2.566,2.783c0.215,0,6.637,0,6.85,0c2.568,0,4.494-0.215,5.35-1.713
		s1.07-3.639,1.07-3.639h-16.051C431.911,424.576,431.698,426.289,431.698,427.145"/>
	<polygon fill="#21366A" points="281.457,403.604 235.015,313.715 293.014,283.539 339.884,372.785 	"/>
	<path fill="#ABC8DC" d="M288.091,408.953c-1.498-2.781-3.638-7.062-3.638-7.062l55.431-29.32l7.062,13.27l-55.431,29.32
		C291.516,415.16,290.018,412.592,288.091,408.953"/>
	<path fill="#D4DBE6" d="M282.099,385.197L282.099,385.197c-2.141,1.07-2.996,3.852-1.926,5.992
		c1.069,2.141,3.852,2.996,5.992,1.926l0,0c2.141-1.068,2.996-3.852,1.926-5.992C287.021,384.77,284.239,384.127,282.099,385.197"/>
	<path fill="#816661" d="M338.6,450.688c-4.494,2.568-5.993,8.346-3.21,12.84l10.914,18.621c2.568,4.494,8.347,5.992,12.842,3.209
		c4.494-2.568,5.992-8.346,3.21-12.84l-10.915-18.621c-1.712-2.996-4.922-4.494-8.133-4.494
		C341.81,449.402,340.098,449.83,338.6,450.688"/>
	<path fill="#BCAEAA" d="M341.382,454.754c-1.284,0.855-5.137,3.852-2.782,7.705c0,0.213,2.996,4.922,2.996,5.135
		c0.856,1.498,2.568,1.07,3.21,0.857c0.429-0.215,2.782-1.498,3.425-1.928c0.642-0.428,2.782-1.711,3.424-1.926
		c0.643-0.428,1.712-1.711,0.856-3.209c0,0-2.996-4.924-2.996-5.137c-1.07-1.926-2.568-2.355-4.066-2.355
		C343.735,453.469,342.023,454.326,341.382,454.754"/>
	<path fill="#816661" d="M353.795,439.771c-4.495,2.568-5.993,8.348-3.21,12.842l14.98,25.469c2.568,4.494,8.347,5.992,12.842,3.209
		c4.494-2.568,5.992-8.346,3.21-12.84l-14.981-25.469c-1.712-2.996-4.922-4.494-8.133-4.494
		C357.005,438.488,355.293,438.916,353.795,439.771"/>
	<path fill="#BCAEAA" d="M356.791,445.123c-1.284,0.641-5.137,3.852-2.782,7.705c0,0.213,2.996,4.922,2.996,5.135
		c0.856,1.498,2.568,1.07,3.21,0.857c0.429-0.215,2.782-1.498,3.425-1.926c0.642-0.43,2.782-1.713,3.424-1.928
		c0.643-0.428,1.713-1.711,0.856-3.209c0,0-2.996-4.924-2.996-5.137c-1.07-1.926-2.568-2.355-4.066-2.355
		C358.931,443.625,357.433,444.695,356.791,445.123"/>
	<path fill="#816661" d="M371.986,433.779c-4.494,2.568-5.992,8.348-3.21,12.842l14.98,25.469c2.568,4.494,8.348,5.992,12.842,3.209
		c4.494-2.568,5.992-8.346,3.21-12.84l-14.981-25.469c-1.712-2.996-4.922-4.494-8.133-4.494
		C375.196,432.496,373.484,432.924,371.986,433.779"/>
	<path fill="#BCAEAA" d="M375.196,439.131c-1.284,0.641-5.136,3.852-2.782,7.703c0,0.215,2.996,4.924,2.996,5.137
		c0.856,1.498,2.568,1.07,3.211,0.857c0.428-0.215,2.782-1.5,3.424-1.928c0.643-0.428,2.782-1.711,3.425-1.926
		c0.642-0.428,1.712-1.711,0.855-3.209c0,0-2.996-4.924-2.996-5.137c-1.07-1.928-2.568-2.355-4.066-2.355
		C377.551,437.846,375.839,438.701,375.196,439.131"/>
	<path fill="#816661" d="M390.178,427.787c-4.494,2.568-5.992,8.346-3.21,12.842l10.915,18.619
		c2.567,4.494,8.347,5.992,12.841,3.211c4.494-2.568,5.992-8.348,3.209-12.842l-10.914-18.619c-1.711-2.996-4.922-4.494-8.133-4.494
		C393.388,426.504,391.676,426.932,390.178,427.787"/>
	<path fill="#BCAEAA" d="M393.174,432.709c-1.284,0.643-5.136,3.854-2.782,7.705c0,0.215,2.996,4.922,2.996,5.137
		c0.856,1.498,2.568,1.07,3.211,0.855c0.428-0.213,2.782-1.498,3.424-1.926c0.643-0.428,2.781-1.713,3.426-1.926
		c0.641-0.428,1.711-1.713,0.855-3.211c0,0-2.996-4.922-2.996-5.137c-1.071-1.926-2.569-2.354-4.067-2.354
		C395.314,431.426,393.816,432.281,393.174,432.709"/>
</g>
</svg>
