<?xml version="1.0" encoding="utf-8"?>
<!-- Generator: Adobe Illustrator 16.0.0, SVG Export Plug-In . SVG Version: 6.00 Build 0)  -->
<!DOCTYPE svg PUBLIC "-//W3C//DTD SVG 1.1//EN" "http://www.w3.org/Graphics/SVG/1.1/DTD/svg11.dtd">
<svg version="1.1" id="Layer_1" xmlns="http://www.w3.org/2000/svg" xmlns:xlink="http://www.w3.org/1999/xlink" x="0px" y="0px"
	 width="800px" height="428.047px" viewBox="0 86.797 800 428.047" enable-background="new 0 0 800 600" xml:space="preserve">
<g id="Ebene_2_5_">
	<rect x="112.156" y="c" fill="#04729A" width="577.891" height="428.047"/>
	<path fill="#51AFC3" d="M608.031,118.602l7.672,7.664l-93.508,91.781l-38.516-51.93l-64.18,53.836l-22.805-20.312
		c0,0-59.398,47.328-60.359,47.906c-0.766,0.578-0.766,1.531-0.188,1.531c0.188,0,0.383,0,0.766-0.383
		c1.344-0.953,59.781-39.086,59.781-39.086l22.992,21.844l59.406-48.094l42.531,56.906l107.102-101.359l7.477,8.234l11.5-39.656
		L608.031,118.602z"/>
	<polygon fill="#51AFC3" points="392.094,237.008 361.82,218.227 287.094,269.773 287.672,270.547 361.82,219.383 392.477,238.359
		440.953,170.906 521.438,275.328 619.922,213.445 619.344,212.672 521.812,273.797 441.336,169.75 440.766,169.188 	"/>
	<path fill="#FFFFFF" d="M630.453,218.047c-2.867,5.938-9.953,8.617-15.906,5.734c-5.938-2.867-8.625-9.953-5.75-15.891
		c2.883-5.938,9.969-8.625,15.906-5.758C630.641,205.016,633.328,212.109,630.453,218.047"/>
	<path fill="#74438D" d="M623.945,215.172c-1.156,2.492-4.023,3.445-6.516,2.297c-2.492-1.156-3.461-4.023-2.305-6.516
		s4.023-3.445,6.516-2.305C624.125,209.797,625.086,212.672,623.945,215.172"/>
	<path fill="#FFFFFF" d="M445.359,172.242c-1.156,2.5-4.023,3.461-6.516,2.305c-2.484-1.156-3.445-4.023-2.297-6.516
		c1.156-2.484,4.031-3.445,6.516-2.305C445.359,166.883,446.312,169.945,445.359,172.242"/>
	<path fill="#FFFFFF" d="M525.836,276.672c-1.148,2.492-4.023,3.453-6.508,2.297c-2.492-1.148-3.461-4.023-2.312-6.516
		c1.156-2.484,4.031-3.445,6.531-2.289C525.836,271.305,526.984,274.375,525.836,276.672"/>
	<path fill="#FFFFFF" d="M396.695,239.891c-1.148,2.484-4.023,3.445-6.516,2.297c-2.492-1.156-3.445-4.031-2.305-6.516
		c1.156-2.492,4.031-3.453,6.516-2.305C396.891,234.516,397.844,237.391,396.695,239.891"/>
	<path fill="#FFFFFF" d="M365.844,221.297c-1.148,2.484-4.023,3.453-6.516,2.305c-2.492-1.156-3.445-4.023-2.297-6.516
		s4.023-3.445,6.516-2.305C366.039,215.938,366.992,218.805,365.844,221.297"/>
	<polygon fill="#FFFFFF" points="489.359,145.734 491.25,144.797 492.188,146.695 490.289,147.625 	"/>
	<polygon fill="#FFFFFF" points="487.25,146.898 489.148,145.961 490.078,147.859 488.188,148.781 	"/>
	<polygon fill="#FFFFFF" points="490.125,143.062 492.016,142.133 492.953,144.016 491.062,144.953 	"/>
	<polygon fill="#FFFFFF" points="484.539,145.781 486.422,144.844 487.352,146.734 485.453,147.664 	"/>
	<polygon fill="#FFFFFF" points="489.172,141.148 491.062,140.211 491.992,142.109 490.109,143.047 	"/>
	<polygon fill="#FFFFFF" points="486.5,140.188 488.391,139.266 489.328,141.148 487.43,142.086 	"/>
	<polygon fill="#FFFFFF" points="484.727,140.781 486.609,139.844 487.547,141.727 485.656,142.664 	"/>
	<polygon fill="#FFFFFF" points="487.633,137.289 489.516,136.359 490.453,138.25 488.562,139.188 	"/>
	<polygon fill="#FFFFFF" points="484.75,136.484 486.648,135.547 487.578,137.438 485.688,138.367 	"/>
	<polygon fill="#FFFFFF" points="483,137.141 484.891,136.203 485.82,138.102 483.938,139.031 	"/>
	<polygon fill="#FFFFFF" points="481.07,137.891 482.953,136.953 483.891,138.844 482,139.773 	"/>
	<polygon fill="#FFFFFF" points="428.5,163.953 429.969,162.188 431.734,163.648 430.273,165.414 	"/>
	<polygon fill="#FFFFFF" points="422.273,165.086 423.734,163.312 425.516,164.781 424.047,166.547 	"/>
	<polygon fill="#FFFFFF" points="423.656,163.367 425.125,161.594 426.891,163.07 425.43,164.844 	"/>
	<polygon fill="#FFFFFF" points="425.164,161.617 426.625,159.852 428.406,161.328 426.938,163.094 	"/>
	<polygon fill="#FFFFFF" points="426.672,159.953 428.141,158.188 429.906,159.656 428.445,161.422 	"/>
	<polygon fill="#FFFFFF" points="420.609,163.578 422.078,161.812 423.859,163.281 422.383,165.047 	"/>

		<rect x="423.891" y="158.813" transform="matrix(-0.6395 0.7688 -0.7688 -0.6395 819.8324 -64.5026)" fill="#FFFFFF" width="2.297" height="2.297"/>
	<polygon fill="#FFFFFF" points="419.188,162.5 420.656,160.727 422.43,162.195 420.969,163.961 	"/>
	<polygon fill="#FFFFFF" points="421.758,158.609 423.234,156.828 424.984,158.305 423.523,160.078 	"/>
	<polygon fill="#FFFFFF" points="418.445,158.961 419.906,157.195 421.688,158.672 420.219,160.438 	"/>
	<polygon fill="#FFFFFF" points="419.969,157.297 421.438,155.523 423.211,157 421.734,158.766 	"/>
	<polygon fill="#FFFFFF" points="418.242,155.914 419.719,154.148 421.469,155.625 420.008,157.391 	"/>
	<polygon fill="#FFFFFF" points="590.281,206.203 591.781,204.734 593.25,206.25 591.75,207.719 	"/>
	<polygon fill="#FFFFFF" points="591.68,204.797 593.18,203.328 594.656,204.828 593.156,206.305 	"/>
	<polygon fill="#FFFFFF" points="586.141,205.594 587.641,204.125 589.117,205.633 587.609,207.109 	"/>
	<polygon fill="#FFFFFF" points="591.938,202.172 593.445,200.703 594.922,202.203 593.406,203.68 	"/>
	<polygon fill="#FFFFFF" points="583.953,203.727 585.453,202.25 586.938,203.758 585.43,205.234 	"/>
	<polygon fill="#FFFFFF" points="590.398,200.812 591.906,199.344 593.367,200.844 591.859,202.32 	"/>
	<polygon fill="#FFFFFF" points="585.922,201.922 587.43,200.445 588.906,201.953 587.398,203.422 	"/>
	<polygon fill="#FFFFFF" points="587.422,200.258 588.938,198.781 590.398,200.289 588.891,201.766 	"/>
	<polygon fill="#FFFFFF" points="583.109,202.188 584.617,200.711 586.102,202.219 584.586,203.688 	"/>
	<polygon fill="#FFFFFF" points="587.531,197.938 589.031,196.461 590.508,197.977 589,199.453 	"/>
	<polygon fill="#FFFFFF" points="581.391,197.781 582.898,196.305 584.375,197.812 582.867,199.297 	"/>
	<polygon fill="#FFFFFF" points="584.562,197.375 586.062,195.906 587.539,197.422 586.023,198.891 	"/>
	<polygon fill="#FFFFFF" points="642.75,193.68 644.375,190.633 647.422,192.266 645.789,195.297 	"/>
	<polygon fill="#FFFFFF" points="644.188,190.203 645.82,187.156 648.867,188.781 647.234,191.82 	"/>
	<polygon fill="#FFFFFF" points="643.523,186.969 645.156,183.922 648.188,185.555 646.562,188.602 	"/>
	<polygon fill="#FFFFFF" points="648.211,185.57 649.844,182.531 652.875,184.156 651.258,187.203 	"/>
	<polygon fill="#FFFFFF" points="652.688,184.438 654.312,181.406 657.352,183.031 655.719,186.07 	"/>
	<polygon fill="#FFFFFF" points="647.609,176.641 649.234,173.602 652.273,175.234 650.656,178.266 	"/>
	<polygon fill="#FFFFFF" points="648.672,177.953 650.289,174.906 653.336,176.539 651.703,179.578 	"/>
	<polygon fill="#FFFFFF" points="653.375,180.133 655,177.086 658.047,178.719 656.414,181.75 	"/>
	<polygon fill="#FFFFFF" points="654.453,181.172 656.078,178.133 659.117,179.75 657.484,182.797 	"/>
	<polygon fill="#FFFFFF" points="550.531,144.039 552.195,141.93 554.297,143.602 552.633,145.703 	"/>
	<polygon fill="#FFFFFF" points="554.773,143.695 554.773,143.695 553.047,145.805 555.156,147.344 556.688,145.422 	"/>
	<polygon fill="#FFFFFF" points="556.688,145.422 556.688,145.422 555.156,147.344 557.25,149.062 558.797,146.961 	"/>
	<polygon fill="#FFFFFF" points="554.188,143.641 555.844,141.539 557.953,143.203 556.297,145.312 	"/>
	<polygon fill="#FFFFFF" points="555.906,141.492 557.578,139.391 559.672,141.047 558.016,143.156 	"/>
	<polygon fill="#FFFFFF" points="557.477,139.656 559.141,137.555 561.234,139.219 559.578,141.312 	"/>
	<polygon fill="#FFFFFF" points="556.727,136.023 558.391,133.922 560.5,135.578 558.828,137.688 	"/>
	<polygon fill="#FFFFFF" points="561.289,135.453 561.289,135.453 559.562,137.562 561.672,139.094 563.203,137.188 	"/>
	<polygon fill="#FFFFFF" points="560.68,135.414 562.352,133.305 564.453,134.977 562.781,137.078 	"/>
	<polygon fill="#FFFFFF" points="608.18,251.352 609.078,249.234 611.203,250.133 610.289,252.25 	"/>
	<polygon fill="#FFFFFF" points="608.234,249.508 609.141,247.391 611.25,248.289 610.352,250.406 	"/>

		<rect x="604.819" y="250.991" transform="matrix(-0.3906 0.9205 -0.9205 -0.3906 1074.7893 -207.1852)" fill="#FFFFFF" width="2.3" height="2.3"/>
	<polygon fill="#FFFFFF" points="607.016,246.039 607.93,243.922 610.047,244.828 609.141,246.938 	"/>
	<polygon fill="#FFFFFF" points="602.898,251.805 603.797,249.688 605.906,250.578 605.008,252.703 	"/>
	<polygon fill="#FFFFFF" points="605.016,245.414 605.922,243.297 608.031,244.195 607.141,246.312 	"/>

		<rect x="600.28" y="249.038" transform="matrix(-0.3906 0.9205 -0.9205 -0.3906 1066.6792 -205.7229)" fill="#FFFFFF" width="2.3" height="2.3"/>
	<polygon fill="#FFFFFF" points="601.102,248.68 602,246.562 604.109,247.453 603.211,249.578 	"/>
	<polygon fill="#FFFFFF" points="601.859,246.406 602.766,244.281 604.875,245.18 603.969,247.297 	"/>
	<polygon fill="#FFFFFF" points="603.547,244.461 604.438,242.344 606.547,243.234 605.656,245.359 	"/>

		<rect x="598.405" y="248.178" transform="matrix(-0.3906 0.9205 -0.9205 -0.3906 1063.2808 -205.192)" fill="#FFFFFF" width="2.3" height="2.3"/>
	<polygon fill="#FFFFFF" points="596.727,246.719 597.625,244.609 599.734,245.5 598.836,247.609 	"/>
	<polygon fill="#FFFFFF" points="598.312,244.875 599.203,242.766 601.336,243.672 600.43,245.781 	"/>
	<polygon fill="#FFFFFF" points="556.125,238.133 558.422,236.43 560.133,238.75 557.82,240.445 	"/>
	<polygon fill="#FFFFFF" points="557.719,235.992 560.031,234.281 561.734,236.594 559.422,238.305 	"/>
	<polygon fill="#FFFFFF" points="560.711,234.672 563.031,232.969 564.734,235.281 562.422,236.984 	"/>
	<polygon fill="#FFFFFF" points="562.891,232.516 565.203,230.805 566.906,233.125 564.594,234.82 	"/>
	<polygon fill="#FFFFFF" points="554.148,235.562 556.461,233.852 558.172,236.172 555.844,237.875 	"/>
	<polygon fill="#FFFFFF" points="554.773,231.797 557.086,230.086 558.797,232.398 556.469,234.109 	"/>
	<polygon fill="#FFFFFF" points="557.219,229.453 559.539,227.75 561.234,230.062 558.922,231.766 	"/>
	<polygon fill="#FFFFFF" points="557.844,225.867 560.141,224.156 561.859,226.469 559.539,228.18 	"/>
	<polygon fill="#FFFFFF" points="548.992,228.445 551.305,226.742 553.016,229.062 550.703,230.758 	"/>
	<polygon fill="#FFFFFF" points="556.078,223.266 558.398,221.57 560.109,223.883 557.781,225.578 	"/>
	<polygon fill="#FFFFFF" points="549.797,224.711 552.109,223 553.812,225.32 551.5,227.016 	"/>
	<polygon fill="#FFFFFF" points="551.961,222.547 554.281,220.844 555.984,223.156 553.672,224.859 	"/>

		<rect x="533.567" y="184.161" transform="matrix(-0.8659 0.5002 -0.5002 -0.8659 1090.6647 78.4605)" fill="#FFFFFF" width="2.499" height="2.499"/>

		<rect x="535.488" y="182.879" transform="matrix(-0.8651 0.5015 -0.5015 -0.8651 1093.429 74.2303)" fill="#FFFFFF" width="2.492" height="2.492"/>
	<polygon fill="#FFFFFF" points="529.664,184 531.828,182.75 533.078,184.906 530.914,186.156 	"/>
	<polygon fill="#FFFFFF" points="535.984,180.219 538.156,178.969 539.391,181.125 537.234,182.375 	"/>

		<rect x="529.48" y="181.848" transform="matrix(-0.8651 0.5015 -0.5015 -0.8651 1081.7064 75.3199)" fill="#FFFFFF" width="2.492" height="2.492"/>

		<rect x="535.105" y="177.129" transform="matrix(-0.8651 0.5015 -0.5015 -0.8651 1089.8313 63.6977)" fill="#FFFFFF" width="2.492" height="2.492"/>

		<rect x="528.332" y="179.738" transform="matrix(-0.8651 0.5015 -0.5015 -0.8651 1078.5066 71.9616)" fill="#FFFFFF" width="2.492" height="2.492"/>

		<rect x="533.957" y="175.019" transform="matrix(-0.8651 0.5015 -0.5015 -0.8651 1086.6313 60.3394)" fill="#FFFFFF" width="2.492" height="2.492"/>
	<polygon fill="#FFFFFF" points="526.516,177.969 528.68,176.719 529.922,178.875 527.766,180.125 	"/>
	<polygon fill="#FFFFFF" points="532.156,173.516 534.305,172.273 535.555,174.422 533.406,175.672 	"/>
	<polygon fill="#FFFFFF" points="526.781,174.039 528.953,172.789 530.195,174.945 528.031,176.195 	"/>

		<rect x="529.168" y="171.957" transform="matrix(-0.8651 0.5015 -0.5015 -0.8651 1076.1631 57.0293)" fill="#FFFFFF" width="2.492" height="2.492"/>
	<polygon fill="#FFFFFF" points="581.828,131.352 583.633,129.375 585.609,131.172 583.812,133.156 	"/>
	<polygon fill="#FFFFFF" points="585.43,131.047 585.43,131.047 583.516,133.156 585.609,134.875 587.539,132.969 	"/>
	<polygon fill="#FFFFFF" points="581.219,127.469 583.023,125.484 585.008,127.281 583.211,129.273 	"/>
	<polygon fill="#FFFFFF" points="586.859,132.297 588.656,130.312 590.656,132.109 588.859,134.094 	"/>
	<polygon fill="#FFFFFF" points="582.703,124.688 584.5,122.703 586.492,124.5 584.695,126.492 	"/>
	<polygon fill="#FFFFFF" points="589.617,131.203 591.414,129.219 593.406,131.023 591.609,133 	"/>
	<polygon fill="#FFFFFF" points="584.508,122.664 586.312,120.672 588.297,122.477 586.5,124.461 	"/>
	<polygon fill="#FFFFFF" points="591.438,129.141 593.234,127.141 595.219,128.953 593.422,130.938 	"/>
	<polygon fill="#FFFFFF" points="586.781,121.336 588.578,119.344 590.578,121.148 588.766,123.133 	"/>

		<rect x="594.066" y="125.329" transform="matrix(-0.6714 0.7411 -0.7411 -0.6714 1089.0271 -229.5628)" fill="#FFFFFF" width="2.688" height="2.677"/>
	<polygon fill="#FFFFFF" points="591.047,121.297 592.844,119.305 594.828,121.102 593.031,123.094 	"/>
	<polygon fill="#FFFFFF" points="594.625,120.891 594.625,120.891 592.898,122.812 594.812,124.734 596.727,122.625 	"/>
	<polygon fill="#FFFFFF" points="458.648,229.547 460.922,228.109 462.352,230.391 460.086,231.812 	"/>
	<polygon fill="#FFFFFF" points="456.688,227.312 458.961,225.875 460.398,228.141 458.125,229.578 	"/>
	<polygon fill="#FFFFFF" points="457.266,233.055 459.539,231.625 460.969,233.891 458.703,235.328 	"/>
	<polygon fill="#FFFFFF" points="452.852,226.148 455.125,224.711 456.547,226.977 454.281,228.414 	"/>
	<polygon fill="#FFFFFF" points="454.969,234.398 457.234,232.969 458.656,235.242 456.391,236.664 	"/>
	<polygon fill="#FFFFFF" points="451.172,228.102 453.438,226.672 454.875,228.938 452.594,230.375 	"/>

		<rect x="453.288" y="234.569" transform="matrix(-0.847 0.5316 -0.5316 -0.847 965.0995 194.0553)" fill="#FFFFFF" width="2.675" height="2.675"/>
	<polygon fill="#FFFFFF" points="451.328,233.625 453.602,232.203 455.031,234.469 452.766,235.906 	"/>
	<polygon fill="#FFFFFF" points="449.672,230.906 451.953,229.477 453.375,231.742 451.102,233.172 	"/>
	<polygon fill="#FFFFFF" points="448.641,229.227 450.914,227.789 452.344,230.062 450.078,231.492 	"/>
	<polygon fill="#FFFFFF" points="451.18,237.398 453.445,235.969 454.883,238.234 452.609,239.672 	"/>
	<polygon fill="#FFFFFF" points="446.922,236.508 449.188,235.078 450.625,237.352 448.344,238.773 	"/>
	<polygon fill="#FFFFFF" points="445.203,233.805 447.469,232.375 448.891,234.641 446.625,236.078 	"/>
	<path fill="#FFFFFF" d="M365.461,156.539c-4.211,0-7.664,3.633-7.664,8.234s3.453,8.242,7.664,8.242s7.664-3.641,7.664-8.242
		C373.32,160.172,369.875,156.539,365.461,156.539"/>
	<path fill="#FFFFFF" d="M371.781,164.773c0,4.602-3.445,8.242-7.664,8.242c-4.211,0-7.656-3.641-7.656-8.242
		s3.445-8.234,7.656-8.234C368.336,156.539,371.781,160.172,371.781,164.773"/>
	<path fill="#21366A" d="M370.633,164.773c0,3.836-2.867,7.086-6.516,7.086c-3.633,0-6.508-3.062-6.508-7.086
		c0-3.828,2.875-7.094,6.508-7.094C367.766,157.68,370.633,160.75,370.633,164.773"/>
	<path fill="#41679D" d="M354.922,361.938c-0.766-0.375-1.719-0.578-2.68-0.375l-42.539,8.805c-2.688,0.578-4.789,3.445-4.789,6.516
		l0.383,27.594c0,1.914,0.953,3.445,2.297,4.211l6.516,4.414l48.477-46.18L354.922,361.938z"/>
	<path fill="#21366A" d="M364.508,398.531c0,3.062-2.109,6.133-4.789,6.711l-42.547,8.82c-2.68,0.57-4.977-1.539-4.977-4.602
		l-0.383-27.602c0-3.055,2.109-6.125,4.789-6.516l42.539-8.805c2.68-0.578,4.977,1.531,4.977,4.602L364.508,398.531z"/>
	<path fill="#21366A" d="M310.852,408.5l-0.383-27.594c0-3.07,2.109-6.133,4.797-6.703l42.531-8.812c1.148-0.203,2.109,0,3.062,0.57
		c0.578,0.383-0.57-0.383-0.57-0.383l-5.367-3.641c-0.766-0.375-1.719-0.578-2.68-0.375l-42.539,8.805
		c-2.688,0.578-4.789,3.445-4.789,6.516l0.383,27.594c0,1.914,0.953,3.445,2.297,4.211l4.984,3.453
		C311.617,411.375,311.047,410.031,310.852,408.5"/>
	<path fill="#1B98B2" d="M341.891,365.188c-0.953,0.203-1.336-0.18-1.336-0.18c0-2.305-1.727-4.023-3.836-3.648h-0.188l-7.477,1.539
		c-2.102,0.383-3.445,2.867-3.445,5.359c0,0-0.188,0.773-1.156,0.961c-1.141,0.188-1.719-0.383-1.719-0.383
		c0-4.023,1.531-7.477,5.172-8.234l7.664-1.531c3.453-0.773,7.281,1.719,7.281,5.555
		C342.852,364.43,342.852,365.008,341.891,365.188"/>
	<path fill="#21366A" d="M342.469,365.578c-0.953,0.188-1.344-0.188-1.344-0.188c0-2.297-1.719-4.031-3.828-3.648h-0.195
		l-7.469,1.539c-2.109,0.375-3.453,2.875-3.453,5.367c0,0-0.188,0.758-1.148,0.961c-1.148,0.18-1.719-0.391-1.719-0.391
		c0-4.031,1.531-7.477,5.164-8.234l7.672-1.531c3.445-0.773,7.273,1.719,7.273,5.555
		C343.625,364.625,343.625,365.188,342.469,365.578"/>
	<path fill="#A0CBD6" d="M339.023,393.367c0,0.383-0.391,0.758-0.766,0.953c-0.391,0-0.773-0.195-0.773-0.57v-1.922
		c-0.383-0.188-0.766-0.57-0.766-1.148c0-0.758,0.578-1.727,1.344-1.914c0.766-0.195,1.344,0.383,1.344,1.336
		c0,0.578-0.195,1.156-0.578,1.539L339.023,393.367z M341.703,388.57c0-2.297-1.727-3.641-3.641-3.25
		c-1.914,0.383-3.453,2.492-3.453,4.781v4.023c0,2.305,1.727,3.641,3.648,3.266c1.914-0.383,3.633-2.492,3.445-4.797V388.57z"/>
	<polygon fill="#21366A" points="363.93,171.859 327.328,170.328 327.328,159.031 363.93,157.68 	"/>
	<path fill="#415C97" d="M332.508,164.773c0,3.062-2.297,5.555-5.18,5.555c-2.875,0-5.172-2.492-5.172-5.555
		c0-3.07,2.297-5.555,5.172-5.555C330.211,159.031,332.508,161.516,332.508,164.773"/>
	<polygon fill="#21366A" points="327.523,169.375 302.227,168.414 302.227,160.945 327.523,160.172 	"/>
	<path fill="#415C97" d="M305.875,164.773c0,2.109-1.539,3.641-3.453,3.641s-3.453-1.727-3.453-3.641
		c0-2.109,1.539-3.648,3.453-3.648C304.336,160.945,305.875,162.664,305.875,164.773"/>
	<path fill="#816661" d="M329.82,181.062c0.195-2.109-0.383-5.562-2.492-7.672c-1.906-1.906-2.875-2.484-2.875-2.484
		s0.195-0.961,2.109-0.195c3.07,0.961,3.258,4.031,7.281,1.531c1.727-0.961,3.836-5.938,4.414-6.516
		c0.57-0.383,0.953-0.18,0.953-0.18s0-0.391,0.578-0.578c0.57-0.195,0.766,0,0.766,0s-1.531,8.242-5.18,13.219
		c-0.375,0.578-0.57,1.531-0.953,2.875c-0.188,0.758-0.578,1.727-0.578,1.727l-4.406-0.969
		C329.633,181.82,329.82,181.438,329.82,181.062"/>
	<path fill="#1E3768" d="M320.625,211.906c2.688-12.445,7.477-29.695,7.664-30.469c0.961-1.148,5.18-2.289,6.516,1.156
		c0,3.828-2.875,38.516-3.445,39.469C330.586,223.219,330.398,213.828,320.625,211.906"/>
	<path fill="#21366A" d="M305.109,164.773c0,1.727-1.344,3.062-2.883,3.062c-1.531,0-2.867-1.336-2.867-3.062
		c0-1.719,1.336-3.07,2.867-3.07C303.961,161.703,305.109,163.055,305.109,164.773"/>
	<path fill="#21366A" d="M331.547,164.773c0,2.492-1.914,4.602-4.219,4.602c-2.297,0-4.211-2.109-4.211-4.602
		s1.914-4.602,4.211-4.602C329.633,160.172,331.547,162.094,331.547,164.773"/>
	<polygon fill="#21366A" points="302.227,167.836 277.32,166.883 277.32,162.664 302.227,161.703 	"/>
	<path fill="#21366A" d="M280.391,164.773c0,1.914-1.344,3.258-3.07,3.258c-1.719,0-3.062-1.531-3.062-3.258
		c0-1.914,1.344-3.258,3.062-3.258C279.047,161.516,280.391,162.859,280.391,164.773"/>
	<path fill="#415C97" d="M280.391,164.773H280c0,0.773-0.375,1.531-0.766,2.109c-0.57,0.57-1.148,0.953-1.914,0.953
		s-1.531-0.383-1.914-0.953c-0.578-0.578-0.766-1.336-0.766-2.109c0-0.766,0.383-1.539,0.766-2.109
		c0.57-0.57,1.148-0.961,1.914-0.961s1.539,0.391,1.914,0.961c0.578,0.57,0.766,1.344,0.766,2.109H280.391h0.375
		c0-1.914-1.531-3.648-3.445-3.648s-3.445,1.734-3.445,3.648s1.531,3.641,3.445,3.641s3.445-1.727,3.445-3.641H280.391z"/>
	<path fill="#FFFFFF" d="M275.602,164.773c0,0.953,0.766,1.914,1.719,1.914c0.961,0,1.727-0.766,1.727-1.914
		c0-0.961-0.766-1.914-1.727-1.914C276.367,162.859,275.602,163.625,275.602,164.773"/>
	<path fill="#816661" d="M284.023,162.281l3.266-0.188c0,0,0.188,0.188,0.57,0.383c0.383,0.383,1.156,0.188,1.156,0.188
		s0.766,0.391,1.141,0c0.578,0.391,0.766-0.188,0.766-0.188s-1.531-1.148-2.297-1.914c-0.766-0.578-2.867-0.391-3.062,0
		C285.18,161.125,284.023,162.281,284.023,162.281"/>
	<path fill="#816661" d="M283.07,167.078c0,0,3.836,0.188,4.602,0.188s3.25-1.344,3.828-1.539c0.961-0.383,1.531,0.195,1.531,0.195
		s-3.641,2.297-4.219,5.18c-0.188,0.758-0.375,3.25-0.375,3.25h-3.836c0,0,0.383-3.25-0.188-4.406
		C283.648,168.219,283.07,167.078,283.07,167.078"/>
	<path fill="#1E3768" d="M280.766,191.977c0,0,3.07-18.203,3.258-19.344c1.539-1.148,2.883-1.531,5.367,0.188
		c0.766,10.727,1.531,18.977,1.344,24.711C288.812,196.391,280.766,191.977,280.766,191.977"/>
	<path fill="#1E3768" d="M260.844,496.641c-0.383,1.906,0.188,4.594,0.188,4.594h5.18v-2.109l7.086,2.305h4.789
		c0,0,0.773-1.344-0.383-1.531c-0.383,0-4.023-1.148-4.023-1.148l-5.359-3.07C268.508,495.875,266.594,497.016,260.844,496.641"/>
	<path fill="#1E3768" d="M221.562,496.453l-0.766,4.203c0,0-2.688,0.578-5.172,0.203c-0.383-0.773-0.57-3.266-0.195-4.602
		C218.688,497.406,221.562,496.453,221.562,496.453"/>
	<path fill="#1E3768" d="M214.664,499.32c0,0-2.492-0.383-3.828-1.531c-0.195-1.531,2.484-0.773,4.023-1.531
		c0.195,0,0.766,0.195,0.766,0.195C214.664,497.789,214.664,499.32,214.664,499.32"/>
	<path fill="#2B9DBA" d="M261.031,371.141l-3.633,11.875c0,0-3.258-54.797-0.391-53.461
		C259.695,330.891,261.031,371.141,261.031,371.141"/>
	<path fill="#1B98B2" d="M236.125,183.359l-3.258,3.062c0,0,29.695-2.102,28.164-3.445
		C257.008,178.953,236.125,183.359,236.125,183.359"/>
	<path fill="#816661" d="M250.305,151.938c-2.68,14.75-3.062,13.789-4.023,16.859c-1.531,4.594-3.641,7.281-5.938,10.531
		c3.062-0.758,8.43,0.203,13.984,1.352c5.18,0.961,10.344,1.914,14.18,1.336c4.602-8.047,4.789-10.344,4.789-10.344
		s1.148,0,1.727-0.766c-0.578-3.453-0.766-6.898-0.766-6.898s0.766,0,1.531-0.953c0.578-6.516-0.188-10.93-0.766-15.141
		C263.906,149.25,250.305,151.938,250.305,151.938"/>
	<path fill="#1E3768" d="M233.062,320.172c3.25,0.766,14.75,2.297,20.883,1.141c6.516-1.141-11.688-4.406-16.664-5.359
		c1.719-23.758,48.852-81.242,55.18-60.742c15.711,28.164-0.961,133.742-21.273,241.047c-4.023,1.148-10.914-0.195-10.914-0.195
		s3.258-111.32-3.07-161.711c0.383,15.898,1.148,41.953,1.148,46.367c-16.477,59.773-28.359,93.688-32.57,116.109
		c-5.367,1.156-10.539-1.906-10.539-1.906S233.445,348.336,233.062,320.172"/>
	<path fill="#FFFFFF" d="M267.164,185.086l-2.492-3.445c0,0-4.594-6.516-14.367-8.25c-7.281-1.336-9.195,3.648-9.195,3.648
		s-0.961,2.289-2.492,5.938C253.562,178.766,267.164,185.086,267.164,185.086"/>
	<path fill="#1E3768" d="M269.852,186.617c-1.344-1.148-12.453-8.82-22.992-9.383c-8.438-0.391-11.312,6.695-11.312,6.695
		S252.031,180.289,269.852,186.617"/>
	<path fill="#1E3768" d="M293.227,226.469c0,0,15.898,4.984,29.891,5.359c3.641-1.336,7.664-4.586,8.43-10.914
		c0.383-2.688-1.727-4.977-6.328-6.711c-1.531-0.562-3.445-1.141-5.555-1.531c-11.492-1.914-22.797-10.148-22.797-10.148
		l-29.312-17.242c0,0-17.438-5.18-34.305,0.953c-13.602,9.766-16.664,18.203-16.664,18.203s-0.383,24.141,20.883,70.891
		c-8.625,17.438-8.047,41.961-8.047,41.961s13.984,4.414,35.445,5.375c21.266,0.953,31.039-6.133,36.406-10.156
		c0.953-19.555-2.102-50.211-3.445-60.547C296.102,240.648,293.227,226.469,293.227,226.469"/>
	<path fill="#1B98B2" d="M254.719,296.219c-0.969,7.664-0.391,25.867-0.203,27.016c0.391,1.148,13.609,0,15.906-0.766
		c-2.492,0.195-13.414,0.375-14.172-0.383C255.477,321.125,254.906,301.016,254.719,296.219"/>
	<path fill="#21366A" d="M281.734,146.188C281.734,146.188,281.539,146.188,281.734,146.188
		C281.539,146.188,281.539,146.188,281.734,146.188L281.734,146.188L281.734,146.188 M281.156,145.992h-0.188
		C280.969,145.992,280.969,145.992,281.156,145.992L281.156,145.992 M279.047,146.383c0.188,0,0.383,0,0.383,0
		S279.234,146.383,279.047,146.383 M277.133,146.961C276.938,146.961,276.938,146.961,277.133,146.961
		C276.938,146.961,276.938,146.961,277.133,146.961C276.938,146.961,276.938,146.961,277.133,146.961
		C276.938,146.961,276.938,146.961,277.133,146.961L277.133,146.961L277.133,146.961 M276.555,147.141L276.555,147.141
		L276.555,147.141L276.555,147.141 M276.75,143.695C276.75,143.695,276.938,143.695,276.75,143.695
		C276.938,143.695,276.75,143.695,276.75,143.695L276.75,143.695 M276.172,147.141C275.977,147.141,275.977,147.141,276.172,147.141
		c0,0,0,0.203,0.195,0.203C276.172,147.344,276.172,147.344,276.172,147.141 M275.406,145.992
		C275.406,145.992,275.406,145.805,275.406,145.992c-0.195,0-0.195,0-0.195,0c0,0.195,0,0.391,0,0.578l0,0l0,0l0.195-0.188l0,0
		C275.406,146.383,275.406,146.188,275.406,145.992 M274.828,142.742v0.195C274.828,142.922,274.828,142.922,274.828,142.742
		L274.828,142.742 M274.445,145.234C274.445,145.234,274.641,145.234,274.445,145.234c0.195-0.383,0.383-0.578,0.195-0.961l0,0
		C274.641,144.656,274.641,144.852,274.445,145.234 M274.258,146.188C274.258,146.188,274.258,146.383,274.258,146.188
		c0.188,0.195,0.188,0.195,0.383,0.195v-0.195C274.445,146.383,274.258,146.383,274.258,146.188 M274.258,146.57L274.258,146.57
		L274.258,146.57L274.258,146.57 M273.875,144.273C273.875,144.461,273.875,144.461,273.875,144.273
		c-0.195,0.195-0.195,0.195-0.195,0.383c0,0,0,0,0,0.195C273.875,144.656,273.875,144.461,273.875,144.273
		C274.062,144.273,274.062,144.273,273.875,144.273 M273.68,145.992L273.68,145.992C273.492,145.805,273.492,145.805,273.68,145.992
		c0,0,0.195,0.391,0.195,0.578l0,0c0-0.188,0-0.188,0-0.383C273.68,146.188,273.68,145.992,273.68,145.992 M273.297,144.852
		c0,0,0-0.195-0.188-0.195C273.297,144.461,273.297,144.656,273.297,144.852c-0.188,0-0.188,0-0.188,0l0.188,0.18
		C273.297,144.852,273.297,144.852,273.297,144.852L273.297,144.852 M272.344,141.203
		C272.344,141.203,272.344,141.016,272.344,141.203C272.344,141.016,272.344,141.016,272.344,141.203v0.203
		C272.531,141.406,272.531,141.203,272.344,141.203C272.531,141.203,272.531,141.203,272.344,141.203 M272.148,143.312
		c0,0.188,0,0.383,0,0.578c0,0.188,0.195,0.188,0.195,0.188v-0.188C272.344,143.695,272.148,143.5,272.148,143.312 M271.953,141.586
		L271.953,141.586L271.953,141.586L271.953,141.586 M271.766,140.055L271.766,140.055
		C271.766,140.055,271.766,140.25,271.766,140.055L271.766,140.055L271.766,140.055 M271.578,141.781
		C271.383,141.781,271.383,141.969,271.578,141.781c-0.195,0.188-0.391,0.383-0.578,0.188v0.195v0.195
		C271.188,142.164,271.383,141.969,271.578,141.781L271.578,141.781 M270.812,137.945c0,0.195,0,0.195-0.195,0.391l0.195,0.188
		C270.812,138.141,270.812,137.945,270.812,137.945 M270.617,139.094v0.203c0,0,0,0,0.195,0l0,0
		C270.812,139.297,270.812,139.297,270.617,139.094c0,0,0.195-0.188,0.195-0.375l0,0L270.617,139.094
		C270.812,138.906,270.812,138.906,270.617,139.094 M270.422,142.359c-0.188-0.195-0.188-0.391-0.383-0.578
		C270.039,141.969,270.039,142.164,270.422,142.359l-0.188,0.188c0,0.195,0.188,0.195,0.188,0.391
		c0.195-0.195,0.391-0.391,0.391-0.391C270.617,142.547,270.617,142.547,270.422,142.359 M270.039,144.273L270.039,144.273
		c-0.188,0-0.188,0-0.188,0c0-0.195,0-0.195,0-0.383c0,0,0-0.195-0.195-0.195l-0.188,0.195c0.57,0.766,0.953,1.531,1.531,2.492
		l0.188,0.188C270.617,145.805,270.422,145.031,270.039,144.273 M268.703,139.477c-0.195,0.195-0.195,0.391-0.195,0.578l0,0l0,0
		c0-0.188,0.195-0.188,0.195-0.383S268.703,139.477,268.703,139.477C268.891,139.477,268.891,139.477,268.703,139.477
		 M268.703,141.203c-0.195-0.188-0.195-0.57-0.578-0.766c0,0.195,0,0.195,0,0.391c0,0.188,0.195,0.188,0.195,0.375l0.188,0.203l0,0
		C268.703,141.406,268.703,141.406,268.703,141.203C268.508,141.203,268.508,141.203,268.703,141.203 M271.188,143.312v-0.188l0,0
		V143.312 M267.359,141.203L267.359,141.203C267.359,141.406,267.359,141.406,267.359,141.203L267.359,141.203 M266.211,145.234
		c0-0.203-0.195-0.203-0.195-0.383C266.016,144.852,266.016,145.031,266.211,145.234c0,0,0,0.188,0.188,0.188
		C266.211,145.234,266.211,145.234,266.211,145.234 M265.445,141.781L265.445,141.781L265.445,141.781L265.445,141.781
		 M265.25,139.672L265.25,139.672c-0.188-0.195-0.188-0.195-0.383-0.375l0,0c0,0.18-0.195,0.375-0.383,0.57c0,0.188,0,0.57,0,0.766
		c0.188,0,0.188-0.195,0.383-0.195s0.195,0,0.383,0h0.195L265.25,139.672C264.867,139.867,265.062,139.672,265.25,139.672
		 M265.062,138.336c-0.195-0.195-0.391-0.195-0.391,0H265.062C264.867,138.336,264.867,138.336,265.062,138.336L265.062,138.336
		L265.062,138.336 M263.719,140.438C263.906,140.438,263.906,140.438,263.719,140.438
		C263.906,140.633,263.906,140.633,263.719,140.438C263.906,140.438,263.906,140.25,263.719,140.438
		C263.906,140.25,263.906,140.25,263.719,140.438 M263.336,139.477v-0.18c-0.383-0.203-0.57-0.391-0.773-0.578l-0.188,0.188
		c0.391,0.391,0.766,0.57,1.156,0.961c0,0,0.188,0,0.188-0.195C263.531,139.672,263.336,139.672,263.336,139.477 M263.336,138.141
		c-0.195,0,0,0.383,0,0.383C263.336,138.336,263.336,138.336,263.336,138.141 M263.336,136.031c0,0.195-0.195,0.383-0.195,0.383
		c0,0.195,0,0.195,0.195,0.391C263.336,136.609,263.336,136.414,263.336,136.031L263.336,136.031 M262.766,137.375l-0.203,0.188
		c0,0,0,0.195-0.188,0.195c-0.188,0.188-0.383,0.188-0.578,0.383c0,0.195,0,0.195-0.188,0.195l0.188,0.188c0,0,0,0,0.195,0.195l0,0
		c0.195-0.195,0.195-0.195,0.383-0.383c0-0.391,0.188-0.578,0.391-0.773C262.953,137.562,262.766,137.375,262.766,137.375
		 M261.422,140.055C261.227,140.055,261.227,140.055,261.422,140.055c-0.195,0.195-0.195,0.195-0.391,0.383l0.195,0.195
		c0.195-0.195,0.383-0.195,0.383,0l0,0c0,0,0,0-0.188-0.195C261.609,140.25,261.422,140.25,261.422,140.055 M260.844,139.867
		c0,0-0.188,0.188-0.383,0.188c0,0,0,0,0,0.195l0,0C260.656,140.055,260.844,140.055,260.844,139.867L260.844,139.867
		 M260.273,141.406C260.273,141.406,260.461,141.406,260.273,141.406c0.188,0,0.383,0,0.383,0.18
		C260.656,141.586,260.656,141.406,260.273,141.406C260.656,141.406,260.656,141.406,260.273,141.406
		C260.461,141.406,260.461,141.406,260.273,141.406 M259.883,138.141C259.883,138.141,259.883,137.945,259.883,138.141
		L259.883,138.141L259.883,138.141L259.883,138.141 M259.508,139.297v0.18c0.188,0,0.188,0.195,0.375,0.195l0,0
		C259.695,139.477,259.508,139.477,259.508,139.297 M259.117,136.805L259.117,136.805c0,0.18,0,0.383,0,0.57c0,0,0,0,0.195,0l0,0
		c-0.195-0.188,0-0.391,0.195-0.391C259.312,136.805,259.312,136.805,259.117,136.805 M259.508,140.438L259.508,140.438
		L259.508,140.438L259.508,140.438 M258.352,137.188c0,0.188,0,0.188,0,0.375c0,0,0,0,0.195,0
		C258.547,137.375,258.547,137.188,258.352,137.188C258.547,137.188,258.352,137.188,258.352,137.188 M257.773,136.805l-0.188,0.18
		l0.188,0.203C257.773,136.984,257.773,136.805,257.773,136.805 M257.586,135.648c-0.188,0-0.188,0-0.383,0
		c0,0.195,0.195,0.195,0.195,0.383c0.188-0.188,0.375-0.383,0.375-0.383H257.586 M257.008,140.25L257.008,140.25
		C257.008,140.055,257.008,140.055,257.008,140.25C257.008,140.055,257.008,140.055,257.008,140.25 M257.586,138.906
		C257.398,138.906,257.398,138.906,257.586,138.906C257.398,138.906,257.398,138.906,257.586,138.906
		C257.398,138.906,257.398,138.906,257.586,138.906 M256.625,137.945L256.625,137.945c-0.188,0-0.188,0-0.188,0.195
		C256.438,137.945,256.625,137.945,256.625,137.945L256.625,137.945 M255.859,140.633
		C255.859,140.633,255.859,140.828,255.859,140.633C255.672,140.828,255.672,140.828,255.859,140.633
		C255.859,140.828,255.859,140.828,255.859,140.633L255.859,140.633 M254.906,137.562c-0.188,0-0.188-0.188-0.391-0.188l0,0
		L254.906,137.562L254.906,137.562C254.719,137.758,254.906,137.758,254.906,137.562L254.906,137.562 M254.328,141.016
		L254.328,141.016C254.516,141.016,254.516,141.016,254.328,141.016L254.328,141.016 M253.945,139.094L253.945,139.094
		c-0.195,0-0.195,0-0.383,0c0,0,0,0-0.188,0c0,0.203,0,0.203,0,0.383C253.75,139.297,253.945,139.094,253.945,139.094
		C254.141,139.094,254.141,139.094,253.945,139.094 M253.945,136.805L253.945,136.805
		C253.945,136.984,254.141,136.805,253.945,136.805L253.945,136.805 M253.75,137.562c-0.375,0-0.953-0.188-1.336-0.188
		c-0.195,0-0.195-0.391-0.195-0.391l0,0c-0.188,0-0.188,0.203-0.383,0.203v0.188c0,0.188,0,0.57-0.188,0.766
		C252.414,137.562,253.18,137.562,253.75,137.562L253.75,137.562 M253.18,136.609l-0.195,0.195c0.195,0,0.195,0,0.391,0
		C253.18,136.805,253.18,136.609,253.18,136.609 M252.031,142.547c0.188,0,0.383,0,0.383,0.195l0,0
		C252.414,142.742,252.414,142.742,252.031,142.547c0-0.188,0-0.188-0.195-0.188C252.031,142.547,252.031,142.547,252.031,142.547
		 M252.609,139.297C252.609,139.297,252.414,139.297,252.609,139.297C252.414,139.297,252.414,139.297,252.609,139.297
		C252.414,139.297,252.414,139.297,252.609,139.297L252.609,139.297 M252.797,140.828c-0.188,0-0.383,0-0.578,0
		c0.195,0.188,0.391,0.375,0.578,0.578C252.797,141.203,252.797,141.016,252.797,140.828 M252.797,138.719l-0.188-0.195l0,0
		C252.609,138.523,252.609,138.523,252.797,138.719L252.797,138.719C252.984,138.906,253.18,138.906,252.797,138.719
		 M252.984,143.312L252.984,143.312L252.984,143.312L252.984,143.312L252.984,143.312 M253.75,139.867L253.75,139.867
		C253.945,139.867,253.945,139.867,253.75,139.867c0.195,0,0.195-0.195,0.195-0.195S253.75,139.672,253.75,139.867L253.75,139.867
		 M253.75,141.969C253.945,141.969,253.945,141.969,253.75,141.969C253.945,141.969,253.945,141.969,253.75,141.969
		C253.945,141.969,253.945,141.969,253.75,141.969c0.195,0,0-0.188,0-0.383C253.75,141.781,253.75,141.781,253.75,141.969
		 M251.453,139.094c-0.188,0-0.188,0-0.383,0c0,0,0,0-0.188,0.203c0,0,0,0,0.188,0c0,0,0,0.18,0.195,0.18l0,0
		c0.188,0,0.383,0,0.57,0C251.836,139.297,251.453,139.297,251.453,139.094 M251.266,142.547
		C251.453,142.547,251.453,142.547,251.266,142.547v-0.188l0,0C251.266,142.359,251.266,142.359,251.266,142.547
		C251.266,142.359,251.266,142.359,251.266,142.547L251.266,142.547 M249.539,141.406L249.539,141.406c0,0.18-0.188,0.18-0.188,0.18
		C249.539,141.586,249.539,141.586,249.539,141.406L249.539,141.406L249.539,141.406 M247.812,146.766v0.195l0,0l0,0
		C247.812,146.961,248.008,146.961,247.812,146.766C248.008,146.766,247.812,146.766,247.812,146.766 M247.812,168.219
		c0,0.195,0,0.195-0.188,0.391l0,0l0,0C247.625,168.414,247.812,168.219,247.812,168.219
		C247.812,168.031,247.812,168.219,247.812,168.219 M247.242,142.359C247.242,142.547,247.242,142.547,247.242,142.359
		c0,0.188,0,0.188-0.195,0.383c0,0,0,0,0.195,0.195c0,0,0-0.195,0.188-0.195C247.242,142.547,247.242,142.547,247.242,142.359
		 M246.664,166.305L246.664,166.305L246.664,166.305C246.664,166.5,246.664,166.5,246.664,166.305L246.664,166.305 M245.703,165.156
		c0,0.188,0,0.188,0,0.391c0.195,0,0.195,0,0.391,0c0,0,0-0.203,0.188-0.203C246.281,165.156,246.094,165.156,245.703,165.156
		 M245.328,147.719h-0.195v0.195c0,0,0,0,0,0.188l0,0C245.328,147.914,245.516,147.914,245.328,147.719L245.328,147.719z
		 M245.328,146.766h-0.195c-0.195,0-0.383,0.195-0.383,0.375h0.188c0.195,0,0.391,0,0.578,0
		C245.328,146.961,245.328,146.766,245.328,146.766 M244.938,145.031c0,0.203,0,0.203,0,0.391c0.195,0,0.195,0,0.391,0
		C245.133,145.234,245.133,145.234,244.938,145.031 M244.75,144.273L244.75,144.273L244.75,144.273L244.75,144.273 M244.562,145.992
		c0.188,0,0.375,0,0.375-0.188c0,0,0,0,0.195,0C244.938,145.805,244.75,145.805,244.562,145.992L244.562,145.992 M244.75,142.547
		c-0.188-0.188-0.578-0.188-0.766-0.383c-0.195,0.383-0.195,0.758,0,1.148l0.188,0.188c0.188,0,0,0.195,0,0.391l0,0h0.188
		c0.203,0,0.203,0,0.391,0c0-0.195,0-0.578,0-0.766C244.75,142.922,244.75,142.742,244.75,142.547 M243.602,144.852L243.602,144.852
		L243.602,144.852C243.789,144.852,243.789,144.852,243.602,144.852C243.789,144.656,243.602,144.852,243.602,144.852
		 M243.602,144.078C243.602,144.078,243.602,144.273,243.602,144.078C243.602,144.273,243.602,144.273,243.602,144.078
		L243.602,144.078 M244.172,145.609C243.984,145.609,243.984,145.609,244.172,145.609
		C243.984,145.609,243.984,145.805,244.172,145.609C243.984,145.805,243.984,145.609,244.172,145.609 M243.406,150.211v0.195
		c0,0,0,0,0.195,0l0,0l0.188-0.195c0-0.195,0.195-0.195,0.383-0.195c0-0.188,0.188-0.188,0.391-0.383l0,0
		C243.984,149.828,243.602,149.828,243.406,150.211C243.406,150.016,243.406,150.016,243.406,150.211 M243.023,163.438
		C243.023,163.438,242.836,163.438,243.023,163.438c0,0.375,0,0.57,0.195,0.758C243.219,163.812,243.023,163.625,243.023,163.438
		 M243.219,147.344l-0.195-0.203C243.023,147.141,243.023,147.141,243.219,147.344C243.023,147.141,243.023,147.344,243.219,147.344
		C243.023,147.344,243.219,147.344,243.219,147.344L243.219,147.344 M243.023,142.164
		C242.836,142.164,242.836,142.164,243.023,142.164C242.836,142.164,242.836,142.164,243.023,142.164
		c-0.383,0.195-0.57,0.578-0.953,0.383c-0.195,0.195-0.578,0.375-0.766,0.578c-0.195,0.188-0.195,0.375-0.391,0.57
		c0.195,0,0.391,0,0.391,0l0.188-0.195c0.188-0.188,0.188-0.188,0.383-0.375c0.195-0.203,0.195-0.203,0.383-0.203c0,0,0,0,0.195,0
		c0-0.18,0-0.18,0.188-0.375C242.641,142.547,242.836,142.359,243.023,142.164L243.023,142.164 M240.727,144.656
		c-0.195-0.195-0.578,0-0.766,0c-0.383,0.195-0.578,0.578-0.766,0.953c0.383,0,0.766,0,1.336,0c0.195,0,0.383,0,0.773,0
		l-0.195-0.188C240.914,145.234,240.914,144.852,240.727,144.656 M240.344,150.016C240.344,150.016,240.531,150.211,240.344,150.016
		C240.531,150.211,240.531,150.211,240.344,150.016C240.531,150.016,240.344,150.016,240.344,150.016
		c0-0.188-0.195-0.188-0.195-0.188S240.148,149.828,240.344,150.016L240.344,150.016 M241.492,148.68
		c0,0.195,0.188,0.383,0.188,0.57l0,0c0-0.375-0.188-0.758-0.188-0.953c0,0-0.188,0-0.188-0.195c0,0.195-0.195,0.195-0.195,0.383
		C241.305,148.492,241.492,148.492,241.492,148.68 M241.875,147.141C241.875,147.141,242.07,147.344,241.875,147.141
		c0.195,0,0.383,0.203,0.383,0.203c0-0.203,0-0.203,0-0.383c0-0.195,0.195-0.195,0.383-0.195c0,0-0.188-0.195-0.383-0.195
		c-0.383,0-0.578,0.391-0.766,0.57C241.68,147.141,241.875,147.141,241.875,147.141 M241.68,159.406
		C241.492,159.406,241.492,159.406,241.68,159.406c-0.188,0-0.375,0.203-0.375,0.383c0,0.195-0.195,0.195-0.195,0.383
		c0.195,0,0.195,0,0.383,0l0,0l0,0l0,0c0.188,0.195,0.383,0.391,0.578,0.773c0-0.195,0-0.383,0.188-0.578
		C241.875,160.172,241.68,159.789,241.68,159.406 M242.641,159.609L242.641,159.609L242.641,159.609
		C242.836,159.609,242.836,159.609,242.641,159.609C242.836,159.609,242.836,159.609,242.641,159.609
		C242.836,159.609,242.641,159.609,242.641,159.609 M242.453,152.32C242.453,152.32,242.641,152.32,242.453,152.32
		c0.188,0,0-0.195,0-0.195c-0.195-0.188,0.188-0.383,0.383-0.383c0,0,0,0,0-0.195c0,0,0-0.188-0.195-0.188l-0.188,0.188
		c-0.195,0.195-0.195,0.391-0.383,0.391C242.453,152.125,242.453,152.32,242.453,152.32 M242.07,157.5h0.188v-0.203
		C242.258,157.297,242.258,157.5,242.07,157.5 M242.641,155.008v-0.195c-0.188-0.195-0.383-0.578-0.57-0.773
		C242.258,154.43,242.453,154.812,242.641,155.008 M241.875,165.156c0.195,0,0.195,0,0.383,0h0.195c0.188,0,0.188,0,0.383,0
		l0.188-0.188c0,0,0,0-0.188-0.195c0,0,0,0-0.195,0c-0.383,0-0.766-0.188-1.148-0.383
		C241.875,164.773,241.875,164.969,241.875,165.156L241.875,165.156 M243.602,165.547
		C243.602,165.344,243.602,165.344,243.602,165.547C243.602,165.344,243.602,165.344,243.602,165.547
		C243.602,165.344,243.602,165.344,243.602,165.547 M243.984,154.812C243.789,154.812,243.789,154.617,243.984,154.812
		C243.789,154.617,243.789,154.812,243.984,154.812C243.789,154.812,243.789,154.812,243.984,154.812 M243.984,166.305
		L243.984,166.305c-0.195,0-0.195,0-0.383,0l0,0C243.789,166.305,243.789,166.305,243.984,166.305 M243.984,162.477
		c0,0,0,0.188,0.188,0.188c0-0.188,0.188-0.383,0-0.57l0,0C243.984,162.281,243.984,162.477,243.984,162.477 M244.359,154.234
		C244.359,154.039,244.359,154.039,244.359,154.234c0-0.195-0.188-0.383-0.375-0.383
		C244.172,153.852,244.172,154.039,244.359,154.234 M244.75,148.492L244.75,148.492l0.188-0.195c-0.188,0-0.375,0-0.375-0.195
		C244.562,148.297,244.75,148.297,244.75,148.492 M244.75,166.883L244.75,166.883L244.75,166.883c-0.188,0-0.188,0.195-0.188,0.383
		C244.75,167.078,244.75,167.078,244.75,166.883 M238.805,146.383c-0.383,0-0.188,0,0,0.188
		C238.617,146.57,238.617,146.57,238.805,146.383L238.805,146.383L238.805,146.383 M241.305,156.344L241.305,156.344
		C241.109,156.344,241.109,156.539,241.305,156.344C241.305,156.539,241.305,156.344,241.305,156.344L241.305,156.344
		 M240.148,152.703c0,0.195,0,0.195,0.195,0.375v-0.18C240.344,152.703,240.344,152.703,240.148,152.703 M239.383,155.188
		C239.383,155.188,239.383,155.391,239.383,155.188C239.383,155.391,239.383,155.391,239.383,155.188
		C239.383,155.391,239.383,155.391,239.383,155.188c-0.188,0.203-0.188,0.203-0.188,0.203
		C239.383,155.391,239.578,155.188,239.383,155.188c0.383-0.18,0.578-0.18,0.766-0.18
		C239.961,155.008,239.766,155.188,239.383,155.188 M239.961,154.234c0-0.195,0-0.195-0.195-0.383l0,0
		c-0.188,0.195-0.383,0.195-0.57,0.195c0,0,0,0-0.195,0c0,0.188,0,0.383,0,0.766C239.578,154.43,239.961,154.43,239.961,154.234
		C240.148,154.234,240.148,154.234,239.961,154.234 M239.578,152.516L239.578,152.516
		C239.383,152.516,239.383,152.516,239.578,152.516c-0.195,0.188-0.195,0.383-0.383,0.383l0,0c0,0,0,0,0.188,0
		c0,0,0.195,0,0.195,0.18C239.578,152.898,239.578,152.703,239.578,152.516 M240.914,163.234L240.914,163.234
		C240.914,163.055,240.914,163.055,240.914,163.234c0.195-0.18,0.195-0.18,0.195-0.375
		C240.914,162.859,240.914,163.055,240.914,163.234 M241.109,164.391v-0.195l0,0l0,0l0,0
		C240.914,164.195,240.914,164.195,241.109,164.391 M240.531,162.094C240.531,162.094,240.531,162.281,240.531,162.094
		C240.531,162.281,240.727,162.094,240.531,162.094C240.727,162.094,240.531,162.094,240.531,162.094 M281.539,150.211h0.195
		c-0.195,0-0.391-0.195-0.578-0.383l0,0C281.156,150.016,281.344,150.016,281.539,150.211 M281.922,150.016
		C281.922,149.828,281.922,149.828,281.922,150.016C281.922,149.828,281.922,149.828,281.922,150.016
		C281.922,149.828,281.922,149.828,281.922,150.016 M282.305,150.211L282.305,150.211
		C282.305,150.211,282.5,150.211,282.305,150.211C282.305,150.016,282.305,150.016,282.305,150.211
		C282.305,150.016,282.305,150.016,282.305,150.211 M284.414,146.188C284.219,146.188,284.219,146.188,284.414,146.188
		C284.219,146.188,284.219,146.188,284.414,146.188c0,0.195-0.195,0.195-0.195,0.195c-0.766-0.195-1.344-0.391-2.109-0.391v0.195
		c0,0-0.188,0.195-0.188,0c-0.383-0.195-0.766-0.383-0.953-0.195c-0.203,0.195-0.391,0.195-0.578,0.195l0,0l0,0
		c-0.195,0.195-0.391,0.195-0.578,0.195c-0.383,0-0.578,0-0.766-0.195c-0.383,0-0.766-0.195-0.961,0.195
		c0,0.188-0.188,0.188-0.188,0.383c0,0,0,0.195-0.195,0.195l0.195,0.18c0.383,0.203,0.57,0.391,0.961,0.578c0,0,0.188-0.188,0.375,0
		c0,0.195,0.195,0.195,0.195,0.383c0-0.188,0.195-0.188,0.383,0c0.188,0.195,0.383,0.391,0.383,0.391
		c0.195,0,0.383,0.188,0.57,0.383l0,0h0.203c0,0,0.188,0.188,0.375,0.188c0.195,0,0.578,0.188,0.766,0.188
		c0.391,0,0.766,0.203,0.961,0.383v0.195c-0.383,0.195-0.961,0.383-1.336,0.195c-0.195,0-0.391-0.195-0.578-0.391
		c0,0-0.188-0.18-0.188-0.383h-0.203c0,0,0,0-0.188-0.18c-0.188,0-0.383,0-0.578,0c0,0,0,0-0.188,0l-0.188,0.18
		c-0.195,0-0.391-0.18-0.766-0.18c-0.578-0.195-1.156-0.578-1.727-0.773h-0.195l0,0l0,0l0,0c0,0.195-0.188,0.195-0.383,0
		l-0.188-0.195l0,0c0,0-0.195,0-0.391,0l0,0c0,0,0,0-0.188,0c0,0.195-0.188,0.391-0.188,0.391s-0.195,0.188-0.391,0.188l0,0
		c0.391,0.391,0.766,0.953,1.156,1.531c0,0.195,0,0.391-0.195,0.391v0.188c0,0.195,0,0.57,0,0.773l0,0l0,0c0,0,0.195,0,0.195,0.18
		c-5.18-0.953-14.57-1.914-13.992,5.18c0.391,5.555-6.32,10.734-13.984,11.492c0,0,0-0.188,0.188-0.188c0-0.195,0-0.195-0.188-0.391
		l0,0l0,0c0,0.195-0.195,0.391-0.195,0.578c-0.953,0-1.727,0-2.68,0c0-0.188,0-0.188,0-0.383v-0.195c0-0.18,0-0.18,0.188-0.18l0,0
		c0-0.203,0-0.203,0-0.391l-0.188-0.188l0,0l0,0c-0.188,0.375-0.578,0.758-0.953,1.148l0,0c-0.203,0-0.391,0-0.578,0v-0.195
		c0-0.578,0.188-0.953,0.188-1.531l0,0c-0.766-0.195-1.719-0.195-2.492,0v0.383c0,0,0,0.195-0.188,0.195
		c-0.188,0.188-0.578,0.188-0.578,0c0-0.195,0-0.195,0-0.383c-0.383-0.391-0.383-0.961-0.188-1.352c0.188-0.18,0.578-0.18,0.578,0
		v0.203c0.188-0.203,0.188-0.383,0.375-0.383c-0.375-0.195-0.953-0.578-1.148-0.961c-0.383,0.57-0.766,0.961-1.148,1.344
		c-0.188,0.188-0.578,0-0.578-0.383c0.195-0.773,0.578-1.539,1.344-1.727c-0.188-0.383-0.188-0.578-0.188-0.961h-0.766
		c-0.391,0-0.391-0.578,0-0.578c0.375,0,0.57,0,0.953,0.195v-0.195c0-0.18,0.195-0.383,0.383-0.383c0.195,0,0.195,0,0.383,0
		c0.195,0,0.195,0,0.391,0.203l0,0v-0.203c-0.195-0.188-0.391-0.375-0.391-0.766l0,0c0,0.195,0,0.195-0.188,0.391
		c0,0.188-0.383,0.188-0.578,0.188c-0.383-0.188-0.578-0.383-0.766-0.578c-0.188-0.188-0.383-0.57-0.578-0.766
		c-0.383-0.578-0.953,0.383-1.148,0.578c-0.188,0.383-0.375,0.766-0.57,1.156c-0.195,0.375-0.57,0-0.57-0.203
		c0.375-1.148,0.953-2.109,1.906-2.867c0.195-0.195,0.383-0.195,0.383,0c0.195,0,0.195,0.188,0.391,0.188l0,0
		c0-0.188,0-0.383-0.195-0.383c0-0.195,0.195-0.578,0.383-0.383c0.188,0,0.383,0.188,0.766,0.188
		c0.383-0.188,0.578-0.188,0.961-0.383c0.195,0,0.195-0.188,0.383-0.188c-0.188,0-0.383,0.188-0.578,0
		c-0.188,0-0.383-0.391-0.57-0.57c0-0.195,0-0.578,0-0.961c-0.383,0.188-0.773,0.383-1.148,0.578c0,0.383-0.195,0.766-0.195,1.141
		c0,0.383-0.578,0.383-0.766,0c0-0.188,0-0.188,0-0.375c0,0,0,0-0.188-0.203c-0.195,0-0.195-0.18-0.195-0.375
		c0-0.383,0.195-0.578,0.383-0.961c0.188-0.195,0.188-0.383,0.383-0.57c-0.195-0.578-0.195-1.156,0-1.539l0,0
		c-0.383,0.195-0.766,0.195-1.148,0c-0.195,0.195-0.383,0.195-0.578,0.383c-0.188,0-0.375,0.195-0.578,0.195
		c-0.375,0-0.375-0.578,0-0.578c0.203,0,0.203,0,0.391,0c0.188-0.18,0.383-0.383,0.383-0.57c0.188-0.188,0.383-0.188,0.57,0
		c0.391-0.383,0.766-0.578,1.344-0.961c0-0.188,0.195-0.383,0.383-0.383c0.188-0.195,0.578,0,0.766,0c0.195,0,0.195,0,0.383,0l0,0
		l0,0c0-0.195,0.195-0.375,0.383-0.375c0.195,0,0.195,0,0.195,0.18h0.195c0.188-0.18,0.188-0.383,0.375-0.562
		c0-0.195,0.195-0.195,0.195-0.195c-0.195-0.195-0.383-0.195-0.383-0.383c0,0.383-0.188,0.578-0.383,0.961
		c-0.195,0.18-0.383,0.18-0.578,0.18c-0.188,0-0.188,0-0.188-0.18c0,0.18-0.383,0.18-0.578,0.18s-0.195-0.18-0.383-0.383
		c-0.188,0.203-0.383,0.383-0.578,0.383c-0.188,0.195-0.383,0.195-0.758,0.391c-0.578,0.188-1.344,0.383-2.109,0.383
		c-0.391,0-0.391-0.578,0-0.578c0.578,0,1.148-0.195,1.719-0.578c0.578-0.188,0.766-0.758,1.148-1.148
		c0.195-0.188,0.578-0.383,0.961-0.383l0,0c0-0.188,0.195-0.375,0.383-0.188c0-0.188,0-0.57,0.195-0.766
		c-0.195,0-0.383-0.195-0.578-0.383c0,0,0-0.195-0.195-0.383c0-0.195-0.188-0.195-0.375-0.195v0.195
		c-0.195,0-0.195,0.383-0.195,0.383l-0.383,0.578c-0.195,0.18-0.766,0-0.57-0.195c0.188-0.383,0.188-0.766,0.188-1.156
		c0-0.188-0.188-0.375,0-0.758c0-0.195,0.188-0.195,0.383-0.195c-0.195-0.578,0.188-1.156,0.383-1.531
		c0.383-0.383,0.766-0.578,1.148-0.578c0,0-0.188-0.188,0-0.383c0.383-0.578,0.578-0.961,1.156-1.336
		c0.188-0.195,0.375-0.383,0.57-0.578c-0.195,0-0.383,0-0.57,0.195c-0.195,0.188-0.773,0-0.578-0.391
		c0.188-0.578,0.766-0.961,1.531-0.961c0.195,0,0.195,0,0.383,0.203h0.188c0.195,0,0.195,0,0.195,0.188
		c0.195,0,0.383,0.188,0.383,0.188c0.195,0,0.195,0,0.383,0.195c0.195,0,0.383,0.188,0.57,0.188c0.578,0,0.969,0.195,1.344,0.391
		c0.195,0,0.195,0.188,0.391,0.188c0-0.188,0-0.188,0-0.383c-0.195,0-0.391,0-0.391-0.195c-0.188-0.188-0.188-0.57-0.188-0.758l0,0
		c-0.188,0.188-0.578,0-0.578-0.203l0,0h-0.188c-0.188,0-0.391-0.18-0.188-0.375c0.188-0.195,0.188-0.195,0.375-0.383
		c0.195-0.195,0.195-0.195,0-0.383c-0.188,0-0.375-0.195-0.578-0.195l-0.57-0.195c-0.195,0-0.383-0.375,0-0.578
		c0.773-0.375,1.727,0,1.914,0.578c0.195,0,0.195,0,0.391,0c0,0,0,0,0,0.195c0.188,0,0.188-0.195,0.375-0.195v-0.188
		c0-0.188,0-0.188,0.195-0.391c0.195-0.18,0.383-0.18,0.578,0.203c0,0,0,0,0,0.188c0.383-0.188,0.766-0.188,0.953,0
		c0.195,0.188,0.383,0.383,0.383,0.578c0.195-0.391,0.195-0.766,0-1.344c0-0.188,0-0.188,0.195-0.383
		c0.188,0,0.188-0.195,0.383-0.195c0.195-0.188,0.57,0,0.57,0.195s0,0.578,0,0.758c0.195,0.203,0.195,0.578,0.195,0.969v0.188
		c0,0.195,0.195,0.195,0.195,0.195v0.195c0,0.188,0.188,0.188,0.188,0.383c0,0,0.195,0,0.195-0.195l0,0c0-0.195,0-0.195,0-0.383l0,0
		l0,0c-0.195,0-0.383-0.195-0.383-0.195c-0.195,0-0.195-0.188,0-0.383c0,0,0.188-0.195,0.383-0.195
		c-0.195,0-0.195-0.188-0.195-0.375c0.195-0.203,0.383-0.578,0.578-0.766c-0.195,0.188-0.578,0.188-0.766,0.188c0,0-0.195,0,0-0.188
		c0.188-0.391,0.57-0.578,0.766-0.578c0.383-0.195,0.766-0.375,1.148-0.766c0.188-0.188,0.383,0,0.383,0.188
		c0.195-0.188,0.57-0.188,0.766-0.375l0,0c0-0.195,0.195-0.195,0.383-0.195c0.766,0.195,1.344,0.383,1.914,0.953
		c0,0,0.195,0.195,0,0.195l0,0l0,0c0.383-0.195,0.578,0,0.961,0.188c0-0.188,0.188-0.188,0.188-0.383c0.195,0,0.195,0,0.195-0.18
		c0.188-0.203-0.195-0.391-0.195-0.773c-0.188-0.188-0.188-0.383,0-0.383c0.195,0,0.383-0.195,0.773-0.195h0.188h0.188
		c0.195,0,0.578,0,0.773,0.195c0.188-0.195,0.383-0.383,0.57-0.578c0.195-0.195,0.578,0,0.578,0.195c0,0.383,0,0.578-0.195,0.961
		l0,0c0.195,0,0.195,0.188,0.383,0.188c0.195,0.188,0.383,0.391,0.578,0.391l0.195,0.18c0.188,0.195,0.375,0.391,0.57,0.578h0.195
		l0.188-0.188c0.188,0,0.383-0.195,0.578-0.195l0,0l0,0c0,0,0.188-0.195,0.375-0.195c0-0.18-0.188-0.383,0-0.57
		c0.203-0.383,0.391-0.57,0.391-1.148c0-0.195,0-0.57-0.188-0.773c-0.203-0.18-0.391-0.57-0.391-0.953s0.578-0.383,0.578-0.195
		c0.188,0.195,0.188,0.578,0.383,0.773s0.383,0.375,0.383,0.578c0.188,0.375,0.188,0.758,0.188,1.148c0,0.57,0,1.141,0,1.719
		c0.195-0.195,0.391-0.383,0.766-0.383c0.578,0,1.148,0.578,1.539,0.961c0.188-0.195,0.383-0.383,0.57-0.578
		c0,0,0.195-0.195,0.383,0c0-0.195,0.195-0.195,0.195-0.383c0,0,0-0.195,0.195-0.195c-0.195-0.383,0.375-0.57,0.57-0.18
		c0.195,0.375,0.195,0.953-0.195,1.336l0,0c0,0.383,0,0.57,0,0.953c0,0.195,0,0.195,0,0.383h0.195l0,0
		c0-0.383,0.195-0.578,0.766-0.766c0.766-0.188,0.961-0.57,1.344-1.148c0,0,0,0,0.188,0c0-0.383-0.188-0.758-0.383-1.148
		c-0.188-0.188-0.188-0.188-0.383-0.383c-0.57-0.383-0.953-0.766-1.336-1.539c-0.195-0.188,0.188-0.57,0.383-0.375
		c0.766,0.578,1.531,1.148,1.906,1.914l0.203,0.195c0,0,0-0.195,0.188-0.195c0.188-0.195,0.578-0.195,0.578,0.195
		c0,0.188,0,0.578-0.195,0.758v0.195c0,0.383,0,0.766,0,0.961c0.195-0.195,0.383-0.195,0.57-0.195
		c0.195-0.188,0.391-0.188,0.391-0.383c0.188-0.383,0.57-0.758,0.766-1.336c0.188-0.391,0.766,0,0.57,0.375
		c-0.188,0.383-0.383,0.766-0.766,0.961c-0.195,0.195-0.195,0.383-0.383,0.578c0,0.195-0.188,0.195-0.188,0.383l0.188,0.188
		c0,0.188,0,0.188,0,0.383c0.188,0.383,0.188,0.578,0.188,0.961c0,0.195,0.195,0.195,0.195,0.375c0,0.203,0,0.203,0,0.203
		c0.195,0,0.195-0.203,0.383-0.203c0-0.18,0.195-0.18,0.195-0.18c0-0.195,0-0.391,0-0.578v-0.195l0,0c0-0.383,0-0.578,0.188-0.953
		c0.383-0.578,1.148-1.156,1.727-1.539c0-0.195,0-0.383,0.195-0.57h0.188c0.188,0,0.383,0,0.383,0.188v0.203
		c-0.195,0-0.195,0-0.383,0c0,0.18,0,0.562-0.188,0.758c-0.195,0.383-0.391,0.383-0.578,0.758c-0.766,0.773,0.766,1.734,0.578,2.688
		c0,0.383-0.195,0.383-0.578,0.578c-0.195,0-0.195,0.195-0.383,0.195c0,0,0,0,0.188,0c0.195,0.188,0.383,0.188,0.383,0.383
		c0.195,0.188,0.195,0.375,0.391,0.375c0.188,0,0.375,0,0.766,0c0.188,0,0.383,0.203,0.188,0.383c0.195,0,0.383-0.18,0.578-0.18l0,0
		c0.188-0.391,0.766-0.578,1.336-0.578c0.961,0,1.727-0.195,2.688-0.195l0,0l0,0h0.188l0,0c0.195,0,0.195,0,0.383,0
		c0.195,0,0.383,0.383,0,0.383c-0.57,0.188-1.336,0.391-2.102,0.57c-0.195,0-0.391,0-0.766,0c-0.578,0.195-1.156,0.383-0.961,0.961
		c0,0.195-0.195,0.391-0.383,0.195c-0.383-0.195-0.766,0.57-0.961,0.773c-0.188,0.18-0.383,0.375-0.578,0.375
		c0,0.188,0,0.383,0,0.578c0.391,0,0.773-0.195,0.961-0.391c0.195-0.188,0.383-0.188,0.578,0c0.57,0.578,0.766-0.383,1.344-0.188
		c0.188,0,0.375,0.188,0.57,0.188c0.383,0.195,0.195,0,0.383-0.188c0.188-0.375,0.578-0.578,0.953-0.375
		c0.578,0.18,1.156,0.375,1.734,0.562c0.375,0,0.758,0.195,1.148,0.391C284.023,145.992,284.219,145.992,284.414,146.188
		L284.414,146.188"/>
</g>
</svg>
