<?xml version="1.0" encoding="utf-8"?>
<!-- Generator: Adobe Illustrator 16.0.0, SVG Export Plug-In . SVG Version: 6.00 Build 0)  -->
<!DOCTYPE svg PUBLIC "-//W3C//DTD SVG 1.1//EN" "http://www.w3.org/Graphics/SVG/1.1/DTD/svg11.dtd">
<svg version="1.1" id="Layer_1" xmlns="http://www.w3.org/2000/svg" xmlns:xlink="http://www.w3.org/1999/xlink" x="0px" y="0px"
	 width="100px" height="100px" viewBox="0 0 100 100" enable-background="new 0 0 100 100" xml:space="preserve">
<g>
	
		<path fill="none" stroke="#4681A7" stroke-width="0.5" stroke-linecap="round" stroke-linejoin="round" stroke-miterlimit="2.613" d="
		M57.951,40.699l3.107-4.168l2.131,1.389l2.123-0.164l1.393-1.963l2.291-0.738 M58.031,42.748l2.211-0.656l1.555-2.537l1.469,0.824
		l2.785-1.066l2.781-2.867 M58.031,44.711l2.457-1.225l2.043,0.738l1.879-2.379l1.477,0.166l2.945-1.719 M56.477,34.566v11.699
		v2.213l13.172,0.076"/>
	<g>
		<path fill="none" stroke="#4681A7" d="M50,76.684c14.316,0,25.977-11.59,25.977-25.979C75.977,36.387,64.385,24.73,50,24.73
			c-14.387,0-25.977,11.59-25.977,25.975C24.023,65.094,35.613,76.684,50,76.684z"/>
	</g>
	<path fill="none" stroke="#4681A7" stroke-dasharray="4.084,4.084" d="M66.16,62.84"/>
	<g>
		<path fill="#4681A7" d="M52.059,54.613l-5.645-2.293V55.1l-2.291-1.146L41.832,55.1V52.24l-5.562,2.373
			c-0.9,0.324-1.393,1.143-1.393,2.043v6.137h0.738v-6.137c0-0.572,0.326-1.064,0.9-1.311l4.5-1.881v2.947l1.551-0.82l0.246,1.064
			l-0.488,6.137l0.734,0.086l0.492-6.223l-0.328-1.391l0.818-0.406l0.82,0.406l-0.33,1.391l0.41,6.223l0.738-0.086l-0.41-6.053
			l0.246-1.148l1.473,0.738v-2.865l4.578,1.881c0.574,0.166,0.9,0.738,0.9,1.311v6.137h0.738v-6.137
			C53.531,55.838,52.959,55.023,52.059,54.613"/>
		<path fill="#4681A7" d="M39.951,46.838h0.654l-0.082-0.408c-0.082-0.406-0.082-0.816-0.082-1.145v-0.16
			c0-2.049,1.637-3.688,3.682-3.688s3.682,1.639,3.682,3.688v0.16c0,0.328,0,0.652-0.082,1.145l-0.082,0.49h0.656c0,0,0,0,0.08,0
			l0,0l-0.164,0.9l-0.9,0.492l-0.898,1.801c-0.082,0.24-0.652,0.732-0.98,0.979l-0.164,0.164c-0.164,0.164-0.408,0.246-0.654,0.246
			h-0.902c-0.246,0-0.408-0.082-0.572-0.246c-0.082-0.08-0.164-0.164-0.328-0.244c-0.324-0.246-0.816-0.658-0.898-0.898
			l-0.816-1.801l-0.82-0.492L39.951,46.838L39.951,46.838 M40.361,48.801l0.736,1.559c0.164,0.406,0.652,0.816,1.145,1.225
			c0.082,0.082,0.16,0.164,0.246,0.246c0.324,0.246,0.652,0.41,1.062,0.41h0.9l0,0c0.41,0,0.818-0.164,1.064-0.41l0.164-0.164
			c0.57-0.49,1.062-0.9,1.223-1.307l0.738-1.559l0.982-0.488l0.246-1.311v-0.08c0-0.246-0.082-0.41-0.246-0.576
			c-0.082-0.08-0.246-0.162-0.326-0.246c0-0.322,0.08-0.568,0.08-0.814v-0.16c0-2.459-1.963-4.426-4.418-4.426
			s-4.418,1.967-4.418,4.426v0.16c0,0.246,0,0.574,0.082,0.814c-0.326,0.084-0.572,0.412-0.572,0.822l0.408,1.391L40.361,48.801z"/>
		<path fill="#4681A7" d="M34.467,47.656V46.1c0-0.076,0.084-0.246,0.164-0.322l0.738-0.656c0.082-0.082,0.162-0.082,0.246-0.082
			h0.9c0.082,0,0.164,0,0.246,0.082l0.734,0.656c0.082,0.076,0.164,0.16,0.164,0.322v1.557l-0.734,0.898v0.898v0.9l-0.738-0.24
			l-0.736,0.24v-0.654v-0.246v-0.898L34.467,47.656z M36.023,50.846l1.555,0.574v-1.389l1.227,0.652h0.082
			c0.326,0.162,0.654,0.328,0.654,0.328v1.311h0.736v-1.311c0-0.652-0.818-0.98-1.146-1.066l-1.553-0.812v-0.408l0.734-0.902v-1.885
			c0-0.324-0.164-0.652-0.41-0.898l-0.734-0.652c-0.242-0.162-0.488-0.246-0.734-0.246h-0.818c-0.246,0-0.574,0.078-0.738,0.246
			l-0.736,0.652c-0.246,0.246-0.41,0.574-0.41,0.898v1.885l0.82,0.902v0.322l-1.965,0.82c-0.488,0.164-0.734,0.57-0.734,1.062v7.855
			l0.734,0.652v3.441h0.738v-3.766l-0.738-0.656V50.93c0-0.164,0.082-0.33,0.246-0.406l1.635-0.656v1.389L36.023,50.846z"/>
		<path fill="#4681A7" d="M53.043,48.479v0.9v0.246v0.652l-0.738-0.246l-0.738,0.246v-0.898v-0.9l-0.734-0.902v-1.553
			c0-0.086,0.078-0.246,0.164-0.332l0.734-0.652c0.082-0.082,0.164-0.082,0.246-0.082h0.9c0.082,0,0.166,0,0.246,0.082l0.736,0.652
			c0.084,0.086,0.164,0.168,0.164,0.332v1.553L53.043,48.479z M55.824,49.945l-1.965-0.812v-0.408l0.82-0.902v-1.885
			c0-0.324-0.168-0.652-0.414-0.898l-0.734-0.652c-0.242-0.162-0.488-0.246-0.734-0.246h-0.902c-0.246,0-0.57,0.078-0.738,0.246
			l-0.73,0.652c-0.246,0.246-0.414,0.574-0.414,0.898v1.885l0.738,0.902v0.408l-1.553,0.812c-0.328,0.086-1.146,0.492-1.146,1.066
			v1.311h0.736v-1.311c0-0.082,0.328-0.246,0.654-0.412l1.309-0.654v1.393l1.555-0.572l1.555,0.572v-1.393l1.637,0.738
			c0.16,0.082,0.246,0.162,0.246,0.328v7.527l-0.738,0.652v3.766h0.738v-3.434l0.734-0.656v-7.855
			C56.559,50.523,56.23,50.113,55.824,49.945"/>
	</g>
</g>
</svg>
