<svg fill="#189d0e" xmlns="http://www.w3.org/2000/svg" xmlns:xlink="http://www.w3.org/1999/xlink" x="0px" y="0px" width="25px" height="25px" viewBox="0 0 24.531 24.536" >
<path d="M24.531,11.954c0,6.597-5.39,11.949-12.043,11.949c-2.113,0-4.093-0.539-5.82-1.489L0,24.536l2.172-6.415
	c-1.094-1.8-1.727-3.914-1.727-6.171C0.445,5.352,5.836,0,12.492,0C19.141,0,24.531,5.352,24.531,11.954L24.531,11.954z
	 M12.488,1.907c-5.582,0-10.125,4.507-10.125,10.047c0,2.199,0.715,4.234,1.93,5.89l-1.266,3.731l3.891-1.239
	C8.52,21.387,10.434,22,12.488,22c5.582,0,10.125-4.507,10.125-10.046C22.613,6.414,18.07,1.907,12.488,1.907L12.488,1.907z
	 M18.57,14.704c-0.074-0.122-0.269-0.196-0.566-0.34c-0.293-0.149-1.746-0.856-2.016-0.953c-0.273-0.098-0.468-0.149-0.664,0.148
	c-0.195,0.293-0.762,0.949-0.937,1.148c-0.172,0.196-0.344,0.219-0.637,0.075c-0.297-0.149-1.25-0.457-2.375-1.453
	c-0.879-0.778-1.473-1.735-1.645-2.032c-0.171-0.293-0.015-0.449,0.129-0.593c0.133-0.133,0.297-0.344,0.446-0.516
	c0.148-0.172,0.195-0.293,0.293-0.488c0.097-0.196,0.05-0.368-0.024-0.512C10.5,9.039,9.91,7.598,9.664,7.012
	C9.418,6.426,9.172,6.524,9,6.524C8.828,6.524,8.633,6.5,8.434,6.5c-0.196,0-0.516,0.071-0.786,0.368
	c-0.273,0.293-1.035,1-1.035,2.441c0,1.445,1.059,2.836,1.207,3.031c0.149,0.192,2.043,3.25,5.043,4.422
	c3.004,1.172,3.004,0.781,3.543,0.731c0.543-0.051,1.746-0.707,1.992-1.391C18.645,15.414,18.645,14.829,18.57,14.704L18.57,14.704
	z M18.57,14.704"/>
</svg>
